<svg id="Layer_1" data-name="Layer 1" xmlns="http://www.w3.org/2000/svg" viewBox="0 0 31.99 32.07"><defs><style>.cls-1,.cls-3{fill:none;stroke:#fff;stroke-width:0.72px;}.cls-1{stroke-miterlimit:10;}.cls-2{fill:#fff;}.cls-3{stroke-linejoin:round;}</style></defs><polyline class="cls-1" points="3.06 6.13 4.56 7.63 3.06 9.13"/><polyline class="cls-1" points="28.3 15.89 26.56 17.63 26.55 20.13"/><path class="cls-2" d="M3.56,2.63a.5.5,0,0,1-1,0,.5.5,0,0,1,1,0Zm1.5-.5a.5.5,0,0,0-.5.5.5.5,0,0,0,1,0A.5.5,0,0,0,5.06,2.13Zm2,0a.5.5,0,0,0-.5.5.5.5,0,0,0,1,0A.5.5,0,0,0,7.06,2.13Zm11,4a.5.5,0,0,0-.5.5.5.5,0,0,0,1,0A.5.5,0,0,0,18.06,6.13Zm2,0a.5.5,0,0,0-.5.5.5.5,0,0,0,1,0A.5.5,0,0,0,20.06,6.13Zm2,0a.5.5,0,0,0-.5.5.5.5,0,0,0,1,0A.5.5,0,0,0,22.06,6.13Zm-17,18a.5.5,0,0,0-.5.5.5.5,0,0,0,1,0A.5.5,0,0,0,5.06,24.13Z"/><path class="cls-3" d="M1.06,14.13v-13h12v13Zm12-10h-12m4,6h3m-4.5,9h3m-3,2h3m13,1H31.06v-17h-15v11m0-8h15m-29,15h6m0-5.41a.58.58,0,0,0-.58-.59H2.64a.58.58,0,0,0-.58.59v7.83a.58.58,0,0,0,.58.58H7.48a.58.58,0,0,0,.58-.58Zm18.5-2.59a2.5,2.5,0,1,0,2.5,2.5A2.5,2.5,0,0,0,26.56,15.13Zm-8.5-5h4m3,0h4m-11,2h4m-4,2h4m3-2h4m-6,19v-.52a7,7,0,0,0-5.36-6.8,4,4,0,1,0-3.28,0,7,7,0,0,0-5.36,6.8v.52"/></svg>