<?xml version="1.0" encoding="utf-8"?>
<!-- Generator: Adobe Illustrator 24.1.0, SVG Export Plug-In . SVG Version: 6.00 Build 0)  -->
<svg version="1.1" id="Layer_1" xmlns="http://www.w3.org/2000/svg" xmlns:xlink="http://www.w3.org/1999/xlink" x="0px" y="0px"
	 width="32px" height="32px" viewBox="0 0 32 32" style="enable-background:new 0 0 32 32;" xml:space="preserve">
<style type="text/css">
	.st0{fill:#FFFFFF;}
</style>
<path class="st0" d="M16,19.4c1.9,0,3.4-1.5,3.4-3.4s-1.5-3.4-3.4-3.4s-3.4,1.5-3.4,3.4S14.1,19.4,16,19.4z M16,13.4
	c1.5,0,2.6,1.2,2.6,2.6c0,1.5-1.2,2.6-2.6,2.6c-1.5,0-2.6-1.2-2.6-2.6C13.4,14.5,14.5,13.4,16,13.4z M28.2,8.7l-12-7
	c-0.1,0-0.1,0-0.2,0c-0.1,0-0.1,0-0.2,0l-4,2.3l0,0l-8,4.7C3.7,8.8,3.6,8.9,3.6,9v14c0,0.1,0.1,0.2,0.2,0.3l12,7c0.1,0,0.1,0,0.2,0
	s0.1,0,0.2,0l12-7c0.1-0.1,0.2-0.2,0.2-0.3V9C28.4,8.9,28.3,8.8,28.2,8.7z M16,29.6l-7.6-4.5V11.9L16,7.4l4.9,2.8l0.4-0.6l-5-2.9
	c-0.1-0.1-0.3-0.1-0.4,0l-8,4.7c-0.1,0.1-0.2,0.2-0.2,0.3v13l-3.3-1.9V9.2L16,2.4l7.6,4.5v13.2L16,24.6l-4.9-2.8l-0.4,0.6l5,2.9
	c0.1,0,0.1,0,0.2,0s0.1,0,0.2,0l8-4.7c0.1-0.1,0.2-0.2,0.2-0.3v-13l3.3,1.9v13.6L16,29.6z"/>
</svg>
