<?xml version="1.0" encoding="utf-8"?>
<!-- Generator: Adobe Illustrator 24.1.0, SVG Export Plug-In . SVG Version: 6.00 Build 0)  -->
<svg version="1.1" id="Layer_1" xmlns="http://www.w3.org/2000/svg" xmlns:xlink="http://www.w3.org/1999/xlink" x="0px" y="0px"
	 width="32px" height="32px" viewBox="0 0 32 32" style="enable-background:new 0 0 32 32;" xml:space="preserve">
<style type="text/css">
	.st0{fill:#FFFFFF;}
</style>
<path class="st0" d="M11.6,23c0,0.9-0.7,1.6-1.6,1.6H6.4V23c0-0.2-0.2-0.4-0.4-0.4H2c-0.2,0-0.4,0.2-0.4,0.4v4
	c0,0.2,0.2,0.4,0.4,0.4h4c0.2,0,0.4-0.2,0.4-0.4v-1.6H10c1.3,0,2.4-1.1,2.4-2.4v-2h-0.7V23z M5.6,26.6H2.4v-3.3h3.3V26.6z
	 M16.4,25.7v-4.6c0-1.3-1.1-2.4-2.4-2.4H7.5l-0.2,0c-3.4-0.1-6.1-2.9-5.9-6.3c0.2-3.4,3-6,6.4-6H9c0.1,0,0.3-0.1,0.3-0.2
	c1.5-2.8,4.4-4.6,7.6-4.7c2.3,0,4.5,0.8,6.1,2.4c1.7,1.6,2.6,3.8,2.6,6.1c0,0.2,0.2,0.4,0.4,0.4h0.3c0,0,0.1,0,0.1,0
	c2.2,0,4,1.6,4.2,3.7c0,0.1,0,0.3,0,0.4c0,2.3-1.9,4.1-4.1,4.1c0,0,0,0,0,0l0,0.4v-0.4H24v0.7h2.5h0c0,0,0,0,0,0
	c1.3,0,2.5-0.5,3.4-1.4c0.9-0.9,1.4-2.1,1.4-3.4c0-0.2,0-0.3,0-0.5c-0.3-2.5-2.5-4.4-5-4.4c-0.1-2.4-1.1-4.6-2.8-6.2
	c-1.8-1.7-4.2-2.7-6.7-2.7c-3.4,0-6.5,1.9-8.1,4.9h-1c0,0-0.1,0-0.1,0c-3.7,0-6.8,2.9-7,6.6c-0.1,3.8,2.9,7,6.6,7.1l6.7,0
	c0.9,0,1.7,0.8,1.7,1.7v4.6c-1.4,0.2-2.5,1.4-2.5,2.8c0,1.6,1.3,2.9,2.9,2.9s2.9-1.3,2.9-2.9C18.9,27,17.8,25.9,16.4,25.7z M16,30.6
	c-1.2,0-2.1-1-2.1-2.1s1-2.1,2.1-2.1c1.2,0,2.1,1,2.1,2.1S17.2,30.6,16,30.6z M26.2,21.7c-0.1-0.1-0.2-0.1-0.4,0
	c-0.1,0.1-0.2,0.2-0.2,0.3v2.6H22c-0.9,0-1.6-0.7-1.6-1.6v-5.7c1.4-0.2,2.5-1.4,2.5-2.8c0-1.6-1.3-2.9-2.9-2.9s-2.9,1.3-2.9,2.9
	c0,1.5,1.1,2.6,2.5,2.8V23c0,1.3,1.1,2.4,2.4,2.4h3.6V28c0,0.1,0.1,0.2,0.2,0.3c0.1,0,0.1,0,0.2,0c0.1,0,0.1,0,0.2-0.1l5-3
	c0.1-0.1,0.2-0.2,0.2-0.3s-0.1-0.2-0.2-0.3L26.2,21.7z M17.9,14.5c0-1.2,1-2.1,2.1-2.1s2.1,1,2.1,2.1s-1,2.1-2.1,2.1
	S17.9,15.7,17.9,14.5z M26.4,27.4v-4.7l3.9,2.4L26.4,27.4z"/>
</svg>
