<svg width="32" height="32" viewBox="0 0 32 32" fill="none" xmlns="http://www.w3.org/2000/svg">
<g clip-path="url(#clip0_1_1393)">
<rect width="32" height="32" fill="white" style="mix-blend-mode:multiply"/>
<path d="M24 31.3601H10C9.80101 31.3601 9.64001 31.1991 9.64001 31.0001V26.0001C9.64001 25.8011 9.80101 25.6401 10 25.6401H20.64V23.5001C20.64 22.5961 19.905 21.8601 19 21.8601H15C13.699 21.8601 12.64 20.8011 12.64 19.5001V17.3601H10C9.80101 17.3601 9.64001 17.1991 9.64001 17.0001V12.0001C9.64001 11.8011 9.80101 11.6401 10 11.6401H24C24.199 11.6401 24.36 11.8011 24.36 12.0001V17.0001C24.36 17.1991 24.199 17.3601 24 17.3601H13.36V19.5001C13.36 20.4041 14.096 21.1401 15 21.1401H19C20.302 21.1401 21.36 22.1991 21.36 23.5001V25.6401H24C24.199 25.6401 24.36 25.8011 24.36 26.0001V31.0001C24.36 31.1991 24.199 31.3601 24 31.3601ZM10.36 30.6401H23.64V26.3601H10.36V30.6401ZM10.36 16.6401H23.64V12.3601H10.36V16.6401ZM14 28.8601H12V28.1401H14V28.8601ZM26.001 19.3601V18.6401C28.819 18.6401 30.64 17.1521 30.64 14.8471C30.64 12.4151 28.691 10.3601 26.383 10.3601C26.184 10.3601 26.023 10.1991 26.023 10.0001C26.023 5.15511 22.127 1.36011 17.155 1.36011C14.071 1.36011 10.994 3.29111 9.31501 6.27811C9.23901 6.41111 9.09101 6.48111 8.93901 6.45711C8.56601 6.39311 8.18901 6.36011 7.82101 6.36011C4.13701 6.36011 1.36001 9.01711 1.36001 12.5391C1.36001 16.0171 4.21501 18.6401 8.00101 18.6401V19.3611C3.80501 19.3611 0.641006 16.4281 0.641006 12.5401C0.641006 8.60711 3.72801 5.64111 7.82201 5.64111C8.14901 5.64111 8.48101 5.66411 8.81301 5.70911C10.643 2.62211 13.891 0.641113 17.155 0.641113C22.413 0.641113 26.556 4.57311 26.737 9.65511C29.278 9.85211 31.361 12.1501 31.361 14.8481C31.36 17.5891 29.257 19.3601 26.001 19.3601ZM14 14.8601H12V14.1401H14V14.8601Z" fill="#161616"/>
</g>
<defs>
<clipPath id="clip0_1_1393">
<rect width="32" height="32" fill="white"/>
</clipPath>
</defs>
</svg>
