<svg width="32" height="32" viewBox="0 0 32 32" fill="none" xmlns="http://www.w3.org/2000/svg">
<rect width="32" height="32" fill="white" style="mix-blend-mode:multiply"/>
<path d="M18 14.3599H30C30.199 14.3599 30.36 14.1989 30.36 13.9999V1.99989C30.36 1.80089 30.199 1.63989 30 1.63989H18C17.801 1.63989 17.64 1.80089 17.64 1.99989V7.63989H14.36V1.99989C14.36 1.80089 14.199 1.63989 14 1.63989H2.00001C1.80101 1.63989 1.64001 1.80089 1.64001 1.99989V13.9999C1.64001 14.1989 1.80101 14.3599 2.00001 14.3599H7.64001V17.6399H2.00001C1.80101 17.6399 1.64001 17.8009 1.64001 17.9999V29.9999C1.64001 30.1989 1.80101 30.3599 2.00001 30.3599H14C14.199 30.3599 14.36 30.1989 14.36 29.9999V24.3599H17.64V29.9999C17.64 30.1989 17.801 30.3599 18 30.3599H30C30.199 30.3599 30.36 30.1989 30.36 29.9999V17.9999C30.36 17.8009 30.199 17.6399 30 17.6399H18C17.801 17.6399 17.64 17.8009 17.64 17.9999V23.6399H14.36V17.9999C14.36 17.8009 14.199 17.6399 14 17.6399H8.36001V14.3599H14C14.199 14.3599 14.36 14.1989 14.36 13.9999V8.35989H17.64V13.9999C17.64 14.1989 17.801 14.3599 18 14.3599ZM18.36 8.35989H24.131L22.745 9.74589L23.255 10.2549L25.509 7.99989L23.255 5.74589L22.745 6.25489L24.131 7.64089H18.36V2.35989H29.64V13.6399H18.36V8.35989ZM18.36 24.3599H22.688C22.846 24.9349 23.375 25.3599 24 25.3599C24.75 25.3599 25.36 24.7499 25.36 23.9999C25.36 23.2499 24.75 22.6399 24 22.6399C23.375 22.6399 22.847 23.0649 22.688 23.6399H18.36V18.3599H29.64V29.6399H18.36V24.3599ZM23.36 23.9999C23.36 23.6469 23.647 23.3599 24 23.3599C24.353 23.3599 24.64 23.6469 24.64 23.9999C24.64 24.3529 24.353 24.6399 24 24.6399C23.647 24.6399 23.36 24.3529 23.36 23.9999ZM8.00001 23.3599C8.35301 23.3599 8.64002 23.6469 8.64002 23.9999C8.64002 24.3529 8.35301 24.6399 8.00001 24.6399C7.64701 24.6399 7.36001 24.3529 7.36001 23.9999C7.36001 23.6469 7.64701 23.3599 8.00001 23.3599ZM13.64 29.6399H2.36001V18.3599H7.64001V22.6879C7.06401 22.8459 6.64001 23.3749 6.64001 23.9999C6.64001 24.7499 7.25001 25.3599 8.00001 25.3599C8.62501 25.3599 9.15302 24.9349 9.31202 24.3599H13.641V29.6399H13.64ZM13.64 18.3599V23.6389H9.31202C9.18602 23.1779 8.82101 22.8149 8.36001 22.6879V18.3599H13.64ZM8.00001 8.63989C7.64701 8.63989 7.36001 8.35289 7.36001 7.99989C7.36001 7.64689 7.64701 7.35989 8.00001 7.35989C8.35301 7.35989 8.64002 7.64689 8.64002 7.99989C8.64002 8.35289 8.35301 8.63989 8.00001 8.63989ZM13.64 13.6399H8.36001V9.31189C8.82101 9.18489 9.18502 8.82089 9.31202 8.35989H13.641V13.6399H13.64ZM13.64 7.63989H9.31202C9.15402 7.06389 8.62601 6.63989 8.00001 6.63989C7.25001 6.63989 6.64001 7.24989 6.64001 7.99989C6.64001 8.62489 7.06401 9.15289 7.64001 9.31189V13.6409H2.36001V2.35989H13.64V7.63989Z" fill="#161616"/>
</svg>
