<svg width="32" height="32" viewBox="0 0 32 32" fill="none" xmlns="http://www.w3.org/2000/svg">
<rect width="32" height="32" fill="white" style="mix-blend-mode:multiply"/>
<path d="M16 30.3604C15.938 30.3604 15.875 30.3434 15.819 30.3104L3.81901 23.3104C3.70801 23.2464 3.64001 23.1284 3.64001 23.0004V9.00037C3.64001 8.87238 3.70801 8.75338 3.81901 8.68937L15.819 1.68937C15.93 1.62438 16.07 1.62438 16.181 1.68937L28.181 8.68937C28.292 8.75338 28.36 8.87238 28.36 9.00037V23.0004C28.36 23.1284 28.292 23.2464 28.181 23.3114L16.181 30.3114C16.125 30.3444 16.062 30.3604 16 30.3604ZM4.36001 22.7934L16 29.5834L27.64 22.7934V9.20737L16 2.41738L4.36001 9.20737V22.7934ZM28 23.0004H28.009H28ZM11.986 24.6944C11.934 24.6944 11.881 24.6824 11.83 24.6584C11.651 24.5724 11.576 24.3574 11.662 24.1784L12.486 22.4664C10.762 21.5264 9.45301 19.9154 8.91201 17.9874L7.06101 18.4094C6.86801 18.4564 6.67401 18.3334 6.63001 18.1384C6.58601 17.9454 6.70701 17.7514 6.90101 17.7074L8.75201 17.2844C8.67901 16.8684 8.64001 16.4384 8.64001 16.0004C8.64001 14.3964 9.15601 12.9104 10.03 11.7004L8.54301 10.5144C8.38801 10.3904 8.36201 10.1644 8.48601 10.0084C8.61001 9.85338 8.83801 9.82837 8.99201 9.95138L10.479 11.1374C11.755 9.69137 13.588 8.74837 15.64 8.64937V6.75037C15.64 6.55137 15.801 6.39037 16 6.39037C16.199 6.39037 16.36 6.55137 16.36 6.75037V8.64937C18.411 8.74837 20.245 9.69137 21.521 11.1384L23.008 9.95237C23.162 9.82837 23.389 9.85238 23.514 10.0094C23.638 10.1654 23.613 10.3914 23.457 10.5154L21.97 11.7004C22.845 12.9104 23.361 14.3964 23.361 16.0004C23.361 16.4384 23.322 16.8684 23.249 17.2854L25.1 17.7084C25.294 17.7524 25.415 17.9454 25.371 18.1394C25.327 18.3324 25.138 18.4604 24.94 18.4104L23.089 17.9884C22.547 19.9164 21.238 21.5264 19.515 22.4674L20.339 24.1794C20.425 24.3584 20.35 24.5744 20.171 24.6594C19.991 24.7464 19.776 24.6714 19.691 24.4914L18.867 22.7804C17.105 23.5284 14.899 23.5284 13.137 22.7804L12.313 24.4914C12.249 24.6194 12.121 24.6944 11.986 24.6944ZM13.448 22.1304C15.02 22.7864 16.981 22.7864 18.553 22.1304L16.245 17.3384C16.086 17.3674 15.914 17.3674 15.755 17.3384L13.448 22.1304ZM9.61501 17.8274C10.106 19.5404 11.269 20.9714 12.799 21.8164L15.107 17.0244C14.983 16.9174 14.88 16.7884 14.802 16.6434L9.61501 17.8274ZM16.893 17.0244L19.201 21.8164C20.73 20.9704 21.893 19.5394 22.385 17.8264L17.198 16.6434C17.12 16.7884 17.017 16.9174 16.893 17.0244ZM10.594 12.1494C9.81701 13.2364 9.36001 14.5654 9.36001 16.0004C9.36001 16.3834 9.39301 16.7594 9.45501 17.1254L14.641 15.9414C14.648 15.7724 14.686 15.6114 14.75 15.4644L10.594 12.1494ZM17.358 15.9414L22.545 17.1254C22.607 16.7594 22.64 16.3834 22.64 16.0004C22.64 14.5654 22.183 13.2364 21.407 12.1494L17.251 15.4634C17.313 15.6114 17.352 15.7724 17.358 15.9414ZM16 15.3604C15.647 15.3604 15.36 15.6474 15.36 16.0004C15.36 16.3534 15.647 16.6404 16 16.6404C16.353 16.6404 16.64 16.3534 16.64 16.0004C16.64 15.6474 16.353 15.3604 16 15.3604ZM16.36 14.6884C16.521 14.7324 16.67 14.8054 16.8 14.9004L20.957 11.5864C19.814 10.3044 18.185 9.46638 16.36 9.36938V14.6884ZM11.043 11.5864L15.2 14.9004C15.331 14.8044 15.48 14.7324 15.64 14.6884V9.37037C13.816 9.46737 12.186 10.3054 11.043 11.5864Z" fill="#161616"/>
</svg>
