<svg width="32" height="32" viewBox="0 0 32 32" fill="none" xmlns="http://www.w3.org/2000/svg">
<rect width="32" height="32" fill="white" style="mix-blend-mode:multiply"/>
<path d="M16 31.3601C15.941 31.3601 15.883 31.3451 15.829 31.3171L2.82901 24.3171C2.71301 24.2541 2.64001 24.1331 2.64001 24.0001V8.00015C2.64001 7.86815 2.71301 7.74615 2.82901 7.68315L15.829 0.683148C15.936 0.625148 16.063 0.625148 16.171 0.683148L29.171 7.68315C29.287 7.74615 29.36 7.86815 29.36 8.00015V24.0001C29.36 24.1331 29.287 24.2541 29.171 24.3171L16.171 31.3171C16.117 31.3461 16.059 31.3601 16 31.3601ZM3.36001 23.7851L16 30.5911L28.64 23.7851V8.21515L16 1.40915L3.36001 8.21515V23.7851ZM23 23.3601H13C12.801 23.3601 12.64 23.1991 12.64 23.0001V19.3601H9.00001C8.80101 19.3601 8.64001 19.1991 8.64001 19.0001V10.0001C8.64001 9.80115 8.80101 9.64015 9.00001 9.64015H19C19.199 9.64015 19.36 9.80115 19.36 10.0001V13.6401H23C23.199 13.6401 23.36 13.8011 23.36 14.0001V23.0001C23.36 23.1991 23.199 23.3601 23 23.3601ZM13.36 22.6401H22.64V14.3601H13.36V22.6401ZM9.36001 18.6401H12.64V14.0001C12.64 13.8011 12.801 13.6401 13 13.6401H18.64V10.3601H9.36001V18.6401ZM17 16.3601H15V15.6401H17V16.3601ZM13 12.3601H11V11.6401H13V12.3601Z" fill="#161616"/>
</svg>
