<svg width="32" height="32" viewBox="0 0 32 32" fill="none" xmlns="http://www.w3.org/2000/svg">
<g clip-path="url(#clip0_727_549)">
<rect width="32" height="32" fill="white" style="mix-blend-mode:multiply"/>
<path d="M24 31.3601C23.938 31.3601 23.877 31.3431 23.821 31.3121L16.821 27.3121C16.709 27.2481 16.64 27.1291 16.64 27.0001V23.3601H15.36V27.0001C15.36 27.1291 15.291 27.2481 15.179 27.3121L8.17901 31.3121C8.06801 31.3741 7.93301 31.3741 7.82201 31.3121L0.822015 27.3121C0.709015 27.2481 0.640015 27.1291 0.640015 27.0001V19.0001C0.640015 18.8711 0.709015 18.7521 0.821015 18.6881L7.82101 14.6881C7.93201 14.6251 8.06702 14.6251 8.17802 14.6881L11.312 16.4791L12.062 15.1661L8.82001 13.3141C8.70901 13.2491 8.64001 13.1291 8.64001 13.0001V5.00012C8.64001 4.87112 8.70901 4.75112 8.82101 4.68812L15.821 0.688119C15.932 0.625119 16.067 0.625119 16.178 0.688119L23.178 4.68812C23.291 4.75112 23.36 4.87112 23.36 5.00012V13.0001C23.36 13.1291 23.291 13.2491 23.178 13.3121L19.937 15.1641L20.687 16.4771L23.821 14.6861C23.932 14.6231 24.067 14.6231 24.178 14.6861L31.178 18.6861C31.29 18.7501 31.36 18.8701 31.36 18.9981V26.9981C31.36 27.1271 31.291 27.2461 31.178 27.3101L24.178 31.3101C24.123 31.3441 24.062 31.3601 24 31.3601ZM17.36 26.7911L24 30.5851L30.64 26.7911V19.2091L24 15.4151L21.045 17.1041L23.661 21.6831C23.77 21.6551 23.883 21.6401 24 21.6401C24.75 21.6401 25.36 22.2501 25.36 23.0001C25.36 23.7501 24.75 24.3601 24 24.3601C23.375 24.3601 22.847 23.9351 22.688 23.3601H17.36V26.7911ZM1.36001 26.7911L8.00001 30.5851L14.64 26.7911V23.3601H9.31201C9.15401 23.9351 8.62601 24.3601 8.00001 24.3601C7.25001 24.3601 6.64001 23.7501 6.64001 23.0001C6.64001 22.2501 7.25001 21.6401 8.00001 21.6401C8.11701 21.6401 8.23002 21.6561 8.33802 21.6831L10.955 17.1041L8.00001 15.4151L1.36001 19.2091V26.7911ZM24 22.3601C23.647 22.3601 23.36 22.6471 23.36 23.0001C23.36 23.3531 23.647 23.6401 24 23.6401C24.353 23.6401 24.64 23.3531 24.64 23.0001C24.64 22.6471 24.353 22.3601 24 22.3601ZM8.00001 22.3601C7.64701 22.3601 7.36001 22.6471 7.36001 23.0001C7.36001 23.3531 7.64701 23.6401 8.00001 23.6401C8.35301 23.6401 8.64001 23.3531 8.64001 23.0001C8.64001 22.6471 8.35301 22.3601 8.00001 22.3601ZM17.36 22.6401H22.688C22.75 22.4111 22.873 22.2051 23.037 22.0411L20.42 17.4611L17.36 19.2091V22.6401ZM15.36 22.6401H16.64V19.0001C16.64 18.8711 16.709 18.7521 16.821 18.6881L20.062 16.8361L19.312 15.5231L16.178 17.3141C16.067 17.3761 15.932 17.3761 15.821 17.3141L12.688 15.5231L11.938 16.8361L15.179 18.6881C15.291 18.7521 15.36 18.8721 15.36 19.0001V22.6401ZM9.31201 22.6401H14.641V19.2091L11.581 17.4611L8.96401 22.0411C9.12601 22.2051 9.24901 22.4101 9.31201 22.6401ZM13.045 14.8971L16 16.5851L18.955 14.8971L16.338 10.3171C16.121 10.3731 15.878 10.3731 15.661 10.3171L13.045 14.8971ZM16.963 9.95912L19.58 14.5391L22.64 12.7901V5.20912L16 1.41512L9.36001 5.20912V12.7911L12.42 14.5401L15.037 9.96012C14.792 9.71312 14.64 9.37412 14.64 9.00012C14.64 8.25012 15.25 7.64012 16 7.64012C16.75 7.64012 17.36 8.25012 17.36 9.00012C17.36 9.37412 17.208 9.71312 16.963 9.95912ZM16 8.36012C15.647 8.36012 15.36 8.64712 15.36 9.00012C15.36 9.35312 15.647 9.64012 16 9.64012C16.353 9.64012 16.64 9.35312 16.64 9.00012C16.64 8.64712 16.353 8.36012 16 8.36012Z" fill="#161616"/>
</g>
<defs>
<clipPath id="clip0_727_549">
<rect width="32" height="32" fill="white"/>
</clipPath>
</defs>
</svg>
