<svg width="32" height="32" viewBox="0 0 32 32" fill="none" xmlns="http://www.w3.org/2000/svg">
<rect width="32" height="32" fill="white" style="mix-blend-mode:multiply"/>
<path d="M29 2.63989H3.00001C1.69901 2.63989 0.640015 3.69889 0.640015 4.99989V21.9999C0.640015 23.3019 1.69901 24.3599 3.00001 24.3599H15.64V28.6389H9.00001V29.3599H23V28.6399H16.36V24.3599H29C30.302 24.3599 31.36 23.3009 31.36 21.9999V4.99989C31.36 3.69889 30.302 2.63989 29 2.63989ZM3.00001 3.35989H29C29.904 3.35989 30.64 4.09589 30.64 4.99989V18.6399H25.36V13.3059C25.935 13.1469 26.36 12.6249 26.36 12.0009C26.36 11.2509 25.75 10.6409 25 10.6409C24.25 10.6409 23.64 11.2509 23.64 12.0009C23.64 12.6249 24.065 13.1469 24.64 13.3059V18.6399H19.36V9.30489C19.935 9.14589 20.36 8.62389 20.36 7.99989C20.36 7.24989 19.75 6.63989 19 6.63989C18.25 6.63989 17.64 7.24989 17.64 7.99989C17.64 8.62389 18.065 9.14589 18.64 9.30489V18.6389H13.36V13.3049C13.935 13.1459 14.36 12.6239 14.36 11.9999C14.36 11.2499 13.75 10.6399 13 10.6399C12.25 10.6399 11.64 11.2499 11.64 11.9999C11.64 12.6249 12.065 13.1459 12.64 13.3049V18.6389H7.36001V9.30489C7.93501 9.14589 8.36001 8.62389 8.36001 7.99989C8.36001 7.24989 7.75001 6.63989 7.00001 6.63989C6.25001 6.63989 5.64001 7.24989 5.64001 7.99989C5.64001 8.62489 6.06501 9.14589 6.64001 9.30489V18.6389H1.36001V4.99989C1.36001 4.09589 2.09601 3.35989 3.00001 3.35989ZM25 12.6399C24.647 12.6399 24.36 12.3529 24.36 11.9999C24.36 11.6469 24.647 11.3599 25 11.3599C25.353 11.3599 25.64 11.6469 25.64 11.9999C25.64 12.3529 25.353 12.6399 25 12.6399ZM19 8.63989C18.647 8.63989 18.36 8.35289 18.36 7.99989C18.36 7.64689 18.647 7.35989 19 7.35989C19.353 7.35989 19.64 7.64689 19.64 7.99989C19.64 8.35289 19.353 8.63989 19 8.63989ZM13 12.6399C12.647 12.6399 12.36 12.3529 12.36 11.9999C12.36 11.6469 12.647 11.3599 13 11.3599C13.353 11.3599 13.64 11.6469 13.64 11.9999C13.64 12.3529 13.353 12.6399 13 12.6399ZM7.00001 8.63989C6.64701 8.63989 6.36001 8.35289 6.36001 7.99989C6.36001 7.64689 6.64701 7.35989 7.00001 7.35989C7.35301 7.35989 7.64001 7.64689 7.64001 7.99989C7.64001 8.35289 7.35301 8.63989 7.00001 8.63989ZM29 23.6399H3.00001C2.09601 23.6399 1.36001 22.9049 1.36001 21.9999V19.3599H30.64V21.9999C30.64 22.9039 29.904 23.6399 29 23.6399Z" fill="#161616"/>
</svg>
