<svg id="Layer_1" data-name="Layer 1" xmlns="http://www.w3.org/2000/svg" viewBox="0 0 1722.29 1927"><defs><style>.cls-1{fill:#2b2d2d;}.cls-2{fill:#191b1b;}.cls-3{fill:#4d4d4d;}.cls-4{fill:#1a1a1a;}.cls-5{fill:#f68f00;}.cls-6{fill:#d67b1a;}.cls-7{fill:#fff;}</style></defs><title>linuxone-diagram</title><rect x="1160.66" y="1822.87" width="492" height="43.5"/><polygon points="1135.16 1374.11 1135.16 1821.37 1135.16 1822.37 1145.16 1822.37 1145.16 1374.11 1135.16 1374.11"/><polygon points="1682.16 81.37 1135.16 81.37 1135.16 531.11 1145.16 531.11 1145.16 92.87 1672.16 92.87 1672.16 531.11 1681.66 531.11 1681.66 1374.11 1672.16 1374.11 1672.16 1822.37 1682.16 1822.37 1682.16 81.37"/><polygon class="cls-1" points="1595.16 1374.11 1595.16 1756.87 1567.78 1756.87 1567.74 1772.87 1652.66 1772.87 1652.66 1787.37 1652.66 1802.37 1567.67 1802.37 1567.66 1805.87 1561.66 1805.87 1157.66 1805.87 1157.66 1802.87 1157.66 1799.87 1157.66 1399.87 1165.66 1399.87 1191.16 1399.87 1191.16 1375.37 1157.66 1375.37 1157.66 1374.11 1145.16 1374.11 1145.16 1822.37 1145.16 1822.87 1160.66 1822.87 1652.66 1822.87 1672.16 1822.87 1672.16 1822.37 1672.16 1374.11 1595.16 1374.11"/><polygon class="cls-1" points="1191.16 511.37 1159.66 511.37 1159.38 511.37 1159.16 511.87 1159.3 511.37 1158.66 511.37 1157.66 511.37 1158.66 105.37 1164.66 105.37 1568.66 105.37 1568.66 108.37 1568.66 109.87 1655.16 109.87 1655.16 146.87 1568.66 146.87 1568.66 165.87 1595.16 165.87 1595.16 531.11 1672.16 531.11 1672.16 92.87 1145.16 92.87 1145.16 531.11 1191.16 531.11 1191.16 511.37"/><rect class="cls-2" x="1568.66" y="109.87" width="86.5" height="37"/><polygon points="1568.66 165.87 1568.66 511.37 1560.66 511.37 1191.16 511.37 1191.16 531.11 1595.16 531.11 1595.16 165.87 1568.66 165.87"/><polygon points="1567.66 1375.37 1191.16 1375.37 1191.16 1399.87 1562.66 1399.87 1566.66 1399.87 1567.66 1399.87 1568.66 1399.87 1567.78 1756.87 1595.16 1756.87 1595.16 1374.11 1567.66 1374.11 1567.66 1375.37"/><polygon class="cls-2" points="1567.67 1802.37 1652.66 1802.37 1652.66 1787.37 1652.66 1772.87 1567.74 1772.87 1567.67 1802.37"/><polygon points="1160.13 509.62 1159.66 511.37 1160.19 509.49 1160.13 509.62"/><polygon points="1246.66 187.37 1169.23 475.73 1249.16 188.87 1568.66 108.37 1568.66 105.37 1567.44 106.49 1250.66 185.37 1164.66 105.37 1158.66 105.37 1246.66 187.37"/><path d="M1285.35,223.86a9.71,9.71,0,0,0-4.47,3.73l279.78,283.78h8L1285.92,223.63Z"/><polygon class="cls-3" points="1250.66 185.37 1567.44 106.49 1568.66 105.37 1164.66 105.37 1250.66 185.37"/><polygon class="cls-4" points="1246.66 187.37 1158.66 105.37 1157.66 511.37 1158.66 511.37 1159.3 511.37 1169.23 475.73 1246.66 187.37"/><polygon class="cls-4" points="1159.38 511.37 1159.66 511.37 1160.13 509.62 1159.38 511.37"/><path class="cls-4" d="M1280.88,227.59a9.06,9.06,0,0,0-.78,1.44L1159.66,511.37h401Z"/><polygon class="cls-1" points="1285.92 223.63 1568.66 511.37 1568.66 165.87 1568.66 146.87 1568.66 109.87 1568.66 108.37 1285.92 223.63"/><path class="cls-5" d="M1280.1,229a9.06,9.06,0,0,1,.78-1.44,9.71,9.71,0,0,1,4.47-3.73l.57-.23,282.74-115.26-68.89,28.08-242.61,61.42L1186.91,447.5l-26.72,62-.53,1.88Z"/><polygon class="cls-6" points="1160.19 509.49 1186.91 447.5 1257.16 197.87 1499.77 136.45 1568.66 108.37 1249.16 188.87 1169.23 475.73 1159.3 511.37 1159.16 511.87 1159.38 511.37 1160.13 509.62 1160.19 509.49"/><polygon points="1157.66 1802.87 1157.66 1805.87 1157.88 1802.81 1157.66 1802.87"/><path d="M1157.88,1802.75l.19,0,.33-.13h0l68.15-27.78h0l213.85-87.18a21.29,21.29,0,0,0,6.46-6.89l92.56-217h0l27.24-63.86h-4l-119,281-278-281h-8l282,285-282,115v3l.22-.09Z"/><polygon points="1476.88 1721.08 1476.66 1721.87 1472.67 1722.88 1561.66 1805.87 1567.66 1805.87 1476.88 1721.08"/><polygon class="cls-5" points="1157.88 1802.78 1157.66 1802.87 1157.88 1802.81 1157.88 1802.78"/><path class="cls-5" d="M1158.07,1802.7l.3-.08s0,0,0,0Z"/><polygon class="cls-5" points="1159.08 1802.45 1472.66 1722.87 1472.67 1722.88 1476.66 1721.87 1476.88 1721.08 1476.66 1720.87 1565.46 1404.15 1456.66 1697.37 1159.08 1802.45"/><path class="cls-5" d="M1539.42,1463.74h0l-92.56,217a20.65,20.65,0,0,0,1.22-2.39Z"/><polygon class="cls-5" points="1566.13 1401.76 1566.66 1399.87 1539.42 1463.73 1566.13 1401.76"/><path class="cls-5" d="M1436.57,1689.65a21.61,21.61,0,0,0,3.83-2l-213.85,87.18h0Z"/><path class="cls-4" d="M1472.67,1722.88h0l-313.58,79.58-.65.22s-.06,0-.06-.05l-.3.08-.19,0v.06l-.22,3.06h404Z"/><path class="cls-6" d="M1539.42,1463.73h0l-91.34,214.59a20.65,20.65,0,0,1-1.22,2.39,21.29,21.29,0,0,1-6.46,6.89,21.61,21.61,0,0,1-3.83,2l-210,85.13h0l-68.15,27.78h0s0,0,0,0,0,.06.06.05l.65-.22,297.58-105.08,108.8-293.22.67-2.39-26.71,62Z"/><polygon class="cls-1" points="1567.66 1399.87 1566.66 1399.87 1566.13 1401.76 1565.46 1404.15 1476.66 1720.87 1476.88 1721.08 1567.66 1805.87 1567.67 1802.37 1567.74 1772.87 1567.78 1756.87 1568.66 1399.87 1567.66 1399.87"/><polygon class="cls-3" points="1443.66 1680.87 1562.66 1399.87 1191.16 1399.87 1165.66 1399.87 1443.66 1680.87"/><polygon class="cls-4" points="1439.66 1684.87 1157.66 1399.87 1157.66 1799.87 1439.66 1684.87"/><polygon points="1567.66 1374.11 1157.66 1374.11 1157.66 1375.37 1191.16 1375.37 1567.66 1375.37 1567.66 1374.11"/><rect x="613.66" y="1821.87" width="492" height="43.5"/><rect x="588.16" y="1374.11" width="10" height="447.26"/><polygon points="598.16 531.11 598.16 91.87 1125.16 91.87 1125.16 531.11 1135.16 531.11 1135.16 81.37 1135.16 80.37 588.16 80.37 588.16 81.37 588.16 531.11 598.16 531.11"/><rect x="1125.16" y="1374.11" width="10" height="447.26"/><polygon class="cls-1" points="1048.16 1374.11 1048.16 1755.87 1020.78 1755.87 1020.74 1771.87 1105.66 1771.87 1105.66 1786.37 1105.66 1801.37 1020.67 1801.37 1020.66 1804.87 1014.66 1804.87 610.66 1804.87 610.66 1801.87 610.66 1798.87 610.66 1398.87 618.66 1398.87 644.16 1398.87 644.16 1374.37 610.66 1374.37 610.66 1374.11 598.16 1374.11 598.16 1821.37 598.16 1821.87 613.66 1821.87 1105.66 1821.87 1125.16 1821.87 1125.16 1821.37 1125.16 1374.11 1048.16 1374.11"/><polygon class="cls-1" points="644.16 510.37 612.66 510.37 612.38 510.37 612.16 510.87 612.3 510.37 611.66 510.37 610.66 510.37 611.66 104.37 617.66 104.37 1021.66 104.37 1021.66 107.37 1021.66 108.87 1108.16 108.87 1108.16 145.87 1021.66 145.87 1021.66 164.87 1048.16 164.87 1048.16 531.11 1125.16 531.11 1125.16 91.87 598.16 91.87 598.16 531.11 644.16 531.11 644.16 510.37"/><rect class="cls-2" x="1021.66" y="108.87" width="86.5" height="37"/><polygon points="1021.66 164.87 1021.66 510.37 1013.66 510.37 644.16 510.37 644.16 531.11 1048.16 531.11 1048.16 164.87 1021.66 164.87"/><polygon points="1020.66 1374.37 644.16 1374.37 644.16 1398.87 1015.66 1398.87 1019.66 1398.87 1020.66 1398.87 1021.66 1398.87 1020.78 1755.87 1048.16 1755.87 1048.16 1374.11 1020.66 1374.11 1020.66 1374.37"/><polygon class="cls-2" points="1020.67 1801.37 1105.66 1801.37 1105.66 1786.37 1105.66 1771.87 1020.74 1771.87 1020.67 1801.37"/><polygon points="613.13 508.62 612.66 510.37 613.19 508.49 613.13 508.62"/><polygon points="699.66 186.37 622.23 474.73 702.16 187.87 1021.66 107.37 1021.66 104.37 1020.44 105.49 703.66 184.37 617.66 104.37 611.66 104.37 699.66 186.37"/><path d="M738.35,222.86a9.71,9.71,0,0,0-4.47,3.73l279.78,283.78h8L738.92,222.63Z"/><polygon class="cls-3" points="703.66 184.37 1020.44 105.49 1021.66 104.37 617.66 104.37 703.66 184.37"/><polygon class="cls-4" points="612.38 510.37 612.66 510.37 613.13 508.62 612.38 510.37"/><polygon class="cls-4" points="699.66 186.37 611.66 104.37 610.66 510.37 611.66 510.37 612.3 510.37 622.23 474.73 699.66 186.37"/><path class="cls-4" d="M733.88,226.59a9.06,9.06,0,0,0-.78,1.44L612.66,510.37h401Z"/><polygon class="cls-1" points="738.92 222.63 1021.66 510.37 1021.66 164.87 1021.66 145.87 1021.66 108.87 1021.66 107.37 738.92 222.63"/><path class="cls-5" d="M733.1,228a9.06,9.06,0,0,1,.78-1.44,9.71,9.71,0,0,1,4.47-3.73l.57-.23,282.74-115.26-68.89,28.08L710.16,196.87,639.91,446.5l-26.72,62-.53,1.88Z"/><polygon class="cls-6" points="613.19 508.49 639.91 446.5 710.16 196.87 952.77 135.45 1021.66 107.37 702.16 187.87 622.23 474.73 612.3 510.37 612.16 510.87 612.38 510.37 613.13 508.62 613.19 508.49"/><polygon points="610.66 1801.87 610.66 1804.87 610.88 1801.81 610.66 1801.87"/><path d="M610.88,1801.75l.19,0,.33-.13h0l68.15-27.78h0l213.85-87.18a21.29,21.29,0,0,0,6.46-6.89l92.56-217h0l27.24-63.86h-4l-119,281-278-281h-8l282,285-282,115v3l.22-.09Z"/><polygon points="929.88 1720.08 929.66 1720.87 925.67 1721.88 1014.66 1804.87 1020.66 1804.87 929.88 1720.08"/><polygon class="cls-5" points="610.88 1801.78 610.66 1801.87 610.88 1801.81 610.88 1801.78"/><path class="cls-5" d="M611.07,1801.7l.3-.08s0,0,0,0Z"/><polygon class="cls-5" points="1019.13 1400.76 1019.66 1398.87 992.42 1462.73 1019.13 1400.76"/><polygon class="cls-5" points="612.08 1801.45 925.66 1721.87 925.67 1721.88 929.66 1720.87 929.88 1720.08 929.66 1719.87 1018.46 1403.15 909.66 1696.37 612.08 1801.45"/><path class="cls-5" d="M992.42,1462.74h0l-92.56,217a20.65,20.65,0,0,0,1.22-2.39Z"/><path class="cls-5" d="M889.57,1688.65a21.61,21.61,0,0,0,3.83-2l-213.85,87.18h0Z"/><path class="cls-4" d="M925.67,1721.88h0l-313.58,79.58-.65.22s-.06,0-.06-.05l-.3.08-.19,0v.06l-.22,3.06h404Z"/><path class="cls-6" d="M992.42,1462.73h0l-91.34,214.59a20.65,20.65,0,0,1-1.22,2.39,21.29,21.29,0,0,1-6.46,6.89,21.61,21.61,0,0,1-3.83,2l-210,85.13h0l-68.15,27.78h0s0,0,0,0,0,.06.06.05l.65-.22,297.58-105.08,108.8-293.22.67-2.39-26.71,62Z"/><polygon class="cls-1" points="1020.66 1398.87 1019.66 1398.87 1019.13 1400.76 1018.46 1403.15 929.66 1719.87 929.88 1720.08 1020.66 1804.87 1020.67 1801.37 1020.74 1771.87 1020.78 1755.87 1021.66 1398.87 1020.66 1398.87"/><polygon class="cls-3" points="896.66 1679.87 1015.66 1398.87 644.16 1398.87 618.66 1398.87 896.66 1679.87"/><polygon class="cls-4" points="892.66 1683.87 610.66 1398.87 610.66 1798.87 892.66 1683.87"/><polygon points="1020.66 1374.11 610.66 1374.11 610.66 1374.37 644.16 1374.37 1020.66 1374.37 1020.66 1374.11"/><rect x="66.66" y="1822.87" width="492" height="43.5"/><polygon points="578.16 1374.11 578.16 1822.37 588.16 1822.37 588.16 1821.37 588.16 1374.11 578.16 1374.11"/><polygon points="41.66 1374.11 41.66 531.11 51.16 531.11 51.16 92.87 578.16 92.87 578.16 531.11 588.16 531.11 588.16 81.37 41.16 81.37 41.16 1822.37 51.16 1822.37 51.16 1374.11 41.66 1374.11"/><polygon class="cls-1" points="97.16 511.37 65.66 511.37 65.38 511.37 65.16 511.87 65.3 511.37 64.66 511.37 63.66 511.37 64.66 105.37 70.66 105.37 474.66 105.37 474.66 108.37 474.66 109.87 561.16 109.87 561.16 146.87 474.66 146.87 474.66 165.87 501.16 165.87 501.16 531.11 578.16 531.11 578.16 92.87 51.16 92.87 51.16 531.11 97.16 531.11 97.16 511.37"/><polygon class="cls-1" points="501.16 1374.11 501.16 1756.87 473.78 1756.87 473.74 1772.87 558.66 1772.87 558.66 1787.37 558.66 1802.37 473.67 1802.37 473.66 1805.87 467.66 1805.87 63.66 1805.87 63.66 1802.87 63.66 1799.87 63.66 1399.87 71.66 1399.87 97.16 1399.87 97.16 1375.37 63.66 1375.37 63.66 1374.11 51.16 1374.11 51.16 1822.37 51.16 1822.87 66.66 1822.87 558.66 1822.87 578.16 1822.87 578.16 1822.37 578.16 1374.11 501.16 1374.11"/><rect class="cls-2" x="474.66" y="109.87" width="86.5" height="37"/><polygon points="474.66 165.87 474.66 511.37 466.66 511.37 97.16 511.37 97.16 531.11 501.16 531.11 501.16 165.87 474.66 165.87"/><polygon points="473.66 1375.37 97.16 1375.37 97.16 1399.87 468.66 1399.87 472.66 1399.87 473.66 1399.87 474.66 1399.87 473.78 1756.87 501.16 1756.87 501.16 1374.11 473.66 1374.11 473.66 1375.37"/><polygon class="cls-2" points="473.67 1802.37 558.66 1802.37 558.66 1787.37 558.66 1772.87 473.74 1772.87 473.67 1802.37"/><polygon points="66.13 509.62 65.66 511.37 66.19 509.49 66.13 509.62"/><polygon points="152.66 187.37 75.23 475.73 155.16 188.87 474.66 108.37 474.66 105.37 473.44 106.49 156.66 185.37 70.66 105.37 64.66 105.37 152.66 187.37"/><path d="M191.35,223.86a9.71,9.71,0,0,0-4.47,3.73L466.66,511.37h8L191.92,223.63Z"/><polygon class="cls-3" points="156.66 185.37 473.44 106.49 474.66 105.37 70.66 105.37 156.66 185.37"/><polygon class="cls-4" points="65.38 511.37 65.66 511.37 66.13 509.62 65.38 511.37"/><polygon class="cls-4" points="152.66 187.37 64.66 105.37 63.66 511.37 64.66 511.37 65.3 511.37 75.23 475.73 152.66 187.37"/><path class="cls-4" d="M186.88,227.59a9.06,9.06,0,0,0-.78,1.44L65.66,511.37h401Z"/><polygon class="cls-1" points="191.92 223.63 474.66 511.37 474.66 165.87 474.66 146.87 474.66 109.87 474.66 108.37 191.92 223.63"/><path class="cls-5" d="M186.1,229a9.06,9.06,0,0,1,.78-1.44,9.71,9.71,0,0,1,4.47-3.73l.57-.23L474.66,108.37l-68.89,28.08L163.16,197.87,92.91,447.5l-26.72,62-.53,1.88Z"/><polygon class="cls-6" points="66.19 509.49 92.91 447.5 163.16 197.87 405.77 136.45 474.66 108.37 155.16 188.87 75.23 475.73 65.3 511.37 65.16 511.87 65.38 511.37 66.13 509.62 66.19 509.49"/><polygon points="63.66 1802.87 63.66 1805.87 63.88 1802.81 63.66 1802.87"/><path d="M63.88,1802.75l.19,0,.33-.13h0l68.15-27.78h0l213.85-87.18a21.29,21.29,0,0,0,6.46-6.89l92.56-217h0l27.24-63.86h-4l-119,281-278-281h-8l282,285-282,115v3l.22-.09Z"/><polygon points="382.88 1721.08 382.66 1721.87 378.68 1722.88 467.66 1805.87 473.66 1805.87 382.88 1721.08"/><path class="cls-5" d="M64.07,1802.7l.3-.08s0,0,0,0Z"/><polygon class="cls-5" points="63.88 1802.78 63.66 1802.87 63.88 1802.81 63.88 1802.78"/><polygon class="cls-5" points="65.08 1802.45 378.66 1722.87 378.68 1722.88 382.66 1721.87 382.88 1721.08 382.66 1720.87 471.46 1404.15 362.66 1697.37 65.08 1802.45"/><polygon class="cls-5" points="472.13 1401.76 472.66 1399.87 445.42 1463.73 472.13 1401.76"/><path class="cls-5" d="M445.42,1463.74h0l-92.56,217a20.65,20.65,0,0,0,1.22-2.39Z"/><path class="cls-5" d="M342.57,1689.65a21.61,21.61,0,0,0,3.83-2l-213.85,87.18h0Z"/><path class="cls-4" d="M378.67,1722.88h0L65.08,1802.45l-.65.22s-.06,0-.06-.05l-.3.08-.19,0v.06l-.22,3.06h404Z"/><path class="cls-6" d="M445.42,1463.73h0l-91.34,214.59a20.65,20.65,0,0,1-1.22,2.39,21.29,21.29,0,0,1-6.46,6.89,21.61,21.61,0,0,1-3.83,2l-210,85.13h0L64.4,1802.57h0s0,0,0,0,0,.06.06.05l.65-.22,297.58-105.08,108.8-293.22.67-2.39-26.71,62Z"/><polygon class="cls-1" points="473.66 1399.87 472.66 1399.87 472.13 1401.76 471.46 1404.15 382.66 1720.87 382.88 1721.08 473.66 1805.87 473.67 1802.37 473.74 1772.87 473.78 1756.87 474.66 1399.87 473.66 1399.87"/><polygon class="cls-3" points="349.66 1680.87 468.66 1399.87 97.16 1399.87 71.66 1399.87 349.66 1680.87"/><polygon class="cls-4" points="345.66 1684.87 63.66 1399.87 63.66 1799.87 345.66 1684.87"/><polygon points="473.66 1374.11 63.66 1374.11 63.66 1375.37 97.16 1375.37 473.66 1375.37 473.66 1374.11"/><polygon points="1353.63 730.29 1353.21 730.29 1340.17 752.13 1353.63 752.13 1353.63 730.29"/><path d="M1461,1128.62h10.33c3.24,0,5.19-1.77,5.19-4.9v-1.88c0-3.13-2-4.9-5.19-4.9H1461Z"/><path d="M1461,1134.17v12.51h11.45c3.42,0,5.55-1.89,5.55-5.25v-2c0-3.36-2.13-5.25-5.55-5.25Z"/><path d="M1367.62,1257.45c4.54,0,7-2.07,7-5.79v-1c0-3.72-2.48-5.78-7-5.78s-7,2.06-7,5.78v1C1360.6,1255.38,1363.07,1257.45,1367.62,1257.45Z"/><path d="M1377.12,1140.13c0,4.9,2.83,7.55,7.62,7.55s7.61-2.65,7.61-7.55v-.83c0-4.9-2.84-7.55-7.61-7.55s-7.62,2.65-7.62,7.55Z"/><path d="M1461.06,1005.17v12.51h11.45c3.42,0,5.55-1.89,5.55-5.25v-2c0-3.36-2.13-5.25-5.55-5.25Z"/><path d="M1476.58,992.84c0-3.13-1.94-4.9-5.19-4.9h-10.33v11.68h10.33c3.25,0,5.19-1.77,5.19-4.9Z"/><polygon points="1388.13 988.29 1387.72 988.29 1374.68 1010.13 1388.13 1010.13 1388.13 988.29"/><path d="M1444,1263.17v12.51h11.45c3.42,0,5.55-1.89,5.55-5.25v-2c0-3.36-2.13-5.25-5.55-5.25Z"/><path d="M1444,1257.62h10.33c3.25,0,5.19-1.77,5.19-4.9v-1.88c0-3.13-1.94-4.9-5.19-4.9H1444Z"/><path d="M1367.62,1262.58c-5,0-7.79,2.42-7.79,6.49v1.18c0,4.07,2.83,6.49,7.79,6.49s7.79-2.42,7.79-6.49v-1.18C1375.41,1265,1372.57,1262.58,1367.62,1262.58Z"/><path d="M1434.26,617.46c0-3.78-1.71-6.31-5.19-6.31s-5.67,2.53-5.67,6.37V618h10.86Z"/><path d="M1471,858.94h-10.33v11.68H1471c3.24,0,5.19-1.77,5.19-4.9v-1.88C1476.14,860.71,1474.19,858.94,1471,858.94Z"/><path d="M1460.62,876.17v12.51h11.45c3.42,0,5.54-1.89,5.54-5.25v-2c0-3.36-2.12-5.25-5.54-5.25Z"/><path d="M1294.92,626.84v.89c0,2.24,1.48,3.3,4.07,3.3,2.9,0,5.31-1.18,5.31-4v-3.66h-4.24C1296.69,623.36,1294.92,624.6,1294.92,626.84Z"/><path d="M1507.38,617.75v6.32c0,3.89,2,6.14,5.43,6.14s5.43-2.25,5.43-6.14v-6.32c0-3.89-2-6.13-5.43-6.13S1507.38,613.86,1507.38,617.75Z"/><path d="M1392.94,748.41v-7.2c0-7.2-2.12-12-7.85-12s-7.84,4.84-7.84,12v7.2c0,7.2,2.12,12,7.84,12S1392.94,755.61,1392.94,748.41Z"/><path d="M1461.51,747.17v12.51H1473c3.42,0,5.54-1.89,5.54-5.25v-2c0-3.36-2.12-5.25-5.54-5.25Z"/><path d="M1477,734.84c0-3.13-2-4.9-5.19-4.9h-10.33v11.68h10.33c3.24,0,5.19-1.77,5.19-4.9Z"/><path d="M1048.16,531.11H41.66v843h1640v-843h-633.5ZM986.7,624.78l-3.36-.42c-7-.88-10.44-4-10.44-9.56,0-5.95,4.66-10.09,12-10.09,6.49,0,9.5,1.78,12.63,4.84l-5,5.14a10.36,10.36,0,0,0-7.14-3.19c-2.95,0-4.13,1.06-4.13,2.6s.7,2.53,3.24,2.89l3.48.47c6.73.89,10.21,3.95,10.21,9.32,0,6-5.31,10.33-13.28,10.33-5.95,0-9.85-2-13-5.55l5.14-5.19a10.76,10.76,0,0,0,8.2,4c3.42,0,4.6-1.12,4.6-3C989.83,625.84,988.89,625.07,986.7,624.78Zm-30,5.48c3.66,0,5.67-1.71,7.61-3.71L968.7,632c-2.77,3.18-7.32,5.13-13,5.13-9.5,0-14.87-6.31-14.87-16.23s5.19-16.17,14.51-16.17c10.27,0,14.4,7.44,14.4,15.82v2.59H949.88v.48C949.88,627.67,952.06,630.26,956.72,630.26ZM929,605.42v6.73h.3c.7-3.42,3.06-6.73,7.9-6.73h1.54v8.15h-2.19c-5.07,0-7.55,1.12-7.55,4.72V636.4h-8.73v-31Zm-13.43,15.46c0,10-5.43,16.23-14.52,16.23s-14.51-6.26-14.51-16.23S892,604.71,901,604.71,915.56,610.91,915.56,620.88Zm-65.62-4.78c0-13.92,7.14-21.59,18.23-21.59,7.55,0,12.39,3.07,15.4,9.67l-7.73,4c-1.06-3.43-3.24-5.73-7.67-5.73-5.25,0-8.73,3.54-8.73,10v6.61c0,6.49,3.48,10,8.73,10,4.43,0,7-2.77,8.2-6.13l7.32,4.24c-3.07,6.26-8,9.86-15.52,9.86C857.08,637.11,849.94,630,849.94,616.1Zm-93.78-6.72-3,6-8,14.57-7.85-14.52L734.15,609H734V636.4h-8.44V595.21H735l10.09,19.3h.12l10-19.3h9.56V636.4h-8.44v-27ZM783,611.56a7.63,7.63,0,0,0-6.67,3.66l-5.2-4.6c2.48-3.66,6-5.91,12.51-5.91,8.74,0,13.22,4,13.22,11.33v13.58h2.89v6.78h-4.84c-3.12,0-5.37-2.12-5.9-5.43h-.35c-.94,4-4.37,6.14-9.09,6.14-6.19,0-9.62-3.66-9.62-9,0-6.55,5.08-9.68,13.28-9.68h4.9v-1.94C788.08,613.45,786.6,611.56,783,611.56ZM823,636.4l-6-10.09h-.24l-5.72,10.09H802l10.21-15.75-10.09-15.23h9.91l5.78,9.74h.24l5.6-9.74h9.21l-10.27,15.52L833,636.4Zm-8.41,129v-5.55h11.56v-30.8h-.47l-9.56,10.21-4.07-3.66,10.5-11.39h10.15v35.64h10v5.55Zm51.8-21.18c-1.71,3.24-4.42,6-9.56,6-7,0-12.09-5-12.09-12.75,0-8.26,5.72-14,14.45-14,9.09,0,14.52,6.19,14.52,16,0,11.92-8,21.36-14.75,25.84h-8.85c9.32-6.78,14.69-12.21,16.7-21.06Zm12.6.59c0-13.46,4.66-21.3,14.92-21.3s14.93,7.84,14.93,21.3-4.66,21.3-14.93,21.3S879,758.26,879,744.81ZM1625.66,808v.75l-1527-3V805Zm-140.14-54.45c0,6.67-4.54,11.86-10.62,11.86h-20.06V724.21h18.23c6.79,0,11,4.19,11,10.63,0,6.19-3.78,8.43-7.14,8.73v.35C1480.27,744,1485.52,746.64,1485.52,753.54Zm-115.35-8.73c0-13.46,4.66-21.3,14.92-21.3s14.93,7.84,14.93,21.3-4.66,21.3-14.93,21.3S1370.17,758.26,1370.17,744.81Zm-4.63,7.31v5.26h-5.6v8h-6.32v-8h-19.11v-5.73l16.7-27.44h8.73v27.91Zm52.59-22v-5.91h31.22v5.91h-12.28V765.4h-6.67V730.12Zm66.95,281.42c0,6.67-4.54,11.86-10.62,11.86H1454.4V982.22h18.23c6.78,0,11,4.18,11,10.62,0,6.19-3.77,8.43-7.14,8.73v.35C1479.83,1002,1485.08,1004.64,1485.08,1011.54Zm-67.39-23.42v-5.9h31.21v5.9h-12.27v35.28H1430V988.12ZM1369,1015.38v-5.73l16.7-27.43h8.73v27.9h5.61v5.26h-5.61v8h-6.31v-8Zm-19.19-28.09c-4.54,0-6.73,2.89-7.73,6.49l-5.84-2.24c1.71-5.19,5.84-10,14.1-10s13.22,5.07,13.22,12.21c0,6.67-4.43,11-9.85,15.7l-9.68,8.32h20.77v5.66h-28V1017l13.16-11.74c4.13-3.72,6.49-7,6.49-10.8v-.77C1356.49,989.77,1353.89,987.29,1349.82,987.29ZM98.65,932.74V932l1527,3v.75ZM881.3,992.07c0-6.31,5-10.56,13.52-10.56s13.51,4.25,13.51,10.56c0,4.72-2.83,8-7,9.5v.47c5,1.36,8.26,4.66,8.26,10.15,0,6.79-5.19,11.92-14.75,11.92s-14.75-5.13-14.75-11.92c0-5.49,3.3-8.79,8.25-10.15v-.47C884.14,1000.09,881.3,996.79,881.3,992.07Zm-6.22,10.74c0,13.45-4.67,21.3-14.93,21.3s-14.93-7.85-14.93-21.3,4.66-21.3,14.93-21.3S875.08,989.36,875.08,1002.81Zm-50.22-15.76-9.56,10.21-4.07-3.66,10.5-11.38h10.15v35.63h10v5.55H813.77v-5.55h11.56v-30.8Zm-512.38,17.76h-4.37v-5.66h4.19c5.08,0,7.5-2.42,7.5-5.78V993c0-3.71-2.6-5.84-6.55-5.84a9.43,9.43,0,0,0-8.5,5l-4.42-3.84c2.47-3.6,6.25-6.78,13.1-6.78,7.78,0,13.39,4,13.39,10.62,0,5.25-3.6,8.49-7.91,9.44v.29c4.66.89,8.62,4.25,8.62,10.21,0,7.2-5.9,12-14.69,12-7.68,0-11.51-3.6-14.11-7.38l4.9-3.83c2,3.3,4.43,5.6,9.21,5.6,5,0,7.78-2.53,7.78-6.78v-.41C320.62,1007.12,317.67,1004.81,312.48,1004.81Zm139.7-392.66c.71-3.42,3.07-6.73,7.91-6.73h1.54v8.15h-2.19c-5.07,0-7.55,1.12-7.55,4.72V636.4h-8.73v-31h8.73v6.73Zm-27.13,18.11c3.65,0,5.66-1.71,7.61-3.71L437,632c-2.77,3.18-7.31,5.13-13,5.13-9.5,0-14.87-6.31-14.87-16.23s5.2-16.17,14.52-16.17c10.27,0,14.4,7.44,14.4,15.82v2.59H418.2v.48C418.2,627.67,420.38,630.26,425.05,630.26Zm-53.34-12.33,2.12,9.44h.24l2.48-9.44,3.54-12.51h8l3.6,12.51,2.54,9.44h.24l2.12-9.44,3-12.51h8.08l-8.55,31h-9.15l-3.77-13.1-2.19-8h-.17l-2.13,8-3.78,13.1h-9l-8.68-31h8.44Zm-12.13,11.69v6.78h-4.84c-3.12,0-5.37-2.12-5.9-5.43h-.35c-.95,4-4.37,6.14-9.09,6.14-6.19,0-9.62-3.66-9.62-9,0-6.55,5.08-9.68,13.28-9.68H348v-1.94c0-3-1.48-4.9-5.14-4.9a7.62,7.62,0,0,0-6.66,3.66l-5.2-4.6c2.48-3.66,6-5.91,12.51-5.91,8.74,0,13.22,4,13.22,11.33v13.58ZM309,605.42h8.73v6.73h.3c.71-3.42,3.07-6.73,7.9-6.73h1.54v8.15h-2.19c-5.07,0-7.55,1.12-7.55,4.72V636.4H309Zm-24.21,31H269.24V595.21h15.52c10.91,0,18.11,6.91,18.11,20.6S295.67,636.4,284.76,636.4ZM158.22,594.51c7.56,0,12.39,3.07,15.4,9.67l-7.73,4c-1.06-3.43-3.24-5.73-7.67-5.73-5.25,0-8.73,3.54-8.73,10v6.61c0,6.49,3.48,10,8.73,10,4.43,0,7-2.77,8.21-6.13l7.31,4.24c-3.07,6.26-8,9.86-15.52,9.86-11.09,0-18.23-7.08-18.23-21S147.13,594.51,158.22,594.51Zm29.64,27V636.4h-9V595.21h19.47c7.67,0,12.51,5.37,12.51,13.16s-4.84,13.16-12.51,13.16Zm45.69,7.61c4.42,0,7-2.77,8.2-6.13l7.32,4.24c-3.07,6.26-8,9.86-15.52,9.86-11.1,0-18.23-7.08-18.23-21s7.13-21.59,18.23-21.59c7.55,0,12.39,3.07,15.4,9.67l-7.73,4c-1.06-3.43-3.25-5.73-7.67-5.73-5.25,0-8.73,3.54-8.73,10v6.61C224.82,625.6,228.3,629.14,233.55,629.14Zm96.4,252v5.26h-5.61v8H318v-8H298.91v-5.73l16.7-27.43h8.73v27.9Zm511.62,7.73v5.55H813.42v-5.55H825v-30.8h-.47L815,868.26l-4.07-3.66,10.5-11.38h10.15v35.63Zm34.61-7.73v5.26h-5.6v8h-6.32v-8H845.15v-5.73l16.69-27.43h8.74v27.9ZM895,873.69a8.63,8.63,0,0,0-7,3.25l-5.49-.77,1.54-22.95h23.36V859H889.14l-1.06,14.57h.41c1.83-3.24,3.9-5.37,8.62-5.37,7.08,0,12.45,4.78,12.45,12.87s-5.37,14-14.69,14a15.1,15.1,0,0,1-13.63-7.38l4.83-3.83c2,3.24,4.31,5.6,8.92,5.6,4.83,0,7.61-2.83,7.61-7.55v-.71C902.6,876.52,899.82,873.69,895,873.69Zm454,2.12h-4.37v-5.66h4.19c5.08,0,7.5-2.42,7.5-5.78V864c0-3.71-2.6-5.84-6.55-5.84a9.43,9.43,0,0,0-8.5,5l-4.43-3.84c2.48-3.6,6.26-6.78,13.1-6.78,7.79,0,13.4,4,13.4,10.62,0,5.25-3.6,8.49-7.91,9.44v.29c4.66.89,8.62,4.25,8.62,10.21,0,7.2-5.91,12-14.7,12-7.67,0-11.5-3.6-14.1-7.38l4.9-3.83c2,3.3,4.42,5.6,9.2,5.6,5,0,7.79-2.53,7.79-6.78v-.41C1357.11,878.12,1354.16,875.81,1349,875.81Zm49.45,12.93v5.66h-28V888l13.15-11.74c4.13-3.72,6.49-7,6.49-10.8v-.77c0-4-2.59-6.43-6.66-6.43-4.55,0-6.73,2.89-7.73,6.49l-5.84-2.24c1.71-5.19,5.84-10,14.1-10s13.22,5.07,13.22,12.21c0,6.67-4.43,11-9.86,15.7l-9.68,8.32Zm84.74-24.9c0,6.19-3.78,8.43-7.14,8.73v.35c3.36.12,8.61,2.72,8.61,9.62,0,6.67-4.54,11.86-10.62,11.86H1454V853.22h18.23C1479,853.22,1483.16,857.4,1483.16,863.84Zm-65.92-4.72v-5.9h31.22v5.9h-12.28V894.4h-6.67V859.12ZM314.37,744.69a8.61,8.61,0,0,0-7,3.25l-5.49-.77,1.53-23h23.37V730H308.53l-1.06,14.57h.41c1.83-3.24,3.89-5.37,8.61-5.37,7.08,0,12.45,4.78,12.45,12.87s-5.37,14-14.69,14a15.11,15.11,0,0,1-13.63-7.38l4.84-3.83c2,3.24,4.31,5.6,8.91,5.6,4.84,0,7.61-2.83,7.61-7.55v-.71C322,747.52,319.21,744.69,314.37,744.69ZM489.51,609.55l-5,5.14a10.35,10.35,0,0,0-7.14-3.19c-2.95,0-4.13,1.06-4.13,2.6s.71,2.53,3.24,2.89l3.49.47c6.72.89,10.2,3.95,10.2,9.32,0,6-5.31,10.33-13.27,10.33-6,0-9.86-2-13-5.55l5.13-5.19a10.76,10.76,0,0,0,8.2,4c3.43,0,4.6-1.12,4.6-3,0-1.53-.94-2.3-3.12-2.59l-3.37-.42c-7-.88-10.44-4-10.44-9.56,0-5.95,4.66-10.09,12-10.09C483.38,604.71,486.39,606.49,489.51,609.55Zm1133.15,711.19-1527-3V1317l1527,3ZM330.18,1275.85v5.55H302v-5.55H313.6v-30.8h-.47l-9.56,10.21-4.07-3.66,10.5-11.38h10.15v35.63ZM862,1273.38v-5.73l16.7-27.43h8.74v27.9h5.6v5.26h-5.6v8h-6.32v-8Zm-5.63-3.31c0,7.2-5.9,12-14.69,12-7.67,0-11.51-3.6-14.1-7.38l4.9-3.83c2,3.3,4.42,5.6,9.2,5.6,5,0,7.79-2.53,7.79-6.78v-.41c0-4.19-3-6.5-8.14-6.5H837v-5.66h4.19c5.07,0,7.49-2.42,7.49-5.78V1251c0-3.71-2.59-5.84-6.55-5.84a9.43,9.43,0,0,0-8.49,5l-4.43-3.84c2.48-3.6,6.26-6.78,13.1-6.78,7.79,0,13.4,4,13.4,10.62,0,5.25-3.6,8.49-7.91,9.44v.29C852.45,1260.75,856.4,1264.11,856.4,1270.07Zm611.65-.53c0,6.67-4.54,11.86-10.62,11.86h-20.06v-41.18h18.23c6.78,0,11,4.18,11,10.62,0,6.19-3.77,8.43-7.14,8.73v.35C1462.8,1260,1468.05,1262.64,1468.05,1269.54Zm-85.68.65c0,6.79-5.19,11.92-14.75,11.92s-14.75-5.13-14.75-11.92c0-5.49,3.3-8.79,8.26-10.15v-.47c-4.19-1.48-7-4.78-7-9.5,0-6.31,5-10.56,13.51-10.56s13.51,4.25,13.51,10.56c0,4.72-2.83,8-7,9.5v.47C1379.07,1261.4,1382.37,1264.7,1382.37,1270.19Zm30.56-24.07h-12.27v-5.9h31.21v5.9H1419.6v35.28h-6.67Zm210.73-56.38-1527-3V1186l1527,3Zm-1294.89-43v5.66h-28V1146L314,1134.29c4.13-3.72,6.49-7,6.49-10.8v-.77c0-4-2.6-6.43-6.67-6.43-4.54,0-6.73,2.89-7.73,6.49l-5.84-2.24c1.71-5.19,5.84-10,14.1-10s13.22,5.07,13.22,12.21c0,6.67-4.43,11-9.86,15.7l-9.67,8.32Zm536,5.66v-5.55h11.56v-30.8h-.47l-9.56,10.21-4.07-3.66,10.5-11.38h10.15v35.63h10v5.55Zm-7-35.4-14.51,35.4h-7l14.92-35.7H835.56v7.61h-5.73v-13.09h27.91Zm480.37,29.85h11.57v-30.8h-.47l-9.56,10.21-4.08-3.66,10.51-11.38h10.15v35.63h10v5.55h-28.15Zm39.43-14.45c1.71-3.25,4.42-6,9.55-6,7,0,12.1,5,12.1,12.74,0,8.27-5.72,14-14.45,14-9.09,0-14.52-6.2-14.52-16,0-11.92,8-21.36,14.75-25.84h8.85c-9.32,6.78-14.69,12.21-16.7,21.06Zm40.11-15.28v-5.9h31.22v5.9h-12.28v35.28h-6.66v-35.28Zm54.95-5.9c6.78,0,11,4.18,11,10.62,0,6.19-3.77,8.43-7.14,8.73v.35c3.37.12,8.62,2.72,8.62,9.62,0,6.67-4.55,11.86-10.62,11.86h-20.07v-41.18Zm153.06-48.48-1527-3V1059l1527,3Zm-84.13-450.59c.71-3.42,3.07-6.73,7.9-6.73H1551v8.15h-2.18c-5.08,0-7.56,1.12-7.56,4.72V636.4h-8.73v-31h8.73v6.73Zm-14.2,8.73c0,10-5.43,16.23-14.52,16.23s-14.51-6.26-14.51-16.23,5.43-16.17,14.51-16.17S1527.33,610.91,1527.33,620.88ZM1474.44,611h.18c1.12-3.48,4.72-6.26,9.44-6.26,6,0,9.26,4.49,9.26,12.28V636.4h-8.73V617.7c0-4-1.36-5.9-4.25-5.9-2.6,0-5.13,1.47-5.13,4.54V636.4h-8.73V617.7c0-4-1.42-5.9-4.25-5.9-2.54,0-5.14,1.47-5.14,4.54V636.4h-8.73v-31h8.73v5.25h.36a8.26,8.26,0,0,1,8.32-6A8.57,8.57,0,0,1,1474.44,611Zm-32.21,21c-2.78,3.18-7.32,5.13-13,5.13-9.5,0-14.87-6.31-14.87-16.23s5.19-16.17,14.51-16.17c10.27,0,14.4,7.44,14.4,15.82v2.59H1423.4v.48c0,4.07,2.19,6.66,6.85,6.66,3.66,0,5.66-1.71,7.61-3.71ZM1400,636.4v-27h-.17l-3,6-8,14.57-7.85-14.52-3.12-6.49h-.18V636.4h-8.44V595.21h9.5l10.09,19.3h.12l10-19.3h9.56V636.4ZM1305.19,631h-.36c-.94,4-4.36,6.14-9.08,6.14-6.2,0-9.62-3.66-9.62-9,0-6.55,5.07-9.68,13.28-9.68h4.89v-1.94c0-3-1.47-4.9-5.13-4.9a7.66,7.66,0,0,0-6.67,3.66l-5.19-4.6c2.48-3.66,6-5.91,12.51-5.91,8.73,0,13.22,4,13.22,11.33v13.58h2.89v6.78h-4.84C1308,636.4,1305.72,634.28,1305.19,631Zm-63.9-35.76h9.5l10.09,19.3h.12l10-19.3h9.56V636.4h-8.44v-27h-.17l-3,6-8,14.57L1253,615.45l-3.12-6.49h-.18V636.4h-8.44Zm77.55,10.21h9.92l5.78,9.74h.24l5.6-9.74h9.21l-10.27,15.52,10.33,15.46h-9.92l-6-10.09h-.23l-5.73,10.09h-9.08l10.2-15.75ZM1569,628.85l2.31-9,4.54-14.46H1584l-11.92,35.76c-1.59,4.78-4.19,7-9.5,7h-5.43v-6.78H1563l1.06-3.43-10.86-32.57h8.67l4.55,14.46,2.24,9ZM1625.66,681v.75l-1527-3V678Z"/><path d="M887,1012.25c0,4.07,2.83,6.49,7.79,6.49s7.79-2.42,7.79-6.49v-1.18c0-4.07-2.84-6.49-7.79-6.49S887,1007,887,1011.07Z"/><path d="M894.82,999.45c4.54,0,7-2.07,7-5.79v-1c0-3.72-2.48-5.78-7-5.78s-7,2.06-7,5.78v1C887.79,997.38,890.27,999.45,894.82,999.45Z"/><path d="M852.3,999.21v7.2c0,7.2,2.12,12,7.85,12s7.85-4.84,7.85-12v-7.2c0-7.2-2.13-12-7.85-12S852.3,992,852.3,999.21Z"/><polygon points="881.15 1246.29 880.74 1246.29 867.7 1268.13 881.15 1268.13 881.15 1246.29"/><path d="M901,611.62c-3.42,0-5.43,2.24-5.43,6.13v6.32c0,3.89,2,6.14,5.43,6.14s5.43-2.25,5.43-6.14v-6.32C906.47,613.86,904.47,611.62,901,611.62Z"/><polygon points="850.81 881.13 864.26 881.13 864.26 859.29 863.85 859.29 850.81 881.13"/><path d="M778.7,626.84v.89c0,2.24,1.47,3.3,4.07,3.3,2.89,0,5.31-1.18,5.31-4v-3.66h-4.25C780.47,623.36,778.7,624.6,778.7,626.84Z"/><path d="M960.73,617.46c0-3.78-1.71-6.31-5.19-6.31s-5.66,2.53-5.66,6.37V618h10.85Z"/><path d="M866.85,736.49c0-4.9-2.84-7.55-7.62-7.55s-7.61,2.65-7.61,7.55v.82c0,4.9,2.83,7.56,7.61,7.56s7.62-2.66,7.62-7.56Z"/><path d="M901.8,748.41v-7.2c0-7.2-2.12-12-7.85-12s-7.84,4.84-7.84,12v7.2c0,7.2,2.12,12,7.84,12S901.8,755.61,901.8,748.41Z"/><path d="M348,627v-3.66h-4.25c-3.36,0-5.14,1.24-5.14,3.48v.89c0,2.24,1.48,3.3,4.08,3.3C345.54,631,348,629.85,348,627Z"/><polygon points="304.57 881.13 318.03 881.13 318.03 859.29 317.62 859.29 304.57 881.13"/><path d="M293.37,619v-6.37c0-6.55-3.3-9.44-8.61-9.44h-6.55v25.26h6.55C290.07,628.44,293.37,625.54,293.37,619Z"/><path d="M197.3,603h-9.44v10.74h9.44c2.65,0,4.31-1.41,4.31-4.07v-2.59C201.61,604.42,200,603,197.3,603Z"/><path d="M429.06,617.46c0-3.78-1.71-6.31-5.2-6.31s-5.66,2.53-5.66,6.37V618h10.86Z"/><path class="cls-7" d="M158.22,637.11c7.56,0,12.45-3.6,15.52-9.86L166.43,623c-1.24,3.36-3.78,6.13-8.21,6.13-5.25,0-8.73-3.54-8.73-10V612.5c0-6.49,3.48-10,8.73-10,4.43,0,6.61,2.3,7.67,5.73l7.73-4c-3-6.6-7.84-9.67-15.4-9.67-11.09,0-18.23,7.67-18.23,21.59S147.13,637.11,158.22,637.11Z"/><path class="cls-7" d="M210.87,608.37c0-7.79-4.84-13.16-12.51-13.16H178.89V636.4h9V621.53h10.5C206,621.53,210.87,616.16,210.87,608.37Zm-9.26,1.3c0,2.66-1.66,4.07-4.31,4.07h-9.44V603h9.44c2.65,0,4.31,1.42,4.31,4.08Z"/><path class="cls-7" d="M233.55,602.47c4.42,0,6.61,2.3,7.67,5.73l7.73-4c-3-6.6-7.85-9.67-15.4-9.67-11.1,0-18.23,7.67-18.23,21.59s7.13,21,18.23,21c7.55,0,12.45-3.6,15.52-9.86L241.75,623c-1.24,3.36-3.78,6.13-8.2,6.13-5.25,0-8.73-3.54-8.73-10V612.5C224.82,606,228.3,602.47,233.55,602.47Z"/><path class="cls-7" d="M302.87,615.81c0-13.69-7.2-20.6-18.11-20.6H269.24V636.4h15.52C295.67,636.4,302.87,629.5,302.87,615.81Zm-24.66-12.63h6.55c5.31,0,8.61,2.89,8.61,9.44V619c0,6.55-3.3,9.45-8.61,9.45h-6.55Z"/><path class="cls-7" d="M317.7,618.29c0-3.6,2.48-4.72,7.55-4.72h2.19v-8.15H325.9c-4.83,0-7.19,3.31-7.9,6.73h-.3v-6.73H309v31h8.73Z"/><path class="cls-7" d="M356.69,616c0-7.31-4.48-11.33-13.22-11.33-6.49,0-10,2.25-12.51,5.91l5.2,4.6a7.62,7.62,0,0,1,6.66-3.66c3.66,0,5.14,1.89,5.14,4.9v1.94h-4.9c-8.2,0-13.28,3.13-13.28,9.68,0,5.37,3.43,9,9.62,9,4.72,0,8.14-2.12,9.09-6.14h.35c.53,3.31,2.78,5.43,5.9,5.43h4.84v-6.78h-2.89Zm-14,15c-2.6,0-4.08-1.06-4.08-3.3v-.89c0-2.24,1.78-3.48,5.14-3.48H348V627C348,629.85,345.54,631,342.65,631Z"/><polygon class="cls-7" points="368.7 605.42 360.26 605.42 368.94 636.4 377.9 636.4 381.68 623.3 383.81 615.28 383.98 615.28 386.17 623.3 389.94 636.4 399.09 636.4 407.64 605.42 399.56 605.42 396.55 617.93 394.43 627.37 394.19 627.37 391.65 617.93 388.05 605.42 380.09 605.42 376.55 617.93 374.07 627.37 373.83 627.37 371.71 617.93 368.7 605.42"/><path class="cls-7" d="M438.09,623.12v-2.59c0-8.38-4.13-15.82-14.4-15.82-9.32,0-14.52,6.38-14.52,16.17s5.37,16.23,14.87,16.23c5.67,0,10.21-2,13-5.13l-4.36-5.43c-2,2-4,3.71-7.61,3.71-4.67,0-6.85-2.59-6.85-6.66v-.48Zm-19.89-5.6c0-3.84,2.18-6.37,5.66-6.37s5.2,2.53,5.2,6.31V618H418.2Z"/><path class="cls-7" d="M443.16,605.42v31h8.73V618.29c0-3.6,2.48-4.72,7.55-4.72h2.19v-8.15h-1.54c-4.84,0-7.2,3.31-7.91,6.73h-.29v-6.73Z"/><path class="cls-7" d="M464.85,614.8c0,5.61,3.42,8.68,10.44,9.56l3.37.42c2.18.29,3.12,1.06,3.12,2.59,0,1.83-1.17,3-4.6,3a10.76,10.76,0,0,1-8.2-4l-5.13,5.19c3.18,3.54,7.08,5.55,13,5.55,8,0,13.27-4.37,13.27-10.33,0-5.37-3.48-8.43-10.2-9.32l-3.49-.47c-2.53-.36-3.24-1.24-3.24-2.89s1.18-2.6,4.13-2.6a10.35,10.35,0,0,1,7.14,3.19l5-5.14c-3.12-3.06-6.13-4.84-12.62-4.84C469.51,604.71,464.85,608.85,464.85,614.8Z"/><path class="cls-7" d="M314.37,760.5c-4.6,0-6.9-2.36-8.91-5.6l-4.84,3.83a15.11,15.11,0,0,0,13.63,7.38c9.32,0,14.69-5.84,14.69-14s-5.37-12.87-12.45-12.87c-4.72,0-6.78,2.13-8.61,5.37h-.41L308.53,730h18.29v-5.79H303.45l-1.53,23,5.49.77a8.61,8.61,0,0,1,7-3.25c4.84,0,7.61,2.83,7.61,7.55V753C322,757.67,319.21,760.5,314.37,760.5Z"/><path class="cls-7" d="M315.61,853.22l-16.7,27.43v5.73H318v8h6.31v-8H330v-5.26h-5.61v-27.9Zm2.42,27.9H304.57l13-21.83H318Z"/><path class="cls-7" d="M312.84,1018.5c-4.78,0-7.2-2.3-9.21-5.6l-4.9,3.83c2.6,3.78,6.43,7.38,14.11,7.38,8.79,0,14.69-4.84,14.69-12,0-6-4-9.32-8.62-10.21v-.29c4.31-1,7.91-4.19,7.91-9.44,0-6.67-5.61-10.62-13.39-10.62-6.85,0-10.63,3.18-13.1,6.78l4.42,3.84a9.43,9.43,0,0,1,8.5-5c3.95,0,6.55,2.13,6.55,5.84v.42c0,3.36-2.42,5.78-7.5,5.78h-4.19v5.66h4.37c5.19,0,8.14,2.31,8.14,6.5v.41C320.62,1016,317.85,1018.5,312.84,1018.5Z"/><path class="cls-7" d="M327.53,1122.72c0-7.14-4.84-12.21-13.22-12.21s-12.39,4.84-14.1,10l5.84,2.24c1-3.6,3.19-6.49,7.73-6.49,4.07,0,6.67,2.48,6.67,6.43v.77c0,3.77-2.36,7.08-6.49,10.8L300.8,1146v6.37h28v-5.66H308l9.67-8.32C323.1,1133.76,327.53,1129.39,327.53,1122.72Z"/><polygon class="cls-7" points="320.15 1240.22 310 1240.22 299.5 1251.6 303.57 1255.26 313.13 1245.05 313.6 1245.05 313.6 1275.85 302.04 1275.85 302.04 1281.4 330.18 1281.4 330.18 1275.85 320.15 1275.85 320.15 1240.22"/><polygon class="cls-7" points="764.78 636.4 764.78 595.22 755.22 595.22 745.25 614.51 745.13 614.51 735.04 595.22 725.54 595.22 725.54 636.4 733.98 636.4 733.98 608.96 734.15 608.96 737.28 615.45 745.13 629.97 753.15 615.4 756.16 609.38 756.34 609.38 756.34 636.4 764.78 636.4"/><path class="cls-7" d="M783.18,618.4c-8.2,0-13.28,3.13-13.28,9.68,0,5.37,3.43,9,9.62,9,4.72,0,8.15-2.12,9.09-6.14H789c.53,3.31,2.78,5.43,5.9,5.43h4.84v-6.78h-2.89V616c0-7.31-4.48-11.33-13.22-11.33-6.49,0-10,2.25-12.51,5.91l5.2,4.6a7.63,7.63,0,0,1,6.67-3.66c3.65,0,5.13,1.89,5.13,4.9v1.94Zm4.9,8.62c0,2.83-2.42,4-5.31,4-2.6,0-4.07-1.06-4.07-3.3v-.89c0-2.24,1.77-3.48,5.13-3.48h4.25Z"/><polygon class="cls-7" points="822.62 620.94 832.89 605.42 823.68 605.42 818.08 615.16 817.84 615.16 812.06 605.42 802.15 605.42 812.24 620.65 802.03 636.4 811.12 636.4 816.84 626.31 817.08 626.31 823.04 636.4 832.95 636.4 822.62 620.94"/><path class="cls-7" d="M883.69,627.25,876.37,623c-1.24,3.36-3.77,6.13-8.2,6.13-5.25,0-8.73-3.54-8.73-10V612.5c0-6.49,3.48-10,8.73-10,4.43,0,6.61,2.3,7.67,5.73l7.73-4c-3-6.6-7.85-9.67-15.4-9.67-11.09,0-18.23,7.67-18.23,21.59s7.14,21,18.23,21C875.72,637.11,880.62,633.51,883.69,627.25Z"/><path class="cls-7" d="M901,604.71c-9.08,0-14.51,6.2-14.51,16.17S892,637.11,901,637.11s14.52-6.26,14.52-16.23S910.13,604.71,901,604.71Zm5.43,13v6.32c0,3.89-2,6.14-5.43,6.14s-5.43-2.25-5.43-6.14v-6.32c0-3.89,2-6.13,5.43-6.13S906.47,613.86,906.47,617.75Z"/><path class="cls-7" d="M920.26,605.42v31H929V618.29c0-3.6,2.48-4.72,7.55-4.72h2.19v-8.15h-1.54c-4.84,0-7.2,3.31-7.9,6.73H929v-6.73Z"/><path class="cls-7" d="M969.76,623.12v-2.59c0-8.38-4.13-15.82-14.4-15.82-9.32,0-14.51,6.38-14.51,16.17s5.37,16.23,14.87,16.23c5.66,0,10.21-2,13-5.13l-4.37-5.43c-1.94,2-4,3.71-7.61,3.71-4.66,0-6.84-2.59-6.84-6.66v-.48Zm-19.88-5.6c0-3.84,2.18-6.37,5.66-6.37s5.19,2.53,5.19,6.31V618H949.88Z"/><path class="cls-7" d="M985.23,630.32a10.76,10.76,0,0,1-8.2-4l-5.14,5.19c3.19,3.54,7.09,5.55,13,5.55,8,0,13.28-4.37,13.28-10.33,0-5.37-3.48-8.43-10.21-9.32l-3.48-.47c-2.54-.36-3.24-1.24-3.24-2.89s1.18-2.6,4.13-2.6a10.36,10.36,0,0,1,7.14,3.19l5-5.14c-3.13-3.06-6.14-4.84-12.63-4.84-7.37,0-12,4.14-12,10.09,0,5.61,3.42,8.68,10.44,9.56l3.36.42c2.19.29,3.13,1.06,3.13,2.59C989.83,629.2,988.65,630.32,985.23,630.32Z"/><polygon class="cls-7" points="842.77 759.85 832.74 759.85 832.74 724.22 822.59 724.22 812.09 735.6 816.16 739.26 825.72 729.05 826.19 729.05 826.19 759.85 814.63 759.85 814.63 765.4 842.77 765.4 842.77 759.85"/><path class="cls-7" d="M850.15,765.4H859c6.78-4.48,14.75-13.92,14.75-25.84,0-9.86-5.43-16-14.52-16-8.73,0-14.45,5.72-14.45,14,0,7.79,5.13,12.75,12.09,12.75,5.14,0,7.85-2.78,9.56-6l.42.12C864.84,753.19,859.47,758.62,850.15,765.4Zm9.08-20.53c-4.78,0-7.61-2.66-7.61-7.56v-.82c0-4.9,2.83-7.55,7.61-7.55s7.62,2.65,7.62,7.55v.82C866.85,742.21,864,744.87,859.23,744.87Z"/><path class="cls-7" d="M908.88,744.81c0-13.46-4.66-21.3-14.93-21.3S879,731.35,879,744.81s4.66,21.3,14.92,21.3S908.88,758.26,908.88,744.81Zm-22.77,3.6v-7.2c0-7.2,2.12-12,7.84-12s7.85,4.84,7.85,12v7.2c0,7.2-2.12,12-7.85,12S886.11,755.61,886.11,748.41Z"/><polygon class="cls-7" points="821.39 853.22 810.88 864.6 814.96 868.26 824.52 858.05 824.99 858.05 824.99 888.85 813.42 888.85 813.42 894.4 841.57 894.4 841.57 888.85 831.54 888.85 831.54 853.22 821.39 853.22"/><path class="cls-7" d="M861.84,853.22l-16.69,27.43v5.73h19.11v8h6.32v-8h5.6v-5.26h-5.6v-27.9Zm2.42,27.9H850.81l13-21.83h.41Z"/><path class="cls-7" d="M895,889.5c-4.61,0-6.91-2.36-8.92-5.6l-4.83,3.83a15.1,15.1,0,0,0,13.63,7.38c9.32,0,14.69-5.84,14.69-14s-5.37-12.87-12.45-12.87c-4.72,0-6.79,2.13-8.62,5.37h-.41L889.14,859h18.29v-5.78H884.07l-1.54,22.95,5.49.77a8.63,8.63,0,0,1,7-3.25c4.83,0,7.61,2.83,7.61,7.55V882C902.6,886.67,899.82,889.5,895,889.5Z"/><polygon class="cls-7" points="813.77 1017.85 813.77 1023.4 841.91 1023.4 841.91 1017.85 831.88 1017.85 831.88 982.22 821.73 982.22 811.23 993.6 815.3 997.26 824.86 987.05 825.33 987.05 825.33 1017.85 813.77 1017.85"/><path class="cls-7" d="M845.22,1002.81c0,13.45,4.66,21.3,14.93,21.3s14.93-7.85,14.93-21.3-4.67-21.3-14.93-21.3S845.22,989.36,845.22,1002.81Zm22.78-3.6v7.2c0,7.2-2.13,12-7.85,12s-7.85-4.84-7.85-12v-7.2c0-7.2,2.12-12,7.85-12S868,992,868,999.21Z"/><path class="cls-7" d="M880.07,1012.19c0,6.79,5.19,11.92,14.75,11.92s14.75-5.13,14.75-11.92c0-5.49-3.31-8.79-8.26-10.15v-.47c4.19-1.48,7-4.78,7-9.5,0-6.31-5-10.56-13.51-10.56s-13.52,4.25-13.52,10.56c0,4.72,2.84,8,7,9.5v.47C883.37,1003.4,880.07,1006.7,880.07,1012.19Zm7.72-18.53v-1c0-3.72,2.48-5.78,7-5.78s7,2.06,7,5.78v1c0,3.72-2.48,5.79-7,5.79S887.79,997.38,887.79,993.66Zm7,10.92c4.95,0,7.79,2.42,7.79,6.49v1.18c0,4.07-2.84,6.49-7.79,6.49s-7.79-2.42-7.79-6.49v-1.18C887,1007,889.86,1004.58,894.82,1004.58Z"/><polygon class="cls-7" points="829.83 1124.31 835.56 1124.31 835.56 1116.7 851.13 1116.7 836.21 1152.4 843.23 1152.4 857.74 1117 857.74 1111.22 829.83 1111.22 829.83 1124.31"/><polygon class="cls-7" points="892.91 1152.4 892.91 1146.85 882.88 1146.85 882.88 1111.22 872.73 1111.22 862.23 1122.6 866.3 1126.26 875.86 1116.05 876.33 1116.05 876.33 1146.85 864.77 1146.85 864.77 1152.4 892.91 1152.4"/><path class="cls-7" d="M855.7,1250.13c0-6.67-5.61-10.62-13.4-10.62-6.84,0-10.62,3.18-13.1,6.78l4.43,3.84a9.43,9.43,0,0,1,8.49-5c4,0,6.55,2.13,6.55,5.84v.42c0,3.36-2.42,5.78-7.49,5.78H837v5.66h4.37c5.19,0,8.14,2.31,8.14,6.5v.41c0,4.25-2.77,6.78-7.79,6.78-4.78,0-7.2-2.3-9.2-5.6l-4.9,3.83c2.59,3.78,6.43,7.38,14.1,7.38,8.79,0,14.69-4.84,14.69-12,0-6-3.95-9.32-8.61-10.21v-.29C852.1,1258.62,855.7,1255.38,855.7,1250.13Z"/><path class="cls-7" d="M887.47,1281.4v-8h5.6v-5.26h-5.6v-27.9h-8.74L862,1267.65v5.73h19.12v8Zm-19.77-13.28,13-21.83h.41v21.83Z"/><polygon class="cls-7" points="1249.73 608.96 1249.91 608.96 1253.03 615.45 1260.88 629.97 1268.91 615.4 1271.92 609.38 1272.09 609.38 1272.09 636.4 1280.53 636.4 1280.53 595.22 1270.97 595.22 1261 614.51 1260.88 614.51 1250.79 595.22 1241.29 595.22 1241.29 636.4 1249.73 636.4 1249.73 608.96"/><path class="cls-7" d="M1315.93,636.4v-6.78H1313V616c0-7.31-4.49-11.33-13.22-11.33-6.49,0-10,2.25-12.51,5.91l5.19,4.6a7.66,7.66,0,0,1,6.67-3.66c3.66,0,5.13,1.89,5.13,4.9v1.94h-4.89c-8.21,0-13.28,3.13-13.28,9.68,0,5.37,3.42,9,9.62,9,4.72,0,8.14-2.12,9.08-6.14h.36c.53,3.31,2.77,5.43,5.9,5.43ZM1304.3,627c0,2.83-2.41,4-5.31,4-2.59,0-4.07-1.06-4.07-3.3v-.89c0-2.24,1.77-3.48,5.14-3.48h4.24Z"/><polygon class="cls-7" points="1327.81 636.4 1333.54 626.31 1333.77 626.31 1339.73 636.4 1349.64 636.4 1339.32 620.94 1349.59 605.42 1340.38 605.42 1334.78 615.16 1334.54 615.16 1328.76 605.42 1318.84 605.42 1328.93 620.65 1318.73 636.4 1327.81 636.4"/><polygon class="cls-7" points="1408.41 595.22 1398.85 595.22 1388.88 614.51 1388.76 614.51 1378.67 595.22 1369.17 595.22 1369.17 636.4 1377.61 636.4 1377.61 608.96 1377.79 608.96 1380.91 615.45 1388.76 629.97 1396.79 615.4 1399.8 609.38 1399.97 609.38 1399.97 636.4 1408.41 636.4 1408.41 595.22"/><path class="cls-7" d="M1437.86,626.55c-1.95,2-3.95,3.71-7.61,3.71-4.66,0-6.85-2.59-6.85-6.66v-.48h19.89v-2.59c0-8.38-4.13-15.82-14.4-15.82-9.32,0-14.51,6.38-14.51,16.17s5.37,16.23,14.87,16.23c5.66,0,10.2-2,13-5.13ZM1423.4,618v-.47c0-3.84,2.19-6.37,5.67-6.37s5.19,2.53,5.19,6.31V618Z"/><path class="cls-7" d="M1465.77,604.71a8.26,8.26,0,0,0-8.32,6h-.36v-5.25h-8.73v31h8.73V616.34c0-3.07,2.6-4.54,5.14-4.54,2.83,0,4.25,1.88,4.25,5.9v18.7h8.73V616.34c0-3.07,2.53-4.54,5.13-4.54,2.89,0,4.25,1.88,4.25,5.9v18.7h8.73V617c0-7.79-3.3-12.28-9.26-12.28-4.72,0-8.32,2.78-9.44,6.26h-.18A8.57,8.57,0,0,0,1465.77,604.71Z"/><path class="cls-7" d="M1498.3,620.88c0,10,5.43,16.23,14.51,16.23s14.52-6.26,14.52-16.23-5.43-16.17-14.52-16.17S1498.3,610.91,1498.3,620.88Zm19.94-3.13v6.32c0,3.89-2,6.14-5.43,6.14s-5.43-2.25-5.43-6.14v-6.32c0-3.89,2-6.13,5.43-6.13S1518.24,613.86,1518.24,617.75Z"/><path class="cls-7" d="M1532.5,605.42v31h8.73V618.29c0-3.6,2.48-4.72,7.56-4.72H1551v-8.15h-1.54c-4.83,0-7.19,3.31-7.9,6.73h-.3v-6.73Z"/><path class="cls-7" d="M1566.41,619.88l-4.55-14.46h-8.67L1564.05,638l-1.06,3.43h-5.85v6.78h5.43c5.31,0,7.91-2.24,9.5-7L1584,605.42h-8.14l-4.54,14.46-2.31,9h-.35Z"/><path class="cls-7" d="M1359.94,724.21h-8.73l-16.7,27.44v5.73h19.11v8h6.32v-8h5.6v-5.26h-5.6Zm-19.77,27.91,13-21.83h.41v21.83Z"/><path class="cls-7" d="M1400,744.81c0-13.46-4.66-21.3-14.93-21.3s-14.92,7.84-14.92,21.3,4.66,21.3,14.92,21.3S1400,758.26,1400,744.81Zm-22.77,3.6v-7.2c0-7.2,2.12-12,7.84-12s7.85,4.84,7.85,12v7.2c0,7.2-2.12,12-7.85,12S1377.25,755.61,1377.25,748.41Z"/><polygon class="cls-7" points="1437.07 765.4 1437.07 730.12 1449.35 730.12 1449.35 724.22 1418.13 724.22 1418.13 730.12 1430.4 730.12 1430.4 765.4 1437.07 765.4"/><path class="cls-7" d="M1484.05,734.84c0-6.44-4.19-10.63-11-10.63h-18.23V765.4h20.06c6.08,0,10.62-5.19,10.62-11.86,0-6.9-5.25-9.5-8.61-9.62v-.35C1480.27,743.27,1484.05,741,1484.05,734.84Zm-5.55,17.58v2c0,3.36-2.12,5.25-5.54,5.25h-11.45V747.17H1473C1476.38,747.17,1478.5,749.06,1478.5,752.42Zm-6.66-10.8h-10.33V729.94h10.33c3.24,0,5.19,1.77,5.19,4.9v1.88C1477,739.85,1475.08,741.62,1471.84,741.62Z"/><path class="cls-7" d="M1349.32,889.5c-4.78,0-7.2-2.3-9.2-5.6l-4.9,3.83c2.6,3.78,6.43,7.38,14.1,7.38,8.79,0,14.7-4.84,14.7-12,0-6-4-9.32-8.62-10.21v-.29c4.31-1,7.91-4.19,7.91-9.44,0-6.67-5.61-10.62-13.4-10.62-6.84,0-10.62,3.18-13.1,6.78l4.43,3.84a9.43,9.43,0,0,1,8.5-5c4,0,6.55,2.13,6.55,5.84v.42c0,3.36-2.42,5.78-7.5,5.78h-4.19v5.66H1349c5.19,0,8.14,2.31,8.14,6.5v.41C1357.11,887,1354.34,889.5,1349.32,889.5Z"/><path class="cls-7" d="M1397.19,864.72c0-7.14-4.84-12.21-13.22-12.21s-12.39,4.84-14.1,10l5.84,2.24c1-3.6,3.18-6.49,7.73-6.49,4.07,0,6.66,2.48,6.66,6.43v.77c0,3.77-2.36,7.08-6.49,10.8L1370.46,888v6.37h28v-5.66h-20.77l9.68-8.32C1392.76,875.76,1397.19,871.39,1397.19,864.72Z"/><polygon class="cls-7" points="1436.18 894.4 1436.18 859.12 1448.46 859.12 1448.46 853.22 1417.24 853.22 1417.24 859.12 1429.51 859.12 1429.51 894.4 1436.18 894.4"/><path class="cls-7" d="M1472.18,853.22H1454V894.4H1474c6.08,0,10.62-5.19,10.62-11.86,0-6.9-5.25-9.5-8.61-9.62v-.35c3.36-.3,7.14-2.54,7.14-8.73C1483.16,857.4,1479,853.22,1472.18,853.22Zm5.43,28.2v2c0,3.36-2.12,5.25-5.54,5.25h-11.45V876.17h11.45C1475.49,876.17,1477.61,878.06,1477.61,881.42Zm-1.47-15.7c0,3.13-2,4.9-5.19,4.9h-10.33V858.94H1471c3.24,0,5.19,1.77,5.19,4.9Z"/><path class="cls-7" d="M1350,1005.29,1336.84,1017v6.37h28v-5.66H1344l9.68-8.32c5.42-4.66,9.85-9,9.85-15.7,0-7.14-4.84-12.21-13.22-12.21s-12.39,4.84-14.1,10l5.84,2.24c1-3.6,3.19-6.49,7.73-6.49,4.07,0,6.67,2.48,6.67,6.43v.77C1356.49,998.26,1354.13,1001.57,1350,1005.29Z"/><path class="cls-7" d="M1394.44,1023.4v-8h5.61v-5.26h-5.61v-27.9h-8.73l-16.7,27.43v5.73h19.12v8Zm-19.76-13.28,13-21.83h.41v21.83Z"/><polygon class="cls-7" points="1436.63 1023.4 1436.63 988.12 1448.9 988.12 1448.9 982.22 1417.69 982.22 1417.69 988.12 1429.96 988.12 1429.96 1023.4 1436.63 1023.4"/><path class="cls-7" d="M1483.6,992.84c0-6.44-4.19-10.62-11-10.62H1454.4v41.18h20.06c6.08,0,10.62-5.19,10.62-11.86,0-6.9-5.25-9.5-8.62-9.62v-.35C1479.83,1001.27,1483.6,999,1483.6,992.84Zm-5.54,17.58v2c0,3.36-2.13,5.25-5.55,5.25h-11.45v-12.51h11.45C1475.93,1005.17,1478.06,1007.06,1478.06,1010.42Zm-6.67-10.8h-10.33V987.94h10.33c3.25,0,5.19,1.77,5.19,4.9v1.88C1476.58,997.85,1474.64,999.62,1471.39,999.62Z"/><polygon class="cls-7" points="1366.26 1152.4 1366.26 1146.85 1356.23 1146.85 1356.23 1111.22 1346.08 1111.22 1335.58 1122.6 1339.65 1126.26 1349.21 1116.05 1349.68 1116.05 1349.68 1146.85 1338.11 1146.85 1338.11 1152.4 1366.26 1152.4"/><path class="cls-7" d="M1393.82,1111.22H1385c-6.79,4.48-14.75,13.92-14.75,25.84,0,9.85,5.43,16,14.52,16,8.73,0,14.45-5.72,14.45-14,0-7.78-5.13-12.74-12.1-12.74-5.13,0-7.84,2.77-9.55,6l-.42-.12C1379.13,1123.43,1384.5,1118,1393.82,1111.22Zm-9.08,20.53c4.77,0,7.61,2.65,7.61,7.55v.83c0,4.9-2.84,7.55-7.61,7.55s-7.62-2.65-7.62-7.55v-.83C1377.12,1134.4,1380,1131.75,1384.74,1131.75Z"/><polygon class="cls-7" points="1429.93 1152.4 1436.59 1152.4 1436.59 1117.12 1448.87 1117.12 1448.87 1111.22 1417.65 1111.22 1417.65 1117.12 1429.93 1117.12 1429.93 1152.4"/><path class="cls-7" d="M1454.36,1111.22v41.18h20.07c6.07,0,10.62-5.19,10.62-11.86,0-6.9-5.25-9.5-8.62-9.62v-.35c3.37-.3,7.14-2.54,7.14-8.73,0-6.44-4.19-10.62-11-10.62Zm23.67,28.2v2c0,3.36-2.13,5.25-5.55,5.25H1461v-12.51h11.45C1475.9,1134.17,1478,1136.06,1478,1139.42Zm-6.67-22.48c3.24,0,5.19,1.77,5.19,4.9v1.88c0,3.13-2,4.9-5.19,4.9H1461v-11.68Z"/><path class="cls-7" d="M1381.13,1250.07c0-6.31-5-10.56-13.51-10.56s-13.51,4.25-13.51,10.56c0,4.72,2.83,8,7,9.5v.47c-5,1.36-8.26,4.66-8.26,10.15,0,6.79,5.19,11.92,14.75,11.92s14.75-5.13,14.75-11.92c0-5.49-3.3-8.79-8.26-10.15v-.47C1378.3,1258.09,1381.13,1254.79,1381.13,1250.07Zm-20.53,1.59v-1c0-3.72,2.47-5.78,7-5.78s7,2.06,7,5.78v1c0,3.72-2.48,5.79-7,5.79S1360.6,1255.38,1360.6,1251.66Zm14.81,17.41v1.18c0,4.07-2.84,6.49-7.79,6.49s-7.79-2.42-7.79-6.49v-1.18c0-4.07,2.83-6.49,7.79-6.49S1375.41,1265,1375.41,1269.07Z"/><polygon class="cls-7" points="1419.6 1246.12 1431.87 1246.12 1431.87 1240.22 1400.66 1240.22 1400.66 1246.12 1412.93 1246.12 1412.93 1281.4 1419.6 1281.4 1419.6 1246.12"/><path class="cls-7" d="M1466.57,1250.84c0-6.44-4.19-10.62-11-10.62h-18.23v41.18h20.06c6.08,0,10.62-5.19,10.62-11.86,0-6.9-5.25-9.5-8.62-9.62v-.35C1462.8,1259.27,1466.57,1257,1466.57,1250.84Zm-12.21-4.9c3.25,0,5.19,1.77,5.19,4.9v1.88c0,3.13-1.94,4.9-5.19,4.9H1444v-11.68Zm6.67,22.48v2c0,3.36-2.13,5.25-5.55,5.25H1444v-12.51h11.45C1458.9,1263.17,1461,1265.06,1461,1268.42Z"/><rect class="cls-7" x="861.78" y="-83.64" width="0.75" height="1527.01" transform="translate(180.05 1540.25) rotate(-89.85)"/><rect class="cls-7" x="861.78" y="43.36" width="0.75" height="1527.01" transform="translate(53.05 1666.92) rotate(-89.85)"/><rect class="cls-7" x="861.78" y="170.36" width="0.75" height="1527.01" transform="translate(-73.95 1793.59) rotate(-89.85)"/><rect class="cls-7" x="861.78" y="297.36" width="0.75" height="1527.01" transform="translate(-200.95 1920.26) rotate(-89.85)"/><rect class="cls-7" x="859.78" y="424.36" width="0.75" height="1527.01" transform="translate(-329.95 2044.93) rotate(-89.85)"/><rect class="cls-7" x="858.78" y="555.36" width="0.75" height="1527.01" transform="translate(-461.94 2174.59) rotate(-89.85)"/></svg>