<svg id="Layer_1" data-name="Layer 1" xmlns="http://www.w3.org/2000/svg" viewBox="0 0 753.59 1838.58"><defs><style>.cls-1{fill:#2b2d2d;}.cls-2{fill:#191b1b;}.cls-3{fill:#333535;}.cls-4{fill:#535353;}.cls-5{fill:#e0e0e0;}.cls-6{fill:#aeaeae;}.cls-7{fill:#f68f00;}.cls-8{fill:#d67b1a;}.cls-9{fill:#abadaf;}</style></defs><title>linuxone-diagram-single</title><rect x="113.23" y="1765.92" width="523.8" height="46.54"/><rect x="657.79" y="1358.44" width="10.65" height="64.64"/><rect x="657.79" y="979.63" width="10.65" height="15.43"/><polygon points="657.79 1755.4 96.72 1755.4 96.72 1572.42 86.08 1572.42 86.08 1765.92 113.23 1765.92 637.03 1765.92 668.44 1765.92 668.44 1572.42 657.79 1572.42 657.79 1755.4"/><rect x="657.79" y="799.71" width="10.65" height="16.65"/><rect x="86.08" y="799.71" width="10.65" height="16.41"/><polygon points="96.72 40.62 657.79 40.62 657.79 222.85 668.44 222.85 668.44 28.46 86.08 28.46 86.08 222.85 96.72 222.85 96.72 40.62"/><rect x="86.08" y="1144.09" width="10.65" height="65"/><rect x="86.08" y="979.39" width="10.65" height="15.43"/><rect x="86.08" y="1358.44" width="10.65" height="64.64"/><rect x="657.79" y="1144.33" width="10.65" height="64.76"/><rect class="cls-1" x="96.72" y="799.71" width="48.97" height="16.41"/><rect class="cls-1" x="634.29" y="979.63" width="23.5" height="15.43"/><path class="cls-1" d="M575.81,136.35v86.5h82V40.62H96.72V222.85h49v-86.5ZM113.23,67.17H639.69V106.3H113.23Z"/><path class="cls-1" d="M657.79,1755.4v-183h-82v90.25H145.7v-90.25h-49v183ZM637,1692.16v31.2H111.1v-31.2Z"/><rect class="cls-1" x="575.81" y="799.71" width="81.98" height="16.65"/><rect class="cls-1" x="575.81" y="979.63" width="28.67" height="15.43"/><rect class="cls-1" x="575.81" y="1144.33" width="81.98" height="64.76"/><rect class="cls-1" x="575.81" y="1358.44" width="81.98" height="64.64"/><rect class="cls-1" x="96.72" y="1144.09" width="48.97" height="65"/><rect class="cls-1" x="96.72" y="979.39" width="48.97" height="15.43"/><rect class="cls-1" x="96.72" y="1358.44" width="48.97" height="64.64"/><rect class="cls-2" x="113.23" y="67.17" width="526.46" height="39.14"/><path d="M509.44,1144.33a3.89,3.89,0,0,1-3.88-3.89V998.94a3.88,3.88,0,0,1,3.88-3.88h66.37V979.63H509a4.13,4.13,0,0,1-4.13-4.13v-155a4.13,4.13,0,0,1,4.13-4.13h66.78V799.71h-65a4,4,0,0,1-4-4V226.86a4,4,0,0,1,4-4h65v-86.5H145.7v86.5h95.92a4,4,0,0,1,4,4V795.7a4,4,0,0,1-4,4H145.7v16.41h96.24a4,4,0,0,1,4,4V975.38a4,4,0,0,1-4,4H145.7v15.43h96.67a3.89,3.89,0,0,1,3.89,3.88v141.5a3.89,3.89,0,0,1-3.89,3.89H145.7v65H575.81v-64.76Zm-34.36-3.89a3.89,3.89,0,0,1-3.89,3.89H280.75a3.89,3.89,0,0,1-3.89-3.89V998.94a3.89,3.89,0,0,1,3.89-3.88H471.19a3.89,3.89,0,0,1,3.89,3.88Zm1.21-163.63a4,4,0,0,1-4,4H282.71a4,4,0,0,1-4-4V226.86a4,4,0,0,1,4-4H472.28a4,4,0,0,1,4,4Z"/><rect x="145.7" y="1358.44" width="430.11" height="64.64"/><rect x="145.7" y="1572.42" width="430.11" height="90.25"/><rect class="cls-2" x="111.1" y="1692.16" width="525.93" height="31.2"/><path class="cls-2" d="M634.29,995.06V979.63H630v6.29a7.76,7.76,0,0,1-7.76,7.76H616.5a7.75,7.75,0,0,1-7.76-7.76v-6.29h-4.26v15.43Z"/><path d="M616.5,993.68h5.77a7.76,7.76,0,0,0,7.76-7.76v-6.29h-2.58v5.59a5.83,5.83,0,0,1-5.82,5.82H617.3a5.82,5.82,0,0,1-5.82-5.82v-5.59h-2.74v6.29A7.75,7.75,0,0,0,616.5,993.68Z"/><path class="cls-3" d="M617.3,991h4.33a5.83,5.83,0,0,0,5.82-5.82v-5.59h-1.63a6,6,0,0,1,.08,1,6.52,6.52,0,0,1-13,0,6,6,0,0,1,.08-1h-1.46v5.59A5.82,5.82,0,0,0,617.3,991Z"/><path class="cls-4" d="M619.38,987.07a6.5,6.5,0,0,0,6.52-6.48,6,6,0,0,0-.08-1H612.94a6,6,0,0,0-.08,1A6.5,6.5,0,0,0,619.38,987.07Zm4.79-6.87v1h-9.58v-1Z"/><rect x="614.59" y="980.2" width="9.58" height="1.06"/><path class="cls-5" d="M631.31,1297.58c4.73,0,7.87-3.41,7.87-9v-4.81c0-5.56-3.14-9-7.87-9s-7.87,3.41-7.87,9v4.81C623.44,1294.17,626.59,1297.58,631.31,1297.58Z"/><path class="cls-5" d="M121.76,1281.19v-2.1c0-2.45-1.48-3.81-4-3.81h-7.87V1285h7.87C120.28,1285,121.76,1283.64,121.76,1281.19Z"/><path class="cls-5" d="M145.7,1358.44H702.3a4.05,4.05,0,0,0,4.05-4V1213.14a4.05,4.05,0,0,0-4.05-4.05H52.53a4,4,0,0,0-4.05,4.05v141.25a4,4,0,0,0,4.05,4H145.7Zm485.61-88c8,0,13.17,5.51,13.17,15.79S639.27,1302,631.31,1302s-13.16-5.51-13.16-15.78S623.35,1270.43,631.31,1270.43Zm-29.79,27h4.16V1275h-4.16v-4h13.3v4h-4.2v22.47h4.2v4h-13.3ZM574,1278.21a6.43,6.43,0,0,1,6.39,4.29h.22v-13.38h4.76v32.36h-4.76v-3.77h-.22A6.5,6.5,0,0,1,574,1302c-5.73,0-9.05-4.42-9.05-11.89S568.24,1278.21,574,1278.21Zm-32.62.53h4.76v3.76h.22a6.35,6.35,0,0,1,6.39-4.29c4.63,0,7.39,3.24,7.39,8.84v14.43h-4.77v-13.82c0-3.55-1.36-5.34-4.28-5.34-2.5,0-4.95,1.27-4.95,3.94v15.22h-4.76Zm-16,3.36a6,6,0,0,0-5.42,3.11l-2.85-2.58c1.49-2.54,4.16-4.42,8.57-4.42,5.86,0,9.14,2.89,9.14,8v11.41h2.41v3.9h-2.67c-2.49,0-3.8-1.58-4.11-3.81h-.22c-.87,2.84-3.32,4.33-6.65,4.33-4.68,0-7.34-2.67-7.34-6.78,0-4.5,3.37-6.82,9.71-6.82H530v-1.92C530,1283.72,528.55,1282.1,525.36,1282.1Zm-38.4-3.36,4.55,13.38,1.31,4.94H493l1.44-4.94,4.55-13.38h4.59L494.05,1306c-1.1,3.06-2.45,4.24-6,4.24H485.3v-3.89h3.85l1.31-3.85-8.27-23.74Zm-19.59,0h4.77v4.37h.22c.66-2.32,2.62-4.37,6.25-4.37h1.27v4.59H478c-3.76,0-5.86,1.27-5.86,3.63v14.52h-4.77Zm-15.28-.53c6.34,0,10.45,4.64,10.45,11.9S458.43,1302,452.09,1302s-10.45-4.63-10.45-11.89S445.75,1278.21,452.09,1278.21Zm-47.12.53h4.77v3.76H410a6,6,0,0,1,6.07-4.29,6.7,6.7,0,0,1,6.74,4.64h.13a6.85,6.85,0,0,1,6.87-4.64c4.5,0,7.17,3.24,7.17,8.84v14.43h-4.77v-13.87c0-3.5-1.31-5.29-4.2-5.29-2.4,0-4.63,1.27-4.63,3.9v15.26h-4.77v-13.87c0-3.54-1.36-5.29-4.15-5.29-2.37,0-4.68,1.27-4.68,3.9v15.26H405Zm-14.86-.53c6.69,0,10.1,5,10.1,11.33v1.79H384.6v.74c0,3.5,2.14,6,6,6a6.67,6.67,0,0,0,6-3.42l2.8,2.76c-1.71,2.75-5,4.59-9.27,4.59-6.47,0-10.45-4.63-10.45-11.89S383.64,1278.21,390.11,1278.21ZM346.19,1271h5.86l8.18,15.53h.26l8.18-15.53h5.6v30.53h-4.73v-23.36h-.21l-2.41,5-6.69,12.2-6.69-12.2-2.41-5h-.21v23.36h-4.73Zm-23.61,28.12v-.7c0-1.75,1.05-3,3.19-3s3.19,1.22,3.19,3v.7a11.73,11.73,0,0,1-4.28,8.44h-3.55a12.84,12.84,0,0,0,3.72-5.64A2.66,2.66,0,0,1,322.58,1299.07ZM310,1292.25,308,1292c-4.64-.57-7.48-2.58-7.48-6.78,0-4.42,3.45-7,8.44-7a10.27,10.27,0,0,1,8.48,3.63l-2.93,2.8a7.23,7.23,0,0,0-5.55-2.58c-2.63,0-3.85,1.14-3.85,2.84s1.09,2.54,3.5,2.93l2.1.26c5,.75,7.21,2.93,7.21,6.61,0,4.37-3.54,7.3-9,7.3a11,11,0,0,1-9.22-4.29l3.06-2.79a8,8,0,0,0,6.43,3.23c2.75,0,4.15-1.14,4.15-3.06C313.28,1293.65,312.41,1292.55,310,1292.25Zm-25.18-13.51h4.77v4.37h.22c.65-2.32,2.62-4.37,6.25-4.37h1.27v4.59h-1.88c-3.76,0-5.86,1.27-5.86,3.63v14.52h-4.77Zm-15.28-.53c6.34,0,10.45,4.64,10.45,11.9S275.92,1302,269.58,1302s-10.45-4.63-10.45-11.89S263.24,1278.21,269.58,1278.21Zm-21.69,14-2.1-.26c-4.64-.57-7.48-2.58-7.48-6.78,0-4.42,3.46-7,8.44-7a10.31,10.31,0,0,1,8.49,3.63l-2.93,2.8a7.25,7.25,0,0,0-5.56-2.58c-2.62,0-3.85,1.14-3.85,2.84s1.1,2.54,3.5,2.93l2.1.26c5,.75,7.22,2.93,7.22,6.61,0,4.37-3.54,7.3-9,7.3a11,11,0,0,1-9.23-4.29l3.06-2.79a8.05,8.05,0,0,0,6.43,3.23c2.76,0,4.16-1.14,4.16-3.06C251.13,1293.65,250.25,1292.55,247.89,1292.25Zm-21.32,0-2.1-.26c-4.63-.57-7.48-2.58-7.48-6.78,0-4.42,3.46-7,8.44-7a10.31,10.31,0,0,1,8.49,3.63l-2.93,2.8a7.25,7.25,0,0,0-5.56-2.58c-2.62,0-3.84,1.14-3.84,2.84s1.09,2.54,3.49,2.93l2.1.26c5,.75,7.22,2.93,7.22,6.61,0,4.37-3.54,7.3-9,7.3a11,11,0,0,1-9.23-4.29l3.06-2.79a8.05,8.05,0,0,0,6.43,3.23c2.76,0,4.16-1.14,4.16-3.06C229.81,1293.65,228.93,1292.55,226.57,1292.25Zm-23.35-14c6.69,0,10.1,5,10.1,11.33v1.79H197.71v.74c0,3.5,2.14,6,6,6a6.67,6.67,0,0,0,6-3.42l2.8,2.76c-1.71,2.75-5,4.59-9.27,4.59-6.47,0-10.45-4.63-10.45-11.89S196.75,1278.21,203.22,1278.21Zm-22.14,0c4.55,0,7.44,2.23,8.79,5.6l-3.93,1.84a4.72,4.72,0,0,0-4.86-3.46c-3.49,0-5.29,2.41-5.29,5.9v4.07c0,3.5,1.8,5.91,5.29,5.91a5.45,5.45,0,0,0,5.34-3.77l3.63,1.93c-1.49,3.72-4.59,5.77-9,5.77-6.56,0-10.32-4.63-10.32-11.89S174.52,1278.21,181.08,1278.21Zm-24.37,0c6.34,0,10.45,4.64,10.45,11.9S163.05,1302,156.71,1302s-10.45-4.63-10.45-11.89S150.37,1278.21,156.71,1278.21Zm-25.34.53h4.77v4.37h.21c.66-2.32,2.63-4.37,6.26-4.37h1.27v4.59H142c-3.76,0-5.86,1.27-5.86,3.63v14.52h-4.77ZM105,1271h13.12c5.6,0,8.88,3.63,8.88,9.19s-3.28,9.18-8.88,9.18h-8.18v12.16H105Z"/><path class="cls-5" d="M395.18,1287.74c0-3.49-1.92-5.81-5.07-5.81s-5.51,2.45-5.51,6v.3h10.58Z"/><path class="cls-5" d="M269.58,1298.07c3.24,0,5.42-2,5.42-6v-3.85c0-4-2.18-6-5.42-6s-5.42,2-5.42,6V1292C264.16,1296.05,266.35,1298.07,269.58,1298.07Z"/><path class="cls-5" d="M208.29,1287.74c0-3.49-1.92-5.81-5.07-5.81s-5.51,2.45-5.51,6v.3h10.58Z"/><path class="cls-5" d="M156.71,1298.07c3.24,0,5.42-2,5.42-6v-3.85c0-4-2.18-6-5.42-6s-5.42,2-5.42,6V1292C151.29,1296.05,153.47,1298.07,156.71,1298.07Z"/><path class="cls-5" d="M452.09,1298.07c3.24,0,5.43-2,5.43-6v-3.85c0-4-2.19-6-5.43-6s-5.42,2-5.42,6V1292C446.67,1296.05,448.86,1298.07,452.09,1298.07Z"/><path class="cls-5" d="M575.42,1297.89c2.88,0,5.16-1.57,5.16-3.89v-7.78c0-2.32-2.28-3.9-5.16-3.9-3.28,0-5.47,2.32-5.47,5.82v3.93C570,1295.57,572.14,1297.89,575.42,1297.89Z"/><path class="cls-5" d="M521.07,1294.52v.79c0,2,1.49,3.06,3.85,3.06,2.93,0,5.12-1.4,5.12-3.63v-3.28h-4C522.69,1291.46,521.07,1292.55,521.07,1294.52Z"/><path d="M109.91,1289.32h8.18c5.6,0,8.88-3.63,8.88-9.18s-3.28-9.19-8.88-9.19H105v30.53h4.94Zm0-14h7.87c2.5,0,4,1.36,4,3.81v2.1c0,2.45-1.48,3.8-4,3.8h-7.87Z"/><path d="M136.14,1287c0-2.36,2.1-3.63,5.86-3.63h1.88v-4.59h-1.27c-3.63,0-5.6,2-6.26,4.37h-.21v-4.37h-4.77v22.74h4.77Z"/><path d="M156.71,1302c6.34,0,10.45-4.63,10.45-11.89s-4.11-11.9-10.45-11.9-10.45,4.64-10.45,11.9S150.37,1302,156.71,1302Zm-5.42-13.82c0-4,2.18-6,5.42-6s5.42,2,5.42,6V1292c0,4-2.18,6-5.42,6s-5.42-2-5.42-6Z"/><path d="M181.08,1302c4.38,0,7.48-2,9-5.77l-3.63-1.93a5.45,5.45,0,0,1-5.34,3.77c-3.49,0-5.29-2.41-5.29-5.91v-4.07c0-3.49,1.8-5.9,5.29-5.9a4.72,4.72,0,0,1,4.86,3.46l3.93-1.84c-1.35-3.37-4.24-5.6-8.79-5.6-6.56,0-10.32,4.64-10.32,11.9S174.52,1302,181.08,1302Z"/><path d="M203.22,1302c4.24,0,7.56-1.84,9.27-4.59l-2.8-2.76a6.67,6.67,0,0,1-6,3.42c-3.85,0-6-2.5-6-6v-.74h15.61v-1.79c0-6.3-3.41-11.33-10.1-11.33-6.47,0-10.45,4.64-10.45,11.9S196.75,1302,203.22,1302Zm-5.51-14.12c0-3.5,2.23-6,5.51-6s5.07,2.32,5.07,5.81v.44H197.71Z"/><path d="M225.65,1298.15a8.05,8.05,0,0,1-6.43-3.23l-3.06,2.79a11,11,0,0,0,9.23,4.29c5.47,0,9-2.93,9-7.3,0-3.68-2.23-5.86-7.22-6.61l-2.1-.26c-2.4-.39-3.49-1.18-3.49-2.93s1.22-2.84,3.84-2.84a7.25,7.25,0,0,1,5.56,2.58l2.93-2.8a10.31,10.31,0,0,0-8.49-3.63c-5,0-8.44,2.58-8.44,7,0,4.2,2.85,6.21,7.48,6.78l2.1.26c2.36.3,3.24,1.4,3.24,2.84C229.81,1297,228.41,1298.15,225.65,1298.15Z"/><path d="M247,1298.15a8.05,8.05,0,0,1-6.43-3.23l-3.06,2.79a11,11,0,0,0,9.23,4.29c5.47,0,9-2.93,9-7.3,0-3.68-2.23-5.86-7.22-6.61l-2.1-.26c-2.4-.39-3.5-1.18-3.5-2.93s1.23-2.84,3.85-2.84a7.25,7.25,0,0,1,5.56,2.58l2.93-2.8a10.31,10.31,0,0,0-8.49-3.63c-5,0-8.44,2.58-8.44,7,0,4.2,2.84,6.21,7.48,6.78l2.1.26c2.36.3,3.24,1.4,3.24,2.84C251.13,1297,249.73,1298.15,247,1298.15Z"/><path d="M269.58,1302c6.34,0,10.45-4.63,10.45-11.89s-4.11-11.9-10.45-11.9-10.45,4.64-10.45,11.9S263.24,1302,269.58,1302Zm-5.42-13.82c0-4,2.19-6,5.42-6s5.42,2,5.42,6V1292c0,4-2.18,6-5.42,6s-5.42-2-5.42-6Z"/><path d="M289.63,1287c0-2.36,2.1-3.63,5.86-3.63h1.88v-4.59H296.1c-3.63,0-5.6,2-6.25,4.37h-.22v-4.37h-4.77v22.74h4.77Z"/><path d="M309.13,1298.15a8,8,0,0,1-6.43-3.23l-3.06,2.79a11,11,0,0,0,9.22,4.29c5.47,0,9-2.93,9-7.3,0-3.68-2.23-5.86-7.21-6.61l-2.1-.26c-2.41-.39-3.5-1.18-3.5-2.93s1.22-2.84,3.85-2.84a7.23,7.23,0,0,1,5.55,2.58l2.93-2.8a10.27,10.27,0,0,0-8.48-3.63c-5,0-8.44,2.58-8.44,7,0,4.2,2.84,6.21,7.48,6.78l2.09.26c2.37.3,3.24,1.4,3.24,2.84C313.28,1297,311.88,1298.15,309.13,1298.15Z"/><path d="M324.68,1307.51a11.73,11.73,0,0,0,4.28-8.44v-.7c0-1.75-1-3-3.19-3s-3.19,1.22-3.19,3v.7a2.66,2.66,0,0,0,2.27,2.8,12.84,12.84,0,0,1-3.72,5.64Z"/><polygon points="350.92 1278.12 351.13 1278.12 353.54 1283.07 360.23 1295.27 366.92 1283.07 369.33 1278.12 369.55 1278.12 369.55 1301.48 374.27 1301.48 374.27 1270.95 368.67 1270.95 360.49 1286.48 360.23 1286.48 352.05 1270.95 346.19 1270.95 346.19 1301.48 350.92 1301.48 350.92 1278.12"/><path d="M390.11,1302c4.24,0,7.56-1.84,9.27-4.59l-2.8-2.76a6.67,6.67,0,0,1-6,3.42c-3.85,0-6-2.5-6-6v-.74h15.61v-1.79c0-6.3-3.41-11.33-10.1-11.33-6.47,0-10.45,4.64-10.45,11.9S383.64,1302,390.11,1302Zm-5.51-14.12c0-3.5,2.23-6,5.51-6s5.07,2.32,5.07,5.81v.44H384.6Z"/><path d="M409.74,1286.22c0-2.63,2.31-3.9,4.68-3.9,2.79,0,4.15,1.75,4.15,5.29v13.87h4.77v-15.26c0-2.63,2.23-3.9,4.63-3.9,2.89,0,4.2,1.79,4.2,5.29v13.87h4.77v-14.43c0-5.6-2.67-8.84-7.17-8.84a6.85,6.85,0,0,0-6.87,4.64h-.13a6.7,6.7,0,0,0-6.74-4.64,6,6,0,0,0-6.07,4.29h-.22v-3.76H405v22.74h4.77Z"/><path d="M452.09,1302c6.34,0,10.45-4.63,10.45-11.89s-4.11-11.9-10.45-11.9-10.45,4.64-10.45,11.9S445.75,1302,452.09,1302Zm-5.42-13.82c0-4,2.19-6,5.42-6s5.43,2,5.43,6V1292c0,4-2.19,6-5.43,6s-5.42-2-5.42-6Z"/><path d="M472.14,1287c0-2.36,2.1-3.63,5.86-3.63h1.88v-4.59h-1.27c-3.63,0-5.59,2-6.25,4.37h-.22v-4.37h-4.77v22.74h4.77Z"/><path d="M489.15,1306.33H485.3v3.89h2.75c3.55,0,4.9-1.18,6-4.24l9.57-27.24H499l-4.55,13.38-1.44,4.94h-.22l-1.31-4.94L487,1278.74h-4.77l8.27,23.74Z"/><path d="M525.93,1288.4c-6.34,0-9.71,2.32-9.71,6.82,0,4.11,2.66,6.78,7.34,6.78,3.33,0,5.78-1.49,6.65-4.33h.22c.31,2.23,1.62,3.81,4.11,3.81h2.67v-3.9H534.8v-11.41c0-5.07-3.28-8-9.14-8-4.41,0-7.08,1.88-8.57,4.42l2.85,2.58a6,6,0,0,1,5.42-3.11c3.19,0,4.68,1.62,4.68,4.38v1.92Zm4.11,6.34c0,2.23-2.19,3.63-5.12,3.63-2.36,0-3.85-1-3.85-3.06v-.79c0-2,1.62-3.06,4.94-3.06h4Z"/><path d="M546.11,1286.26c0-2.67,2.45-3.94,4.95-3.94,2.92,0,4.28,1.79,4.28,5.34v13.82h4.77v-14.43c0-5.6-2.76-8.84-7.39-8.84a6.35,6.35,0,0,0-6.39,4.29h-.22v-3.76h-4.76v22.74h4.76Z"/><path d="M574,1302a6.5,6.5,0,0,0,6.39-4.29h.22v3.77h4.76v-32.36h-4.76v13.38h-.22a6.43,6.43,0,0,0-6.39-4.29c-5.73,0-9.05,4.42-9.05,11.9S568.24,1302,574,1302Zm-4-13.86c0-3.5,2.19-5.82,5.47-5.82,2.88,0,5.16,1.58,5.16,3.9V1294c0,2.32-2.28,3.89-5.16,3.89-3.28,0-5.47-2.32-5.47-5.82Z"/><polygon points="614.82 1297.45 610.62 1297.45 610.62 1274.98 614.82 1274.98 614.82 1270.95 601.52 1270.95 601.52 1274.98 605.68 1274.98 605.68 1297.45 601.52 1297.45 601.52 1301.48 614.82 1301.48 614.82 1297.45"/><path d="M631.31,1302c8,0,13.17-5.51,13.17-15.78s-5.21-15.79-13.17-15.79-13.16,5.51-13.16,15.79S623.35,1302,631.31,1302Zm-7.87-18.19c0-5.56,3.15-9,7.87-9s7.87,3.41,7.87,9v4.81c0,5.55-3.14,9-7.87,9s-7.87-3.41-7.87-9Z"/><path class="cls-5" d="M145.7,979.39h96.24a4,4,0,0,0,4-4V820.13a4,4,0,0,0-4-4H52.37a4,4,0,0,0-4,4V975.38a4,4,0,0,0,4,4H145.7Zm21.11-95.79h5.86l8.18,15.53h.26l8.18-15.53h5.6v30.52h-4.73V890.77H190l-2.41,4.94-6.69,12.21-6.69-12.21-2.41-4.94h-.21v23.35h-4.73Zm-25.16,0,4.86,15.09,2.93,10.62h.17l3-10.62,4.85-15.09h5l-10.14,30.52h-5.73l-10-30.52Zm-12.32-1.84h4.11l-12.11,39h-4.11Zm-32.1,28.52,12.2-15H97.62v-3.9h17.45v3.68l-12.38,15.17h12.68v3.89H97.23Z"/><polygon points="115.37 910.23 102.69 910.23 115.07 895.06 115.07 891.38 97.62 891.38 97.62 895.28 109.43 895.28 97.23 910.27 97.23 914.12 115.37 914.12 115.37 910.23"/><polygon points="133.44 881.76 129.33 881.76 117.22 920.73 121.33 920.73 133.44 881.76"/><polygon points="146.55 914.12 152.28 914.12 162.42 883.6 157.44 883.6 152.59 898.69 149.61 909.31 149.44 909.31 146.51 898.69 141.65 883.6 136.54 883.6 146.55 914.12"/><polygon points="171.53 890.77 171.75 890.77 174.16 895.72 180.85 907.92 187.54 895.72 189.95 890.77 190.16 890.77 190.16 914.12 194.89 914.12 194.89 883.6 189.29 883.6 181.11 899.13 180.85 899.13 172.67 883.6 166.81 883.6 166.81 914.12 171.53 914.12 171.53 890.77"/><path class="cls-6" d="M145.7,1144.09h96.67a3.89,3.89,0,0,0,3.89-3.89V998.7a3.89,3.89,0,0,0-3.89-3.88H51.93A3.89,3.89,0,0,0,48,998.7v141.5a3.89,3.89,0,0,0,3.89,3.89H145.7Zm28.72-87.65h13.16c5.47,0,8.84,3.54,8.84,9.19,0,4.33-2.06,7.34-5.95,8.48l6.6,12.86h-5.51l-6.12-12.34h-6.08V1087h-4.94Zm-21.09,0h6.21L170,1087h-5.16L162,1078.7H150.62L148,1087h-5Zm-32.59,0h13.12c5.59,0,8.87,3.63,8.87,9.19s-3.28,9.18-8.87,9.18h-8.18V1087h-4.94Zm-22,0h4.94v26.15h12.42V1087H98.76Z"/><path class="cls-6" d="M137.53,1066.68v-2.1c0-2.45-1.49-3.81-4-3.81h-7.87v9.71h7.87C136,1070.48,137.53,1069.13,137.53,1066.68Z"/><path class="cls-6" d="M191.21,1066.68v-2.1c0-2.45-1.48-3.81-4-3.81h-7.87v9.71h7.87C189.73,1070.48,191.21,1069.13,191.21,1066.68Z"/><polygon class="cls-6" points="156.43 1060.99 156.21 1060.99 151.8 1074.46 160.81 1074.46 156.43 1060.99"/><polygon points="116.12 1082.59 103.7 1082.59 103.7 1056.44 98.76 1056.44 98.76 1086.96 116.12 1086.96 116.12 1082.59"/><path d="M125.68,1074.81h8.18c5.59,0,8.87-3.63,8.87-9.18s-3.28-9.19-8.87-9.19H120.74V1087h4.94Zm0-14h7.87c2.49,0,4,1.36,4,3.81v2.1c0,2.45-1.49,3.8-4,3.8h-7.87Z"/><path d="M148,1087l2.67-8.27H162l2.76,8.27H170l-10.41-30.53h-6.21L142.92,1087Zm8.26-26h.22l4.38,13.47h-9Z"/><path d="M179.36,1074.63h6.08l6.12,12.34h5.51l-6.6-12.86c3.89-1.14,5.95-4.15,5.95-8.48,0-5.65-3.37-9.19-8.84-9.19H174.42V1087h4.94Zm0-13.86h7.87c2.5,0,4,1.36,4,3.81v2.1c0,2.45-1.48,3.8-4,3.8h-7.87Z"/><polygon class="cls-6" points="385.03 1061.23 380.62 1074.7 389.63 1074.7 385.25 1061.23 385.03 1061.23"/><path class="cls-6" d="M362.37,1061H354.5v9.71h7.87c2.49,0,4-1.35,4-3.8v-2.1C366.35,1062.37,364.86,1061,362.37,1061Z"/><path class="cls-6" d="M471.19,995.06H280.75a3.89,3.89,0,0,0-3.89,3.88v141.5a3.89,3.89,0,0,0,3.89,3.89H471.19a3.89,3.89,0,0,0,3.89-3.89V998.94A3.89,3.89,0,0,0,471.19,995.06Zm-126.25,92.15H327.58v-30.53h4.94v26.15h12.42Zm17.74-12.16H354.5v12.16h-4.94v-30.53h13.12c5.59,0,8.87,3.63,8.87,9.19S368.27,1075.05,362.68,1075.05Zm30.93,12.16-2.76-8.27H379.44l-2.67,8.27h-5l10.41-30.53h6.21l10.41,30.53Zm26.77,0-6.12-12.33h-6.08v12.33h-4.94v-30.53H416.4c5.47,0,8.84,3.55,8.84,9.19,0,4.33-2.06,7.34-5.95,8.48l6.6,12.86Z"/><path class="cls-6" d="M420,1064.82c0-2.45-1.48-3.81-4-3.81h-7.87v9.71h7.87c2.5,0,4-1.35,4-3.8Z"/><polygon points="332.52 1056.68 327.58 1056.68 327.58 1087.21 344.94 1087.21 344.94 1082.84 332.52 1082.84 332.52 1056.68"/><path d="M362.68,1056.68H349.56v30.53h4.94v-12.16h8.18c5.59,0,8.87-3.63,8.87-9.18S368.27,1056.68,362.68,1056.68Zm3.67,10.24c0,2.45-1.49,3.8-4,3.8H354.5V1061h7.87c2.49,0,4,1.36,4,3.81Z"/><path d="M382.15,1056.68l-10.41,30.53h5l2.67-8.27h11.41l2.76,8.27h5.16l-10.41-30.53Zm-1.53,18,4.41-13.47h.22l4.38,13.47Z"/><path d="M425.24,1065.87c0-5.64-3.37-9.19-8.84-9.19H403.24v30.53h4.94v-12.33h6.08l6.12,12.33h5.51l-6.6-12.86C423.18,1073.21,425.24,1070.2,425.24,1065.87Zm-9.19,4.85h-7.87V1061h7.87c2.5,0,4,1.36,4,3.81v2.1C420,1069.37,418.55,1070.72,416.05,1070.72Z"/><path class="cls-7" d="M472.28,222.85H282.71a4,4,0,0,0-4,4V976.81a4,4,0,0,0,4,4H472.28a4,4,0,0,0,4-4V226.86A4,4,0,0,0,472.28,222.85ZM419.64,475.16l7.91-5.11v-.13l-7.91-5.25v-5.08l11.19,7.79,11.55-7.92V465l-8.27,5.25v.13l8.27,5.47v5.07l-11.5-8-11.24,7.78Zm-100.74,0,7.92-5.11v-.13l-7.92-5.25v-5.08l11.2,7.79,11.54-7.92V465l-8.26,5.25v.13l8.26,5.47v5.07l-11.5-8-11.24,7.78Zm-9.79,61.09c0-2,1.05-2.8,2.49-2.8h.74c1.45,0,2.5.83,2.5,2.8s-1,2.84-2.5,2.84h-.74C310.16,539.09,309.11,538.22,309.11,536.25Zm32.53,24H311.12v-4.94h26.15V542.86h4.37Zm0-21.57H318.9v-4.76h22.74Zm0-24.79H327.82c-3.54,0-5.33,1.36-5.33,4.29,0,2.49,1.27,4.94,3.93,4.94h15.22v4.77H318.9v-4.77h3.76v-.22a6.33,6.33,0,0,1-4.28-6.38c0-4.64,3.23-7.39,8.83-7.39h14.43Zm-8.26-10.45H318.9v-4.77h13.87c3.45,0,5.29-1.44,5.29-4.37,0-2.45-1.27-4.86-3.94-4.86H318.9v-4.76h22.74v4.76h-3.76v.18a6.25,6.25,0,0,1,4.29,6.38C342.17,500.65,339,503.41,333.38,503.41Zm46.84,47.07V955.35a3.86,3.86,0,1,1-7.71,0V243a3.86,3.86,0,1,1,7.71,0Zm29.62-14.23c0-2,1.05-2.8,2.49-2.8h.75c1.44,0,2.49.83,2.49,2.8s-1.05,2.84-2.49,2.84h-.75C410.89,539.09,409.84,538.22,409.84,536.25Zm32.54,24H411.85v-4.94H438V542.86h4.38Zm0-21.57H419.64v-4.76h22.74Zm0-24.79H428.56c-3.54,0-5.34,1.36-5.34,4.29,0,2.49,1.27,4.94,3.94,4.94h15.22v4.77H419.64v-4.77h3.76v-.22a6.34,6.34,0,0,1-4.29-6.38c0-4.64,3.24-7.39,8.84-7.39h14.43Zm-8.27-10.45H419.64v-4.77H433.5c3.46,0,5.29-1.44,5.29-4.37,0-2.45-1.27-4.86-3.93-4.86H419.64v-4.76h22.74v4.76h-3.76v.18A6.24,6.24,0,0,1,442.9,496C442.9,500.65,439.71,503.41,434.11,503.41Z"/><path class="cls-8" d="M376.37,239.16a3.86,3.86,0,0,0-3.86,3.86V955.35a3.86,3.86,0,1,0,7.71,0V243A3.85,3.85,0,0,0,376.37,239.16Z"/><polygon points="337.27 555.28 311.12 555.28 311.12 560.22 341.64 560.22 341.64 542.86 337.27 542.86 337.27 555.28"/><rect x="318.9" y="533.89" width="22.74" height="4.77"/><path d="M312.34,539.09c1.45,0,2.5-.87,2.5-2.84s-1-2.8-2.5-2.8h-.74c-1.44,0-2.49.83-2.49,2.8s1.05,2.84,2.49,2.84Z"/><path d="M318.38,516.49a6.33,6.33,0,0,0,4.28,6.38v.22H318.9v4.77h22.74v-4.77H326.42c-2.66,0-3.93-2.45-3.93-4.94,0-2.93,1.79-4.29,5.33-4.29h13.82V509.1H327.21C321.61,509.1,318.38,511.85,318.38,516.49Z"/><path d="M337.88,489.59v-.18h3.76v-4.76H318.9v4.76h15.22c2.67,0,3.94,2.41,3.94,4.86,0,2.93-1.84,4.37-5.29,4.37H318.9v4.77h14.48c5.59,0,8.79-2.76,8.79-7.44A6.25,6.25,0,0,0,337.88,489.59Z"/><polygon points="341.64 480.89 341.64 475.82 333.38 470.35 333.38 470.22 341.64 464.97 341.64 459.46 330.1 467.38 318.9 459.6 318.9 464.67 326.82 469.92 326.82 470.05 318.9 475.16 318.9 480.67 330.14 472.89 341.64 480.89"/><polygon points="438 555.28 411.85 555.28 411.85 560.22 442.38 560.22 442.38 542.86 438 542.86 438 555.28"/><rect x="419.64" y="533.89" width="22.74" height="4.77"/><path d="M413.08,539.09c1.44,0,2.49-.87,2.49-2.84s-1.05-2.8-2.49-2.8h-.75c-1.44,0-2.49.83-2.49,2.8s1.05,2.84,2.49,2.84Z"/><path d="M419.11,516.49a6.34,6.34,0,0,0,4.29,6.38v.22h-3.76v4.77h22.74v-4.77H427.16c-2.67,0-3.94-2.45-3.94-4.94,0-2.93,1.8-4.29,5.34-4.29h13.82V509.1H428C422.35,509.1,419.11,511.85,419.11,516.49Z"/><path d="M438.62,489.59v-.18h3.76v-4.76H419.64v4.76h15.22c2.66,0,3.93,2.41,3.93,4.86,0,2.93-1.83,4.37-5.29,4.37H419.64v4.77h14.47c5.6,0,8.79-2.76,8.79-7.44A6.24,6.24,0,0,0,438.62,489.59Z"/><polygon points="442.38 480.89 442.38 475.82 434.11 470.35 434.11 470.22 442.38 464.97 442.38 459.46 430.83 467.38 419.64 459.6 419.64 464.67 427.55 469.92 427.55 470.05 419.64 475.16 419.64 480.67 430.88 472.89 442.38 480.89"/><path class="cls-5" d="M575.81,816.36H509a4.13,4.13,0,0,0-4.13,4.13v155a4.13,4.13,0,0,0,4.13,4.13H700.3a4.13,4.13,0,0,0,4.13-4.13v-155a4.13,4.13,0,0,0-4.13-4.13H575.81Zm4.67,98-9.27-14.26-4.2,4.81v9.45h-4.94V883.84H567v15.48h.18l4.37-5.55,8.22-9.93h5.77L574.67,896.7l11.76,17.67Zm8.43-30.53H594l4.86,15.09,2.93,10.63H602l3-10.63,4.85-15.09h5l-10.14,30.53h-5.73Zm58.35,30.53h-4.73V891h-.21l-2.41,5-6.69,12.2L626.53,896l-2.41-5h-.21v23.36h-4.73V883.84H625l8.18,15.53h.26l8.18-15.53h5.6Z"/><polygon points="574.66 896.7 585.55 883.84 579.78 883.84 571.56 893.77 567.19 899.32 567.01 899.32 567.01 883.84 562.07 883.84 562.07 914.37 567.01 914.37 567.01 904.92 571.21 900.11 580.48 914.37 586.43 914.37 574.66 896.7"/><polygon points="614.79 883.84 609.81 883.84 604.96 898.93 601.98 909.55 601.81 909.55 598.88 898.93 594.02 883.84 588.91 883.84 598.92 914.37 604.65 914.37 614.79 883.84"/><polygon points="633.48 899.37 633.22 899.37 625.04 883.84 619.18 883.84 619.18 914.37 623.9 914.37 623.9 891.01 624.12 891.01 626.53 895.96 633.22 908.16 639.91 895.96 642.32 891.01 642.53 891.01 642.53 914.37 647.26 914.37 647.26 883.84 641.66 883.84 633.48 899.37"/><path class="cls-6" d="M591.07,1061h-7.88v9.71h7.88c2.49,0,4-1.35,4-3.8v-2.1C595.05,1062.37,593.56,1061,591.07,1061Z"/><polygon class="cls-6" points="613.73 1061.23 609.31 1074.7 618.32 1074.7 613.95 1061.23 613.73 1061.23"/><path class="cls-6" d="M634.29,995.06H509.44a3.88,3.88,0,0,0-3.88,3.88v141.5a3.89,3.89,0,0,0,3.88,3.89H699.89a3.89,3.89,0,0,0,3.88-3.89V998.94a3.88,3.88,0,0,0-3.88-3.88h-65.6Zm-60.66,92.15H556.27v-30.53h4.94v26.15h12.42Zm17.74-12.16h-8.18v12.16h-4.94v-30.53h13.12c5.6,0,8.88,3.63,8.88,9.19S597,1075.05,591.37,1075.05Zm30.93,12.16-2.76-8.27H608.13l-2.67,8.27h-5l10.4-30.53h6.21l10.41,30.53Zm26.78,0L643,1074.88h-6.08v12.33h-4.94v-30.53H645.1c5.46,0,8.83,3.55,8.83,9.19,0,4.33-2,7.34-5.95,8.48l6.61,12.86Z"/><path class="cls-6" d="M648.73,1064.82c0-2.45-1.49-3.81-4-3.81h-7.87v9.71h7.87c2.49,0,4-1.35,4-3.8Z"/><polygon points="561.22 1056.68 556.27 1056.68 556.27 1087.21 573.63 1087.21 573.63 1082.84 561.22 1082.84 561.22 1056.68"/><path d="M591.37,1056.68H578.25v30.53h4.94v-12.16h8.18c5.6,0,8.88-3.63,8.88-9.18S597,1056.68,591.37,1056.68Zm3.68,10.24c0,2.45-1.49,3.8-4,3.8h-7.88V1061h7.88c2.49,0,4,1.36,4,3.81Z"/><path d="M610.84,1056.68l-10.4,30.53h5l2.67-8.27h11.41l2.76,8.27h5.16l-10.41-30.53Zm-1.53,18,4.42-13.47H614l4.37,13.47Z"/><path d="M653.93,1065.87c0-5.64-3.37-9.19-8.83-9.19H631.94v30.53h4.94v-12.33H643l6.12,12.33h5.51L648,1074.35C651.88,1073.21,653.93,1070.2,653.93,1065.87Zm-9.18,4.85h-7.87V1061h7.87c2.49,0,4,1.36,4,3.81v2.1C648.73,1069.37,647.24,1070.72,644.75,1070.72Z"/><path class="cls-7" d="M145.7,799.71h95.92a4,4,0,0,0,4-4V226.86a4,4,0,0,0-4-4H52.05a4,4,0,0,0-4,4V795.7a4,4,0,0,0,4,4H145.7ZM111.44,538.42H88.7v-4.77h22.74ZM213.15,560H182.63v-4.94h26.15V542.63h4.37Zm0-21.57H190.41v-4.77h22.74Zm-22.74-63.49,7.92-5.12v-.13l-7.92-5.25v-5.07l11.2,7.78,11.54-7.91v5.51L204.88,470v.13l8.27,5.47v5.07l-11.5-8-11.24,7.78Zm0,23.48h13.86c3.46,0,5.29-1.44,5.29-4.37,0-2.45-1.26-4.86-3.93-4.86H190.41v-4.77h22.74v4.77h-3.76v.18a6.25,6.25,0,0,1,4.29,6.38c0,4.68-3.2,7.43-8.8,7.43H190.41Zm8.31,10.45h14.43v4.77H199.33c-3.54,0-5.33,1.35-5.33,4.28,0,2.5,1.26,5,3.93,5h15.22v4.76H190.41v-4.76h3.76v-.22a6.35,6.35,0,0,1-4.28-6.39C189.89,511.62,193.12,508.86,198.72,508.86Zm-15.61,24.36h.74c1.44,0,2.49.83,2.49,2.79s-1.05,2.85-2.49,2.85h-.74c-1.45,0-2.5-.88-2.5-2.85S181.66,533.22,183.11,533.22Zm-39.6,25.06V238.77a3.86,3.86,0,1,1,7.72,0V783.31a3.86,3.86,0,1,1-7.72,0ZM88.7,474.93l7.91-5.12v-.13l-7.91-5.25v-5.07l11.19,7.78,11.55-7.91v5.51L103.17,470v.13l8.27,5.47v5.07l-11.5-8L88.7,480.44Zm0,23.48h13.86c3.46,0,5.29-1.44,5.29-4.37,0-2.45-1.27-4.86-3.93-4.86H88.7v-4.77h22.74v4.77h-3.76v.18a6.24,6.24,0,0,1,4.28,6.38c0,4.68-3.19,7.43-8.79,7.43H88.7ZM97,508.86h14.43v4.77H97.62c-3.54,0-5.34,1.35-5.34,4.28,0,2.5,1.27,5,3.94,5h15.22v4.76H88.7v-4.76h3.76v-.22a6.36,6.36,0,0,1-4.29-6.39C88.17,511.62,91.41,508.86,97,508.86ZM78.9,536c0-2,1-2.79,2.49-2.79h.75c1.44,0,2.49.83,2.49,2.79s-1,2.85-2.49,2.85h-.75C80,538.86,78.9,538,78.9,536Zm2,24v-4.94h26.15V542.63h4.38V560Z"/><path class="cls-8" d="M147.37,787.17a3.86,3.86,0,0,0,3.86-3.86V238.77a3.86,3.86,0,1,0-7.72,0V783.31A3.86,3.86,0,0,0,147.37,787.17Z"/><polygon points="111.44 559.99 111.44 542.63 107.06 542.63 107.06 555.05 80.91 555.05 80.91 559.99 111.44 559.99"/><path d="M82.14,538.86c1.44,0,2.49-.88,2.49-2.85s-1-2.79-2.49-2.79h-.75c-1.44,0-2.49.83-2.49,2.79s1,2.85,2.49,2.85Z"/><rect x="88.7" y="533.65" width="22.74" height="4.77"/><path d="M92.46,522.64v.22H88.7v4.76h22.74v-4.76H96.22c-2.67,0-3.94-2.45-3.94-5,0-2.93,1.8-4.28,5.34-4.28h13.82v-4.77H97c-5.6,0-8.84,2.76-8.84,7.39A6.36,6.36,0,0,0,92.46,522.64Z"/><path d="M103.17,503.17c5.6,0,8.79-2.75,8.79-7.43a6.24,6.24,0,0,0-4.28-6.38v-.18h3.76v-4.77H88.7v4.77h15.22c2.66,0,3.93,2.41,3.93,4.86,0,2.93-1.83,4.37-5.29,4.37H88.7v4.76Z"/><polygon points="99.94 472.65 111.44 480.66 111.44 475.58 103.17 470.12 103.17 469.99 111.44 464.74 111.44 459.23 99.89 467.14 88.7 459.36 88.7 464.43 96.61 469.68 96.61 469.81 88.7 474.93 88.7 480.44 99.94 472.65"/><polygon points="208.78 555.05 182.63 555.05 182.63 559.99 213.15 559.99 213.15 542.63 208.78 542.63 208.78 555.05"/><path d="M183.11,538.86h.74c1.44,0,2.49-.88,2.49-2.85s-1.05-2.79-2.49-2.79h-.74c-1.45,0-2.5.83-2.5,2.79S181.66,538.86,183.11,538.86Z"/><rect x="190.41" y="533.65" width="22.74" height="4.77"/><path d="M194.17,522.64v.22h-3.76v4.76h22.74v-4.76H197.93c-2.67,0-3.93-2.45-3.93-5,0-2.93,1.79-4.28,5.33-4.28h13.82v-4.77H198.72c-5.6,0-8.83,2.76-8.83,7.39A6.35,6.35,0,0,0,194.17,522.64Z"/><path d="M213.68,495.74a6.25,6.25,0,0,0-4.29-6.38v-.18h3.76v-4.77H190.41v4.77h15.22c2.67,0,3.93,2.41,3.93,4.86,0,2.93-1.83,4.37-5.29,4.37H190.41v4.76h14.47C210.48,503.17,213.68,500.42,213.68,495.74Z"/><polygon points="213.15 480.66 213.15 475.58 204.88 470.12 204.88 469.99 213.15 464.74 213.15 459.23 201.6 467.14 190.41 459.36 190.41 464.43 198.33 469.68 198.33 469.81 190.41 474.93 190.41 480.44 201.65 472.65 213.15 480.66"/><path class="cls-9" d="M575.81,1423.08H52.53a4,4,0,0,0-4.05,4v141.25a4,4,0,0,0,4.05,4.05H702.3a4.05,4.05,0,0,0,4.05-4.05V1427.12a4.05,4.05,0,0,0-4.05-4H575.81Zm-348.93,87.75a13.44,13.44,0,0,1-11.15-5.16l3.41-3.19a9.81,9.81,0,0,0,8,4c3.89,0,5.9-1.93,5.9-4.86,0-2.36-1.22-3.72-4.76-4.41l-2.71-.48c-5.91-1.1-8.92-3.85-8.92-8.71,0-5.42,4.19-8.74,10.67-8.74,4.59,0,8,1.66,10.32,4.67l-3.46,3.07a8.34,8.34,0,0,0-7.13-3.37c-3.49,0-5.51,1.44-5.51,4.11s1.58,3.63,4.86,4.29l2.71.56c6.08,1.18,8.83,3.9,8.83,8.75C237.94,1507,233.88,1510.83,226.88,1510.83Zm34.55-.53h-4.76v-3.76h-.18a6.25,6.25,0,0,1-6.38,4.29c-4.68,0-7.44-3.19-7.44-8.79v-14.48h4.77v13.87c0,3.45,1.44,5.29,4.37,5.29,2.45,0,4.86-1.27,4.86-3.94v-15.22h4.76Zm17.45.53a6.48,6.48,0,0,1-6.38-4.29h-.22v12.51h-4.77v-31.49h4.77v3.76h.22a6.43,6.43,0,0,1,6.38-4.28c5.73,0,9.05,4.42,9.05,11.89S284.61,1510.83,278.88,1510.83Zm25.4,0a6.48,6.48,0,0,1-6.38-4.29h-.22v12.51h-4.77v-31.49h4.77v3.76h.22a6.43,6.43,0,0,1,6.38-4.28c5.73,0,9.05,4.42,9.05,11.89S310,1510.83,304.28,1510.83Zm23.19,0c-6.34,0-10.45-4.64-10.45-11.9s4.11-11.89,10.45-11.89,10.45,4.64,10.45,11.89S333.81,1510.83,327.47,1510.83Zm27.79-18.67h-1.89c-3.75,0-5.85,1.26-5.85,3.63v14.51h-4.77v-22.74h4.77v4.38h.21c.66-2.32,2.63-4.38,6.26-4.38h1.27Zm15.68-.7h-4.76v15h4.41v3.89h-4.15c-3.28,0-5-1.83-5-4.94v-13.9h-3.54v-3.9h1.92c1.58,0,2.1-.65,2.1-2.23v-4h4.29v6.21h4.76Zm35.38-7.31h-14.6v8.49H405V1497H391.72v8.92h14.6v4.37H386.78v-30.52h19.54Zm12.87,26.15h-3.06c-3.24,0-4.86-1.79-4.86-4.72v-27.64H416v28.47h3.15ZM442,1500.16H426.37v.74c0,3.5,2.14,6,6,6a6.66,6.66,0,0,0,6-3.41l2.8,2.76c-1.7,2.75-5,4.59-9.27,4.59-6.47,0-10.45-4.64-10.45-11.9s4-11.89,10.45-11.89c6.69,0,10.1,5,10.1,11.33Zm36.73,10.14h-4.77v-13.86c0-3.5-1.31-5.29-4.2-5.29-2.4,0-4.63,1.27-4.63,3.89v15.26h-4.77v-13.86c0-3.54-1.35-5.29-4.15-5.29-2.36,0-4.68,1.27-4.68,3.89v15.26h-4.77v-22.74h4.77v3.76h.22a6,6,0,0,1,6.07-4.28,6.7,6.7,0,0,1,6.74,4.64h.13a6.85,6.85,0,0,1,6.87-4.64c4.5,0,7.17,3.24,7.17,8.83ZM504,1500.16H488.35v.74c0,3.5,2.15,6,6,6a6.68,6.68,0,0,0,6-3.41l2.79,2.76c-1.7,2.75-5,4.59-9.27,4.59-6.47,0-10.45-4.64-10.45-11.9s4-11.89,10.45-11.89c6.69,0,10.1,5,10.1,11.33Zm23.52,10.14h-4.76v-13.81c0-3.55-1.36-5.34-4.29-5.34-2.49,0-4.94,1.27-4.94,3.94v15.21h-4.77v-22.74h4.77v3.76h.22a6.35,6.35,0,0,1,6.38-4.28c4.64,0,7.39,3.24,7.39,8.83Zm16.59-18.84H539.3v15h4.42v3.89h-4.16c-3.28,0-5-1.83-5-4.94v-13.9H531v-3.9h1.93c1.57,0,2.1-.65,2.1-2.23v-4h4.28v6.21h4.77Z"/><path class="cls-9" d="M302.84,1491.15c-2.89,0-5.16,1.57-5.16,3.89v7.79c0,2.31,2.27,3.89,5.16,3.89,3.28,0,5.46-2.32,5.46-5.82V1497C308.3,1493.47,306.12,1491.15,302.84,1491.15Z"/><path class="cls-9" d="M493.86,1490.76c-3.28,0-5.51,2.45-5.51,6v.3h10.59v-.44C498.94,1493.07,497,1490.76,493.86,1490.76Z"/><path class="cls-9" d="M277.44,1491.15c-2.89,0-5.16,1.57-5.16,3.89v7.79c0,2.31,2.27,3.89,5.16,3.89,3.28,0,5.46-2.32,5.46-5.82V1497C282.9,1493.47,280.72,1491.15,277.44,1491.15Z"/><path class="cls-9" d="M327.47,1491c-3.24,0-5.42,2-5.42,6v3.85c0,4,2.18,6,5.42,6s5.42-2,5.42-6V1497C332.89,1493,330.7,1491,327.47,1491Z"/><path class="cls-9" d="M431.88,1490.76c-3.28,0-5.51,2.45-5.51,6v.3H437v-.44C437,1493.07,435,1490.76,431.88,1490.76Z"/><path d="M229.11,1492.59l-2.71-.56c-3.28-.66-4.86-1.75-4.86-4.29s2-4.11,5.51-4.11a8.34,8.34,0,0,1,7.13,3.37l3.46-3.07c-2.37-3-5.73-4.67-10.32-4.67-6.48,0-10.67,3.32-10.67,8.74,0,4.86,3,7.61,8.92,8.71l2.71.48c3.54.69,4.76,2,4.76,4.41,0,2.93-2,4.86-5.9,4.86a9.81,9.81,0,0,1-8-4l-3.41,3.19a13.44,13.44,0,0,0,11.15,5.16c7,0,11.06-3.8,11.06-9.49C237.94,1496.49,235.19,1493.77,229.11,1492.59Z"/><path d="M256.67,1502.78c0,2.67-2.41,3.94-4.86,3.94-2.93,0-4.37-1.84-4.37-5.29v-13.87h-4.77V1502c0,5.6,2.76,8.79,7.44,8.79a6.25,6.25,0,0,0,6.38-4.29h.18v3.76h4.76v-22.74h-4.76Z"/><path d="M278.88,1487a6.43,6.43,0,0,0-6.38,4.28h-.22v-3.76h-4.77v31.49h4.77v-12.51h.22a6.48,6.48,0,0,0,6.38,4.29c5.73,0,9.05-4.42,9.05-11.9S284.61,1487,278.88,1487Zm4,13.86c0,3.5-2.18,5.82-5.46,5.82-2.89,0-5.16-1.58-5.16-3.89V1495c0-2.32,2.27-3.89,5.16-3.89,3.28,0,5.46,2.32,5.46,5.82Z"/><path d="M304.28,1487a6.43,6.43,0,0,0-6.38,4.28h-.22v-3.76h-4.77v31.49h4.77v-12.51h.22a6.48,6.48,0,0,0,6.38,4.29c5.73,0,9.05-4.42,9.05-11.9S310,1487,304.28,1487Zm4,13.86c0,3.5-2.18,5.82-5.46,5.82-2.89,0-5.16-1.58-5.16-3.89V1495c0-2.32,2.27-3.89,5.16-3.89,3.28,0,5.46,2.32,5.46,5.82Z"/><path d="M327.47,1487c-6.34,0-10.45,4.64-10.45,11.89s4.11,11.9,10.45,11.9,10.45-4.64,10.45-11.9S333.81,1487,327.47,1487Zm5.42,13.82c0,4-2.19,6-5.42,6s-5.42-2-5.42-6V1497c0-4,2.18-6,5.42-6s5.42,2,5.42,6Z"/><path d="M347.73,1491.94h-.21v-4.38h-4.77v22.74h4.77v-14.51c0-2.37,2.1-3.63,5.85-3.63h1.89v-4.6H354C350.36,1487.56,348.39,1489.62,347.73,1491.94Z"/><path d="M366.18,1481.35h-4.29v4c0,1.58-.52,2.23-2.1,2.23h-1.92v3.9h3.54v13.9c0,3.11,1.75,4.94,5,4.94h4.15v-3.89h-4.41v-15h4.76v-3.9h-4.76Z"/><polygon points="386.77 1510.31 406.32 1510.31 406.32 1505.93 391.72 1505.93 391.72 1497.01 404.97 1497.01 404.97 1492.64 391.72 1492.64 391.72 1484.15 406.32 1484.15 406.32 1479.78 386.77 1479.78 386.77 1510.31"/><path d="M416,1477.94h-4.77v27.64c0,2.93,1.62,4.72,4.86,4.72h3.06v-3.89H416Z"/><path d="M431.88,1487c-6.47,0-10.45,4.64-10.45,11.89s4,11.9,10.45,11.9c4.24,0,7.57-1.84,9.27-4.59l-2.8-2.76a6.66,6.66,0,0,1-6,3.41c-3.85,0-6-2.49-6-6v-.74H442v-1.79C442,1492.07,438.57,1487,431.88,1487Zm5.07,10H426.37v-.3c0-3.5,2.23-6,5.51-6s5.07,2.31,5.07,5.81Z"/><path d="M471.54,1487a6.85,6.85,0,0,0-6.87,4.64h-.13a6.7,6.7,0,0,0-6.74-4.64,6,6,0,0,0-6.07,4.28h-.22v-3.76h-4.77v22.74h4.77V1495c0-2.62,2.32-3.89,4.68-3.89,2.8,0,4.15,1.75,4.15,5.29v13.86h4.77V1495c0-2.62,2.23-3.89,4.63-3.89,2.89,0,4.2,1.79,4.2,5.29v13.86h4.77v-14.43C478.71,1490.28,476,1487,471.54,1487Z"/><path d="M493.86,1487c-6.47,0-10.45,4.64-10.45,11.89s4,11.9,10.45,11.9c4.24,0,7.57-1.84,9.27-4.59l-2.79-2.76a6.68,6.68,0,0,1-6,3.41c-3.84,0-6-2.49-6-6v-.74H504v-1.79C504,1492.07,500.55,1487,493.86,1487Zm5.08,10H488.35v-.3c0-3.5,2.23-6,5.51-6s5.08,2.31,5.08,5.81Z"/><path d="M520.09,1487a6.35,6.35,0,0,0-6.38,4.28h-.22v-3.76h-4.77v22.74h4.77v-15.21c0-2.67,2.45-3.94,4.94-3.94,2.93,0,4.29,1.79,4.29,5.34v13.81h4.76v-14.43C527.48,1490.28,524.73,1487,520.09,1487Z"/><path d="M539.3,1481.35H535v4c0,1.58-.53,2.23-2.1,2.23H531v3.9h3.55v13.9c0,3.11,1.74,4.94,5,4.94h4.16v-3.89H539.3v-15h4.77v-3.9H539.3Z"/><path class="cls-7" d="M575.81,222.85h-65a4,4,0,0,0-4,4V795.7a4,4,0,0,0,4,4H700.42a4,4,0,0,0,4-4V226.86a4,4,0,0,0-4-4H575.81Zm22.74,252.31,7.92-5.12v-.13l-7.92-5.25v-5.07l11.2,7.78,11.54-7.91V465L613,470.22v.13l8.26,5.46v5.08l-11.5-8-11.24,7.79Zm-67,0,7.91-5.12v-.13l-7.91-5.25v-5.07l11.19,7.78,11.55-7.91V465L546,470.22v.13l8.27,5.46v5.08l-11.5-8-11.24,7.79Zm-9.8,61.08c0-2,1-2.8,2.5-2.8H525c1.44,0,2.49.83,2.49,2.8s-1.05,2.85-2.49,2.85h-.74C522.76,539.09,521.71,538.21,521.71,536.24Zm32.54,24H523.72v-5h26.15V542.85h4.38Zm0-21.57H531.51v-4.77h22.74Zm0-24.79H540.43c-3.54,0-5.34,1.35-5.34,4.28,0,2.49,1.27,4.94,3.94,4.94h15.22v4.77H531.51v-4.77h3.76v-.22a6.33,6.33,0,0,1-4.29-6.38c0-4.63,3.24-7.39,8.84-7.39h14.43ZM546,503.4H531.51v-4.76h13.86c3.46,0,5.29-1.45,5.29-4.38,0-2.44-1.27-4.85-3.93-4.85H531.51v-4.77h22.74v4.77h-3.76v.17a6.25,6.25,0,0,1,4.28,6.39C554.77,500.65,551.58,503.4,546,503.4Zm32.72,44.91V783.55a3.86,3.86,0,1,1-7.71,0V239a3.86,3.86,0,1,1,7.71,0Zm10.06-12.07c0-2,1-2.8,2.49-2.8H592c1.44,0,2.49.83,2.49,2.8s-1.05,2.85-2.49,2.85h-.74C589.81,539.09,588.76,538.21,588.76,536.24Zm32.53,24H590.77v-5h26.15V542.85h4.37Zm0-21.57H598.55v-4.77h22.74Zm0-24.79H607.47c-3.54,0-5.33,1.35-5.33,4.28,0,2.49,1.27,4.94,3.93,4.94h15.22v4.77H598.55v-4.77h3.76v-.22a6.33,6.33,0,0,1-4.28-6.38c0-4.63,3.23-7.39,8.83-7.39h14.43ZM613,503.4H598.55v-4.76h13.86c3.46,0,5.29-1.45,5.29-4.38,0-2.44-1.26-4.85-3.93-4.85H598.55v-4.77h22.74v4.77h-3.76v.17a6.26,6.26,0,0,1,4.29,6.39C621.82,500.65,618.62,503.4,613,503.4Zm32.72,44.91V783.55a3.86,3.86,0,1,1-7.72,0V239a3.86,3.86,0,1,1,7.72,0Zm42.58,11.91H657.81v-5H684V542.85h4.37Zm0-21.57H665.59v-4.77h22.74Zm-22.74-63.49,7.92-5.12v-.13l-7.92-5.25v-5.07l11.2,7.78,11.54-7.91V465l-8.26,5.25v.13l8.26,5.46v5.08l-11.5-8-11.24,7.79Zm0,23.48h13.87c3.45,0,5.29-1.45,5.29-4.38,0-2.44-1.27-4.85-3.94-4.85H665.59v-4.77h22.74v4.77h-3.76v.17a6.26,6.26,0,0,1,4.29,6.39c0,4.68-3.19,7.43-8.79,7.43H665.59Zm8.31,10.45h14.43v4.77H674.52c-3.55,0-5.34,1.35-5.34,4.28,0,2.49,1.27,4.94,3.94,4.94h15.21v4.77H665.59v-4.77h3.76v-.22a6.34,6.34,0,0,1-4.28-6.38C665.07,511.85,668.31,509.09,673.9,509.09ZM659,533.44c1.45,0,2.5.83,2.5,2.8s-1,2.85-2.5,2.85h-.74c-1.44,0-2.49-.88-2.49-2.85s1.05-2.8,2.49-2.8Z"/><path class="cls-8" d="M574.85,235.15A3.86,3.86,0,0,0,571,239V783.55a3.86,3.86,0,1,0,7.71,0V239A3.85,3.85,0,0,0,574.85,235.15Z"/><polygon points="549.88 555.27 523.72 555.27 523.72 560.22 554.25 560.22 554.25 542.86 549.88 542.86 549.88 555.27"/><path d="M525,539.09c1.44,0,2.49-.88,2.49-2.85s-1.05-2.8-2.49-2.8h-.74c-1.45,0-2.5.83-2.5,2.8s1,2.85,2.5,2.85Z"/><rect x="531.51" y="533.88" width="22.74" height="4.77"/><path d="M531,516.48a6.33,6.33,0,0,0,4.29,6.38v.22h-3.76v4.77h22.74v-4.77H539c-2.67,0-3.94-2.45-3.94-4.94,0-2.93,1.8-4.28,5.34-4.28h13.82v-4.77H539.82C534.22,509.09,531,511.85,531,516.48Z"/><path d="M550.49,489.58v-.17h3.76v-4.77H531.51v4.77h15.22c2.66,0,3.93,2.41,3.93,4.85,0,2.93-1.83,4.38-5.29,4.38H531.51v4.76H546c5.6,0,8.79-2.75,8.79-7.43A6.25,6.25,0,0,0,550.49,489.58Z"/><polygon points="554.25 480.89 554.25 475.81 545.98 470.35 545.98 470.22 554.25 464.97 554.25 459.46 542.7 467.37 531.51 459.59 531.51 464.66 539.42 469.91 539.42 470.04 531.51 475.16 531.51 480.67 542.75 472.88 554.25 480.89"/><polygon points="683.96 555.27 657.81 555.27 657.81 560.22 688.33 560.22 688.33 542.86 683.96 542.86 683.96 555.27"/><rect x="665.59" y="533.88" width="22.74" height="4.77"/><path d="M655.8,536.24c0,2,1.05,2.85,2.49,2.85H659c1.45,0,2.5-.88,2.5-2.85s-1-2.8-2.5-2.8h-.74C656.85,533.44,655.8,534.27,655.8,536.24Z"/><path d="M669.35,522.86v.22h-3.76v4.77h22.74v-4.77H673.12c-2.67,0-3.94-2.45-3.94-4.94,0-2.93,1.79-4.28,5.34-4.28h13.81v-4.77H673.9c-5.59,0-8.83,2.76-8.83,7.39A6.34,6.34,0,0,0,669.35,522.86Z"/><path d="M680.07,503.4c5.6,0,8.79-2.75,8.79-7.43a6.26,6.26,0,0,0-4.29-6.39v-.17h3.76v-4.77H665.59v4.77h15.22c2.67,0,3.94,2.41,3.94,4.85,0,2.93-1.84,4.38-5.29,4.38H665.59v4.76Z"/><polygon points="676.83 472.88 688.33 480.89 688.33 475.81 680.07 470.35 680.07 470.22 688.33 464.97 688.33 459.46 676.79 467.37 665.6 459.59 665.6 464.66 673.51 469.91 673.51 470.04 665.6 475.16 665.6 480.67 676.83 472.88"/><polygon points="616.92 555.27 590.77 555.27 590.77 560.22 621.29 560.22 621.29 542.86 616.92 542.86 616.92 555.27"/><path d="M592,539.09c1.44,0,2.49-.88,2.49-2.85s-1.05-2.8-2.49-2.8h-.74c-1.44,0-2.49.83-2.49,2.8s1,2.85,2.49,2.85Z"/><rect x="598.55" y="533.88" width="22.74" height="4.77"/><path d="M598,516.48a6.33,6.33,0,0,0,4.28,6.38v.22h-3.76v4.77h22.74v-4.77H606.07c-2.66,0-3.93-2.45-3.93-4.94,0-2.93,1.79-4.28,5.33-4.28h13.82v-4.77H606.86C601.26,509.09,598,511.85,598,516.48Z"/><path d="M617.53,489.58v-.17h3.76v-4.77H598.55v4.77h15.22c2.67,0,3.93,2.41,3.93,4.85,0,2.93-1.83,4.38-5.29,4.38H598.55v4.76H613c5.59,0,8.79-2.75,8.79-7.43A6.26,6.26,0,0,0,617.53,489.58Z"/><polygon points="621.29 480.89 621.29 475.81 613.03 470.35 613.03 470.22 621.29 464.97 621.29 459.46 609.75 467.37 598.55 459.59 598.55 464.66 606.47 469.91 606.47 470.04 598.55 475.16 598.55 480.67 609.79 472.88 621.29 480.89"/><path class="cls-8" d="M641.89,235.15A3.86,3.86,0,0,0,638,239V783.55a3.86,3.86,0,1,0,7.72,0V239A3.86,3.86,0,0,0,641.89,235.15Z"/></svg>