<svg id="Layer_1" data-name="Layer 1" xmlns="http://www.w3.org/2000/svg" viewBox="0 0 133.99 136.96"><defs><style>.cls-1,.cls-2{fill:#fff;}.cls-1{opacity:0.2;isolation:isolate;}</style></defs><title>bp-ansible-2</title><path id="_2" data-name=" 2" class="cls-1" d="M85.48,112.52V128H2V110.72l40.5-36.9c12.24-11,20.34-22.5,20.34-34.38V37.28c0-13-7.92-21.42-22-21.42-14.76,0-21.6,8.82-24.84,20.34L.52,30.26C5.56,15,17.26.2,41.92.2c25,0,39.6,15.3,39.6,36.72,0,20-12.42,33.48-29,47.88L21.4,112.52Z" transform="translate(-0.52 -0.2)"/><g id="download"><path class="cls-2" d="M133.51,137.16H71.19a1,1,0,0,1-1-1V119.54h2v15.62h60.32V119.54h2v16.62A1,1,0,0,1,133.51,137.16Z" transform="translate(-0.52 -0.2)"/><polygon class="cls-2" points="101.82 120.76 88.65 107.59 90.07 106.17 100.82 116.93 100.82 73.64 102.82 73.64 102.82 116.93 113.58 106.17 114.99 107.59 101.82 120.76"/></g></svg>