<?xml version="1.0" encoding="utf-8"?>
<!-- Generator: Adobe Illustrator 24.1.0, SVG Export Plug-In . SVG Version: 6.00 Build 0)  -->
<svg version="1.1" id="Layer_1" focusable="false" xmlns="http://www.w3.org/2000/svg" xmlns:xlink="http://www.w3.org/1999/xlink"
	 x="0px" y="0px" width="32px" height="32px" viewBox="0 0 32 32" style="enable-background:new 0 0 32 32;" xml:space="preserve">
<path d="M19,31.6h-6c-0.2,0-0.4-0.2-0.4-0.3l0,0l0,0v-3.7l-2.4-1l-2.6,2.6c-0.2,0.1-0.4,0.1-0.5,0l-4.2-4.3c-0.1-0.1-0.1-0.4,0-0.5
	l0,0l2.6-2.6l-1-2.4H0.8c-0.2,0-0.4-0.2-0.4-0.4v-6c0-0.2,0.2-0.4,0.4-0.4h3.7l1-2.4L2.9,7.6c-0.1-0.1-0.1-0.4,0-0.5l4.2-4.2
	c0.1-0.1,0.4-0.1,0.5,0l0,0l0,0l2.6,2.6l2.4-1V0.7c0-0.2,0.2-0.4,0.3-0.4l0,0h6c0.2,0,0.4,0.2,0.4,0.3l0,0v3.7l2.4,1l2.6-2.6
	c0.1-0.1,0.4-0.1,0.5,0l0,0l0,0l4.2,4.2c0.1,0.1,0.1,0.4,0,0.5l-2.6,2.6l1,2.4h3.7c0.2,0,0.4,0.2,0.4,0.4v6c0,0.2-0.2,0.4-0.4,0.4
	h-3.7l-1,2.4l2.6,2.6c0.1,0.1,0.1,0.4,0,0.5l0,0l0,0l-4.3,4.2c-0.2,0.1-0.4,0.1-0.5,0l-2.6-2.6l-2.4,1v3.7
	C19.4,31.4,19.3,31.6,19,31.6C19.1,31.6,19.1,31.6,19,31.6L19,31.6z M13.4,30.9h5.3v-3.6c0-0.2,0.1-0.3,0.2-0.3l2.9-1.2
	c0.1-0.1,0.3,0,0.4,0.1l2.5,2.5l3.7-3.7l-2.5-2.5c-0.1-0.1-0.1-0.3-0.1-0.4l1.2-2.9c0.1-0.1,0.2-0.2,0.3-0.2H31v-5.3h-3.6
	c-0.2,0-0.3-0.1-0.3-0.2l-1.2-2.9c-0.1-0.1,0-0.3,0.1-0.4l2.5-2.5l-3.8-3.7l-2.5,2.5c-0.1,0.1-0.3,0.1-0.4,0.1L18.9,5
	c-0.2,0-0.3-0.2-0.3-0.3V1.1h-5.3v3.6c0,0.2-0.1,0.3-0.2,0.3l-2.9,1.2c-0.1,0.1-0.3,0-0.4-0.1L7.4,3.6L3.6,7.3l2.5,2.5
	c0.1,0.1,0.1,0.3,0.1,0.4l-1.2,2.8c-0.1,0.1-0.2,0.2-0.3,0.2H1.1v5.3h3.6c0.2,0,0.3,0.1,0.3,0.2l1.2,2.9c0.1,0.1,0,0.3-0.1,0.4
	l-2.5,2.5l3.7,3.7l2.5-2.5c0.1-0.1,0.3-0.1,0.4-0.1l2.9,1.2c0.1,0.1,0.2,0.2,0.2,0.3V30.9z M16,23.5c-4.1,0-7.5-3.3-7.5-7.5
	s3.3-7.5,7.5-7.5s7.5,3.3,7.5,7.5S20.2,23.5,16,23.5z M16,9.2c-3.7,0-6.8,3-6.8,6.7c0,3.7,3,6.8,6.7,6.8c3.7,0,6.8-3,6.8-6.7l0,0
	C22.8,12.3,19.7,9.3,16,9.2L16,9.2z"/>
</svg>
