<svg id="Layer_1" data-name="Layer 1" xmlns="http://www.w3.org/2000/svg" viewBox="0 0 140.25 137.2"><defs><style>.cls-1,.cls-2{fill:#fff;}.cls-1{opacity:0.2;isolation:isolate;}</style></defs><title>bp-ansible-3</title><path id="_3" data-name=" 3" class="cls-1" d="M27.84,54.92H41.16c16.2,0,24.3-8.28,24.3-19.44V34.22c0-12.42-8.64-18.9-21.42-18.9-12.42,0-20.52,5.94-25.92,15.48L5.88,20.9C12.9,10.28,24.06.2,44.4.2c22.5,0,39.42,11.7,39.42,32,0,16.2-10.8,25.92-24.12,29.16v.72c13.86,2.7,26.46,12.78,26.46,31.32,0,21.78-17.46,36.72-43.56,36.72-22.5,0-34-10.8-41.94-22L13.8,98.3c6.12,9.9,13.68,16.7,28.62,16.7C59,115,68,107.12,68,93.26V91.64c0-13.86-9-21.78-25.56-21.78H27.84Z" transform="translate(-0.66 -0.2)"/><g id="gear"><path class="cls-2" d="M114.17,137.4H101.41a.76.76,0,0,1-.77-.77h0v-7.83l-5.11-2.14L90,132.2a.8.8,0,0,1-1.1,0l-9-9a.76.76,0,0,1,0-1.07l0,0,5.54-5.54-2.1-5.12H75.45a.78.78,0,0,1-.78-.78V97.9a.78.78,0,0,1,.78-.78h7.83L85.41,92l-5.55-5.56a.78.78,0,0,1,0-1.1l9-9a.77.77,0,0,1,1.09,0h0l5.53,5.54,5.13-2.1V71.93a.76.76,0,0,1,.75-.77h12.78a.76.76,0,0,1,.77.75v7.85L120,81.9l5.55-5.55a.77.77,0,0,1,1.09,0h0l9,9a.78.78,0,0,1,0,1.1L130.18,92l2.1,5.12h7.85a.78.78,0,0,1,.78.78v12.75a.78.78,0,0,1-.78.78H132.3l-2.14,5.1,5.56,5.56a.77.77,0,0,1,0,1.09h0l-9,9a.8.8,0,0,1-1.1,0l-5.54-5.54-5.12,2.1v7.86a.77.77,0,0,1-.74.8Zm-12-1.56h11.2v-7.6a.77.77,0,0,1,.48-.71L120,125a.79.79,0,0,1,.85.17l5.35,5.36,7.92-7.93-5.37-5.37a.79.79,0,0,1-.17-.85l2.54-6.06a.77.77,0,0,1,.71-.48h7.57V98.67h-7.59a.77.77,0,0,1-.72-.48l-2.49-6.08a.75.75,0,0,1,.17-.84l5.35-5.36-8-7.91-5.37,5.38a.77.77,0,0,1-.85.16L113.87,81a.78.78,0,0,1-.48-.72V72.71h-11.2v7.6a.77.77,0,0,1-.48.71l-6.08,2.5a.79.79,0,0,1-.85-.17L89.43,78l-7.92,7.92,5.37,5.38a.79.79,0,0,1,.17.85l-2.54,6a.78.78,0,0,1-.72.47H76.22v11.2h7.6a.78.78,0,0,1,.72.49L87,116.44a.77.77,0,0,1-.17.84l-5.35,5.35,7.92,7.93,5.37-5.38a.79.79,0,0,1,.85-.16l6.06,2.53a.78.78,0,0,1,.48.72Zm5.6-15.69a15.87,15.87,0,1,1,15.87-15.88,15.88,15.88,0,0,1-15.87,15.88Zm0-30.19a14.32,14.32,0,1,0,14.31,14.33v0A14.32,14.32,0,0,0,107.79,90Z" transform="translate(-0.66 -0.2)"/></g></svg>