<?xml version="1.0" encoding="utf-8"?>
<!-- Generator: Adobe Illustrator 24.1.0, SVG Export Plug-In . SVG Version: 6.00 Build 0)  -->
<svg version="1.1" id="Layer_1" xmlns="http://www.w3.org/2000/svg" xmlns:xlink="http://www.w3.org/1999/xlink" x="0px" y="0px"
	 width="32px" height="32px" viewBox="0 0 32 32" style="enable-background:new 0 0 32 32;" xml:space="preserve">
<style type="text/css">
	.st0{fill:#231F20;}
</style>
<path class="st0" d="M6.5,13.4V15c0,0.2,0.2,0.4,0.4,0.4h2.3c0.2,0,0.4-0.2,0.4-0.4v-1.5l1.3-0.5l1.1,1.1c0.1,0.1,0.4,0.1,0.5,0l0,0
	l1.6-1.7c0.1-0.1,0.1-0.4,0-0.5l0,0l-1-1.1l0.5-1.4H15c0.2,0,0.4-0.2,0.4-0.4V6.8c0-0.2-0.2-0.4-0.4-0.4h-1.5L13,5.2l1.1-1.1
	c0.1-0.1,0.1-0.2,0.1-0.3s0-0.2-0.1-0.2L12.4,2c-0.1-0.1-0.4-0.1-0.5,0l0,0l-1.1,1L9.5,2.5V1c0-0.2-0.1-0.4-0.3-0.4c0,0,0,0-0.1,0
	H6.8C6.6,0.6,6.4,0.8,6.4,1c0,0,0,0,0,0.1v1.5L5.2,3L4.1,1.9C4,1.8,3.7,1.8,3.6,1.9l0,0L1.9,3.6C1.8,3.7,1.8,4,1.9,4.1l0,0l1.1,1
	L2.5,6.4H1c-0.2,0-0.4,0.2-0.4,0.4l0,0v2.3c0,0.2,0.2,0.4,0.4,0.4l0,0h1.5L3,10.8l-1.1,1.1c-0.1,0.1-0.1,0.4,0,0.5l0,0L3.6,14
	c0.1,0.1,0.4,0.1,0.5,0l0,0l1.1-1L6.5,13.4z M4.8,12.3l-1,1l-1.1-1.2l1-1c0.1-0.1,0.1-0.2,0.1-0.4L3.1,9C3,8.9,2.9,8.8,2.8,8.8H1.4
	V7.1h1.4C2.9,7.1,3,7,3.1,6.9l0.7-1.7c0.1-0.1,0-0.3-0.1-0.4l-1-1l1.1-1.1l1,1c0.1,0.1,0.3,0.1,0.4,0.1L7,3c0.1-0.1,0.2-0.2,0.2-0.3
	V1.3h1.6v1.4C8.8,2.8,8.9,2.9,9,3l1.7,0.7c0.1,0.1,0.3,0,0.4-0.1l1-1l1.1,1.1l-1,1c-0.1,0.1-0.1,0.3-0.1,0.4l0.7,1.7
	C13,7,13.1,7.1,13.2,7.1h1.4v1.6h-1.4c-0.1,0-0.3,0.1-0.3,0.2l-0.7,1.8c-0.1,0.1,0,0.3,0.1,0.4l1,1l-1.1,1.1l-1-1
	c-0.1-0.1-0.2-0.1-0.4-0.1L9,12.9c-0.1,0.1-0.2,0.2-0.2,0.3v1.4H7.2v-1.4c0-0.1-0.1-0.3-0.2-0.3l-1.8-0.7
	C5.1,12.1,4.9,12.2,4.8,12.3z M8,10.6c1.5,0,2.7-1.2,2.7-2.7S9.5,5.2,8,5.2S5.3,6.4,5.3,7.9c0,0,0,0,0,0.1C5.3,9.5,6.5,10.6,8,10.6z
	 M8,6c1.1,0,2,0.9,2,2s-0.9,2-2,2S6,9.1,6,8S6.9,6,8,6z M31,10.4h-1.5L29,9.2l1-1.1c0.1-0.1,0.1-0.2,0.1-0.3c0-0.1,0-0.2-0.1-0.2
	l-1.6-1.7c-0.1-0.1-0.4-0.1-0.5,0l0,0L26.8,7l-1.3-0.6V5c0-0.2-0.2-0.4-0.4-0.4l0,0h-2.3c-0.2,0-0.4,0.2-0.4,0.4l0,0v1.5L21.2,7
	l-1.1-1.1c-0.1-0.1-0.4-0.1-0.5,0l0,0L18,7.6c-0.1,0.1-0.1,0.4,0,0.5l0,0l1,1l-0.5,1.3H17c-0.2,0-0.4,0.2-0.4,0.4l0,0v2.3
	c0,0.2,0.2,0.4,0.4,0.4l0,0h1.5l0.5,1.3l-1.1,1.1c-0.1,0.1-0.1,0.4,0,0.5l0,0l1.6,1.6c0.1,0.1,0.4,0.1,0.5,0l0,0l1.1-1l1.3,0.5V19
	c0,0.2,0.2,0.4,0.4,0.4l0,0h2.3c0.2,0,0.4-0.2,0.4-0.4l0,0v-1.5l1.3-0.5l1.1,1.1c0.1,0.1,0.4,0.1,0.5,0l0,0l1.6-1.7
	c0.1-0.1,0.1-0.4,0-0.5l0,0l-1-1.1l0.5-1.4H31c0.2,0,0.4-0.2,0.4-0.4l0,0v-2.3C31.4,10.6,31.2,10.4,31,10.4L31,10.4z M30.6,12.8
	h-1.4c-0.1,0-0.3,0.1-0.3,0.2l-0.7,1.8c-0.1,0.1,0,0.3,0.1,0.4l1,1l-1.1,1.1l-1-1c-0.1-0.1-0.2-0.1-0.4-0.1L25,16.9
	c-0.1,0.1-0.2,0.2-0.2,0.3v1.4h-1.6v-1.4c0-0.2-0.1-0.3-0.2-0.3l-1.8-0.7c-0.1,0-0.3,0-0.4,0.1l-1,1l-1.1-1.1l1-1
	c0.1-0.1,0.1-0.2,0.1-0.4L19.1,13c-0.1-0.1-0.2-0.2-0.3-0.2h-1.4v-1.6h1.4c0.1,0,0.3-0.1,0.3-0.2l0.7-1.7c0.1-0.1,0-0.3-0.1-0.4
	l-1-1l1.1-1.1l1,1c0.1,0.1,0.3,0.1,0.4,0.1L23,7c0.1-0.1,0.2-0.2,0.2-0.3V5.3h1.6v1.4c0,0.1,0.1,0.2,0.2,0.3l1.7,0.7
	c0.1,0.1,0.3,0,0.4-0.1l1-1l1.1,1.1l-1,1c-0.1,0.1-0.1,0.3-0.1,0.4l0.7,1.7c0.1,0.1,0.2,0.2,0.3,0.2h1.4L30.6,12.8z M24,9.2
	c-1.5,0-2.7,1.2-2.7,2.7s1.2,2.7,2.7,2.7s2.7-1.2,2.7-2.6C26.7,10.5,25.5,9.3,24,9.2C24,9.3,24,9.2,24,9.2z M24,13.9
	c-1.1,0-2-0.9-2-2s0.9-2,2-2s2,0.9,2,2S25.1,13.9,24,13.9z M12,21.2c-1.5,0-2.7,1.2-2.7,2.7s1.2,2.7,2.7,2.7s2.7-1.2,2.7-2.6
	C14.7,22.5,13.5,21.3,12,21.2C12,21.3,12,21.2,12,21.2z M12,25.9c-1.1,0-2-0.9-2-2s0.9-2,2-2s2,0.9,2,2S13.1,25.9,12,25.9z M19,22.4
	h-1.5L17,21.2l1.1-1.1c0.1-0.1,0.1-0.2,0.1-0.3c0-0.1,0-0.2-0.1-0.2L16.4,18c-0.1-0.1-0.4-0.1-0.5,0l0,0l-1.1,1l-1.3-0.5V17
	c0-0.2-0.2-0.4-0.4-0.4l0,0h-2.3c-0.2,0-0.4,0.2-0.4,0.4l0,0v1.5L9.2,19l-1.1-1.1c-0.1-0.1-0.4-0.1-0.5,0l0,0l-1.7,1.6
	c-0.1,0.1-0.1,0.4,0,0.5l0,0L7,21.1l-0.5,1.3H5c-0.2,0-0.4,0.2-0.4,0.4l0,0v2.3c0,0.2,0.2,0.4,0.4,0.4l0,0h1.5L7,26.8l-1.1,1.1
	c-0.1,0.1-0.1,0.4,0,0.5l0,0L7.6,30c0.1,0.1,0.4,0.1,0.5,0l0,0l1.1-1l1.3,0.5V31c0,0.2,0.2,0.4,0.4,0.4l0,0h2.3
	c0.2,0,0.4-0.2,0.4-0.4l0,0v-1.5l1.3-0.5l1.1,1.1c0.1,0.1,0.4,0.1,0.5,0l0,0l1.6-1.7c0.1-0.1,0.1-0.4,0-0.5l0,0l-1-1.1l0.5-1.4H19
	c0.2,0,0.4-0.2,0.4-0.4l0,0v-2.3C19.4,22.6,19.2,22.4,19,22.4L19,22.4z M18.6,24.8h-1.4c-0.1,0-0.3,0.1-0.3,0.2l-0.7,1.8
	c-0.1,0.1,0,0.3,0.1,0.4l1,1l-1.1,1.1l-1-1c-0.1-0.1-0.2-0.1-0.4-0.1L13,28.9c-0.1,0.1-0.2,0.2-0.2,0.3v1.4h-1.6v-1.4
	c0-0.2-0.1-0.3-0.2-0.3l-1.8-0.7c-0.1,0-0.3,0-0.4,0.1l-1,1l-1.1-1.2l1-1c0.1-0.1,0.1-0.2,0.1-0.4L7.1,25c-0.1-0.1-0.2-0.2-0.3-0.2
	H5.4v-1.6h1.4c0.1,0,0.3-0.1,0.3-0.2l0.7-1.7c0.1-0.1,0-0.3-0.1-0.4l-1-1l1.1-1.1l1,1c0.1,0.1,0.3,0.1,0.4,0.1L11,19
	c0.1-0.1,0.2-0.2,0.2-0.3v-1.4h1.6v1.4c0,0.1,0.1,0.2,0.2,0.3l1.7,0.7c0.1,0.1,0.3,0,0.4-0.1l1-1l1.1,1.1l-1,1
	c-0.1,0.1-0.1,0.3-0.1,0.4l0.7,1.7c0.1,0.1,0.2,0.2,0.3,0.2h1.4L18.6,24.8z"/>
</svg>
