<?xml version="1.0" encoding="utf-8"?>
<!-- Generator: Adobe Illustrator 24.1.0, SVG Export Plug-In . SVG Version: 6.00 Build 0)  -->
<svg version="1.1" id="Layer_1" xmlns="http://www.w3.org/2000/svg" xmlns:xlink="http://www.w3.org/1999/xlink" x="0px" y="0px"
	 width="32px" height="32.1px" viewBox="0 0 32 32.1" style="enable-background:new 0 0 32 32.1;" xml:space="preserve">
<path d="M12,28.2h2v0.7h-2V28.2z M26.7,9.7c-0.2-5.1-4.5-9.1-9.6-9c-3.5,0.1-6.6,2-8.3,5.1c-0.3,0-0.7-0.1-1-0.1
	c-3.8-0.2-7,2.8-7.2,6.6c0,0.1,0,0.2,0,0.3c0,3.9,3.2,6.8,7.4,6.8v-0.7c-3.8,0-6.6-2.6-6.6-6.1c0-3.4,2.8-6.2,6.2-6.2
	c0.1,0,0.2,0,0.3,0c0.4,0,0.7,0,1.1,0.1c0.1,0,0.3,0,0.4-0.2c1.6-2.9,4.5-4.8,7.8-4.9c4.8-0.1,8.7,3.7,8.8,8.5c0,0,0,0.1,0,0.1
	c0,0.2,0.2,0.4,0.4,0.4l0,0c2.4,0.1,4.3,2.1,4.3,4.5c0,2.3-1.8,3.8-4.6,3.8v0.7c3.2,0,5.4-1.8,5.4-4.5C31.3,12.2,29.4,10,26.7,9.7z
	 M12,23.2h2v0.7h-2V23.2z M24,20.7h-6.6v-9.8l3.4,3.4l0.5-0.5L17,9.5l-4.3,4.3l0.5,0.5l3.4-3.4v9.8H10c-0.2,0-0.4,0.2-0.4,0.4l0,0
	v10c0,0.2,0.2,0.4,0.4,0.4l0,0h14c0.2,0,0.4-0.2,0.4-0.4c0,0,0,0,0,0V21C24.3,20.8,24.2,20.7,24,20.7z M23.6,30.7H10.4v-4.3h13.3
	V30.7z M23.6,25.7H10.4v-4.3h13.3V25.7z"/>
</svg>
