<?xml version="1.0" encoding="utf-8"?>
<!-- Generator: Adobe Illustrator 24.1.0, SVG Export Plug-In . SVG Version: 6.00 Build 0)  -->
<svg version="1.1" id="Layer_1" xmlns="http://www.w3.org/2000/svg" xmlns:xlink="http://www.w3.org/1999/xlink" x="0px" y="0px"
	 width="32px" height="32.1px" viewBox="0 0 32 32.1" style="enable-background:new 0 0 32 32.1;" xml:space="preserve">
<style type="text/css">
	.st0{fill:#231F20;}
</style>
<path class="st0" d="M28.5,2.1c0.3,0,0.5,0.2,0.5,0.5s-0.2,0.5-0.5,0.5S28,2.8,28,2.6S28.2,2.1,28.5,2.1z M26.5,2.1
	c0.3,0,0.5,0.2,0.5,0.5s-0.2,0.5-0.5,0.5S26,2.8,26,2.6S26.2,2.1,26.5,2.1z M24.5,2.1c0.3,0,0.5,0.2,0.5,0.5s-0.2,0.5-0.5,0.5
	S24,2.8,24,2.6S24.2,2.1,24.5,2.1z M31,0.7H1c-0.2,0-0.4,0.2-0.4,0.4v28c0,0.2,0.2,0.4,0.4,0.4c0,0,0,0,0,0h11v-0.7H1.4V4.4h29.3
	v24.3H28v0.7h3c0.2,0,0.4-0.2,0.4-0.4c0,0,0,0,0,0v-28C31.4,0.9,31.2,0.7,31,0.7z M30.6,3.7H1.4V1.4h29.3V3.7z M23,19h-4.7v-5.5
	c0-1-0.7-1.8-1.7-1.8c0,0-0.1,0-0.1,0l0,0c-1,0-1.8,0.7-1.8,1.7c0,0,0,0.1,0,0.1v10.4c-0.8-0.9-1.6-1.7-2.5-2.5
	c-1-0.6-2.2-0.7-3.3-0.2C8.4,21.3,8,21.8,8,22.3c0,0.4,0.4,0.8,1.3,1.9l0.4,0.4c0,0,1.9,2.1,2.5,2.8c2.2,2.5,4,4.1,7.7,4.1
	c5.6,0,6.4-3.2,6.4-6.4v-2.9C26.3,20.3,24.8,19,23,19C23,19,23,19,23,19z M25.6,25c0,3.4-1,5.7-5.7,5.7c-3.5,0-5-1.5-7.2-3.9
	c-0.6-0.7-2.5-2.8-2.5-2.8l-0.4-0.4c-0.4-0.4-0.8-0.9-1.1-1.4c0-0.1,0.2-0.3,0.4-0.4c0.8-0.4,1.7-0.3,2.5,0.1c1.1,1,2.1,2,3,3.1
	c0.1,0.1,0.3,0.1,0.4,0.1c0.1-0.1,0.2-0.2,0.2-0.3V13.5c-0.1-0.6,0.4-1.2,1-1.2c0.6-0.1,1.2,0.4,1.2,1c0,0.1,0,0.1,0,0.2v5.9
	c0,0.2,0.2,0.4,0.4,0.4c0,0,0,0,0,0H23c1.4-0.1,2.5,0.9,2.6,2.3c0,0,0,0.1,0,0.1V25z M19.6,17c2-1.8,2.1-4.8,0.4-6.7
	c-1.8-2-4.8-2.1-6.7-0.4s-2.1,4.8-0.4,6.7c0.1,0.1,0.2,0.3,0.4,0.4l0.5-0.5c-0.9-0.8-1.4-1.9-1.4-3c0-2.2,1.8-4,4-4s4,1.8,4,4
	c0,1.1-0.5,2.2-1.4,3L19.6,17z"/>
</svg>
