<svg xmlns="http://www.w3.org/2000/svg" viewBox="0 0 28.72 30.36"><defs><style>.cls-1,.cls-2{fill:none;stroke:#000;stroke-width:0.72px;}.cls-1{stroke-linejoin:round;}.cls-2{stroke-miterlimit:10;}</style></defs><g id="Layer_2" data-name="Layer 2"><g id="Pictograms_positive"><g id="Security"><g id="trusted--user"><path id="group" class="cls-1" d="M6.36,30.36V22.87a8,8,0,0,1,6.15-7.78,4.56,4.56,0,1,1,3.7,0,8,8,0,0,1,6.15,7.78v7.49m6-6v-7.5a8,8,0,0,0-6.15-7.77A4.56,4.56,0,1,0,15.8,4.92a4.43,4.43,0,0,0,.38,1.82m-3.64,0a4.43,4.43,0,0,0,.38-1.82A4.56,4.56,0,1,0,6.51,9.09,8,8,0,0,0,.36,16.86v7.5"/><polyline class="cls-2" points="17.36 23.36 13.36 27.36 11.36 25.36"/></g></g></g></g></svg>