<svg xmlns="http://www.w3.org/2000/svg" viewBox="0 0 30.72 30.36"><defs><style>.cls-1,.cls-2{fill:none;stroke:#000;stroke-width:0.72px;}.cls-1{stroke-miterlimit:10;}.cls-2{stroke-linejoin:round;}</style></defs><g id="Layer_2" data-name="Layer 2"><g id="Pictograms_positive"><g id="Design_and_Development" data-name="Design and Development"><g id="app--developer"><polyline class="cls-1" points="2.36 5.36 3.86 6.86 2.36 8.36"/><polyline class="cls-1" points="27.6 15.12 25.86 16.86 25.85 19.36"/><path d="M2.86,1.86a.5.5,0,1,1-.5-.5A.5.5,0,0,1,2.86,1.86Zm1.5-.5a.5.5,0,1,0,.5.5A.5.5,0,0,0,4.36,1.36Zm2,0a.5.5,0,1,0,.5.5A.5.5,0,0,0,6.36,1.36Zm11,4a.5.5,0,1,0,.5.5A.5.5,0,0,0,17.36,5.36Zm2,0a.5.5,0,1,0,.5.5A.5.5,0,0,0,19.36,5.36Zm2,0a.5.5,0,1,0,.5.5A.5.5,0,0,0,21.36,5.36Zm-17,18a.5.5,0,1,0,.5.5A.5.5,0,0,0,4.36,23.36Z"/><path class="cls-2" d="M.36,13.36V.36h12v13Zm12-10H.36m4,6h3m-4.5,9h3m-3,2h3m13,1H30.36v-17h-15v11m0-8h15m-29,15h6m0-5.42a.58.58,0,0,0-.58-.58H1.94a.58.58,0,0,0-.58.58v7.84a.58.58,0,0,0,.58.58H6.78a.58.58,0,0,0,.58-.58Zm18.5-2.58a2.5,2.5,0,1,0,2.5,2.5A2.5,2.5,0,0,0,25.86,14.36Zm-8.5-5h4m3,0h4m-11,2h4m-4,2h4m3-2h4m-6,19v-.52A7,7,0,0,0,17,23a4,4,0,1,0-3.28,0,7,7,0,0,0-5.36,6.8v.52"/></g></g></g></g></svg>