<svg id="Layer_1" data-name="Layer 1" xmlns="http://www.w3.org/2000/svg" viewBox="0 0 32 32"><defs><style>.cls-1{fill:#fff;}</style></defs><g id="gear"><path class="cls-1" d="M19,31.36H13a.36.36,0,0,1-.36-.36V27.37l-2.37-1L7.74,29a.36.36,0,0,1-.51,0L3.05,24.77a.36.36,0,0,1,0-.51l2.57-2.57-1-2.37H1A.36.36,0,0,1,.64,19V13A.36.36,0,0,1,1,12.68H4.63l1-2.37L3.05,7.74a.36.36,0,0,1-.11-.26.36.36,0,0,1,.11-.25L7.23,3.05a.36.36,0,0,1,.51,0l2.57,2.57,2.37-1V1A.36.36,0,0,1,13,.64H19a.36.36,0,0,1,.36.36V4.63l2.37,1,2.57-2.57a.36.36,0,0,1,.51,0L29,7.23a.36.36,0,0,1,.11.25.36.36,0,0,1-.11.26l-2.57,2.57,1,2.37H31a.36.36,0,0,1,.36.36V19a.36.36,0,0,1-.36.36H27.37l-1,2.37L29,24.26a.36.36,0,0,1,.11.26.36.36,0,0,1-.11.25L24.77,29a.36.36,0,0,1-.51,0l-2.57-2.57-2.37,1V31A.36.36,0,0,1,19,31.36Zm-5.56-.72h5.2V27.12a.38.38,0,0,1,.22-.34l2.82-1.15a.34.34,0,0,1,.39.08l2.49,2.48,3.67-3.67L25.7,22a.34.34,0,0,1-.08-.39l1.18-2.81a.34.34,0,0,1,.33-.22h3.51V13.4H27.12a.38.38,0,0,1-.34-.22l-1.15-2.82a.34.34,0,0,1,.08-.39l2.48-2.49L24.52,3.81,22,6.3a.36.36,0,0,1-.39.08L18.82,5.2a.34.34,0,0,1-.22-.33V1.36H13.4V4.88a.38.38,0,0,1-.22.34L10.36,6.37A.34.34,0,0,1,10,6.29L7.48,3.81,3.81,7.48,6.3,10a.34.34,0,0,1,.08.39L5.2,13.18a.34.34,0,0,1-.33.22H1.36v5.2H4.88a.38.38,0,0,1,.34.22l1.15,2.82a.34.34,0,0,1-.08.39L3.81,24.52l3.67,3.67L10,25.7a.34.34,0,0,1,.39-.08l2.81,1.18a.34.34,0,0,1,.22.33ZM16,23.36A7.36,7.36,0,1,1,23.36,16,7.37,7.37,0,0,1,16,23.36Zm0-14A6.64,6.64,0,1,0,22.64,16,6.65,6.65,0,0,0,16,9.36Z"/></g></svg>