<svg id="Layer_1" data-name="Layer 1" xmlns="http://www.w3.org/2000/svg" viewBox="0 0 32 32"><defs><style>.cls-1{fill:#fff;}</style></defs><path class="cls-1" d="M8,9.36H1A.36.36,0,0,1,.63,9V1A.36.36,0,0,1,1,.64h9a.36.36,0,0,1,.36.36V7H9.63V1.36H1.35V8.64H2.63V8.23A2.77,2.77,0,0,1,4.06,5.8a1.88,1.88,0,0,1-.49-1.26,1.92,1.92,0,0,1,3.84,0A1.88,1.88,0,0,1,6.92,5.8,2.79,2.79,0,0,1,8.35,8.23V9A.36.36,0,0,1,8,9.36ZM3.35,8.64H7.63V8.23a2.08,2.08,0,0,0-1.51-2,.39.39,0,0,1-.26-.32.37.37,0,0,1,.19-.35,1.15,1.15,0,0,0,.64-1,1.2,1.2,0,0,0-2.4,0,1.16,1.16,0,0,0,.63,1,.35.35,0,0,1,.19.35.37.37,0,0,1-.25.32,2.08,2.08,0,0,0-1.51,2Z"/><path class="cls-1" d="M8,20.36H1A.36.36,0,0,1,.63,20V12A.36.36,0,0,1,1,11.64h9a.36.36,0,0,1,.36.36v6H9.63V12.36H1.35v7.28H2.63v-.41A2.77,2.77,0,0,1,4.06,16.8a1.88,1.88,0,0,1-.49-1.26,1.92,1.92,0,0,1,3.84,0,1.88,1.88,0,0,1-.49,1.26,2.79,2.79,0,0,1,1.43,2.43V20A.36.36,0,0,1,8,20.36Zm-4.64-.72H7.63v-.41a2.08,2.08,0,0,0-1.51-2,.39.39,0,0,1-.26-.32.37.37,0,0,1,.19-.35,1.15,1.15,0,0,0,.64-1,1.2,1.2,0,0,0-2.4,0,1.16,1.16,0,0,0,.63,1,.35.35,0,0,1,.19.35.37.37,0,0,1-.25.32,2.08,2.08,0,0,0-1.51,2Z"/><path class="cls-1" d="M8,31.36H1A.36.36,0,0,1,.63,31V23A.36.36,0,0,1,1,22.64h9a.36.36,0,0,1,.36.36v6H9.63V23.36H1.35v7.28H2.63v-.41A2.77,2.77,0,0,1,4.06,27.8a1.88,1.88,0,0,1-.49-1.26,1.92,1.92,0,0,1,3.84,0,1.88,1.88,0,0,1-.49,1.26,2.79,2.79,0,0,1,1.43,2.43V31A.36.36,0,0,1,8,31.36Zm-4.64-.72H7.63v-.41a2.08,2.08,0,0,0-1.51-2,.39.39,0,0,1-.26-.32.37.37,0,0,1,.19-.35,1.15,1.15,0,0,0,.64-1,1.2,1.2,0,0,0-2.4,0,1.16,1.16,0,0,0,.63,1,.35.35,0,0,1,.19.35.37.37,0,0,1-.25.32,2.08,2.08,0,0,0-1.51,2Z"/><path class="cls-1" d="M23,28.36H10v-.72H22.63V4.36H10V3.64H23a.36.36,0,0,1,.36.36V28A.36.36,0,0,1,23,28.36Z"/><rect class="cls-1" x="9.99" y="15.64" width="5.01" height="0.72"/><path class="cls-1" d="M23,25.36a8.22,8.22,0,0,1-8.21-8.21V7a.36.36,0,0,1,.36-.36h15.7a.36.36,0,0,1,.36.36V17.15A8.22,8.22,0,0,1,23,25.36Zm-7.5-18v9.79a7.5,7.5,0,0,0,15,0V7.36Z"/><rect class="cls-1" x="23" y="15.64" width="8" height="0.72"/><rect class="cls-1" x="23" y="12.64" width="8" height="0.72"/><rect class="cls-1" x="23" y="9.64" width="8" height="0.72"/><rect class="cls-1" x="23" y="18.64" width="8" height="0.72"/><rect class="cls-1" x="23" y="21.64" width="6" height="0.72"/></svg>