<svg id="Layer_1" data-name="Layer 1" xmlns="http://www.w3.org/2000/svg" viewBox="0 0 32 32"><defs><style>.cls-1{fill:#fff;}</style></defs><path class="cls-1" d="M30,9.36H23A.36.36,0,0,1,22.64,9V8.23A2.77,2.77,0,0,1,24.07,5.8a1.88,1.88,0,0,1-.49-1.26,1.92,1.92,0,0,1,3.84,0,1.88,1.88,0,0,1-.49,1.26,2.77,2.77,0,0,1,1.43,2.43v.41h1.28V1.36H21.36V7h-.72V1A.36.36,0,0,1,21,.64h9a.36.36,0,0,1,.36.36V9A.36.36,0,0,1,30,9.36Zm-6.64-.72h4.28V8.23a2.08,2.08,0,0,0-1.51-2,.39.39,0,0,1-.26-.32.38.38,0,0,1,.2-.35,1.16,1.16,0,0,0,.63-1,1.2,1.2,0,0,0-2.4,0,1.16,1.16,0,0,0,.63,1,.38.38,0,0,1,.2.35.39.39,0,0,1-.26.32,2.08,2.08,0,0,0-1.51,2Z"/><path class="cls-1" d="M14,24.36H2A.36.36,0,0,1,1.64,24V8A.36.36,0,0,1,2,7.64H14a.36.36,0,0,1,.36.36V24A.36.36,0,0,1,14,24.36ZM2.36,23.64H13.64V8.36H2.36Z"/><path class="cls-1" d="M30,20.36H23a.36.36,0,0,1-.36-.36v-.77a2.77,2.77,0,0,1,1.43-2.43,1.88,1.88,0,0,1-.49-1.26,1.92,1.92,0,0,1,3.84,0,1.88,1.88,0,0,1-.49,1.26,2.77,2.77,0,0,1,1.43,2.43v.41h1.28V12.36H21.36V18h-.72V12a.36.36,0,0,1,.36-.36h9a.36.36,0,0,1,.36.36v8A.36.36,0,0,1,30,20.36Zm-6.64-.72h4.28v-.41a2.08,2.08,0,0,0-1.51-2,.39.39,0,0,1-.26-.32.38.38,0,0,1,.2-.35,1.16,1.16,0,0,0,.63-1,1.2,1.2,0,0,0-2.4,0,1.16,1.16,0,0,0,.63,1,.38.38,0,0,1,.2.35.39.39,0,0,1-.26.32,2.08,2.08,0,0,0-1.51,2Z"/><path class="cls-1" d="M30,31.36H23a.36.36,0,0,1-.36-.36v-.77a2.77,2.77,0,0,1,1.43-2.43,1.88,1.88,0,0,1-.49-1.26,1.92,1.92,0,0,1,3.84,0,1.88,1.88,0,0,1-.49,1.26,2.77,2.77,0,0,1,1.43,2.43v.41h1.28V23.36H21.36V29h-.72V23a.36.36,0,0,1,.36-.36h9a.36.36,0,0,1,.36.36v8A.36.36,0,0,1,30,31.36Zm-6.64-.72h4.28v-.41a2.08,2.08,0,0,0-1.51-2,.39.39,0,0,1-.26-.32.38.38,0,0,1,.2-.35,1.16,1.16,0,0,0,.63-1,1.2,1.2,0,0,0-2.4,0,1.16,1.16,0,0,0,.63,1,.38.38,0,0,1,.2.35.39.39,0,0,1-.26.32,2.08,2.08,0,0,0-1.51,2Z"/><path class="cls-1" d="M8.36,8H7.64V5A.36.36,0,0,1,8,4.64H21v.72H8.36Z"/><path class="cls-1" d="M21,27.36H8A.36.36,0,0,1,7.64,27V24h.72v2.64H21Z"/><rect class="cls-1" x="14" y="15.64" width="7" height="0.72"/></svg>