<svg id="Layer_1" data-name="Layer 1" xmlns="http://www.w3.org/2000/svg" viewBox="0 0 32 32"><defs><style>.cls-1{fill:#fff;}</style></defs><path class="cls-1" d="M31,24.36H17a.36.36,0,0,1-.36-.36V19a.36.36,0,0,1,.36-.36H31a.36.36,0,0,1,.36.36v5A.36.36,0,0,1,31,24.36Zm-13.64-.72H30.64V19.36H17.36Z"/><rect class="cls-1" x="19" y="20.64" width="6" height="0.72"/><path class="cls-1" d="M31,31.36H17a.36.36,0,0,1-.36-.36V26a.36.36,0,0,1,.36-.36H31a.36.36,0,0,1,.36.36v5A.36.36,0,0,1,31,31.36Zm-13.64-.72H30.64V26.36H17.36Z"/><rect class="cls-1" x="19" y="27.64" width="6" height="0.72"/><circle class="cls-1" cx="28.5" cy="21" r="0.5"/><circle class="cls-1" cx="28.5" cy="28" r="0.5"/><polygon class="cls-1" points="11.25 28.25 10.75 27.75 13.49 25 10.75 22.25 11.25 21.75 14.51 25 11.25 28.25"/><path class="cls-1" d="M14,16.36H1A.36.36,0,0,1,.64,16V1A.36.36,0,0,1,1,.64H14a.36.36,0,0,1,.36.36V4h-.72V1.36H1.36V15.64H13.64V13h.72v3A.36.36,0,0,1,14,16.36Z"/><rect class="cls-1" x="3" y="8.64" width="5" height="0.72"/><rect class="cls-1" x="3" y="5.63" width="5" height="0.72"/><path class="cls-1" d="M14,25.36H9A2.36,2.36,0,0,1,6.64,23V18h.72v5A1.65,1.65,0,0,0,9,24.64h5Z"/><path class="cls-1" d="M14,13.36A4.46,4.46,0,0,1,9.64,8.82V4A.36.36,0,0,1,10,3.64h8a.36.36,0,0,1,.36.36V8.82A4.46,4.46,0,0,1,14,13.36Zm-3.64-9V8.82A3.73,3.73,0,0,0,14,12.64a3.73,3.73,0,0,0,3.64-3.82V4.36Z"/><rect class="cls-1" x="3" y="11.67" width="5" height="0.72"/><polygon class="cls-1" points="13.08 10.51 11.62 9.05 12.13 8.54 13.08 9.49 15.85 6.72 16.36 7.23 13.08 10.51"/></svg>