<svg id="Layer_1" data-name="Layer 1" xmlns="http://www.w3.org/2000/svg" viewBox="0 0 32 32"><defs><style>.cls-1{fill:#fff;}</style></defs><g id="retrieve-and-rank"><path class="cls-1" d="M30.75,31.75l-11-11A11.36,11.36,0,1,1,21.41,6.14H31v.72H21.86a11.31,11.31,0,0,1,1,2.28H31v.72H23.05a10.7,10.7,0,0,1,.3,2.28H31v.72H23.35a10.79,10.79,0,0,1-.3,2.28h8v.72H22.85a11.19,11.19,0,0,1-2.57,4.41l11,11ZM12,1.86a10.64,10.64,0,1,0,6.57,19h-2.1a.36.36,0,0,1-.36-.36v-3a.36.36,0,0,1,.36-.36h5.1a10.54,10.54,0,0,0,.91-2.78H15a.36.36,0,0,1-.36-.36V11a.36.36,0,0,1,.36-.36h7.48a10.54,10.54,0,0,0-.91-2.78h-5.1a.36.36,0,0,1-.36-.36v-3a.36.36,0,0,1,.36-.36h2.1A10.56,10.56,0,0,0,12,1.86Zm4.83,18.28H19.4a10.73,10.73,0,0,0,1.79-2.28H16.83Zm-1.47-6.5h7.22a10.86,10.86,0,0,0,0-2.28H15.36Zm1.47-6.5h4.36A10.73,10.73,0,0,0,19.4,4.86H16.83ZM13,20.86H7a.36.36,0,0,1-.36-.36v-3A.36.36,0,0,1,7,17.14h6a.36.36,0,0,1,.36.36v3A.36.36,0,0,1,13,20.86Zm-5.64-.72h5.28V17.86H7.36ZM12,14.36H4A.36.36,0,0,1,3.64,14V11A.36.36,0,0,1,4,10.64h8a.36.36,0,0,1,.36.36v3A.36.36,0,0,1,12,14.36Zm-7.64-.72h7.28V11.36H4.36ZM13,7.86H7a.36.36,0,0,1-.36-.36v-3A.36.36,0,0,1,7,4.14h6a.36.36,0,0,1,.36.36v3A.36.36,0,0,1,13,7.86ZM7.36,7.14h5.28V4.86H7.36Z"/></g></svg>