<?xml version="1.0" encoding="UTF-8"?>
<svg width="146px" height="108px" viewBox="0 0 146 108" version="1.1" xmlns="http://www.w3.org/2000/svg" xmlns:xlink="http://www.w3.org/1999/xlink">
    <!-- Generator: Sketch 50.2 (55047) - http://www.bohemiancoding.com/sketch -->
    <title>Group 35</title>
    <desc>Created with Sketch.</desc>
    <defs></defs>
    <g id="Page-1" stroke="none" stroke-width="1" fill="none" fill-rule="evenodd">
        <g id="Group-35" transform="translate(-7.000000, -47.000000)" fill="#FFFFFF">
            <polygon id="Shape" fill-rule="nonzero" points="125.400735 59 120.911765 61.0407425 129.889706 73.2851976 91.7334559 73.2851976 91.7334559 79.4074251 120.911765 79.4074251 120.911765 81.4481677 85 81.4481677 85 87.5703952 120.911765 87.5703952 120.911765 89.6111377 91.7334559 89.6111377 91.7334559 95.7333653 120.911765 95.7333653 120.911765 97.7741078 98.4669118 97.7741078 98.4669118 103.896335 134.378676 103.896335 152.334559 99.8148503 152.334559 73.2851976"></polygon>
            <polygon id="Shape" fill-rule="nonzero" points="97.9338235 110 102.422794 112.040743 93.4448529 124.285198 131.601103 124.285198 131.601103 130.407425 102.422794 130.407425 102.422794 132.448168 138.334559 132.448168 138.334559 138.570395 102.422794 138.570395 102.422794 140.611138 131.601103 140.611138 131.601103 146.733365 102.422794 146.733365 102.422794 148.774108 124.867647 148.774108 124.867647 154.896335 88.9558824 154.896335 71 150.81485 71 124.285198"></polygon>
            <text id="1" opacity="0.203125" font-family="IBMPlexSans-Text, IBM Plex Sans" font-size="144" font-weight="500">
                <tspan x="0" y="148">1</tspan>
            </text>
        </g>
    </g>
</svg>