<?xml version="1.0" encoding="UTF-8"?>
<svg width="145px" height="108px" viewBox="0 0 145 108" version="1.1" xmlns="http://www.w3.org/2000/svg" xmlns:xlink="http://www.w3.org/1999/xlink">
    <!-- Generator: Sketch 50.2 (55047) - http://www.bohemiancoding.com/sketch -->
    <title>Group 38</title>
    <desc>Created with Sketch.</desc>
    <defs></defs>
    <g id="Page-1" stroke="none" stroke-width="1" fill="none" fill-rule="evenodd">
        <g id="Group-38" transform="translate(-9.000000, -45.000000)">
            <text id="2" opacity="0.203125" font-family="IBMPlexSans-Text, IBM Plex Sans" font-size="144" font-weight="500" fill="#FFFFFF">
                <tspan x="0" y="148">2</tspan>
            </text>
            <g id="Group-13" transform="translate(71.000000, 74.000000)">
                <path d="M7.10830629,29.7784914 C6.50705473,29.7784914 6.000069,30.2265785 5.92619237,30.8232741 L0.322163903,76.0865813 C0.316152455,76.135135 0.313138166,76.1840132 0.313138166,76.2329381 C0.313138166,76.8907864 0.846429558,77.4240777 1.50427782,77.4240777 L79.9150809,77.4240777 C80.0043959,77.4240777 80.0934274,77.4140321 80.1804964,77.3941306 C80.8218055,77.2475456 81.2228589,76.6088317 81.0762739,75.9675226 L70.730375,30.7042156 C70.6065756,30.1625926 70.1247739,29.7784914 69.5691825,29.7784914 L7.10830629,29.7784914 Z" id="Rectangle" stroke="#FFFFFF" stroke-width="2"></path>
                <path d="M5.58617221,67.4713812 C20.2134056,65.5407149 30.4093088,63.1840713 36.1738818,60.4014509 C44.8207413,56.2275198 46.6928637,42.9384444 53.3202009,56.2037122 C57.7384256,65.0472243 66.6476428,67.3897905 80.047853,63.231411" id="Path-2" stroke="#FFFFFF" stroke-width="2" stroke-dasharray="6" transform="translate(42.817013, 58.964410) rotate(8.000000) translate(-42.817013, -58.964410) "></path>
                <path d="M17.8208671,24.9060544 L17.9368164,24.8568369 L16.1735147,20.7027584 C15.8790007,19.4714538 15.7230435,18.1863229 15.7230435,16.8647661 C15.7230435,7.78646007 23.0824646,0.427038873 32.1607707,0.427038873 C41.2390769,0.427038873 48.598498,7.78646007 48.598498,16.8647661 C48.598498,18.1492022 48.4511788,19.3992301 48.172516,20.5988747 C47.9257709,21.5344213 47.7600753,22.1601475 47.6754286,22.4760532 C47.6491592,22.5740913 47.6207158,22.6795366 47.5900982,22.7923892 L47.2348137,23.4305152 C46.809745,24.4050497 46.292941,25.3303853 45.6953116,26.1956114 L32.1607707,50.5049699 L18.6262299,26.1956114 C18.3386558,25.779272 18.0697963,25.3490144 17.8208671,24.9060544 Z M32.0083693,22.8193619 C35.6060241,22.8193619 38.5224996,19.9028864 38.5224996,16.3052316 C38.5224996,12.7075767 35.6060241,9.79110123 32.0083693,9.79110123 C28.4107145,9.79110123 25.494239,12.7075767 25.494239,16.3052316 C25.494239,19.9028864 28.4107145,22.8193619 32.0083693,22.8193619 Z" id="Combined-Shape" fill="#FFFFFF" fill-rule="nonzero"></path>
            </g>
        </g>
    </g>
</svg>