<?xml version="1.0" encoding="UTF-8"?>
<svg width="145px" height="108px" viewBox="0 0 145 108" version="1.1" xmlns="http://www.w3.org/2000/svg" xmlns:xlink="http://www.w3.org/1999/xlink">
    <!-- Generator: Sketch 50.2 (55047) - http://www.bohemiancoding.com/sketch -->
    <title>Group 40</title>
    <desc>Created with Sketch.</desc>
    <defs></defs>
    <g id="Page-1" stroke="none" stroke-width="1" fill="none" fill-rule="evenodd">
        <g id="Group-40" transform="translate(-5.000000, -47.000000)" fill="#FFFFFF">
            <text id="4" opacity="0.203125" font-family="IBMPlexSans-Text, IBM Plex Sans" font-size="144" font-weight="500">
                <tspan x="0" y="148">4</tspan>
            </text>
            <path d="M118.510274,104.873035 L79.1457558,104.873035 L79.1457558,123.243012 L118.510274,123.243012 L118.510274,104.873035 Z M114.573428,119.306822 L83.0819453,119.306822 L83.0819453,108.80988 L114.573428,108.80988 L114.573428,119.306822 Z M142.128722,123.243012 L122.446463,123.243012 L122.446463,104.873035 L142.128722,104.873035 L142.128722,123.243012 Z M102.764204,146.862116 L142.128722,146.862116 L142.128722,127.179857 L102.764204,127.179857 L102.764204,146.862116 Z M106.70105,131.116047 L138.192533,131.116047 L138.192533,142.925271 L106.70105,142.925271 L106.70105,131.116047 Z M98.8280148,146.862116 L79.1457558,146.862116 L79.1457558,127.179857 L98.8280148,127.179857 L98.8280148,146.862116 Z M71.2727211,97 L71.2727211,154.734495 L150.001757,154.734495 L150.001757,97 L71.2727211,97 Z M146.065568,150.798306 L75.2095664,150.798306 L75.2095664,100.936845 L146.065568,100.936845 L146.065568,150.798306 Z" id="Shape" fill-rule="nonzero"></path>
        </g>
    </g>
</svg>