<?xml version="1.0" encoding="utf-8"?>
<!-- Generator: Adobe Illustrator 22.0.0, SVG Export Plug-In . SVG Version: 6.00 Build 0)  -->
<svg version="1.1" id="Layer_1" xmlns="http://www.w3.org/2000/svg" xmlns:xlink="http://www.w3.org/1999/xlink" x="0px" y="0px"
	 viewBox="0 0 382.8 400" style="enable-background:new 0 0 382.8 400;" xml:space="preserve">
<style type="text/css">
	.st0{fill:#4178BE;}
	.st1{fill:#A3C4F4;}
</style>
<g id="gear">
	<path class="st0" d="M158.2,313.8h-35v-19.9l-12-5.1l-14.6,14.9l-24.4-24.8l14.5-14.8l-5-12.3H61.1v-35H81l5.1-12l-14.9-14.6
		L96,165.8l14.8,14.6l12.3-5v-20.7h35v19.9l12,5.1l14.6-14.9l24.3,24.8l-14.5,14.9l5,12.3h20.7v35l-20.7,0l-5,12.3l14.6,14.8
		l-24.3,24.8l-14.6-14.8l-12,5V313.8z M127.2,309.8h27v-18.6l17-7.1l13.6,13.9l18.7-19.1L189.8,265l7.1-17.2l19.3,0v-27h-19.3
		l-7-17.2l13.6-14l-18.7-19.1l-13.7,13.9l-17-7.2v-18.5h-27V178l-17.2,7L96,171.4l-19,18.7l13.9,13.7l-7.2,17H65.1v27h19.3l7,17.2
		l-13.6,13.9l18.8,19.1l13.7-13.9l16.9,7.2V309.8z M140.2,271.8c-21,0-38-17-38-38s17-38,38-38s38,17,38,38S161.1,271.8,140.2,271.8
		z M140.2,199.8c-18.7,0-34,15.3-34,34s15.3,34,34,34s34-15.3,34-34S158.9,199.8,140.2,199.8z"/>
</g>
<g id="gear-2">
	<path class="st0" d="M183.2,157.5l-16.4-5.8l3.3-9.4l-4-3.7l-9,4.3l-7.5-15.7l9-4.3l-0.3-5.4l-9.4-3.3l5.8-16.4l9.4,3.3l3.7-4
		l-4.3-9l15.7-7.5l4.3,8.9l5.4-0.3l3.3-9.4l16.4,5.8l-3.3,9.4l4,3.7l9-4.3l7.5,15.7l-9,4.3l0.3,5.4l9.4,3.3l-5.8,16.4l-9.4-3.3
		l-3.7,4l4.3,9l-15.7,7.5l-4.3-9l-5.4,0.3L183.2,157.5z M170.6,149.8l10.8,3.8l3-8.5l9.4-0.5l3.9,8.1l10.3-4.9l-3.9-8.1l6.3-7l8.4,3
		l3.8-10.8l-8.5-3l-0.5-9.4l8-3.9l-4.9-10.3l-8.1,3.9l-7-6.3l3-8.4l-10.8-3.8l-3,8.4l-9.4,0.5l-3.9-8l-10.3,4.9l3.9,8.1l-6.3,7
		l-8.4-3l-3.8,10.8l8.5,3l0.5,9.4l-8.1,3.9l4.9,10.3l8.1-3.9l7,6.3L170.6,149.8z M187.7,136.8c-2.1,0-4.2-0.4-6.2-1.1
		c-4.7-1.6-8.4-5-10.5-9.5c-4.4-9.2-0.5-20.3,8.7-24.7c9.2-4.4,20.3-0.5,24.7,8.7c4.4,9.2,0.5,20.3-8.7,24.7
		C193.1,136.2,190.4,136.8,187.7,136.8z M187.6,102.8c-2.2,0-4.5,0.5-6.7,1.5l0,0c-3.7,1.8-6.6,4.9-7.9,8.8
		c-1.4,3.9-1.2,8.1,0.6,11.8s4.9,6.6,8.8,7.9c3.9,1.4,8.1,1.2,11.8-0.6c7.7-3.7,11-13,7.3-20.7C199,106,193.4,102.8,187.6,102.8z"/>
</g>
<g id="gear-3">
	<path class="st0" d="M263.8,239.8l-25.5-9l5.4-15.3l-7.7-7l-14.7,7L209.6,191l14.7-7l-0.5-10.4l-15.4-5.4l9-25.5l15.3,5.4l7-7.7
		l-7-14.7l24.4-11.7l7,14.7l10.4-0.5l5.4-15.4l25.5,9l-5.4,15.3l7.7,7l14.7-7l11.7,24.4l-14.7,7l0.5,10.4l15.4,5.4l-9,25.5
		l-15.3-5.4l-7,7.7l7,14.7l-24.4,11.7l-7-14.7l-10.4,0.5L263.8,239.8z M242.1,228.9l19.9,7l5.1-14.4l14.4-0.7l6.6,13.8l19-9.1
		l-6.6-13.8l9.7-10.7l14.4,5.1l7-19.9l-14.4-5.1l-0.7-14.4l13.8-6.6l-9.1-19l-13.8,6.6l-10.7-9.7l5.1-14.4l-19.9-7l-5.1,14.4
		l-14.4,0.7l-6.6-13.8l-19,9.1l6.6,13.8l-9.7,10.7l-14.4-5.1l-7,19.9l14.4,5.1l0.7,14.4l-13.8,6.6l9.1,19l13.8-6.6l10.7,9.7
		L242.1,228.9z M272.2,206.7c-3.4,0-6.7-0.6-10-1.7c-7.6-2.7-13.6-8.1-17.1-15.3c-6.9-14.4-1.3-31.5,12.5-39.2l-0.1-0.1l1.7-0.8
		c7.3-3.5,15.4-3.9,23-1.2c7.5,2.7,13.6,8.1,17,15.4c7.1,14.9,0.8,32.8-14.1,40C281.1,205.8,276.7,206.7,272.2,206.7z M261.5,151.9
		l-0.9,0.5c-13.4,6.4-19.1,22.6-12.7,36c3.1,6.5,8.6,11.4,15.4,13.8c6.8,2.4,14.1,2,20.6-1.1c13.4-6.4,19.1-22.6,12.7-36
		c-3.1-6.5-8.5-11.4-15.3-13.8C274.8,149,267.8,149.2,261.5,151.9z"/>
</g>
<g>
	<path class="st0" d="M193.2,386.8c-102.6,0-186-83.4-186-186s83.4-186,186-186s186,83.4,186,186S295.7,386.8,193.2,386.8z
		 M193.2,17.8c-100.9,0-183,82.1-183,183c0,100.9,82.1,183,183,183c100.9,0,183-82.1,183-183C376.2,99.8,294.1,17.8,193.2,17.8z"/>
</g>
<g>
	<path class="st1" d="M119.6,243.6c-5.7-10.5-1.8-23.7,8.7-29.3c2.6-1.4,5.6-2.3,8.6-2.5l-0.9-6.1c-15.3,1.4-26.5,15-25.1,30.3
		c0.3,3.5,1.3,6.9,2.9,10L119.6,243.6z"/>
</g>
<g>
	<path class="st1" d="M291,178c-1,7.1-5.5,13.1-12,16l1.2,2.8c7.6-3.4,12.9-10.6,13.8-18.9L291,178z"/>
</g>
<g>
	<path class="st1" d="M181.4,109.8c3.9-2.3,8.7-2.2,12.4,0.2l1.1-1.9c-4.4-2.8-10-3-14.6-0.3L181.4,109.8z"/>
</g>
</svg>
