<?xml version="1.0" encoding="UTF-8"?>
<svg width="59px" height="59px" viewBox="0 0 59 59" version="1.1" xmlns="http://www.w3.org/2000/svg" xmlns:xlink="http://www.w3.org/1999/xlink">
    <title>pictograms/familiar IDE</title>
    <g id="0523" stroke="none" stroke-width="1" fill="none" fill-rule="evenodd">
        <g id="card/Big-picture-Copy-8" transform="translate(-17.481873, -164.481855)" fill="#000000">
            <g id="pictograms/untitled/" transform="translate(16.481873, 163.481855)">
                <path d="M58.80075,1.8744375 C59.173875,1.8744375 59.47575,2.1763125 59.47575,2.5494375 L59.47575,38.1744375 C59.47575,38.5475625 59.173875,38.8494375 58.80075,38.8494375 L51.976,38.8494375 L51.976875,58.7994375 C51.976875,59.1725625 51.675,59.4744375 51.3,59.4744375 L2.55,59.4744375 C2.176875,59.4744375 1.875,59.1725625 1.875,58.7994375 L1.875,23.1744375 C1.875,22.8013125 2.176875,22.4994375 2.55,22.4994375 L9.375,22.4994375 L9.37575,2.5494375 C9.37575,2.1763125 9.677625,1.8744375 10.05075,1.8744375 L58.80075,1.8744375 Z M50.625,29.4744375 L3.226,29.4744375 L3.226875,58.1244375 L50.625,58.1244375 L50.625,29.4744375 Z M58.125,8.8494375 L10.725,8.8494375 L10.725,22.4994375 L51.3,22.4994375 C51.675,22.4994375 51.976875,22.8013125 51.976875,23.1744375 L51.976,37.4994375 L58.12575,37.4994375 L58.125,8.8494375 Z M10.037,23.8484375 L3.226875,23.8494375 L3.226,28.1244375 L50.625,28.1244375 L50.625,23.8494375 L10.0639487,23.8493114 C10.0595594,23.8493953 10.0551597,23.8494375 10.05075,23.8494375 L10.037,23.8484375 Z M39.11325,25.049625 C39.63075,25.049625 40.05075,25.469625 40.05075,25.987125 C40.05075,26.504625 39.63075,26.924625 39.11325,26.924625 C38.597625,26.924625 38.17575,26.504625 38.17575,25.987125 C38.17575,25.469625 38.597625,25.049625 39.11325,25.049625 Z M46.61325,25.049625 C47.13075,25.049625 47.55075,25.469625 47.55075,25.987125 C47.55075,26.504625 47.13075,26.924625 46.61325,26.924625 C46.097625,26.924625 45.67575,26.504625 45.67575,25.987125 C45.67575,25.469625 46.097625,25.049625 46.61325,25.049625 Z M42.86325,25.049625 C43.38075,25.049625 43.80075,25.469625 43.80075,25.987125 C43.80075,26.504625 43.38075,26.924625 42.86325,26.924625 C42.347625,26.924625 41.92575,26.504625 41.92575,25.987125 C41.92575,25.469625 42.347625,25.049625 42.86325,25.049625 Z M58.12575,3.2244375 L10.72575,3.2244375 L10.725,7.4994375 L58.125,7.4994375 L58.12575,3.2244375 Z M54.11325,4.424625 C54.63075,4.424625 55.05075,4.844625 55.05075,5.362125 C55.05075,5.879625 54.63075,6.299625 54.11325,6.299625 C53.597625,6.299625 53.17575,5.879625 53.17575,5.362125 C53.17575,4.844625 53.597625,4.424625 54.11325,4.424625 Z M50.36325,4.424625 C50.88075,4.424625 51.30075,4.844625 51.30075,5.362125 C51.30075,5.879625 50.88075,6.299625 50.36325,6.299625 C49.847625,6.299625 49.42575,5.879625 49.42575,5.362125 C49.42575,4.844625 49.847625,4.424625 50.36325,4.424625 Z M46.61325,4.424625 C47.13075,4.424625 47.55075,4.844625 47.55075,5.362125 C47.55075,5.879625 47.13075,6.299625 46.61325,6.299625 C46.097625,6.299625 45.67575,5.879625 45.67575,5.362125 C45.67575,4.844625 46.097625,4.424625 46.61325,4.424625 Z" id="Fill-17"></path>
            </g>
        </g>
    </g>
</svg>