<?xml version="1.0" encoding="UTF-8"?>
<!DOCTYPE svg PUBLIC "-//W3C//DTD SVG 1.1//EN" "http://www.w3.org/Graphics/SVG/1.1/DTD/svg11.dtd">
<!-- Creator: CorelDRAW X7 -->
<svg xmlns="http://www.w3.org/2000/svg" xml:space="preserve" width="8.5in" height="11in" version="1.1" style="shape-rendering:geometricPrecision; text-rendering:geometricPrecision; image-rendering:optimizeQuality; fill-rule:evenodd; clip-rule:evenodd"
viewBox="0 0 8500 11000"
 xmlns:xlink="http://www.w3.org/1999/xlink">
 <defs>
  <style type="text/css">
   <![CDATA[
    .fil1 {fill:none}
    .fil0 {fill:#FEFEFE}
   ]]>
  </style>
 </defs>
 <g id="Layer_x0020_1">
  <metadata id="CorelCorpID_0Corel-Layer"/>
  <g id="zowe_bp_1.svg">
   <path id="transform--01_1_" class="fil0" d="M3432 9441l-3188 0c-53,0 -96,-43 -96,-96l0 -3187c0,-53 43,-96 96,-96l3188 0c52,0 95,43 95,96l0 3187c0,53 -43,96 -95,96zm-3092 -191l2996 0 0 -2996 -2996 0 0 2996zm6279 -2686c-37,0 -72,-22 -88,-58 -21,-48 1,-105 50,-126 933,-408 1536,-1329 1536,-2347 0,-1412 -1148,-2561 -2560,-2561 -1019,0 -1940,603 -2348,1536 -22,49 -78,71 -126,50 -48,-21 -71,-78 -49,-126 438,-1003 1428,-1651 2523,-1651 1517,0 2751,1234 2751,2752 0,1094 -648,2085 -1651,2523 -12,5 -25,8 -38,8zm-4686 -940c0,-53 -42,-96 -95,-96 -53,0 -96,43 -96,96l0 3c0,52 43,94 96,94 53,0 95,-44 95,-97zm2585 2223l-6 0c-53,0 -96,-43 -96,-95 0,-53 43,-96 96,-96 53,0 98,43 98,96 0,52 -39,95 -92,95zm540 0l-6 0c-53,0 -96,-43 -96,-95 0,-53 43,-96 96,-96 53,0 98,43 98,96 0,52 -39,95 -92,95zm510 -149c-35,0 -69,-20 -86,-53 -23,-47 -4,-105 43,-128 43,-30 100,-17 130,28 29,44 14,105 -30,134 -3,2 -11,7 -15,9 -13,6 -28,10 -42,10zm376 -381c-18,0 -37,-6 -53,-16 -44,-30 -56,-89 -27,-133 24,-48 81,-63 127,-40 47,24 65,84 41,131 -2,4 -6,12 -8,15 -19,28 -49,43 -80,43zm144 -516c-53,0 -96,-43 -96,-96 0,-53 43,-98 96,-98 53,0 95,40 95,93l0 6c0,52 -42,95 -95,95zm0 -542c-53,0 -96,-42 -96,-95 0,-53 43,-99 96,-99 53,0 95,41 95,94l0 5c0,53 -42,95 -95,95zm0 -541c-53,0 -96,-43 -96,-96 0,-52 43,-98 96,-98 53,0 95,40 95,93l0 5c0,53 -42,96 -95,96zm-4250 -537c-53,0 -96,-40 -96,-93l0 -5c0,-53 43,-96 96,-96 53,0 95,43 95,96 0,52 -42,98 -95,98zm4250 -5c-53,0 -96,-42 -96,-95 0,-53 43,-99 96,-99 53,0 95,41 95,93l0 6c0,53 -42,95 -95,95zm-4250 -537c-1,0 -3,0 -4,0 -51,-2 -92,-41 -92,-93 0,-2 0,-10 1,-12 4,-53 48,-92 102,-88 53,4 92,50 88,102 -4,50 -45,91 -95,91zm144 -515c-16,0 -32,-4 -47,-13 -45,-26 -62,-83 -36,-128l3 -5c27,-45 86,-61 131,-34 45,26 61,85 34,131 -18,30 -51,49 -85,49zm3958 -4c-34,0 -67,-18 -84,-50 -25,-45 -11,-103 33,-130 44,-26 99,-16 127,27 2,2 6,9 8,12 25,46 7,104 -39,129 -14,9 -30,12 -45,12zm-380 -377c-16,0 -33,-5 -48,-13 -46,-27 -63,-87 -37,-133 27,-45 83,-62 129,-36l4 3c46,27 61,85 35,131 -18,31 -50,48 -83,48zm-3201 -92l3 0 -3 0zm2686 -53c-2,0 -5,0 -7,-1 -51,-3 -93,-47 -91,-99 2,-53 57,-97 105,-91 52,3 92,49 89,102 -4,50 -46,89 -96,89zm-542 -1c-53,0 -98,-43 -98,-95 0,-53 40,-96 93,-96l6 0c52,0 95,43 95,96 0,52 -43,95 -96,95zm-541 0c-53,0 -98,-43 -98,-95 0,-53 40,-96 93,-96l5 0c53,0 96,43 96,96 0,52 -43,95 -96,95zm-542 0c-52,0 -98,-43 -98,-95 0,-53 40,-96 93,-96l6 0c53,0 95,43 95,96 0,52 -43,95 -96,95zm641 4155c0,-53 -44,-96 -97,-96 -52,0 -96,43 -96,96 0,52 43,95 96,95l3 0c52,0 94,-43 94,-95zm-1186 -4155c-53,0 -98,-43 -98,-95 0,-53 40,-96 93,-96l5 0c53,0 96,43 96,96 0,52 -43,95 -96,95zm-512 149c-53,0 -98,-43 -98,-96 0,-52 40,-95 93,-95l5 0c53,0 96,43 96,95 0,53 -43,96 -96,96zm3725 896c-53,0 -96,-43 -96,-95 0,-53 43,-99 96,-99 53,0 95,40 95,93l0 6c0,52 -42,95 -95,95z"/>
   <rect id="_Transparent_Rectangle" class="fil1" x="-22" y="1111" width="8500" height="8500"/>
  </g>
 </g>
</svg>
