<?xml version="1.0" encoding="UTF-8"?>
<svg width="59px" height="59px" viewBox="0 0 59 59" version="1.1" xmlns="http://www.w3.org/2000/svg" xmlns:xlink="http://www.w3.org/1999/xlink">
    <title>pictograms/vibrant open community</title>
    <g id="0523" stroke="none" stroke-width="1" fill="none" fill-rule="evenodd">
        <g id="card/Big-picture-Copy-10" transform="translate(-17.481873, -164.481855)" fill="#000000">
            <g id="pictograms/untitled/" transform="translate(16.481873, 163.481855)">
                <path d="M30.67575,41.260875 C27.846375,41.260875 25.2795,40.13775 23.376375,38.324625 L25.46325,34.164 L27.8595,34.164 C28.150125,34.164 28.407,33.978375 28.50075,33.70275 L30.970125,26.298375 L34.420125,29.744625 C34.6845,30.007125 35.113875,30.007125 35.3745,29.744625 L39.797625,25.329 C40.720125,26.90025 41.262,28.72275 41.262,30.674625 C41.262,36.5115 36.512625,41.260875 30.67575,41.260875 M30.67575,20.088375 C34.071375,20.088375 37.08825,21.699 39.025125,24.190875 L34.89825,28.312125 L31.152,24.5715 C30.988875,24.4065 30.75075,24.339 30.520125,24.3915 C30.29325,24.445875 30.1095,24.614625 30.0345,24.835875 L27.372,32.815875 L25.045125,32.815875 C24.78825,32.815875 24.55575,32.958375 24.441375,33.187125 L22.401375,37.25775 C20.957625,35.448375 20.0895,33.16275 20.0895,30.674625 C20.0895,24.83775 24.838875,20.088375 30.67575,20.088375 M30.67575,50.625 C33.117,50.625 35.10075,52.610625 35.10075,55.05 C35.10075,57.489375 33.117,59.475 30.67575,59.475 C28.2345,59.475 26.25075,57.489375 26.25075,55.05 C26.25075,52.610625 28.2345,50.625 30.67575,50.625 Z M30.67575,51.975 C28.98075,51.975 27.60075,53.355 27.60075,55.05 C27.60075,56.745 28.98075,58.125 30.67575,58.125 C32.37075,58.125 33.75075,56.745 33.75075,55.05 C33.75075,53.355 32.37075,51.975 30.67575,51.975 Z M54.5735625,39.809625 L55.8316875,40.289625 C53.3266875,46.84275 48.3391875,52.119 42.0204375,55.06275 L42.0204375,55.06275 L47.4485625,56.609625 L47.0773125,57.907125 L39.2154375,55.6665 L41.4560625,47.804625 L42.7573125,48.175875 L41.0979375,53.99775 C47.2666875,51.23775 52.1454375,46.15275 54.5735625,39.809625 L54.5735625,39.809625 Z M5.7470625,39.1820625 L13.4101875,42.0283125 L12.9414375,43.2939375 L7.4158125,41.2426875 C10.1908125,47.3401875 15.2458125,52.1626875 21.5420625,54.5701875 L21.5420625,54.5701875 L21.0583125,55.8320625 C14.4414375,53.3008125 9.1276875,48.2364375 6.2045625,41.8295625 L6.2045625,41.8295625 L4.1683125,47.3158125 L2.9008125,46.8451875 L5.7470625,39.1820625 Z M30.67575,18.738375 C34.682625,18.738375 38.226375,20.729625 40.393875,23.767125 C40.39575,23.770875 40.3995,23.769 40.401375,23.770875 C40.407,23.7765 40.405125,23.785875 40.408875,23.7915 C41.792625,25.739625 42.612,28.109625 42.612,30.674625 C42.612,37.255875 37.257,42.610875 30.67575,42.610875 C27.313875,42.610875 24.276375,41.208375 22.105125,38.962125 C22.06575,38.9265 22.033875,38.89275 22.003875,38.8515 C19.986375,36.712125 18.7395,33.839625 18.7395,30.674625 C18.7395,24.093375 24.0945,18.738375 30.67575,18.738375 Z M58.8,26.2494375 C59.175,26.2494375 59.476875,26.5513125 59.476875,26.9244375 L59.476875,26.9244375 L59.476875,34.4244375 C59.476875,34.7975625 59.175,35.0994375 58.8,35.0994375 L58.8,35.0994375 L51.3,35.0994375 C50.926875,35.0994375 50.625,34.7975625 50.625,34.4244375 L50.625,34.4244375 L50.625,26.9244375 C50.625,26.5513125 50.926875,26.2494375 51.3,26.2494375 L51.3,26.2494375 Z M10.05,26.2494375 C10.425,26.2494375 10.726875,26.5513125 10.726875,26.9244375 L10.726875,26.9244375 L10.726875,34.4244375 C10.726875,34.7975625 10.425,35.0994375 10.05,35.0994375 L10.05,35.0994375 L2.55,35.0994375 C2.176875,35.0994375 1.875,34.7975625 1.875,34.4244375 L1.875,34.4244375 L1.875,26.9244375 C1.875,26.5513125 2.176875,26.2494375 2.55,26.2494375 L2.55,26.2494375 Z M58.125,27.5994375 L51.976875,27.5994375 L51.976875,33.7494375 L58.125,33.7494375 L58.125,27.5994375 Z M9.375,27.5994375 L3.226875,27.5994375 L3.226875,33.7494375 L9.375,33.7494375 L9.375,27.5994375 Z M40.292625,5.5164375 C46.902,8.0458125 52.21575,13.1045625 55.142625,19.5058125 L55.142625,19.5058125 L57.057,14.0026875 L58.332,14.4451875 L55.645125,22.1683125 L47.92575,19.4814375 L48.36825,18.2064375 L53.953875,20.1489375 C51.182625,14.0289375 46.11825,9.1914375 39.808875,6.7783125 L39.808875,6.7783125 Z M14.5138125,2.885625 L22.1694375,5.74875 L19.3044375,13.40625 L18.0406875,12.93375 L20.1050625,7.4175 C14.0056875,10.1925 9.1869375,15.2475 6.7794375,21.54 L6.7794375,21.54 L5.5194375,21.058125 C8.0488125,14.44125 13.1150625,9.12375 19.5219375,6.200625 L19.5219375,6.200625 L14.0413125,4.149375 L14.5138125,2.885625 Z M30.67575,1.8744375 C33.117,1.8744375 35.10075,3.8600625 35.10075,6.2994375 C35.10075,8.7388125 33.117,10.7244375 30.67575,10.7244375 C28.2345,10.7244375 26.25075,8.7388125 26.25075,6.2994375 C26.25075,3.8600625 28.2345,1.8744375 30.67575,1.8744375 Z M30.67575,3.2244375 C28.98075,3.2244375 27.60075,4.6044375 27.60075,6.2994375 C27.60075,7.9944375 28.98075,9.3744375 30.67575,9.3744375 C32.37075,9.3744375 33.75075,7.9944375 33.75075,6.2994375 C33.75075,4.6044375 32.37075,3.2244375 30.67575,3.2244375 Z" id="Fill-13"></path>
            </g>
        </g>
    </g>
</svg>