<?xml version="1.0" encoding="UTF-8"?>
<svg width="59px" height="59px" viewBox="0 0 59 59" version="1.1" xmlns="http://www.w3.org/2000/svg" xmlns:xlink="http://www.w3.org/1999/xlink">
    <title>pictograms/intuitive UI</title>
    <g id="0523" stroke="none" stroke-width="1" fill="none" fill-rule="evenodd">
        <g id="card/Big-picture-Copy-11" transform="translate(-17.481873, -164.481855)" fill="#000000">
            <g id="pictograms/untitled/" transform="translate(16.481873, 163.481855)">
                <path d="M58.8,1.8744375 C59.175,1.8744375 59.476875,2.1763125 59.476875,2.5513125 L59.476875,41.9263125 C59.476875,42.2994375 59.175,42.6013125 58.8,42.6013125 L2.55,42.6013125 C2.176875,42.6013125 1.875,42.2994375 1.875,41.9263125 L1.875,2.5513125 C1.875,2.1763125 2.176875,1.8744375 2.55,1.8744375 L58.8,1.8744375 Z M58.125,8.8504375 L3.226,8.8504375 L3.226875,41.2494375 L58.125,41.2494375 L58.125,8.8504375 Z M45.67575,13.1555625 C48.6615514,13.1555625 51.2787746,14.7648013 52.7055968,17.162001 C52.7195538,17.1800548 52.7325045,17.2002295 52.7445,17.2213125 L52.7698344,17.2718609 C53.457331,18.4688934 53.85075,19.8555108 53.85075,21.3324375 C53.85075,25.8399375 50.18325,29.5074375 45.67575,29.5074375 C41.16825,29.5074375 37.50075,25.8399375 37.50075,21.3324375 C37.50075,19.8465051 37.8989814,18.4519868 38.5942745,17.2499852 C38.5982526,17.2402821 38.6034375,17.2307595 38.608875,17.2213125 L38.6262343,17.1952247 C40.0485878,14.7796817 42.6761757,13.1555625 45.67575,13.1555625 Z M51.8829894,18.4958894 L46.172,21.7924375 L42.8512454,27.5433495 C43.7124209,27.9364121 44.6689899,28.1555625 45.67575,28.1555625 C49.438875,28.1555625 52.50075,25.0936875 52.50075,21.3324375 C52.50075,20.3209818 52.2795506,19.3601866 51.8829894,18.4958894 Z M19.42575,26.2494375 C19.798875,26.2494375 20.10075,26.5513125 20.10075,26.9263125 C20.10075,27.2994375 19.798875,27.6013125 19.42575,27.6013125 L8.17575,27.6013125 C7.802625,27.6013125 7.50075,27.2994375 7.50075,26.9263125 C7.50075,26.5513125 7.802625,26.2494375 8.17575,26.2494375 L19.42575,26.2494375 Z M39.4685106,18.4958894 C39.0719494,19.3601866 38.85075,20.3209818 38.85075,21.3324375 C38.85075,23.6057349 39.9692489,25.6235515 41.685053,26.8642797 L44.755,21.5484375 L39.4685106,18.4958894 Z M26.92575,20.6244375 C27.298875,20.6244375 27.60075,20.9263125 27.60075,21.3013125 C27.60075,21.6744375 27.298875,21.9763125 26.92575,21.9763125 L8.17575,21.9763125 C7.802625,21.9763125 7.50075,21.6744375 7.50075,21.3013125 C7.50075,20.9263125 7.802625,20.6244375 8.17575,20.6244375 L26.92575,20.6244375 Z M45.67575,14.5074375 C43.4062272,14.5074375 41.3917658,15.6211145 40.1501928,17.3306415 L45.676,20.5204375 L51.2020424,17.331654 C49.9605295,15.6215542 47.9457208,14.5074375 45.67575,14.5074375 Z M26.92575,14.9994375 C27.298875,14.9994375 27.60075,15.3013125 27.60075,15.6763125 C27.60075,16.0494375 27.298875,16.3513125 26.92575,16.3513125 L8.17575,16.3513125 C7.802625,16.3513125 7.50075,16.0494375 7.50075,15.6763125 C7.50075,15.3013125 7.802625,14.9994375 8.17575,14.9994375 L26.92575,14.9994375 Z M58.125,3.2263125 L3.226875,3.2263125 L3.226,7.4994375 L58.125,7.4994375 L58.125,3.2263125 Z M54.11325,4.4255625 C54.63075,4.4255625 55.05075,4.8455625 55.05075,5.3630625 C55.05075,5.8805625 54.63075,6.3005625 54.11325,6.3005625 C53.597625,6.3005625 53.17575,5.8805625 53.17575,5.3630625 C53.17575,4.8455625 53.597625,4.4255625 54.11325,4.4255625 Z M50.36325,4.4255625 C50.88075,4.4255625 51.30075,4.8455625 51.30075,5.3630625 C51.30075,5.8805625 50.88075,6.3005625 50.36325,6.3005625 C49.847625,6.3005625 49.42575,5.8805625 49.42575,5.3630625 C49.42575,4.8455625 49.847625,4.4255625 50.36325,4.4255625 Z M46.61325,4.4255625 C47.13075,4.4255625 47.55075,4.8455625 47.55075,5.3630625 C47.55075,5.8805625 47.13075,6.3005625 46.61325,6.3005625 C46.097625,6.3005625 45.67575,5.8805625 45.67575,5.3630625 C45.67575,4.8455625 46.097625,4.4255625 46.61325,4.4255625 Z M58.80075,48.2263125 L2.55075,48.2263125 C2.177625,48.2263125 1.87575,47.9244375 1.87575,47.5513125 C1.87575,47.1763125 2.177625,46.8744375 2.55075,46.8744375 L58.80075,46.8744375 C59.173875,46.8744375 59.47575,47.1763125 59.47575,47.5513125 C59.47575,47.9244375 59.173875,48.2263125 58.80075,48.2263125 M58.80075,53.8513125 L2.55075,53.8513125 C2.177625,53.8513125 1.87575,53.5494375 1.87575,53.1763125 C1.87575,52.8013125 2.177625,52.4994375 2.55075,52.4994375 L58.80075,52.4994375 C59.173875,52.4994375 59.47575,52.8013125 59.47575,53.1763125 C59.47575,53.5494375 59.173875,53.8513125 58.80075,53.8513125 M58.80075,59.4763125 L2.55075,59.4763125 C2.177625,59.4763125 1.87575,59.1744375 1.87575,58.8013125 C1.87575,58.4263125 2.177625,58.1244375 2.55075,58.1244375 L58.80075,58.1244375 C59.173875,58.1244375 59.47575,58.4263125 59.47575,58.8013125 C59.47575,59.1744375 59.173875,59.4763125 58.80075,59.4763125" id="Fill-17"></path>
            </g>
        </g>
    </g>
</svg>