<?xml version="1.0" encoding="UTF-8"?>
<!DOCTYPE svg PUBLIC "-//W3C//DTD SVG 1.1//EN" "http://www.w3.org/Graphics/SVG/1.1/DTD/svg11.dtd">
<!-- Creator: CorelDRAW X7 -->
<svg xmlns="http://www.w3.org/2000/svg" xml:space="preserve" width="8.5in" height="11in" version="1.1" style="shape-rendering:geometricPrecision; text-rendering:geometricPrecision; image-rendering:optimizeQuality; fill-rule:evenodd; clip-rule:evenodd"
viewBox="0 0 8500 11000"
 xmlns:xlink="http://www.w3.org/1999/xlink">
 <defs>
  <style type="text/css">
   <![CDATA[
    .fil1 {fill:none}
    .fil0 {fill:#FEFEFE}
   ]]>
  </style>
 </defs>
 <g id="Layer_x0020_1">
  <metadata id="CorelCorpID_0Corel-Layer"/>
  <g id="zowe_bp_2.svg">
   <path id="text--input_1_" class="fil0" d="M7969 9049l-7438 0c-53,0 -95,-43 -95,-96l0 -1062c0,-53 42,-96 95,-96l7438 0c53,0 95,43 95,96l0 1062c0,53 -42,96 -95,96zm-7342 -191l7246 0 0 -872 -7246 0 0 872zm3092 -1403l-3188 0 0 -191 3188 0 0 191zm4250 -1062l-7438 0c-53,0 -95,-43 -95,-96l0 -1063c0,-52 42,-95 95,-95l7438 0c53,0 95,43 95,95l0 1063c0,53 -42,96 -95,96zm-7342 -192l7246 0 0 -871 -7246 0 0 871zm3092 -1402l-3188 0 0 -192 3188 1 0 191zm4250 -1063l-7438 0c-53,0 -95,-43 -95,-95l0 -1063c0,-53 42,-95 95,-95l7438 0c53,0 95,42 95,95l0 1063c0,52 -42,95 -95,95zm-7342 -191l7246 0 0 -871 -7246 0 0 871zm3092 -1402l-3188 0 0 -192 3188 0 0 192z"/>
   <rect id="_Transparent_Rectangle" class="fil1" y="1250" width="8500" height="8500"/>
  </g>
 </g>
</svg>
