<?xml version="1.0" encoding="UTF-8"?>
<svg width="59px" height="59px" viewBox="0 0 59 59" version="1.1" xmlns="http://www.w3.org/2000/svg" xmlns:xlink="http://www.w3.org/1999/xlink">
    <title>pictograms/API</title>
    <g id="0523" stroke="none" stroke-width="1" fill="none" fill-rule="evenodd">
        <g id="card/Big-picture-Copy-9" transform="translate(-17.481873, -164.481855)" fill="#000000">
            <g id="pictograms/untitled/" transform="translate(16.481873, 163.481855)">
                <path d="M55.0305,45 C54.008625,45 53.007375,44.405625 52.418625,43.4475 C52.29675,43.246875 52.077375,43.125 51.843,43.125 L51.29925,43.125 C50.928,43.125 50.62425,43.426875 50.62425,43.8 L50.62425,50.625 L38.17425,50.625 C37.803,50.625 37.49925,50.926875 37.49925,51.3 L37.49925,51.73125 C37.49925,51.97875 37.63425,52.205625 37.849875,52.321875 C38.836125,52.86375 39.44925,53.8875 39.44925,54.99375 C39.44925,56.68875 38.071125,58.06875 36.37425,58.06875 C34.67925,58.06875 33.29925,56.68875 33.29925,54.99375 C33.29925,53.94375 33.8655,52.940625 34.778625,52.381875 C34.977375,52.258125 35.09925,52.040625 35.09925,51.80625 L35.09925,51.3 C35.09925,50.926875 34.797375,50.625 34.42425,50.625 L27.59925,50.625 L27.59925,45.054375 C28.429875,45.871875 29.5305,46.351875 30.661125,46.351875 C33.108,46.351875 35.09925,44.36625 35.09925,41.925 C35.09925,39.485625 33.108,37.5 30.661125,37.5 C29.478,37.5 28.399875,37.9275 27.59925,38.6775 L27.59925,31.351875 L50.62425,31.351875 L50.62425,40.05 C50.62425,40.425 50.928,40.726875 51.29925,40.726875 L51.74925,40.726875 C51.994875,40.726875 52.22175,40.59 52.339875,40.374375 C52.864875,39.42 53.869875,38.851875 55.0305,38.851875 C56.73675,38.851875 58.12425,40.23 58.12425,41.925 C58.12425,43.621875 56.73675,45 55.0305,45 L55.0305,45 Z M11.99925,43.125 C9.559875,43.125 7.57425,45.110625 7.57425,47.55 C7.57425,48.72 8.029875,49.81125 8.828625,50.625 L3.22425,50.625 L3.22425,31.351875 L10.04925,31.351875 C10.422375,31.351875 10.72425,31.05 10.72425,30.675 L10.72425,30.11625 C10.72425,29.881875 10.602375,29.6625 10.40175,29.540625 C9.477375,28.9725 8.92425,27.995625 8.92425,26.925 C8.92425,25.23 10.30425,23.851875 11.99925,23.851875 C13.69425,23.851875 15.07425,25.23 15.07425,26.925 C15.07425,28.033125 14.461125,29.05875 13.473,29.604375 C13.25925,29.724375 13.12425,29.95125 13.12425,30.195 L13.12425,30.675 C13.12425,31.05 13.428,31.351875 13.79925,31.351875 L26.24925,31.351875 L26.24925,40.05 C26.24925,40.425 26.553,40.726875 26.92425,40.726875 L27.378,40.726875 C27.623625,40.726875 27.8505,40.591875 27.968625,40.378125 C28.49925,39.42 29.50425,38.851875 30.661125,38.851875 C32.363625,38.851875 33.74925,40.23 33.74925,41.925 C33.74925,43.621875 32.363625,45 30.661125,45 C29.629875,45 28.623,44.405625 28.03425,43.4475 C27.912375,43.246875 27.693,43.125 27.458625,43.125 L26.92425,43.125 C26.553,43.125 26.24925,43.426875 26.24925,43.8 L26.24925,50.625 L15.1605,50.625 C15.95925,49.81125 16.42425,48.710625 16.42425,47.55 C16.42425,45.110625 14.438625,43.125 11.99925,43.125 L11.99925,43.125 Z M3.22425,10.726875 L10.04925,10.726875 C10.422375,10.726875 10.72425,10.425 10.72425,10.05 L10.72425,9.489375 C10.72425,9.255 10.602375,9.035625 10.403625,8.91375 C9.4905,8.353125 8.92425,7.351875 8.92425,6.3 C8.92425,4.605 10.30425,3.226875 11.99925,3.226875 C13.696125,3.226875 15.07425,4.605 15.07425,6.3 C15.07425,7.40625 14.461125,8.43 13.474875,8.971875 C13.25925,9.091875 13.12425,9.31875 13.12425,9.564375 L13.12425,10.05 C13.12425,10.425 13.428,10.726875 13.79925,10.726875 L26.24925,10.726875 L26.24925,19.425 C26.24925,19.8 26.553,20.101875 26.92425,20.101875 L27.37425,20.101875 C27.619875,20.101875 27.84675,19.965 27.964875,19.749375 C28.489875,18.795 29.494875,18.226875 30.6555,18.226875 C32.36175,18.226875 33.74925,19.605 33.74925,21.3 C33.74925,22.996875 32.36175,24.375 30.6555,24.375 C29.633625,24.375 28.632375,23.780625 28.043625,22.8225 C27.92175,22.621875 27.702375,22.5 27.468,22.5 L26.92425,22.5 C26.553,22.5 26.24925,22.801875 26.24925,23.175 L26.24925,30 L15.1605,30 C15.95925,29.18625 16.42425,28.085625 16.42425,26.925 C16.42425,24.485625 14.438625,22.5 11.99925,22.5 C9.559875,22.5 7.57425,24.485625 7.57425,26.925 C7.57425,28.095 8.029875,29.18625 8.828625,30 L3.22425,30 L3.22425,10.726875 Z M34.42425,10.726875 C34.797375,10.726875 35.09925,10.425 35.09925,10.05 L35.09925,9.489375 C35.09925,9.255 34.977375,9.035625 34.778625,8.91375 C33.8655,8.353125 33.29925,7.351875 33.29925,6.3 C33.29925,4.605 34.67925,3.226875 36.37425,3.226875 C38.071125,3.226875 39.44925,4.605 39.44925,6.3 C39.44925,7.40625 38.836125,8.43 37.849875,8.971875 C37.63425,9.091875 37.49925,9.31875 37.49925,9.564375 L37.49925,10.05 C37.49925,10.425 37.803,10.726875 38.17425,10.726875 L50.62425,10.726875 L50.62425,18.054375 C49.823625,17.308125 48.73425,16.875 47.568,16.875 C45.117375,16.875 43.12425,18.860625 43.12425,21.3 C43.12425,23.74125 45.117375,25.726875 47.568,25.726875 C48.6855,25.726875 49.786125,25.245 50.62425,24.425625 L50.62425,30 L27.59925,30 L27.59925,24.42 C28.428,25.243125 29.528625,25.726875 30.6555,25.726875 C33.106125,25.726875 35.09925,23.74125 35.09925,21.3 C35.09925,18.860625 33.106125,16.875 30.6555,16.875 C29.48925,16.875 28.40175,17.308125 27.59925,18.054375 L27.59925,10.726875 L34.42425,10.726875 Z M55.0305,37.5 C53.86425,37.5 52.77675,37.933125 51.97425,38.679375 L51.97425,30.675 L51.97425,23.175 C51.97425,22.801875 51.672375,22.5 51.29925,22.5 L50.77425,22.5 C50.543625,22.5 50.328,22.618125 50.20425,22.815 C49.594875,23.77875 48.58425,24.375 47.568,24.375 C45.86175,24.375 44.47425,22.996875 44.47425,21.3 C44.47425,19.605 45.86175,18.226875 47.568,18.226875 C48.728625,18.226875 49.733625,18.795 50.25675,19.749375 C50.37675,19.965 50.603625,20.101875 50.84925,20.101875 L51.29925,20.101875 C51.672375,20.101875 51.97425,19.8 51.97425,19.425 L51.97425,10.05 C51.97425,9.676875 51.672375,9.375 51.29925,9.375 L39.53175,9.375 C40.332375,8.563125 40.79925,7.4625 40.79925,6.3 C40.79925,3.860625 38.8155,1.875 36.37425,1.875 C33.934875,1.875 31.94925,3.860625 31.94925,6.3 C31.94925,7.45125 32.416125,8.555625 33.213,9.375 L26.92425,9.375 L15.15675,9.375 C15.957375,8.563125 16.42425,7.4625 16.42425,6.3 C16.42425,3.860625 14.4405,1.875 11.99925,1.875 C9.559875,1.875 7.57425,3.860625 7.57425,6.3 C7.57425,7.45125 8.041125,8.555625 8.838,9.375 L2.54925,9.375 C2.178,9.375 1.87425,9.676875 1.87425,10.05 L1.87425,30.675 L1.87425,51.3 C1.87425,51.675 2.178,51.976875 2.54925,51.976875 L10.04925,51.976875 C10.422375,51.976875 10.72425,51.675 10.72425,51.3 L10.72425,50.74125 C10.72425,50.506875 10.602375,50.2875 10.40175,50.165625 C9.477375,49.5975 8.92425,48.620625 8.92425,47.55 C8.92425,45.855 10.30425,44.476875 11.99925,44.476875 C13.69425,44.476875 15.07425,45.855 15.07425,47.55 C15.07425,48.658125 14.461125,49.68375 13.473,50.229375 C13.25925,50.349375 13.12425,50.57625 13.12425,50.82 L13.12425,51.3 C13.12425,51.675 13.428,51.976875 13.79925,51.976875 L26.92425,51.976875 L33.158625,51.976875 C32.3955,52.78875 31.94925,53.870625 31.94925,54.99375 C31.94925,57.435 33.934875,59.41875 36.37425,59.41875 C38.8155,59.41875 40.79925,57.435 40.79925,54.99375 C40.79925,53.8575 40.354875,52.78125 39.588,51.976875 L51.29925,51.976875 C51.672375,51.976875 51.97425,51.675 51.97425,51.3 L51.97425,45.045 C52.804875,45.868125 53.903625,46.351875 55.0305,46.351875 C57.481125,46.351875 59.47425,44.36625 59.47425,41.925 C59.47425,39.485625 57.481125,37.5 55.0305,37.5 L55.0305,37.5 Z" id="Fill-1"></path>
            </g>
        </g>
    </g>
</svg>