<?xml version="1.0" encoding="UTF-8"?>
<svg width="59px" height="59px" viewBox="0 0 59 59" version="1.1" xmlns="http://www.w3.org/2000/svg" xmlns:xlink="http://www.w3.org/1999/xlink">
    <title>pictograms/mordern experience</title>
    <g id="0523" stroke="none" stroke-width="1" fill="none" fill-rule="evenodd">
        <g id="card/Big-picture-Copy" transform="translate(-17.481873, -164.481855)" fill="#000000">
            <g id="pictograms/untitled/" transform="translate(16.481873, 163.481855)">
                <path d="M45.675,22.4994375 C46.05,22.4994375 46.351875,22.8013125 46.351875,23.1744375 L46.351875,32.5494375 C46.351875,32.9225625 46.05,33.2244375 45.675,33.2244375 L25.72575,33.2244375 L25.7263125,37.237125 C25.7263125,38.932125 27.1044375,40.312125 28.8013125,40.312125 L36.3013125,40.312125 C38.7406875,40.312125 40.7263125,42.29775 40.7263125,44.737125 L40.72575,48.7494375 L45.675,48.7494375 C46.05,48.7494375 46.351875,49.0513125 46.351875,49.4244375 L46.351875,58.7994375 C46.351875,59.1725625 46.05,59.4744375 45.675,59.4744375 L19.425,59.4744375 C19.051875,59.4744375 18.75,59.1725625 18.75,58.7994375 L18.75,49.4244375 C18.75,49.0513125 19.051875,48.7494375 19.425,48.7494375 L39.37375,48.7494375 L39.3744375,44.737125 C39.3744375,43.042125 37.9963125,41.662125 36.3013125,41.662125 L28.8013125,41.662125 C26.3600625,41.662125 24.3744375,39.6765 24.3744375,37.237125 L24.37375,33.2244375 L19.425,33.2244375 C19.051875,33.2244375 18.75,32.9225625 18.75,32.5494375 L18.75,23.1744375 C18.75,22.8013125 19.051875,22.4994375 19.425,22.4994375 L45.675,22.4994375 Z M45,50.0994375 L20.101875,50.0994375 L20.101875,58.1244375 L45,58.1244375 L45,50.0994375 Z M26.925,53.4369375 L26.925,54.7869375 L23.175,54.7869375 L23.175,53.4369375 L26.925,53.4369375 Z M32.8395,1.8744375 C42.69825,1.8744375 50.466375,9.2469375 50.803875,18.7756875 C55.570125,19.1450625 59.477625,23.4538125 59.477625,28.5125625 C59.477625,33.6538125 55.532625,36.9744375 49.42575,36.9744375 L49.42575,35.6244375 C54.711375,35.6244375 58.127625,32.8325625 58.127625,28.5125625 C58.127625,23.9525625 54.4695,20.0994375 50.142,20.0994375 C49.768875,20.0994375 49.465125,19.7975625 49.465125,19.4244375 C49.465125,10.3400625 42.163875,3.2244375 32.8395,3.2244375 C27.055125,3.2244375 21.28575,6.8450625 18.137625,12.4456875 C17.997,12.6950625 17.712,12.8244375 17.4345,12.7813125 C16.735125,12.6613125 16.030125,12.5994375 15.340125,12.5994375 C8.4345,12.5994375 3.22575,17.5813125 3.22575,24.1850625 C3.22575,30.7063125 8.578875,35.6244375 15.67575,35.6244375 L15.67575,36.9744375 C7.80825,36.9744375 1.87575,31.4769375 1.87575,24.1850625 C1.87575,16.8106875 7.66575,11.2494375 15.340125,11.2494375 C15.95325,11.2494375 16.57575,11.2925625 17.19825,11.3788125 C20.627625,5.5906875 26.7195,1.8744375 32.8395,1.8744375 Z M45,23.8494375 L20.101875,23.8494375 L20.101875,31.8744375 L45,31.8744375 L45,23.8494375 Z M26.925,27.1869375 L26.925,28.5369375 L23.175,28.5369375 L23.175,27.1869375 L26.925,27.1869375 Z" id="Fill-9"></path>
            </g>
        </g>
    </g>
</svg>