<?xml version="1.0" encoding="UTF-8"?>
<svg width="58px" height="59px" viewBox="0 0 58 59" version="1.1" xmlns="http://www.w3.org/2000/svg" xmlns:xlink="http://www.w3.org/1999/xlink">
    <title>pictograms/CLI &amp; tools</title>
    <g id="0523" stroke="none" stroke-width="1" fill="none" fill-rule="evenodd">
        <g id="card/Big-picture-Copy-7" transform="translate(-17.481873, -164.481855)" fill="#000000">
            <g id="pictograms/untitled/" transform="translate(16.481873, 163.481855)">
                <path d="M25.05,59.4763125 L58.8,59.4763125 L58.8,58.1244375 L25.05,58.1244375 L25.05,59.4763125 Z M11.71875,30.6755625 C11.71875,32.6293125 10.12875,34.2193125 8.175,34.2193125 C6.22125,34.2193125 4.633125,32.6293125 4.633125,30.6755625 C4.633125,28.7218125 6.22125,27.1318125 8.24625,27.1318125 C10.1625,27.1749375 11.71875,28.7630625 11.71875,30.6755625 M10.3125,53.1755625 C10.3125,54.3549375 9.354375,55.3130625 8.175,55.3130625 C6.995625,55.3130625 6.039375,54.3549375 6.039375,53.1755625 C6.039375,51.9961875 6.995625,51.0380625 8.218125,51.0380625 C9.373125,51.0643125 10.3125,52.0243125 10.3125,53.1755625 M3.226875,8.1755625 C3.226875,5.4455625 5.445,3.2255625 8.175,3.2255625 C10.905,3.2255625 13.125,5.4455625 13.125,8.1755625 C13.125,10.9055625 10.905,13.1255625 8.175,13.1255625 C5.445,13.1255625 3.226875,10.9055625 3.226875,8.1755625 M14.476875,8.1755625 C14.476875,4.7011875 11.649375,1.8755625 8.175,1.8755625 C4.7025,1.8755625 1.875,4.7011875 1.875,8.1755625 C1.875,11.4174375 4.34625,14.0668125 7.5,14.4080625 L7.5,25.8493125 C5.1225,26.1830625 3.28125,28.2080625 3.28125,30.6755625 C3.28125,33.1430625 5.1225,35.1680625 7.5,35.5018125 L7.5,49.7555625 C5.89875,50.0724375 4.6875,51.4843125 4.6875,53.1755625 C4.6875,55.0974375 6.253125,56.6630625 8.175,56.6630625 C10.09875,56.6630625 11.664375,55.0974375 11.664375,53.1755625 C11.664375,51.5180625 10.471875,50.1099375 8.851875,49.7686875 L8.851875,35.5018125 C11.2275,35.1680625 13.070625,33.1430625 13.070625,30.6755625 C13.070625,28.2605625 11.26125,26.2374375 8.851875,25.8624375 L8.851875,14.4080625 C12.00375,14.0668125 14.476875,11.4174375 14.476875,8.1755625 M25.05,3.2263125 L58.8,3.2263125 L58.8,1.8744375 L25.05,1.8744375 L25.05,3.2263125 Z M25.05,8.8513125 L58.8,8.8513125 L58.8,7.4994375 L25.05,7.4994375 L25.05,8.8513125 Z M25.05,14.4763125 L58.8,14.4763125 L58.8,13.1244375 L25.05,13.1244375 L25.05,14.4763125 Z M25.05,25.7263125 L58.8,25.7263125 L58.8,24.3744375 L25.05,24.3744375 L25.05,25.7263125 Z M25.05,31.3513125 L58.8,31.3513125 L58.8,29.9994375 L25.05,29.9994375 L25.05,31.3513125 Z M25.05,36.9763125 L58.8,36.9763125 L58.8,35.6244375 L25.05,35.6244375 L25.05,36.9763125 Z M25.05,48.2263125 L58.8,48.2263125 L58.8,46.8744375 L25.05,46.8744375 L25.05,48.2263125 Z M25.05,53.8513125 L58.8,53.8513125 L58.8,52.4994375 L25.05,52.4994375 L25.05,53.8513125 Z" id="Fill-13"></path>
            </g>
        </g>
    </g>
</svg>