<?xml version="1.0" encoding="UTF-8"?>
<!DOCTYPE svg PUBLIC "-//W3C//DTD SVG 1.1//EN" "http://www.w3.org/Graphics/SVG/1.1/DTD/svg11.dtd">
<!-- Creator: CorelDRAW X7 -->
<svg xmlns="http://www.w3.org/2000/svg" xml:space="preserve" width="8.5in" height="11in" version="1.1" style="shape-rendering:geometricPrecision; text-rendering:geometricPrecision; image-rendering:optimizeQuality; fill-rule:evenodd; clip-rule:evenodd"
viewBox="0 0 8500 11000"
 xmlns:xlink="http://www.w3.org/1999/xlink">
 <defs>
  <style type="text/css">
   <![CDATA[
    .fil1 {fill:none}
    .fil0 {fill:#FEFEFE}
   ]]>
  </style>
 </defs>
 <g id="Layer_x0020_1">
  <metadata id="CorelCorpID_0Corel-Layer"/>
  <g id="zowe_bp_3.svg">
   <path id="tree--map_1_" class="fil0" d="M7969 9314l-7438 0c-53,0 -95,-42 -95,-95l0 -7438c0,-53 42,-95 95,-95l7438 0c53,0 95,42 95,95l0 7438c0,53 -42,95 -95,95zm-3623 -191l3527 0 0 -4324 -3527 0 0 4324zm-3719 0l3527 0 0 -1934 -3527 0 0 1934zm0 -2125l3527 0 0 -5121 -3527 0 0 5121zm5578 -2390l1668 0 0 -2731 -1668 0 0 2731zm-1859 0l1668 0 0 -2731 -1668 0 0 2731z"/>
   <rect id="_Transparent_Rectangle" class="fil1" y="1250" width="8500" height="8500"/>
  </g>
 </g>
</svg>
