<?xml version="1.0" encoding="utf-8"?>
<!-- Generator: Adobe Illustrator 24.1.0, SVG Export Plug-In . SVG Version: 6.00 Build 0)  -->
<svg version="1.1" id="Layer_1" xmlns="http://www.w3.org/2000/svg" xmlns:xlink="http://www.w3.org/1999/xlink" x="0px" y="0px"
	 width="32px" height="32px" viewBox="0 0 32 32" style="enable-background:new 0 0 32 32;" xml:space="preserve">
<path d="M30.4,20.2l-1.9-0.5l0.2-0.7l1.9,0.5L30.4,20.2z M1.6,20.2l-0.2-0.7L3.3,19l0.2,0.7L1.6,20.2z M31,16.4h-2v-0.7h2V16.4z
	 M3,16.4H1v-0.7h2V16.4z M28.6,13l-0.2-0.7l1.9-0.5l0.2,0.7L28.6,13z M3.3,13l-1.9-0.5l0.2-0.7l1.9,0.5L3.3,13z M21,1.6H11
	c-0.2,0-0.4,0.2-0.4,0.4v28c0,0.2,0.2,0.4,0.4,0.4h10c0.2,0,0.4-0.2,0.4-0.4V2C21.4,1.8,21.2,1.6,21,1.6z M11.4,2.4h5.8l-3.3,1.3
	c-0.1,0-0.1,0.1-0.2,0.1l-2.3,3.9V2.4z M11.4,9.4h6.3l-3.9,2.3c0,0-0.1,0.1-0.1,0.1l-2.4,3.1V9.4z M11.4,16.4h6.9l-2.5,3.4l-4.4,2.6
	V16.4z M11.4,23.4h7l-2.6,4.4l-4.4,1.8V23.4z M18.6,29.6h-5.8l3.3-1.3c0.1,0,0.1-0.1,0.2-0.1l2.3-3.9V29.6z M18.6,22.6h-6.3l3.9-2.3
	c0,0,0.1-0.1,0.1-0.1l2.4-3.1V22.6z M18.6,15.6h-6.9l2.5-3.4l4.4-2.6V15.6z M18.6,8.6h-7l2.6-4.4l4.4-1.8V8.6z M20.6,29.6h-1.3V2.4
	h1.3V29.6z"/>
</svg>
