<?xml version="1.0" encoding="utf-8"?>
<!-- Generator: Adobe Illustrator 25.0.0, SVG Export Plug-In . SVG Version: 6.00 Build 0)  -->
<svg version="1.1" id="Layer_1" xmlns="http://www.w3.org/2000/svg" xmlns:xlink="http://www.w3.org/1999/xlink" x="0px" y="0px"
	 viewBox="0 0 32 32" style="enable-background:new 0 0 32 32;" xml:space="preserve">
<style type="text/css">
	.st0{fill:#FFFFFF;}
	.st1{fill:none;}
</style>
<path id="reset--hybrid--cloud_1_" class="st0" d="M25.3,31.3l-0.5-0.5l3.4-3.4H16c-7.4,0-13.4-6-13.4-13.4S8.6,0.6,16,0.6
	s13.4,6,13.4,13.4h-0.7C28.6,7,23,1.4,16,1.4S3.4,7,3.4,14S9,26.6,16,26.6h12.1l-3.4-3.4l0.5-0.5l4.3,4.3L25.3,31.3z M16,22.4h-0.4
	v-4.2L12.4,16l6-4l-2.7-1.8V6.4c-4,0.2-7.3,3.5-7.3,7.6c0,3.5,2.4,6.5,5.7,7.4l-0.2,0.7c-3.7-1-6.3-4.3-6.3-8.1
	c0-4.6,3.7-8.4,8.4-8.4h0.4v4.2l3.3,2.2l-6,4l2.7,1.8v3.8c4-0.2,7.3-3.5,7.3-7.6c0-3.5-2.4-6.5-5.7-7.4l0.2-0.7
	c3.7,0.9,6.3,4.3,6.3,8.1C24.4,18.6,20.6,22.4,16,22.4z"/>
<rect id="_Transparent_Rectangle" y="0" class="st1" width="32" height="32"/>
</svg>
