<svg id="Layer_1" data-name="Layer 1" xmlns="http://www.w3.org/2000/svg" xmlns:xlink="http://www.w3.org/1999/xlink" viewBox="0 0 135.59 135.59"><defs><style>.cls-1{fill:none;stroke:#fff;stroke-linejoin:round;stroke-width:8px;}.cls-2{fill:url(#linear-gradient);}.cls-3{fill:url(#linear-gradient-2);}.cls-4{mask:url(#mask);}.cls-5{fill:url(#linear-gradient-3);}.cls-6{fill:#001d6c;}</style><linearGradient id="linear-gradient" x1="67.46" y1="72.65" x2="89.84" y2="50.26" gradientTransform="translate(101.88 9.62) rotate(78.63)" gradientUnits="userSpaceOnUse"><stop offset="0.2"/><stop offset="0.7" stop-opacity="0"/></linearGradient><linearGradient id="linear-gradient-2" x1="43.33" y1="125.84" x2="65.71" y2="103.45" gradientTransform="translate(-24.12 114.25) rotate(-101.37)" xlink:href="#linear-gradient"/><mask id="mask" x="0" y="0" width="135.59" height="135.59" maskUnits="userSpaceOnUse"><polygon class="cls-1" points="67.27 10.72 18.19 39.35 18.19 96.62 67.27 125.25 116.35 96.62 116.35 39.35 67.27 10.72"/><polyline class="cls-1" points="87.87 43.19 67.27 31.18 34.55 50.26 34.55 106.16"/><polyline class="cls-1" points="46.67 92.78 67.27 104.8 99.99 85.71 99.99 29.81"/><polygon class="cls-2" points="46.87 85.68 39.86 96.22 67.39 112 63.86 94.44 46.87 85.68"/><polygon class="cls-3" points="87.79 51.36 94.8 40.82 67.27 25.04 70.8 42.6 87.79 51.36"/></mask><linearGradient id="linear-gradient-3" y1="135.59" x2="135.59" gradientUnits="userSpaceOnUse"><stop offset="0.1" stop-color="#08bdba"/><stop offset="0.9" stop-color="#0f62fe"/></linearGradient></defs><g class="cls-4"><rect id="Color" class="cls-5" width="135.59" height="135.59"/></g><path class="cls-6" d="M67.8,84.26A16.27,16.27,0,1,1,84.07,68,16.28,16.28,0,0,1,67.8,84.26Zm0-24.54A8.27,8.27,0,1,0,76.07,68,8.28,8.28,0,0,0,67.8,59.72Z"/></svg>