<?xml version="1.0" encoding="utf-8"?>
<!-- Generator: Adobe Illustrator 24.1.0, SVG Export Plug-In . SVG Version: 6.00 Build 0)  -->
<svg slot="pictogram" focusable="false" preserveAspectRatio="xMidYMid meet" xmlns="http://www.w3.org/2000/svg" data-autoid="dds--card__pictogram" aria-label="Pictogram description" width="48" height="48" viewBox="0 0 32 32" role="img" class="bx--card__pictogram">
<path id="ansible" d="M11.8,30.3H8.2c-0.2,0-0.4-0.2-0.4-0.4v-2.1l-1.2-0.5l-1.5,1.5C5.1,28.9,5,29,4.9,29l0,0c-0.1,0-0.2,0-0.3-0.1
	l-2.5-2.5C2,26.2,2,26,2.1,25.8l1.5-1.5l-0.5-1.2H1c-0.2,0-0.4-0.2-0.4-0.4v-3.5c0-0.2,0.2-0.4,0.4-0.4h2.1l0.5-1.2l-1.5-1.5
	C2,16,2,15.7,2.1,15.6l2.5-2.5C4.8,13,5,13,5.1,13.1l1.5,1.5l1.2-0.5V12c0-0.2,0.2-0.4,0.4-0.4h3.5c0.2,0,0.4,0.2,0.4,0.4v2.1
	l1.2,0.5l1.5-1.5c0.1-0.1,0.4-0.1,0.5,0l2.5,2.5c0.1,0.1,0.1,0.2,0.1,0.3s0,0.2-0.1,0.3l-1.5,1.5l0.5,1.2H19c0.2,0,0.4,0.2,0.4,0.4
	v3.5c0,0.2-0.2,0.4-0.4,0.4h-2.1l-0.5,1.2l1.5,1.5c0.1,0.1,0.1,0.2,0.1,0.3s0,0.2-0.1,0.3l-2.5,2.5c-0.1,0.1-0.2,0.1-0.3,0.1l0,0
	c-0.1,0-0.2,0-0.3-0.1l-1.5-1.5l-1.2,0.5V30C12.1,30.2,12,30.3,11.8,30.3z M8.6,29.6h2.8v-2c0-0.1,0.1-0.3,0.2-0.3l1.7-0.7
	c0.1-0.1,0.3,0,0.4,0.1l1.4,1.4l2-2l-1.4-1.4c-0.1-0.1-0.1-0.3-0.1-0.4l0.7-1.7c0.1-0.1,0.2-0.2,0.3-0.2h2v-2.8h-2
	c-0.1,0-0.3-0.1-0.3-0.2l-0.7-1.7c-0.1-0.1,0-0.3,0.1-0.4l1.4-1.4l-2-2l-1.4,1.4c-0.1,0.1-0.3,0.1-0.4,0.1l-1.7-0.7
	c-0.1-0.1-0.2-0.2-0.2-0.3v-2H8.6v2c0,0.1-0.1,0.3-0.2,0.3l-1.7,0.7c-0.1,0.1-0.3,0-0.4-0.1l-1.4-1.4l-2,2l1.4,1.4
	c0.1,0.1,0.1,0.3,0.1,0.4l-0.7,1.7c-0.1,0.1-0.2,0.2-0.3,0.2h-2v2.8h2c0.1,0,0.3,0.1,0.3,0.2l0.7,1.7c0.1,0.1,0,0.3-0.1,0.4
	l-1.4,1.4l2,2l1.4-1.4c0.1-0.1,0.3-0.1,0.4-0.1l1.7,0.7c0.1,0.1,0.2,0.2,0.2,0.3V29.6z M10,25.1c-2.3,0-4.1-1.8-4.1-4.1
	s1.8-4.1,4.1-4.1s4.1,1.8,4.1,4.1S12.3,25.1,10,25.1z M10,17.6c-1.9,0-3.4,1.5-3.4,3.4s1.5,3.4,3.4,3.4s3.4-1.5,3.4-3.4
	S11.9,17.6,10,17.6z M26.2,19.4h-2.4c-0.2,0-0.4-0.2-0.4-0.4v-1.3l-0.7-0.3l-0.9,0.9c-0.1,0.1-0.4,0.1-0.5,0l-1.7-1.7
	c-0.1-0.1-0.1-0.2-0.1-0.3c0-0.1,0-0.2,0.1-0.3l0.9-0.9l-0.3-0.7H19c-0.2,0-0.4-0.2-0.4-0.4v-2.4c0-0.2,0.2-0.4,0.4-0.4h1.3l0.3-0.7
	l-0.9-0.9c-0.1-0.1-0.1-0.4,0-0.5l1.7-1.7c0.1-0.1,0.4-0.1,0.5,0l0.9,0.9l0.7-0.3V7c0-0.2,0.2-0.4,0.4-0.4h2.4
	c0.2,0,0.4,0.2,0.4,0.4v1.3l0.7,0.3l0.9-0.9c0.1-0.1,0.4-0.1,0.5,0l1.7,1.7c0.1,0.1,0.1,0.4,0,0.5l-0.9,0.9l0.3,0.7H31
	c0.2,0,0.4,0.2,0.4,0.4v2.4c0,0.2-0.2,0.4-0.4,0.4h-1.3l-0.3,0.7l0.9,0.9c0.1,0.1,0.1,0.4,0,0.5l-1.7,1.7c-0.1,0.1-0.2,0.1-0.3,0.1
	l0,0c-0.1,0-0.2,0-0.3-0.1l-0.9-0.9l-0.7,0.3V19C26.5,19.2,26.4,19.4,26.2,19.4z M24.2,18.6h1.6v-1.2c0-0.1,0.1-0.3,0.2-0.3l1.1-0.5
	c0.1-0.1,0.3,0,0.4,0.1l0.8,0.8l1.2-1.2l-0.8-0.8c-0.1-0.1-0.1-0.3-0.1-0.4l0.5-1.1c0.1-0.1,0.2-0.2,0.3-0.2h1.2v-1.6h-1.2
	c-0.1,0-0.3-0.1-0.3-0.2l-0.5-1.1c-0.1-0.1,0-0.3,0.1-0.4l0.8-0.8l-1.2-1.2l-0.8,0.8c-0.1,0.1-0.3,0.1-0.4,0.1L26,8.9
	c-0.1-0.1-0.2-0.2-0.2-0.3V7.4h-1.6v1.2c0,0.1-0.1,0.3-0.2,0.3l-1.1,0.5c-0.1,0.1-0.3,0-0.4-0.1l-0.8-0.8l-1.2,1.2l0.8,0.8
	c0.1,0.1,0.1,0.3,0.1,0.4L20.9,12c-0.1,0.1-0.2,0.2-0.3,0.2h-1.2v1.6h1.2c0.1,0,0.3,0.1,0.3,0.2l0.5,1.1c0.1,0.1,0,0.3-0.1,0.4
	l-0.8,0.8l1.2,1.2l0.8-0.8c0.1-0.1,0.3-0.1,0.4-0.1l1.1,0.5c0.1,0.1,0.2,0.2,0.2,0.3V18.6z M25,15.9c-1.6,0-2.9-1.3-2.9-2.9
	s1.3-2.9,2.9-2.9s2.9,1.3,2.9,2.9S26.6,15.9,25,15.9z M25,10.9c-1.2,0-2.1,1-2.1,2.1s1,2.1,2.1,2.1s2.1-1,2.1-2.1S26.2,10.9,25,10.9
	z M14.8,10.4h-1.6c-0.2,0-0.4-0.2-0.4-0.4V9.2l-0.3-0.1L12,9.6c-0.1,0.1-0.4,0.1-0.5,0l-1.1-1.1c-0.1-0.1-0.1-0.4,0-0.5l0.6-0.6
	l-0.1-0.3H10C9.8,7.1,9.6,7,9.6,6.8V5.2C9.6,5,9.8,4.9,10,4.9h0.8l0.1-0.3L10.4,4c-0.1-0.1-0.1-0.4,0-0.5l1.1-1.1
	c0.1-0.1,0.2-0.1,0.3-0.1l0,0c0.1,0,0.2,0,0.3,0.1l0.6,0.6l0.3-0.1V2c0-0.2,0.2-0.4,0.4-0.4h1.6c0.2,0,0.4,0.2,0.4,0.4v0.8l0.3,0.1
	L16,2.4c0.1-0.1,0.2-0.1,0.3-0.1l0,0c0.1,0,0.2,0,0.3,0.1l1.1,1.1c0.1,0.1,0.1,0.4,0,0.5l-0.6,0.6l0.1,0.3H18c0.2,0,0.4,0.2,0.4,0.4
	v1.6c0,0.2-0.2,0.4-0.4,0.4h-0.8l-0.1,0.3L17.6,8c0.1,0.1,0.1,0.4,0,0.5l-1.1,1.1c-0.1,0.1-0.4,0.1-0.5,0l-0.6-0.6l-0.3,0.1V10
	C15.1,10.2,15,10.4,14.8,10.4z M13.6,9.6h0.9V9c0-0.1,0.1-0.3,0.2-0.3l0.8-0.3c0.1-0.1,0.3,0,0.4,0.1l0.5,0.5l0.6-0.6l-0.5-0.5
	c-0.1-0.1-0.1-0.3-0.1-0.4l0.3-0.8c0.1-0.1,0.2-0.2,0.3-0.2h0.7V5.6H17c-0.1,0-0.3-0.1-0.3-0.2l-0.3-0.8c-0.1-0.1,0-0.3,0.1-0.4
	l0.5-0.5l-0.6-0.6l-0.5,0.5c-0.1,0.1-0.3,0.1-0.4,0.1l-0.8-0.3c-0.1-0.1-0.2-0.2-0.2-0.3V2.4h-0.9V3c0,0.1-0.1,0.3-0.2,0.3l-0.8,0.3
	c-0.1,0.1-0.3,0-0.4-0.1l-0.5-0.5l-0.6,0.6l0.5,0.5c0.1,0.1,0.1,0.3,0.1,0.4l-0.3,0.8c-0.1,0.1-0.2,0.2-0.3,0.2h-0.7v0.9H11
	c0.1,0,0.3,0.1,0.3,0.2l0.3,0.8c0.1,0.1,0,0.3-0.1,0.4l-0.5,0.5l0.6,0.6l0.5-0.5c0.1-0.1,0.3-0.1,0.4-0.1l0.8,0.3
	c0.1,0.1,0.2,0.2,0.2,0.3V9.6z M14,7.4c-0.8,0-1.4-0.6-1.4-1.4s0.6-1.4,1.4-1.4s1.4,0.6,1.4,1.4S14.8,7.4,14,7.4z M14,5.4
	c-0.4,0-0.6,0.3-0.6,0.6s0.3,0.6,0.6,0.6s0.6-0.3,0.6-0.6S14.4,5.4,14,5.4z"/>
<rect id="_Transparent_Rectangle" style="fill:none;" class="st0" width="32" height="32"/>
</svg>
