<?xml version="1.0" encoding="utf-8"?>
<!-- Generator: Adobe Illustrator 24.1.0, SVG Export Plug-In . SVG Version: 6.00 Build 0)  -->
<svg slot="pictogram" focusable="false" preserveAspectRatio="xMidYMid meet" xmlns="http://www.w3.org/2000/svg" data-autoid="dds--card__pictogram" aria-label="Pictogram description" width="48" height="48" viewBox="0 0 32 32" role="img" class="bx--card__pictogram">
<path id="automation" d="M22.2,30.4c-3.9,0-7.1-3.2-7.1-7.1s3.2-7.1,7.1-7.1s7.1,3.2,7.1,7.1S26.2,30.4,22.2,30.4z
	 M22.2,16.9c-3.5,0-6.4,2.9-6.4,6.4s2.9,6.4,6.4,6.4s6.4-2.9,6.4-6.4S25.8,16.9,22.2,16.9z M14.8,30.3l-12-7
	c-0.1-0.1-0.2-0.2-0.2-0.3V9h0.7v13.8l11.8,6.9L14.8,30.3z M22,26.4c-0.1,0-0.2,0-0.3-0.1l-2.6-2.6l0.5-0.5l2.3,2.3l4-4l0.5,0.5
	l-4.3,4.3C22.2,26.3,22.1,26.4,22,26.4z M7.4,16H6.6V6h0.7V16z M27.4,15h-0.7V9.2L15,2.4l-3.6,2.1V13h-0.7V4.3
	c0-0.1,0.1-0.2,0.2-0.3l4-2.3c0.1-0.1,0.3-0.1,0.4,0l12,7c0.1,0.1,0.2,0.2,0.2,0.3V15z"/>
<rect id="_Transparent_Rectangle" style="fill:none;" class="st0" width="32" height="32"/>
</svg>
