<?xml version="1.0" encoding="utf-8"?>
<!-- Generator: Adobe Illustrator 24.1.0, SVG Export Plug-In . SVG Version: 6.00 Build 0)  -->
<svg slot="pictogram" focusable="false" preserveAspectRatio="xMidYMid meet" xmlns="http://www.w3.org/2000/svg" data-autoid="dds--card__pictogram" aria-label="Pictogram description" width="48" height="48" viewBox="0 0 32 32" role="img" class="bx--card__pictogram">
<path id="cloudinfrastructure" d="M27.5,23.6c-0.1,0-0.3-0.1-0.3-0.2c-0.1-0.2,0-0.4,0.2-0.5c2.1-1,3.3-3.1,3.3-5.4
	c0-3.2-2.5-5.8-5.6-6c-0.2,0-0.3-0.1-0.3-0.3c-0.5-4.4-4.3-7.8-8.8-7.8c-4.5,0-8.2,3.3-8.8,7.8c0,0.2-0.2,0.3-0.3,0.3
	c-3.1,0.3-5.5,2.9-5.5,6c0,2.2,1.2,4.3,3.2,5.4c0.2,0.1,0.2,0.3,0.1,0.5c-0.1,0.2-0.3,0.2-0.5,0.1c-2.2-1.2-3.6-3.5-3.6-6
	c0-3.4,2.5-6.3,5.9-6.7c0.7-4.6,4.7-8.1,9.4-8.1c4.7,0,8.7,3.5,9.4,8.1c3.4,0.4,6,3.3,6,6.7c0,2.6-1.4,4.9-3.7,6.1
	C27.6,23.6,27.6,23.6,27.5,23.6z M20.6,11.8h-9v0.7h9V11.8z M23,17.6H9.2v0.7H23V17.6z M24.5,29v-5.8c0-0.2-0.2-0.4-0.4-0.4H8
	c-0.2,0-0.4,0.2-0.4,0.4V29c0,0.2,0.2,0.4,0.4,0.4h16.1C24.3,29.4,24.5,29.2,24.5,29z M8.4,23.6h15.4v5H8.4V23.6z M13,26.1
	c0-0.2-0.2-0.4-0.4-0.4h-2.3c-0.2,0-0.4,0.2-0.4,0.4s0.2,0.4,0.4,0.4h2.3C12.8,26.5,13,26.3,13,26.1z"/>
<rect id="_Transparent_Rectangle" style="fill:none;" class="st0" width="32" height="32"/>
</svg>
