<?xml version="1.0" encoding="utf-8"?>
<!-- Generator: Adobe Illustrator 24.1.0, SVG Export Plug-In . SVG Version: 6.00 Build 0)  -->
<svg slot="pictogram" focusable="false" preserveAspectRatio="xMidYMid meet" xmlns="http://www.w3.org/2000/svg" data-autoid="dds--card__pictogram" aria-label="Pictogram description" width="48" height="48" viewBox="0 0 32 32" role="img" class="bx--card__pictogram">
<path id="cloudprovisioning" d="M21,22.4h-2v-0.7h2V22.4z M15,18.4h2v-0.7h-2V18.4z M31.4,15.9c0-3.1-2.4-5.8-5.4-6.1
	c-0.4-4-3.7-7.1-7.8-7.1c-2.9,0-5.6,1.6-7,4.2c-0.9-0.3-1.8-0.5-2.7-0.5c-4.3,0-7.8,3.5-7.8,7.9c0,4.1,2.8,7.6,6.7,8.1H11
	c0.2,0,0.4-0.2,0.4-0.4s-0.2-0.4-0.4-0.4l-3.6,0c-3.4-0.5-6-3.7-6-7.4c0-3.9,3.2-7.1,7.1-7.1c0.9,0,1.8,0.2,2.7,0.5
	c0.2,0.1,0.4,0,0.5-0.2c1.2-2.5,3.7-4.1,6.5-4.1c3.8,0,6.9,3,7.1,6.8c0,0.2,0.2,0.3,0.3,0.3c2.9,0.2,5.1,2.6,5.1,5.5
	c0,2.3-1.4,4.6-3.3,5.5V20c0-0.2-0.2-0.4-0.4-0.4h-3.6V16c0-0.2-0.2-0.4-0.4-0.4H13c-0.2,0-0.4,0.2-0.4,0.4v9c0,0.2,0.2,0.4,0.4,0.4
	h3.6V29c0,0.2,0.2,0.4,0.4,0.4h10c0.2,0,0.4-0.2,0.4-0.4v-6.8C29.6,21.3,31.4,18.6,31.4,15.9z M16.6,20v4.6h-3.3v-8.3h9.3v3.3H17
	C16.8,19.6,16.6,19.8,16.6,20z M22.6,20.4v4.3h-5.3v-4.3H22.6z M26.6,28.6h-9.3v-3.3H23c0.2,0,0.4-0.2,0.4-0.4v-4.6h3.3V28.6z"/>
<rect id="_Transparent_Rectangle" style="fill:none;" class="st0" width="32" height="32"/>
</svg>
