<?xml version="1.0" encoding="utf-8"?>
<!-- Generator: Adobe Illustrator 24.1.0, SVG Export Plug-In . SVG Version: 6.00 Build 0)  -->
<svg slot="pictogram" focusable="false" preserveAspectRatio="xMidYMid meet" xmlns="http://www.w3.org/2000/svg" data-autoid="dds--card__pictogram" aria-label="Pictogram description" width="48" height="48" viewBox="0 0 32 32" role="img" class="bx--card__pictogram">
<path id="cloudbroker" d="M18.9,31.4h-6c-0.2,0-0.4-0.2-0.4-0.4v-4h0.7v3.6h5.3V27c0-0.1,0.1-0.3,0.2-0.3l2.7-1.1
	c0.1-0.1,0.3,0,0.4,0.1l2.6,2.6l3.7-3.7l-2.6-2.6c-0.1-0.1-0.1-0.3-0.1-0.4l1.1-2.7c0.1-0.1,0.2-0.2,0.3-0.2h3.6v-5.3h-3.6
	c-0.1,0-0.3-0.1-0.3-0.2l-1.1-2.7l0.7-0.3l1,2.4h3.7c0.2,0,0.4,0.2,0.4,0.4v6c0,0.2-0.2,0.4-0.4,0.4h-3.7l-0.9,2.2l2.6,2.6
	c0.1,0.1,0.1,0.2,0.1,0.3s0,0.2-0.1,0.3L24.6,29c-0.1,0.1-0.2,0.1-0.3,0.1l0,0c-0.1,0-0.2,0-0.3-0.1l-2.6-2.6l-2.2,0.9V31
	C19.3,31.2,19.1,31.4,18.9,31.4z M6.6,21.5l-1.1-2.7c-0.1-0.1-0.2-0.2-0.3-0.2H1.5v-5.3h3.6c0.1,0,0.3-0.1,0.3-0.2l1.1-2.7
	c0.1-0.1,0-0.3-0.1-0.4L3.9,7.5l3.7-3.7l2.6,2.6c0.1,0.1,0.3,0.1,0.4,0.1l2.7-1.1c0.1-0.1,0.2-0.2,0.2-0.3V1.4h5.3V5h0.7V1
	c0-0.2-0.2-0.4-0.4-0.4h-6c-0.2,0-0.4,0.2-0.4,0.4v3.7l-2.2,0.9L7.9,3C7.8,2.9,7.7,2.9,7.6,2.9l0,0c-0.1,0-0.2,0-0.3,0.1L3.2,7.2
	C3.1,7.3,3,7.4,3,7.5c0,0.1,0,0.2,0.1,0.3l2.6,2.6l-0.9,2.2H1.1c-0.2,0-0.4,0.2-0.4,0.4v6c0,0.2,0.2,0.4,0.4,0.4h3.7l1,2.4L6.6,21.5
	z M23.6,16c0-4.1-3.3-7.4-7.4-7.4c-4.1,0-7.4,3.3-7.4,7.4c0,4.1,3.3,7.4,7.4,7.4C20.2,23.4,23.6,20.1,23.6,16z M22.8,16
	c0,3.7-3,6.7-6.7,6.7s-6.7-3-6.7-6.7s3-6.7,6.7-6.7S22.8,12.3,22.8,16z M25.2,4.3H30l-2.3,2.3l0.5,0.5l2.9-2.9
	c0.1-0.1,0.1-0.2,0.1-0.3s0-0.2-0.1-0.3l-2.9-2.9l-0.5,0.5L30,3.5h-5c-0.1,0-0.2,0-0.3,0.1l-3.9,3.9L21.4,8L25.2,4.3z M4.3,30.7
	L2,28.5h5c0.1,0,0.2,0,0.3-0.1l3.9-3.9L10.6,24l-3.8,3.8H2l2.3-2.3l-0.5-0.5l-2.9,2.9c-0.1,0.1-0.1,0.2-0.1,0.3s0,0.2,0.1,0.3
	l2.9,2.9L4.3,30.7z"/>
<rect id="_Transparent_Rectangle" style="fill:none;" width="32" height="32"/>
</svg>
