<?xml version="1.0" encoding="utf-8"?>
<!-- Generator: Adobe Illustrator 24.1.0, SVG Export Plug-In . SVG Version: 6.00 Build 0)  -->
<svg slot="pictogram" focusable="false" preserveAspectRatio="xMidYMid meet" xmlns="http://www.w3.org/2000/svg" data-autoid="dds--card__pictogram" aria-label="Pictogram description" width="48" height="48" viewBox="0 0 32 32" role="img" class="bx--card__pictogram">
<path id="devexperience" d="M14.8,30.3l-12-7c-0.1-0.1-0.2-0.2-0.2-0.3V9h0.7v13.8l11.8,6.9L14.8,30.3z M7.4,16H6.6V6h0.7
	V16z M27.4,15h-0.7V9.2L15,2.4l-3.6,2.1l0,8.5l-0.7,0l0-8.7c0-0.1,0.1-0.2,0.2-0.3l4-2.3c0.1-0.1,0.3-0.1,0.4,0l12,7
	c0.1,0.1,0.2,0.2,0.2,0.3V15z M29.5,22l-4.3-4.3l-0.5,0.5l3.7,3.7l-3.7,3.7l0.5,0.5L29.5,22z M20.3,25.7L16.5,22l3.7-3.7l-0.5-0.5
	L15.5,22l4.3,4.3L20.3,25.7z"/>
<rect id="_Transparent_Rectangle" style="fill:none;" class="st0" width="32" height="32"/>
</svg>
