<?xml version="1.0" encoding="utf-8"?>
<!-- Generator: Adobe Illustrator 26.3.1, SVG Export Plug-In . SVG Version: 6.00 Build 0)  -->
<svg slot="pictogram" focusable="false" preserveAspectRatio="xMidYMid meet" xmlns="http://www.w3.org/2000/svg" data-autoid="dds--card__pictogram" aria-label="Pictogram description" width="48" height="48" viewBox="0 0 32 32" role="img" class="bx--card__pictogram">
<path id="data--apis_1_" d="M24,27.6c-2,0-3.7-1.6-3.7-3.7c0-0.9,0.3-1.7,0.9-2.4l-2.9-2.9c-0.9,0.8-2.2,1.4-3.5,1.4
	c-1.4,0-2.6-0.5-3.5-1.4l-2.9,2.9c0.5,0.6,0.9,1.5,0.9,2.4c0,2-1.6,3.7-3.7,3.7S1.9,26,1.9,24s1.6-3.7,3.7-3.7
	c0.9,0,1.7,0.3,2.4,0.9l2.9-2.9c-0.8-0.9-1.4-2.2-1.4-3.5s0.5-2.6,1.4-3.5L7.9,8.3C7.3,8.9,6.5,9.2,5.6,9.2c-2,0-3.7-1.6-3.7-3.7
	s1.6-3.7,3.7-3.7s3.7,1.6,3.7,3.7c0,0.9-0.3,1.7-0.9,2.4l2.9,2.9c0.9-0.8,2.2-1.4,3.5-1.4c1.4,0,2.6,0.5,3.5,1.4l2.9-2.9
	c-0.5-0.6-0.9-1.5-0.9-2.4c0-2,1.6-3.7,3.7-3.7s3.7,1.6,3.7,3.7S26,9.2,24,9.2c-0.9,0-1.7-0.3-2.4-0.9l-2.9,2.9
	c0.8,0.9,1.4,2.2,1.4,3.5s-0.5,2.6-1.4,3.5l2.9,2.9c0.6-0.5,1.5-0.9,2.4-0.9c2,0,3.7,1.6,3.7,3.7S26,27.6,24,27.6z M24,20.9
	c-1.7,0-3.1,1.4-3.1,3.1S22.3,27,24,27c1.7,0,3.1-1.4,3.1-3.1S25.7,20.9,24,20.9z M5.6,20.9c-1.7,0-3.1,1.4-3.1,3.1S3.9,27,5.6,27
	s3.1-1.4,3.1-3.1S7.3,20.9,5.6,20.9z M14.8,10c-2.6,0-4.7,2.1-4.7,4.7s2.1,4.7,4.7,4.7s4.7-2.1,4.7-4.7C19.5,12.2,17.4,10,14.8,10z
	 M24,2.5c-1.7,0-3.1,1.4-3.1,3.1s1.4,3.1,3.1,3.1c1.7,0,3.1-1.4,3.1-3.1S25.7,2.5,24,2.5z M5.6,2.5c-1.7,0-3.1,1.4-3.1,3.1
	s1.4,3.1,3.1,3.1s3.1-1.4,3.1-3.1S7.3,2.5,5.6,2.5z"/>
</svg>
