<?xml version="1.0" encoding="utf-8"?>
<!-- Generator: Adobe Illustrator 24.1.0, SVG Export Plug-In . SVG Version: 6.00 Build 0)  -->
<svg slot="pictogram" focusable="false" preserveAspectRatio="xMidYMid meet" xmlns="http://www.w3.org/2000/svg" data-autoid="dds--card__pictogram" aria-label="Pictogram description" width="48" height="48" viewBox="0 0 32 32" role="img" class="bx--card__pictogram">
<path id="fhe" d="M16.3,10.9l0,11.1c0,0.2-0.2,0.4-0.4,0.4c0,0,0,0,0,0c-0.2,0-0.4-0.2-0.4-0.4l0-11.1l-2.4,2.4
	c-0.1,0.1-0.4,0.1-0.5,0s-0.1-0.4,0-0.5l3-3c0.1-0.1,0.2-0.1,0.3-0.1c0,0,0,0,0,0c0.1,0,0.2,0,0.3,0.1l0,0l3,3
	c0.1,0.1,0.1,0.4,0,0.5c-0.1,0.1-0.2,0.1-0.3,0.1s-0.2,0-0.3-0.1L16.3,10.9z M23.5,0.6c-4.3,0-7.9,3.5-7.9,7.9
	c0,0.2,0.2,0.4,0.4,0.4s0.4-0.2,0.4-0.4c0-3.9,3.2-7.1,7.1-7.1s7.1,3.2,7.1,7.1s-3.2,7.1-7.1,7.1h-5.6c-0.2,0-0.4,0.2-0.4,0.4
	s0.2,0.4,0.4,0.4h5.6c4.3,0,7.9-3.5,7.9-7.9S27.8,0.6,23.5,0.6z M10.8,20.3v2.6c0.6,0.6,1,1.5,1,2.4c0,1.9-1.5,3.4-3.4,3.4
	s-3.4-1.5-3.4-3.4c0-0.9,0.4-1.8,1-2.4v-2.6c0-1.3,1.1-2.4,2.4-2.4S10.8,19,10.8,20.3z M10.2,23.3L10.2,23.3L10.2,23.3
	c-0.5-0.4-1.1-0.6-1.7-0.6s-1.2,0.2-1.6,0.6v0.1H6.8c-0.6,0.5-0.9,1.2-0.9,2c0,1.5,1.2,2.6,2.6,2.6s2.6-1.2,2.6-2.6
	C11.1,24.5,10.8,23.7,10.2,23.3z M10.1,22.4v-2.1c0-0.9-0.7-1.6-1.6-1.6s-1.6,0.7-1.6,1.6v2.1c0.5-0.3,1-0.4,1.6-0.4
	S9.6,22.1,10.1,22.4z M8.5,24.1c-0.3,0-0.6,0.3-0.6,0.6c0,0.2,0.1,0.4,0.2,0.5v0.7c0,0.2,0.2,0.4,0.4,0.4s0.4-0.2,0.4-0.4v-0.7
	C9,25,9.1,24.9,9.1,24.7C9.1,24.3,8.8,24.1,8.5,24.1z M25.9,5v2.6c0.6,0.6,1,1.5,1,2.4c0,1.9-1.5,3.4-3.4,3.4s-3.4-1.5-3.4-3.4
	c0-0.9,0.4-1.8,1-2.4V5c0-1.3,1.1-2.4,2.4-2.4S25.9,3.7,25.9,5z M25.2,8L25.2,8L25.2,8c-0.5-0.4-1.1-0.6-1.7-0.6s-1.2,0.2-1.6,0.6V8
	h-0.1c-0.6,0.5-0.9,1.2-0.9,2c0,1.5,1.2,2.6,2.6,2.6s2.6-1.2,2.6-2.6C26.1,9.2,25.8,8.5,25.2,8z M25.1,7.1V5c0-0.9-0.7-1.6-1.6-1.6
	S21.9,4.1,21.9,5v2.1c0.5-0.3,1-0.4,1.6-0.4S24.7,6.8,25.1,7.1z M23.5,8.8c-0.3,0-0.6,0.3-0.6,0.6c0,0.2,0.1,0.4,0.2,0.5v0.7
	c0,0.2,0.2,0.4,0.4,0.4s0.4-0.2,0.4-0.4V9.9c0.1-0.1,0.2-0.3,0.2-0.5C24.1,9.1,23.8,8.8,23.5,8.8z M16,23.2c-0.2,0-0.4,0.2-0.4,0.4
	c0,3.9-3.2,7.1-7.1,7.1s-7.1-3.2-7.1-7.1s3.2-7.1,7.1-7.1h5.6c0.2,0,0.4-0.2,0.4-0.4s-0.2-0.4-0.4-0.4H8.5c-4.3,0-7.9,3.5-7.9,7.9
	s3.5,7.9,7.9,7.9s7.9-3.5,7.9-7.9C16.3,23.3,16.2,23.2,16,23.2z"/>
<rect id="_Transparent_Rectangle" style="fill:none;" class="st0" width="32" height="32"/>
</svg>
