<?xml version="1.0" encoding="utf-8"?>
<!-- Generator: Adobe Illustrator 24.1.0, SVG Export Plug-In . SVG Version: 6.00 Build 0)  -->
<svg slot="pictogram" focusable="false" preserveAspectRatio="xMidYMid meet" xmlns="http://www.w3.org/2000/svg" data-autoid="dds--card__pictogram" aria-label="Pictogram description" width="48" height="48" viewBox="0 0 32 32" role="img" class="bx--card__pictogram">
<path id="hpvs" d="M27,19V2.6c0-0.8-0.7-1.5-1.5-1.5H14.7H14H3.2c-0.8,0-1.5,0.7-1.5,1.5v24.5c0,0.8,0.7,1.5,1.5,1.5H14h0.4h0.4V1.9
	h10.8c0.4,0,0.8,0.3,0.8,0.8V19h-5.6V26c0,3.6,4.5,4.8,4.6,4.8l0.1,0l0.1,0c0.2,0,4.8-1.2,4.8-4.8V19H27z M2.4,27.2
	C2.4,27.2,2.4,27.2,2.4,27.2l0-24.5c0-0.1,0-0.2,0.1-0.3c0,0,0,0,0,0l11.3,9.3L2.4,27.2z M3.2,27.9c-0.1,0-0.2,0-0.3-0.1L14,12.6
	v15.3H3.2z M14,10.8L3.1,1.9c0,0,0.1,0,0.1,0H14V10.8z M29.6,26c0,2.8-3.6,3.9-4.2,4.1c-0.6-0.2-4-1.3-4-4.1v-6.3h8.2V26z"/>
<rect id="_Transparent_Rectangle" style="fill:none;" class="st0" width="32" height="32"/>
</svg>
