<svg slot="pictogram" focusable="false" preserveAspectRatio="xMidYMid meet" xmlns="http://www.w3.org/2000/svg" data-autoid="dds--card__pictogram" aria-label="Pictogram description" width="48" height="48" viewBox="0 0 32 32" role="img" class="bx--card__pictogram"><path d="M16,28.36H7.21a4.58,4.58,0,0,1-4.57-4.57V22.64H6.69V5.38A2.74,2.74,0,0,1,9.43,2.64H26.57a2.74,2.74,0,0,1,2.74,2.74v3H24.36V14h-.72V5.5a2.85,2.85,0,0,1,1-2.14H9.43a2,2,0,0,0-2,2V22.64H16v.72H3.36v.43a3.86,3.86,0,0,0,3.85,3.85H16ZM24.36,7.64h4.23V5.38a2,2,0,0,0-2-2A2.16,2.16,0,0,0,24.36,5.5ZM20,7.64H11v.72h9Zm0,5H11v.72h9Zm-4,5H11v.72h5ZM25,29.4l-1.87-.89a4.38,4.38,0,0,1-2.49-3.93V18.64h8.72v5.93a4.38,4.38,0,0,1-2.49,3.94Zm-3.64-10v5.21a3.66,3.66,0,0,0,2.08,3.29L25,28.6l1.56-.74a3.66,3.66,0,0,0,2.08-3.29V19.36Z"/></svg>