<?xml version="1.0" encoding="utf-8"?>
<!-- Generator: Adobe Illustrator 24.1.0, SVG Export Plug-In . SVG Version: 6.00 Build 0)  -->
<svg slot="pictogram" focusable="false" preserveAspectRatio="xMidYMid meet" xmlns="http://www.w3.org/2000/svg" data-autoid="dds--card__pictogram" aria-label="Pictogram description" width="48" height="48" viewBox="0 0 32 32" role="img" class="bx--card__pictogram">
<path id="izoda" d="M16.4,16.4h7.3c0.2,1.1,1.1,2,2.3,2c1.3,0,2.4-1.1,2.4-2.4c0-1.3-1.1-2.4-2.4-2.4c-1.2,0-2.1,0.9-2.3,2h-7.3V3.4
	h7.3c0.2,1.1,1.1,2,2.3,2c1.3,0,2.4-1.1,2.4-2.4S27.3,0.6,26,0.6c-1.2,0-2.1,0.9-2.3,2H16c-0.2,0-0.4,0.2-0.4,0.4v12.6H8.3
	c-0.2-1.1-1.1-2-2.3-2c-1.3,0-2.4,1.1-2.4,2.4c0,1.3,1.1,2.4,2.4,2.4c1.2,0,2.1-0.9,2.3-2h7.3V29c0,0.2,0.2,0.4,0.4,0.4h7.7
	c0.2,1.1,1.1,2,2.3,2c1.3,0,2.4-1.1,2.4-2.4s-1.1-2.4-2.4-2.4c-1.2,0-2.1,0.9-2.3,2h-7.3V16.4z M26,14.4c0.9,0,1.6,0.7,1.6,1.6
	s-0.7,1.6-1.6,1.6s-1.6-0.7-1.6-1.6S25.1,14.4,26,14.4z M26,1.4c0.9,0,1.6,0.7,1.6,1.6S26.9,4.6,26,4.6S24.4,3.9,24.4,3
	S25.1,1.4,26,1.4z M6,17.6c-0.9,0-1.6-0.7-1.6-1.6s0.7-1.6,1.6-1.6s1.6,0.7,1.6,1.6S6.9,17.6,6,17.6z M26,27.4
	c0.9,0,1.6,0.7,1.6,1.6s-0.7,1.6-1.6,1.6s-1.6-0.7-1.6-1.6S25.1,27.4,26,27.4z"/>
<rect id="_Transparent_Rectangle" style="fill:none;" class="st0" width="32" height="32"/>
</svg>
