<?xml version="1.0" encoding="UTF-8"?>
<svg slot="pictogram" focusable="false" preserveAspectRatio="xMidYMid meet" xmlns="http://www.w3.org/2000/svg" data-autoid="dds--card__pictogram" aria-label="Pictogram description" width="48" height="48" viewBox="0 0 32 32" role="img" class="bx--card__pictogram">
<defs>
<style>.f{stroke-linejoin:round;}.f,.g{fill:none;stroke:#000;stroke-width:.72px;}.g{stroke-miterlimit:10;}</style>
</defs>
<g id="a"/>
<g id="b">
<g id="c">
<g id="d">
<path class="g" d="M17.36,29.36l3-3-3-3"/>
<path class="f" d="M.36,8.36v-.5c0-1.83,1.23-3.35,2.9-3.83-.54-.36-.9-.97-.9-1.67,0-1.1,.9-2,2-2s2,.9,2,2c0,.7-.36,1.31-.9,1.67,1.67,.48,2.9,2,2.9,3.83v.5m13,7h3.5c3.04,0,5.5-2.46,5.5-5.5s-2.46-5.5-5.5-5.5H10.36m-1,11h-3.5c-3.04,0-5.5,2.46-5.5,5.5,0,3.04,2.46,5.5,5.5,5.5h14.5"/>
</g><path d="M25.54,24.36h-.81l-1.36,4h.66l.35-1.08h1.5l.36,1.08h.68l-1.36-4Zm-1.01,2.36l.58-1.76h.03l.57,1.76h-1.18Z"/>
<polygon points="27.62 28.36 27.62 27.83 28.16 27.83 28.16 24.89 27.62 24.89 27.62 24.36 29.36 24.36 29.36 24.89 28.81 24.89 28.81 27.83 29.36 27.83 29.36 28.36 27.62 28.36"/>
<path id="e" class="f" d="M13.04,12.11l1.39-2.32,2.32-.93m0,3.25l-2.32,1.39-1.39,1.86m0,3.25l2.32-1.39,1.39-1.86m-3.71,6.5l2.32-.93,1.39-2.32m.93-9.75h-4.64v13h4.64V8.86Zm-4.64,3.25h3.71m-3.71,3.25h3.71m-3.71,3.25h3.71m0-9.75v13"/>
</g>
</g>
</svg>