<?xml version="1.0" encoding="utf-8"?>
<!-- Generator: Adobe Illustrator 24.1.0, SVG Export Plug-In . SVG Version: 6.00 Build 0)  -->
<svg slot="pictogram" focusable="false" preserveAspectRatio="xMidYMid meet" xmlns="http://www.w3.org/2000/svg" data-autoid="dds--card__pictogram" aria-label="Pictogram description" width="48" height="48" viewBox="0 0 32 32" role="img" class="bx--card__pictogram">
<path id="journeytocloud" d="M25.2,20.1C25.2,20.1,25.1,20.1,25.2,20.1c-0.3,0-0.5-0.2-0.5-0.4c0-0.2,0.1-0.3,0.3-0.3c0,0,0,0,0,0
	l0.1,0.4v-0.4c3,0,5.5-2.4,5.5-5.5c0-2.9-2.2-5.3-5.1-5.5c-0.2,0-0.3-0.2-0.3-0.3c-0.2-3.8-3.3-6.8-7.1-6.8c-2.8,0-5.3,1.6-6.5,4.1
	c-0.1,0.2-0.3,0.3-0.5,0.2c-0.9-0.4-1.8-0.5-2.7-0.5c-3.9,0-7.1,3.2-7.1,7.1c0,3.6,2.6,6.6,6.1,7.1c0.2,0,0.3,0.2,0.3,0.4
	c0,0.2-0.2,0.3-0.4,0.3c-3.9-0.5-6.8-3.9-6.8-7.8c0-4.3,3.5-7.9,7.8-7.9c0.9,0,1.8,0.2,2.7,0.5c1.3-2.6,4-4.2,7-4.2
	c4.1,0,7.4,3.1,7.8,7.1c3.1,0.4,5.4,3,5.4,6.1C31.4,17.3,28.6,20.1,25.2,20.1z M21.4,12v19h-0.7v-1.6h-9.3V31h-0.7V12h0.7v1.6h9.3
	V12H21.4z M11.4,14.4v4.3h9.3v-4.3H11.4z M11.4,19.4v4.3h9.3v-4.3H11.4z M20.6,28.6v-4.3h-9.3v4.3H20.6z"/>
<rect id="_Transparent_Rectangle" style="fill:none;" class="st0" width="32" height="32"/>
</svg>
