<?xml version="1.0" encoding="utf-8"?>
<!-- Generator: Adobe Illustrator 24.1.0, SVG Export Plug-In . SVG Version: 6.00 Build 0)  -->
<svg slot="pictogram" focusable="false" preserveAspectRatio="xMidYMid meet" xmlns="http://www.w3.org/2000/svg" data-autoid="dds--card__pictogram" aria-label="Pictogram description" width="48" height="48" viewBox="0 0 32 32" role="img" class="bx--card__pictogram">
<path id="pervasiveencryption" d="M16,17.4c3,0,5.4-2.4,5.4-5.4c0-1.7-0.8-3.2-2-4.2V4c0-1.9-1.5-3.4-3.4-3.4S12.6,2.1,12.6,4v3.8
	c-1.2,1-2,2.5-2,4.2C10.6,15,13,17.4,16,17.4z M13.4,4c0-1.5,1.2-2.6,2.6-2.6c1.5,0,2.6,1.2,2.6,2.6v3.3C17.9,6.9,17,6.6,16,6.6
	s-1.9,0.3-2.6,0.7V4z M16,7.4c2.6,0,4.6,2.1,4.6,4.6s-2.1,4.6-4.6,4.6s-4.6-2.1-4.6-4.6S13.4,7.4,16,7.4z M29.4,26.7V23
	c0-0.2-0.2-0.4-0.4-0.4H16.4V19h-0.7v3.6H3c-0.2,0-0.4,0.2-0.4,0.4v3.7c-1.1,0.2-2,1.1-2,2.3c0,1.3,1.1,2.4,2.4,2.4s2.4-1.1,2.4-2.4
	c0-1.2-0.9-2.1-2-2.3v-3.3h12.3v3.3c-1.1,0.2-2,1.1-2,2.3c0,1.3,1.1,2.4,2.4,2.4c1.3,0,2.4-1.1,2.4-2.4c0-1.2-0.9-2.1-2-2.3v-3.3
	h12.3v3.3c-1.1,0.2-2,1.2-2,2.3c0,1.3,1.1,2.4,2.4,2.4s2.4-1.1,2.4-2.4C31.4,27.8,30.5,26.8,29.4,26.7z M4.6,29
	c0,0.9-0.7,1.6-1.6,1.6S1.4,29.9,1.4,29s0.7-1.6,1.6-1.6S4.6,28.1,4.6,29z M17.6,29c0,0.9-0.7,1.6-1.6,1.6s-1.6-0.7-1.6-1.6
	s0.7-1.6,1.6-1.6S17.6,28.1,17.6,29z M29,30.6c-0.9,0-1.6-0.7-1.6-1.6s0.7-1.6,1.6-1.6s1.6,0.7,1.6,1.6S29.9,30.6,29,30.6z M15,11
	c0-0.6,0.4-1,1-1s1,0.4,1,1c0,0.4-0.3,0.8-0.6,0.9V13c0,0.2-0.2,0.4-0.4,0.4s-0.4-0.2-0.4-0.4v-1.1C15.3,11.8,15,11.4,15,11z"/>
<rect id="_Transparent_Rectangle" style="fill:none;" class="st0" width="32" height="32"/>
</svg>
