<?xml version="1.0" encoding="utf-8"?>
<!-- Generator: Adobe Illustrator 24.1.0, SVG Export Plug-In . SVG Version: 6.00 Build 0)  -->
<svg slot="pictogram" focusable="false" preserveAspectRatio="xMidYMid meet" xmlns="http://www.w3.org/2000/svg" data-autoid="dds--card__pictogram" aria-label="Pictogram description" width="48" height="48" viewBox="0 0 32 32" role="img" class="bx--card__pictogram">
<path id="resilience" d="M31.4,16c0,0.6-0.1,1.3-0.1,1.9c0,0,0,0,0,0.1l-0.1,0.4c0,0,0,0,0,0.1c-0.1,0.6-0.2,1.3-0.4,1.9
	c0,0,0,0.1,0,0.1l-0.1,0.4c0,0,0,0,0,0c-0.2,0.6-0.4,1.2-0.7,1.8c0,0,0,0.1,0,0.1c-0.1,0.1-0.1,0.2-0.2,0.3c0,0,0,0,0,0
	c-0.3,0.6-0.6,1.1-1,1.7c0,0,0,0,0,0L28.5,25c0,0,0,0-0.1,0.1c-0.4,0.5-0.8,1-1.2,1.5c0,0,0,0,0,0.1l-0.3,0.3c0,0,0,0,0,0
	c-0.5,0.5-1,0.9-1.5,1.3c0,0,0,0,0,0l-0.3,0.2c0,0,0,0-0.1,0c-0.5,0.4-1.1,0.7-1.6,1c0,0,0,0,0,0L23,29.7c0,0-0.1,0-0.1,0
	c-0.5,0.3-1.1,0.5-1.7,0.7c0,0-0.1,0-0.1,0.1l-0.3,0.1c0,0,0,0-0.1,0c-0.6,0.2-1.2,0.4-1.9,0.5c0,0,0,0-0.1,0l-0.4,0.1
	c0,0,0,0-0.1,0c0,0,0,0,0,0c-0.6,0.1-1.2,0.2-1.9,0.2c0,0-0.1,0-0.1,0c-0.1,0-0.2,0-0.4,0c0,0,0,0,0,0c0,0,0,0,0,0
	c-0.7,0-1.3,0-1.9-0.1c0,0,0,0,0,0c0,0,0,0,0,0c-0.1,0-0.2,0-0.4-0.1c0,0-0.1,0-0.1,0c-0.6-0.1-1.2-0.2-1.8-0.4c0,0,0,0,0,0
	c0,0-0.1,0-0.1,0l-0.4-0.1c0,0,0,0-0.1,0c-0.6-0.2-1.2-0.4-1.8-0.7c0,0,0,0,0,0l0,0c-0.7-0.3-1.4-0.7-2-1.2c0,0,0,0,0,0
	c-0.1-0.1-0.2-0.1-0.3-0.2c0,0,0,0-0.1-0.1c-0.5-0.4-1-0.8-1.5-1.2c0,0,0,0-0.1,0c-0.1-0.1-0.2-0.2-0.3-0.3c0,0,0,0,0,0
	c-0.5-0.5-0.9-0.9-1.3-1.5c0,0,0,0,0,0l-0.1-0.1c0,0,0,0,0,0l0,0l-0.1-0.2c-0.1-0.2-0.1-0.4,0.1-0.5c0.2-0.1,0.4-0.1,0.5,0.1
	l0.1,0.2c1.4,1.8,3.1,3.3,5.1,4.3c0,0,0,0,0,0l0.3,0.1c1.9,0.9,4.1,1.4,6.3,1.4c8.1,0,14.6-6.6,14.6-14.6h0c0,0,0-0.1,0-0.1l0-0.4
	c0-0.2,0.2-0.4,0.4-0.4c0.2,0,0.4,0.2,0.4,0.4L31.4,16C31.4,15.9,31.4,16,31.4,16L31.4,16z M3,22.7c-0.1-0.2-0.3-0.2-0.5-0.2
	c-0.2,0.1-0.2,0.3-0.2,0.5c0.1,0.1,0.1,0.2,0.2,0.3c0.1,0.1,0.2,0.2,0.3,0.2c0.1,0,0.1,0,0.2,0c0.2-0.1,0.2-0.3,0.1-0.5L3,22.7z
	 M2.1,20.6c-0.1-0.2-0.3-0.3-0.5-0.2c-0.2,0.1-0.3,0.3-0.2,0.5l0.1,0.3c0.1,0.1,0.2,0.2,0.3,0.2c0,0,0.1,0,0.1,0
	c0.2-0.1,0.3-0.3,0.2-0.5L2.1,20.6z M1.6,18.7l-0.1-0.3c0-0.2-0.2-0.3-0.4-0.3c-0.2,0-0.3,0.2-0.3,0.4l0.1,0.4
	c0,0.2,0.2,0.3,0.4,0.3c0,0,0,0,0.1,0C1.5,19.1,1.6,18.9,1.6,18.7z M30.4,13.3l0.1,0.3c0,0.2,0.2,0.3,0.4,0.3c0,0,0,0,0.1,0
	c0.2,0,0.3-0.2,0.3-0.4c0-0.1,0-0.2-0.1-0.4c0-0.2-0.2-0.3-0.4-0.3C30.5,12.9,30.3,13.1,30.4,13.3z M29.9,11.4
	c0.1,0.2,0.2,0.2,0.3,0.2c0,0,0.1,0,0.1,0c0.2-0.1,0.3-0.3,0.2-0.5l-0.1-0.3c-0.1-0.2-0.3-0.3-0.5-0.2c-0.2,0.1-0.3,0.3-0.2,0.5
	L29.9,11.4z M29,9.3c0.1,0.1,0.2,0.2,0.3,0.2c0.1,0,0.1,0,0.2,0c0.2-0.1,0.2-0.3,0.2-0.5l-0.2-0.3c-0.1-0.2-0.3-0.2-0.5-0.1
	c-0.2,0.1-0.2,0.3-0.1,0.5L29,9.3z M1,16.7c0.2,0,0.4-0.2,0.3-0.4c0-0.1,0-0.2,0-0.3c0,0,0,0,0,0h0C1.4,7.9,7.9,1.4,16,1.4
	c4.4,0,8.5,1.9,11.3,5.3H24v0.7h4.4V3h-0.7v3C24.7,2.6,20.5,0.6,16,0.6c-0.1,0-0.2,0-0.4,0c0,0-0.1,0-0.1,0c-0.6,0-1.2,0.1-1.9,0.2
	c0,0-0.1,0-0.1,0c-0.1,0-0.2,0-0.4,0.1c0,0,0,0-0.1,0c-0.6,0.1-1.3,0.3-1.9,0.5c0,0,0,0,0,0c-0.1,0-0.2,0.1-0.4,0.1
	c0,0-0.1,0-0.1,0.1C10.2,1.8,9.7,2,9.1,2.3c0,0-0.1,0-0.1,0C8.9,2.4,8.8,2.4,8.7,2.5c0,0,0,0,0,0c-0.6,0.3-1.1,0.7-1.6,1
	c0,0-0.1,0-0.1,0C6.9,3.7,6.8,3.7,6.7,3.8c0,0,0,0,0,0.1c-0.5,0.4-1,0.8-1.5,1.3c0,0,0,0,0,0L4.9,5.4c0,0,0,0,0,0.1
	C4.4,5.9,4,6.4,3.7,6.9c0,0-0.1,0-0.1,0.1L3.3,7.3c0,0,0,0,0,0C3,7.9,2.6,8.4,2.4,9c0,0,0,0-0.1,0.1C2.2,9.2,2.2,9.3,2.1,9.4
	c0,0,0,0.1,0,0.1c-0.3,0.6-0.5,1.1-0.7,1.7c0,0,0,0,0,0.1l-0.1,0.4c0,0,0,0,0,0.1c-0.2,0.6-0.3,1.2-0.4,1.8c0,0,0,0.1,0,0.1
	c0,0.1,0,0.2-0.1,0.4c0,0,0,0.1,0,0.1c-0.1,0.6-0.1,1.3-0.1,1.9h0c0,0,0,0,0,0c0,0.1,0,0.2,0,0.4C0.7,16.6,0.8,16.7,1,16.7
	C1,16.7,1,16.7,1,16.7z M16,9.6h-6v0.7h6V9.6z M16,15.6h-6v0.7h6V15.6z M19.5,10.5c0.3,0,0.5-0.2,0.5-0.5s-0.2-0.5-0.5-0.5
	S19,9.7,19,10S19.2,10.5,19.5,10.5z M19.5,16.5c0.3,0,0.5-0.2,0.5-0.5s-0.2-0.5-0.5-0.5S19,15.7,19,16S19.2,16.5,19.5,16.5z
	 M10,22.4h6v-0.7h-6V22.4z M19.5,21.5c-0.3,0-0.5,0.2-0.5,0.5s0.2,0.5,0.5,0.5S20,22.3,20,22S19.8,21.5,19.5,21.5z M25.4,10v6
	c0,0.2-0.2,0.4-0.4,0.4h-2.6V18c0,0.2-0.2,0.4-0.4,0.4H9c-0.2,0-0.4-0.2-0.4-0.4v-1.6H6.4v5.3h2.3V20c0-0.2,0.2-0.4,0.4-0.4h13
	c0.2,0,0.4,0.2,0.4,0.4v4c0,0.2-0.2,0.4-0.4,0.4H9c-0.2,0-0.4-0.2-0.4-0.4v-1.6H6c-0.2,0-0.4-0.2-0.4-0.4v-6c0-0.2,0.2-0.4,0.4-0.4
	h2.6V14c0-0.2,0.2-0.4,0.4-0.4h13c0.2,0,0.4,0.2,0.4,0.4v1.6h2.3v-5.3h-2.3V12c0,0.2-0.2,0.4-0.4,0.4H9c-0.2,0-0.4-0.2-0.4-0.4V8
	c0-0.2,0.2-0.4,0.4-0.4h13c0.2,0,0.4,0.2,0.4,0.4v1.6H25C25.2,9.6,25.4,9.8,25.4,10z M21.6,8.4H9.4v3.3h12.3V8.4z M9.4,23.6h12.3
	v-3.3H9.4V23.6z M21.6,14.4H9.4v3.3h12.3V14.4z M2.6,2.6c0.5-0.5,0.5-1.4,0-1.9c-0.5-0.5-1.4-0.5-1.9,0c-0.5,0.5-0.5,1.4,0,1.9
	C0.9,2.9,1.3,3,1.6,3C2,3,2.3,2.9,2.6,2.6z M2.1,1.2c0.2,0.2,0.2,0.7,0,0.9c-0.2,0.2-0.7,0.2-0.9,0c-0.2-0.2-0.2-0.7,0-0.9
	C1.3,1.1,1.5,1,1.6,1S2,1.1,2.1,1.2z M4.1,4.1c0.1-0.1,0.1-0.4,0-0.5L3.6,3.1c-0.1-0.1-0.4-0.1-0.5,0s-0.1,0.4,0,0.5l0.5,0.5
	c0.1,0.1,0.2,0.1,0.3,0.1S4,4.2,4.1,4.1z M1.5,6C1.2,6,1,6.2,1,6.5C1,6.8,1.2,7,1.5,7S2,6.8,2,6.5C2,6.2,1.8,6,1.5,6z M28.5,28.5
	c0.1-0.1,0.1-0.4,0-0.5L28,27.5c-0.1-0.1-0.4-0.1-0.5,0s-0.1,0.4,0,0.5l0.5,0.5c0.1,0.1,0.2,0.1,0.3,0.1S28.4,28.6,28.5,28.5z
	 M30.3,31.7l1.4-1.4c0.1-0.1,0.1-0.4,0-0.5l-1.4-1.4c-0.1-0.1-0.4-0.1-0.5,0l-1.4,1.4c-0.1,0.1-0.1,0.4,0,0.5l1.4,1.4
	c0.1,0.1,0.2,0.1,0.3,0.1S30.2,31.7,30.3,31.7z M30,29.1l0.9,0.9L30,30.9L29.1,30L30,29.1z M6.5,1.4l0.4-0.4C7,0.8,7,0.6,6.9,0.5
	s-0.3-0.1-0.5,0L6,0.9L5.6,0.5c-0.1-0.1-0.3-0.1-0.5,0C5,0.6,5,0.8,5.1,0.9l0.4,0.4L5.1,1.8C5,1.9,5,2.1,5.1,2.3
	c0.1,0.1,0.2,0.1,0.2,0.1c0.1,0,0.2,0,0.2-0.1L6,1.8l0.4,0.4c0.1,0.1,0.2,0.1,0.2,0.1c0.1,0,0.2,0,0.2-0.1C7,2.1,7,1.9,6.9,1.8
	L6.5,1.4z M31.3,26.3c0.1-0.1,0.1-0.4,0-0.5l-1-1c-0.1-0.1-0.4-0.1-0.5,0s-0.1,0.4,0,0.5l1,1c0.1,0.1,0.2,0.1,0.3,0.1
	S31.2,26.3,31.3,26.3z M26.3,30.6l0.6,0c0.2,0,0.3-0.2,0.3-0.3c0-0.2-0.2-0.3-0.3-0.3l-0.6,0l0-0.6c0-0.2-0.2-0.3-0.3-0.3
	c-0.2,0-0.3,0.2-0.3,0.3l0,0.6l-0.6,0c-0.2,0-0.3,0.2-0.3,0.3c0,0.1,0,0.2,0.1,0.2c0.1,0.1,0.1,0.1,0.2,0.1l0.6,0l0,0.6
	c0,0.1,0,0.2,0.1,0.2c0.1,0.1,0.1,0.1,0.2,0.1c0.2,0,0.3-0.2,0.3-0.3L26.3,30.6z"/>
<rect id="_Transparent_Rectangle" style="fill:none;" x="-0.1" y="0" class="st0" width="32" height="32"/>
</svg>
