<?xml version="1.0" encoding="utf-8"?>
<!-- Generator: Adobe Illustrator 24.1.0, SVG Export Plug-In . SVG Version: 6.00 Build 0)  -->
<svg slot="pictogram" focusable="false" preserveAspectRatio="xMidYMid meet" xmlns="http://www.w3.org/2000/svg" data-autoid="dds--card__pictogram" aria-label="Pictogram description" width="48" height="48" viewBox="0 0 32 32" role="img" class="bx--card__pictogram">
<path id="spaceship_1_" d="M19.2,30.4l-0.4-0.6l3.7-2.1L20,23.4c-0.1-0.1-0.1-0.3,0-0.4l3.6-5c2-2.8,3-6,3-9.4V2.3
	c0-0.3-0.2-0.6-0.5-0.8c-0.3-0.2-0.6-0.2-0.9,0l-5.5,3.2c-2.9,1.7-5.2,4.2-6.6,7.3l-2.5,5.6c-0.1,0.1-0.2,0.2-0.3,0.2h-5V22H4.6
	v-4.6C4.6,17.2,4.8,17,5,17h5.1l2.4-5.4C14,8.4,16.4,5.8,19.5,4l5.5-3.2c0.5-0.3,1.1-0.3,1.6,0c0.5,0.3,0.8,0.8,0.8,1.4v6.3
	c0,3.6-1.1,7-3.2,9.8l-3.4,4.8l2.5,4.4c0,0.1,0.1,0.2,0,0.3c0,0.1-0.1,0.2-0.2,0.2L19.2,30.4z M19.7,15.8c-0.6,0-1.1-0.1-1.6-0.4
	c-1.5-0.9-2-2.8-1.2-4.4c0.9-1.5,2.8-2,4.4-1.2c0.7,0.4,1.3,1.1,1.5,1.9c0.2,0.8,0.1,1.7-0.3,2.4l0,0c-0.4,0.7-1.1,1.3-1.9,1.5
	C20.3,15.8,20,15.8,19.7,15.8z M19.8,10.2c-0.9,0-1.7,0.4-2.1,1.2c-0.7,1.2-0.3,2.7,0.9,3.4c0.6,0.3,1.2,0.4,1.9,0.2
	c0.6-0.2,1.2-0.6,1.5-1.2l0,0c0.3-0.6,0.4-1.2,0.2-1.9s-0.6-1.2-1.2-1.5C20.6,10.3,20.2,10.2,19.8,10.2z M11,31.3
	c1.2-0.6,2.5-1.3,2.9-2.1l0-0.1c0.4-0.7,0.5-1.6,0.3-2.4c-0.2-0.8-0.7-1.5-1.5-1.9c-1.5-0.9-3.5-0.4-4.3,1.2l0,0.1
	c-0.5,0.8-0.5,2.3-0.4,3.6C8,29.8,8.2,30,8.4,30c0.2,0,0.4-0.2,0.3-0.4c0-0.7-0.1-2.5,0.3-3.2l0-0.1c0.7-1.2,2.2-1.6,3.4-0.9
	c0.6,0.3,1,0.9,1.1,1.5c0.2,0.6,0.1,1.3-0.2,1.9l0,0.1c-0.4,0.8-2,1.6-2.6,1.9c-0.2,0.1-0.2,0.3-0.2,0.5c0.1,0.1,0.2,0.2,0.3,0.2
	C10.9,31.4,10.9,31.3,11,31.3z"/>
<rect id="_Transparent_Rectangle" style="fill:none;" class="st0" width="32" height="32"/>
</svg>
