<?xml version="1.0" encoding="utf-8"?>
<!-- Generator: Adobe Illustrator 24.1.0, SVG Export Plug-In . SVG Version: 6.00 Build 0)  -->
<svg slot="pictogram" focusable="false" preserveAspectRatio="xMidYMid meet" xmlns="http://www.w3.org/2000/svg" data-autoid="dds--card__pictogram" aria-label="Pictogram description" width="48" height="48" viewBox="0 0 32 32" role="img" class="bx--card__pictogram">
<path d="M30.2,15.7l-3-3l-0.5,0.5l2.4,2.4h-8.8V8c0-0.2-0.2-0.4-0.4-0.4h-4c-0.2,0-0.4,0.2-0.4,0.4v4.6h-3c-0.7,0-1.3-0.6-1.3-1.3
	V7.6c0-1.1-0.9-2-2-2h-3c-0.2-1.1-1.1-2-2.3-2C2.6,3.6,1.6,4.7,1.6,6s1.1,2.4,2.4,2.4c1.2,0,2.1-0.9,2.3-2h3c0.7,0,1.3,0.6,1.3,1.3
	v3.7c0,1.1,0.9,2,2,2h3v2.3H6.2c-0.2-1.1-1.1-2-2.3-2c-1.3,0-2.4,1.1-2.4,2.4c0,1.3,1.1,2.4,2.4,2.4c1.2,0,2.1-0.9,2.3-2h9.3v2.3h-3
	c-1.1,0-2,0.9-2,2.1v3.8c0,0.7-0.6,1.3-1.3,1.3h-3c-0.1-1.2-1.1-2.2-2.3-2.2c-1.3,0-2.4,1.1-2.4,2.4s1.1,2.4,2.4,2.4
	c1.1,0,2-0.8,2.3-1.8h3.1c1.1,0,2-0.9,2-2.1v-3.8c0-0.7,0.6-1.3,1.3-1.3h3V25c0,0.2,0.2,0.4,0.4,0.4h4c0.2,0,0.4-0.2,0.4-0.4v-8.6
	h8.8l-2.4,2.4l0.5,0.5l3-3C30.3,16.1,30.3,15.9,30.2,15.7z M3.9,7.6C3,7.6,2.3,6.9,2.3,6S3,4.4,3.9,4.4S5.6,5.1,5.6,6
	S4.8,7.6,3.9,7.6z M3.9,17.6c-0.9,0-1.6-0.7-1.6-1.6s0.7-1.6,1.6-1.6s1.6,0.7,1.6,1.6S4.8,17.6,3.9,17.6z M3.9,27.6
	c-0.9,0-1.6-0.7-1.6-1.6s0.7-1.6,1.6-1.6s1.6,0.7,1.6,1.6S4.8,27.6,3.9,27.6z M19.6,24.6h-3.3V8.4h3.3V24.6z"/>
</svg>
