<?xml version="1.0" encoding="utf-8"?>
<!-- Generator: Adobe Illustrator 24.1.0, SVG Export Plug-In . SVG Version: 6.00 Build 0)  -->
<svg slot="pictogram" focusable="false" preserveAspectRatio="xMidYMid meet" xmlns="http://www.w3.org/2000/svg" data-autoid="dds--card__pictogram" aria-label="Pictogram description" width="48" height="48" viewBox="0 0 32 32" role="img" class="bx--card__pictogram">
<path id="Software_Update" d="M16,16.4c-1.4,0-2.7-0.5-3.6-1.4V16h-0.7v-2c0-0.2,0.2-0.4,0.4-0.4h2v0.7h-1.2c0.9,0.8,2,1.3,3.2,1.3
	c2.6,0,4.6-2.1,4.6-4.6h0.7C21.4,14,19,16.4,16,16.4z M11.4,11h-0.7c0-3,2.4-5.4,5.4-5.4c1.4,0,2.7,0.5,3.6,1.4V6h0.7v2
	c0,0.2-0.2,0.4-0.4,0.4h-2V7.6h1.2c-0.9-0.8-2-1.3-3.2-1.3C13.4,6.4,11.4,8.4,11.4,11z M23,29.4H9v-0.7h6.6v-4.3H3
	c-1.3,0-2.4-1.1-2.4-2.4V5c0-1.3,1.1-2.4,2.4-2.4h26c1.3,0,2.4,1.1,2.4,2.4v17c0,1.3-1.1,2.4-2.4,2.4H16.4v4.3H23V29.4z M1.4,19.4
	V22c0,0.9,0.7,1.6,1.6,1.6h26c0.9,0,1.6-0.7,1.6-1.6v-2.6H1.4z M1.4,18.6h29.3V5c0-0.9-0.7-1.6-1.6-1.6H3C2.1,3.4,1.4,4.1,1.4,5
	V18.6z"/>
<rect id="_Transparent_Rectangle" style="fill:none;" class="st0" width="32" height="32"/>
</svg>
