<?xml version="1.0" encoding="utf-8"?>
<!-- Generator: Adobe Illustrator 24.1.0, SVG Export Plug-In . SVG Version: 6.00 Build 0)  -->
<svg slot="pictogram" focusable="false" preserveAspectRatio="xMidYMid meet" xmlns="http://www.w3.org/2000/svg" data-autoid="dds--card__pictogram" aria-label="Pictogram description" width="48" height="48" viewBox="0 0 32 32" role="img" class="bx--card__pictogram">
<path id="tke" d="M29.4,10.1H16.9c-0.8-2-2.7-3.5-5-3.5C9,6.6,6.6,9,6.6,12s2.4,5.4,5.4,5.4c2.3,0,4.3-1.5,5-3.5h12.5
	c1,0,1.9-0.8,1.9-1.9S30.4,10.1,29.4,10.1z M11.9,16.6c-2.6,0-4.6-2.1-4.6-4.6s2.1-4.6,4.6-4.6s4.6,2.1,4.6,4.6S14.5,16.6,11.9,16.6
	z M29.4,13.1H17.2c0.1-0.4,0.1-0.7,0.1-1.1s0-0.8-0.1-1.1h12.3c0.6,0,1.1,0.5,1.1,1.1S30,13.1,29.4,13.1z M11.6,26v-2
	c-0.4-0.1-0.6-0.5-0.6-0.9c0-0.6,0.4-1,1-1c0.6,0,1,0.4,1,1c0,0.4-0.3,0.8-0.6,0.9v2H11.6z M22.6,17h0.7v14c0,0.2-0.2,0.4-0.4,0.4
	h-22c-0.2,0-0.4-0.2-0.4-0.4V1c0-0.2,0.2-0.4,0.4-0.4h22c0.2,0,0.4,0.2,0.4,0.4v6h-0.7V1.4H1.3v29.3h21.3V17z"/>
<rect id="_Transparent_Rectangle" style="fill:none;" class="st0" width="32" height="32"/>
</svg>
