<?xml version="1.0" encoding="utf-8"?>
<!-- Generator: Adobe Illustrator 24.1.0, SVG Export Plug-In . SVG Version: 6.00 Build 0)  -->
<svg slot="pictogram" focusable="false" preserveAspectRatio="xMidYMid meet" xmlns="http://www.w3.org/2000/svg" data-autoid="dds--card__pictogram" aria-label="Pictogram description" width="48" height="48" viewBox="0 0 32 32" role="img" class="bx--card__pictogram">
<path d="M1,31.3c-0.1,0-0.2,0-0.3-0.1c-0.1-0.1-0.1-0.3-0.1-0.4l3-7c0,0,0-0.1,0.1-0.1L26.5,1c0.5-0.5,1.4-0.5,1.9,0L31,3.6
	c0.5,0.5,0.5,1.4,0,1.9L8.3,28.2c0,0-0.1,0.1-0.1,0.1l-7,3C1.1,31.3,1.1,31.3,1,31.3z M2.5,28.4l-0.8,1.8l1.8-0.8L2.5,28.4z
	 M2.8,27.7l1.5,1.5l3.4-1.5v-1.4H6c-0.2,0-0.4-0.2-0.4-0.4v-1.6H4.2L2.8,27.7z M6.4,25.6H8c0.2,0,0.4,0.2,0.4,0.4v1.1L26,9.5L22.5,6
	L4.9,23.6H6c0.2,0,0.4,0.2,0.4,0.4V25.6z M23,5.5l3.5,3.5l1-1L24,4.5L23,5.5z M24.5,4L28,7.4L30.5,5c0.2-0.2,0.2-0.7,0-0.9l-2.6-2.6
	c-0.3-0.2-0.7-0.2-0.9,0L24.5,4z M26,31.3c-0.1,0-0.2,0-0.3-0.1l-9-9l0.5-0.5l1.2,1.2l2.2-2.2l0.5,0.5L19,23.5l2,2l1.2-1.2l0.5,0.5
	L21.5,26l2,2l2.2-2.2l0.5,0.5L24,28.5l2,2l4.5-4.5l-8.7-8.7l0.5-0.5l9,9c0.1,0.1,0.1,0.4,0,0.5l-5,5C26.2,31.3,26.1,31.3,26,31.3z
	 M8.8,23.7l-0.5-0.5L22.8,8.7l0.5,0.5L8.8,23.7z M9.8,15.2l-9-9c-0.1-0.1-0.1-0.4,0-0.5l5-5c0.1-0.1,0.4-0.1,0.5,0l9,9l-0.5,0.5
	L6,1.5L1.5,6l2,2l2.2-2.2l0.5,0.5L4,8.5l2,2l1.2-1.2l0.5,0.5L6.5,11l2,2l2.2-2.2l0.5,0.5L9,13.5l1.2,1.2L9.8,15.2z"/>
</svg>
