<?xml version="1.0" encoding="utf-8"?>
<!-- Generator: Adobe Illustrator 27.0.1, SVG Export Plug-In . SVG Version: 6.00 Build 0)  -->
<svg slot="pictogram" focusable="false" preserveAspectRatio="xMidYMid meet" xmlns="http://www.w3.org/2000/svg" data-autoid="dds--card__pictogram" aria-label="Pictogram description" width="48" height="48" viewBox="0 0 48 48" role="img" class="bx--card__pictogram">
<path id="validatedboot" d="M36.7,45.2l-0.5-0.5l5-5H23.9c-10.2,0-18.5-8.3-18.5-18.5S13.7,2.8,23.9,2.8s18.5,8.3,18.5,18.5h-0.7
	c0-9.8-8-17.8-17.7-17.8s-17.8,8-17.8,17.8S14.1,39,23.9,39h17.2l-5-5l0.5-0.5l5.8,5.8L36.7,45.2L36.7,45.2z M23.9,31.4
	c-4,0-7.3-3.3-7.3-7.3v-9.3l7.3-3.7l7.3,3.7v9.3C31.2,28.1,28,31.4,23.9,31.4z M17.3,15.2V24c0,3.6,3,6.6,6.6,6.6s6.6-3,6.6-6.6
	v-8.8l-6.6-3.3C23.9,11.9,17.3,15.2,17.3,15.2z"/>
</svg>
