<?xml version="1.0" encoding="utf-8"?>
<!-- Generator: Adobe Illustrator 24.1.0, SVG Export Plug-In . SVG Version: 6.00 Build 0)  -->
<svg slot="pictogram" focusable="false" preserveAspectRatio="xMidYMid meet" xmlns="http://www.w3.org/2000/svg" data-autoid="dds--card__pictogram" aria-label="Pictogram description" width="48" height="48" viewBox="0 0 32 32" role="img" class="bx--card__pictogram">
<path id="zowe" d="M31.2,14.7L16.3,0.7c-0.1-0.1-0.4-0.1-0.5,0L0.8,16.8c-0.1,0.1-0.1,0.2-0.1,0.3s0,0.2,0.1,0.3l14.9,13.9
	c0.1,0.1,0.2,0.1,0.2,0.1c0,0,0,0,0,0c0.1,0,0.2,0,0.3-0.1l15.1-16.1c0.1-0.1,0.1-0.2,0.1-0.3C31.3,14.8,31.3,14.7,31.2,14.7z
	 M16.3,9L15.1,8c-0.1-0.1-0.4-0.1-0.5,0L8,15.1l-5.9,1.4L15.8,1.8L16.3,9z M15.7,21.9l-0.7-9.8c0-0.1-0.1-0.3-0.2-0.3
	c-0.1,0-0.3,0-0.4,0.1L10,16.6l-1.3-1.2l6.2-6.6l1.4,1.3l0.7,9.8c0,0.1,0.1,0.3,0.2,0.3s0.3,0,0.4-0.1l4.4-4.6l1.3,1.2l-6.2,6.6
	L15.7,21.9z M14.6,16.7l-3.7,0l3.5-3.7L14.6,16.7z M17.7,19l-0.3-3.8l3.8,0L17.7,19z M8.1,15.8l1.6,1.5c0.1,0.1,0.2,0.1,0.3,0.1
	l4.6,0l0.4,4.7h0l0.5,8L1.8,17.2L8.1,15.8z M15.7,23l1.1,1.1c0.1,0.1,0.2,0.1,0.2,0.1c0,0,0,0,0,0c0.1,0,0.2,0,0.3-0.1l6.7-7.1
	c0.1-0.1,0.1-0.4,0-0.5l-1.2-1.1l7.2,0L16.2,30.2L15.7,23z M17.4,14.5L17,9.9c0,0,0,0,0,0l-0.5-8l13.5,12.7L17.4,14.5z"/>
   <rect id="_Transparent_Rectangle" style="fill:none;" class="st0" width="32" height="32"/>
</svg>
