<?xml version="1.0" encoding="utf-8"?>
<!-- Generator: Adobe Illustrator 27.0.1, SVG Export Plug-In . SVG Version: 6.00 Build 0)  -->
<svg slot="pictogram" focusable="false" preserveAspectRatio="xMidYMid meet" xmlns="http://www.w3.org/2000/svg" data-autoid="dds--card__pictogram" aria-label="Pictogram description" width="48" height="48" viewBox="0 0 48 48" role="img" class="bx--card__pictogram">
<path d="M24,45.4c-0.1,0-0.1,0-0.2,0l-18-10.5c-0.1-0.1-0.2-0.2-0.2-0.3V24c0-0.1,0.1-0.2,0.2-0.3l15.1-8.8
	c-0.2-0.4-0.3-0.9-0.3-1.4c0-1.9,1.5-3.4,3.4-3.4c1.9,0,3.4,1.5,3.4,3.4s-1.5,3.4-3.4,3.4c-1.1,0-2.1-0.5-2.7-1.4L6.4,24.2v10.1
	L24,44.6l4.3-2.5l0.4,0.6l-4.5,2.6C24.1,45.3,24.1,45.4,24,45.4z M24,10.9c-1.5,0-2.6,1.2-2.6,2.6s1.2,2.6,2.6,2.6s2.6-1.2,2.6-2.6
	S25.5,10.9,24,10.9z M33,31.9c-1.9,0-3.4-1.5-3.4-3.4c0-1.7,1.3-3.2,3-3.3V8.5l-8.6-5L6.4,13.7V18H5.6v-4.5c0-0.1,0.1-0.2,0.2-0.3
	l18-10.5c0.1-0.1,0.3-0.1,0.4,0l9,5.2c0.1,0.1,0.2,0.2,0.2,0.3v16.9c1.7,0.2,3,1.6,3,3.3C36.4,30.4,34.9,31.9,33,31.9z M33,25.9
	c-1.5,0-2.6,1.2-2.6,2.6s1.2,2.6,2.6,2.6c1.5,0,2.6-1.2,2.6-2.6S34.5,25.9,33,25.9z M42.2,13.2l-4.5-2.6l-0.4,0.6l4.3,2.5v20.6
	L33.7,39l-15.7-9.1c0.2-0.4,0.3-0.9,0.3-1.4c0-1.9-1.5-3.4-3.4-3.4s-3.4,1.5-3.4,3.4s1.5,3.4,3.4,3.4c1.1,0,2.1-0.5,2.7-1.4
	l15.9,9.2c0.1,0,0.1,0,0.2,0c0.1,0,0.1,0,0.2-0.1l8.2-4.9c0.1-0.1,0.2-0.2,0.2-0.3v-21C42.4,13.4,42.3,13.3,42.2,13.2z M15,31.1
	c-1.5,0-2.6-1.2-2.6-2.6s1.2-2.6,2.6-2.6s2.6,1.2,2.6,2.6S16.5,31.1,15,31.1z"/>
  <rect x="0" class="st0" width="48" height="48" style="fill:none"/>
</svg>
