<?xml version="1.0" encoding="utf-8"?>
<!-- Generator: Adobe Illustrator 24.1.0, SVG Export Plug-In . SVG Version: 6.00 Build 0)  -->
<svg slot="pictogram" focusable="false" preserveAspectRatio="xMidYMid meet" xmlns="http://www.w3.org/2000/svg" data-autoid="dds--card__pictogram" aria-label="Pictogram description" width="48" height="48" viewBox="0 0 32 32" role="img" class="bx--card__pictogram">
<path id="zcx" d="M29,3.5C29,3.8,28.8,4,28.5,4S28,3.8,28,3.5S28.2,3,28.5,3S29,3.2,29,3.5z M26.5,3
	C26.2,3,26,3.2,26,3.5S26.2,4,26.5,4S27,3.8,27,3.5S26.8,3,26.5,3z M24.5,3C24.2,3,24,3.2,24,3.5S24.2,4,24.5,4S25,3.8,25,3.5
	S24.8,3,24.5,3z M31,30.4H1c-0.2,0-0.4-0.2-0.4-0.4V2c0-0.2,0.2-0.4,0.4-0.4h30c0.2,0,0.4,0.2,0.4,0.4v28
	C31.4,30.2,31.2,30.4,31,30.4z M1.4,29.6h29.3V5.4H1.4V29.6z M1.4,4.6h29.3V2.4H1.4V4.6z M9,24.4c-0.2,0-0.3,0.1-0.3,0.3
	S8.9,25,9,25c0.2,0,0.3-0.1,0.3-0.3S9.2,24.4,9,24.4z M8.8,26.9c-1.1,0-2.1-0.4-2.9-1.2c0,0-0.1-0.1-0.1-0.1
	c-0.7-0.7-1.2-1.7-1.2-2.8v-0.3c0-0.1,0-0.2,0.1-0.3c0.1-0.1,0.2-0.1,0.3-0.1l0,0l1.5,0V21c0-0.2,0.2-0.4,0.4-0.4h1.1v-1.1
	c0-0.2,0.2-0.4,0.4-0.4h1.1v-1.1c0-0.2,0.2-0.4,0.4-0.4h1.5c0.2,0,0.4,0.2,0.4,0.4v2.6h1.1c0.2,0,0.4,0.2,0.4,0.4v1.1h0.3
	c-0.1-0.2-0.1-0.4-0.1-0.6c0-0.6,0.3-1.1,0.8-1.4c0.1-0.1,0.2-0.1,0.3,0c0.4,0.2,0.7,0.6,0.8,1.1c0.4,0.1,0.8,0.4,1,0.8
	c0.1,0.1,0.1,0.3,0,0.4c-0.3,0.5-0.8,0.8-1.3,0.8C14.6,24.8,12,26.9,8.8,26.9z M7.1,25.7c0.5,0.3,1.1,0.4,1.7,0.4c3,0,5.5-2,5.6-3.4
	c0-0.2,0.2-0.3,0.4-0.3h0.2c0.2,0,0.5-0.1,0.6-0.3c-0.2-0.2-0.4-0.3-0.6-0.3c-0.2,0-0.4-0.2-0.4-0.4c0-0.2-0.1-0.5-0.3-0.6
	c-0.2,0.2-0.3,0.4-0.3,0.6c0,0.2,0.1,0.5,0.3,0.6c0.1,0.1,0.1,0.3,0.1,0.4s-0.2,0.2-0.3,0.2l0,0l-8.7,0c0,0.8,0.3,1.6,0.9,2.2
	C7,25,7.7,25,8.2,24.8c0.2-0.1,0.4,0.1,0.4,0.2c0.1,0.2-0.1,0.4-0.2,0.4C8,25.6,7.6,25.7,7.1,25.7z M11.6,22.1h0.7v-0.7h-0.7V22.1z
	 M10.1,22.1h0.7v-0.7h-0.7V22.1z M8.7,22.1h0.7v-0.7H8.7V22.1z M7.2,22.1h0.7v-0.7H7.2V22.1z M15.3,21.6L15.3,21.6L15.3,21.6z
	 M10.1,20.7h0.7v-0.7h-0.7V20.7z M8.7,20.7h0.7v-0.7H8.7V20.7z M10.1,19.2h0.7v-0.7h-0.7V19.2z M10.7,11.4v-0.4l1.4-1.7h-1.4V8.8h2
	v0.4l-1.4,1.7h1.5v0.4H10.7z M13,12.1l1.4-4.5h0.5l-1.4,4.5H13z M15.2,9.6c0-1.2,0.6-1.8,1.5-1.8c0.9,0,1.5,0.6,1.5,1.8
	s-0.6,1.8-1.5,1.8C15.8,11.4,15.2,10.8,15.2,9.6z M17.6,9.9V9.3c0-0.6-0.4-1-0.9-1s-0.9,0.4-0.9,1v0.6c0,0.6,0.4,1,0.9,1
	S17.6,10.5,17.6,9.9z M18.7,10.8l0.4-0.4c0.2,0.3,0.5,0.5,0.9,0.5c0.4,0,0.7-0.2,0.7-0.6c0-0.3-0.1-0.4-0.5-0.5l-0.3-0.1
	c-0.7-0.1-1-0.4-1-1c0-0.6,0.5-1,1.2-1c0.5,0,0.9,0.2,1.2,0.5l-0.4,0.4c-0.2-0.2-0.4-0.4-0.8-0.4c-0.4,0-0.6,0.2-0.6,0.5
	c0,0.3,0.2,0.4,0.6,0.5l0.3,0.1c0.7,0.1,1,0.4,1,1c0,0.7-0.5,1.1-1.3,1.1C19.4,11.4,19,11.2,18.7,10.8z M26.8,25.3
	c0,0-0.1-0.1-0.2-0.1c0,0,0,0-0.1-0.1c-0.1,0-0.1-0.1-0.1-0.1c0,0-0.1-0.1-0.1-0.1c-0.1-0.1-0.1-0.1-0.1-0.1c0-0.1-0.1-0.1-0.1-0.2
	c0-0.1,0-0.2,0-0.3c-0.1,0-0.1,0.1-0.1,0.3c0,0.1,0,0.3,0.1,0.4s0.1,0.2,0.3,0.3c0.1,0,0.2,0.1,0.3,0.1c0.1,0,0.1,0.1,0.1,0.1
	c0,0.1,0,0.1-0.1,0.2c-0.1,0.1-0.2,0.1-0.4,0.2c-0.3,0.1-0.5,0.2-0.6,0.2c-0.1,0.1-0.3,0.2-0.5,0.4c-0.1,0.1-0.3,0.2-0.5,0.2
	c-0.2,0-0.3-0.1-0.4-0.2s-0.1-0.3-0.1-0.6c0.1-0.5,0.1-0.8,0-1.1c-0.1-0.2-0.1-0.4,0-0.5c0-0.1,0.1-0.2,0.1-0.3c0.1,0,0.1,0,0.2,0.2
	c0,0,0,0.1,0.1,0.1c0,0.1,0.1,0.1,0.1,0.1c0,0,0,0.1,0.1,0.1c0,0,0.1,0.1,0.1,0.1c0.1,0,0.1,0,0.2,0c0.1,0,0.2,0,0.3-0.1
	c0.1-0.1,0.2-0.1,0.2-0.2c0.1-0.1,0.1-0.1,0.1-0.2c0.1-0.1,0.1-0.1,0.1-0.1c0,0,0.1-0.1,0.1-0.1c0-0.1,0.1-0.2,0.1-0.3s0-0.3,0-0.5
	c-0.1-0.3-0.2-0.7-0.3-1c-0.2-0.4-0.4-0.7-0.5-0.9c-0.4-0.4-0.6-0.8-0.7-1.2c-0.1-0.4-0.2-0.8-0.2-1.2c0-0.2,0-0.5-0.2-0.8
	c-0.1-0.3-0.3-0.5-0.5-0.7c-0.1-0.1-0.3-0.2-0.5-0.2C22.9,17,22.7,17,22.5,17c-0.2,0-0.4,0-0.6,0.1c-0.3,0.1-0.5,0.4-0.6,0.6
	s-0.1,0.5-0.1,0.8c0,0.7,0,1.3,0.1,1.7c-0.1,0.2-0.3,0.5-0.7,1.1c-0.1,0.1-0.1,0.2-0.2,0.3c-0.1,0.1-0.1,0.2-0.2,0.3
	c0,0.1-0.1,0.2-0.2,0.4s-0.1,0.3-0.1,0.4c0,0.1-0.1,0.1-0.1,0.2c-0.1,0.1-0.1,0.2-0.1,0.3c0,0.1-0.1,0.2-0.1,0.3c0,0.1,0,0.1,0,0.2
	c0,0.1,0,0.1,0.1,0.1c0.2-0.1,0.4-0.1,0.6,0.2c0.2,0.2,0.5,0.6,0.9,1.3c0,0.1,0.1,0.1,0.1,0.2c0,0.1,0.1,0.2,0.1,0.3
	c0,0.1,0.1,0.2,0,0.3c0,0.1-0.1,0.2-0.1,0.3c-0.1,0.1-0.2,0.1-0.4,0.1c-0.1,0-0.2,0-0.3,0s-0.3-0.1-0.4-0.1
	c-0.2-0.1-0.3-0.1-0.4-0.1c-0.1,0-0.3-0.1-0.5-0.1c-0.2,0-0.4-0.1-0.5-0.1c-0.1,0-0.2-0.1-0.2-0.1c0-0.1,0-0.1,0.1-0.3
	c0.1-0.1,0.1-0.2,0.1-0.3s0-0.1,0-0.1c0,0,0-0.1,0-0.1s0-0.1-0.1-0.1c0,0,0-0.1,0-0.1c-0.1-0.1-0.1-0.3,0-0.3c0-0.1,0.1-0.1,0.2-0.1
	c0.2,0,0.3,0,0.5-0.1c0.2-0.1,0.3-0.3,0.2-0.6c0,0.1,0,0.2-0.1,0.3c0,0.1-0.1,0.1-0.2,0.2c-0.1,0-0.2,0.1-0.3,0.1
	c-0.1,0-0.3,0-0.3,0.1c0,0-0.1,0.1-0.1,0.1c0,0.1,0,0.1,0,0.2s0,0.1,0.1,0.2s0,0.2,0,0.2c0,0,0,0.1-0.1,0.3c-0.1,0.2-0.1,0.3,0,0.4
	c0,0,0.1,0.1,0.1,0.1c0,0,0.1,0.1,0.2,0.1c0.1,0,0.1,0,0.2,0.1c0.1,0,0.1,0,0.3,0.1c0.1,0,0.2,0,0.3,0.1c0.2,0.1,0.5,0.1,0.8,0.2
	c0.3,0.1,0.5,0.2,0.6,0.2c0.1,0,0.2,0,0.3-0.1c0.1,0,0.2-0.1,0.2-0.1s0.2-0.1,0.3-0.2s0.3-0.1,0.4-0.1c0.1,0,0.2,0,0.3,0
	c0.1,0,0.2,0,0.3,0c0.3,0,0.6,0,0.7,0c0.1,0,0.2,0,0.3,0.1s0.1,0.1,0.1,0.1c0,0,0.1,0.1,0.1,0.1s0.1,0.1,0.2,0.1
	c0.1,0.1,0.3,0.1,0.5,0.1c0.2,0,0.3-0.1,0.4-0.1c0.1-0.1,0.2-0.2,0.4-0.4c0.2-0.1,0.3-0.2,0.5-0.3c0,0,0.1,0,0.1-0.1
	s0.1-0.1,0.2-0.1c0.1,0,0.1-0.1,0.2-0.1c0.1,0,0.1-0.1,0.2-0.1c0,0,0.1-0.1,0.1-0.1c0,0,0.1-0.1,0.1-0.1c0,0,0-0.1,0-0.1
	C26.9,25.4,26.9,25.4,26.8,25.3z M23.8,20C23.9,20,23.9,19.9,23.8,20C23.9,20,23.9,20,23.8,20C23.9,20,23.9,20,23.8,20
	c0.1,0.1,0.1,0.1,0.1,0.1c0,0,0,0,0.1,0c0,0,0.1,0,0.1,0c0,0,0.1,0,0.1,0c0,0,0,0,0,0.1c0,0,0,0.1,0,0.1c0,0-0.1,0.1-0.1,0
	c-0.1,0-0.1-0.1-0.2-0.2C23.8,20.1,23.8,20,23.8,20z M23.1,17.8C23.2,17.8,23.2,17.8,23.1,17.8c0-0.1,0-0.1,0-0.1c0,0,0-0.1,0-0.1
	s0,0,0.1,0c0,0,0.1,0,0.1,0.1c0,0,0,0,0.1,0s0,0,0.1,0c0,0,0,0,0,0c0,0,0,0-0.1,0c0,0-0.1,0-0.1,0c0,0,0,0-0.1,0
	C23.3,17.8,23.3,17.8,23.1,17.8C23.2,17.9,23.2,17.9,23.1,17.8C23.2,17.9,23.1,17.9,23.1,17.8C23.1,17.9,23.1,17.9,23.1,17.8
	C23.1,17.8,23.1,17.8,23.1,17.8z M20.5,21.9C20.5,21.9,20.5,21.9,20.5,21.9c0.1-0.1,0.1-0.1,0.1-0.1c0,0,0-0.1,0-0.1s0,0,0,0
	c0,0,0,0,0,0v0v0v0v0c0,0,0,0,0,0c0,0,0,0,0,0C20.6,21.9,20.6,21.9,20.5,21.9C20.5,22,20.5,22,20.5,21.9C20.4,22,20.4,22,20.5,21.9z
	 M24.1,25.4c0,0.1,0,0.3-0.1,0.5c0,0.2-0.1,0.4-0.1,0.4c-0.1,0-0.1,0-0.1-0.1c0-0.1,0-0.1,0-0.2c0.1-0.2,0.1-0.4,0.1-0.5
	c0-0.2,0-0.3-0.1-0.3c0,0-0.1,0-0.2,0.2c-0.2,0.3-0.5,0.4-1,0.5c-0.4,0.1-0.7,0-0.9-0.2c0,0-0.1,0-0.1,0c0,0-0.1,0-0.1,0.1
	c0,0,0,0,0,0c0,0,0,0,0.1,0.1c0,0,0,0.1,0.1,0.1c0.1,0.2,0.1,0.4,0,0.5c0-0.2,0-0.3,0-0.4c0-0.1-0.1-0.2-0.1-0.3
	c-0.1-0.1-0.1-0.2-0.2-0.2c0.1,0,0.2-0.1,0.2-0.1s0.1-0.1,0.1-0.2c0-0.1,0-0.1-0.1-0.2c0,0-0.2-0.2-0.5-0.4
	c-0.3-0.2-0.5-0.4-0.6-0.5c0,0-0.1-0.1-0.1-0.1c-0.1-0.1-0.1-0.1-0.1-0.1c-0.2-0.4-0.2-0.7-0.1-0.9l0,0c0,0,0,0,0,0.1
	c0,0.1,0,0.2,0,0.3c0,0.2,0.1,0.4,0.2,0.5c0.1,0.1,0.1,0.1,0.2,0c0,0,0-0.1,0-0.3s0-0.3,0-0.4c0-0.2,0.1-0.5,0.3-0.8
	c0.1-0.3,0.3-0.5,0.3-0.5c-0.1-0.1-0.1-0.2-0.1-0.4c0-0.1,0.1-0.2,0.1-0.3c0.1-0.1,0.1-0.2,0.2-0.3s0.1-0.2,0.1-0.3c0,0,0,0,0-0.1
	c0,0,0.1,0,0.1,0.1c0.1,0.2,0.3,0.4,0.4,0.4c0.1,0,0.2,0,0.3,0c0.1-0.1,0.2-0.1,0.4-0.2c0.1-0.1,0.3-0.2,0.4-0.2c0,0,0,0,0.1,0
	c0,0,0,0,0.1,0s0,0,0.1,0c0,0,0,0,0.1,0s0,0,0,0c0,0,0,0,0,0v0c0,0,0-0.1-0.1-0.1c0,0-0.1,0-0.1,0c0,0-0.1,0-0.1,0.1
	c-0.1,0-0.1,0.1-0.2,0.1c-0.1,0-0.1,0.1-0.2,0.1c-0.1,0-0.1,0.1-0.2,0.1c-0.1,0-0.1,0-0.2,0c-0.1,0-0.3,0-0.4-0.1
	c-0.1-0.1-0.1-0.1-0.1-0.1c0,0,0,0,0.1,0c0.2,0,0.3,0,0.4,0c0.1,0,0.2-0.1,0.4-0.1c0,0,0.1-0.1,0.2-0.1c0.1-0.1,0.2-0.1,0.3-0.1
	c0,0,0.1,0,0.1-0.1c0,0,0,0,0-0.1c0,0,0,0,0-0.1c0,0-0.1,0-0.1,0c0,0-0.1,0.1-0.1,0.1C23,20,22.9,20,22.9,20c-0.1,0-0.1,0-0.2,0.1
	c-0.1,0-0.1,0-0.1,0c-0.2,0.1-0.4,0.1-0.6,0.1c-0.1,0-0.1,0-0.2,0c-0.1,0-0.1,0-0.1-0.1c0,0-0.1-0.1-0.1-0.1c0,0-0.1-0.1-0.1-0.1
	c0,0-0.1-0.1,0-0.1c0-0.1,0-0.1,0.1-0.1c0,0,0,0,0.1-0.1c0.1,0,0.1-0.1,0.1-0.1c0-0.1,0.1-0.1,0.2-0.2c0,0,0-0.1,0-0.1
	c0-0.1,0-0.1-0.1-0.2c0-0.1-0.1-0.1-0.1-0.1c-0.1,0-0.1,0-0.2,0.1c0,0.1-0.1,0.1-0.1,0.2s0,0.1,0.1,0.2s0.1,0.1,0.1,0.1
	c0,0,0.1,0,0,0c0,0-0.1,0.1-0.1,0.1c0,0-0.1,0-0.1-0.1c0-0.1-0.1-0.1-0.1-0.2c0-0.1,0-0.1,0-0.2c0-0.1,0-0.2,0.1-0.3
	c0.1-0.1,0.1-0.1,0.2-0.1c0.1,0,0.2,0.1,0.2,0.2c0.1,0.1,0.1,0.3,0.1,0.5c0,0,0,0,0.1,0c0,0,0.1,0,0.2,0c0.1,0,0.1,0,0.2,0.1
	c0,0,0,0,0-0.1c-0.1-0.5,0.1-0.7,0.5-0.7c0.1,0,0.1,0,0.1,0c0,0,0.1,0,0.1,0.1c0,0,0.1,0.1,0.1,0.2c0,0.1,0.1,0.2,0.1,0.3v0.2
	c0,0.1,0,0.2-0.1,0.2c-0.1,0-0.1,0-0.2,0c0,0,0-0.1,0-0.1c0-0.1,0-0.2,0-0.3c-0.1-0.1-0.1-0.2-0.3-0.2c-0.1,0-0.1,0.1-0.2,0.1
	c0,0.1-0.1,0.2,0,0.3c0,0.1,0,0.1,0.1,0.1c0,0,0.1,0,0.2,0.1c0.1,0.1,0.2,0.1,0.2,0.1c0.1,0,0.2,0.1,0.2,0.1s0,0.1,0,0.3
	c0,0.1-0.1,0.2,0,0.3c0,0.1,0,0.1,0.1,0.2c0,0.1,0.1,0.1,0.1,0.2c0,0.1,0.1,0.1,0.2,0.3c0.1,0.1,0.1,0.3,0.2,0.6c0,0,0,0,0,0
	s0.1,0.1,0.1,0.1c0,0,0.1,0.1,0.1,0.1c0,0.1,0.1,0.1,0.1,0.2c0,0.1,0.1,0.2,0.1,0.4c0,0.2,0.1,0.4,0.1,0.6c0,0.2,0,0.4,0,0.5
	c0,0.1,0.1,0.1,0.2,0.1c0.1,0,0.2-0.1,0.3-0.2c0.1-0.4,0-0.9-0.3-1.5c-0.1-0.2-0.2-0.4-0.3-0.5c0.1,0.1,0.3,0.2,0.4,0.4
	c0.1,0.2,0.2,0.4,0.3,0.6c0,0,0,0.1,0,0.1c0,0.1,0,0.1,0,0.1c0,0,0,0.1,0,0.1c0,0.1,0,0.1,0,0.1c0,0,0,0.1,0,0.1s0,0.1,0,0.1
	c0,0,0,0.1,0,0.1c0,0.1,0,0.1,0,0.1c0,0,0,0.1,0,0.1c0.2,0.1,0.3,0.2,0.3,0.2c-0.1-0.1-0.2-0.1-0.3-0.1c-0.1,0-0.3,0-0.4,0.1
	c-0.1,0.1-0.2,0.1-0.2,0.3c-0.1,0-0.2,0-0.3,0.1C24,24.1,24,24.2,24,24.4s0,0.3,0,0.5C24.1,25.2,24.1,25.3,24.1,25.4z M21.8,18.9
	C21.8,18.9,21.8,18.9,21.8,18.9C21.8,18.9,21.8,18.9,21.8,18.9C21.8,18.9,21.8,18.9,21.8,18.9c0.1,0.1,0.1,0.1,0.1,0.2c0,0,0,0,0,0
	C21.8,19.1,21.8,19.1,21.8,18.9C21.8,19,21.8,18.9,21.8,18.9z M23.2,19L23.2,19C23.2,19.1,23.1,19.1,23.2,19
	c-0.1-0.1-0.1-0.1-0.1-0.1l0,0c0,0,0,0,0,0c0,0,0,0,0.1,0c0,0,0,0,0.1,0.1C23.2,19,23.2,19,23.2,19z M15,26.1
	c-0.3,0-0.6-0.1-0.9-0.2l-0.2,0.7c0.3,0.1,0.7,0.1,1,0.2L15,26.1z M18.1,26.6l-0.2-0.7C17.6,26,17.3,26,17,26.1l0.1,0.7
	C17.4,26.8,17.7,26.7,18.1,26.6z M9.7,12.2l-0.5-0.5c-0.2,0.3-0.4,0.5-0.6,0.8L9.1,13C9.3,12.7,9.5,12.5,9.7,12.2z M8.2,14.7
	l-0.7-0.3c-0.2,0.4-0.3,0.9-0.4,1.4L7.8,16C7.9,15.6,8,15.2,8.2,14.7z M7.7,18.9c0-0.3-0.1-0.6-0.1-1l-0.7,0c0,0.4,0,0.7,0.1,1
	L7.7,18.9z M23.7,12.6c-0.2-0.3-0.4-0.6-0.6-0.8l-0.5,0.5c0.2,0.2,0.4,0.5,0.6,0.8L23.7,12.6z M25.2,15.9c-0.1-0.5-0.2-0.9-0.4-1.4
	l-0.7,0.3c0.2,0.4,0.3,0.8,0.4,1.3L25.2,15.9z M25.4,18l-0.7,0c0,0.3,0,0.6-0.1,1l0.7,0.1C25.3,18.7,25.3,18.4,25.4,18z"/>
<rect id="_Transparent_Rectangle" style="fill:none;" class="st0" width="32" height="32"/>
</svg>
