<?xml version="1.0" encoding="utf-8"?>
<!-- Generator: Adobe Illustrator 24.1.0, SVG Export Plug-In . SVG Version: 6.00 Build 0)  -->
<svg slot="pictogram" focusable="false" preserveAspectRatio="xMidYMid meet" xmlns="http://www.w3.org/2000/svg" data-autoid="dds--card__pictogram" aria-label="Pictogram description" width="48" height="48" viewBox="0 0 32 32" role="img" class="bx--card__pictogram">
<path d="M29.1,12.2H16.6c-0.9,0-1.7-0.7-1.7-1.7V4.2c0-0.9,0.7-1.7,1.7-1.7h12.5c0.9,0,1.7,0.7,1.7,1.7v6.2
	C30.8,11.4,30.1,12.2,29.1,12.2z M16.6,3.5c-0.5,0-0.7,0.4-0.7,0.7v6.2c0,0.5,0.4,0.7,0.7,0.7h12.5c0.5,0,0.7-0.4,0.7-0.7V4.2
	c0-0.5-0.4-0.7-0.7-0.7H16.6z M15.4,29.5H2.9c-1,0-1.7-0.7-1.7-1.7v-9.9c0-1,0.7-1.7,1.7-1.7h12.5c1,0,1.7,0.7,1.7,1.7v9.9
	C17.1,28.8,16.3,29.5,15.4,29.5z M2.9,17.1c-0.5,0-0.7,0.4-0.7,0.7v9.9c0,0.5,0.4,0.7,0.7,0.7h12.5c0.5,0,0.7-0.4,0.7-0.7v-9.9
	c0-0.5-0.4-0.7-0.7-0.7H2.9z M30.8,24v-6.2c0-1-0.7-1.7-1.7-1.7h-9.9V17h9.9c0.5,0,0.7,0.4,0.7,0.7v6.2c0,0.5-0.4,0.7-0.7,0.7h-9.9
	v0.9h9.9C30.1,25.8,30.8,25,30.8,24z M10.9,4.2c0-1-0.7-1.7-1.7-1.7H3.1c-1,0-1.7,0.7-1.7,1.7v9.9h0.9V4.2c0-0.5,0.4-0.7,0.7-0.7
	h6.2c0.5,0,0.7,0.4,0.7,0.7v9.9h0.9V4.2H10.9z"/>
</svg>
