<?xml version="1.0" encoding="utf-8"?>
<!-- Generator: Adobe Illustrator 24.1.0, SVG Export Plug-In . SVG Version: 6.00 Build 0)  -->
<svg slot="pictogram" focusable="false" preserveAspectRatio="xMidYMid meet" xmlns="http://www.w3.org/2000/svg" data-autoid="dds--card__pictogram" aria-label="Pictogram description" width="48" height="48" viewBox="0 0 32 32" role="img" class="bx--card__pictogram">
<path id="zdih" d="M29.2,7.7l-13-7c-0.1-0.1-0.2-0.1-0.3,0l-13,7C2.7,7.7,2.6,7.9,2.6,8v16c0,0.1,0.1,0.3,0.2,0.3l13,7
	c0.1,0,0.1,0,0.2,0s0.1,0,0.2,0l13-7c0.1-0.1,0.2-0.2,0.2-0.3V8C29.4,7.9,29.3,7.7,29.2,7.7z M28.6,23.8L16,30.6l-8.6-4.7V11.2
	L16,6.5l4.8,2.8c0.2,0.1,0.4,0,0.5-0.1c0.1-0.2,0-0.4-0.1-0.5l-5-2.9c-0.1-0.1-0.2-0.1-0.4,0l-9,4.9c-0.1,0.1-0.2,0.2-0.2,0.3v14.6
	l-3.3-1.8V8.2L16,1.4l8.6,4.7v14.7L16,25.5l-4.8-2.8c-0.2-0.1-0.4,0-0.5,0.1c-0.1,0.2,0,0.4,0.1,0.5l5,2.9c0.1,0,0.1,0,0.2,0
	c0.1,0,0.1,0,0.2,0l9-4.9c0.1-0.1,0.2-0.2,0.2-0.3V6.4l3.3,1.8V23.8z M16,19.4c1.9,0,3.4-1.5,3.4-3.4s-1.5-3.4-3.4-3.4
	s-3.4,1.5-3.4,3.4S14.1,19.4,16,19.4z M16,13.4c1.5,0,2.6,1.2,2.6,2.6c0,1.5-1.2,2.6-2.6,2.6c-1.5,0-2.6-1.2-2.6-2.6
	C13.4,14.5,14.5,13.4,16,13.4z"/>
<rect id="_Transparent_Rectangle" style="fill:none;" class="st0" width="32" height="32"/>
</svg>
