<svg id="Layer_1" data-name="Layer 1" xmlns="http://www.w3.org/2000/svg" viewBox="0 0 31.99 32.07"><defs><style>.cls-1{fill:#fff;}</style></defs><g id="systems-devops--provision"><path class="cls-1" d="M26.5,30.39a2.86,2.86,0,0,1-2.86-2.86,2.83,2.83,0,0,1,.6-1.75l-2.43-2.42a4.39,4.39,0,1,1,.51-.51l2.43,2.42a2.86,2.86,0,1,1,1.75,5.12Zm0-5a2.14,2.14,0,1,0,2.14,2.14A2.14,2.14,0,0,0,26.5,25.39Zm-7.5-9A3.64,3.64,0,1,0,22.64,20,3.65,3.65,0,0,0,19,16.39Zm-4.18,14-12-7A.35.35,0,0,1,2.64,23V9h.72v13.8l11.82,6.89ZM7.36,16H6.64V6h.72Zm20-1h-.72V9.24L15,2.45,11.36,4.56V13h-.72V4.36a.35.35,0,0,1,.18-.31l4-2.33a.38.38,0,0,1,.36,0l12,7a.38.38,0,0,1,.18.31Z"/></g></svg>