<?xml version="1.0" encoding="utf-8"?>
<!-- Generator: Adobe Illustrator 24.1.0, SVG Export Plug-In . SVG Version: 6.00 Build 0)  -->
<svg version="1.1" id="Layer_1" xmlns="http://www.w3.org/2000/svg" xmlns:xlink="http://www.w3.org/1999/xlink" x="0px" y="0px"
	 viewBox="0 0 32 32" style="enable-background:new 0 0 32 32;" xml:space="preserve">
<style type="text/css">
	.st0{fill:#FFFFFF;}
</style>
<path class="st0" d="M16,31.4c-0.1,0-0.1,0-0.2,0l-13-7c-0.1-0.1-0.2-0.2-0.2-0.4V8c0-0.1,0.1-0.3,0.2-0.3l13-7
	c0.1-0.1,0.2-0.1,0.3,0l13,7c0.1,0.1,0.2,0.2,0.2,0.3v8c0,0.2-0.2,0.4-0.4,0.4c0,0,0,0,0,0H16.4V31c0,0.1-0.1,0.2-0.2,0.3
	C16.1,31.3,16.1,31.4,16,31.4z M3.4,23.8l12.3,6.6V16c0-0.2,0.2-0.4,0.4-0.4h12.6V8.2L16,1.4L3.4,8.2V23.8z"/>
</svg>
