<svg id="Layer_1" data-name="Layer 1" xmlns="http://www.w3.org/2000/svg" viewBox="0 0 31.99 32.07"><defs><style>.cls-1{fill:#fff;}</style></defs><g id="systems-devops--test"><path class="cls-1" d="M22.25,30.39a7.11,7.11,0,1,1,7.11-7.11A7.12,7.12,0,0,1,22.25,30.39Zm0-13.5a6.39,6.39,0,1,0,6.39,6.39A6.4,6.4,0,0,0,22.25,16.89ZM14.82,30.34l-12-7A.35.35,0,0,1,2.64,23V9h.72v13.8l11.82,6.89ZM22,26.39a.35.35,0,0,1-.26-.1l-2.55-2.56.51-.51,2.3,2.3,4-4,.51.51-4.26,4.26A.35.35,0,0,1,22,26.39ZM7.36,16H6.64V6h.72Zm20-1h-.72V9.24L15,2.45,11.36,4.57V13h-.72V4.36a.35.35,0,0,1,.18-.31l4-2.33a.38.38,0,0,1,.36,0l12,7a.38.38,0,0,1,.18.31Z"/></g></svg>