<svg id="Layer_1" data-name="Layer 1" xmlns="http://www.w3.org/2000/svg" viewBox="0 0 32 32"><defs><style>.cls-1{fill:#fff;}</style></defs><g id="devops"><path class="cls-1" d="M18,31.36H14a.35.35,0,0,1-.31-.18l-2-3.46a.33.33,0,0,1,0-.36l2-3.47a.35.35,0,0,1,.31-.18h3.79l2.9-5a.35.35,0,0,1,.49-.14.37.37,0,0,1,.13.5l-2.89,5,1.89,3.29a.33.33,0,0,1,0,.36l-2,3.46A.35.35,0,0,1,18,31.36Zm-3.79-.72h3.58l1.79-3.1-1.79-3.11H14.21l-1.79,3.11ZM28,25.59H24a.35.35,0,0,1-.31-.18l-2-3.46a.33.33,0,0,1,0-.36l1.89-3.29-2.89-5a.36.36,0,1,1,.62-.36l2.9,5H28a.35.35,0,0,1,.31.18l2,3.47a.33.33,0,0,1,0,.36l-2,3.46A.35.35,0,0,1,28,25.59Zm-3.79-.72h3.58l1.79-3.1-1.79-3.11H24.21l-1.79,3.11ZM8,25.59H4a.35.35,0,0,1-.31-.18L1.69,22a.33.33,0,0,1,0-.36l2-3.47A.35.35,0,0,1,4,17.94H8a.35.35,0,0,1,.31.18l1.9,3.29H16a.36.36,0,0,1,0,.72H10.21l-1.9,3.28A.35.35,0,0,1,8,25.59Zm-3.79-.72H7.79l1.79-3.1L7.79,18.66H4.21L2.42,21.77ZM11,19.25a.36.36,0,0,1-.31-.18l-2.9-5H4a.35.35,0,0,1-.31-.18l-2-3.47a.33.33,0,0,1,0-.36l2-3.46A.35.35,0,0,1,4,6.41H8a.35.35,0,0,1,.31.18l2,3.46a.33.33,0,0,1,0,.36L8.42,13.7l2.89,5a.36.36,0,0,1-.13.49A.31.31,0,0,1,11,19.25ZM4.21,13.34H7.79l1.79-3.11L7.79,7.13H4.21l-1.79,3.1ZM28,14.06H24a.35.35,0,0,1-.31-.18l-1.9-3.29H16a.36.36,0,0,1,0-.72h5.79l1.9-3.28A.35.35,0,0,1,24,6.41h4a.35.35,0,0,1,.31.18l2,3.46a.33.33,0,0,1,0,.36l-2,3.47A.35.35,0,0,1,28,14.06Zm-3.79-.72h3.58l1.79-3.11-1.79-3.1H24.21l-1.79,3.1ZM11,13.48a.39.39,0,0,1-.18,0,.37.37,0,0,1-.13-.5l2.89-5L11.69,4.64a.33.33,0,0,1,0-.36l2-3.46A.35.35,0,0,1,14,.64h4a.35.35,0,0,1,.31.18l2,3.46a.33.33,0,0,1,0,.36l-2,3.47a.35.35,0,0,1-.31.18H14.21l-2.9,5A.34.34,0,0,1,11,13.48Zm3.21-5.91h3.58l1.79-3.11-1.79-3.1H14.21l-1.79,3.1Z"/></g></svg>