<?xml version="1.0" encoding="utf-8"?>
<!-- Generator: Adobe Illustrator 24.1.0, SVG Export Plug-In . SVG Version: 6.00 Build 0)  -->
<svg version="1.1" id="Layer_1" xmlns="http://www.w3.org/2000/svg" xmlns:xlink="http://www.w3.org/1999/xlink" x="0px" y="0px"
	 width="32px" height="32px" viewBox="0 0 32 32" style="enable-background:new 0 0 32 32;" xml:space="preserve">
<path d="M29.8,12.2c-0.2,0-0.4,0.2-0.4,0.4v17.1H8.2V6.1h10c0.2,0,0.4-0.2,0.4-0.4c0-0.2-0.2-0.4-0.4-0.4H1c-0.2,0-0.4,0.2-0.4,0.4
	v24.2c0,0.2,0.2,0.4,0.4,0.4h28.8c0.2,0,0.4-0.2,0.4-0.4V12.5C30.2,12.3,30,12.2,29.8,12.2z M7.5,6.1v1.7H1.4V6.1H7.5z M1.4,8.5h6.2
	v21H1.4V8.5z M13.6,9.4c0,0.2-0.2,0.4-0.4,0.4h0H11c-0.2,0-0.4-0.2-0.4-0.4C10.6,9.2,10.8,9,11,9h2.2C13.4,9,13.6,9.2,13.6,9.4z
	 M16.5,11.9h-3.4c-0.2,0-0.4-0.2-0.4-0.4c0-0.2,0.2-0.4,0.4-0.4h3.4c0.2,0,0.4,0.2,0.4,0.4C16.9,11.7,16.7,11.9,16.5,11.9z
	 M2.4,10.4c0-0.2,0.2-0.4,0.4-0.4h2.1c0.2,0,0.4,0.2,0.4,0.4c0,0.2-0.2,0.4-0.4,0.4H2.7C2.5,10.8,2.4,10.6,2.4,10.4z M5.2,14.8
	c0,0.2-0.2,0.4-0.4,0.4H2.7c-0.2,0-0.4-0.2-0.4-0.4c0-0.2,0.2-0.4,0.4-0.4h2.1C5,14.5,5.2,14.7,5.2,14.8z M6,12.6
	C6,12.8,5.8,13,5.7,13H2.7c-0.2,0-0.4-0.2-0.4-0.4c0-0.2,0.2-0.4,0.4-0.4h2.9C5.8,12.3,6,12.4,6,12.6z M26.6,14.1H15.4
	c-0.2,0-0.4-0.2-0.4-0.4c0-0.2,0.2-0.4,0.4-0.4h11.2c0.2,0,0.4,0.2,0.4,0.4C27,13.9,26.8,14.1,26.6,14.1z M24.4,16.3h-9
	c-0.2,0-0.4-0.2-0.4-0.4c0-0.2,0.2-0.4,0.4-0.4h9c0.2,0,0.4,0.2,0.4,0.4C24.8,16.1,24.6,16.3,24.4,16.3L24.4,16.3z M16.9,18.1
	c0,0.2-0.2,0.4-0.4,0.4h-3.4c-0.2,0-0.4-0.2-0.4-0.4c0-0.2,0.2-0.4,0.4-0.4h3.4C16.7,17.7,16.9,17.9,16.9,18.1z M16.9,20.3
	c0,0.2-0.2,0.4-0.4,0.4h-3.4c-0.2,0-0.4-0.2-0.4-0.4c0-0.2,0.2-0.4,0.4-0.4c0,0,0,0,0,0h3.4C16.7,19.9,16.9,20.1,16.9,20.3z
	 M23.3,22.8h-7.8c-0.2,0-0.4-0.2-0.4-0.4c0-0.2,0.2-0.4,0.4-0.4h7.8c0.2,0,0.4,0.2,0.4,0.4C23.6,22.7,23.5,22.8,23.3,22.8z M16.5,25
	h-3.4c-0.2,0-0.4-0.2-0.4-0.4c0-0.2,0.2-0.4,0.4-0.4h3.4c0.2,0,0.4,0.2,0.4,0.4C16.9,24.8,16.7,25,16.5,25z M10.6,26.8
	c0-0.2,0.2-0.4,0.4-0.4c0,0,0,0,0,0h2.2c0.2,0,0.4,0.2,0.4,0.4c0,0.2-0.2,0.4-0.4,0.4h0H11C10.8,27.2,10.6,27,10.6,26.8z M27.4,7.5
	l1.1-1.1l-1.1-1.1c-0.1-0.1-0.1-0.3,0-0.5c0,0,0,0,0,0c0.1-0.1,0.4-0.1,0.5,0c0,0,0,0,0,0l1.4,1.3c0.1,0.1,0.1,0.4,0,0.5
	c0,0,0,0,0,0L27.9,8c-0.1,0.1-0.2,0.1-0.2,0.1c-0.2,0-0.4-0.1-0.4-0.3C27.2,7.7,27.3,7.6,27.4,7.5z M21.9,6.7
	c-0.1-0.1-0.1-0.2-0.1-0.3c0-0.1,0-0.2,0.1-0.3l1.4-1.3c0.1-0.1,0.4-0.1,0.5,0c0,0,0,0,0,0c0.1,0.1,0.1,0.4,0,0.5c0,0,0,0,0,0
	l-1.1,1.1l1.1,1.1c0.1,0.1,0.1,0.4,0,0.5c0,0,0,0,0,0c-0.1,0.1-0.2,0.1-0.2,0.1c-0.1,0-0.2,0-0.2-0.1L21.9,6.7z M24.4,7.8
	C24.4,7.8,24.4,7.8,24.4,7.8L25.8,5c0.1-0.2,0.3-0.3,0.5-0.2c0.2,0.1,0.3,0.3,0.2,0.5l-1.4,2.8c-0.1,0.1-0.2,0.2-0.3,0.2
	c-0.1,0-0.1,0-0.2,0C24.4,8.2,24.3,8,24.4,7.8z M25.5,12.4c3.2,0,5.9-2.6,5.9-5.9c0-3.2-2.6-5.9-5.9-5.9s-5.9,2.6-5.9,5.9
	S22.3,12.4,25.5,12.4z M25.5,1.4c2.8,0,5.1,2.3,5.1,5.1c0,2.8-2.3,5.1-5.1,5.1s-5.1-2.3-5.1-5.1S22.7,1.4,25.5,1.4z"/>
</svg>
