<?xml version="1.0" encoding="utf-8"?>
<!-- Generator: Adobe Illustrator 24.1.0, SVG Export Plug-In . SVG Version: 6.00 Build 0)  -->
<svg version="1.1" id="Layer_1" xmlns="http://www.w3.org/2000/svg" xmlns:xlink="http://www.w3.org/1999/xlink" x="0px" y="0px"
	 width="32px" height="32px" viewBox="0 0 32 32" style="enable-background:new 0 0 32 32;" xml:space="preserve">
<path d="M30.9,13.1H9c-0.2,0-0.3,0.1-0.3,0.3v6.6H1.4V7.8h21.2v5.2h0.7V5.5c0-0.2-0.1-0.3-0.3-0.3H1.1c-0.2,0-0.3,0.1-0.3,0.3v14.9
	c0,0.2,0.1,0.3,0.3,0.3h7.5v7.6c0,0.2,0.1,0.3,0.3,0.3h21.9c0.2,0,0.3-0.1,0.3-0.3V13.5C31.3,13.3,31.1,13.1,30.9,13.1z M22.6,7.2
	H1.4V5.9h21.2V7.2z M30.6,13.9v1.3H9.4v-1.3H30.6z M9.4,28.1V15.9h21.2v12.2C30.6,28.1,9.4,28.1,9.4,28.1z M2.7,12
	c0,1.5,1.3,2.9,2.9,2.9s2.9-1.3,2.9-2.9S7.2,9.1,5.6,9.1S2.7,10.5,2.7,12z M5.6,14.1c-1.2,0-2.1-0.9-2.1-2.1c0-1.1,0.7-1.9,1.8-2.1
	V12c0,0.1,0.1,0.3,0.2,0.3c0.1,0.1,0.1,0.1,0.2,0.1c0.1,0,0.1,0,0.1-0.1l1.9-0.9c0.1,0.2,0.1,0.4,0.1,0.6
	C7.6,13.2,6.7,14.1,5.6,14.1z M7.2,10.7l-1.3,0.7V9.9C6.4,10,6.9,10.3,7.2,10.7z M19,10.3H11c-0.2,0-0.3-0.1-0.3-0.3
	c0-0.2,0.1-0.3,0.3-0.3H19c0.2,0,0.3,0.1,0.3,0.3C19.3,10.1,19.2,10.3,19,10.3z M17,11.1c0.2,0,0.3,0.1,0.3,0.3
	c0,0.2-0.1,0.3-0.3,0.3H11c-0.2,0-0.3-0.1-0.3-0.3c0-0.2,0.1-0.3,0.3-0.3C11,11.1,17,11.1,17,11.1z M26.9,20.1
	c-0.3,0-0.5,0.1-0.7,0.2c0,0,0-0.1-0.1-0.1l-1-1c0,0-0.1,0-0.1-0.1c0.1-0.2,0.2-0.5,0.2-0.7c0-0.7-0.6-1.3-1.3-1.3s-1.3,0.6-1.3,1.3
	c0,0.7,0.6,1.3,1.3,1.3c0.3,0,0.5-0.1,0.7-0.2c0,0,0,0.1,0.1,0.1l1,1c0,0,0.1,0,0.1,0.1c-0.1,0.1-0.1,0.3-0.2,0.5l-5.4,2.7
	C20,23.3,19.5,23,18.9,23c-0.3,0-0.5,0.1-0.7,0.2c0,0,0-0.1-0.1-0.1l-1-1c0,0-0.1,0-0.1-0.1c0.1-0.2,0.2-0.5,0.2-0.7
	c0-0.7-0.6-1.3-1.3-1.3c-0.7,0-1.3,0.6-1.3,1.3c0,0.3,0.1,0.5,0.2,0.7c0,0-0.1,0-0.1,0.1l-2,2c0,0,0,0.1-0.1,0.1
	c-0.2-0.1-0.5-0.2-0.7-0.2c-0.7,0-1.3,0.6-1.3,1.3s0.6,1.3,1.3,1.3s1.3-0.6,1.3-1.3c0-0.3-0.1-0.5-0.2-0.7c0,0,0.1,0,0.1-0.1l2-2
	c0,0,0-0.1,0.1-0.1c0.2,0.1,0.5,0.2,0.7,0.2s0.5-0.1,0.7-0.2c0,0,0,0.1,0.1,0.1l1,1c0,0,0.1,0,0.1,0.1c-0.1,0.2-0.2,0.5-0.2,0.7
	c0,0.7,0.6,1.3,1.3,1.3c0.7,0,1.2-0.5,1.3-1.1l5.4-2.7c0.2,0.5,0.7,0.8,1.3,0.8c0.7,0,1.3-0.6,1.3-1.3
	C28.3,20.7,27.7,20.1,26.9,20.1z M23.9,19.1c-0.3,0-0.7-0.3-0.7-0.7s0.3-0.7,0.7-0.7c0.3,0,0.7,0.3,0.7,0.7S24.3,19.1,23.9,19.1z
	 M12,26.1c-0.3,0-0.7-0.3-0.7-0.7c0-0.3,0.3-0.7,0.7-0.7c0.3,0,0.7,0.3,0.7,0.7C12.6,25.8,12.4,26.1,12,26.1z M16,22.1
	c-0.3,0-0.7-0.3-0.7-0.7s0.3-0.7,0.7-0.7s0.7,0.3,0.7,0.7S16.3,22.1,16,22.1z M19,25.1c-0.3,0-0.7-0.3-0.7-0.7
	c0-0.3,0.3-0.7,0.7-0.7c0.3,0,0.7,0.3,0.7,0.7C19.6,24.8,19.3,25.1,19,25.1z M26.9,22.1c-0.3,0-0.7-0.3-0.7-0.7s0.3-0.7,0.7-0.7
	c0.3,0,0.7,0.3,0.7,0.7S27.3,22.1,26.9,22.1z"/>
</svg>
