<?xml version="1.0" encoding="utf-8"?>
<!-- Generator: Adobe Illustrator 24.1.0, SVG Export Plug-In . SVG Version: 6.00 Build 0)  -->
<svg version="1.1" id="Layer_1" xmlns="http://www.w3.org/2000/svg" xmlns:xlink="http://www.w3.org/1999/xlink" x="0px" y="0px"
	 width="32px" height="32px" viewBox="0 0 32 32" style="enable-background:new 0 0 32 32;" xml:space="preserve">
<path d="M28.3,21c0-0.1,0-0.1,0-0.1c0,0,0,0,0,0c0,0-0.1-0.1-0.1-0.1l-11.5-5c-0.1,0-0.2,0-0.3,0L4.8,21c0,0,0,0,0,0
	c-0.2,0-0.4,0.2-0.4,0.4v4.6c0,0.1,0.1,0.3,0.2,0.3l11.5,5.1c0,0,0.1,0,0.1,0c0,0,0.1,0,0.2,0l11.5-5.4c0.1-0.1,0.2-0.2,0.2-0.3
	L28.3,21C28.3,21,28.3,21,28.3,21C28.3,21,28.3,21,28.3,21C28.3,21,28.3,21,28.3,21z M16.4,16.3L27,21l-4.4,2l-6.1-2.8
	c-0.1,0-0.2,0-0.3,0l-6.3,2.9l-4.2-1.8L16.4,16.3z M21.7,23.4l-5.4,2.5l-5.5-2.4l5.5-2.5L21.7,23.4z M16.4,30.6L5.2,25.7v-3.7
	l11,4.8c0,0,0.1,0,0.1,0c0.1,0,0.1,0,0.2,0l11-5.1v3.8L16.4,30.6z M5.4,9.7c1.3,0,2.4-1,2.6-2.3c0,0,0,0,0,0h2.9v6.9L9.5,13
	c0,0-0.1-0.1-0.1-0.1c-0.2-0.1-0.4-0.1-0.5,0.1c-0.1,0.2-0.1,0.4,0.1,0.5l2,2c0.1,0.1,0.2,0.1,0.2,0.1c0.1,0,0.2,0,0.3-0.1l1.9-2
	c0.1-0.1,0.1-0.4,0-0.5c-0.1-0.1-0.4-0.1-0.5,0l-1.3,1.3V7c0-0.2-0.2-0.4-0.4-0.4H8c0,0,0,0,0,0C7.8,5.4,6.7,4.4,5.3,4.4
	C3.8,4.4,2.6,5.6,2.6,7C2.6,8.5,3.8,9.7,5.4,9.7C5.3,9.7,5.3,9.7,5.4,9.7z M3.3,7.1c0-1.1,0.9-2,2-2s2,0.9,2,2c0,1.1-0.9,2-2,2
	S3.3,8.2,3.3,7.1z M26.4,0.6c-1.4,0-2.5,1-2.6,2.4h-3.5c-0.2,0-0.3,0.1-0.4,0.3V13l-1.3-1.3c-0.1-0.1-0.4-0.1-0.5,0
	c-0.1,0.1-0.1,0.4,0,0.5l2,2c0.1,0.1,0.2,0.1,0.2,0.1c0.1,0,0.2,0,0.3-0.1l1.9-2c0.1-0.1,0.1-0.4,0-0.5c-0.1-0.1-0.4-0.1-0.5,0
	l-1.4,1.3V3.7h3.1C24,5,25.1,6,26.4,6c1.5,0,2.7-1.2,2.7-2.7S27.9,0.6,26.4,0.6z M26.4,5.4c-1.1,0-1.9-0.8-2-1.9c0,0,0-0.1,0-0.1
	s0-0.1,0-0.1c0.1-1,0.9-1.9,2-1.9c1.1,0,2,0.9,2,2C28.4,4.5,27.5,5.4,26.4,5.4z"/>
</svg>
