<svg id="Layer_1" data-name="Layer 1" xmlns="http://www.w3.org/2000/svg" viewBox="0 0 32 32"><defs><style>.cls-1{fill:#fff;}.cls-2{fill:none;}</style></defs><path class="cls-1" d="M9.93,23.89a.36.36,0,0,1-.15-.68l6.44-3a.39.39,0,0,1,.3,0l6.2,2.88a.36.36,0,0,1-.3.66h0L16.37,21l-6.29,2.9A.38.38,0,0,1,9.93,23.89Z"/><path class="cls-1" d="M16.37,31.32h-.14L4.69,26.24a.36.36,0,0,1-.21-.33V21.32a.36.36,0,1,1,.72,0h0v4.35l11.17,4.9,11.19-5.24V21a.36.36,0,0,1,.72,0v4.6a.36.36,0,0,1-.21.33l-11.55,5.4A.38.38,0,0,1,16.37,31.32Z"/><path class="cls-1" d="M16.37,26.7a.38.38,0,0,1-.15,0l-11.53-5a.36.36,0,0,1-.21-.33.37.37,0,0,1,.2-.33l11.54-5.37a.32.32,0,0,1,.3,0l11.54,5a.35.35,0,0,1,.22.32.36.36,0,0,1-.21.33L16.52,26.67A.4.4,0,0,1,16.37,26.7ZM5.71,21.31l10.65,4.63L27,21,16.38,16.34Z"/><path class="cls-1" d="M5.32,9.72A2.68,2.68,0,1,1,8,7,2.68,2.68,0,0,1,5.32,9.72Zm0-4.64a2,2,0,1,0,2,2,2,2,0,0,0-2-2Z"/><path class="cls-1" d="M11.22,15a.36.36,0,0,1-.36-.36V7.4H8a.36.36,0,0,1,0-.72h3.22a.36.36,0,0,1,.36.36v7.58a.36.36,0,0,1-.34.38Z"/><path class="cls-1" d="M11.22,15.52a.35.35,0,0,1-.25-.1L9,13.47a.36.36,0,0,1,.44-.57.28.28,0,0,1,.09.1l1.69,1.69L12.91,13a.36.36,0,0,1,.51.51l-1.94,2A.4.4,0,0,1,11.22,15.52Z"/><path class="cls-1" d="M26.41,6a2.68,2.68,0,1,1,2.68-2.68A2.68,2.68,0,0,1,26.41,6Zm0-4.64a2,2,0,1,0,2,2,2,2,0,0,0-2-2Z"/><path class="cls-1" d="M20.27,13.74a.36.36,0,0,1-.36-.36h0V3.32A.37.37,0,0,1,20.27,3h3.82a.36.36,0,0,1,0,.72H20.63v9.7A.37.37,0,0,1,20.27,13.74Z"/><path class="cls-1" d="M20.27,14.28a.35.35,0,0,1-.25-.1l-1.95-1.95a.36.36,0,0,1,.51-.51l1.69,1.69L22,11.72a.36.36,0,1,1,.51.51l-1.94,1.95A.37.37,0,0,1,20.27,14.28Z"/><rect class="cls-2" width="32" height="32"/></svg>