<svg id="Layer_1" data-name="Layer 1" xmlns="http://www.w3.org/2000/svg" viewBox="0 0 32 32"><defs><style>.cls-1{fill:#fff;}.cls-2{fill:none;}</style></defs><path class="cls-1" d="M16.84,11.79H2.24a.36.36,0,0,1-.36-.36V8a.36.36,0,0,1,.36-.36h14.6a.37.37,0,0,1,.37.36v3.48A.38.38,0,0,1,16.84,11.79ZM2.6,11.07H16.48V8.31H2.6Z" transform="translate(0.06)"/><path class="cls-1" d="M23.88,30.15H20.4a.36.36,0,0,1-.36-.36h0V15.19a.36.36,0,0,1,.36-.36h3.48a.36.36,0,0,1,.36.36h0v14.6A.36.36,0,0,1,23.88,30.15Zm-3.12-.72h2.76V15.55H20.76Z" transform="translate(0.06)"/><g id="gear"><path class="cls-1" d="M10.65,28.8H8.34A.36.36,0,0,1,8,28.44V27.16l-.65-.27-.91.9a.36.36,0,0,1-.51,0h0L4.28,26.16a.36.36,0,0,1,0-.51h0l.9-.9-.27-.66H3.63a.36.36,0,0,1-.36-.36h0V21.42a.36.36,0,0,1,.36-.36H4.91l.27-.66-.9-.9a.36.36,0,0,1-.11-.26A.32.32,0,0,1,4.28,19l1.63-1.64a.36.36,0,0,1,.51,0h0l.9.9L8,18V16.71a.36.36,0,0,1,.36-.36h2.31a.36.36,0,0,1,.36.36h0V18l.66.28.9-.91a.36.36,0,0,1,.51,0h0L14.72,19a.39.39,0,0,1,.1.25.4.4,0,0,1-.1.26l-.91.9.27.66h1.28a.36.36,0,0,1,.36.36h0v2.31a.36.36,0,0,1-.36.36H14.09l-.28.65.91.91a.39.39,0,0,1,.1.25.4.4,0,0,1-.1.26L13.08,27.8a.36.36,0,0,1-.51,0h0l-.9-.9-.66.27v1.28A.37.37,0,0,1,10.65,28.8Zm-2-.72h1.59V26.92a.37.37,0,0,1,.23-.34l1.1-.45a.37.37,0,0,1,.39.08l.82.82L14,25.9l-.82-.82a.37.37,0,0,1-.08-.39l.46-1.1a.38.38,0,0,1,.34-.22H15V21.78H13.84a.37.37,0,0,1-.33-.23l-.45-1.1a.34.34,0,0,1,.08-.39l.81-.82-1.12-1.12-.82.82a.37.37,0,0,1-.4.07l-1.1-.46a.36.36,0,0,1-.22-.33V17.07H8.7v1.16a.37.37,0,0,1-.22.33L7.38,19a.35.35,0,0,1-.4-.08l-.81-.81L5,19.24l.82.82a.37.37,0,0,1,.08.4l-.46,1.09a.37.37,0,0,1-.33.23H4v1.59H5.15a.36.36,0,0,1,.33.22l.46,1.1a.37.37,0,0,1-.08.39L5,25.9,6.17,27,7,26.21a.34.34,0,0,1,.39-.08l1.1.46a.37.37,0,0,1,.22.33Zm.8-2.41a3.1,3.1,0,1,1,3.09-3.11h0a3.1,3.1,0,0,1-3,3.1Zm0-5.47a2.38,2.38,0,1,0,2.37,2.39v0A2.38,2.38,0,0,0,9.5,20.2Z" transform="translate(0.06)"/></g><path class="cls-1" d="M9.51,31.36a8.83,8.83,0,0,1-6.88-3.27,8.92,8.92,0,0,1-2-5.6,8.79,8.79,0,0,1,1.8-5.36,8.69,8.69,0,0,1,1.5-1.53V11.43a.37.37,0,0,1,.37-.36H14.76a.36.36,0,0,1,.36.36v4.2A8.54,8.54,0,0,1,16.4,16.9h4a.36.36,0,0,1,.36.36h0V27.71a.37.37,0,0,1-.36.36h-4A8.78,8.78,0,0,1,9.51,31.36ZM4.68,11.79v4a.37.37,0,0,1-.13.28A8.42,8.42,0,0,0,3,17.56a8.05,8.05,0,0,0-1.66,4.93,8.15,8.15,0,0,0,14.59,5,.42.42,0,0,1,.28-.14H20V17.63H16.23a.35.35,0,0,1-.28-.14,8.43,8.43,0,0,0-1.4-1.4.37.37,0,0,1-.13-.28v-4Z" transform="translate(0.06)"/><path class="cls-1" d="M6.67,6.29H5.56a.35.35,0,0,1-.31-.18l-.56-1a.33.33,0,0,1,0-.36l.56-1a.35.35,0,0,1,.31-.18H6.67A.34.34,0,0,1,7,3.82l.56,1a.33.33,0,0,1,0,.36L7,6.11A.35.35,0,0,1,6.67,6.29Zm-.9-.72h.69L6.81,5l-.35-.61H5.77L5.42,5Z" transform="translate(0.06)"/><path class="cls-1" d="M29,28.44a.37.37,0,0,1-.18-.05l-1-.55a.37.37,0,0,1-.18-.31V26.41a.35.35,0,0,1,.18-.31l1-.56a.38.38,0,0,1,.36,0l1,.56a.35.35,0,0,1,.18.31v1.12a.37.37,0,0,1-.18.31l-1,.55A.24.24,0,0,1,29,28.44Zm-.6-1.12.6.35.61-.35v-.7L29,26.27l-.6.35Z" transform="translate(0.06)"/><path class="cls-1" d="M14,6.59a.28.28,0,0,1-.18,0l-1-.56a.35.35,0,0,1-.18-.31V4.56a.35.35,0,0,1,.18-.31l1-.56a.33.33,0,0,1,.36,0l1,.56a.35.35,0,0,1,.18.31V5.67a.35.35,0,0,1-.18.31l-1,.56A.41.41,0,0,1,14,6.59Zm-.61-1.13.61.35.6-.35V4.77L14,4.42l-.61.35Z" transform="translate(0.06)"/><path class="cls-1" d="M28.68,20.71H27.57a.32.32,0,0,1-.31-.18l-.56-1a.33.33,0,0,1,0-.36l.56-1a.35.35,0,0,1,.31-.18h1.11a.35.35,0,0,1,.31.18l.56,1a.33.33,0,0,1,0,.36l-.56,1A.35.35,0,0,1,28.68,20.71Zm-.9-.72h.69l.36-.6-.36-.61h-.69l-.35.61Z" transform="translate(0.06)"/><path class="cls-1" d="M10.59,3.36A1.33,1.33,0,1,1,11.91,2a1.34,1.34,0,0,1-1.32,1.36Zm0-1.93a.61.61,0,1,0,.6.62V2a.6.6,0,0,0-.6-.6Z" transform="translate(0.06)"/><path class="cls-1" d="M30,24.58a1.33,1.33,0,1,1,1.32-1.34h0A1.33,1.33,0,0,1,30,24.58Zm0-1.93a.61.61,0,1,0,.6.62v0a.6.6,0,0,0-.6-.6Z" transform="translate(0.06)"/><path class="cls-1" d="M26,19.75H25A.38.38,0,1,1,25,19h1a.36.36,0,0,1,0,.72Z" transform="translate(0.06)"/><path class="cls-1" d="M28,23.61H25a.36.36,0,0,1,0-.72h3a.36.36,0,0,1,0,.72Z" transform="translate(0.06)"/><path class="cls-1" d="M27,27.48H25a.36.36,0,0,1,0-.72h2a.36.36,0,0,1,0,.72Z" transform="translate(0.06)"/><rect class="cls-2" width="32" height="32"/></svg>