<?xml version="1.0" encoding="utf-8"?>
<!-- Generator: Adobe Illustrator 24.1.0, SVG Export Plug-In . SVG Version: 6.00 Build 0)  -->
<svg version="1.1" id="Layer_1" xmlns="http://www.w3.org/2000/svg" xmlns:xlink="http://www.w3.org/1999/xlink" x="0px" y="0px"
	 viewBox="0 0 32 32" style="enable-background:new 0 0 32 32;" xml:space="preserve">
<style type="text/css">
	.st0{fill:none;}
	.st1{fill:#FFFFFF;}
</style>
<path class="st0" d="M22.2,7.2H1.8V19h7.4v-6.6c0-0.2,0.1-0.4,0.3-0.4c0,0,0,0,0,0h12.6V7.2z M8.8,11.9C8.5,13.1,7.4,14,6.1,14
	c-0.2,0-0.4,0-0.6-0.1c-0.7-0.2-1.3-0.6-1.7-1.2c-0.4-0.6-0.5-1.4-0.3-2.1c0.4-1.5,1.9-2.4,3.3-2.1c0.7,0.2,1.3,0.6,1.7,1.2
	C8.9,10.4,9,11.2,8.8,11.9z M16.1,10.8h-4.4c-0.2,0-0.4-0.2-0.4-0.3v0c0-0.2,0.1-0.3,0.3-0.4c0,0,0,0,0,0h4.4c0.2,0,0.4,0.2,0.4,0.3
	v0C16.4,10.6,16.3,10.8,16.1,10.8L16.1,10.8z M18.3,9.4h-6.6c-0.2,0-0.4-0.2-0.4-0.3v0c0-0.2,0.1-0.3,0.3-0.4c0,0,0,0,0,0h6.6
	c0.2,0,0.4,0.2,0.4,0.3v0C18.7,9.2,18.5,9.4,18.3,9.4L18.3,9.4z"/>
<path class="st0" d="M25.9,19.2c0.2,0.1,0.5,0,0.6-0.2c0,0,0,0,0,0c0-0.1,0-0.2,0-0.4c0-0.1-0.1-0.2-0.2-0.3c-0.1,0-0.1,0-0.2,0H26
	c-0.1,0-0.2,0.1-0.3,0.2C25.6,18.8,25.7,19.1,25.9,19.2C25.9,19.2,25.9,19.2,25.9,19.2L25.9,19.2z"/>
<path class="st0" d="M22.4,16.4c-0.1,0-0.1,0-0.2,0H22c-0.1,0-0.2,0.1-0.3,0.2c-0.1,0.2,0,0.5,0.2,0.6c0,0,0,0,0,0
	c0.2,0.1,0.5,0,0.6-0.2c0,0,0,0,0,0C22.7,16.8,22.6,16.5,22.4,16.4C22.4,16.4,22.4,16.4,22.4,16.4z"/>
<rect x="1.8" y="5.7" class="st0" width="20.4" height="0.8"/>
<path class="st0" d="M6.3,11.5c-0.1,0-0.1,0.1-0.2,0.1c-0.1,0-0.1,0-0.2-0.1c-0.1-0.1-0.2-0.2-0.1-0.4l0.5-2H6.1
	C5.7,9.1,5.3,9.3,5,9.5c-0.5,0.3-0.8,0.8-0.9,1.3c-0.3,1.1,0.4,2.2,1.5,2.5c1.1,0.3,2.2-0.4,2.5-1.5l0,0c0.1-0.4,0.1-0.9-0.1-1.3
	L6.3,11.5z"/>
<path class="st0" d="M19.5,21.7c0.2,0.1,0.5,0,0.6-0.2c0,0,0,0,0,0c0-0.1,0-0.2,0-0.4c0-0.1-0.1-0.2-0.2-0.3c-0.1,0-0.1,0-0.2,0
	h-0.1c-0.1,0-0.2,0.1-0.3,0.2c0,0.1,0,0.2,0,0.4C19.3,21.5,19.3,21.6,19.5,21.7z"/>
<path class="st0" d="M6.9,9.3l-0.3,1.2l1-0.6C7.5,9.6,7.2,9.4,6.9,9.3z"/>
<path class="st0" d="M10,26h20.3V14.2H10V26z M13,22.6c0.2-0.4,0.7-0.7,1.1-0.6l0.9-1.8c-0.5-0.4-0.5-1.2,0-1.6
	c0.4-0.4,0.9-0.5,1.4-0.2c0.4,0.2,0.7,0.7,0.6,1.2l1.8,0.9c0.1-0.1,0.3-0.2,0.5-0.3c0.3-0.1,0.6-0.1,0.9,0.1
	c0.2,0.1,0.3,0.2,0.4,0.3l4.4-1.6c0-0.1,0-0.2,0-0.3l-2-1c-0.2,0.2-0.5,0.4-0.8,0.4c-0.2,0-0.4,0-0.5-0.1c-0.6-0.3-0.8-1-0.5-1.6
	c0.1-0.3,0.4-0.5,0.7-0.6c0.6-0.2,1.3,0.1,1.4,0.8c0.1,0.2,0.1,0.3,0,0.5l2,1c0.1-0.1,0.3-0.2,0.5-0.3c0.6-0.1,1.2,0.3,1.3,1
	s-0.3,1.2-1,1.3c-0.2,0-0.4,0-0.5-0.1c-0.1-0.1-0.3-0.2-0.4-0.3l-4.5,1.7c0,0.2,0,0.4-0.1,0.6l0,0c-0.1,0.3-0.4,0.5-0.7,0.6
	c-0.1,0-0.2,0.1-0.4,0.1c-0.2,0-0.4,0-0.5-0.1c-0.3-0.1-0.5-0.4-0.6-0.7c0-0.2,0-0.4,0-0.5l-1.8-0.9c-0.1,0.1-0.3,0.2-0.5,0.3
	c-0.1,0-0.2,0.1-0.4,0.1c-0.1,0-0.1,0-0.2,0l-0.9,1.8c0.1,0.1,0.2,0.3,0.3,0.5c0.2,0.6-0.1,1.3-0.7,1.5c-0.3,0.1-0.6,0.1-0.9-0.1
	c-0.6-0.3-0.8-0.9-0.6-1.5C12.9,22.7,12.9,22.6,13,22.6L13,22.6z"/>
<rect x="9.9" y="12.7" class="st0" width="20.3" height="0.8"/>
<path class="st0" d="M15.7,19.8c0.1,0,0.2,0,0.4,0c0.1,0,0.2-0.1,0.3-0.2l0,0c0.1-0.2,0-0.5-0.2-0.6c0,0,0,0,0,0c-0.1,0-0.1,0-0.2,0
	c-0.2,0-0.3,0.1-0.4,0.3c0,0.1,0,0.2,0,0.4C15.5,19.7,15.6,19.7,15.7,19.8z"/>
<path class="st0" d="M13.8,23.5c0.2,0.1,0.5,0,0.6-0.2c0,0,0,0,0,0l0,0c0.1-0.2,0-0.5-0.2-0.6c0,0,0,0,0,0c-0.1,0-0.1-0.1-0.2,0
	c-0.3,0-0.5,0.2-0.5,0.5C13.5,23.3,13.6,23.5,13.8,23.5z"/>
<path class="st1" d="M30.6,12h-7.8V5.3c0-0.2-0.2-0.3-0.3-0.3H1.5C1.3,5,1.1,5.2,1.1,5.3v14c0,0.2,0.2,0.4,0.3,0.4c0,0,0,0,0,0h7.8
	v6.7c0,0.2,0.2,0.4,0.4,0.4h21.1c0.2,0,0.4-0.2,0.4-0.4v-14C31,12.2,30.9,12,30.6,12C30.7,12,30.7,12,30.6,12z M1.8,5.7h20.4v0.8
	H1.8V5.7z M9.2,12.4V19H1.8V7.2h20.4V12H9.6C9.4,12,9.2,12.2,9.2,12.4C9.2,12.4,9.2,12.4,9.2,12.4z M30.3,26H10V14.2h20.3V26z
	 M30.3,13.5H10v-0.8h20.3V13.5z"/>
<path class="st1" d="M6.8,8.5c-1.5-0.4-3,0.6-3.3,2.1c0,0,0,0,0,0c-0.2,0.7-0.1,1.5,0.3,2.1c0.4,0.6,1,1.1,1.7,1.2
	C5.7,14,5.9,14,6.1,14c1.3,0,2.4-0.9,2.7-2.1C9.2,10.4,8.3,8.9,6.8,8.5z M6.9,9.3c0.3,0.1,0.5,0.3,0.7,0.5l-1,0.6L6.9,9.3z
	 M8.1,11.7c-0.3,1.1-1.4,1.8-2.5,1.5c-1.1-0.3-1.8-1.4-1.5-2.5l0,0c0.1-0.5,0.4-1,0.9-1.2c0.3-0.2,0.7-0.3,1.1-0.3h0.1l-0.5,2
	c0,0.1,0,0.3,0.1,0.4c0.1,0,0.1,0.1,0.2,0.1c0.1,0,0.1,0,0.2-0.1L8,10.4C8.2,10.8,8.2,11.3,8.1,11.7z"/>
<path class="st1" d="M18.3,8.7h-6.6c-0.2,0-0.3,0.1-0.4,0.3c0,0,0,0,0,0c0,0.2,0.2,0.4,0.3,0.4h0h6.6c0.2,0,0.4-0.2,0.4-0.3v0
	C18.7,8.9,18.5,8.7,18.3,8.7L18.3,8.7z"/>
<path class="st1" d="M16.1,10.1h-4.4c-0.2,0-0.3,0.1-0.4,0.3c0,0,0,0,0,0c0,0.2,0.2,0.4,0.3,0.4h0h4.4c0.2,0,0.4-0.2,0.4-0.3v0
	C16.4,10.2,16.3,10.1,16.1,10.1L16.1,10.1z"/>
<path class="st0" d="M14.2,22.7c-0.1,0-0.1-0.1-0.2,0c-0.3,0-0.5,0.2-0.5,0.5c0,0.2,0.1,0.3,0.3,0.4c0.2,0.1,0.5,0,0.6-0.2
	c0,0,0,0,0,0l0,0C14.5,23.1,14.4,22.9,14.2,22.7C14.2,22.7,14.2,22.7,14.2,22.7z"/>
<path class="st0" d="M16.1,19c-0.1,0-0.1,0-0.2,0c-0.2,0-0.3,0.1-0.4,0.3c0,0.1,0,0.2,0,0.4c0.1,0.2,0.3,0.4,0.6,0.3c0,0,0,0,0,0
	c0.1,0,0.2-0.1,0.3-0.2l0,0C16.5,19.5,16.4,19.2,16.1,19C16.2,19,16.1,19,16.1,19z"/>
<path class="st0" d="M22.4,16.4c-0.1,0-0.1,0-0.2,0H22c-0.1,0-0.2,0.1-0.3,0.2c-0.1,0.2,0,0.5,0.2,0.6c0,0,0,0,0,0
	c0.2,0.1,0.5,0,0.6-0.2c0,0,0,0,0,0C22.7,16.8,22.6,16.5,22.4,16.4C22.4,16.4,22.4,16.4,22.4,16.4z"/>
<path class="st0" d="M19.9,20.9c-0.1,0-0.1,0-0.2,0h-0.1c-0.1,0-0.2,0.1-0.3,0.2c0,0.1,0,0.2,0,0.4c0,0.1,0.1,0.2,0.2,0.3
	c0.2,0.1,0.5,0,0.6-0.2c0,0,0,0,0,0c0-0.1,0-0.2,0-0.4C20.1,21,20,20.9,19.9,20.9z"/>
<path class="st0" d="M26.4,18.4c-0.1,0-0.1,0-0.2,0H26c-0.1,0-0.2,0.1-0.3,0.2c-0.1,0.2,0,0.5,0.2,0.6c0.2,0.1,0.5,0,0.6-0.2
	c0-0.1,0-0.2,0-0.4C26.5,18.6,26.4,18.5,26.4,18.4z"/>
<path class="st0" d="M14.2,22.7c-0.1,0-0.1-0.1-0.2,0c-0.3,0-0.5,0.2-0.5,0.5c0,0.2,0.1,0.3,0.3,0.4c0.2,0.1,0.5,0,0.6-0.2
	c0,0,0,0,0,0l0,0C14.5,23.1,14.4,22.9,14.2,22.7C14.2,22.7,14.2,22.7,14.2,22.7z"/>
<path class="st0" d="M16.1,19c-0.1,0-0.1,0-0.2,0c-0.2,0-0.3,0.1-0.4,0.3c0,0.1,0,0.2,0,0.4c0.1,0.2,0.3,0.4,0.6,0.3c0,0,0,0,0,0
	c0.1,0,0.2-0.1,0.3-0.2l0,0C16.5,19.5,16.4,19.2,16.1,19C16.2,19,16.1,19,16.1,19z"/>
<path class="st0" d="M22.4,16.4c-0.1,0-0.1,0-0.2,0H22c-0.1,0-0.2,0.1-0.3,0.2c-0.1,0.2,0,0.5,0.2,0.6c0,0,0,0,0,0
	c0.2,0.1,0.5,0,0.6-0.2c0,0,0,0,0,0C22.7,16.8,22.6,16.5,22.4,16.4C22.4,16.4,22.4,16.4,22.4,16.4z"/>
<path class="st0" d="M26.4,18.4c-0.1,0-0.1,0-0.2,0H26c-0.1,0-0.2,0.1-0.3,0.2c-0.1,0.2,0,0.5,0.2,0.6c0.2,0.1,0.5,0,0.6-0.2
	c0-0.1,0-0.2,0-0.4C26.5,18.6,26.4,18.5,26.4,18.4z"/>
<path class="st0" d="M19.9,20.9c-0.1,0-0.1,0-0.2,0h-0.1c-0.1,0-0.2,0.1-0.3,0.2c0,0.1,0,0.2,0,0.4c0,0.1,0.1,0.2,0.2,0.3
	c0.2,0.1,0.5,0,0.6-0.2c0,0,0,0,0,0c0-0.1,0-0.2,0-0.4C20.1,21,20,20.9,19.9,20.9z"/>
<path class="st1" d="M27.2,18.5c-0.2-0.6-0.8-0.9-1.4-0.8c0,0,0,0,0,0c-0.2,0.1-0.3,0.2-0.5,0.3l-2-1c0.1-0.6-0.3-1.2-1-1.3
	c-0.6-0.1-1.2,0.3-1.3,1c-0.1,0.5,0.2,1,0.6,1.2C21.8,18,22,18,22.2,18c0.3,0,0.6-0.1,0.8-0.4l2,1c0,0.1,0,0.2,0,0.3l-4.4,1.6
	c-0.1-0.1-0.2-0.3-0.4-0.3c-0.3-0.1-0.6-0.2-0.9-0.1c-0.2,0.1-0.3,0.2-0.5,0.3L17,19.6c0.1-0.5-0.2-1-0.6-1.2
	c-0.6-0.3-1.3-0.1-1.6,0.5c-0.2,0.5-0.2,1,0.2,1.4L14.1,22c-0.5-0.1-1,0.2-1.2,0.6c-0.2,0.6,0.1,1.3,0.7,1.5c0.5,0.2,1.1,0,1.4-0.5
	c0.1-0.3,0.2-0.6,0.1-0.9c-0.1-0.2-0.2-0.3-0.3-0.5l0.9-1.8c0.1,0,0.1,0,0.2,0c0.1,0,0.2,0,0.4-0.1c0.2-0.1,0.3-0.2,0.5-0.3l1.8,0.9
	c0,0.2,0,0.4,0,0.5c0.1,0.3,0.3,0.5,0.6,0.7c0.2,0.1,0.3,0.1,0.5,0.1c0.1,0,0.2,0,0.4-0.1c0.3-0.1,0.5-0.3,0.7-0.6l0,0
	c0.1-0.2,0.1-0.4,0.1-0.6l4.4-1.7c0.1,0.1,0.2,0.2,0.4,0.3c0.2,0.1,0.3,0.1,0.5,0.1c0.1,0,0.2,0,0.4-0.1
	C27.1,19.7,27.4,19,27.2,18.5C27.2,18.4,27.2,18.4,27.2,18.5L27.2,18.5z M22.6,17c-0.1,0.2-0.4,0.3-0.6,0.2c0,0,0,0,0,0
	c-0.2-0.1-0.3-0.4-0.2-0.6c0,0,0,0,0,0c0.1-0.1,0.2-0.2,0.3-0.2h0.1c0.3,0,0.5,0.2,0.5,0.5C22.6,16.9,22.6,17,22.6,17L22.6,17z
	 M14.4,23.3L14.4,23.3c-0.1,0.2-0.4,0.3-0.6,0.2c0,0,0,0,0,0c-0.2-0.1-0.3-0.4-0.2-0.6c0.1-0.2,0.2-0.3,0.4-0.3c0.1,0,0.1,0,0.2,0
	C14.4,22.8,14.5,23.1,14.4,23.3C14.4,23.3,14.4,23.3,14.4,23.3z M16.3,19.6L16.3,19.6c-0.1,0.1-0.2,0.2-0.3,0.2
	c-0.2,0.1-0.5,0-0.6-0.3c0,0,0,0,0,0c0-0.1,0-0.2,0-0.4c0.1-0.2,0.2-0.3,0.4-0.3c0.1,0,0.1,0,0.2,0C16.3,19,16.4,19.2,16.3,19.6
	C16.3,19.5,16.3,19.6,16.3,19.6L16.3,19.6z M20.1,21.5c-0.1,0.2-0.4,0.3-0.6,0.2c0,0,0,0,0,0c-0.1-0.1-0.2-0.2-0.2-0.3
	c0-0.1,0-0.2,0-0.4c0.1-0.1,0.2-0.2,0.3-0.2h0.1c0.1,0,0.1,0,0.2,0c0.1,0.1,0.2,0.2,0.2,0.3C20.1,21.3,20.1,21.4,20.1,21.5
	L20.1,21.5z M26.5,19c-0.1,0.2-0.4,0.3-0.6,0.2c-0.2-0.1-0.3-0.4-0.2-0.6c0.1-0.1,0.2-0.2,0.3-0.2h0.1c0.1,0,0.1,0,0.2,0
	c0.1,0.1,0.2,0.2,0.2,0.3C26.6,18.8,26.6,18.9,26.5,19z"/>
</svg>
