<svg id="Layer_1" data-name="Layer 1" xmlns="http://www.w3.org/2000/svg" viewBox="0 0 32 32"><defs><style>.cls-1{fill:#fff;}.cls-2{fill:none;}</style></defs><path class="cls-1" d="M29.8,30.3H1a.36.36,0,0,1-.36-.36h0V5.77A.36.36,0,0,1,1,5.41H18.24a.36.36,0,0,1,0,.72H1.36V29.58H29.44V12.51a.36.36,0,0,1,.72,0V29.94A.36.36,0,0,1,29.8,30.3Z"/><path class="cls-1" d="M13.19,9.72H11A.36.36,0,1,1,11,9h2.24a.36.36,0,0,1,0,.72h-.05Z"/><path class="cls-1" d="M16.55,11.91H13.19a.36.36,0,0,1,0-.72h3.36a.36.36,0,0,1,.36.36h0a.36.36,0,0,1-.36.36Z"/><path class="cls-1" d="M7.71,8.53H1a.36.36,0,0,1,0-.72H7.71a.36.36,0,0,1,0,.72Z"/><path class="cls-1" d="M4.79,10.75H2.72a.36.36,0,1,1,0-.72H4.79a.36.36,0,0,1,0,.72Z"/><path class="cls-1" d="M4.79,15.21H2.72a.36.36,0,0,1,0-.72H4.79a.36.36,0,0,1,0,.72Z"/><path class="cls-1" d="M5.65,13H2.72a.36.36,0,1,1,0-.72H5.65a.36.36,0,0,1,0,.72Z"/><path class="cls-1" d="M26.62,14.09H15.43a.36.36,0,0,1,0-.72H26.62a.36.36,0,1,1,0,.72Z"/><path class="cls-1" d="M24.38,16.27H15.43a.36.36,0,0,1,0-.72h9a.36.36,0,0,1,0,.72Z"/><path class="cls-1" d="M16.55,18.46H13.19a.36.36,0,0,1-.36-.36h0a.36.36,0,0,1,.36-.36h3.36a.36.36,0,0,1,.36.36h0a.36.36,0,0,1-.36.36Z"/><path class="cls-1" d="M16.55,20.64H13.19a.36.36,0,1,1,0-.72h3.36a.36.36,0,0,1,0,.72Z"/><path class="cls-1" d="M23.26,22.82H15.43a.36.36,0,0,1,0-.72h7.83a.36.36,0,0,1,0,.72Z"/><path class="cls-1" d="M16.55,25H13.19a.36.36,0,0,1-.36-.36h0a.36.36,0,0,1,.36-.36h3.36a.36.36,0,0,1,.36.36h0a.36.36,0,0,1-.36.36Z"/><path class="cls-1" d="M13.19,27.19H11a.36.36,0,1,1,0-.72h2.24a.36.36,0,1,1,0,.72Z"/><path class="cls-1" d="M7.88,30.3a.36.36,0,0,1-.36-.36h0V5.77a.36.36,0,0,1,.72,0V29.94A.36.36,0,0,1,7.88,30.3Z"/><path class="cls-1" d="M27.62,8.13a.35.35,0,0,1-.37-.33.36.36,0,0,1,.12-.28l1.11-1.09L27.37,5.35a.34.34,0,0,1,0-.48l0,0a.35.35,0,0,1,.49,0l0,0,1.38,1.33a.36.36,0,0,1,0,.51h0L27.87,8A.34.34,0,0,1,27.62,8.13Z"/><path class="cls-1" d="M23.54,8.15a.39.39,0,0,1-.25-.1L21.9,6.71a.36.36,0,0,1,0-.52l1.38-1.34a.35.35,0,0,1,.49,0l0,0a.36.36,0,0,1,0,.51h0L22.67,6.45l1.12,1.08a.36.36,0,0,1,0,.51h0A.36.36,0,0,1,23.54,8.15Z"/><path class="cls-1" d="M24.74,8.26h-.17a.36.36,0,0,1-.15-.49h0L25.85,5a.36.36,0,1,1,.65.33L25.06,8.07A.36.36,0,0,1,24.74,8.26Z"/><path class="cls-1" d="M25.5,12.36A5.86,5.86,0,1,1,31.36,6.5h0A5.88,5.88,0,0,1,25.5,12.36Zm0-11A5.14,5.14,0,1,0,30.64,6.5h0A5.15,5.15,0,0,0,25.5,1.36Z"/><rect class="cls-2" width="32" height="32"/></svg>