<?xml version="1.0" encoding="utf-8"?>
<!-- Generator: Adobe Illustrator 24.1.0, SVG Export Plug-In . SVG Version: 6.00 Build 0)  -->
<svg version="1.1" id="Layer_1" xmlns="http://www.w3.org/2000/svg" xmlns:xlink="http://www.w3.org/1999/xlink" x="0px" y="0px"
	 width="32px" height="32px" viewBox="0 0 32 32" style="enable-background:new 0 0 32 32;" xml:space="preserve">
<path d="M23.9,14.8h-3.5c-0.2,0-0.4,0.2-0.4,0.4v1.7h-3.6c-0.4-0.5-0.8-0.9-1.3-1.3v-3.8h1.7c0.2,0,0.3-0.1,0.4-0.3V8
	c0-0.2-0.2-0.4-0.4-0.4H2.2C2,7.6,1.9,7.8,1.9,8v3.4c0,0.2,0.2,0.4,0.4,0.4h1.7v3.8c-0.6,0.4-1.1,1-1.5,1.5
	c-1.2,1.5-1.8,3.4-1.8,5.4c0,2,0.7,4,2,5.6c1.7,2.1,4.2,3.3,6.9,3.3c2.7,0,5.2-1.2,6.9-3.3H20v1.7c0,0.2,0.2,0.4,0.4,0.4h3.5
	c0.2,0,0.4-0.2,0.4-0.4V15.2C24.2,15,24.1,14.8,23.9,14.8z M2.6,8.3h13.9v2.8h-1.7H4.3H2.6V8.3z M20,27.3h-3.8
	c-0.1,0-0.2,0.1-0.3,0.1c-1.5,2-3.9,3.2-6.4,3.2c-4.5,0-8.1-3.7-8.1-8.2c0-1.8,0.6-3.5,1.7-4.9c0.4-0.6,1-1.1,1.5-1.5
	c0.1-0.1,0.1-0.2,0.1-0.3v-4l9.7,0v4c0,0.1,0,0.2,0.1,0.3c0.5,0.4,1,0.9,1.4,1.4c0.1,0.1,0.2,0.1,0.3,0.1H20V27.3z M23.5,29.4h-2.8
	v-1.7V17.3v-1.7h2.8V29.4z M9.4,19.5c-1.7,0-3.1,1.4-3.1,3.1c0,1.7,1.4,3.1,3.1,3.1h0c1.7,0,3-1.4,3-3.1c0,0,0,0,0,0
	C12.5,20.8,11.1,19.5,9.4,19.5z M11.8,22.6c0,1.3-1.1,2.4-2.4,2.4c-1.3,0-2.4-1.1-2.4-2.4c0-1.3,1.1-2.4,2.4-2.4h0
	C10.8,20.2,11.8,21.3,11.8,22.6C11.8,22.6,11.8,22.6,11.8,22.6z M15.4,21.1h-1.3l-0.3-0.7l0.9-0.9c0.1-0.1,0.1-0.2,0.1-0.3
	c0-0.1,0-0.2-0.1-0.2l-1.6-1.6c0,0,0,0,0,0c-0.1-0.1-0.4-0.1-0.5,0l-0.9,0.9L11,18v-1.3c0-0.2-0.2-0.4-0.4-0.4H8.4
	c-0.2,0-0.4,0.2-0.4,0.4V18l-0.7,0.3l-0.9-0.9c0,0,0,0,0,0c-0.1-0.1-0.4-0.1-0.5,0L4.3,19c-0.1,0.1-0.1,0.1-0.1,0.2
	c0,0.1,0,0.2,0.1,0.3l0.9,0.9l-0.3,0.7H3.6c-0.2,0-0.4,0.2-0.4,0.4v2.3c0,0.2,0.2,0.4,0.4,0.4h1.3l0.3,0.7l-0.9,0.9c0,0,0,0,0,0
	c-0.1,0.1-0.1,0.4,0,0.5l1.6,1.6c0,0,0,0,0,0c0.1,0.1,0.4,0.1,0.5,0l0.9-0.9L8,27.2v1.3c0,0.2,0.1,0.3,0.3,0.4h2.3
	c0.2,0,0.4-0.2,0.4-0.3v-1.3l0.7-0.3l0.9,0.9c0,0,0,0,0,0c0.1,0.1,0.4,0.1,0.5,0l1.6-1.6c0.1-0.1,0.1-0.2,0.1-0.3
	c0-0.1,0-0.2-0.1-0.2l-0.9-0.9l0.3-0.7h1.3c0.2,0,0.4-0.2,0.4-0.4v-2.3C15.7,21.2,15.6,21.1,15.4,21.1z M15,23.4h-1.1
	c-0.1,0-0.3,0.1-0.3,0.2l-0.5,1.1c-0.1,0.1,0,0.3,0.1,0.4l0.8,0.8L12.8,27L12,26.2c-0.1-0.1-0.3-0.1-0.4-0.1l-1.1,0.5
	c-0.1,0.1-0.2,0.2-0.2,0.3v1.2H8.7l0.1-1.2c0-0.1-0.1-0.3-0.2-0.3l-1.1-0.5c-0.1-0.1-0.3,0-0.4,0.1L6.2,27L5,25.9l0.9-0.8
	C6,25,6,24.8,5.9,24.7l-0.5-1.1c-0.1-0.1-0.2-0.2-0.3-0.2H4v-1.6h1.1c0.1,0,0.3-0.1,0.3-0.2l0.5-1.1c0.1-0.1,0-0.3-0.1-0.4L5,19.2
	l1.2-1.1L7,18.9C7.1,19,7.2,19.1,7.4,19l1.1-0.4c0.1-0.1,0.2-0.2,0.2-0.3v-1.2h1.6v1.1c0,0.1,0.1,0.3,0.2,0.3l1.1,0.5
	c0.1,0.1,0.3,0,0.4-0.1l0.8-0.8l1.1,1.1l-0.8,0.8c-0.1,0.1-0.1,0.3-0.1,0.4l0.5,1.1c0.1,0.1,0.2,0.2,0.3,0.2H15V23.4z M5.2,6.1
	c0.1,0.1,0.2,0.2,0.3,0.2h1.1c0.1,0,0.3-0.1,0.3-0.2l0.6-0.9c0.1-0.1,0.1-0.3,0-0.4L7,3.8c0-0.1-0.2-0.2-0.3-0.2H5.6
	c-0.1,0-0.2,0.1-0.3,0.2l-0.6,1C4.6,4.9,4.6,5,4.7,5.1L5.2,6.1z M5.8,4.4h0.7L6.8,5L6.5,5.6H5.8L5.4,5L5.8,4.4z M30.2,26.1l-1-0.6
	c-0.1-0.1-0.2-0.1-0.4,0l-1,0.6c-0.1,0.1-0.2,0.2-0.2,0.3v1.1c0,0.1,0.1,0.2,0.2,0.3l1,0.5c0.1,0,0.1,0.1,0.2,0c0.1,0,0.1,0,0.2,0
	l1-0.5c0.1-0.1,0.2-0.2,0.2-0.3v-1.1C30.4,26.3,30.3,26.2,30.2,26.1z M29.6,27.3L29,27.7l-0.6-0.3v-0.7l0.6-0.3l0.6,0.3V27.3z
	 M12.8,6l1,0.6c0.1,0,0.1,0,0.2,0c0.1,0,0.1,0,0.2-0.1l1-0.6c0.1-0.1,0.2-0.2,0.2-0.3V4.6c0-0.1-0.1-0.2-0.2-0.3l-1-0.6
	c-0.1-0.1-0.3-0.1-0.4,0l-1,0.6c-0.1,0.1-0.2,0.2-0.2,0.3v1.2C12.6,5.8,12.7,6,12.8,6z M13.4,4.8L14,4.4l0.6,0.4v0.7L14,5.8
	l-0.6-0.3V4.8z M27.3,20.5c0.1,0.1,0.2,0.2,0.3,0.2h1.1c0.1,0,0.2-0.1,0.3-0.2l0.6-1c0.1-0.1,0.1-0.3,0-0.4l-0.6-1
	c-0.1-0.1-0.2-0.2-0.3-0.2h-1.1c-0.1,0-0.2,0.1-0.3,0.2l-0.6,1c-0.1,0.1-0.1,0.3,0,0.4L27.3,20.5z M27.8,18.8h0.7l0.4,0.6L28.5,20
	h-0.7l-0.4-0.6L27.8,18.8z M10.6,3.4C10.6,3.4,10.6,3.4,10.6,3.4c0.8,0,1.3-0.6,1.3-1.4c0-0.7-0.6-1.3-1.3-1.3
	C9.8,0.7,9.2,1.3,9.3,2C9.3,2.8,9.9,3.4,10.6,3.4z M10.6,1.4c0.3,0,0.6,0.3,0.6,0.6c0,0,0,0,0,0c0,0.3-0.3,0.6-0.6,0.6
	C10.2,2.6,10,2.4,10,2C10,1.7,10.3,1.4,10.6,1.4z M31.3,23.2c0-0.7-0.6-1.3-1.3-1.3c-0.7,0-1.3,0.6-1.3,1.3c0,0.7,0.6,1.3,1.3,1.3
	C30.7,24.6,31.3,24,31.3,23.2C31.3,23.2,31.3,23.2,31.3,23.2z M30.6,23.3c0,0.3-0.3,0.6-0.6,0.6c-0.3,0-0.6-0.3-0.6-0.6
	c0-0.3,0.3-0.6,0.6-0.6C30.3,22.7,30.6,22.9,30.6,23.3C30.6,23.3,30.6,23.3,30.6,23.3z M24.6,19.4c0-0.2,0.2-0.4,0.4-0.4h1
	c0.2,0,0.4,0.2,0.4,0.4c0,0.2-0.2,0.4-0.4,0.4v0h-1C24.8,19.8,24.6,19.6,24.6,19.4z M28,22.9c0.2,0,0.4,0.2,0.4,0.4
	c0,0.2-0.2,0.4-0.4,0.4h-3c-0.2,0-0.4-0.2-0.4-0.4c0-0.2,0.2-0.4,0.4-0.4H28z M27.4,27.1c0,0.2-0.2,0.4-0.4,0.4h-2
	c-0.2,0-0.4-0.2-0.4-0.4c0-0.2,0.2-0.4,0.4-0.4h2C27.2,26.8,27.4,26.9,27.4,27.1z"/>
</svg>
