<svg id="Layer_1" data-name="Layer 1" xmlns="http://www.w3.org/2000/svg" viewBox="0 0 32 32"><defs><style>.cls-1{fill:#fff;}</style></defs><g id="location"><path class="cls-1" d="M16,31.36a.36.36,0,0,1-.24-.09C15.3,30.85,4.64,21.05,4.64,12a11.36,11.36,0,0,1,22.72,0c0,8.06-10.65,18.8-11.11,19.25A.36.36,0,0,1,16,31.36Zm0-30A10.65,10.65,0,0,0,5.36,12c0,8,9,16.93,10.63,18.5C17.6,28.82,26.64,19.1,26.64,12A10.65,10.65,0,0,0,16,1.36Zm0,15A4.36,4.36,0,1,1,20.36,12,4.37,4.37,0,0,1,16,16.36Zm0-8A3.64,3.64,0,1,0,19.64,12,3.64,3.64,0,0,0,16,8.36Z"/></g></svg>