<svg id="Layer_1" data-name="Layer 1" xmlns="http://www.w3.org/2000/svg" viewBox="0 0 32 32"><defs><style>.cls-1{fill:#fff;}</style></defs><g id="networking--02"><path class="cls-1" d="M28,31.23a3.36,3.36,0,0,1-3.34-3H16a.36.36,0,0,1-.36-.36V16.23H11v-.72h4.64V3.87A.36.36,0,0,1,16,3.51h8.66a3.36,3.36,0,1,1,0,.72h-8.3V15.51h8.3a3.36,3.36,0,1,1,0,.72h-8.3V27.51h8.3A3.36,3.36,0,1,1,28,31.23Zm0-6a2.64,2.64,0,1,0,2.64,2.64A2.64,2.64,0,0,0,28,25.23Zm0-12a2.64,2.64,0,1,0,2.64,2.64A2.64,2.64,0,0,0,28,13.23Zm0-12a2.64,2.64,0,1,0,2.64,2.64A2.64,2.64,0,0,0,28,1.23Z"/></g><path class="cls-1" d="M11,21.36H1A.36.36,0,0,1,.64,21V11A.36.36,0,0,1,1,10.64H11a.36.36,0,0,1,.36.36V21A.36.36,0,0,1,11,21.36Zm-9.64-.72h9.28V11.36H1.36Z"/></svg>