<svg id="Layer_1" data-name="Layer 1" xmlns="http://www.w3.org/2000/svg" viewBox="0 0 32 32"><defs><style>.cls-1{fill:#fff;}</style></defs><g id="reset--settings"><path class="cls-1" d="M14,29.36A13.36,13.36,0,0,1,5.78,5.47L6.22,6A12.64,12.64,0,1,0,26.64,16V3.87L23.25,7.25l-.5-.5L27,2.49l4.25,4.26-.5.5L27.36,3.87V16A13.37,13.37,0,0,1,14,29.36Z"/></g><path class="cls-1" d="M19.63,23.36H7.37a.73.73,0,0,1-.73-.73V10.37a.73.73,0,0,1,.73-.73H19.63a.73.73,0,0,1,.73.73V22.63A.73.73,0,0,1,19.63,23.36Zm-12.26-13V22.64H19.63V10.37Z"/><circle class="cls-1" cx="18.49" cy="11.51" r="0.51"/><rect class="cls-1" x="10" y="17.5" width="7" height="1"/><rect class="cls-1" x="7" y="12.64" width="13" height="0.72"/></svg>