<?xml version="1.0" encoding="utf-8"?>
<!-- Generator: Adobe Illustrator 27.0.1, SVG Export Plug-In . SVG Version: 6.00 Build 0)  -->
<svg version="1.1" id="Layer_1" xmlns="http://www.w3.org/2000/svg" xmlns:xlink="http://www.w3.org/1999/xlink" x="0px" y="0px"
	 viewBox="0 0 32 32" style="enable-background:new 0 0 32 32;" xml:space="preserve">
<style type="text/css">
	.st0{clip-path:url(#SVGID_00000019674684780266557960000007620836803768295595_);}
	.st1{fill:#FFFFFF;}
	.st2{fill:#161616;}
</style>
<g>
	<defs>
		<rect id="SVGID_1_" width="32" height="32"/>
	</defs>
	<clipPath id="SVGID_00000046316526182416097150000008795396199101081995_">
		<use xlink:href="#SVGID_1_"  style="overflow:visible;"/>
	</clipPath>
	<g style="clip-path:url(#SVGID_00000046316526182416097150000008795396199101081995_);">
		<rect class="st1" width="32" height="32"/>
		<path class="st2" d="M24,31.4H10c-0.2,0-0.4-0.2-0.4-0.4v-5c0-0.2,0.2-0.4,0.4-0.4h10.6v-2.1c0-0.9-0.7-1.6-1.6-1.6h-4
			c-1.3,0-2.4-1.1-2.4-2.4v-2.1H10c-0.2,0-0.4-0.2-0.4-0.4v-5c0-0.2,0.2-0.4,0.4-0.4h14c0.2,0,0.4,0.2,0.4,0.4v5
			c0,0.2-0.2,0.4-0.4,0.4H13.4v2.1c0,0.9,0.7,1.6,1.6,1.6h4c1.3,0,2.4,1.1,2.4,2.4v2.1H24c0.2,0,0.4,0.2,0.4,0.4v5
			C24.4,31.2,24.2,31.4,24,31.4z M10.4,30.6h13.3v-4.3H10.4V30.6z M10.4,16.6h13.3v-4.3H10.4V16.6z M14,28.9h-2v-0.7h2V28.9z
			 M26,19.4v-0.7c2.8,0,4.6-1.5,4.6-3.8c0-2.4-1.9-4.5-4.3-4.5c-0.2,0-0.4-0.2-0.4-0.4c0-4.8-3.9-8.6-8.9-8.6
			c-3.1,0-6.2,1.9-7.8,4.9C9.2,6.4,9.1,6.5,8.9,6.5C8.6,6.4,8.2,6.4,7.8,6.4c-3.7,0-6.5,2.7-6.5,6.2c0,3.5,2.9,6.1,6.6,6.1v0.7
			c-4.2,0-7.4-2.9-7.4-6.8c0-3.9,3.1-6.9,7.2-6.9c0.3,0,0.7,0,1,0.1c1.8-3.1,5.1-5.1,8.3-5.1c5.3,0,9.4,3.9,9.6,9
			c2.5,0.2,4.6,2.5,4.6,5.2C31.4,17.6,29.3,19.4,26,19.4z M14,14.9h-2v-0.7h2V14.9z"/>
	</g>
</g>
</svg>
