<?xml version="1.0" encoding="utf-8"?>
<!-- Generator: Adobe Illustrator 27.0.1, SVG Export Plug-In . SVG Version: 6.00 Build 0)  -->
<svg version="1.1" id="Layer_1" xmlns="http://www.w3.org/2000/svg" xmlns:xlink="http://www.w3.org/1999/xlink" x="0px" y="0px"
	 viewBox="0 0 32 32" style="enable-background:new 0 0 32 32;" xml:space="preserve">
<style type="text/css">
	.st0{fill:#FFFFFF;}
	.st1{fill:#161616;}
</style>
<rect class="st0" width="32" height="32"/>
<path class="st1" d="M18,14.4h12c0.2,0,0.4-0.2,0.4-0.4V2c0-0.2-0.2-0.4-0.4-0.4H18c-0.2,0-0.4,0.2-0.4,0.4v5.6h-3.3V2
	c0-0.2-0.2-0.4-0.4-0.4H2C1.8,1.6,1.6,1.8,1.6,2v12c0,0.2,0.2,0.4,0.4,0.4h5.6v3.3H2c-0.2,0-0.4,0.2-0.4,0.4v12
	c0,0.2,0.2,0.4,0.4,0.4h12c0.2,0,0.4-0.2,0.4-0.4v-5.6h3.3V30c0,0.2,0.2,0.4,0.4,0.4h12c0.2,0,0.4-0.2,0.4-0.4V18
	c0-0.2-0.2-0.4-0.4-0.4H18c-0.2,0-0.4,0.2-0.4,0.4v5.6h-3.3V18c0-0.2-0.2-0.4-0.4-0.4H8.4v-3.3H14c0.2,0,0.4-0.2,0.4-0.4V8.4h3.3V14
	C17.6,14.2,17.8,14.4,18,14.4z M18.4,8.4h5.8l-1.4,1.4l0.5,0.5L25.5,8l-2.3-2.3l-0.5,0.5l1.4,1.4h-5.8V2.4h11.3v11.3H18.4V8.4z
	 M18.4,24.4h4.3c0.2,0.6,0.7,1,1.3,1c0.8,0,1.4-0.6,1.4-1.4s-0.6-1.4-1.4-1.4c-0.6,0-1.2,0.4-1.3,1h-4.3v-5.3h11.3v11.3H18.4V24.4z
	 M23.4,24c0-0.4,0.3-0.6,0.6-0.6s0.6,0.3,0.6,0.6s-0.3,0.6-0.6,0.6S23.4,24.4,23.4,24z M8,23.4c0.4,0,0.6,0.3,0.6,0.6
	S8.4,24.6,8,24.6c-0.4,0-0.6-0.3-0.6-0.6S7.6,23.4,8,23.4z M13.6,29.6H2.4V18.4h5.3v4.3c-0.6,0.2-1,0.7-1,1.3c0,0.8,0.6,1.4,1.4,1.4
	c0.6,0,1.2-0.4,1.3-1h4.3L13.6,29.6L13.6,29.6z M13.6,18.4v5.3H9.3c-0.1-0.5-0.5-0.8-1-1v-4.3H13.6z M8,8.6C7.6,8.6,7.4,8.4,7.4,8
	c0-0.4,0.3-0.6,0.6-0.6c0.4,0,0.6,0.3,0.6,0.6C8.6,8.4,8.4,8.6,8,8.6z M13.6,13.6H8.4V9.3c0.5-0.1,0.8-0.5,1-1h4.3L13.6,13.6
	L13.6,13.6z M13.6,7.6H9.3c-0.2-0.6-0.7-1-1.3-1C7.2,6.6,6.6,7.2,6.6,8c0,0.6,0.4,1.2,1,1.3v4.3H2.4V2.4h11.3V7.6z"/>
</svg>
