<?xml version="1.0" encoding="utf-8"?>
<!-- Generator: Adobe Illustrator 27.0.1, SVG Export Plug-In . SVG Version: 6.00 Build 0)  -->
<svg version="1.1" id="Layer_1" xmlns="http://www.w3.org/2000/svg" xmlns:xlink="http://www.w3.org/1999/xlink" x="0px" y="0px"
	 viewBox="0 0 32 32" style="enable-background:new 0 0 32 32;" xml:space="preserve">
<style type="text/css">
	.st0{fill:#FFFFFF;}
	.st1{fill:#161616;}
</style>
<rect class="st0" width="32" height="32"/>
<path class="st1" d="M3.3,9.3L2.7,8.7L4,7.5L2.7,6.3l0.5-0.5L5,7.5L3.3,9.3z M3,2C2.7,2,2.5,2.2,2.5,2.5S2.7,3,3,3s0.5-0.2,0.5-0.5
	S3.3,2,3,2z M5.5,2.5C5.5,2.8,5.3,3,5,3S4.5,2.8,4.5,2.5S4.7,2,5,2S5.5,2.2,5.5,2.5z M7.5,2.5C7.5,2.8,7.3,3,7,3S6.5,2.8,6.5,2.5
	S6.7,2,7,2S7.5,2.2,7.5,2.5z M18.5,6.5C18.5,6.8,18.3,7,18,7s-0.5-0.2-0.5-0.5C17.5,6.2,17.7,6,18,6S18.5,6.2,18.5,6.5z M20.5,6.5
	C20.5,6.8,20.3,7,20,7s-0.5-0.2-0.5-0.5C19.5,6.2,19.7,6,20,6S20.5,6.2,20.5,6.5z M22.5,6.5C22.5,6.8,22.3,7,22,7s-0.5-0.2-0.5-0.5
	C21.5,6.2,21.7,6,22,6S22.5,6.2,22.5,6.5z M5.5,24.5C5.5,24.8,5.3,25,5,25s-0.5-0.2-0.5-0.5S4.7,24,5,24S5.5,24.2,5.5,24.5z
	 M13,14.4H1c-0.2,0-0.4-0.2-0.4-0.4V1c0-0.2,0.2-0.4,0.4-0.4h12c0.2,0,0.4,0.2,0.4,0.4v13C13.4,14.2,13.2,14.4,13,14.4z M12.6,4.4
	H1.4v9.3h11.3V4.4z M12.6,1.4H1.4v2.3h11.3V1.4z M31.4,5v17c0,0.2-0.2,0.4-0.4,0.4H19.7c-0.3,0.5-0.7,0.9-1.2,1.2
	c2.9,1.1,4.8,3.8,4.8,6.9l0,0.5l-0.7,0l0-0.5c0-3.1-2.1-5.7-5.1-6.4c-0.1,0-0.3-0.2-0.3-0.3s0.1-0.3,0.2-0.4
	c1.3-0.6,2.2-1.9,2.2-3.3c0-2-1.6-3.7-3.7-3.7c-2,0-3.7,1.6-3.7,3.7c0,1.4,0.8,2.7,2.2,3.3c0.1,0.1,0.2,0.2,0.2,0.4S14.6,24,14.4,24
	c-3,0.7-5.1,3.4-5.1,6.4l0,0.5l-0.7,0l0-0.5c0-3.1,1.9-5.9,4.8-6.9c-1.1-0.8-1.8-2.1-1.8-3.6c0-2.3,1.8-4.2,4-4.4V5
	c0-0.2,0.2-0.4,0.4-0.4h15C31.2,4.6,31.4,4.8,31.4,5z M30.6,8.4H16.4v7.3c2.2,0.2,4,2.1,4,4.4c0,0.6-0.1,1.1-0.3,1.6h10.6V8.4z
	 M30.6,5.4H16.4v2.3h14.3V5.4z M22,11.6h-4v0.7h4V11.6z M23.6,17.5c0-1.6,1.3-2.9,2.9-2.9s2.9,1.3,2.9,2.9s-1.3,2.9-2.9,2.9
	S23.6,19.1,23.6,17.5z M28.2,16.3l-1.4,1.4l0,2c1-0.2,1.8-1,1.8-2.1C28.6,17,28.5,16.6,28.2,16.3z M24.4,17.5c0,1.1,0.8,1.9,1.8,2.1
	l0-2.3l1.6-1.6c-0.3-0.2-0.8-0.4-1.2-0.4C25.3,15.4,24.4,16.3,24.4,17.5z M8,9.6H5v0.7h3V9.6z M3.5,21.4h3v-0.7h-3V21.4z M3.5,19.4
	h3v-0.7h-3V19.4z M22,13.6h-4v0.7h4V13.6z M29,11.6h-4v0.7h4V11.6z M29,9.6h-4v0.7h4V9.6z M22,9.6h-4v0.7h4V9.6z M8.4,17.6v7.8
	c0,0.5-0.4,0.9-0.9,0.9H2.6c-0.5,0-0.9-0.4-0.9-0.9v-7.8c0-0.5,0.4-0.9,0.9-0.9h4.8C7.9,16.6,8.4,17.1,8.4,17.6z M7.6,23.4H2.4v2.1
	c0,0.1,0.1,0.2,0.2,0.2h4.8c0.1,0,0.2-0.1,0.2-0.2V23.4z M7.6,17.6c0-0.1-0.1-0.2-0.2-0.2H2.6c-0.1,0-0.2,0.1-0.2,0.2v5.1h5.3V17.6z
	"/>
</svg>
