<?xml version="1.0" encoding="utf-8"?>
<!-- Generator: Adobe Illustrator 27.0.1, SVG Export Plug-In . SVG Version: 6.00 Build 0)  -->
<svg version="1.1" id="Layer_1" xmlns="http://www.w3.org/2000/svg" xmlns:xlink="http://www.w3.org/1999/xlink" x="0px" y="0px"
	 viewBox="0 0 32 32" style="enable-background:new 0 0 32 32;" xml:space="preserve">
<style type="text/css">
	.st0{clip-path:url(#SVGID_00000116210012259770186470000000061847822499455640_);}
	.st1{fill:#FFFFFF;}
	.st2{fill:#161616;}
</style>
<g>
	<defs>
		<rect id="SVGID_1_" width="32" height="32"/>
	</defs>
	<clipPath id="SVGID_00000171697870586712086690000013067996516790093999_">
		<use xlink:href="#SVGID_1_"  style="overflow:visible;"/>
	</clipPath>
	<g style="clip-path:url(#SVGID_00000171697870586712086690000013067996516790093999_);">
		<rect class="st1" width="32" height="32"/>
		<path class="st2" d="M12.4,16c-0.4,0-0.7-0.1-0.9-0.3c-0.2-0.2-0.3-0.5-0.3-0.8h-0.1c-0.2,0.4-0.4,0.8-0.8,1
			C10,16.1,9.5,16.2,9,16.2c-0.8,0-1.4-0.2-1.8-0.6c-0.4-0.4-0.6-0.9-0.6-1.6c0-0.7,0.3-1.2,0.7-1.6c0.5-0.4,1.3-0.5,2.3-0.5h1.4
			v-0.7c0-0.5-0.1-0.9-0.4-1.2C10.4,9.7,10,9.6,9.4,9.6C9,9.6,8.6,9.7,8.3,9.9c-0.3,0.2-0.5,0.5-0.7,0.8L6.9,10
			c0.2-0.4,0.5-0.7,0.9-1c0.4-0.3,1-0.4,1.6-0.4c0.9,0,1.6,0.2,2,0.6c0.5,0.4,0.7,1,0.7,1.8v4h0.8v1H12.4z M9.2,15.2
			c0.3,0,0.5,0,0.8-0.1c0.2-0.1,0.4-0.2,0.6-0.3c0.2-0.1,0.3-0.3,0.4-0.4c0.1-0.2,0.1-0.3,0.1-0.5v-1.2H9.6c-0.6,0-1.1,0.1-1.4,0.3
			c-0.3,0.2-0.4,0.5-0.4,0.8v0.3c0,0.4,0.1,0.6,0.4,0.8C8.4,15.1,8.8,15.2,9.2,15.2z M14.7,8.8h1.1v1.2h0.1c0.2-0.5,0.5-0.8,0.8-1
			C17,8.7,17.5,8.6,18,8.6c0.4,0,0.9,0.1,1.2,0.3c0.4,0.2,0.7,0.4,0.9,0.8s0.5,0.7,0.6,1.2c0.1,0.5,0.2,1,0.2,1.6
			c0,0.6-0.1,1.1-0.2,1.6c-0.1,0.5-0.3,0.9-0.6,1.2s-0.6,0.6-0.9,0.8c-0.4,0.2-0.8,0.3-1.2,0.3c-1,0-1.7-0.4-2.1-1.3h-0.1v4h-1.1
			V8.8z M17.6,15.2c0.6,0,1.1-0.2,1.5-0.6s0.5-0.9,0.5-1.6v-1.2c0-0.6-0.2-1.2-0.5-1.6c-0.4-0.4-0.9-0.6-1.5-0.6
			c-0.3,0-0.5,0-0.7,0.1c-0.2,0.1-0.4,0.2-0.6,0.3c-0.2,0.1-0.3,0.3-0.4,0.4c-0.1,0.2-0.1,0.4-0.1,0.6v2.7c0,0.2,0,0.4,0.1,0.6
			c0.1,0.2,0.2,0.3,0.4,0.5c0.2,0.1,0.4,0.2,0.6,0.3C17.2,15.1,17.4,15.2,17.6,15.2z M23.3,7.1c-0.2,0-0.4-0.1-0.5-0.2
			c-0.1-0.1-0.2-0.3-0.2-0.5V6.3c0-0.2,0.1-0.3,0.2-0.5c0.1-0.1,0.3-0.2,0.5-0.2c0.2,0,0.4,0.1,0.5,0.2C24,5.9,24,6.1,24,6.3v0.2
			c0,0.2-0.1,0.3-0.2,0.5C23.8,7,23.6,7.1,23.3,7.1z M22.8,8.8h1.1V16h-1.1V8.8z M31,31.4H1v-0.7h30V31.4z M31,24.4H1
			c-0.2,0-0.4-0.2-0.4-0.4V1c0-0.2,0.2-0.4,0.4-0.4h30c0.2,0,0.4,0.2,0.4,0.4v23C31.4,24.2,31.2,24.4,31,24.4z M1.4,23.6h29.3V1.4
			H1.4V23.6z"/>
	</g>
</g>
</svg>
