<?xml version="1.0" encoding="utf-8"?>
<!-- Generator: Adobe Illustrator 27.0.1, SVG Export Plug-In . SVG Version: 6.00 Build 0)  -->
<svg version="1.1" id="Layer_1" xmlns="http://www.w3.org/2000/svg" xmlns:xlink="http://www.w3.org/1999/xlink" x="0px" y="0px"
	 viewBox="0 0 32 32" style="enable-background:new 0 0 32 32;" xml:space="preserve">
<style type="text/css">
	.st0{fill:#FFFFFF;}
	.st1{fill:#161616;}
</style>
<rect class="st0" width="32" height="32"/>
<path class="st1" d="M18,31.4h-4c-0.1,0-0.2-0.1-0.3-0.2l-2-3.5c-0.1-0.1-0.1-0.2,0-0.4l2-3.5c0.1-0.1,0.2-0.2,0.3-0.2h3.8l2.9-5
	c0.1-0.2,0.3-0.2,0.5-0.1c0.2,0.1,0.2,0.3,0.1,0.5l-2.9,5l1.9,3.3c0.1,0.1,0.1,0.2,0,0.4l-2,3.5C18.2,31.3,18.1,31.4,18,31.4z
	 M14.2,30.6h3.6l1.8-3.1l-1.8-3.1h-3.6l-1.8,3.1L14.2,30.6z M28,25.6h-4c-0.1,0-0.2-0.1-0.3-0.2l-2-3.5c-0.1-0.1-0.1-0.2,0-0.4
	l1.9-3.3l-2.9-5c-0.1-0.2,0-0.4,0.1-0.5c0.2-0.1,0.4,0,0.5,0.1l2.9,5H28c0.1,0,0.2,0.1,0.3,0.2l2,3.5c0.1,0.1,0.1,0.2,0,0.4l-2,3.5
	C28.2,25.5,28.1,25.6,28,25.6z M24.2,24.9h3.6l1.8-3.1l-1.8-3.1h-3.6l-1.8,3.1L24.2,24.9z M8,25.6H4c-0.1,0-0.2-0.1-0.3-0.2l-2-3.5
	c-0.1-0.1-0.1-0.2,0-0.4l2-3.5C3.8,18,3.9,17.9,4,17.9h4c0.1,0,0.2,0.1,0.3,0.2l1.9,3.3H16c0.2,0,0.4,0.2,0.4,0.4
	c0,0.2-0.2,0.4-0.4,0.4h-5.8l-1.9,3.3C8.2,25.5,8.1,25.6,8,25.6z M4.2,24.9h3.6l1.8-3.1l-1.8-3.1H4.2l-1.8,3.1L4.2,24.9z M11,19.3
	c-0.1,0-0.2-0.1-0.3-0.2l-2.9-5H4c-0.1,0-0.2-0.1-0.3-0.2l-2-3.5c-0.1-0.1-0.1-0.2,0-0.4l2-3.5C3.8,6.5,3.9,6.4,4,6.4h4
	c0.1,0,0.2,0.1,0.3,0.2l2,3.5c0.1,0.1,0.1,0.2,0,0.4l-1.9,3.3l2.9,5c0.1,0.2,0,0.4-0.1,0.5C11.1,19.2,11.1,19.3,11,19.3z M4.2,13.3
	h3.6l1.8-3.1L7.8,7.1H4.2l-1.8,3.1L4.2,13.3z M28,14.1h-4c-0.1,0-0.2-0.1-0.3-0.2l-1.9-3.3H16c-0.2,0-0.4-0.2-0.4-0.4
	c0-0.2,0.2-0.4,0.4-0.4h5.8l1.9-3.3c0.1-0.1,0.2-0.2,0.3-0.2h4c0.1,0,0.2,0.1,0.3,0.2l2,3.5c0.1,0.1,0.1,0.2,0,0.4l-2,3.5
	C28.2,14,28.1,14.1,28,14.1z M24.2,13.3h3.6l1.8-3.1l-1.8-3.1h-3.6l-1.8,3.1L24.2,13.3z M11,13.5c-0.1,0-0.1,0-0.2,0
	c-0.2-0.1-0.2-0.3-0.1-0.5l2.9-5l-1.9-3.3c-0.1-0.1-0.1-0.2,0-0.4l2-3.5c0.1-0.1,0.2-0.2,0.3-0.2h4c0.1,0,0.2,0.1,0.3,0.2l2,3.5
	c0.1,0.1,0.1,0.2,0,0.4l-2,3.5c-0.1,0.1-0.2,0.2-0.3,0.2h-3.8l-2.9,5C11.2,13.4,11.1,13.5,11,13.5z M14.2,7.6h3.6l1.8-3.1l-1.8-3.1
	h-3.6l-1.8,3.1L14.2,7.6z"/>
</svg>
