<svg id="Layer_1" data-name="Layer 1" xmlns="http://www.w3.org/2000/svg" viewBox="0 0 32 32"><defs><style>.cls-1{fill:#fff;}.cls-2{fill:none;}</style></defs><path id="active--server" class="cls-1" d="M30.4,20.23l-1.94-.52.19-.69,1.93.51Zm-28.8,0-.18-.7L3.35,19l.19.69ZM31,16.36H29v-.72h2Zm-28,0H1v-.72H3ZM28.65,13l-.19-.69,1.94-.52.18.7ZM3.35,13l-1.93-.51.18-.7,1.94.52ZM24,31.36H8A.36.36,0,0,1,7.64,31V1A.36.36,0,0,1,8,.64H24a.36.36,0,0,1,.36.36V31A.36.36,0,0,1,24,31.36ZM8.36,30.64H23.64V1.36H8.36ZM20,11.36H12v-.72h8Zm0-3H12V7.64h8Zm0-3H12V4.64h8Z"/><rect id="_Transparent_Rectangle" data-name=" Transparent Rectangle" class="cls-2" width="32" height="32"/></svg>