<svg id="Layer_1" data-name="Layer 1" xmlns="http://www.w3.org/2000/svg" viewBox="0 0 32 32"><defs><style>.cls-1{fill:#fff;}.cls-2{fill:none;}</style></defs><path id="manage-applications-anywhere" class="cls-1" d="M16,30.36a1.37,1.37,0,0,1-1.33-1.06,13.45,13.45,0,0,1-12-12,1.36,1.36,0,0,1,0-2.66,13.45,13.45,0,0,1,12-12,1.36,1.36,0,0,1,2.66,0,13.45,13.45,0,0,1,12,12,1.36,1.36,0,0,1,0,2.66,13.43,13.43,0,0,1-12,12A1.37,1.37,0,0,1,16,30.36Zm0-2a.64.64,0,1,0,.64.64A.64.64,0,0,0,16,28.36Zm0-.72a1.36,1.36,0,0,1,1.29.93A12.7,12.7,0,0,0,28.57,17.29a1.36,1.36,0,0,1,0-2.58A12.72,12.72,0,0,0,17.29,3.42a1.36,1.36,0,0,1-2.58,0A12.72,12.72,0,0,0,3.42,14.71a1.36,1.36,0,0,1,0,2.58A12.7,12.7,0,0,0,14.71,28.57,1.36,1.36,0,0,1,16,27.64ZM29,15.36a.64.64,0,1,0,.64.64A.64.64,0,0,0,29,15.36Zm-26,0a.64.64,0,1,0,.64.64A.64.64,0,0,0,3,15.36Zm13-13a.64.64,0,1,0,.64.64A.64.64,0,0,0,16,2.36Zm7,21H13a.36.36,0,0,1-.36-.36V19.36H9A.36.36,0,0,1,8.64,19V10A.36.36,0,0,1,9,9.64H19a.36.36,0,0,1,.36.36v3.64H23a.36.36,0,0,1,.36.36v9A.36.36,0,0,1,23,23.36Zm-9.64-.72h9.28V14.36H13.36Zm-4-4h3.28V14a.36.36,0,0,1,.36-.36h5.64V10.36H9.36ZM17,16.36H15v-.72h2Zm-4-4H11v-.72h2Z"/><rect id="_Transparent_Rectangle" data-name=" Transparent Rectangle" class="cls-2" width="32" height="32"/></svg>