<svg id="Layer_1" data-name="Layer 1" xmlns="http://www.w3.org/2000/svg" viewBox="0 0 32 32"><defs><style>.cls-1{fill:#fff;}.cls-2{fill:none;}</style></defs><path id="text--input" class="cls-1" d="M30,29.36H2A.36.36,0,0,1,1.64,29V25A.36.36,0,0,1,2,24.64H30a.36.36,0,0,1,.36.36v4A.36.36,0,0,1,30,29.36ZM2.36,28.64H29.64V25.36H2.36ZM14,23.36H2v-.72H14Zm16-4H2A.36.36,0,0,1,1.64,19V15A.36.36,0,0,1,2,14.64H30a.36.36,0,0,1,.36.36v4A.36.36,0,0,1,30,19.36ZM2.36,18.64H29.64V15.36H2.36ZM14,13.36H2v-.72H14Zm16-4H2A.36.36,0,0,1,1.64,9V5A.36.36,0,0,1,2,4.64H30a.36.36,0,0,1,.36.36V9A.36.36,0,0,1,30,9.36ZM2.36,8.64H29.64V5.36H2.36ZM14,3.36H2V2.64H14Z"/><rect id="_Transparent_Rectangle" data-name=" Transparent Rectangle" class="cls-2" width="32" height="32"/></svg>