<svg id="Layer_1" data-name="Layer 1" xmlns="http://www.w3.org/2000/svg" viewBox="0 0 32 32"><defs><style>.cls-1{fill:#fff;}.cls-2{fill:none;}</style></defs><path id="tools" class="cls-1" d="M25.13,31.48a6.36,6.36,0,0,1-6.05-8.36L8.87,12.92A6.36,6.36,0,0,1,1.14,4.14a.35.35,0,0,1,.26-.2.34.34,0,0,1,.32.1l4,4A1.64,1.64,0,0,0,8,5.72l-4-4a.37.37,0,0,1-.1-.32.35.35,0,0,1,.2-.26,6.36,6.36,0,0,1,8.78,7.74l10.2,10.2a6.36,6.36,0,0,1,7.74,8.78.35.35,0,0,1-.26.2.38.38,0,0,1-.32-.1l-4-4A1.64,1.64,0,0,0,24,26.28l4,4a.36.36,0,0,1,.1.31.35.35,0,0,1-.2.27A6.26,6.26,0,0,1,25.13,31.48ZM9,12.15a.35.35,0,0,1,.25.1L19.75,22.77a.36.36,0,0,1,.08.38,5.64,5.64,0,0,0,7.24,7.26l-3.62-3.62a2.36,2.36,0,1,1,3.34-3.34l3.62,3.62a5.64,5.64,0,0,0-7.26-7.24.36.36,0,0,1-.38-.08L12.25,9.23a.36.36,0,0,1-.08-.38A5.64,5.64,0,0,0,4.93,1.59L8.55,5.21a2.37,2.37,0,0,1,0,3.34,2.42,2.42,0,0,1-3.34,0L1.59,4.93a5.64,5.64,0,0,0,7.25,7.24A.3.3,0,0,1,9,12.15ZM2.86,31.24a.42.42,0,0,1-.26-.1L.86,29.39a.36.36,0,0,1,0-.49l2.94-3.23A.3.3,0,0,1,4,25.55a.41.41,0,0,1,.27.1l.76.77,7.48-7.48.5.51L5.58,26.93l.76.76a.36.36,0,0,1,.11.26.42.42,0,0,1-.12.26L3.1,31.15A.38.38,0,0,1,2.86,31.24ZM1.61,29.12l1.26,1.26,2.69-2.45-1.5-1.5Zm19.75-14.6L20.85,14,30.16,4.7a2,2,0,0,0,0-2.87,2,2,0,0,0-2.86,0L18,11.14l-.51-.51,9.31-9.31a2.81,2.81,0,0,1,3.88,0,2.74,2.74,0,0,1,0,3.89Zm-1.69-1.69-.51-.51L28.45,3l.51.51Z"/><rect id="_Transparent_Rectangle" data-name=" Transparent Rectangle" class="cls-2" width="32" height="32"/></svg>