<svg id="Layer_1" data-name="Layer 1" xmlns="http://www.w3.org/2000/svg" viewBox="0 0 32 32"><defs><style>.cls-1{fill:#fff;}.cls-2{fill:none;}</style></defs><path id="user--interface" class="cls-1" d="M29,3.5a.5.5,0,1,1-.5-.5.5.5,0,0,1,.5.5M26.5,3a.5.5,0,1,0,.5.5.5.5,0,0,0-.5-.5m-2,0a.5.5,0,1,0,.5.5.5.5,0,0,0-.5-.5M31,30.36H1A.36.36,0,0,1,.64,30V2A.36.36,0,0,1,1,1.64H31a.36.36,0,0,1,.36.36V30A.36.36,0,0,1,31,30.36ZM1.36,29.64H30.64V5.36H1.36Zm0-25H30.64V2.36H1.36ZM15,25.36H10A.36.36,0,0,1,9.64,25V22a.36.36,0,0,1,.36-.36h5a.36.36,0,0,1,.36.36v3A.36.36,0,0,1,15,25.36Zm-4.64-.72h4.28V22.36H10.36ZM22,20.36H17a.36.36,0,0,1-.36-.36V17a.36.36,0,0,1,.36-.36h5a.36.36,0,0,1,.36.36v3A.36.36,0,0,1,22,20.36Zm-4.64-.72h4.28V17.36H17.36ZM15,20.36H10A.36.36,0,0,1,9.64,20V17a.36.36,0,0,1,.36-.36h5a.36.36,0,0,1,.36.36v3A.36.36,0,0,1,15,20.36Zm-4.64-.72h4.28V17.36H10.36ZM22,15.36H17a.36.36,0,0,1-.36-.36V12a.36.36,0,0,1,.36-.36h5a.36.36,0,0,1,.36.36v3A.36.36,0,0,1,22,15.36Zm-4.64-.72h4.28V12.36H17.36ZM15,15.36H10A.36.36,0,0,1,9.64,15V12a.36.36,0,0,1,.36-.36h5a.36.36,0,0,1,.36.36v3A.36.36,0,0,1,15,15.36Zm-4.64-.72h4.28V12.36H10.36ZM8,15.36H3A.36.36,0,0,1,2.64,15V12A.36.36,0,0,1,3,11.64H8a.36.36,0,0,1,.36.36v3A.36.36,0,0,1,8,15.36Zm-4.64-.72H7.64V12.36H3.36ZM29,10.36H24a.36.36,0,0,1-.36-.36V7A.36.36,0,0,1,24,6.64h5a.36.36,0,0,1,.36.36v3A.36.36,0,0,1,29,10.36Zm-4.64-.72h4.28V7.36H24.36ZM22,10.36H17a.36.36,0,0,1-.36-.36V7A.36.36,0,0,1,17,6.64h5a.36.36,0,0,1,.36.36v3A.36.36,0,0,1,22,10.36Zm-4.64-.72h4.28V7.36H17.36ZM15,10.36H10A.36.36,0,0,1,9.64,10V7A.36.36,0,0,1,10,6.64h5a.36.36,0,0,1,.36.36v3A.36.36,0,0,1,15,10.36Zm-4.64-.72h4.28V7.36H10.36ZM8,10.36H3A.36.36,0,0,1,2.64,10V7A.36.36,0,0,1,3,6.64H8A.36.36,0,0,1,8.36,7v3A.36.36,0,0,1,8,10.36ZM3.36,9.64H7.64V7.36H3.36Z"/><rect id="_Transparent_Rectangle" data-name=" Transparent Rectangle" class="cls-2" width="32" height="32"/></svg>