<?xml version="1.0" encoding="utf-8"?>
<!-- Generator: Adobe Illustrator 24.1.0, SVG Export Plug-In . SVG Version: 6.00 Build 0)  -->
<svg version="1.1" id="Layer_1" xmlns="http://www.w3.org/2000/svg" xmlns:xlink="http://www.w3.org/1999/xlink" x="0px" y="0px"
	 width="32px" height="32px" viewBox="0 0 32 32" style="enable-background:new 0 0 32 32;" xml:space="preserve">
<style type="text/css">
	.st0{fill:#FFFFFF;}
</style>
<path class="st0" d="M23.3,11.6V11c0-4.2-3.3-7.5-7.3-7.5h-1v0.9h1c3.5,0,6.4,3,6.4,6.6v0.5c0,3.7-2.9,6.6-6.4,6.6H7.4l-1.4-4
	c-0.2-0.5-0.3-1-0.3-1.5v-1.5H4.8v1.5c0,0.6,0.1,1.2,0.3,1.8l1.3,3.7H2v0.9h4.8l1.8,5.1c0.1,0.2,0.1,0.5,0.1,0.7v6.5h0.9v-6.5
	c0-0.3-0.1-0.7-0.2-1l-1.7-4.8H16C20,19.1,23.3,15.7,23.3,11.6z M29.9,18.5l-3.6-7.2c0-3.7-1.4-6.7-3.9-8.5
	c-1.9-1.4-4.5-2.3-7.1-2.3C12,0.5,7,2.5,7,6.9c0,2.5,1.3,3.7,2.5,4.3c0.8,0.4,1.6,0.6,2.4,0.6h6.7l-1.2,1.2l0.6,0.6l1.9-1.9
	c0.2-0.2,0.2-0.5,0-0.6l-1.9-2l-0.7,0.6l1.2,1.3h-6.7c-0.2,0-4-0.2-4-4c0-4.1,5.2-5.5,7.5-5.5c4.6,0,10.1,2.6,10.1,10
	c0,0.1,0,0.1,0,0.2l3.3,6.6h-2.8c-0.3,0-0.5,0.2-0.5,0.5v5c0,1.1-0.9,1.9-1.9,1.9h-4.9v0.9h1v5h0.9v-5h3c1.6,0,2.8-1.3,2.8-2.8v-4.5
	h3.1c0.2,0,0.3-0.1,0.4-0.2C30,18.8,30,18.6,29.9,18.5z M13.2,8.9h0.9v0.9h-0.9V8.9z M15.3,8.9h0.9v0.9h-0.9V8.9z M15.3,12.8h0.9
	v0.9h-0.9V12.8z M13.2,12.8h0.9v0.9h-0.9V12.8z"/>
</svg>
