<?xml version="1.0" encoding="utf-8"?>
<!-- Generator: Adobe Illustrator 24.1.0, SVG Export Plug-In . SVG Version: 6.00 Build 0)  -->
<svg version="1.1" id="Layer_1" xmlns="http://www.w3.org/2000/svg" xmlns:xlink="http://www.w3.org/1999/xlink" x="0px" y="0px"
	 width="32px" height="32px" viewBox="0 0 32 32" style="enable-background:new 0 0 32 32;" xml:space="preserve">
<style type="text/css">
	.st0{fill:#FFFFFF;}
</style>
<path class="st0" d="M7.3,0.6H1.2v6.1h6.1L7.3,0.6L7.3,0.6z M6.3,5.7H2.2V1.6h4.1L6.3,5.7L6.3,5.7z M17.6,16.8v-6.1h-6.1v6.1H17.6z
	 M12.5,11.7h4.1v4.1h-4.1V11.7z M26.8,8.7c0,2.5-2.1,4.6-4.6,4.6h-2.4v1h2.4c3.1,0.1,5.6-2.4,5.7-5.4c0.1-3.1-2.4-5.6-5.4-5.7
	c-0.1,0-0.1,0-0.2,0H9.8v1h12.4C24.7,4.2,26.8,6.2,26.8,8.7z M22.2,21.8l-1-1c-0.2-0.2-0.5-0.2-0.7,0l-2.8,2.8H6.7
	c-2.5,0-4.5-2.2-4.5-4.7c0-2.4,2-4.4,4.5-4.5h2.4v-1H6.7c-3.1,0-5.6,2.5-5.6,5.6s2.5,5.6,5.6,5.6h9.9l0,0c-0.2,0.2-0.2,0.5,0,0.7
	l1,1c0.2,0.2,0.5,0.2,0.7,0l3.8-3.8C22.3,22.3,22.3,21.9,22.2,21.8z M30.7,23.6l-3.8-3.8c-0.2-0.2-0.5-0.2-0.7,0l-1,1
	c-0.2,0.2-0.2,0.5,0,0.7l3.8,3.8c0.2,0.2,0.5,0.2,0.7,0l1-1C30.9,24.1,30.9,23.8,30.7,23.6z M26.8,26.6c0,0-0.1,0-0.1-0.1l-2.5-2.5
	c0,0-0.1,0-0.1,0c-0.3,0.1-0.6,0.4-0.6,0.7c0,0.2-0.1,0.5-0.3,0.7c-0.2,0.2-0.4,0.3-0.6,0.3h0c-0.5,0-0.9-0.4-0.9-0.9
	c0-0.4,0.1-0.7,0.2-1.1c0-0.1,0.1-0.2,0.2-0.3h-0.1c-0.1,0-0.3,0-0.4,0.2l-2.6,2.6l0.4,0.5l0.5-0.5c0.2-0.2,0.6-0.2,0.8,0l0,0
	l0.2,0.2c0.1,0.1,0.2,0.2,0.2,0.4c0.1,0,0.3,0.1,0.4,0.2l0.2,0.2c0.1,0.1,0.2,0.2,0.2,0.4c0.1,0,0.3,0.1,0.4,0.2l0.2,0.2
	c0.1,0.1,0.2,0.3,0.2,0.4l0,0c0.1,0,0.3,0.1,0.4,0.2l0.2,0.2c0.2,0.2,0.2,0.6,0,0.8l0,0l-0.5,0.5c0,0.1,0,0.1,0.1,0.2l1,1
	c0.1,0.1,0.2,0.1,0.3,0.1s0.2,0,0.3-0.1l0.1-0.1c0.2-0.2,0.2-0.5,0-0.7l0,0l-0.9-0.9l0.1-0.2l0.9,0.9c0.2,0.2,0.5,0.2,0.7,0l0,0
	l0.1-0.1c0.2-0.2,0.2-0.5,0-0.7l0,0l-0.9-0.9l0,0l0.1-0.2c0,0,1,1,1,1c0.1,0.1,0.2,0.1,0.3,0.1s0.2,0,0.3-0.1l0.1-0.1
	c0.2-0.2,0.2-0.5,0-0.7l0,0c0,0-1-1-1-1l0.2-0.2c0,0,1,1,1,1c0.2,0.2,0.5,0.2,0.7,0l0,0l0.1-0.1c0.2-0.2,0.2-0.5,0-0.7l0,0
	L26.8,26.6z M22.3,23.5c-0.1,0.1-0.2,0.3-0.3,0.4c-0.1,0.3-0.2,0.6-0.2,0.9c0,0.3,0.3,0.6,0.6,0.6h0c0.2,0,0.3-0.1,0.4-0.2
	c0.1-0.1,0.2-0.3,0.2-0.4c0-0.5,0.4-0.9,0.8-1c0.1,0,0.2,0,0.3,0l2.6,2.6l0.8-0.9c0.1-0.1,0.2-0.2,0.2-0.4c0-0.1,0-0.3-0.2-0.4
	l-2.2-2.2c-0.4-0.4-1-0.5-1.5-0.2C23.4,22.6,22.8,23,22.3,23.5z M20.8,27c0-0.1,0-0.2-0.1-0.2l-0.2-0.2c0,0-0.1-0.1-0.2-0.1
	s-0.1,0-0.2,0.1l-0.8,0.8c-0.1,0.1-0.1,0.3,0,0.4l0,0l0.2,0.2c0,0,0.1,0.1,0.2,0.1h0c0,0,0-0.1,0.1-0.1l0.8-0.8
	C20.7,27.1,20.7,27,20.8,27z M21.6,27.8c0-0.1,0-0.2-0.1-0.3l-0.2-0.2c0,0-0.1-0.1-0.2-0.1s-0.1,0-0.2,0.1L20,28.1
	c-0.1,0.1-0.1,0.3,0,0.4l0.2,0.2c0,0,0.1,0.1,0.2,0.1c0,0,0,0,0.1,0c0,0,0-0.1,0.1-0.1L21.6,27.8C21.5,27.9,21.5,27.9,21.6,27.8z
	 M22.4,28.7c0-0.1,0-0.2-0.1-0.3l-0.2-0.2c-0.1-0.1-0.3-0.1-0.4,0l0,0L20.8,29c-0.1,0.1-0.1,0.3,0,0.4l0,0l0.2,0.2
	c0,0,0.1,0.1,0.2,0.1c0,0,0.1,0,0.1,0c0,0,0-0.1,0.1-0.1l0.8-0.8C22.3,28.7,22.3,28.7,22.4,28.7z M23.1,29.2L22.9,29
	c0,0-0.1-0.1-0.2-0.1c-0.1,0-0.1,0-0.2,0.1l-0.8,0.8c-0.1,0.1-0.1,0.3,0,0.4l0.2,0.2c0,0,0.1,0.1,0.2,0.1s0.1,0,0.2-0.1l0.8-0.8
	C23.3,29.5,23.3,29.3,23.1,29.2z"/>
</svg>
