<?xml version="1.0" encoding="utf-8"?>
<!-- Generator: Adobe Illustrator 24.1.0, SVG Export Plug-In . SVG Version: 6.00 Build 0)  -->
<svg version="1.1" id="Layer_1" xmlns="http://www.w3.org/2000/svg" xmlns:xlink="http://www.w3.org/1999/xlink" x="0px" y="0px"
	 width="32px" height="32px" viewBox="0 0 32 32" style="enable-background:new 0 0 32 32;" xml:space="preserve">
<style type="text/css">
	.st0{fill:#FFFFFF;}
</style>
<path class="st0" d="M7.1,26.1v-4.2H2.7v0.9h3.5v3.3H7.1z M23.7,26.8H6.1l-4.2-4.1V5.2h21.8v5.2h0.9V4.7c0-0.3-0.2-0.5-0.5-0.5H1.4
	c-0.3,0-0.5,0.2-0.5,0.5v18.2c0,0.1,0,0.3,0.1,0.3l4.5,4.4c0.1,0.1,0.2,0.1,0.3,0.1h18.2c0.3,0,0.5-0.2,0.5-0.5v-5.6h-0.9V26.8z
	 M30.9,11.5L28.4,9c-0.2-0.2-0.5-0.2-0.6,0l-8.6,8.3l-2.6-2.5c-0.2-0.2-0.5-0.2-0.6,0l-2.7,2.6c-0.2,0.2-0.2,0.5,0,0.6l0,0l5.6,5.5
	c0.2,0.2,0.5,0.2,0.6,0l11.4-11.4c0.1-0.1,0.1-0.2,0.1-0.3C31.1,11.7,31,11.6,30.9,11.5z M19.2,22.6l-5-4.9l2-1.9l2.6,2.5
	c0.2,0.2,0.5,0.2,0.6,0l8.6-8.3l1.9,1.8L19.2,22.6z"/>
</svg>
