<?xml version="1.0" encoding="utf-8"?>
<!-- Generator: Adobe Illustrator 24.1.0, SVG Export Plug-In . SVG Version: 6.00 Build 0)  -->
<svg version="1.1" id="Layer_1" xmlns="http://www.w3.org/2000/svg" xmlns:xlink="http://www.w3.org/1999/xlink" x="0px" y="0px"
	 width="32px" height="32px" viewBox="0 0 32 32" style="enable-background:new 0 0 32 32;" xml:space="preserve">
<style type="text/css">
	.st0{fill:#FFFFFF;}
</style>
<path class="st0" d="M6.6,9.3c-0.1,0-0.2,0.1-0.2,0.2v1.8c0,0.1,0.1,0.2,0.2,0.2h1.8c0.1,0,0.2-0.1,0.2-0.2V9.5
	c0-0.1-0.1-0.2-0.2-0.2H6.6z M8.2,11.1H6.8l0-1.4h1.4V11.1z M12,15.1c-0.1,0-0.2,0.1-0.2,0.2v1.8c0,0.1,0.1,0.2,0.2,0.2h1.8
	c0.1,0,0.2-0.1,0.2-0.2v-1.8c0-0.1-0.1-0.2-0.2-0.2H12z M13.6,16.9h-1.4v-1.4h1.4V16.9z M2.7,27.9c0-0.2,0.2-0.4,0.4-0.4
	c0.2,0,0.4,0.2,0.4,0.4c0,0.2-0.2,0.4-0.4,0.4C2.9,28.3,2.7,28.1,2.7,27.9z M11.4,9.5c0-0.1-0.1-0.2-0.2-0.2H9.3
	c-0.1,0-0.2,0.1-0.2,0.2v1.8c0,0.1,0.1,0.2,0.2,0.2h1.8c0.1,0,0.2-0.1,0.2-0.2V9.5z M10.9,11.1H9.6V9.7h1.4V11.1z M14.1,9.5
	c0-0.1-0.1-0.2-0.2-0.2H12c-0.1,0-0.2,0.1-0.2,0.2v1.8c0,0.1,0.1,0.2,0.2,0.2h1.8c0.1,0,0.2-0.1,0.2-0.2V9.5z M13.6,11.1h-1.4V9.7
	h1.4V11.1z M11.1,12.2H9.3c-0.1,0-0.2,0.1-0.2,0.2v1.8c0,0.1,0.1,0.2,0.2,0.2h1.8c0.1,0,0.2-0.1,0.2-0.2v-1.8
	C11.3,12.3,11.2,12.2,11.1,12.2z M10.9,14H9.5v-1.4h1.4V14z M30.1,26.3h-5.8c-0.2,0-0.4,0.2-0.4,0.4v2.4c0,0.2,0.2,0.4,0.4,0.4h5.8
	c0.2,0,0.4-0.2,0.4-0.4v-2.4C30.5,26.5,30.3,26.3,30.1,26.3z M29.6,28.7h-4.9v-1.5h4.9V28.7z M31.1,18.2L31.1,18.2v2.3
	c0,1.6-0.9,4.6-0.9,4.7c0,0.2-0.2,0.3-0.4,0.3h-3.4v-0.9h3.1c0.2-0.8,0.8-2.9,0.8-4.2v-2.3c0-0.2-0.2-0.3-0.4-0.3
	c-0.1,0-0.2,0-0.2,0.1c0,0,0,0,0,0.1v1.5c0,0.2-0.2,0.4-0.4,0.4c-0.2,0-0.4-0.2-0.4-0.4v-1.3c0-0.1,0-0.1,0-0.2v-0.7
	c-0.1-0.3-0.3-0.4-0.6-0.4h-0.1v1.9c0,0.2-0.2,0.4-0.4,0.4s-0.4-0.2-0.4-0.4v-2.1c0-0.2-0.2-0.5-0.4-0.5c-0.1,0-0.2,0-0.3,0v1.9
	c0,0.2-0.2,0.4-0.4,0.4s-0.4-0.2-0.4-0.4v-4.6c0-0.2-0.2-0.4-0.4-0.4s-0.4,0.2-0.4,0.4v6.8c0,0.2-0.2,0.4-0.4,0.4
	c-0.2,0-0.3-0.1-0.4-0.3c0-0.1-0.6-1.5-0.7-2c0,0,0-0.1-0.1-0.1c-0.1-0.1-0.2-0.1-0.4,0c-0.2,0.1-0.2,0.2-0.2,0.3v1.4
	c0.1,0.5,0.3,1,0.5,1.4c0.2,0.3,0.5,0.6,0.7,0.9c0.5,0.7,1,1.2,1.1,1.7v0l0.1,1.2l-0.9,0.1L24.1,24c-0.1-0.3-0.5-0.8-0.9-1.3
	c-0.3-0.3-0.5-0.7-0.7-1c-0.4-0.6-0.6-1.2-0.7-1.9v-1.4c0-0.5,0.3-1,0.8-1.1c0.4-0.1,0.8-0.1,1.2,0.2c0.1,0.1,0.2,0.2,0.3,0.3v-4.3
	c0-0.7,0.5-1.2,1.2-1.2s1.2,0.5,1.2,1.2v1.9h0.3c0.5,0,0.9,0.3,1.1,0.7h0.2c0.7,0,1.3,0.4,1.4,1.1c0.1,0,0.2,0,0.3,0
	C30.5,17,31.1,17.5,31.1,18.2z M28.4,28c0-0.2,0.2-0.4,0.4-0.4c0.2,0,0.4,0.2,0.4,0.4c0,0.2-0.2,0.4-0.4,0.4
	C28.6,28.4,28.4,28.2,28.4,28z M7.7,26.3H1.9c-0.2,0-0.4,0.2-0.4,0.4v2.4c0,0.2,0.2,0.4,0.4,0.4h5.8c0.2,0,0.4-0.2,0.4-0.4v-2.4
	C8.2,26.5,8,26.3,7.7,26.3z M7.3,28.6H2.4v-1.5h4.9V28.6z M9.5,23.3h12.8v0.9H9.5V23.3z M10.1,19.8c-0.1,0.7-0.3,1.3-0.7,1.9
	c-0.2,0.3-0.5,0.7-0.7,1c-0.4,0.5-0.8,1-0.9,1.3l-0.1,1.2l-0.9-0.1L7,23.9c0,0,0,0,0,0c0.1-0.5,0.5-1,1.1-1.7
	c0.2-0.3,0.5-0.6,0.7-0.9c0.3-0.4,0.5-0.9,0.5-1.4v-1.4c0-0.1,0-0.2-0.2-0.3c-0.1,0-0.3,0-0.4,0c0,0-0.1,0.1-0.1,0.1
	c-0.2,0.4-0.7,1.9-0.7,2c-0.1,0.2-0.3,0.3-0.6,0.3C7.1,20.5,7,20.4,7,20.2v-6.8c0-0.2-0.2-0.4-0.4-0.4c-0.2,0-0.4,0.2-0.4,0.4V18
	c0,0.2-0.2,0.4-0.4,0.4S5.4,18.3,5.4,18v-1.9H5.2c-0.3,0-0.5,0.2-0.5,0.5v2.1c0,0.2-0.2,0.4-0.4,0.4c-0.2,0-0.4-0.2-0.4-0.4v-1.9
	H3.8c-0.3,0-0.5,0.2-0.6,0.4V18c0,0.1,0,0.1,0,0.2v1.3c0,0.2-0.2,0.4-0.4,0.4s-0.4-0.2-0.4-0.4V18c0,0,0,0,0-0.1
	c-0.1,0-0.2-0.1-0.2-0.1c-0.3,0-0.4,0.2-0.4,0.3v2.3c0,1.2,0.6,3.4,0.8,4.2h3.1v0.9H2.2c-0.2,0-0.4-0.1-0.4-0.3
	c0-0.1-0.9-3.1-0.9-4.7v-2.3C0.8,17.5,1.4,17,2,17c0,0,0,0,0,0c0.1,0,0.2,0,0.3,0c0.2-0.7,0.8-1.1,1.4-1.1H4
	c0.2-0.4,0.7-0.7,1.1-0.7h0.3v-1.9c0-0.7,0.5-1.2,1.2-1.2c0.7,0,1.2,0.5,1.2,1.2v4.4c0.1-0.1,0.2-0.2,0.3-0.3
	c0.3-0.2,0.8-0.3,1.2-0.2c0.5,0.1,0.8,0.6,0.8,1.1V19.8z M19.4,12.4c0-0.1-0.1-0.2-0.2-0.2h-1.8c-0.1,0-0.2,0.1-0.2,0.2v1.8
	c0,0.1,0.1,0.2,0.2,0.2h1.8c0.1,0,0.2-0.1,0.2-0.2V12.4z M19,14h-1.4v-1.4H19V14z M22.9,9.3c-0.1,0-0.2,0.1-0.2,0.2v1.8
	c0,0.1,0.1,0.2,0.2,0.2h1.8c0.1,0,0.2-0.1,0.2-0.2V9.5c0-0.1-0.1-0.2-0.2-0.2H22.9z M24.5,11.1h-1.4V9.7h1.4V11.1z M21.9,12.2h-1.8
	c-0.1,0-0.2,0.1-0.2,0.2v1.8c0,0.1,0.1,0.2,0.2,0.2h1.8c0.1,0,0.2-0.1,0.2-0.2v-1.8C22.2,12.3,22.1,12.2,21.9,12.2z M21.7,14h-1.4
	v-1.4h1.4V14z M22.2,9.5c0-0.1-0.1-0.2-0.2-0.2h-1.8c-0.1,0-0.2,0.1-0.2,0.2v1.8c0,0.1,0.1,0.2,0.2,0.2H22c0.1,0,0.2-0.1,0.2-0.2
	V9.5z M21.8,11.1h-1.4V9.7h1.4V11.1z M3.2,14.8H2.3V8.1c0-0.2,0.2-0.4,0.4-0.4h12.5V6.9h-4.6c-0.7,0-1.3-0.6-1.3-1.3
	c0-0.7,0.6-1.3,1.3-1.3h10.1c0.2,0,0.4-0.2,0.4-0.4v0c0-0.2-0.2-0.4-0.4-0.4h-5.1V2.7h5.2c0.7,0,1.3,0.6,1.3,1.3v0
	c0,0.7-0.5,1.3-1.2,1.3H10.7c-0.2,0-0.4,0.2-0.4,0.4c0,0.2,0.2,0.4,0.4,0.4h5.1c0.2,0,0.4,0.2,0.4,0.4v1.2h12.7
	c0.2,0,0.4,0.2,0.4,0.4V15h-0.9V8.5H3.2V14.8z M25.6,9.3c-0.1,0-0.2,0.1-0.2,0.2v1.8c0,0.1,0.1,0.2,0.2,0.2h1.8
	c0.1,0,0.2-0.1,0.2-0.2V9.5c0-0.1-0.1-0.2-0.2-0.2H25.6z M27.2,11.1h-1.4V9.7h1.4V11.1z M16.5,15.1h-1.8c-0.1,0-0.2,0.1-0.2,0.2v1.8
	c0,0.1,0.1,0.2,0.2,0.2h1.8c0.1,0,0.2-0.1,0.2-0.2v-1.8C16.7,15.2,16.6,15.1,16.5,15.1z M16.3,16.9h-1.4v-1.4h1.4V16.9z M17.4,15.1
	c-0.1,0-0.2,0.1-0.2,0.2v1.8c0,0.1,0.1,0.2,0.2,0.2h1.8c0.1,0,0.2-0.1,0.2-0.2v-1.8c0-0.1-0.1-0.2-0.2-0.2H17.4z M19,16.9h-1.4v-1.4
	H19V16.9z M16.8,9.5c0-0.1-0.1-0.2-0.2-0.2h-1.8c-0.1,0-0.2,0.1-0.2,0.2v1.8c0,0.1,0.1,0.2,0.2,0.2h1.8c0.1,0,0.2-0.1,0.2-0.2V9.5z
	 M16.4,11.1H15V9.7h1.4V11.1z M14,12.4c0-0.1-0.1-0.2-0.2-0.2H12c-0.1,0-0.2,0.1-0.2,0.2v1.8c0,0.1,0.1,0.2,0.2,0.2h1.8
	c0.1,0,0.2-0.1,0.2-0.2V12.4z M13.6,14h-1.4v-1.4h1.4V14z M16.7,12.4c0-0.1-0.1-0.2-0.2-0.2h-1.8c-0.1,0-0.2,0.1-0.2,0.2v1.8
	c0,0.1,0.1,0.2,0.2,0.2h1.8c0.1,0,0.2-0.1,0.2-0.2V12.4z M16.3,14h-1.4v-1.4h1.4V14z M19.5,9.5c0-0.1-0.1-0.2-0.2-0.2h-1.8
	c-0.1,0-0.2,0.1-0.2,0.2v1.8c0,0.1,0.1,0.2,0.2,0.2h1.8c0.1,0,0.2-0.1,0.2-0.2V9.5z M19.1,11.1h-1.4l0-1.4h1.4V11.1z"/>
</svg>
