<?xml version="1.0" encoding="utf-8"?>
<!-- Generator: Adobe Illustrator 24.1.0, SVG Export Plug-In . SVG Version: 6.00 Build 0)  -->
<svg version="1.1" id="Layer_1" xmlns="http://www.w3.org/2000/svg" xmlns:xlink="http://www.w3.org/1999/xlink" x="0px" y="0px"
	 width="32px" height="32px" viewBox="0 0 32 32" style="enable-background:new 0 0 32 32;" xml:space="preserve">
<style type="text/css">
	.st0{fill:#FFFFFF;}
</style>
<path class="st0" d="M25.5,12.8c-3.1-2.5-6.3-3.9-9.4-3.9c-3.9,0-7.3,2.1-9.6,3.9c-1.5,1.1-2.8,2.4-4,3.8c-0.1,0.1-0.1,0.3,0,0.5
	c0.2,0.3,5.6,7.7,13.4,7.7s13.1-7.4,13.4-7.7c0.1-0.1,0.1-0.3,0-0.5C28.2,15.2,27,13.9,25.5,12.8z M16,23.9
	c-6.6,0-11.5-5.8-12.5-7.1c1.1-1.3,2.3-2.4,3.6-3.4c2.1-1.7,5.4-3.7,9-3.7s6.8,2,8.8,3.6c1.3,1,2.4,2.2,3.4,3.4
	C27.4,18.1,22.5,23.9,16,23.9z M16,10.4c-3.6,0-6.5,2.9-6.5,6.5c0,3.6,2.9,6.5,6.5,6.5c3.6,0,6.5-2.9,6.5-6.5l0,0
	C22.4,13.3,19.5,10.4,16,10.4z M16,22.5c-3.1,0-5.6-2.5-5.6-5.6s2.5-5.6,5.6-5.6s5.6,2.5,5.6,5.6l0,0C21.6,19.9,19.1,22.5,16,22.5z
	 M16,12.5c-2.5,0-4.5,2-4.5,4.5s2,4.6,4.5,4.6s4.5-2,4.5-4.5C20.5,14.5,18.5,12.5,16,12.5z M16.4,17.2c0.4,0.1,0.7,0.5,0.7,0.9
	c0,0.5-0.4,0.7-0.7,0.8V17.2z M15.5,16.2C15.2,16,15,15.8,15,15.5c0-0.5,0.1-0.9,0.6-1V16.2z M12.3,17.1c0-1.9,1.4-3.4,3.3-3.7v0.3
	c-0.9,0.1-1.4,0.8-1.4,1.9c0,0.8,0.7,1.4,1.4,1.6V19c-0.4-0.1-0.7-0.6-0.7-1h-0.9c0,0.9,0.7,1.8,1.6,1.9v0.9
	C13.7,20.5,12.3,18.9,12.3,17.1z M16.4,20.7v-0.9c1.1-0.2,1.6-0.9,1.6-1.7c0-1.1-0.9-1.7-1.6-1.8v-1.8c0.1,0,0.3,0.1,0.4,0.2
	c0.2,0.2,0.2,0.5,0.2,0.8l0.4,0l0.4,0c0-0.5-0.1-1-0.4-1.4c-0.3-0.3-0.6-0.5-1-0.5v-0.3c2,0.2,3.5,2.1,3.2,4.1
	C19.4,19.2,18.1,20.5,16.4,20.7L16.4,20.7z M26.7,11.2C23.3,8.5,19.7,7,16.3,7C12,7,8.1,9.3,5.6,11.2c-1.6,1.2-3.2,2.6-4.5,4.2
	L1.7,16c1.3-1.5,2.8-2.9,4.4-4.1c4.4-3.3,7.9-4,10.1-4c4,0,7.6,2.2,9.8,4c1.5,1.2,2.9,2.5,4.1,4l0.7-0.5
	C29.6,13.8,28.2,12.4,26.7,11.2z"/>
</svg>
