<svg id="Layer_1" data-name="Layer 1" xmlns="http://www.w3.org/2000/svg" viewBox="0 0 32 32"><defs><style>.cls-1{fill:#fff;}</style></defs><g id="networking--03"><path class="cls-1" d="M30.91,31.33h-6a.36.36,0,0,1-.36-.36V25a.36.36,0,0,1,.36-.36h6a.36.36,0,0,1,.36.36v6A.36.36,0,0,1,30.91,31.33Zm-5.64-.72h5.28V25.33H25.27Zm-3.36-2.28h-15a6.36,6.36,0,0,1,0-12.72h3v.72h-3a5.64,5.64,0,0,0,0,11.28h15Zm-3-9h-6a.36.36,0,0,1-.36-.36V13a.36.36,0,0,1,.36-.36h6a.36.36,0,0,1,.36.36v6A.36.36,0,0,1,18.91,19.33Zm-5.64-.72h5.28V13.33H13.27Zm11.64-2.28h-3v-.72h3a5.64,5.64,0,1,0,0-11.28h-15V3.61h15a6.36,6.36,0,0,1,0,12.72Zm-18-9h-6A.36.36,0,0,1,.55,7V1A.36.36,0,0,1,.91.61h6A.36.36,0,0,1,7.27,1V7A.36.36,0,0,1,6.91,7.33ZM1.27,6.61H6.55V1.33H1.27Z"/></g></svg>