<?xml version="1.0" encoding="utf-8"?>
<!-- Generator: Adobe Illustrator 24.1.0, SVG Export Plug-In . SVG Version: 6.00 Build 0)  -->
<svg version="1.1" id="Layer_1" xmlns="http://www.w3.org/2000/svg" xmlns:xlink="http://www.w3.org/1999/xlink" x="0px" y="0px"
	 width="32px" height="32px" viewBox="0 0 32 32" style="enable-background:new 0 0 32 32;" xml:space="preserve">
<style type="text/css">
	.st0{fill:#FFFFFF;}
</style>
<path class="st0" d="M1.3,16H0.6c0,0.3,0,0.7,0,1h0.8C1.3,16.6,1.3,16.3,1.3,16z M11,30.5c0.6,0.2,1.3,0.4,1.9,0.5l0.1-0.7
	c-0.6-0.1-1.2-0.3-1.9-0.5L11,30.5z M7.4,28.8c0.6,0.4,1.1,0.7,1.7,1l0.3-0.6c-0.6-0.3-1.1-0.6-1.7-1L7.4,28.8z M15,30.6v0.7
	c0.3,0,0.7,0,1,0s0.7,0,1,0v-0.7C16.3,30.7,15.7,30.7,15,30.6z M4.4,26.1c0.4,0.5,0.9,1,1.4,1.4L6.3,27c-0.5-0.4-0.9-0.9-1.3-1.3
	L4.4,26.1z M0.9,19c0.1,0.7,0.3,1.3,0.5,2l0.7-0.2c-0.2-0.6-0.4-1.2-0.5-1.9L0.9,19z M2.2,22.8c0.3,0.6,0.6,1.2,1,1.7l0.6-0.4
	c-0.4-0.5-0.7-1.1-1-1.7L2.2,22.8z M31,13c-0.1-0.7-0.3-1.3-0.5-1.9l-0.7,0.2c0.2,0.6,0.4,1.2,0.5,1.9L31,13z M28.2,7.9
	c0.4,0.5,0.7,1.1,1,1.7l0.6-0.3c-0.3-0.6-0.6-1.2-1-1.7L28.2,7.9z M28.1,24.1l0.6,0.4c0.4-0.6,0.7-1.1,1-1.7l-0.6-0.3
	C28.8,23.1,28.5,23.6,28.1,24.1z M29.8,20.7l0.7,0.2c0.2-0.6,0.4-1.3,0.5-2l-0.7-0.1C30.2,19.5,30,20.1,29.8,20.7z M25.6,27l0.5,0.5
	c0.5-0.4,1-0.9,1.4-1.4L27,25.7C26.6,26.1,26.1,26.6,25.6,27z M31.3,15l-0.7,0.1c0,0.3,0,0.6,0,0.9s0,0.7,0,1l0.7,0c0-0.3,0-0.7,0-1
	S31.3,15.4,31.3,15z M18.8,30.4l0.1,0.7c0.7-0.1,1.3-0.3,1.9-0.5l-0.2-0.7C20.1,30.1,19.4,30.2,18.8,30.4z M22.4,29.1l0.3,0.6
	c0.6-0.3,1.2-0.6,1.7-1l-0.4-0.6C23.6,28.5,23,28.9,22.4,29.1z M26.8,5.1c-6-6-15.7-6-21.7,0C4.8,5.4,4.6,5.7,4.3,6V1H3.6v6.4H10
	V6.6H4.7c5.2-6.2,14.4-7.1,20.6-1.9c0.3,0.3,0.7,0.6,1,0.9l0.2-0.3l-0.2,0.3c0.2,0.2,0.5,0.5,0.7,0.7l0.5-0.5
	C27.3,5.6,27.1,5.4,26.8,5.1L26.8,5.1z M16.7,15.7c0.3,0.2,0.6,0.3,1,0.3c0.2,0,0.4,0,0.5-0.1c0.5-0.1,1-0.5,1.2-1
	c0.5-1,0.2-2.2-0.8-2.7c-1-0.5-2.2-0.2-2.7,0.8C15.4,13.9,15.8,15.1,16.7,15.7L16.7,15.7z M16.6,13.3c0.2-0.4,0.7-0.7,1.1-0.7
	c0.2,0,0.5,0.1,0.7,0.2c0.6,0.4,0.8,1.2,0.5,1.8c-0.4,0.6-1.2,0.8-1.8,0.5C16.4,14.7,16.2,13.9,16.6,13.3
	C16.6,13.3,16.6,13.3,16.6,13.3z M21.8,6.8c-0.3-0.2-0.8-0.2-1.1,0l-3.2,1.9c-1.8,1.1-3.3,2.7-4.2,4.6l-1.4,3.1H9
	c-0.2,0-0.4,0.2-0.4,0.4l0,0v2.7h0.7v-2.4h2.8c0.1,0,0.3-0.1,0.3-0.2l1.5-3.3c0.8-1.8,2.2-3.3,3.9-4.3l3.2-1.9
	c0.1-0.1,0.3-0.1,0.4,0c0.1,0.1,0.2,0.2,0.2,0.3v3.7c0,2-0.6,3.9-1.8,5.5l-2.1,2.9c-0.1,0.1-0.1,0.3,0,0.4l1.4,2.4l-2.1,1.2l0.4,0.6
	l2.4-1.4c0.1,0,0.1-0.1,0.2-0.2c0-0.1,0-0.2,0-0.3l-1.5-2.5l2-2.8c1.2-1.7,1.9-3.8,1.9-5.9V7.8C22.4,7.4,22.2,7,21.8,6.8z M13.7,21
	c-0.9-0.6-2.2-0.3-2.7,0.7c0,0,0,0.1,0,0.1c-0.3,0.7-0.4,1.5-0.2,2.2c0,0.2,0.2,0.3,0.4,0.3c0,0,0,0,0,0c0.2,0,0.4-0.2,0.3-0.4
	c0,0,0,0,0,0c-0.1-0.6,0-1.3,0.2-1.9c0.2-0.3,0.5-0.5,0.8-0.6c0.7-0.2,1.4,0.2,1.6,0.9c0.1,0.3,0,0.7-0.2,1c-0.4,0.4-0.9,0.8-1.5,1
	c-0.2,0.1-0.2,0.3-0.1,0.5c0.1,0.1,0.2,0.2,0.3,0.2c0.1,0,0.1,0,0.2,0c0.7-0.3,1.3-0.8,1.8-1.4C15,22.8,14.6,21.5,13.7,21z"/>
</svg>
