<?xml version="1.0" encoding="utf-8"?>
<!-- Generator: Adobe Illustrator 24.1.0, SVG Export Plug-In . SVG Version: 6.00 Build 0)  -->
<svg version="1.1" id="Layer_1" xmlns="http://www.w3.org/2000/svg" xmlns:xlink="http://www.w3.org/1999/xlink" x="0px" y="0px"
	 width="32px" height="32.1px" viewBox="0 0 32 32.1" style="enable-background:new 0 0 32 32.1;" xml:space="preserve">
<style type="text/css">
	.st0{fill:#FFFFFF;}
</style>
<path class="st0" d="M24.5,3.1c0.3,0,0.5,0.2,0.5,0.5s-0.2,0.5-0.5,0.5S24,3.9,24,3.6S24.2,3.1,24.5,3.1z M28.5,3.1
	c0.3,0,0.5,0.2,0.5,0.5s-0.2,0.5-0.5,0.5S28,3.9,28,3.6S28.2,3.1,28.5,3.1z M26.5,3.1c0.3,0,0.5,0.2,0.5,0.5s-0.2,0.5-0.5,0.5
	S26,3.9,26,3.6S26.2,3.1,26.5,3.1z M31,1.8H1c-0.2,0-0.4,0.2-0.4,0.4v28c0,0.2,0.2,0.4,0.4,0.4c0,0,0,0,0,0h30
	c0.2,0,0.4-0.2,0.4-0.4c0,0,0,0,0,0v-28C31.4,1.9,31.2,1.8,31,1.8z M30.6,29.8H1.4V5.5h29.3V29.8z M30.6,4.8H1.4V2.5h29.3V4.8z
	 M11.2,10.3l-0.5-0.5L7,13.5l-1.8-1.7l-0.5,0.5L7,14.5L11.2,10.3z M8,24.4c1.9,0,3.4-1.5,3.4-3.4c0-1.9-1.5-3.4-3.4-3.4
	c-1.8,0-3.3,1.5-3.4,3.3C4.6,22.9,6.1,24.4,8,24.4C8,24.4,8,24.4,8,24.4z M8,18.4c1.5,0,2.6,1.2,2.6,2.6c0,1.5-1.2,2.6-2.6,2.6
	c-1.5,0-2.6-1.2-2.6-2.6c0,0,0,0,0,0C5.4,19.6,6.6,18.4,8,18.4z M7.2,22.6c0.1,0,0.1,0,0.2,0l2.1-1.2c0.1-0.1,0.2-0.2,0.2-0.4
	c0-0.1-0.1-0.2-0.2-0.3l-2.1-1.2c-0.1-0.1-0.2-0.1-0.4,0c-0.1,0.1-0.2,0.2-0.2,0.3v2.4c0,0.1,0.1,0.2,0.2,0.3
	C7.1,22.6,7.2,22.6,7.2,22.6z M7.6,20.5l1,0.6l-1,0.6L7.6,20.5z M14,12.4h12c0.2,0,0.4-0.2,0.4-0.4c0-0.2-0.2-0.4-0.4-0.4H14
	c-0.2,0-0.4,0.2-0.4,0.4C13.6,12.2,13.8,12.4,14,12.4z M14,21.4h12c0.2,0,0.4-0.2,0.4-0.4c0-0.2-0.2-0.4-0.4-0.4H14
	c-0.2,0-0.4,0.2-0.4,0.4C13.6,21.2,13.8,21.4,14,21.4z"/>
</svg>
