<?xml version="1.0" encoding="utf-8"?>
<!-- Generator: Adobe Illustrator 24.1.0, SVG Export Plug-In . SVG Version: 6.00 Build 0)  -->
<svg version="1.1" id="Layer_1" xmlns="http://www.w3.org/2000/svg" xmlns:xlink="http://www.w3.org/1999/xlink" x="0px" y="0px"
	 width="32px" height="32.1px" viewBox="0 0 32 32.1" style="enable-background:new 0 0 32 32.1;" xml:space="preserve">
<style type="text/css">
	.st0{fill:#FFFFFF;}
</style>
<path class="st0" d="M25.5,27.6l-1.2-1.2l-0.5,0.5l1.8,1.8l3.2-3.3l-0.5-0.5L25.5,27.6z M21.4,5.9c0-0.4-0.2-0.8-0.6-1
	c-0.4-0.2-0.8-0.2-1.2,0l-3.5,2c-2,1.1-3.5,2.9-4.5,4.9l-1.5,3.3H7c-0.2,0-0.4,0.2-0.4,0.4v3h0.7v-2.7h3c0.1,0,0.3-0.1,0.3-0.2
	l1.6-3.6c0.9-1.9,2.4-3.6,4.2-4.6l3.5-2c0.2-0.1,0.5,0,0.6,0.2c0,0.1,0.1,0.1,0.1,0.2v4c0,2.1-0.7,4.2-1.9,5.9L16.5,19
	c-0.1,0.1-0.1,0.3,0,0.4L18,22l-2.3,1.3l0.4,0.6l2.6-1.5c0.1,0,0.1-0.1,0.2-0.2c0-0.1,0-0.2,0-0.3l-1.6-2.7l2.1-3
	c1.3-1.9,2-4.1,2-6.3L21.4,5.9z M15.3,14.4c0.3,0.2,0.7,0.3,1.1,0.3c0.8,0,1.5-0.4,1.9-1.1l0,0c0.6-1,0.2-2.4-0.8-3
	c-1-0.6-2.4-0.2-3,0.8l0,0C13.9,12.4,14.3,13.8,15.3,14.4z M15.1,11.8c0.2-0.3,0.5-0.6,0.9-0.7c0.1,0,0.3,0,0.4,0
	c0.3,0,0.5,0.1,0.7,0.2c0.7,0.4,0.9,1.3,0.5,2c0,0,0,0,0,0c-0.2,0.3-0.5,0.6-0.9,0.7c-0.4,0.1-0.8,0-1.1-0.1
	c-0.3-0.2-0.6-0.5-0.7-0.9C14.9,12.5,14.9,12.1,15.1,11.8z M10.5,23.9c-0.2,0.1-0.2,0.3-0.2,0.5c0.1,0.1,0.2,0.2,0.3,0.2
	c0.1,0,0.1,0,0.2,0c0.8-0.3,1.5-0.8,2-1.5c0.6-1,0.2-2.4-0.8-2.9c0,0,0,0-0.1,0c-1-0.6-2.4-0.3-3,0.8c0,0,0,0,0,0.1
	c-0.3,0.8-0.4,1.6-0.3,2.4c0,0.2,0.2,0.3,0.4,0.3c0,0,0,0,0,0c0.2,0,0.3-0.2,0.3-0.4c-0.1-0.7,0-1.4,0.2-2c0.4-0.7,1.3-0.9,2-0.5
	c0.3,0.2,0.6,0.5,0.7,0.9c0.1,0.4,0,0.8-0.2,1.1C11.7,23.2,11.1,23.6,10.5,23.9z M1.4,1.5h26.3v17.6h0.7v-18c0-0.2-0.2-0.4-0.4-0.4
	H1c-0.2,0-0.4,0.2-0.4,0.4l0,0v27c0,0.2,0.2,0.4,0.4,0.4c0,0,0,0,0,0h18v-0.7H1.4V1.5z M26,20.7c-3,0-5.4,2.4-5.4,5.4
	s2.4,5.4,5.4,5.4s5.4-2.4,5.4-5.4S29,20.7,26,20.7C26,20.7,26,20.7,26,20.7z M26,30.7c-2.6,0-4.6-2.1-4.6-4.6c0-2.6,2.1-4.6,4.6-4.6
	c2.6,0,4.6,2.1,4.6,4.6l0,0C30.6,28.7,28.6,30.7,26,30.7z"/>
</svg>
