<svg id="Layer_1" data-name="Layer 1" xmlns="http://www.w3.org/2000/svg" viewBox="0 0 116.54 116.54"><defs><style>.cls-1,.cls-2{fill:none;stroke:#4178be;}.cls-1{stroke-miterlimit:10;stroke-width:1.23px;}.cls-2{stroke-linecap:round;stroke-linejoin:round;stroke-width:3px;}.cls-3{fill:#a3c4f4;}</style></defs><title>lp-ansible</title><path id="gear" class="cls-1" d="M61.45,75.13l-1.86,4.54,4.35,4.42-6.63,6.75L53,86.42l-4.47,1.87v5.92H39v-5.9l-4.45-1.9-4.35,4.43-6.64-6.75,4.34-4.41L26,75.13H19.87V65.59H25.8l1.89-4.45-4.42-4.35L30,50.16l4.41,4.34L39,52.66V46.5H48.5v5.9L53,54.3l4.35-4.43,6.63,6.74L59.6,61.05l1.85,4.55H67.6v9.54Zm-17.86-16A11.08,11.08,0,1,0,54.66,70.21,11.08,11.08,0,0,0,43.59,59.13Z" transform="translate(-1.63 -1.79)"/><path id="gear-2" class="cls-1" d="M65.76,32l.11,2.28,2.75,1-1.48,4.19-2.74-1-1.54,1.69,1.26,2.63-4,1.92-1.25-2.62-2.29.11-1,2.74-4.18-1.47,1-2.74L50.7,39.16l-2.63,1.25-1.92-4,2.63-1.25-.12-2.28-2.75-1,1.48-4.18,2.75,1L51.67,27l-1.25-2.63,4-1.91,1.25,2.61L58,25l1-2.74,4.18,1.48-1,2.74L63.83,28l2.63-1.26,1.91,4ZM55,28.72a5.23,5.23,0,1,0,7,2.47h0a5.24,5.24,0,0,0-7-2.46Z" transform="translate(-1.63 -1.79)"/><path id="gear-3" class="cls-1" d="M98.28,49.85l.19,3.81,4.58,1.62-2.46,7L96,60.65l-2.56,2.83,2.1,4.39-6.69,3.19-2.09-4.37L83,66.88l-1.62,4.59-7-2.46L76,64.44l-2.83-2.56L68.76,64l-3.19-6.68L70,55.19l-.2-3.81-4.58-1.62,2.46-7,4.57,1.61,2.57-2.82-2.1-4.39L79.34,34l2.1,4.37,3.81-.19,1.62-4.58,7,2.46-1.62,4.57,2.83,2.57,4.39-2.1,3.19,6.68ZM80.43,44.76a8.77,8.77,0,1,0,11.69,4.13,8.76,8.76,0,0,0-11.69-4.13h0Z" transform="translate(-1.63 -1.79)"/><circle class="cls-2" cx="58.27" cy="58.27" r="56.77"/><path class="cls-3" d="M37.25,73.23a6.66,6.66,0,0,1,2.69-9,6.57,6.57,0,0,1,2.63-.78l-.26-1.88a8.56,8.56,0,0,0-7.72,9.32,8.74,8.74,0,0,0,.9,3.09Z" transform="translate(-1.63 -1.79)"/><path class="cls-3" d="M90,53.06A6.32,6.32,0,0,1,86.3,58l.38.84A7.25,7.25,0,0,0,90.94,53Z" transform="translate(-1.63 -1.79)"/><path class="cls-3" d="M55.33,30.84a3.63,3.63,0,0,1,3.82.08l.36-.59A4.32,4.32,0,0,0,55,30.22Z" transform="translate(-1.63 -1.79)"/></svg>