<?xml version="1.0" encoding="utf-8"?>
<!-- Generator: Adobe Illustrator 24.1.0, SVG Export Plug-In . SVG Version: 6.00 Build 0)  -->
<svg version="1.1" id="Layer_1" xmlns="http://www.w3.org/2000/svg" xmlns:xlink="http://www.w3.org/1999/xlink" x="0px" y="0px"
	 viewBox="0 0 382.8 400" style="enable-background:new 0 0 382.8 400;" xml:space="preserve">
<style type="text/css">
	.st0{fill:#4178BE;stroke:#4178BE;stroke-width:4;stroke-miterlimit:10;}
	.st1{fill:none;stroke:#4178BE;stroke-width:4;stroke-miterlimit:10;}
</style>
<g>
	<path class="st0" d="M193.9,387.9c-102.6,0-186-83.4-186-186s83.4-186,186-186s186,83.4,186,186S296.4,387.9,193.9,387.9z
		 M193.9,18.9c-100.9,0-183,82.1-183,183s82.1,183,183,183s183-82.1,183-183C376.9,100.9,294.8,18.9,193.9,18.9z"/>
</g>
<path class="st1" d="M140.3,308.9L247.4,94.7 M226,137.6L108.2,266.1v42.8h171.4v-42.8H161.7 M161.7,266.1l117.8-128.5V94.7H108.2
	v42.8H226 M161.7,266.1l117.8,42.8 M226,137.6L108.2,94.7 M140.3,308.9l-32.1-42.8 M247.4,94.7l32.1,42.8"/>
</svg>
