<?xml version="1.0" encoding="utf-8"?>
<!-- Generator: Adobe Illustrator 25.0.0, SVG Export Plug-In . SVG Version: 6.00 Build 0)  -->
<svg version="1.1" id="Layer_1" xmlns="http://www.w3.org/2000/svg" xmlns:xlink="http://www.w3.org/1999/xlink" x="0px" y="0px"
	 viewBox="0 0 110.6 118" style="enable-background:new 0 0 110.6 118;" xml:space="preserve">
<style type="text/css">
	.st0{fill:#4178BE;}
</style>
<path id="systems-devops--code" class="st0" d="M50.6,112.2L6.1,86.3c-0.4-0.3-0.7-0.7-0.7-1.1V33.1h2.8v51.2l43.9,25.6L50.6,112.2z
	 M22.9,59.1h-2.8V21.9h2.8V59.1z M97.2,55.4h-2.7V33.8L51.3,8.6l-13.5,7.9V48h-2.8V15.7c0-0.5,0.3-0.9,0.7-1.1l14.9-8.6
	c0.4-0.3,1-0.3,1.3,0l44.6,26c0.4,0.3,0.7,0.7,0.7,1.1V55.4z M105.2,81.4L89.4,65.6l-1.9,1.9l13.9,13.9l-13.9,14l1.9,1.9L105.2,81.4
	z M70.8,95.3L56.9,81.4l13.9-13.9l-1.9-1.9L53.1,81.4l15.8,15.8L70.8,95.3z"/>
</svg>
