<?xml version="1.0" encoding="utf-8"?>
<!-- Generator: Adobe Illustrator 22.0.0, SVG Export Plug-In . SVG Version: 6.00 Build 0)  -->
<svg version="1.1" id="Layer_1" xmlns="http://www.w3.org/2000/svg" xmlns:xlink="http://www.w3.org/1999/xlink" x="0px" y="0px"
	 viewBox="0 0 150 150" style="enable-background:new 0 0 150 150;" xml:space="preserve">
<style type="text/css">
	.st0{fill:none;stroke:#4178BE;stroke-width:3;stroke-miterlimit:10;}
	.st1{fill:none;stroke:#4178BE;stroke-width:2.074;stroke-miterlimit:10;}
	.st2{fill:#3E76C0;}
</style>
<title>LPCompression</title>
<circle id="_Path_" class="st0" cx="75" cy="75" r="72.1"/>
<g id="_Group_">
	<path id="_Path_2" class="st1" d="M118.9,97.7V77.8h-5.4v19.8c-2.5,1.1-4.1,3.6-4.1,6.3c0,3.8,3.1,6.9,6.9,6.9
		c3.8,0,6.9-3.1,6.9-6.9l0,0C123,101.2,121.4,98.7,118.9,97.7z"/>
	<path id="_Path_3" class="st1" d="M122.1,54.5h-11.9c-0.5,0-1,0.4-1,1l0,0v6.1H91.9V51h-3.3c-1.8,0-3.2,1.4-3.3,3.2
		c0,0,0,0.1,0,0.1v20.3c0,1.8,1.4,3.2,3.2,3.3c0,0,0.1,0,0.1,0h3.3V67.1h6v30.2c0,2.7-2.3,5-5,5H37.4c-2.7,0-5-2.3-5-5V66.9h6v15.4
		h3.3c1.8,0,3.2-1.4,3.3-3.2c0,0,0-0.1,0-0.1V49.3c0-1.8-1.4-3.2-3.2-3.3c0,0-0.1,0-0.1,0h-3.3v15.4H27v35.7
		c0,5.8,4.7,10.4,10.4,10.4h55.4c5.8,0,10.4-4.7,10.4-10.4V66.9h6V73c0,0.5,0.4,1,1,1l0,0h11.9c0.5,0,1-0.4,1-1l0,0V55.4
		C123,54.9,122.6,54.6,122.1,54.5z"/>
	<circle id="_Path_4" class="st1" cx="116.1" cy="45.3" r="6.8"/>
</g>
<path id="_Compound_Path_" class="st2" d="M81,51.8l-8.1-8.1c-1-1-2.3-1.5-3.6-1.5H55.7c-3.9,0-7.1,3.2-7.1,7.1l0,0l0,0v27.5
	c0,3.9,3.2,7.1,7.1,7.1l0,0h19.7c3.9,0,7.1-3.2,7.1-7.1l0,0l0,0V55.4C82.5,54.1,82,52.8,81,51.8z M80.1,76.9c0,2.6-2.1,4.7-4.7,4.7
	H55.7c-2.6,0-4.7-2.1-4.7-4.7V49.4c0-2.6,2.1-4.7,4.7-4.7h13.6c0.7,0,1.4,0.3,1.9,0.8l8.1,8.1c0.5,0.5,0.8,1.2,0.8,1.9L80.1,76.9z
	 M57.7,57.7l-0.9-1.2l3-2.4h1.6v9.2h-1.9v-7.2c-0.3,0.3-0.5,0.5-0.7,0.6L57.7,57.7z M70.4,54c-1-0.1-1.9,0.4-2.4,1.2
	c-0.6,1.1-0.9,2.3-0.8,3.6c-0.1,1.2,0.2,2.5,0.8,3.5c0.5,0.8,1.4,1.3,2.4,1.2c1,0.1,1.9-0.4,2.4-1.2c0.6-1.1,0.9-2.3,0.8-3.6
	c0.1-1.2-0.2-2.5-0.8-3.5C72.3,54.4,71.3,53.9,70.4,54z M71.4,61.2c-0.1,0.4-0.5,0.7-1,0.7c-0.5,0-0.9-0.3-1-0.7
	c-0.4-1.6-0.4-3.3,0-4.9c0.2-0.5,0.8-0.8,1.3-0.7c0.3,0.1,0.6,0.3,0.7,0.7C71.8,57.9,71.8,59.6,71.4,61.2z M71.4,66.5H73v9.2H71
	v-7.2c-0.3,0.3-0.5,0.5-0.7,0.6l-1,0.9l-0.9-1.2L71.4,66.5z M60.5,66.5c-1-0.1-1.9,0.4-2.4,1.2c-0.6,1.1-0.9,2.3-0.8,3.6
	c-0.1,1.2,0.2,2.5,0.8,3.5c0.5,0.8,1.4,1.3,2.4,1.2c1,0.1,1.9-0.4,2.4-1.2c0.6-1.1,0.9-2.3,0.8-3.6c0.1-1.2-0.2-2.5-0.8-3.5
	C62.4,66.9,61.5,66.5,60.5,66.5L60.5,66.5z M61.5,73.7c-0.1,0.4-0.5,0.7-1,0.7c-0.5,0-0.9-0.3-1-0.7c-0.4-1.6-0.4-3.3,0-4.9
	c0.2-0.5,0.8-0.8,1.3-0.7c0.3,0.1,0.6,0.3,0.7,0.7C61.9,70.4,61.9,72.1,61.5,73.7L61.5,73.7z"/>
</svg>
