<?xml version="1.0" encoding="UTF-8"?>
<svg width="165px" height="117px" viewBox="0 0 165 117" version="1.1" xmlns="http://www.w3.org/2000/svg" xmlns:xlink="http://www.w3.org/1999/xlink">
    <!-- Generator: Sketch 55.2 (78181) - https://sketchapp.com -->
    <title>Group 23</title>
    <desc>Created with Sketch.</desc>
    <g id="Content-Solution-Landing-Page" stroke="none" stroke-width="1" fill="none" fill-rule="evenodd">
        <g id="Landing-Page-Final-Mockup---1920W---" transform="translate(-260.000000, -1112.000000)">
            <g id="Group-23" transform="translate(262.000000, 1114.000000)">
                <polygon id="Path" stroke="#4178BE" stroke-width="3" points="128.665869 113 130.41 112.731277 132.02 112.731277 133.63 112.462543 135.24 112.328176 138.325869 111.521996 141.2775 110.312724 144.095 108.969087 146.778369 107.356716 149.193369 105.609987 151.474131 103.460169 153.620869 101.175988 155.499131 98.6230618 157.109131 96.0701574 158.450869 93.114152 159.524131 90.2924994 160.329131 87.067778 160.5975 85.58977 160.731631 83.9774092 161 82.2306744 161 80.6183137 160.731631 77.527945 160.463369 74.706303 159.7925 72.0190245 158.853369 69.1973826 157.78 66.510104 156.304131 64.0915629 154.828369 61.6730005 153.084131 59.5231862 151.205869 57.5077353 149.059131 55.6266371 146.778369 54.0142657 144.363369 52.5362684 141.814131 51.1926238 139.130869 50.1177166 136.4475 49.3115363 133.495869 48.7740827 133.093369 46.8929845 132.4225 45.1462497 131.6175 43.533889 130.678369 41.9215176 129.470869 40.4435203 128.263369 38.9655229 126.921631 37.7562417 125.445869 36.5469712 124.104131 35.4720533 122.494131 34.665873 120.615869 33.8596926 118.871631 33.1878756 117.1275 32.7847855 115.249131 32.3816846 113.236631 32.2473212 111.358369 32.2473212 110.285 28.8882257 108.943369 25.5291302 107.333369 22.3043981 105.589174 19.3483927 103.4425 16.5267508 101.295826 13.7051089 98.8808262 11.4209312 96.0633262 9.13674279 93.38 6.98691782 90.2941738 5.24021502 87.0741631 3.62783297 83.9883369 2.41851978 80.5 1.34363394 77.0116631 0.537496218 73.5233369 0.134320753 69.7666631 0 67.7541631 0.134320753 65.6075 0.268748109 63.595 0.403068862 61.5825 0.806137724 59.7041631 1.20931319 57.8258369 1.7467028 55.8133369 2.41851978 53.935 2.95601599 52.1908369 3.76215372 50.4466631 4.56839805 48.5683369 5.50896313 46.9583369 6.58382764 45.3483369 7.65873479 43.7383369 8.73365261 42.3966631 10.0772865 40.9208369 11.4209312 39.445 12.6302017 37.9691631 14.108199 36.8958369 15.586207 35.5541631 16.929841 34.4808369 18.5422124 33.4075 20.1545731 32.4683369 21.9013079 31.395 23.7824061 30.59 25.5291302 29.785 27.275865 29.2483369 29.1569525 28.5775 31.1724141 28.0408369 33.0535122 27.6383369 35.2033266 27.2358369 37.0844247 27.1016631 39.0998863 24.0158369 40.1747935 21.3325 41.2497006 18.6491631 42.7277086 16.1 44.3400693 13.8191631 46.0868041 11.5383369 48.1022657 9.52583369 50.25208 7.51333369 52.5362684 5.76916738 55.0891835 4.29333369 57.642088 3.08583369 60.1950032 1.87833369 63.1510085 1.07333369 65.9726504 0.536666738 69.0630192 0.134166631 72.1533879 0 75.37812 0 77.2592182 0.134166631 79.1403057 0.536666738 81.0214039 0.805 82.9025021 1.07333369 84.6492262 1.61 86.395961 2.28083369 88.1426851 2.8175 89.8894092 3.6225 91.5017806 4.4275 93.114152 5.50083369 94.7265234 6.44 96.2045208 7.37916738 97.8168815 8.4525 99.1605261 9.79416738 100.50416 11.0016631 101.847794 12.3433369 103.191435 13.685 104.266349 15.0266631 105.341264 16.5025 106.550535 18.1125 107.491082 19.7225 108.297262 21.3325 109.237811 22.9425 109.909634 24.6866631 110.715815 26.2966631 111.118905 28.175 111.656362 30.0533369 112.193819 31.7975 112.462543 33.6758369 112.731277 35.5541631 112.731277 37.5666631 113"></polygon>
                <g id="Group-22" transform="translate(43.000000, 28.000000)">
                    <rect id="Rectangle" fill="#FFFFFF" x="1" y="0" width="48" height="39"></rect>
                    <g id="Group-19">
                        <path d="M48.5050545,7 L0.494949505,7 L0.329966354,6.89147308 L0.164983152,6.83720692 L0.109988785,6.67441923 L0,6.51162615 L0,1.73643615 L0,1.41085538 L0.164983152,1.08526923 L0.329966354,0.759688462 L0.494949505,0.542634615 L0.76992134,0.379846923 L1.09988785,0.162793077 L1.31986552,0.108526923 L1.75982035,0 L47.35017,0 L47.680137,0.108526923 L48.010099,0.162793077 L48.2850748,0.379846923 L48.5050545,0.542634615 L48.7800254,0.759688462 L48.9450038,1.08526923 L49,1.41085538 L49,1.73643615 L49,6.51162615 L49,6.67441923 L48.9450038,6.83720692 L48.7800254,6.89147308 L48.5050545,7 Z M0.98989901,6.02325769 L48.010099,6.02325769 L48.010099,1.73643615 L48.010099,1.51938231 L47.8451205,1.24806231 L47.6251408,1.08526923 L47.35017,1.03100846 L1.75982035,1.03100846 L1.42985435,1.08526923 L1.26487085,1.24806231 L1.09988785,1.51938231 L0.98989901,1.73643615 L0.98989901,6.02325769 Z" id="Fill-1" fill="#4178BE"></path>
                        <path d="M48.5050545,39 L0.494949505,39 L0.329966354,39 L0.164983152,38.8300005 L0.109988785,38.6600005 L0,38.4900005 L0,5.51 L0.109988785,5.22666492 L0.164983152,5.17 L0.329966354,5 L0.494949505,5 L48.5050545,5 L48.7800254,5 L48.9450038,5.17 L49,5.22666492 L49,5.51 L49,38.4900005 L49,38.6600005 L48.9450038,38.8300005 L48.7800254,39 L48.5050545,39 Z M0.98989901,37.9800005 L48.010099,37.9800005 L48.010099,6.02 L0.98989901,6.02 L0.98989901,37.9800005 Z" id="Fill-2" fill="#4178BE"></path>
                        <rect id="Rectangle" fill="#4178BE" x="2" y="2" width="2" height="2"></rect>
                        <rect id="Rectangle" fill="#4178BE" x="5" y="2" width="2" height="2"></rect>
                        <path d="M8.50227273,15.5 L20.9113636,15.5" id="Line" stroke="#2762DD" stroke-width="2" stroke-linecap="square"></path>
                        <path d="M8.50227273,20.5 L20.9113636,20.5" id="Line" stroke="#2762DD" stroke-width="2" stroke-linecap="square"></path>
                        <path d="M7.67613636,28.5 L41.469697,28.5" id="Line" stroke="#2762DD" stroke-width="2" stroke-linecap="square"></path>
                        <rect id="Rectangle" stroke="#2762DD" fill="#C9D9F8" x="28.5" y="14.5" width="12" height="7"></rect>
                    </g>
                </g>
                <g id="Group-22" transform="translate(57.000000, 44.000000)">
                    <rect id="Rectangle" fill="#FFFFFF" x="1" y="0" width="48" height="39"></rect>
                    <g id="Group-19">
                        <path d="M48.5050545,7 L0.494949505,7 L0.329966354,6.89147308 L0.164983152,6.83720692 L0.109988785,6.67441923 L0,6.51162615 L0,1.73643615 L0,1.41085538 L0.164983152,1.08526923 L0.329966354,0.759688462 L0.494949505,0.542634615 L0.76992134,0.379846923 L1.09988785,0.162793077 L1.31986552,0.108526923 L1.75982035,0 L47.35017,0 L47.680137,0.108526923 L48.010099,0.162793077 L48.2850748,0.379846923 L48.5050545,0.542634615 L48.7800254,0.759688462 L48.9450038,1.08526923 L49,1.41085538 L49,1.73643615 L49,6.51162615 L49,6.67441923 L48.9450038,6.83720692 L48.7800254,6.89147308 L48.5050545,7 Z M0.98989901,6.02325769 L48.010099,6.02325769 L48.010099,1.73643615 L48.010099,1.51938231 L47.8451205,1.24806231 L47.6251408,1.08526923 L47.35017,1.03100846 L1.75982035,1.03100846 L1.42985435,1.08526923 L1.26487085,1.24806231 L1.09988785,1.51938231 L0.98989901,1.73643615 L0.98989901,6.02325769 Z" id="Fill-1" fill="#4178BE"></path>
                        <path d="M48.5050545,39 L0.494949505,39 L0.329966354,39 L0.164983152,38.8300005 L0.109988785,38.6600005 L0,38.4900005 L0,5.51 L0.109988785,5.22666492 L0.164983152,5.17 L0.329966354,5 L0.494949505,5 L48.5050545,5 L48.7800254,5 L48.9450038,5.17 L49,5.22666492 L49,5.51 L49,38.4900005 L49,38.6600005 L48.9450038,38.8300005 L48.7800254,39 L48.5050545,39 Z M0.98989901,37.9800005 L48.010099,37.9800005 L48.010099,6.02 L0.98989901,6.02 L0.98989901,37.9800005 Z" id="Fill-2" fill="#3E76C0"></path>
                        <rect id="Rectangle" fill="#4178BE" x="2" y="2" width="2" height="2"></rect>
                        <rect id="Rectangle" fill="#4178BE" x="5" y="2" width="2" height="2"></rect>
                        <path d="M8.50227273,15.5 L20.9113636,15.5" id="Line" stroke="#2762DD" stroke-width="2" stroke-linecap="square"></path>
                        <path d="M8.50227273,20.5 L20.9113636,20.5" id="Line" stroke="#2762DD" stroke-width="2" stroke-linecap="square"></path>
                        <path d="M7.67613636,28.5 L41.469697,28.5" id="Line" stroke="#2762DD" stroke-width="2" stroke-linecap="square"></path>
                        <rect id="Rectangle" stroke="#2762DD" fill="#C9D9F8" x="28.5" y="14.5" width="12" height="7"></rect>
                    </g>
                </g>
                <g id="Group-22" transform="translate(71.000000, 60.000000)">
                    <rect id="Rectangle" fill="#FFFFFF" x="1" y="0" width="48" height="39"></rect>
                    <g id="Group-19">
                        <path d="M48.5050545,7 L0.494949505,7 L0.329966354,6.89147308 L0.164983152,6.83720692 L0.109988785,6.67441923 L0,6.51162615 L0,1.73643615 L0,1.41085538 L0.164983152,1.08526923 L0.329966354,0.759688462 L0.494949505,0.542634615 L0.76992134,0.379846923 L1.09988785,0.162793077 L1.31986552,0.108526923 L1.75982035,0 L47.35017,0 L47.680137,0.108526923 L48.010099,0.162793077 L48.2850748,0.379846923 L48.5050545,0.542634615 L48.7800254,0.759688462 L48.9450038,1.08526923 L49,1.41085538 L49,1.73643615 L49,6.51162615 L49,6.67441923 L48.9450038,6.83720692 L48.7800254,6.89147308 L48.5050545,7 Z M0.98989901,6.02325769 L48.010099,6.02325769 L48.010099,1.73643615 L48.010099,1.51938231 L47.8451205,1.24806231 L47.6251408,1.08526923 L47.35017,1.03100846 L1.75982035,1.03100846 L1.42985435,1.08526923 L1.26487085,1.24806231 L1.09988785,1.51938231 L0.98989901,1.73643615 L0.98989901,6.02325769 Z" id="Fill-1" fill="#4178BE"></path>
                        <path d="M48.5050545,39 L0.494949505,39 L0.329966354,39 L0.164983152,38.8300005 L0.109988785,38.6600005 L0,38.4900005 L0,5.51 L0.109988785,5.22666492 L0.164983152,5.17 L0.329966354,5 L0.494949505,5 L48.5050545,5 L48.7800254,5 L48.9450038,5.17 L49,5.22666492 L49,5.51 L49,38.4900005 L49,38.6600005 L48.9450038,38.8300005 L48.7800254,39 L48.5050545,39 Z M0.98989901,37.9800005 L48.010099,37.9800005 L48.010099,6.02 L0.98989901,6.02 L0.98989901,37.9800005 Z" id="Fill-2" fill="#4178BE"></path>
                        <rect id="Rectangle" fill="#4178BE" x="2" y="2" width="2" height="2"></rect>
                        <rect id="Rectangle" fill="#4178BE" x="5" y="2" width="2" height="2"></rect>
                        <path d="M8.50227273,15.5 L20.9113636,15.5" id="Line" stroke="#2762DD" stroke-width="2" stroke-linecap="square"></path>
                        <path d="M8.50227273,20.5 L20.9113636,20.5" id="Line" stroke="#2762DD" stroke-width="2" stroke-linecap="square"></path>
                        <path d="M7.67613636,28.5 L41.469697,28.5" id="Line" stroke="#2762DD" stroke-width="2" stroke-linecap="square"></path>
                        <rect id="Rectangle" stroke="#2762DD" fill="#C9D9F8" x="28.5" y="14.5" width="12" height="7"></rect>
                    </g>
                </g>
            </g>
        </g>
    </g>
</svg>