<svg id="Layer_1" data-name="Layer 1" xmlns="http://www.w3.org/2000/svg" viewBox="0 0 110.58 118"><defs><style>.cls-1{fill:#4178be;}</style></defs><path id="systems-devops--code" class="cls-1" d="M55.36,120,6,91.19a1.47,1.47,0,0,1-.73-1.28V32.29h3V89.06l48.65,28.38ZM24.66,61.1h-3V19.94h3ZM107,57h-3V33.14L56.1,5.2l-15,8.71,0,34.84h-3l0-35.7a1.47,1.47,0,0,1,.74-1.28L55.36,2.2a1.47,1.47,0,0,1,1.49,0L106.24,31a1.46,1.46,0,0,1,.73,1.28Zm8.85,28.81L98.31,68.28l-2.1,2.1,15.42,15.41L96.21,101.21l2.1,2.1ZM77.73,101.21,62.32,85.79,77.73,70.38l-2.1-2.1L58.13,85.79l17.5,17.52Z" transform="translate(-5.24 -2)"/></svg>