<svg id="Layer_1" data-name="Layer 1" xmlns="http://www.w3.org/2000/svg" viewBox="0 0 150 150"><defs><style>.cls-1,.cls-2,.cls-3{fill:none;stroke:#4178be;}.cls-1,.cls-3{stroke-miterlimit:10;}.cls-1{stroke-width:3px;}.cls-2{stroke-linejoin:round;}.cls-2,.cls-3{stroke-width:2.07px;}</style></defs><title>LP_DPP</title><circle id="_Path_" data-name=" Path " class="cls-1" cx="75" cy="75" r="72.1"/><rect class="cls-2" x="68.03" y="57.12" width="54.48" height="54.48"/><path class="cls-3" d="M94.19,111.81c-.64.71-1.28,1.39-1.91,2s-1.21,1.26-1.81,1.86a95.44,95.44,0,0,1-15.63,12.9S30.58,101.38,30.58,50.31L74.84,26.48l44.27,23.83c0,2.32-.1,4.59-.27,6.81"/><path class="cls-2" d="M112.61,103.06A17.3,17.3,0,0,0,99.8,86.31a9.55,9.55,0,1,0-9,0,17.35,17.35,0,0,0-12.86,16.75"/></svg>