<?xml version="1.0" encoding="utf-8"?>
<!-- Generator: Adobe Illustrator 24.1.0, SVG Export Plug-In . SVG Version: 6.00 Build 0)  -->
<svg version="1.1" id="Layer_1" xmlns="http://www.w3.org/2000/svg" xmlns:xlink="http://www.w3.org/1999/xlink" x="0px" y="0px"
	 viewBox="0 0 121.3 120.9" style="enable-background:new 0 0 121.3 120.9;" xml:space="preserve">
<style type="text/css">
	.st0{fill:#4178BE;}
</style>
<g id="systems-devops--test_1_">
	<path class="st0" d="M84.3,114.8c-14.9,0-27-12.1-27-27c0-14.9,12.1-27,27-27s27,12.1,27,27C111.2,102.7,99.1,114.8,84.3,114.8z
		 M84.3,63.9c-13.2,0-24,10.8-24,24c0,13.2,10.8,24,24,24s24-10.8,24-24C108.2,74.6,97.5,63.9,84.3,63.9z M56.2,114.6l-46-26.8V34.1
		h3v52l44.5,26L56.2,114.6z M83.3,100.3L72.6,89.6l2.1-2.1l8.6,8.6l15-15l2.1,2.1L83.3,100.3z M28.2,60.5h-3V22.8h3V60.5z
		 M103.7,56.7h-3V34.9L56.9,9.4l-13.6,7.9v31.9h-3V15.6l16.6-9.6l46.8,27.3V56.7z"/>
</g>
</svg>
