<?xml version="1.0" encoding="utf-8"?>
<!-- Generator: Adobe Illustrator 24.1.0, SVG Export Plug-In . SVG Version: 6.00 Build 0)  -->
<svg version="1.1" id="Layer_1" xmlns="http://www.w3.org/2000/svg" xmlns:xlink="http://www.w3.org/1999/xlink" x="0px" y="0px"
	 viewBox="0 0 120 120" style="enable-background:new 0 0 120 120;" xml:space="preserve">
<style type="text/css">
	.st0{fill:none;}
	.st1{fill:#4178BE;}
</style>
<desc>Created with Sketch.</desc>
<g>
	<path class="st0" d="M102.1,30.3c0-0.7,0.1-1.3,0.3-1.9l-6-3.5l-16.2,9.5l15,8.8c0,0,0,0,0.1,0c0,0,0.1,0.1,0.1,0.1
		c0,0,0.1,0.1,0.1,0.1c0,0,0.1,0.1,0.1,0.1c0,0,0.1,0.1,0.1,0.1c0,0,0,0,0,0.1c0,0,0,0,0,0.1c0,0,0,0.1,0.1,0.1c0,0,0,0.1,0,0.1
		c0,0,0,0.1,0,0.1c0,0,0,0.1,0,0.1c0,0,0,0.1,0,0.1c0,0,0,0.1,0,0.1c0,0,0,0.1,0,0.1c0,0,0,0.1,0,0.1c0,0,0,0.1,0,0.1
		c0,0,0,0.1-0.1,0.1c0,0,0,0,0,0.1c0,0,0,0,0,0c-0.1,0.1-0.1,0.2-0.2,0.2c0,0,0,0-0.1,0.1c-0.1,0.1-0.2,0.1-0.3,0.2l0,0c0,0,0,0,0,0
		l-14.9,8.7l15,8.8c0,0,0,0,0.1,0c0,0,0.1,0.1,0.1,0.1c0,0,0.1,0.1,0.1,0.1c0,0,0.1,0.1,0.1,0.1c0,0,0.1,0.1,0.1,0.1c0,0,0,0,0,0.1
		c0,0,0,0,0,0c0,0,0,0.1,0.1,0.2c0,0,0,0.1,0,0.1c0,0,0,0.1,0,0.1c0,0,0,0.1,0,0.1c0,0,0,0.1,0,0.1c0,0,0,0.1,0,0.1
		c0,0.1,0,0.1,0,0.2c0,0,0,0.1,0,0.1c0,0,0,0.1-0.1,0.1c0,0,0,0.1-0.1,0.1c0,0,0,0,0,0.1c0,0,0,0,0,0c0,0.1-0.1,0.1-0.2,0.2
		c0,0,0,0-0.1,0.1c-0.1,0.1-0.2,0.1-0.3,0.2l0,0c0,0,0,0,0,0L62,85.1c-0.2,0.1-0.5,0.2-0.8,0.2c-0.3,0-0.5-0.1-0.7-0.2L26.9,65.9
		c-0.4-0.2-0.7-0.6-0.7-1.1c0,0,0,0,0-0.1c0-0.1,0-0.1,0-0.2c0,0,0-0.1,0-0.1c0,0,0-0.1,0-0.1c0-0.1,0-0.2,0.1-0.2c0,0,0,0,0,0
		c0.1-0.3,0.3-0.6,0.7-0.8l10.9-6.4c0.7-0.4,1.6-0.2,2.1,0.5c0.4,0.7,0.2,1.6-0.5,2.1l-8.6,5.1l30.7,17.5l30.1-17.5l-14.2-8.3L62,65
		c-0.2,0.1-0.5,0.2-0.8,0.2c-0.3,0-0.5-0.1-0.7-0.2L27.2,46c-0.4-0.1-0.7-0.3-0.9-0.7c-0.1-0.2-0.2-0.4-0.2-0.7c0,0,0-0.1,0-0.1
		c0,0,0-0.1,0-0.1c0-0.2,0.1-0.5,0.2-0.7c0.2-0.4,0.5-0.6,0.9-0.7l10.5-6.2c0.7-0.4,1.6-0.2,2.1,0.5c0.4,0.7,0.2,1.6-0.5,2.1l-8.6,5
		L61.3,62l30.1-17.5l-14.2-8.3l-15.1,8.9c-0.2,0.1-0.5,0.2-0.8,0.2c-0.3,0-0.5-0.1-0.8-0.2L30.2,27.5c-0.7-0.4-1-1.3-0.5-2.1
		c0.4-0.7,1.3-1,2.1-0.5L61.3,42l32.1-18.8L61,4.5L19.6,28.5c0.2,0.6,0.3,1.2,0.3,1.9c0,3-2,5.5-4.8,6.3c2.7,38.9,29.9,63,41.5,71.6
		c1.2-1.1,2.7-1.7,4.4-1.7c1.7,0,3.2,0.6,4.4,1.7c11.6-8.6,38.8-32.8,41.5-71.6C104.1,35.9,102.1,33.3,102.1,30.3z"/>
	<path class="st1" d="M115.1,30.3c0-3.6-2.9-6.5-6.5-6.5c-1.9,0-3.5,0.8-4.7,2L61.8,1.5c-0.5-0.3-1-0.3-1.5,0L18.1,25.9
		c-1.2-1.3-2.9-2-4.7-2c-3.6,0-6.5,2.9-6.5,6.5c0,3.2,2.3,5.8,5.2,6.4c2.8,40.1,30.9,65.1,42.8,73.9c-0.3,0.7-0.4,1.5-0.4,2.3
		c0,3.6,2.9,6.5,6.5,6.5s6.5-2.9,6.5-6.5c0-0.8-0.2-1.6-0.4-2.3c11.9-8.9,40-33.8,42.8-73.9C112.8,36.1,115.1,33.5,115.1,30.3z
		 M108.6,33.9c-1.9,0-3.5-1.6-3.5-3.5s1.6-3.5,3.5-3.5s3.5,1.6,3.5,3.5S110.5,33.9,108.6,33.9z M9.9,30.3c0-1.9,1.6-3.5,3.5-3.5
		s3.5,1.6,3.5,3.5s-1.6,3.5-3.5,3.5S9.9,32.3,9.9,30.3z M64.5,113c0,1.9-1.6,3.5-3.5,3.5s-3.5-1.6-3.5-3.5s1.6-3.5,3.5-3.5
		S64.5,111.1,64.5,113z M65.4,108.2c-1.2-1.1-2.7-1.7-4.4-1.7c-1.7,0-3.2,0.7-4.4,1.7c-11.5-8.6-38.8-32.7-41.5-71.6
		c2.8-0.8,4.8-3.3,4.8-6.3c0-0.7-0.1-1.3-0.3-1.9L61,4.5l32.4,18.7L61.3,42L31.7,24.9c-0.7-0.4-1.6-0.2-2.1,0.5
		c-0.4,0.7-0.2,1.6,0.5,2.1l30.3,17.6c0.2,0.1,0.5,0.2,0.8,0.2c0.3,0,0.5-0.1,0.8-0.2l15.1-8.9l14.2,8.3L61.3,62L30.7,44.5l8.6-5
		c0.7-0.4,1-1.3,0.5-2.1c-0.4-0.7-1.3-1-2.1-0.5L27.2,43c-0.4,0.1-0.7,0.3-0.9,0.7c-0.1,0.2-0.2,0.4-0.2,0.7c0,0,0,0.1,0,0.1
		c0,0,0,0.1,0,0.1c0,0.2,0.1,0.5,0.2,0.7c0.2,0.3,0.5,0.6,0.9,0.7L60.5,65c0.2,0.1,0.5,0.2,0.7,0.2c0.3,0,0.5-0.1,0.8-0.2l15.2-8.8
		l14.2,8.3L61.3,82.1L30.6,64.6l8.6-5.1c0.7-0.4,1-1.3,0.5-2.1c-0.4-0.7-1.3-1-2.1-0.5l-10.9,6.4c-0.3,0.2-0.6,0.5-0.7,0.8
		c0,0,0,0,0,0c0,0.1,0,0.2-0.1,0.2c0,0,0,0.1,0,0.1c0,0,0,0.1,0,0.1c0,0.1,0,0.1,0,0.2c0,0,0,0,0,0.1c0.1,0.4,0.3,0.8,0.7,1.1
		l33.7,19.3c0.2,0.1,0.5,0.2,0.7,0.2c0.3,0,0.5-0.1,0.8-0.2l33.1-19.3c0,0,0,0,0,0l0,0c0.1-0.1,0.2-0.1,0.3-0.2c0,0,0,0,0.1-0.1
		c0.1-0.1,0.1-0.1,0.2-0.2c0,0,0,0,0,0c0,0,0,0,0-0.1c0,0,0-0.1,0.1-0.1c0,0,0-0.1,0.1-0.1c0,0,0-0.1,0-0.1c0-0.1,0-0.1,0-0.2
		c0,0,0-0.1,0-0.1c0,0,0-0.1,0-0.1c0,0,0-0.1,0-0.1c0,0,0-0.1,0-0.1c0,0,0-0.1,0-0.1c0-0.1,0-0.1-0.1-0.2c0,0,0,0,0,0c0,0,0,0,0-0.1
		c0,0-0.1-0.1-0.1-0.1c0,0-0.1-0.1-0.1-0.1c0,0-0.1-0.1-0.1-0.1c0,0-0.1-0.1-0.1-0.1c0,0,0,0-0.1,0l-15-8.8l14.9-8.7c0,0,0,0,0,0
		l0,0c0.1-0.1,0.2-0.1,0.3-0.2c0,0,0,0,0.1-0.1c0.1-0.1,0.1-0.1,0.2-0.2c0,0,0,0,0,0c0,0,0,0,0-0.1c0,0,0-0.1,0.1-0.1
		c0,0,0-0.1,0-0.1c0,0,0-0.1,0-0.1c0,0,0-0.1,0-0.1c0,0,0-0.1,0-0.1c0,0,0-0.1,0-0.1c0,0,0-0.1,0-0.1c0,0,0-0.1,0-0.1
		c0,0,0-0.1,0-0.1c0,0,0-0.1-0.1-0.1c0,0,0,0,0-0.1c0,0,0,0,0-0.1c0,0-0.1-0.1-0.1-0.1c0,0-0.1-0.1-0.1-0.1c0,0-0.1-0.1-0.1-0.1
		c0,0-0.1-0.1-0.1-0.1c0,0,0,0-0.1,0l-15-8.8L96.3,25l6,3.5c-0.2,0.6-0.3,1.2-0.3,1.9c0,3,2,5.5,4.8,6.3
		C104.2,75.4,76.9,99.6,65.4,108.2z"/>
</g>
</svg>
