<svg id="Layer_1" data-name="Layer 1" xmlns="http://www.w3.org/2000/svg" viewBox="0 0 146.67 146.67"><defs><style>.cls-1{fill:#cddcef;}.cls-1,.cls-10,.cls-6,.cls-7,.cls-8{stroke:#4078c3;}.cls-1,.cls-2,.cls-3,.cls-4,.cls-7{stroke-linecap:square;}.cls-1,.cls-6{stroke-linejoin:bevel;}.cls-1,.cls-2,.cls-7{stroke-width:2.11px;}.cls-2,.cls-3,.cls-4,.cls-6,.cls-7,.cls-8{fill:none;}.cls-2,.cls-3,.cls-4{stroke:#fff;}.cls-3{stroke-width:1.06px;}.cls-4,.cls-8{stroke-width:3.17px;}.cls-5{fill:#fff;}.cls-6{stroke-width:2.11px;}.cls-10,.cls-9{fill:#4078c3;}.cls-10{stroke-width:0.75px;}</style></defs><title>LP_JournLinuxONE</title><g id="Page-1"><g id="Group-26"><path id="Line-8" class="cls-1" d="M136,113.9S115.94,147,75,147c-46,0-62.9-39.4-62.9-39.4C52.06,68.92,92.8,81,92.8,72c0-4.66-23.5-13.5-24.5-14.7-.5-.6-.9-1.9-1.1-4,7.56-22.51,67.1-17,67.1-17l3,5c1,.7-48.5,3.2-48.5,10.6,0,5.2,54.8,5.42,54.8,20,0,14.09-30.36,28.84-8.71,41.32.41.24.76.5,1.11.68" transform="translate(-1.62 -1.92)"/><path id="Line-18" class="cls-2" d="M97.7,88.2c4.9-2,15.1-7.7,17.6-9.8" transform="translate(-1.62 -1.92)"/><line id="Line-16" class="cls-3" x1="84.58" y1="43.8" x2="88.28" y2="42.08"/><path id="Line-17" class="cls-3" d="M92.64,43l4-1.06" transform="translate(-1.62 -1.92)"/><path id="Line-17-2" data-name="Line-17" class="cls-3" d="M99.26,41.16l3.89-.79" transform="translate(-1.62 -1.92)"/><path id="Line-17-3" data-name="Line-17" class="cls-3" d="M105.71,40l3.85-.38" transform="translate(-1.62 -1.92)"/><path id="Line-9" class="cls-4" d="M76.9,124.1c7,9.24,22.28,16.28,25.28,17.18" transform="translate(-1.62 -1.92)"/><path id="Line-10" class="cls-2" d="M71.8,109.4c1-4.8,1.9-7.4,2.7-8,1.94-2.26,11.87-7.94,16.5-10.3" transform="translate(-1.62 -1.92)"/><g id="Line-11"><path class="cls-5" d="M118.66,76.19l-1.35-1.63.82-.67c1.55-1.28,1.26-1.65,1-2-.71-.93-2.13-1.6-5.85-2.81-.71-.23-1.46-.53-2.28-.84l-1-.37.74-1s3,1,3.67,1.22c3.56,1.3,5.46,1.71,6.39,2.5,2.19,1.86-.6,4.22-1.37,4.86Z" transform="translate(-1.62 -1.92)"/></g><line id="Line-12" class="cls-3" x1="105.32" y1="64.06" x2="97.48" y2="61.68"/><polyline id="Line-13" class="cls-3" points="93.38 60.83 90.38 59.58 86.58 57.98"/><path id="Line-14" class="cls-3" d="M85.6,58.4S80.7,56.52,80.7,55" transform="translate(-1.62 -1.92)"/><path id="Line-15" class="cls-3" d="M80.47,51.89c.1-1.2,2.13-3.89,3.43-4.69" transform="translate(-1.62 -1.92)"/><g id="Group-24"><g id="Group-14"><path id="Line-5" class="cls-6" d="M27,29.94" transform="translate(-1.62 -1.92)"/><path id="Line-6" class="cls-7" d="M72.66,73" transform="translate(-1.62 -1.92)"/></g></g><path id="Oval" class="cls-8" d="M75,147A71.71,71.71,0,0,0,135.3,36.5a65.14,65.14,0,0,0-4.3-6A71.74,71.74,0,1,0,75,147Z" transform="translate(-1.62 -1.92)"/></g></g><polygon class="cls-5" points="24.99 113.38 24.6 33.13 51.62 29.55 74.27 30.53 74.27 116.74 51.61 119.09 24.99 113.38"/><path class="cls-9" d="M53.28,32.47l21.6.93v84.35L53.28,120l-25.67-5.51-.39-78.57,26.06-3.45m-.09-2-.17,0L27,33.94l-1.74.23v1.76l.39,78.57v1.61l1.58.33L52.86,122l.31.07.32,0,21.6-2.25,1.79-.18V31.49L75,31.41l-21.6-.93Z" transform="translate(-1.62 -1.92)"/><path class="cls-10" d="M26.92,35.49l4.22-.56,4.51-.59,4.49-.59,4.74-.62,4.75-.62c.69-.09,1.38-.21,2.07-.27a17.77,17.77,0,0,1,1.93-.05c1.44,0,2.86.12,4.29.18l5,.23,4.05.18L72,33l2.62.12.54,0V118l-1.18.13-3.93.43-3.56.38-3.93.42-3.88.42-3.91.42-1.26.14h-.11a5.4,5.4,0,0,0-1.21-.1,5.76,5.76,0,0,1-1-.19l-14.88-3.31-9-2c-.15,0-.2-.09-.2-.23q0-5.31,0-10.62,0-8.19,0-16.37L27,74.8Q27,67,27,59.29q0-6.57,0-13.13l0-10.45ZM52,119.93V32.49h-.16l-1.3.17-5.26.69L39,34.18l-5.78.76-5.77.76c-.18,0-.22.07-.22.22,0,1.83,0,3.65,0,5.48q0,6.6,0,13.2,0,7.5,0,15l0,14q0,9.12,0,18.25l0,12.38a.19.19,0,0,0,.18.22l10,2.26,13,2.89Zm1.63-87.47v87.59L56,119.8c.3,0,.3,0,.3-.32q0-10,0-20.09v-.25l17-1.23.07,20,1.62-.18V33.4Zm3.65,86.86,0,0,11.71-6.64L56.56,99.69v20L72.84,118l0-.11-.92-1.35c-.48-.71-1-1.41-1.46-2.12-.09-.12-.14-.21-.31-.09a1,1,0,0,1-.28.11l-2.37.93-1.7.65c-.32.12-.64.22-1,.35s-.65.3-1,.43c-1.29.5-2.58,1-3.87,1.47l-1.65.67Zm11.81-7a.76.76,0,0,0,.06-.18c.24-.82.49-1.64.72-2.46.12-.41.2-.83.31-1.23.28-1,.56-2.06.86-3.08s.51-1.75.76-2.63c.09-.33.16-.67.25-1,.19-.71.38-1.42.58-2.12a.51.51,0,0,1,.07-.15,1.69,1.69,0,0,1,0,.39c-.08.5-.17,1-.25,1.49-.1.71-.2,1.43-.31,2.14-.07.48-.17,1-.24,1.45-.12.72-.22,1.45-.32,2.17l-.27,1.74c-.11.71-.21,1.42-.32,2.13-.07.4-.15.81-.21,1.21s-.14,1-.21,1.46c0,.14-.06.32,0,.42.75,1.11,1.51,2.21,2.27,3.32l.12.15c0-6.48,0-12.9-.06-19.35L56.68,99.38C60.82,103.72,64.93,108,69.07,112.34Z" transform="translate(-1.62 -1.92)"/><path class="cls-10" d="M73.33,54.39H56.07l.24-20.91,16.85.79c0,3.72,0,7.45.09,11.17q0,4.37.08,8.74Zm-11-14.72L73,53.74h0c-.06-6.4-.11-12.79-.17-19.21l-.33.08v-.06L57,33.66a.35.35,0,0,0,.08.15L59.1,36c.63.65,1.26,1.29,1.88,1.94a.24.24,0,0,0,.27.07l3-.86c.31-.09.61-.22.92-.31.55-.18,1.11-.35,1.67-.51l.84-.21c.23-.06.45-.12.67-.2s.36-.17.54-.23.5-.15.74-.23c.48-.14.95-.3,1.44-.42a4.78,4.78,0,0,0,1.17-.35h.08l0,.05ZM56.41,54.11H72.89L62.14,40Zm0-.44h.06c.06-.24.13-.48.2-.71.13-.44.27-.88.4-1.32s.2-.8.31-1.19.27-.85.39-1.28.18-.69.28-1c.15-.57.32-1.13.49-1.7.12-.42.26-.84.39-1.27s.2-.77.3-1.15c.15-.54.3-1.08.46-1.62s.28-.87.41-1.31.19-.76.29-1.14l.46-1.6a.2.2,0,0,0,0-.24l-2.3-2.4c-.56-.59-1.13-1.18-1.7-1.76a.71.71,0,0,1-.1-.14l-.06,0Q56.51,43.75,56.38,53.67Z" transform="translate(-1.62 -1.92)"/><path class="cls-10" d="M56,55.35H73.11q.06,10.17.13,20.31l-1.58.06L65.08,76l-5.35.18-3.25.11h-.09c-.25,0-.25,0-.25-.18l-.06-11.18L56,55.7Zm.32.47a1.06,1.06,0,0,0,0,.15q0,6.63.08,13.27l0,6.52c0,.16.05.21.23.2l2.18-.08,7.36-.25,6.34-.22h.18c-2.8-3.6-5.59-7.17-8.41-10.77-2.46,3.54-4.88,7.05-7.38,10.53A.28.28,0,0,1,57,75l.46-.89c.21-.43.42-.87.64-1.3s.4-.75.59-1.13.38-.82.58-1.23l.93-1.86c.08-.15.2-.29.28-.45s.17-.45.27-.66c.18-.39.38-.77.58-1.16s.42-.87.64-1.3l.4-.75c.17-.35.35-.69.51-1,.05-.09.12-.19,0-.31-.92-1-1.82-2-2.74-3L57.51,57.1ZM72.9,75.1l0,0q-.06-9.72-.13-19.45H56.58a1.71,1.71,0,0,0,.11.14l4,4.45c.74.82,1.5,1.63,2.24,2.45.11.12.19.1.3,0l.53-.37c.48-.36,1-.72,1.45-1.07.33-.23.67-.45,1-.69s.79-.61,1.2-.91l1.72-1.22c.54-.38,1.09-.75,1.62-1.14s.92-.67,1.38-1l.16-.08,0,0a1.42,1.42,0,0,1-.12.13L71.6,57c-.24.24-.47.49-.7.73l-.61.63-.66.69-.66.69-.37.41c-.15.17-.31.32-.47.48l-.36.36-.37.36-.38.43c-.12.13-.26.24-.38.36s-.46.5-.69.75-.42.42-.63.63-.42.48-.66.7-.13.16,0,.29c1,1.25,2,2.52,2.95,3.78,1.73,2.22,3.48,4.43,5.22,6.65A.69.69,0,0,0,72.9,75.1Z" transform="translate(-1.62 -1.92)"/><path class="cls-10" d="M73.15,96.82l-16.9,1.33-.12-20.86,17-.62Zm-15.91.58,0-.05s0,0,0,0l.87-.75.12-.1.25-.33c.27-.33.68-.53,1-.87a5.83,5.83,0,0,1,.84-.71l.08-.1a2.14,2.14,0,0,1,.13-.19c.32-.36.75-.62,1.06-1a6.2,6.2,0,0,1,.83-.69.62.62,0,0,0,.11-.17s0-.1.07-.14l.87-.72a.58.58,0,0,0,.1-.12l.15-.2c.3-.36.73-.6,1-1a2.31,2.31,0,0,1,.83-.71s.06-.06.09-.1a1.59,1.59,0,0,1,.15-.21c.16-.15.32-.31.49-.45s.11-.16,0-.27c-1.31-1.45-2.62-2.91-3.94-4.36-1.89-2.1-3.8-4.19-5.7-6.28l-.16-.16.11,20.1,16.21-1.27-5-6.41Zm15.6-1.22V77l-16.15.6,9.89,10.94c.07-.11.13-.18.17-.26.43-.75.84-1.51,1.26-2.27l.14-.22c.26-.45.55-.89.79-1.34s.43-.91.68-1.35c.95-1.75,1.93-3.49,2.89-5.24l.09-.15a.29.29,0,0,1,0,.19c-.15.41-.31.81-.46,1.22s-.26.71-.41,1.07-.21.45-.3.68-.28.74-.42,1.11c0,0,0,.06,0,.09-.11.31-.23.61-.35.92a1.08,1.08,0,0,0-.08.19c-.09.26-.17.52-.26.78s-.12.2-.15.3-.06.29-.11.42-.21.44-.3.67-.17.55-.26.82c0,.11-.12.2-.16.3-.1.29-.19.58-.29.87,0,.1-.11.2-.15.3-.09.26-.17.53-.27.8,0,.1-.1.2-.14.3l-.35.9c-.06.16-.15.32,0,.48l2,2.63,1.13,1.44C71.77,94.81,72.3,95.48,72.84,96.18Z" transform="translate(-1.62 -1.92)"/></svg>