<?xml version="1.0" encoding="utf-8"?>
<!-- Generator: Adobe Illustrator 22.0.0, SVG Export Plug-In . SVG Version: 6.00 Build 0)  -->
<svg version="1.1" id="Layer_1" xmlns="http://www.w3.org/2000/svg" xmlns:xlink="http://www.w3.org/1999/xlink" x="0px" y="0px"
	 viewBox="0 0 440 353" style="enable-background:new 0 0 440 353;" xml:space="preserve">
<style type="text/css">
	.st0{fill:#3E76C1;}
	.st1{fill:none;stroke:#979797;stroke-width:2;stroke-linecap:square;}
	.st2{fill:#3E76C0;}
	.st3{fill:#FFFFFF;}
	.st4{fill:#CFCFCF;}
	.st5{fill:#D9EBFD;stroke:#3E76C0;}
	.st6{enable-background:new    ;}
	.st7{fill:#FDFDFD;}
	.st8{opacity:0.9;fill:none;stroke:#3E76C1;stroke-linecap:square;enable-background:new    ;}
	.st9{opacity:0.4;fill:none;stroke:#3E76C1;stroke-linecap:square;enable-background:new    ;}
	.st10{opacity:0.4019;fill:none;stroke:#3E76C1;stroke-linecap:square;enable-background:new    ;}
	.st11{fill:#363F40;}
</style>
<path class="st0" d="M306,99.3H140c-4.3,0-7.8,3.5-7.8,7.8v122.2c0,4.3,3.5,7.8,7.8,7.8h65.2l-4.4,16.6H190c-1.1,0-2,0.9-2,2v0.6
	c0,1.1,0.9,2,2,2h66.5c1.1,0,2-0.9,2-2v-0.6c0-1.1-0.9-2-2-2h-11.1l-4.4-16.6h65c4.3,0,7.8-3.5,7.8-7.8V107.1
	C313.9,102.8,310.4,99.3,306,99.3z M140,103.3H306c2.1,0,3.8,1.7,3.8,3.8v105.2H136.1V107.1C136.1,105,137.9,103.3,140,103.3z
	 M236.9,237.1l4.4,16.6h-36.3l4.4-16.6H236.9z M306,233.1H140c-2.1,0-3.8-1.7-3.8-3.8v-13h173.7v13
	C309.9,231.4,308.2,233.1,306,233.1z"/>
<path class="st0" d="M232.7,221.9h-19.6c-1.1,0-2.1,0.9-2.1,2.1v2c0,1.1,0.9,2.1,2.1,2.1h19.6c1.1,0,2.1-0.9,2.1-2.1v-2
	C234.8,222.9,233.9,221.9,232.7,221.9z"/>
<title>Group 5</title>
<desc>Created with Sketch.</desc>
<g id="Content-Solution-Landing-Page">
	<g id="Landing-Page-Mockup-Dk-Blue---1920W" transform="translate(-123.000000, -7.000000)">
		<g id="Group-5" transform="translate(122.000000, 7.000000)">
			<rect id="Rectangle" x="147.4" y="114.4" width="154" height="5"/>
			<path id="Line-2" class="st1" d="M190.1,125.9h94.3"/>
			<path id="Line-2_1_" class="st1" d="M190.1,133.9h94.3"/>
			<rect id="Rectangle_1_" x="146.4" y="140.4" class="st2" width="156" height="62"/>
			<rect id="Rectangle_2_" x="148.4" y="160.4" class="st3" width="152" height="38"/>
			<rect id="Rectangle_3_" x="163.4" y="164.4" class="st4" width="35" height="6"/>
			<rect id="Rectangle_4_" x="206.4" y="164.4" class="st4" width="35" height="6"/>
			<rect id="Rectangle_5_" x="250.4" y="164.4" class="st4" width="35" height="6"/>
			<path id="Line-2_2_" class="st1" d="M164,176.9h120.4"/>
			<path id="Line-2_3_" class="st1" d="M164,184.9h120.4"/>
			<path id="Line-2_4_" class="st1" d="M164,192.9h120.4"/>
			<circle id="Oval" class="st5" cx="171.9" cy="129.9" r="6.5"/>
			<g class="st6">
				<path class="st7" d="M169.9,156.4v-1.9h3V147h-0.1l-2.3,3l-1.5-1.2l2.7-3.5h3.7v9.2h2.4v1.9H169.9z"/>
			</g>
			<g class="st6">
				<path class="st7" d="M203.3,156.4h-7.9v-2.2l3.4-2.9c0.3-0.3,0.6-0.5,0.8-0.7c0.2-0.2,0.4-0.4,0.5-0.6s0.2-0.4,0.3-0.6
					c0.1-0.2,0.1-0.4,0.1-0.7v-0.2c0-0.2,0-0.4-0.1-0.6c-0.1-0.2-0.2-0.3-0.3-0.4s-0.3-0.2-0.5-0.2c-0.2-0.1-0.4-0.1-0.5-0.1
					c-0.3,0-0.5,0-0.7,0.1c-0.2,0.1-0.4,0.2-0.5,0.3c-0.1,0.1-0.3,0.3-0.4,0.5c-0.1,0.2-0.2,0.4-0.2,0.6l-2.1-0.8
					c0.1-0.4,0.3-0.8,0.5-1.1c0.2-0.3,0.5-0.7,0.8-0.9c0.3-0.3,0.7-0.5,1.2-0.6s1-0.2,1.6-0.2c0.6,0,1.1,0.1,1.6,0.3
					c0.5,0.2,0.9,0.4,1.2,0.7c0.3,0.3,0.6,0.7,0.7,1.1c0.2,0.4,0.3,0.9,0.3,1.3s-0.1,0.9-0.2,1.3c-0.2,0.4-0.4,0.8-0.6,1.1
					s-0.6,0.7-1,1c-0.4,0.3-0.7,0.6-1.1,0.9l-2.1,1.6h5.3V156.4z"/>
			</g>
			<g class="st6">
				<path class="st7" d="M223.6,149.7c0.6,0,1-0.1,1.3-0.3c0.3-0.2,0.4-0.5,0.4-0.9v-0.1c0-0.4-0.1-0.7-0.4-1
					c-0.3-0.2-0.6-0.4-1.1-0.4c-0.4,0-0.9,0.1-1.3,0.3c-0.4,0.2-0.7,0.6-1,1l-1.5-1.4c0.2-0.3,0.4-0.5,0.7-0.8
					c0.2-0.2,0.5-0.4,0.8-0.6c0.3-0.2,0.7-0.3,1-0.4c0.4-0.1,0.8-0.1,1.3-0.1c0.6,0,1.1,0.1,1.6,0.2c0.5,0.1,0.9,0.3,1.2,0.6
					s0.6,0.6,0.8,0.9c0.2,0.4,0.3,0.8,0.3,1.2c0,0.4-0.1,0.7-0.2,1c-0.1,0.3-0.3,0.5-0.5,0.8c-0.2,0.2-0.4,0.4-0.7,0.5
					c-0.3,0.1-0.5,0.2-0.8,0.3v0.1c0.3,0.1,0.6,0.2,0.9,0.3c0.3,0.1,0.5,0.3,0.7,0.6c0.2,0.2,0.4,0.5,0.5,0.8c0.1,0.3,0.2,0.6,0.2,1
					c0,0.5-0.1,1-0.3,1.4c-0.2,0.4-0.5,0.8-0.9,1s-0.8,0.5-1.3,0.7s-1.1,0.2-1.7,0.2c-0.6,0-1.1-0.1-1.5-0.2
					c-0.4-0.1-0.8-0.3-1.1-0.5s-0.6-0.4-0.8-0.7c-0.2-0.3-0.5-0.5-0.6-0.8l1.8-1.4c0.2,0.5,0.5,0.8,0.9,1.1c0.4,0.3,0.8,0.4,1.4,0.4
					c0.5,0,1-0.1,1.3-0.4c0.3-0.3,0.5-0.6,0.5-1.1v-0.1c0-0.5-0.2-0.8-0.5-1s-0.8-0.3-1.4-0.3h-1v-2H223.6z"/>
			</g>
			<g class="st6">
				<path class="st7" d="M249.8,156.4v-2.1h-4.9v-2.1l4.4-7h2.8v7.2h1.4v1.9h-1.4v2.1H249.8z M246.8,152.4h3v-4.7h-0.2L246.8,152.4z
					"/>
			</g>
			<g class="st6">
				<path class="st7" d="M278.8,147.4h-5.1l-0.2,3.5h0.1c0.1-0.3,0.2-0.5,0.4-0.7c0.1-0.2,0.3-0.4,0.5-0.6c0.2-0.2,0.4-0.3,0.7-0.4
					c0.3-0.1,0.6-0.1,0.9-0.1c0.5,0,0.9,0.1,1.3,0.2s0.8,0.4,1.1,0.7s0.6,0.7,0.7,1.1s0.3,0.9,0.3,1.5c0,0.6-0.1,1.1-0.3,1.6
					c-0.2,0.5-0.5,0.9-0.8,1.3c-0.4,0.4-0.8,0.6-1.4,0.8c-0.5,0.2-1.1,0.3-1.8,0.3c-0.5,0-1-0.1-1.4-0.2s-0.8-0.3-1.1-0.5
					c-0.3-0.2-0.6-0.4-0.8-0.7c-0.2-0.3-0.4-0.5-0.6-0.8l1.7-1.4c0.2,0.4,0.5,0.8,0.9,1.1c0.3,0.3,0.8,0.5,1.4,0.5s1-0.2,1.3-0.5
					s0.4-0.8,0.4-1.3v-0.1c0-0.5-0.1-0.9-0.4-1.2s-0.7-0.4-1.2-0.4c-0.4,0-0.8,0.1-1.1,0.3c-0.3,0.2-0.5,0.3-0.6,0.5l-2-0.3l0.4-6.3
					h6.8V147.4z"/>
			</g>
			<path id="Line-3" class="st8" d="M67.8,46.5l46.2,44"/>
			<path id="Line-3_1_" class="st9" d="M151.4,37.7l15,36.8"/>
			<path id="Line-3_2_" class="st10" d="M296.4,37.7l-14.2,37.4"/>
			<path id="Line-3_3_" class="st9" d="M48,116.9l47.3,19.3"/>
			<path id="Line-3_4_" class="st9" d="M42.9,238.7l48.2-15.5"/>
			<path id="Line-3_5_" class="st9" d="M351,140.5l51.7-16.8"/>
			<path id="Line-3_6_" class="st9" d="M353.2,223.9l51.8,15.2"/>
			<path id="Line-3_7_" class="st8" d="M225,0.9v73.6"/>
			<path id="Line-3_8_" class="st8" d="M225.8,295l-0.6,57.5"/>
			<path id="Line-3_9_" class="st8" d="M1.5,174.5l90.1,0.1"/>
			<path id="Line-3_10_" class="st8" d="M356.1,175h83.4"/>
			<path id="Line-3_11_" class="st8" d="M117,259.7l-49.2,49.4"/>
			<path id="Line-3_12_" class="st9" d="M172.3,284.1l-20.5,40.5"/>
			<path id="Line-3_13_" class="st9" d="M278.6,284.1l22.9,40.5"/>
			<path id="Line-3_14_" class="st8" d="M378.5,49.8l-44.6,40.4"/>
			<path id="Line-3_15_" class="st8" d="M328.4,259.9l49.1,49.1"/>
		</g>
	</g>
</g>
<rect x="-45" y="-7" class="st11" width="1" height="1"/>
<rect x="-42" y="-7" class="st11" width="1" height="1"/>
<rect x="-40" y="-7" class="st11" width="2" height="1"/>
<g>
	<path class="st0" d="M299.5,114.6C299.5,114.6,299.6,114.6,299.5,114.6l0.1,87.2c0,0,0,0.1-0.1,0.1H147.1c0,0-0.1,0-0.1-0.1v-87.2
		c0,0,0-0.1,0.1-0.1H299.5 M299.5,110.6H147.1c-2.2,0-4.1,1.8-4.1,4.1v87.2c0,2.2,1.8,4.1,4.1,4.1h152.4c2.2,0,4.1-1.8,4.1-4.1
		v-87.2C303.6,112.4,301.7,110.6,299.5,110.6L299.5,110.6z"/>
</g>
</svg>
