<?xml version="1.0" encoding="utf-8"?>
<!-- Generator: Adobe Illustrator 24.1.0, SVG Export Plug-In . SVG Version: 6.00 Build 0)  -->
<svg version="1.1" id="Layer_1" xmlns="http://www.w3.org/2000/svg" xmlns:xlink="http://www.w3.org/1999/xlink" x="0px" y="0px"
	 viewBox="0 0 120 120" style="enable-background:new 0 0 120 120;" xml:space="preserve">
<style type="text/css">
	.st0{fill:#4178BE;}
</style>
<desc>Created with Sketch.</desc>
<g>
	<path class="st0" d="M93.6,105.2c0.1,0,0.2,0,0.3-0.1l1.1-0.8c0.1,0,0.1-0.1,0.1-0.2c1.9-1.5,3.7-3,5.3-4.7c0,0,0.1,0,0.1,0l0.9-1
		c0.1-0.1,0-0.1,0.1-0.2c1.6-1.7,3-3.4,4.4-5.3c0.1-0.1,0.2-0.1,0.3-0.2l0.8-1.1c0,0,0-0.1,0.1-0.1c1.3-1.9,2.5-4,3.5-6
		c0-0.1,0.1-0.1,0.2-0.2c0.2-0.4,0.4-0.8,0.6-1.2c0.1-0.1,0.1-0.2,0.1-0.4c1-2.1,1.9-4.2,2.6-6.4c0,0,0,0,0-0.1l0.4-1.3
		c0-0.1,0-0.2,0-0.3c0.6-2.2,1.1-4.5,1.5-6.8c0-0.1,0.1-0.1,0.1-0.2l0.2-1.3c0-0.1,0-0.2,0-0.3c0.3-2.2,0.5-4.5,0.5-6.8h-0.1
		c0-0.1,0.1-0.2,0.1-0.3l0-1.3c0-0.7-0.7-1.3-1.3-1.3c-0.7,0-1.3,0.6-1.3,1.3l0,1.3c0,0.1,0,0.2,0.1,0.3h-0.1
		c0,29.1-23.7,52.8-52.8,52.8c-8.1,0-15.9-1.8-23-5.2l-0.9-0.4c0,0-0.1,0-0.1,0c-7.1-3.6-13.4-8.8-18.3-15.4l-0.4-0.5
		c-0.4-0.6-1.2-0.7-1.8-0.3c-0.6,0.4-0.7,1.2-0.3,1.8l0.8,1.1c0,0.1,0.1,0.1,0.2,0.1c1.5,1.9,3,3.6,4.7,5.3c0,0,0,0.1,0,0.1
		c0.3,0.3,0.6,0.6,1,0.9c0.1,0.1,0.1,0,0.2,0.1c1.7,1.6,3.4,3.1,5.3,4.4c0.1,0.1,0.1,0.2,0.2,0.2c0.4,0.3,0.7,0.5,1.1,0.8
		c0,0,0,0,0.1,0c2.3,1.6,4.7,3,7.2,4.2l0.2,0.1c0,0,0,0,0.1,0c2.1,1,4.3,1.9,6.6,2.6c0.1,0,0.1,0.1,0.2,0.1l1.3,0.4
		c0.1,0,0.2,0.1,0.4,0.1c0,0,0,0,0,0c2.1,0.6,4.2,1.1,6.4,1.4c0.1,0.1,0.2,0.1,0.4,0.1c0.4,0.1,0.9,0.1,1.3,0.2c0.1,0,0.1,0,0.2,0
		c0,0,0,0,0,0c2.3,0.3,4.6,0.4,7,0.4c0.1,0,0.1,0,0.2,0c0,0,0,0,0,0c0.4,0,0.9,0,1.3,0c0.1,0,0.2,0,0.3-0.1c2.3-0.1,4.5-0.3,6.7-0.6
		c0,0,0.1,0,0.1,0c0.1,0,0.1,0,0.2,0l1.3-0.2c0.1,0,0.1-0.1,0.2-0.1c2.3-0.4,4.5-1,6.7-1.7c0.1,0,0.2,0,0.3,0l1.3-0.4
		c0.1,0,0.2-0.1,0.4-0.2c2.1-0.8,4.2-1.7,6.1-2.7c0.1,0,0.2,0,0.3-0.1l1.2-0.6c0,0,0.1-0.1,0.1-0.1
		C89.8,107.9,91.7,106.6,93.6,105.2z"/>
	<path class="st0" d="M7,63.2c0.7,0,1.3-0.6,1.3-1.3c0-0.4,0-0.8,0-1.3c0,0,0-0.1,0-0.1h0c0-29.1,23.7-52.8,52.8-52.8
		c15.9,0,30.5,6.9,40.6,19H89.9v2.6h15.7V13.6H103v10.7C92.5,12.1,77.4,5.1,61.1,5.1c-0.4,0-0.9,0-1.3,0c-0.1,0-0.2,0-0.3,0.1
		c-2.3,0.1-4.5,0.3-6.7,0.6c-0.1,0-0.2,0-0.3,0c-0.4,0.1-0.9,0.1-1.3,0.2c-0.1,0-0.1,0.1-0.2,0.1c-2.3,0.4-4.6,1-6.8,1.7
		c-0.1,0-0.1,0-0.2,0c-0.4,0.1-0.8,0.3-1.3,0.4c-0.1,0-0.2,0.1-0.3,0.2c-2.1,0.8-4.1,1.6-6.1,2.6c-0.1,0-0.2,0-0.4,0.1
		c-0.4,0.2-0.8,0.4-1.2,0.6c0,0,0,0-0.1,0.1c-2,1.1-3.9,2.4-5.8,3.7c-0.1,0-0.3,0.1-0.4,0.2c-0.4,0.3-0.7,0.5-1.1,0.8
		c-0.1,0-0.1,0.1-0.1,0.2c-1.9,1.5-3.7,3-5.4,4.7c0,0,0,0-0.1,0l-0.9,0.9c-0.1,0.1,0,0.1-0.1,0.2c-1.5,1.6-3,3.4-4.3,5.2
		c-0.1,0.1-0.2,0.2-0.3,0.3l-0.8,1.1c0,0.1,0,0.1-0.1,0.2c-1.3,1.9-2.4,3.9-3.5,5.9c-0.1,0.1-0.1,0.2-0.2,0.3
		c-0.2,0.4-0.4,0.8-0.6,1.2C11,36.7,11,36.9,11,37c-1,2-1.8,4.1-2.5,6.3c0,0.1-0.1,0.1-0.1,0.2l-0.4,1.3c0,0.1,0,0.2,0,0.2
		c-0.6,2.2-1.1,4.4-1.5,6.6c0,0.1-0.1,0.2-0.1,0.3c-0.1,0.4-0.1,0.9-0.2,1.3c0,0.1,0,0.2,0,0.3c-0.3,2.3-0.5,4.6-0.5,7h0
		c0,0,0,0.1,0,0.1c0,0.4,0,0.9,0,1.3C5.7,62.6,6.3,63.2,7,63.2C7,63.2,7,63.2,7,63.2z"/>
	<path class="st0" d="M111.2,43.9c0.2,0.5,0.7,0.9,1.2,0.9c0.1,0,0.3,0,0.4-0.1c0.7-0.2,1-1,0.8-1.6l-0.4-1.3c-0.2-0.7-1-1-1.7-0.8
		c-0.7,0.2-1,1-0.8,1.7L111.2,43.9z"/>
	<path class="st0" d="M107.9,36.2c0.2,0.4,0.7,0.7,1.2,0.7c0.2,0,0.4,0,0.6-0.1c0.6-0.3,0.9-1.1,0.5-1.8l-0.6-1.2
		c-0.3-0.6-1.1-0.9-1.8-0.5c-0.6,0.3-0.9,1.1-0.5,1.8L107.9,36.2z"/>
	<path class="st0" d="M112.9,50.7l0.2,1.2c0.1,0.6,0.7,1.1,1.3,1.1c0.1,0,0.1,0,0.2,0c0.7-0.1,1.2-0.8,1.1-1.5
		c-0.1-0.4-0.1-0.9-0.2-1.3c-0.1-0.7-0.8-1.2-1.5-1C113.3,49.3,112.8,50,112.9,50.7z"/>
	<path class="st0" d="M10.9,76.9c-0.2-0.7-1-1.1-1.6-0.8c-0.7,0.2-1.1,1-0.8,1.6L8.8,79c0.2,0.5,0.7,0.9,1.2,0.9
		c0.1,0,0.3,0,0.4-0.1c0.7-0.2,1-1,0.8-1.7L10.9,76.9z"/>
	<path class="st0" d="M14.1,84.6C13.7,84,13,83.7,12.3,84c-0.6,0.3-0.9,1.1-0.6,1.7c0.2,0.4,0.4,0.8,0.6,1.2
		c0.2,0.4,0.7,0.7,1.1,0.7c0.2,0,0.4-0.1,0.6-0.2c0.6-0.3,0.9-1.1,0.5-1.8L14.1,84.6z"/>
	<path class="st0" d="M9.1,70.1l-0.2-1.3c-0.1-0.7-0.8-1.2-1.5-1.1c-0.7,0.1-1.2,0.8-1.1,1.5l0.2,1.3c0.1,0.6,0.7,1.1,1.3,1.1
		c0.1,0,0.2,0,0.2,0C8.8,71.5,9.3,70.8,9.1,70.1z"/>
	<rect x="39.4" y="37.6" class="st0" width="21.6" height="2.6"/>
	<path class="st0" d="M35.8,69h46.9c0.7,0,1.3-0.6,1.3-1.3v-5.9h9.5c0.7,0,1.3-0.6,1.3-1.3V38.9c0-0.7-0.6-1.3-1.3-1.3H84v-5.9
		c0-0.7-0.6-1.3-1.3-1.3H35.8c-0.7,0-1.3,0.6-1.3,1.3v14.4c0,0.7,0.6,1.3,1.3,1.3h46.9c0.7,0,1.3-0.6,1.3-1.3v-5.9h8.2v19H84v-5.9
		c0-0.7-0.6-1.3-1.3-1.3H35.8c-0.7,0-1.3,0.6-1.3,1.3v5.9H25c-0.7,0-1.3,0.6-1.3,1.3v21.6c0,0.7,0.6,1.3,1.3,1.3h9.5v5.9
		c0,0.7,0.6,1.3,1.3,1.3h46.9c0.7,0,1.3-0.6,1.3-1.3V74.9c0-0.7-0.6-1.3-1.3-1.3H35.8c-0.7,0-1.3,0.6-1.3,1.3v5.9h-8.2v-19h8.2v5.9
		C34.5,68.4,35.1,69,35.8,69z M81.4,44.8H37.1V32.9h44.3V44.8z M37.1,54.6h44.3v11.8H37.1V54.6z M37.1,76.2h44.3v11.8H37.1V76.2z"/>
	<rect x="39.4" y="59.2" class="st0" width="21.6" height="2.6"/>
	<circle class="st0" cx="73.7" cy="38.9" r="1.8"/>
	<circle class="st0" cx="73.7" cy="60.5" r="1.8"/>
	<rect x="39.4" y="80.8" class="st0" width="21.6" height="2.6"/>
	<circle class="st0" cx="73.7" cy="82.1" r="1.8"/>
	<path class="st0" d="M10.4,9.9c1.9-1.9,1.9-5,0-6.9C8.5,1,5.4,1,3.5,2.9v0c-1.9,1.9-1.9,5,0,6.9c1,1,2.2,1.4,3.5,1.4
		C8.2,11.3,9.5,10.8,10.4,9.9z M5.3,8c-0.9-0.9-0.9-2.4,0-3.3c0.9-0.9,2.4-0.9,3.3,0c0.9,0.9,0.9,2.4,0,3.3C7.7,8.9,6.2,8.9,5.3,8z"
		/>
	<path class="st0" d="M16.9,18.1c0.3,0.3,0.6,0.4,0.9,0.4s0.7-0.1,0.9-0.4c0.5-0.5,0.5-1.3,0-1.8l-3.6-3.6c-0.5-0.5-1.3-0.5-1.8,0
		c-0.5,0.5-0.5,1.3,0,1.8L16.9,18.1z"/>
	<circle class="st0" cx="8.8" cy="26.2" r="1.8"/>
	<path class="st0" d="M106.2,105.6c0.5-0.5,0.5-1.3,0-1.8l-1.8-1.8c-0.5-0.5-1.3-0.5-1.8,0s-0.5,1.3,0,1.8l1.8,1.8
		c0.3,0.3,0.6,0.4,0.9,0.4C105.6,106,105.9,105.8,106.2,105.6z"/>
	<path class="st0" d="M117.6,110.1l-5.1-5.1c-0.5-0.5-1.3-0.5-1.8,0l-5.1,5.1c-0.2,0.2-0.4,0.6-0.4,0.9s0.1,0.7,0.4,0.9l5.1,5.1
		c0.3,0.3,0.6,0.4,0.9,0.4s0.7-0.1,0.9-0.4l5.1-5.1C118.1,111.4,118.1,110.6,117.6,110.1z M111.5,114.3l-3.3-3.3l3.3-3.3l3.3,3.3
		L111.5,114.3z"/>
	<path class="st0" d="M21.5,9.9c0.3,0.3,0.6,0.4,0.9,0.4s0.7-0.1,0.9-0.4L25,8.2l1.6,1.6c0.3,0.3,0.6,0.4,0.9,0.4
		c0.3,0,0.7-0.1,0.9-0.4C29,9.4,29,8.5,28.5,8l-1.6-1.6l1.6-1.6c0.5-0.5,0.5-1.3,0-1.8c-0.5-0.5-1.3-0.5-1.8,0L25,4.6l-1.6-1.6
		c-0.5-0.5-1.3-0.5-1.8,0s-0.5,1.3,0,1.8l1.6,1.6L21.5,8C21,8.5,21,9.4,21.5,9.9z"/>
	<path class="st0" d="M100.7,113.3h-2.3V111c0-0.7-0.6-1.3-1.3-1.3c-0.7,0-1.3,0.6-1.3,1.3v2.3h-2.3c-0.7,0-1.3,0.6-1.3,1.3
		c0,0.7,0.6,1.3,1.3,1.3h2.3v2.3c0,0.7,0.6,1.3,1.3,1.3c0.7,0,1.3-0.6,1.3-1.3v-2.3h2.3c0.7,0,1.3-0.6,1.3-1.3
		C102,113.9,101.4,113.3,100.7,113.3z"/>
	<path class="st0" d="M112.5,92c-0.5-0.5-1.3-0.5-1.8,0s-0.5,1.3,0,1.8l3.6,3.6c0.3,0.3,0.6,0.4,0.9,0.4c0.3,0,0.7-0.1,0.9-0.4
		c0.5-0.5,0.5-1.3,0-1.8L112.5,92z"/>
</g>
</svg>
