<svg xmlns="http://www.w3.org/2000/svg" viewBox="0 0 231.54 231.54"><circle cx="115.77" cy="115.77" r="115.77" style="fill:#a9c4f0;opacity:0.47999998927116394;isolation:isolate"/><polygon points="127.7 208.25 103.4 208.25 91.25 187.2 103.4 166.15 127.7 166.15 139.86 187.2 127.7 208.25" style="fill:none;stroke:#4c78b9;stroke-miterlimit:10;stroke-width:4px"/><rect x="12.17" y="29.63" width="206.75" height="141.73" rx="7.7" style="fill:#fff;stroke:#4c78b9;stroke-miterlimit:10;stroke-width:4px"/><path d="M209.74,169.89H21.36a7.69,7.69,0,0,1-7.67-7.67V146.85a.69.69,0,0,1,.67-.68h200.1a3.38,3.38,0,0,0,.45,0h.77a9.55,9.55,0,0,1,1.31,0c.31.06.06,1.09.06,3.14l.36,12.93A7.69,7.69,0,0,1,209.74,169.89Z" style="fill:#a9c4f0"/><line x1="101.79" y1="158.34" x2="129.31" y2="158.34" style="fill:none;stroke:#4c78b9;stroke-miterlimit:10;stroke-width:4px"/><rect x="34.31" y="187.2" width="162.48" height="23.34" rx="7.15" style="fill:#fff;stroke:#4c78b9;stroke-miterlimit:10;stroke-width:4px"/><path d="M78.83,83.82c-.07-19.28,16.3-35,36.58-35A37,37,0,0,1,148,67.39" style="fill:none;stroke:#4c78b9;stroke-miterlimit:10;stroke-width:4px"/><polygon points="135.14 63.1 146.35 64.27 154.97 57.02 152.27 83.56 135.14 63.1" style="fill:#4c78b9"/><path d="M152.27,94.77c-.12,19.28-16.66,34.82-36.94,34.71A37,37,0,0,1,82.9,110.56" style="fill:none;stroke:#4c78b9;stroke-miterlimit:10;stroke-width:4px"/><polygon points="95.75 114.98 84.56 113.69 75.87 120.86 78.83 94.35 95.75 114.98" style="fill:#4c78b9"/><line x1="13.69" y1="146.11" x2="218.24" y2="146.11" style="fill:none;stroke:#4c78b9;stroke-miterlimit:10;stroke-width:4px"/></svg>