<svg id="Layer_1" data-name="Layer 1" xmlns="http://www.w3.org/2000/svg" viewBox="0 0 150 150"><defs><style>.cls-1,.cls-2{fill:none;stroke:#3e76c0;stroke-width:3px;}.cls-2{stroke-linecap:square;}</style></defs><title>LP_Serverpac</title><g id="Group-2"><circle id="Oval-Copy-7" class="cls-1" cx="75" cy="75" r="72.6"/></g><path id="Lock_Unlock_Security_VPN_05" data-name="Lock/Unlock/Security/VPN 05" class="cls-2" d="M115.74,84.07l7.33-7.33-7.33-7.32m5.69,7.32H90.9"/><rect class="cls-2" x="77.86" y="51.75" width="13.04" height="49.99"/><path class="cls-2" d="M77.86,86.22H67.5a5.18,5.18,0,0,0-5.18,5.18V103a5.18,5.18,0,0,1-5.18,5.18H46.78"/><rect class="cls-2" x="33.83" y="101.74" width="12.95" height="12.95" rx="6.48" ry="6.48"/><path class="cls-2" d="M46.78,45.27H57.14a5.18,5.18,0,0,1,5.18,5.18V62.08a5.18,5.18,0,0,0,5.18,5.18H77.86"/><rect class="cls-2" x="33.83" y="38.8" width="12.95" height="12.95" rx="6.48" ry="6.48"/><path class="cls-2" d="M46.78,76.74H77.86"/><rect class="cls-2" x="33.83" y="70.27" width="12.95" height="12.95" rx="6.48" ry="6.48"/></svg>