<?xml version="1.0" encoding="utf-8"?>
<!-- Generator: Adobe Illustrator 22.0.0, SVG Export Plug-In . SVG Version: 6.00 Build 0)  -->
<svg version="1.1" id="Layer_1" xmlns="http://www.w3.org/2000/svg" xmlns:xlink="http://www.w3.org/1999/xlink" x="0px" y="0px"
	 viewBox="0 0 144 125" style="enable-background:new 0 0 144 125;" xml:space="preserve">
<style type="text/css">
	.st0{fill:none;stroke:#4078C3;stroke-width:3.1666;}
	.st1{fill:#C8D8F7;stroke:#4078C3;stroke-width:3.1666;enable-background:new    ;}
	.st2{fill:#C8D8F7;stroke:#4078C3;stroke-width:3.1666;}
</style>
<title>TKElock&amp;key1a</title>
<desc>Created with Sketch.</desc>
<g>
	<rect x="52.6" y="59.9" class="st0" width="90" height="63.7"/>
	<path class="st0" d="M119,59.9H77.7V34.8c0-11.4,9.3-20.7,20.7-20.7h0c11.4,0,20.7,9.3,20.7,20.7V59.9z"/>
	<path class="st0" d="M131.3,59.9H65.7V35.4c0-18.1,14.7-32.8,32.8-32.8h0c18.1,0,32.8,14.7,32.8,32.8V59.9z"/>
	<circle class="st1" cx="99.8" cy="83.4" r="9.4"/>
	<line class="st0" x1="99.8" y1="106.2" x2="99.8" y2="92.8"/>
	<path class="st2" d="M21.9,69.1H7.9c-2.7,0-5,2.2-5,5v23c0,2.7,2.2,5,5,5h14.1c2.7,0,5-2.2,5-5V74C26.9,71.3,24.7,69.1,21.9,69.1z
		 M19.5,94.2h-8.9V76.7h8.9V94.2z"/>
	<rect x="26.9" y="79.2" class="st1" width="56" height="11.5"/>
	<rect x="59.6" y="90.8" class="st1" width="9.6" height="13.1"/>
	<rect x="69.2" y="90.8" class="st1" width="9.6" height="13.1"/>
</g>
</svg>
