<svg xmlns="http://www.w3.org/2000/svg" viewBox="0 0 143.04 140.8"><path d="M62.17,144.41l84.16-59.62L94.76,6.47l0-.14-.13,0L93.49,4.52,3.3,64.27,59.36,143.2l0,.25.75.75.8,1.13.18-.13h0ZM10.49,63.11,91.19,9.64l-6.5,38.83L77.12,33.08,35,62.65Zm62.27-9.3L43.4,73.8l-5.84-9.25L76,37.55l7.45,15.14L78.05,92.06l27-18.83,5.72,8.46-41.5,29.57-2.69-3.83ZM82,85.68l3-22.12,18.08,7.38ZM69,60,66.29,83.56,45.4,76.07Zm-3,51.92,2.49,3.54,46.35-33-6.24-9.23,30.67,12.51L62.72,140.34Zm75.91-28.35-56.24-23L94,10.81ZM8.31,66.15l26.38-.49,7.56,12.56.27-.19.16.25,23.25,8.34-.78,6.78-5.27,45.35Z" transform="translate(-3.3 -4.52)" style="fill:#3e76c0"/><polygon points="7.19 58.58 87.89 5.12 81.39 43.94 73.82 28.56 31.74 58.13 7.19 58.58" style="fill:#a9c4f0"/><polyline points="39.22 73.51 39.38 73.75 62.63 82.1 61.85 88.87 56.58 134.22 5.01 61.63 31.39 61.14 38.95 73.69" style="fill:#a9c4f0;opacity:0.47999998927116394;isolation:isolate"/><polygon points="138.63 79.03 82.39 56.09 90.74 6.29 138.63 79.03" style="fill:#a9c4f0;opacity:0.47999998927116394;isolation:isolate"/><polygon points="65.73 55.46 62.99 79.04 42.1 71.55 65.73 55.46" style="fill:#a9c4f0"/><polygon points="78.65 81.15 81.67 59.03 99.75 66.41 78.65 81.15" style="fill:#a9c4f0"/><polygon points="62.72 107.39 65.21 110.93 111.56 77.92 105.32 68.68 135.99 81.2 59.42 135.81 62.72 107.39" style="fill:#a9c4f0"/></svg>