<svg id="Layer_1" data-name="Layer 1" xmlns="http://www.w3.org/2000/svg" viewBox="0 0 101.16 117.52"><defs><style>.cls-1{fill:#4178be;}</style></defs><path class="cls-1" d="M61,74.15A13.77,13.77,0,1,0,47.18,60.38,13.79,13.79,0,0,0,61,74.15Zm0-24.54A10.77,10.77,0,1,1,50.18,60.38,10.78,10.78,0,0,1,61,49.61Z" transform="translate(-10.37 -1.62)"/><path class="cls-1" d="M111.53,31.71a2,2,0,0,0,0-.35v0a1.57,1.57,0,0,0-.12-.3.41.41,0,0,1,0-.09l-.16-.21-.07-.07a1.51,1.51,0,0,0-.28-.22L61.71,1.82a1.49,1.49,0,0,0-.76-.2h0a1.24,1.24,0,0,0-.38,0,1.34,1.34,0,0,0-.18.07l-.18.08h0l-.07.05L43.84,11.33a1.46,1.46,0,0,0-.24.17l-32.49,19a1.5,1.5,0,0,0-.74,1.3V89a1.48,1.48,0,0,0,.74,1.29l49.08,28.64a1.54,1.54,0,0,0,1.52,0L110.79,90.3a1.48,1.48,0,0,0,.74-1.29V31.71ZM61,115.9,29.73,97.69V43.52L61,25.3,80.79,36.88a1.5,1.5,0,0,0,1.51-2.59l-20.59-12a1.53,1.53,0,0,0-1.52,0L27.47,41.36a1.49,1.49,0,0,0-.74,1.29V95.94L13.37,88.15V32.61L61,4.85,92.17,23.07V77.24L61,95.45,41.11,83.88a1.5,1.5,0,1,0-1.51,2.59l20.59,12a1.54,1.54,0,0,0,1.52,0L94.43,79.4a1.5,1.5,0,0,0,.74-1.3V24.82l13.36,7.79V88.15Z" transform="translate(-10.37 -1.62)"/></svg>