<?xml version="1.0" encoding="UTF-8"?>
<svg width="120px" height="120px" viewBox="0 0 120 120" version="1.1" xmlns="http://www.w3.org/2000/svg" xmlns:xlink="http://www.w3.org/1999/xlink">
    <!-- Generator: Sketch 55.2 (78181) - https://sketchapp.com -->
    <title>Pictogram_PrivateCloud</title>
    <desc>Created with Sketch.</desc>
    <g id="Content-Solution-Landing-Page" stroke="none" stroke-width="1" fill="none" fill-rule="evenodd">
        <g id="Idea-4---1920W---" transform="translate(-695.000000, -514.000000)" stroke="#4178BE" stroke-width="3">
            <g id="Pictogram_PrivateCloud" transform="translate(698.000000, 516.000000)">
                <polyline id="Path" stroke-linejoin="round" points="45.4901961 100.587058 45.4901961 116 68.6143791 116 68.6143791 100.587058 78.8661002 96.3484995 89.7344662 107.253156 106.114096 90.8769053 95.2071895 80.0107815 99.4466231 69.7611753 114.862745 69.7611753 114.862745 46.641763 99.4466231 46.641763 95.2071895 36.3921569"></polyline>
                <polyline id="Path" stroke-linejoin="round" points="69.372549 15.4129416 69.372549 0 46.248366 0 46.248366 15.4129416 35.9966449 19.6515005 25.0897386 8.74684433 8.74864924 25.1230947 19.6555556 35.9892185 15.416122 46.2388247 0 46.2388247 0 69.358237 15.416122 69.358237 19.6555556 79.6078431"></polyline>
                <circle id="Oval" stroke-linecap="round" stroke-linejoin="round" cx="58" cy="58" r="27.2941176"></circle>
                <path d="M114.862745,11.210084 L92.345098,11.210084 L77.3333333,26.1568627 M103.603922,22.4201681 L114.862745,11.210084 L103.603922,0" id="Shape"></path>
                <path d="M0,104.789916 L22.5176471,104.789916 L37.5294118,89.8431373 M11.2588235,93.5798319 L0,104.789916 L11.2588235,116" id="Shape"></path>
            </g>
        </g>
    </g>
</svg>