<?xml version="1.0" encoding="utf-8"?>
<!-- Generator: Adobe Illustrator 22.0.0, SVG Export Plug-In . SVG Version: 6.00 Build 0)  -->
<svg version="1.1" id="Layer_1" xmlns="http://www.w3.org/2000/svg" xmlns:xlink="http://www.w3.org/1999/xlink" x="0px" y="0px"
	 viewBox="0 0 155 122" style="enable-background:new 0 0 155 122;" xml:space="preserve">
<style type="text/css">
	.st0{fill:none;stroke:#4178BE;stroke-width:3;}
	.st1{fill:#4178BE;}
	.st2{enable-background:new    ;}
	.st3{fill:#3E76C1;}
	.st4{fill:none;stroke:#A2BBFC;stroke-width:2;stroke-dasharray:3;}
	.st5{fill:#3E76C0;}
</style>
<title>Group 5</title>
<desc>Created with Sketch.</desc>
<g id="Content-Solution-Landing-Page">
	<g id="Landing-Page-Final-Hover-State---1920W" transform="translate(-265.000000, -521.000000)">
		<g id="Group-5" transform="translate(265.000000, 521.000000)">
			<g id="Group-4">
				<g id="Group-13">
					<g id="Group-18">
						<path id="Path" class="st0" d="M153.4,19.9L153.4,19.9L153.4,19.9L153.4,19.9z M153.2,19.5l0.3-0.1v-15l-0.1-0.6l-0.3-0.5
							l-0.6-0.4l-0.7-0.5l-0.6-0.4l-0.7-0.1l-0.2-0.1l-0.8-0.3H5.7L4.5,1.8L4.1,1.9L3.2,2.4L2.6,2.8L2.3,3.1L1.8,4L1.5,4.6v14.4
							l0.2,0.2l0,0L2,19.5H153.2z M154.6,19.9l0,0.1h-1.2v-0.3l0.1-0.2L154.6,19.9z M1.5,19.2v0.3H0.8L1,19.1L1.5,19.2z M1.8,19.5
							L1.9,20l-0.4,0.1v-0.6H1.8z"/>
						<path id="Path_1_" class="st0" d="M153.5,120.5v-101H1.7l0,0l-0.1,0.3V120l0.2,0.3l0.1,0.2H153.5z M153.5,19.3v-0.5l0.1-0.1
							h0.7v0.7l-0.1,0.1h-0.5L153.5,19.3z M1.6,19.5H1.2L1,19.4V19l0.7,0.3L1.6,19.5z M1.5,19.7L1.5,19.7l-0.3-0.1h0.3V19.7z
							 M1.8,120.7l0.1,0.3L1,121.3V121l0.5-0.5h0.2L1.8,120.7z"/>
						<rect id="Rectangle" x="7" y="8" class="st1" width="9" height="7"/>
						<rect id="Rectangle_1_" x="19" y="8" class="st1" width="9" height="7"/>
					</g>
				</g>
			</g>
			<g class="st2">
				<path class="st3" d="M51.9,45v-2.7l6-6.7h-5.8v-2.6h9.8v2.7l-6,6.8H62V45H51.9z"/>
				<path class="st3" d="M63,48.5L69.8,28h2.8l-6.9,20.5H63z"/>
				<path class="st3" d="M81.2,45.3c-1.1,0-2-0.2-2.9-0.5s-1.6-0.9-2.2-1.6c-0.6-0.7-1.1-1.6-1.4-2.6s-0.5-2.2-0.5-3.6
					c0-1.4,0.2-2.6,0.5-3.6c0.3-1,0.8-1.9,1.4-2.6c0.6-0.7,1.4-1.2,2.2-1.6s1.8-0.5,2.9-0.5c1.1,0,2,0.2,2.9,0.5s1.6,0.9,2.2,1.6
					c0.6,0.7,1.1,1.6,1.4,2.6c0.3,1,0.5,2.2,0.5,3.6c0,1.4-0.2,2.6-0.5,3.6c-0.3,1-0.8,1.9-1.4,2.6c-0.6,0.7-1.4,1.2-2.2,1.6
					S82.3,45.3,81.2,45.3z M81.2,42.2c1.1,0,1.9-0.3,2.5-1c0.6-0.7,0.9-1.7,0.9-3v-2.4c0-1.3-0.3-2.3-0.9-3c-0.6-0.7-1.4-1-2.5-1
					c-1.1,0-1.9,0.3-2.5,1c-0.6,0.7-0.9,1.7-0.9,3v2.4c0,1.3,0.3,2.3,0.9,3C79.3,41.8,80.1,42.2,81.2,42.2z"/>
				<path class="st3" d="M96.3,45.3c-1.4,0-2.6-0.2-3.6-0.7c-1-0.5-1.8-1.1-2.5-1.9l2.3-2.3c1.1,1.2,2.4,1.8,4,1.8
					c0.9,0,1.5-0.2,1.9-0.5c0.4-0.3,0.6-0.8,0.6-1.4c0-0.4-0.1-0.8-0.4-1.1s-0.7-0.5-1.5-0.6l-1.6-0.2c-1.7-0.2-2.9-0.7-3.7-1.5
					c-0.8-0.8-1.2-1.9-1.2-3.2c0-0.7,0.1-1.4,0.4-2s0.7-1.1,1.2-1.5c0.5-0.4,1.1-0.8,1.9-1c0.7-0.2,1.6-0.4,2.5-0.4
					c1.2,0,2.3,0.2,3.2,0.6s1.7,0.9,2.4,1.7l-2.3,2.3c-0.4-0.4-0.8-0.8-1.4-1.1c-0.5-0.3-1.2-0.4-2.1-0.4c-0.8,0-1.4,0.1-1.7,0.4
					c-0.4,0.3-0.6,0.7-0.6,1.1c0,0.5,0.1,0.9,0.4,1.2s0.8,0.4,1.5,0.5l1.6,0.3c1.7,0.3,2.9,0.8,3.7,1.5s1.2,1.8,1.2,3.2
					c0,0.8-0.1,1.5-0.4,2.1s-0.7,1.2-1.2,1.7c-0.5,0.5-1.2,0.8-2,1.1C98.2,45.1,97.3,45.3,96.3,45.3z"/>
			</g>
			<g id="Group-7" transform="translate(39.000000, 40.000000)">
				<path id="Stroke-1" class="st4" d="M0.3,37.8c-2-15.5,5.8-27.7,12.1-34.3"/>
				<path id="Stroke-3" class="st4" d="M76.1,25.1C75,12.8,67,4.8,61,0.8"/>
				<path id="Stroke-5" class="st4" d="M51.4,67.2c-11.3,5-22.2,1.8-28.6-1.5"/>
			</g>
			<path id="Shape" class="st3" d="M86.1,84.7c-2.4-1.7-5.3-1.7-7.1-1.5c-0.9-3.9-4.5-6.1-4.6-6.3L73,76.2l-1,1.3
				c-3,4-2.2,8.2-0.9,10.9c-1,0.5-2.1,0.8-3.2,0.9h-1.1v-6.5h-7.3V70h-8.8v6.4H36.3v6.3h-7.2v6.5h-4.7l-0.2,1.5
				C24.1,91,23,99,28.2,105.2c3.9,4.5,10,6.8,18.3,6.8c12.8,0,20.7-5.7,25.1-10.5c2.5-2.7,4.5-5.9,6-9.3c8-0.1,9.1-5.5,9.2-5.7
				l0.2-1.1L86.1,84.7L86.1,84.7z M53.3,82.7v-3.8H57v3.8H53.3z M38.8,89v-3.8h3.8V89H38.8z M46,89v-3.8h3.8V89H46L46,89z M53.3,89
				v-3.8H57V89H53.3z M60.5,85.2h3.7V89h-3.7V85.2z M53.3,72.5H57v3.8h-3.8V72.5z M46,78.9h3.8v3.8H46L46,78.9L46,78.9z M38.8,78.9
				h3.8v3.8h-3.8V78.9L38.8,78.9z M31.6,85.2h3.7V89h-3.7C31.6,89,31.6,85.2,31.6,85.2z M46.6,108.5c-3.9,0-7.3-0.6-10.1-1.7
				c2-0.4,4.4-1.2,6.5-2.7c0.8-0.6,0.9-1.7,0.3-2.5c-0.6-0.7-1.5-0.9-2.3-0.4c-3.4,2.4-7.8,2.6-9.3,2.6c-0.3-0.3-0.6-0.6-0.8-0.9
				c-3-3.5-3.4-8-3.4-10.2h40.4c0.2,0,3.8,0,6.6-2.5l0.2-0.2C74.4,90.9,68.1,108.5,46.6,108.5L46.6,108.5z M76.5,88.7l-1.1-0.1
				l-0.6-0.9c0,0-2.3-3.2-0.9-6.6c0.9,0.9,1.9,2.4,1.8,4.1l-0.1,2.5L78,87c0,0,2.5-0.8,4.8-0.1C81.9,87.8,80.2,88.9,76.5,88.7z
				 M47.3,95.8c1.6,0,2.8,1.3,2.8,2.9c0,1.6-1.3,2.9-2.8,2.9c-1.6,0-2.8-1.3-2.8-2.9C44.5,97.1,45.7,95.8,47.3,95.8L47.3,95.8z
				 M47.3,99.3c0.4,0,0.6-0.3,0.6-0.6c0-0.4-0.3-0.6-0.6-0.6l0,0c-0.4,0-0.6,0.3-0.6,0.6C46.7,99,47,99.3,47.3,99.3z"/>
			<path id="Shape_1_" class="st5" d="M131.6,103.4c-0.2-0.2-0.5-0.5-0.9-0.7c-0.1,0-0.2-0.1-0.5-0.3c-0.3-0.1-0.5-0.3-0.6-0.4
				c-0.2-0.1-0.4-0.3-0.6-0.6c-0.3-0.3-0.5-0.5-0.6-0.8c-0.1-0.3-0.3-0.7-0.4-1.2c-0.1-0.5-0.2-1.1-0.2-1.7
				c-0.3,0.2-0.4,0.7-0.5,1.4c0,0.7,0.1,1.4,0.4,2.1c0.3,0.7,0.8,1.2,1.5,1.4c0.6,0.2,1.1,0.4,1.5,0.7c0.4,0.2,0.6,0.5,0.7,0.8
				c0.1,0.3-0.1,0.7-0.5,1c-0.5,0.4-1.2,0.7-2.3,1.1c-1.4,0.5-2.5,0.9-3.1,1.3c-0.6,0.3-1.5,1-2.6,2c-0.8,0.7-1.6,1-2.5,1.1
				c-0.9,0-1.6-0.3-2.2-1c-0.6-0.7-0.7-1.7-0.5-3c0.4-2.5,0.4-4.4,0-5.8c-0.3-1.1-0.4-2-0.2-2.9c0.2-0.8,0.5-1.3,0.8-1.4
				c0.4-0.1,0.8,0.2,1.2,0.9c0,0.1,0.1,0.3,0.3,0.6c0.1,0.3,0.3,0.5,0.3,0.6c0.1,0.1,0.2,0.3,0.4,0.5c0.2,0.2,0.4,0.3,0.7,0.4
				c0.3,0.1,0.6,0.1,0.9,0.1c0.7,0,1.3-0.1,1.8-0.4c0.5-0.3,0.9-0.6,1.2-1c0.3-0.4,0.5-0.7,0.8-1.1c0.3-0.3,0.5-0.5,0.7-0.6
				c0.2,0,0.4-0.3,0.6-0.7c0.2-0.4,0.3-0.9,0.4-1.6c0.1-0.7,0-1.5-0.1-2.5c-0.3-1.7-0.9-3.6-1.8-5.6c-0.9-2.1-1.9-3.7-2.9-4.8
				c-2-2.1-3.3-4.2-3.9-6.4c-0.7-2.3-1-4.5-0.9-6.3c0.1-1.3-0.2-2.8-0.9-4.4c-0.7-1.6-1.6-2.8-2.7-3.6c-0.7-0.5-1.6-0.9-2.6-1.2
				c-1-0.3-2.1-0.4-3.1-0.4c-1.3,0-2.3,0.2-3.1,0.6c-1.6,0.8-2.6,1.9-3.1,3.1c-0.5,1.2-0.7,2.7-0.7,4.5c0.1,3.9,0.2,7,0.5,9.2
				c-0.3,1-1.5,2.9-3.7,5.8c-0.4,0.4-0.8,0.9-1.2,1.6c-0.4,0.7-0.7,1.3-0.9,1.8c-0.2,0.5-0.5,1.3-0.9,2.3c-0.4,1-0.6,1.7-0.8,2.1
				c-0.1,0.4-0.4,0.8-0.7,1.2c-0.3,0.5-0.5,0.9-0.7,1.4c-0.2,0.5-0.3,1-0.3,1.5c0,0.4,0,0.8,0.1,1.1c0.1,0.5,0.2,0.6,0.4,0.4
				c0.9-0.7,2-0.3,3.3,1.2c0.9,1,2.6,3.4,5,7.2c0.2,0.3,0.4,0.7,0.6,1.1c0.2,0.4,0.4,0.9,0.6,1.5c0.2,0.6,0.3,1.2,0.2,1.7
				c0,0.5-0.3,1-0.7,1.4c-0.4,0.4-1.1,0.7-1.9,0.8c-0.5,0.1-1,0-1.6-0.1c-0.6-0.1-1.5-0.4-2.4-0.7c-1-0.3-1.7-0.5-2.2-0.7
				c-0.7-0.2-1.7-0.4-2.9-0.6c-1.3-0.2-2.1-0.4-2.5-0.5c-0.7-0.2-1-0.4-1.1-0.8c-0.1-0.3,0.1-0.7,0.4-1.4c0.3-0.7,0.5-1.2,0.5-1.4
				c0-0.2,0-0.4,0-0.7c0-0.2-0.1-0.4-0.1-0.5c0-0.1-0.1-0.3-0.3-0.5c-0.1-0.2-0.2-0.4-0.2-0.5c-0.4-0.8-0.4-1.4-0.1-1.7
				c0.2-0.3,0.6-0.4,1.3-0.3c1,0.1,1.8,0,2.5-0.4c1-0.7,1.4-1.7,0.9-3.1c0,0.7-0.1,1.2-0.4,1.5c-0.2,0.3-0.7,0.7-1.2,1
				c-0.3,0.2-0.9,0.3-1.8,0.4c-0.8,0-1.4,0.2-1.7,0.4c-0.2,0.2-0.3,0.4-0.3,0.8c0,0.4,0,0.7,0.1,1.1c0.1,0.4,0.2,0.8,0.3,1.3
				c0.1,0.5,0.1,0.9,0.1,1.2c0,0.2-0.2,0.8-0.5,1.6c-0.3,0.9-0.4,1.5-0.2,2c0.1,0.2,0.3,0.4,0.5,0.6c0.2,0.2,0.6,0.3,1,0.4
				c0.4,0.1,0.8,0.2,1.2,0.3c0.4,0.1,0.8,0.2,1.5,0.3c0.6,0.1,1.1,0.2,1.5,0.3c1.3,0.3,2.7,0.7,4.3,1.3c1.6,0.6,2.7,0.9,3.3,0.9
				c0.6,0,1.1-0.1,1.6-0.3c0.5-0.2,0.9-0.5,1.3-0.8c0.4-0.3,0.9-0.6,1.6-0.9c0.7-0.3,1.5-0.4,2.4-0.4c0.4,0,1,0,1.7-0.1
				c0.7,0,1.3,0,1.7,0c1.7,0,3,0,3.8,0c0.6,0,1.1,0.1,1.4,0.3c0.3,0.2,0.6,0.4,0.7,0.6c0.1,0.2,0.3,0.5,0.5,0.8
				c0.2,0.3,0.5,0.5,0.9,0.7c0.7,0.4,1.6,0.5,2.6,0.4c1-0.1,1.7-0.3,2-0.6c0.6-0.5,1.3-1.2,2.2-1.9c0.9-0.7,1.8-1.3,2.5-1.7
				c0.2-0.1,0.4-0.2,0.8-0.4c0.4-0.2,0.7-0.3,0.9-0.5c0.3-0.1,0.6-0.3,0.9-0.5c0.4-0.2,0.7-0.4,0.9-0.5c0.2-0.2,0.5-0.4,0.7-0.6
				c0.2-0.2,0.4-0.4,0.5-0.7c0.1-0.2,0.1-0.4,0.1-0.7C132,103.9,131.9,103.6,131.6,103.4z M115.8,74.8c0.1,0,0.1-0.1,0.1,0
				c0,0,0.1,0,0.1,0.1c0.1,0.1,0.1,0.1,0.2,0.2c0,0.1,0.1,0.1,0.2,0.2c0.1,0.1,0.2,0.2,0.3,0.2c0.1,0.1,0.3,0.1,0.4,0.2
				c0.2,0,0.3,0.1,0.4,0.1c0.1,0.1,0.2,0.2,0.2,0.3c0,0.2,0,0.4-0.1,0.6c-0.1,0.2-0.3,0.3-0.4,0.2c-0.4-0.1-0.7-0.4-1.2-0.9
				C115.6,75.5,115.5,75.1,115.8,74.8z M112.1,63.3c0.1-0.1,0.2-0.2,0.2-0.3c0-0.1,0-0.2,0-0.4c0-0.1,0-0.3,0-0.4
				c0-0.1,0.2-0.2,0.3-0.2c0.2,0,0.4,0.1,0.7,0.4c0.1,0,0.2,0.1,0.3,0.2c0.1,0.1,0.2,0.1,0.3,0.2c0,0.1,0.1,0.1,0.1,0.1
				c0,0.1-0.1,0.2-0.3,0.2c-0.1,0-0.3,0.1-0.4,0.1c-0.2,0-0.2,0-0.3,0c-0.2,0.1-0.3,0.1-0.4,0.3c-0.1,0.1-0.2,0.2-0.3,0.3
				c-0.1,0.1-0.2,0.1-0.2,0c-0.1-0.1-0.1-0.2-0.1-0.3C112,63.5,112,63.4,112.1,63.3z M97.8,85.4c0.1-0.2,0.2-0.3,0.3-0.4
				c0.1-0.1,0.1-0.2,0.2-0.4c0-0.2,0.1-0.3,0.1-0.4c0-0.1,0.1-0.1,0.2-0.1c0,0,0.1,0,0.1,0.1c0,0,0,0.1,0,0.1v0.1c0,0,0,0.1,0,0.1
				c0,0,0,0.1,0,0.1c0,0,0,0.1-0.1,0.2c0,0.1,0,0.1-0.1,0.2c-0.1,0.2-0.2,0.4-0.4,0.5c-0.2,0.2-0.3,0.2-0.4,0.2
				C97.7,85.8,97.7,85.6,97.8,85.4z M117.1,103.7c0,0.6-0.2,1.5-0.4,2.7c-0.2,1.1-0.4,1.9-0.4,2.3c-0.4,0-0.7-0.2-0.7-0.5
				c-0.1-0.3,0-0.7,0.2-1.1c0.4-1.3,0.7-2.2,0.7-2.7c0-0.9-0.1-1.4-0.3-1.5c-0.2-0.2-0.6,0.1-1,0.9c-0.9,1.4-2.6,2.3-5.2,2.6
				c-2.4,0.3-4,0-4.9-1.1c-0.2-0.1-0.4-0.2-0.6-0.1c-0.2,0.1-0.3,0.2-0.4,0.3c0,0,0,0.1,0.1,0.2c0.1,0.1,0.2,0.2,0.3,0.4
				c0.1,0.2,0.2,0.3,0.3,0.5c0.8,1.3,0.7,2.2-0.2,2.7c0-0.9-0.1-1.6-0.2-2.1c-0.1-0.5-0.4-1-0.8-1.6c-0.4-0.6-0.7-1-0.9-1.3
				c0.6-0.1,1-0.3,1.3-0.7c0.3-0.4,0.4-0.8,0.4-1.3c0-0.5-0.2-0.8-0.5-1.1c-0.2-0.2-1.1-0.9-2.8-2.3c-1.7-1.3-2.7-2.2-3.1-2.7
				c-0.1-0.1-0.3-0.3-0.7-0.6c-0.4-0.3-0.6-0.6-0.7-0.8c-0.9-2-1-3.6-0.3-4.9l0.1-0.1c0.1,0,0.1,0.2,0,0.5c-0.1,0.6-0.2,1.1-0.1,1.7
				c0.1,1.2,0.4,2.2,1.1,2.8c0.4,0.4,0.7,0.4,0.9-0.1c0.1-0.2,0.2-0.7,0.2-1.7c0-1,0-1.7,0-2c0.2-1.1,0.6-2.5,1.4-4.2
				c0.8-1.7,1.4-2.5,1.8-2.7c-0.4-0.6-0.5-1.2-0.3-1.9c0.1-0.7,0.3-1.2,0.6-1.7c0.3-0.5,0.6-1,0.9-1.6c0.3-0.6,0.4-1.2,0.4-1.7
				c0-0.1,0-0.2,0-0.3c0.1-0.2,0.3,0,0.7,0.7c0.8,1.2,1.4,1.9,1.9,2.2c0.4,0.2,0.9,0.2,1.4,0c0.5-0.3,1.2-0.7,2-1.3
				c0.8-0.6,1.4-1,2-1.3c0.1,0,0.2-0.1,0.3-0.1c0.1-0.1,0.2-0.1,0.3-0.1c0.1,0,0.2-0.1,0.3-0.1c0.1-0.1,0.2-0.1,0.3-0.1
				c0.1,0,0.1-0.1,0.2-0.1c0.1,0,0.1-0.1,0.1-0.1c0,0,0-0.1,0-0.1c0-0.2-0.1-0.3-0.3-0.3c-0.1,0-0.3,0-0.5,0.1
				c-0.2,0.1-0.5,0.2-0.7,0.4c-0.3,0.1-0.6,0.3-0.9,0.5c-0.3,0.2-0.7,0.4-1,0.5c-0.3,0.2-0.7,0.3-1.1,0.4c-0.4,0.1-0.7,0.2-1.1,0.2
				c-0.8,0-1.5-0.2-2-0.7c-0.3-0.3-0.5-0.5-0.5-0.6c0-0.1,0.1-0.1,0.3-0.1c1.1,0.1,1.8,0.2,2.3,0.1c0.5-0.1,1.2-0.3,2.1-0.7
				c0.2-0.1,0.6-0.3,1.3-0.6c0.7-0.3,1.3-0.5,1.7-0.6c0.2-0.1,0.4-0.2,0.5-0.3c0.1-0.1,0.1-0.2,0.1-0.4c0-0.1-0.1-0.2-0.2-0.3
				c-0.2-0.1-0.4,0-0.6,0.2c-0.1,0.2-0.3,0.4-0.6,0.5c-0.3,0.2-0.6,0.3-0.9,0.4c-0.3,0.1-0.6,0.2-1,0.3c-0.4,0.1-0.6,0.2-0.7,0.2
				c-1.1,0.3-2.1,0.5-3,0.4c-0.4,0-0.8-0.1-1-0.2c-0.3-0.1-0.4-0.2-0.5-0.4c-0.1-0.1-0.3-0.3-0.5-0.6c-0.2-0.2-0.5-0.4-0.7-0.6
				c-0.2-0.1-0.3-0.3-0.2-0.5c0-0.3,0.2-0.5,0.5-0.8c0,0,0.2-0.1,0.6-0.4c0.4-0.2,0.7-0.5,0.8-0.7c0.2-0.3,0.5-0.6,0.9-0.9
				c0-0.1,0-0.3,0-0.7c0-0.4-0.1-0.7-0.3-1.2c-0.2-0.4-0.5-0.6-0.8-0.6c-0.5,0-0.8,0.1-1,0.4c-0.2,0.3-0.3,0.7-0.3,1.1
				c0,0.4,0.1,0.7,0.3,1c0.2,0.3,0.3,0.4,0.5,0.4c0.2,0,0.3,0.1,0.2,0.2c-0.1,0.2-0.3,0.4-0.5,0.4c-0.1,0-0.3-0.1-0.5-0.4
				c-0.2-0.3-0.3-0.7-0.4-1.1c-0.1-0.4-0.1-0.8-0.1-1.1c0-0.6,0.2-1.2,0.5-1.8c0.3-0.6,0.7-0.8,1.2-0.8c0.6,0,1,0.4,1.3,1
				c0.3,0.7,0.5,1.5,0.5,2.7c0.1,0.1,0.2,0.2,0.5,0.1c0.2,0,0.6,0,1,0c0.4,0,0.7,0.1,0.9,0.3c0,0,0-0.1,0-0.4
				c-0.4-2.5,0.5-3.8,2.6-4c0.3,0.1,0.6,0.1,0.8,0.2c0.2,0.1,0.4,0.2,0.7,0.4c0.2,0.2,0.5,0.5,0.6,0.9c0.2,0.4,0.3,0.9,0.4,1.5v1.1
				c0,0.6-0.1,1-0.4,1.1c-0.4,0.1-0.7,0.1-0.9,0c-0.2-0.1-0.2-0.4,0.1-0.8c0.2-0.5,0.2-1.1-0.1-1.7c-0.3-0.7-0.8-0.9-1.5-0.9
				c-0.5,0-0.8,0.3-1.1,0.8c-0.2,0.5-0.3,1-0.2,1.5c0.1,0.5,0.2,0.7,0.3,0.8c0.1,0,0.5,0.2,1,0.5c0.6,0.3,1,0.5,1.3,0.5
				c0.8,0.2,1.2,0.4,1.3,0.7c0.1,0.3,0.1,0.8-0.1,1.5c-0.2,0.6-0.3,1.2-0.2,1.6c0.1,0.4,0.2,0.8,0.4,1.2c0.2,0.4,0.4,0.7,0.7,1
				c0.2,0.3,0.5,0.8,0.9,1.7c0.3,0.8,0.6,1.8,0.9,3c0,0,0.1,0.1,0.2,0.2c0.1,0.1,0.3,0.3,0.4,0.4c0.1,0.2,0.3,0.4,0.5,0.7
				c0.2,0.3,0.4,0.8,0.6,1.3c0.2,0.6,0.4,1.3,0.6,2c0.2,0.9,0.3,2,0.3,3.2c0,1.2,0.1,2,0.2,2.5c0.1,0.4,0.5,0.6,1.1,0.5
				c0.8,0,1.3-0.5,1.5-1.2c0.7-2.3,0.1-5-1.6-8.2c-0.7-1.2-1.2-2.1-1.7-2.5c0.7,0.4,1.4,1.1,2.1,2.2c0.7,1.1,1.2,2.1,1.4,3
				c0,0.1,0.1,0.4,0.2,0.8c0.1,0.4,0.1,0.7,0.1,0.7c0,0.1,0,0.3,0.1,0.6c0.1,0.3,0.1,0.6,0.1,0.7c0,0.1,0,0.3,0,0.6
				c0,0.3,0,0.5,0,0.7c0,0.2-0.1,0.4-0.1,0.6c0,0.3-0.1,0.5-0.1,0.8c-0.1,0.2-0.1,0.5-0.2,0.8c1.1,0.5,1.6,0.9,1.6,1.2
				c-0.4-0.3-1-0.6-1.8-0.7c-0.8-0.1-1.5,0-2.1,0.3c-0.7,0.3-1,0.8-1,1.6c-0.7,0-1.2,0.2-1.5,0.5c-0.4,0.5-0.7,1.2-0.7,2.1
				c0,0.9,0.1,1.8,0.2,2.9C117.1,102.5,117.2,103.3,117.1,103.7z M104.8,69.4c-0.1,0-0.1-0.1-0.1-0.2c0-0.2,0.1-0.2,0.3-0.2
				c0.1,0,0.2,0.2,0.3,0.4c0.1,0.3,0.1,0.6,0.1,0.9c0,0.1,0,0.1-0.1,0.1c-0.2,0-0.3-0.2-0.2-0.6C105,69.6,105,69.4,104.8,69.4z
				 M112.4,69.9L112.4,69.9c-0.2,0.2-0.3,0.2-0.3,0.1c-0.1-0.5-0.3-0.8-0.5-0.9l-0.1-0.1c-0.1-0.1-0.1-0.2,0.2-0.2
				c0.1,0,0.1,0,0.3,0.1c0.1,0.1,0.2,0.2,0.3,0.4C112.4,69.5,112.4,69.7,112.4,69.9z"/>
		</g>
	</g>
</g>
</svg>
