<?xml version="1.0" encoding="utf-8"?>
<!-- Generator: Adobe Illustrator 22.0.0, SVG Export Plug-In . SVG Version: 6.00 Build 0)  -->
<svg version="1.1" id="Layer_1" xmlns="http://www.w3.org/2000/svg" xmlns:xlink="http://www.w3.org/1999/xlink" x="0px" y="0px"
	 viewBox="0 0 150 150" style="enable-background:new 0 0 150 150;" xml:space="preserve">
<style type="text/css">
	.st0{fill:none;stroke:#4178BE;stroke-width:3;}
	.st1{fill:#A3C4F4;stroke:#437ABF;stroke-width:0.7748;}
	.st2{fill:#A3C4F4;stroke:#4178BE;stroke-width:0.7748;}
	.st3{enable-background:new    ;}
	.st4{fill:#4178BE;}
</style>
<title>Group 31</title>
<desc>Created with Sketch.</desc>
<g id="Page-1_1_">
	<g id="Group-31_1_" transform="translate(2.000000, 2.000000)">
		<g id="Group-30_1_" transform="translate(56.000000, 69.000000)">
			<g id="Group-9_1_" transform="translate(0.000000, 1.000000)">
				<path id="Stroke-1_3_" class="st0" d="M-6.3,9.1l-23.5-3.4c-1.2-0.2-2.2-1-2.6-2.1c-0.4-1.1-0.3-2.4,0.5-3.3l13.4-16.8
					c0.6-0.8,1.6-1.3,2.6-1.3H9.6l12.7-12.7c7-7,16.3-10.8,26.1-10.8h6.2c3.7,0,6.7,3,6.7,6.7v6.2c0,9.9-3.8,19.1-10.8,26.1
					L37.8,10.5V36c0,1-0.5,2-1.3,2.6L19.8,52c-0.6,0.5-1.3,0.7-2.1,0.7c-0.4,0-0.8-0.1-1.2-0.2c-1.1-0.4-1.9-1.5-2.1-2.6L11,26.4"/>
				<polygon id="Fill-3_1_" class="st1" points="-7.8,31.6 -11.5,28 9.3,7.1 13,10.8 				"/>
				<polygon id="Fill-5_1_" class="st2" points="-29,38 -32.6,34.3 -11.8,13.4 -8.1,17.1 				"/>
				<polygon id="Fill-7_1_" class="st2" points="-14.2,52.8 -17.9,49.1 3,28.2 6.7,31.9 				"/>
			</g>
			<g class="st3">
				<path class="st4" d="M40.8-8.8l-11-9.9l2.5-2.8l15.1-2.5L40.7-30l2.5-2.8l10.4,9.4l-2.5,2.8L36-18.1l7.3,6.6L40.8-8.8z"/>
			</g>
		</g>
		<path id="Stroke-1_2_" class="st0" d="M73,1.5c39.5,0,71.5,32,71.5,71.5s-32,71.5-71.5,71.5S1.5,112.5,1.5,73S33.5,1.5,73,1.5z"/>
	</g>
</g>
</svg>
