<?xml version="1.0" encoding="utf-8"?>
<!-- Generator: Adobe Illustrator 24.1.0, SVG Export Plug-In . SVG Version: 6.00 Build 0)  -->
<svg version="1.1" id="Layer_1" xmlns="http://www.w3.org/2000/svg" xmlns:xlink="http://www.w3.org/1999/xlink" x="0px" y="0px"
	 width="32px" height="32.1px" viewBox="0 0 32 32.1" style="enable-background:new 0 0 32 32.1;" xml:space="preserve">
<style type="text/css">
	.st0{fill:#FFFFFF;}
</style>
<path class="st0" d="M14.5,21.5c0-0.8,0.7-1.5,1.5-1.5s1.5,0.7,1.4,1.5c0,0.6-0.2,1-0.6,1.3c-0.1,0.1-0.3,0.2-0.5,0.2v2
	c0,0.2-0.1,0.4-0.3,0.4s-0.4-0.2-0.4-0.4v-2C15,22.8,14.5,22.2,14.5,21.5z M26.3,13v18c0,0.2-0.1,0.4-0.3,0.4H6
	c-0.2,0-0.4-0.2-0.4-0.4V13c0-0.2,0.2-0.3,0.4-0.3h4.6V6c0-3,2.4-5.4,5.4-5.4S21.4,3,21.4,6v6.7H26C26.2,12.7,26.3,12.8,26.3,13z
	 M11.3,12.7h0.1h9.1h0.1h0.1V6c0-2.6-2.1-4.6-4.6-4.6c0,0-0.1,0-0.1,0c0,0-0.1,0-0.1,0c-2.5,0-4.6,2-4.6,4.6V12.7z M25.6,13.4H6.3
	v17.3h19.3V13.4z"/>
</svg>
