<?xml version="1.0" encoding="utf-8"?>
<!-- Generator: Adobe Illustrator 24.1.0, SVG Export Plug-In . SVG Version: 6.00 Build 0)  -->
<svg version="1.1" id="Layer_1" xmlns="http://www.w3.org/2000/svg" xmlns:xlink="http://www.w3.org/1999/xlink" x="0px" y="0px"
	 width="32px" height="32px" viewBox="0 0 32 32" style="enable-background:new 0 0 32 32;" xml:space="preserve">
<style type="text/css">
	.st0{fill:#FFFFFF;}
</style>
<path class="st0" d="M1,8.4h25c0.2,0,0.4-0.2,0.4-0.4V1c0-0.1,0-0.2-0.1-0.2c-0.1-0.1-0.2-0.1-0.2-0.1H1C0.8,0.6,0.6,0.8,0.6,1v7
	C0.6,8.2,0.8,8.4,1,8.4z M1.4,1.4h24.3v6.3H1.4V1.4z M1,18.6h18v0.7H1.4v6.3H19v0.7H1c-0.2,0-0.4-0.2-0.4-0.4v-7
	C0.6,18.8,0.8,18.6,1,18.6z M1.4,16.6H19v0.7H1c-0.2,0-0.4-0.2-0.4-0.4v-7c0-0.2,0.2-0.4,0.4-0.4h25c0.2,0,0.4,0.2,0.4,0.4v3h-0.7
	v-2.6H1.4V16.6z M27,25c0,0.4-0.3,0.8-0.6,0.9V27c0,0.2-0.2,0.4-0.4,0.4c-0.2,0-0.4-0.2-0.4-0.4v-1.1C25.3,25.8,25,25.4,25,25
	c0-0.6,0.4-1,1-1S27,24.4,27,25z M31,20.6h-2.1v-3.1c0-1.6-1.3-2.9-2.9-2.9c-1.6,0-2.9,1.3-2.9,2.9v3.1H21c-0.2,0-0.4,0.2-0.4,0.4
	v10c0,0.2,0.2,0.4,0.4,0.4h10c0.2,0,0.4-0.2,0.4-0.4V21C31.4,20.8,31.2,20.6,31,20.6z M23.9,17.5c0-1.2,1-2.1,2.1-2.1s2.1,1,2.1,2.1
	v3.1h-4.3V17.5z M30.6,30.6h-9.3v-9.3h9.3V30.6z M24,4.8c0,0.6-0.4,1-1,1s-1-0.4-1-1s0.4-1,1-1S24,4.2,24,4.8z M23,12.8
	c0.6,0,1,0.4,1,1s-0.4,1-1,1s-1-0.4-1-1S22.4,12.8,23,12.8z"/>
</svg>
