<?xml version="1.0" encoding="utf-8"?>
<!-- Generator: Adobe Illustrator 24.1.0, SVG Export Plug-In . SVG Version: 6.00 Build 0)  -->
<svg version="1.1" id="Layer_1" xmlns="http://www.w3.org/2000/svg" xmlns:xlink="http://www.w3.org/1999/xlink" x="0px" y="0px"
	 width="32px" height="32px" viewBox="0 0 32 32" style="enable-background:new 0 0 32 32;" xml:space="preserve">
<style type="text/css">
	.st0{fill:#FFFFFF;}
</style>
<path class="st0" d="M11,23.7c-0.2,0-0.4,0-0.6-0.1C9.8,23.4,9.3,23,9,22.5c-0.3-0.5-0.4-1.2-0.2-1.8c0.2-0.6,0.6-1.1,1.1-1.4
	l5.5-3.2c0.1-2.4,2.2-4.3,4.6-4.2c1.1,0.1,2.1,0.5,2.9,1.3c0.1,0.1,0.1,0.2,0.1,0.3c0,0.1-0.1,0.2-0.2,0.3l-3.3,1.9
	c-0.3,0.2-0.4,0.6-0.2,0.9c0,0,0,0,0,0c0.1,0.1,0.2,0.3,0.4,0.3c0.2,0,0.3,0,0.5-0.1l3.3-1.9c0.1-0.1,0.2-0.1,0.3,0
	c0.1,0,0.2,0.1,0.2,0.2c0.6,2.3-0.7,4.7-3.1,5.4c-1.1,0.3-2.2,0.2-3.1-0.3l-5.5,3.1C11.8,23.5,11.4,23.7,11,23.7z M19.7,12.7
	c-0.6,0-1.3,0.2-1.8,0.5C16.7,13.8,16,15,16,16.3c0,0.1-0.1,0.3-0.2,0.3l-5.6,3.3c-0.4,0.2-0.7,0.6-0.8,1c-0.1,0.4-0.1,0.9,0.2,1.2
	l0,0c0.2,0.4,0.6,0.7,1,0.8c0.4,0.1,0.9,0.1,1.2-0.2l5.7-3.3c0.1-0.1,0.2-0.1,0.4,0c1.7,1,4,0.4,5-1.3c0.4-0.7,0.6-1.5,0.5-2.3
	l-2.9,1.7c-0.3,0.2-0.7,0.2-1,0.1c-0.4-0.1-0.7-0.3-0.9-0.6c-0.2-0.3-0.2-0.7-0.1-1c0.1-0.3,0.3-0.6,0.6-0.8l2.9-1.7
	C21.3,12.9,20.5,12.7,19.7,12.7L19.7,12.7z M30,27.7H2c-0.2,0-0.4-0.2-0.4-0.4l0,0v-22C1.7,5.1,1.8,5,2,5h28c0.2,0,0.4,0.2,0.4,0.4
	c0,0,0,0,0,0v22C30.3,27.5,30.2,27.7,30,27.7z M2.4,27h27.3V8.7H2.4V27z M2.4,8h27.3V5.7H2.4V8z M27.5,6.3c-0.3,0-0.5,0.2-0.5,0.5
	s0.2,0.5,0.5,0.5c0.3,0,0.5-0.2,0.5-0.5C28,6.5,27.8,6.3,27.5,6.3z M25.5,6.3c-0.3,0-0.5,0.2-0.5,0.5s0.2,0.5,0.5,0.5
	c0.3,0,0.5-0.2,0.5-0.5C26,6.5,25.8,6.3,25.5,6.3z M23.5,6.3c-0.3,0-0.5,0.2-0.5,0.5s0.2,0.5,0.5,0.5c0.3,0,0.5-0.2,0.5-0.5
	C24,6.5,23.8,6.3,23.5,6.3z"/>
</svg>
