<?xml version="1.0" encoding="utf-8"?>
<!-- Generator: Adobe Illustrator 24.1.0, SVG Export Plug-In . SVG Version: 6.00 Build 0)  -->
<svg version="1.1" id="Layer_1" xmlns="http://www.w3.org/2000/svg" xmlns:xlink="http://www.w3.org/1999/xlink" x="0px" y="0px"
	 width="32px" height="32px" viewBox="0 0 32 32" style="enable-background:new 0 0 32 32;" xml:space="preserve">
<style type="text/css">
	.st0{fill:#FFFFFF;}
</style>
<path class="st0" d="M30.7,22H1.4V6.4c0-0.9,0.7-1.6,1.6-1.6h18V4.1H3c-1.3,0-2.4,1.1-2.4,2.4v18c0,1.3,1.1,2.4,2.4,2.4h12.6v3.3H11
	v0.7h10v-0.7h-4.6v-3.3h12.5c1.3,0,2.4-1.1,2.4-2.4v-5h-0.6V22z M30.7,24.4c0,0.9-0.7,1.6-1.6,1.6H29H3c-0.9,0-1.6-0.7-1.6-1.6v-1.6
	h29.2h0.1V24.4z M31,7.1h-2.1V4c0-1.6-1.3-2.9-2.9-2.9S23.1,2.4,23.1,4v3.1H21c-0.2,0-0.4,0.2-0.4,0.4v10c0,0.2,0.2,0.4,0.4,0.4h10
	c0.2,0,0.4-0.2,0.4-0.4v-10C31.4,7.3,31.2,7.1,31,7.1z M23.9,4c0-1.1,1-2.1,2.1-2.1c0,0,0,0,0.1,0c0,0,0,0,0,0
	c1.1,0,2.1,0.9,2.1,2.1v3.1H24h-0.1V4z M30.7,17.1h-0.1h-9.2h-0.1V7.8h0.1h1.9h0.1c0.1,0,0.1,0,0.1,0h0.1h7h0.1V17.1z M27,11.5
	c0,0.4-0.3,0.8-0.6,0.9v1.1c0,0.2-0.2,0.4-0.4,0.4s-0.4-0.2-0.4-0.4v-1.1c-0.3-0.1-0.6-0.5-0.6-0.9c0-0.6,0.4-1,1-1S27,10.9,27,11.5
	z"/>
</svg>
