<?xml version="1.0" encoding="utf-8"?>
<!-- Generator: Adobe Illustrator 24.1.0, SVG Export Plug-In . SVG Version: 6.00 Build 0)  -->
<svg version="1.1" id="Layer_1" xmlns="http://www.w3.org/2000/svg" xmlns:xlink="http://www.w3.org/1999/xlink" x="0px" y="0px"
	 width="32px" height="32px" viewBox="0 0 32 32" style="enable-background:new 0 0 32 32;" xml:space="preserve">
<path d="M30.4,20.5h-1.7V18c0-1.2-0.9-2.2-2-2.4v-3.3c1.4-0.2,2.5-1.3,2.5-2.8c0-1.6-1.3-2.9-2.9-2.9c-0.9,0-1.8,0.5-2.3,1.2l-6-3.3
	c0.1-0.3,0.2-0.6,0.2-1c0-1.6-1.3-2.9-2.9-2.9c-1.6,0-2.9,1.3-2.9,2.9c0,0.3,0.1,0.7,0.2,1l-6,3.3C6.1,7.1,5.3,6.6,4.3,6.6
	c-1.6,0-2.9,1.3-2.9,2.9c0,1.5,1.1,2.6,2.3,2.8v7.4c-1.4,0.2-2.5,1.3-2.5,2.8c0,1.6,1.3,2.9,2.9,2.9c0.9,0,1.8-0.5,2.3-1.2l6,3.3
	c-0.1,0.3-0.2,0.6-0.2,1c0,1.6,1.3,2.9,2.9,2.9c1.6,0,2.9-1.3,2.9-2.9c0-0.3-0.1-0.7-0.2-1l3.9-2.2V29c0,0.2,0.2,0.4,0.4,0.4h8.1
	c0.2,0,0.4-0.2,0.4-0.4v-8.1C30.6,20.7,30.5,20.5,30.4,20.5z M27.8,18v2.5h-3.3V18c0-0.7,0.4-1.2,0.9-1.5c0.2-0.1,0.4-0.2,0.7-0.2
	c0,0,0,0,0,0c0,0,0,0,0.1,0C27.1,16.3,27.9,17.1,27.8,18z M26.2,7.4c1.1,0,2.1,1,2.1,2.1s-0.9,2.1-2.1,2.1c-0.1,0-0.3,0-0.4,0
	c-0.1,0-0.2-0.1-0.3-0.1c0,0,0,0,0,0c-0.1,0-0.2-0.1-0.3-0.2c0,0,0,0-0.1,0c-0.1,0-0.1-0.1-0.2-0.2c0,0-0.1-0.1-0.1-0.1
	c0,0-0.1-0.1-0.1-0.1c-0.1-0.1-0.1-0.1-0.2-0.2c0,0,0,0,0-0.1c-0.1-0.1-0.1-0.2-0.2-0.3c0,0,0,0,0,0c0-0.1-0.1-0.2-0.1-0.3
	c0-0.1,0-0.3,0-0.4C24.1,8.3,25,7.4,26.2,7.4z M15.2,1.4c1.1,0,2.1,1,2.1,2.1s-0.9,2.1-2.1,2.1s-2.1-0.9-2.1-2.1S14.1,1.4,15.2,1.4z
	 M2.1,9.5c0-1.1,1-2.1,2.1-2.1c0,0,0,0,0,0c0,0,0,0,0,0c1.1,0,2.1,0.9,2.1,2.1s-1,2.1-2.1,2.1c0,0,0,0,0,0c0,0,0,0-0.1,0
	C3,11.6,2.1,10.6,2.1,9.5z M4.3,24.6C4.3,24.6,4.3,24.6,4.3,24.6C4.2,24.6,4.2,24.6,4.3,24.6c-1.2,0-2.2-1-2.2-2.1s0.9-2.1,2.1-2.1
	c0,0,0,0,0,0c0,0,0,0,0,0c1.1,0,2.1,0.9,2.1,2.1S5.4,24.6,4.3,24.6z M15.3,30.6C15.3,30.6,15.3,30.6,15.3,30.6
	C15.2,30.6,15.2,30.6,15.3,30.6c-1.2,0-2.2-1-2.2-2.1s0.9-2.1,2.1-2.1c0,0,0,0,0,0c0,0,0,0,0,0c1.1,0,2.1,0.9,2.1,2.1
	S16.4,30.6,15.3,30.6z M21.8,20.8v3.6l-4.3,2.4c-0.5-0.7-1.3-1.2-2.3-1.2c-0.9,0-1.8,0.5-2.3,1.2l-6-3.3c0.1-0.3,0.2-0.6,0.2-1
	c0-1.5-1.1-2.6-2.4-2.8v-7.4c1.4-0.2,2.5-1.3,2.5-2.8c0-0.3-0.1-0.7-0.2-1l6-3.3c0.5,0.7,1.3,1.2,2.3,1.2c0.9,0,1.8-0.5,2.3-1.2
	l6,3.3c-0.1,0.3-0.2,0.6-0.2,1c0,1.4,1.1,2.6,2.5,2.8v3.3c-1.1,0.2-2,1.2-2,2.4v2.4v0.1h-1.7C22,20.5,21.8,20.7,21.8,20.8z
	 M29.9,28.6h-7.4v-7.4h7.4V28.6z M25.2,24c0-0.6,0.4-1,1-1c0.6,0,1,0.4,1,1c0,0.4-0.2,0.8-0.6,0.9V26c0,0.2-0.2,0.4-0.4,0.4
	s-0.4-0.2-0.4-0.4v-1.1C25.5,24.8,25.2,24.4,25.2,24z"/>
</svg>
