<?xml version="1.0" encoding="utf-8"?>
<!-- Generator: Adobe Illustrator 24.1.0, SVG Export Plug-In . SVG Version: 6.00 Build 0)  -->
<svg version="1.1" id="Layer_1" xmlns="http://www.w3.org/2000/svg" xmlns:xlink="http://www.w3.org/1999/xlink" x="0px" y="0px"
	 width="32px" height="32px" viewBox="0 0 32 32" style="enable-background:new 0 0 32 32;" xml:space="preserve">
<path d="M17.7,8H4.2V7.2h13.5V8z M17.7,17.3H4.2V18h13.5V17.3z M17.7,10.6H4.2v0.7h13.5V10.6z M17.7,14H4.2v0.7h13.5V14z M30.4,22.2
	v5.6c0,1.4-1.2,2.6-2.6,2.6H4.2c-1.4,0-2.6-1.2-2.6-2.6V2c0-0.2,0.2-0.4,0.4-0.4h23.5c0.2,0,0.4,0.2,0.4,0.4v19.8H30
	C30.2,21.8,30.4,22,30.4,22.2z M4.2,29.6c1,0,1.9-0.8,1.9-1.9v-5.6c0-0.2,0.2-0.4,0.4-0.4h18.7V2.4H2.4v25.4
	C2.4,28.8,3.2,29.6,4.2,29.6z M29.6,22.5h-4.1H6.8v5.2c0,0.7-0.3,1.4-0.8,1.9h21.7c1,0,1.9-0.8,1.9-1.9V22.5z M23.3,7.2H21V8h2.2
	V7.2z M23.3,10.6H21v0.7h2.2V10.6z M23.3,14H21v0.7h2.2V14z M23.3,17.3H21V18h2.2V17.3z"/>
</svg>
