<?xml version="1.0" encoding="UTF-8"?>
<svg width="340px" height="310px" viewBox="0 0 340 310" version="1.1" xmlns="http://www.w3.org/2000/svg" xmlns:xlink="http://www.w3.org/1999/xlink">
    <title>page icon copy 2</title>
    <defs>
        <filter id="filter-1">
            <feColorMatrix in="SourceGraphic" type="matrix" values="0 0 0 0 0.254902 0 0 0 0 0.470588 0 0 0 0 0.745098 0 0 0 1.000000 0"></feColorMatrix>
        </filter>
    </defs>
    <g id="page-icon-copy-2" stroke="none" stroke-width="1" fill="none" fill-rule="evenodd">
        <g filter="url(#filter-1)" id="ibm--z">
            <g transform="translate(127.000000, 109.000000)">
                <rect id="_Transparent_Rectangle" x="0" y="0" width="86" height="86"></rect>
            </g>
        </g>
        <path d="M201.038835,194 L136.961165,194 C136.429854,194 136,193.570247 136,193.039062 L136,177.023438 C136,176.783203 136.090777,176.550977 136.253641,176.374805 L178.830583,129.9375 L136.961165,129.9375 C136.429854,129.9375 136,129.507747 136,128.976562 L136,112.960938 C136,112.429753 136.429854,112 136.961165,112 L201.038835,112 C201.570146,112 202,112.429753 202,112.960938 L202,128.976562 C202,129.216797 201.909223,129.449023 201.746359,129.625195 L159.169417,176.0625 L201.038835,176.0625 C201.570146,176.0625 202,176.492253 202,177.023438 L202,193.039062 C202,193.570247 201.570146,194 201.038835,194 Z M189.251214,192.078125 L200.07767,192.078125 L200.07767,177.984375 L161.057039,177.984375 L189.251214,192.078125 Z M150.532282,192.078125 L184.95267,192.078125 L157.417961,178.315365 L150.532282,192.078125 Z M137.92233,192.078125 L148.38034,192.078125 L155.695874,177.45319 L143.473058,171.343229 L137.92233,177.397135 L137.92233,192.078125 Z M144.824029,169.869792 L156.555583,175.73418 L177.084466,134.683464 L144.824029,169.869792 Z M181.444417,130.26582 L160.915534,171.316536 L193.175971,136.130208 L181.444417,130.26582 Z M182.304126,128.54681 L194.524272,134.656771 L200.07767,128.602865 L200.07767,113.921875 L189.61966,113.921875 L182.304126,128.54681 Z M137.92233,128.015625 L176.942961,128.015625 L148.748786,113.921875 L137.92233,113.921875 L137.92233,128.015625 Z M153.04733,113.921875 L180.584709,127.687305 L187.470388,113.921875 C187.470388,113.921875 153.04733,113.921875 153.04733,113.921875 Z" id="ibm--z" fill="#4178BE" fill-rule="nonzero"></path>
        <text id="AI" font-family="IBMPlexSans, IBM Plex Sans" font-size="36" font-weight="normal" fill="#4178BE">
            <tspan x="235" y="256">AI</tspan>
        </text>
        <path d="M66,78.0909091 C66,68.2764182 72.7327431,60.0344437 81.8315208,57.7316942 C81.8691969,57.722159 81.906619,57.7126918 81.9437887,57.7032922 C78.6981539,55.9173717 76.5,52.465389 76.5,48.5 C76.5,42.7010101 81.2010101,38 87,38 C92.7989899,38 97.5,42.7010101 97.5,48.5 C97.5,52.4657758 95.3014173,55.9180451 92.056631,57.7044289 C101.212241,59.9672585 108,68.2364008 108,78.0909091" id="Path" stroke="#4178BE" stroke-width="3"></path>
        <g id="Line" transform="translate(44.000000, 59.000000)" stroke="#4178BE" stroke-width="3">
            <line x1="85.5" y1="0.5" x2="204.5" y2="0.5" id="Line-9" stroke-linecap="square"></line>
            <line x1="169.5" y1="93" x2="204.5" y2="93" id="Line-9" stroke-linecap="square"></line>
            <path d="M205.75,93 C231.29317,93 252,72.2931697 252,46.75 C252,21.2068303 231.29317,0.5 205.75,0.5" id="Path"></path>
            <line x1="47.5" y1="185.5" x2="166.5" y2="185.5" id="Line-9" stroke-linecap="square" transform="translate(107.000000, 185.500000) scale(-1, -1) translate(-107.000000, -185.500000) "></line>
            <line x1="144.070854" y1="161.088343" x2="168.113997" y2="184.767047" id="Line-9" stroke-linecap="square" transform="translate(156.000000, 173.000000) scale(-1, -1) translate(-156.000000, -173.000000) "></line>
            <line x1="144.122137" y1="209.894816" x2="168.221268" y2="185.315607" id="Line-9" stroke-linecap="square" transform="translate(156.025642, 197.403237) scale(-1, -1) translate(-156.025642, -197.403237) "></line>
            <line x1="47.5" y1="93" x2="82.5" y2="93" id="Line-9" stroke-linecap="square" transform="translate(65.000000, 93.000000) scale(-1, -1) translate(-65.000000, -93.000000) "></line>
            <path d="M0,185.5 C25.5431697,185.5 46.25,164.79317 46.25,139.25 C46.25,113.70683 25.5431697,93 0,93" id="Path" transform="translate(23.125000, 139.250000) scale(-1, -1) translate(-23.125000, -139.250000) "></path>
        </g>
    </g>
</svg>