<?xml version="1.0" encoding="utf-8"?>
<!-- Generator: Adobe Illustrator 24.1.0, SVG Export Plug-In . SVG Version: 6.00 Build 0)  -->
<svg version="1.1" id="Layer_1" xmlns="http://www.w3.org/2000/svg" xmlns:xlink="http://www.w3.org/1999/xlink" x="0px" y="0px"
	 width="32px" height="32px" viewBox="0 0 32 32" style="enable-background:new 0 0 32 32;" xml:space="preserve">
<rect x="4.2" y="7.2" width="13.5" height="0.7"/>
<rect x="4.2" y="17.3" width="13.5" height="0.7"/>
<rect x="4.2" y="10.6" width="13.5" height="0.7"/>
<rect x="4.2" y="14" width="13.5" height="0.7"/>
<path d="M30,21.8h-4.1V2c0-0.2-0.2-0.4-0.4-0.4H2C1.8,1.6,1.6,1.8,1.6,2v25.8c0,1.4,1.2,2.6,2.6,2.6h23.5c1.4,0,2.6-1.2,2.6-2.6
	v-5.6C30.4,22,30.2,21.8,30,21.8z M2.4,27.8V2.4h22.8v19.4H6.5c-0.2,0-0.4,0.2-0.4,0.4v5.6c0,1-0.8,1.9-1.9,1.9S2.4,28.8,2.4,27.8z
	 M29.6,27.8c0,1-0.8,1.9-1.9,1.9H6c0.5-0.5,0.8-1.1,0.8-1.9v-5.2h18.7h4.1V27.8z"/>
<rect x="21" y="7.2" width="2.2" height="0.7"/>
<rect x="21" y="10.6" width="2.2" height="0.7"/>
<rect x="21" y="14" width="2.2" height="0.7"/>
<rect x="21" y="17.3" width="2.2" height="0.7"/>
</svg>
