<?xml version="1.0" encoding="utf-8"?>
<!-- Generator: Adobe Illustrator 26.1.0, SVG Export Plug-In . SVG Version: 6.00 Build 0)  -->
<svg version="1.1" id="Layer_1" xmlns="http://www.w3.org/2000/svg" xmlns:xlink="http://www.w3.org/1999/xlink" x="0px" y="0px"
	 viewBox="0 0 32 32" style="enable-background:new 0 0 32 32;" xml:space="preserve">
<path id="endpoint--protection_1_" d="M30.6,22.6H1.4V7c0-0.9,0.7-1.6,1.6-1.6h14V4.6H3C1.7,4.6,0.6,5.7,0.6,7v18
	c0,1.3,1.1,2.4,2.4,2.4h12.6v3.3H11v0.7h10v-0.7h-4.6v-3.3H29c1.3,0,2.4-1.1,2.4-2.4v-8h-0.7C30.6,17,30.6,22.6,30.6,22.6z M30.6,25
	c0,0.9-0.7,1.6-1.6,1.6H3c-0.9,0-1.6-0.7-1.6-1.6v-1.6h29.3C30.6,23.4,30.6,25,30.6,25z M25,1.6l-6.4,3.2V12c0,3.5,2.9,6.4,6.4,6.4
	s6.4-2.9,6.4-6.4V4.8L25,1.6z M30.6,12c0,3.1-2.5,5.6-5.6,5.6s-5.6-2.5-5.6-5.6V5.2L25,2.4l5.6,2.8V12z"/>
</svg>
