<?xml version="1.0" encoding="utf-8"?>
<!-- Generator: Adobe Illustrator 26.1.0, SVG Export Plug-In . SVG Version: 6.00 Build 0)  -->
<svg version="1.1" id="Layer_1" xmlns="http://www.w3.org/2000/svg" xmlns:xlink="http://www.w3.org/1999/xlink" x="0px" y="0px"
	 viewBox="0 0 32 32" style="enable-background:new 0 0 32 32;" xml:space="preserve">
<style type="text/css">
	.st0{fill:none;}
</style>
<path id="server--operating-systems_1_" d="M29,3.5C29,3.8,28.8,4,28.5,4S28,3.8,28,3.5S28.2,3,28.5,3S29,3.2,29,3.5z M26.5,3
	C26.2,3,26,3.2,26,3.5S26.2,4,26.5,4S27,3.8,27,3.5S26.8,3,26.5,3z M24.5,3C24.2,3,24,3.2,24,3.5S24.2,4,24.5,4S25,3.8,25,3.5
	S24.8,3,24.5,3z M31,30.4H1c-0.2,0-0.4-0.2-0.4-0.4V2c0-0.2,0.2-0.4,0.4-0.4h30c0.2,0,0.4,0.2,0.4,0.4v28
	C31.4,30.2,31.2,30.4,31,30.4z M1.4,29.6h29.3V5.4H1.4V29.6z M1.4,4.6h29.3V2.4H1.4V4.6z M17.5,25.4h-3c-0.2,0-0.4-0.2-0.4-0.4v-1.9
	c-0.4-0.1-0.8-0.3-1.1-0.5L11.7,24c-0.1,0.1-0.2,0.1-0.3,0.1l0,0c-0.1,0-0.2,0-0.3-0.1L9,21.9c-0.1-0.1-0.1-0.4,0-0.5l1.4-1.4
	c-0.2-0.4-0.3-0.7-0.5-1.1H8c-0.2,0-0.4-0.2-0.4-0.4v-3c0-0.2,0.2-0.4,0.4-0.4h1.9c0.1-0.4,0.3-0.8,0.5-1.1L9,12.7
	c-0.1-0.1-0.1-0.4,0-0.5l2.1-2.1c0.1-0.1,0.4-0.1,0.5,0l1.4,1.4c0.4-0.2,0.7-0.3,1.1-0.5V9c0-0.2,0.2-0.4,0.4-0.4h3
	c0.2,0,0.4,0.2,0.4,0.4v1.9c0.4,0.1,0.8,0.3,1.1,0.5l1.4-1.4c0.1-0.1,0.4-0.1,0.5,0l2.1,2.1c0.1,0.1,0.1,0.2,0.1,0.3s0,0.2-0.1,0.3
	L21.6,14c0.2,0.4,0.3,0.7,0.5,1.1H24c0.2,0,0.4,0.2,0.4,0.4v3c0,0.2-0.2,0.4-0.4,0.4h-1.9c-0.1,0.4-0.3,0.8-0.5,1.1l1.4,1.4
	c0.1,0.1,0.1,0.2,0.1,0.3s0,0.2-0.1,0.3L20.9,24c-0.1,0.1-0.2,0.1-0.3,0.1l0,0c-0.1,0-0.2,0-0.3-0.1L19,22.6
	c-0.4,0.2-0.7,0.3-1.1,0.5V25C17.9,25.2,17.7,25.4,17.5,25.4z M14.9,24.6h2.3v-1.8c0-0.2,0.1-0.3,0.3-0.3c0.5-0.1,1-0.3,1.5-0.6
	c0.1-0.1,0.3-0.1,0.4,0.1l1.3,1.3l1.6-1.6l-1.3-1.3c-0.1-0.1-0.1-0.3-0.1-0.4c0.3-0.5,0.5-0.9,0.6-1.4c0-0.2,0.2-0.3,0.3-0.3h1.8
	v-2.3h-1.8c-0.2,0-0.3-0.1-0.3-0.3c-0.1-0.5-0.3-1-0.6-1.4c-0.1-0.1-0.1-0.3,0.1-0.4l1.3-1.3l-1.6-1.6l-1.3,1.3
	c-0.1,0.1-0.3,0.1-0.4,0.1c-0.5-0.3-0.9-0.5-1.5-0.6c-0.2,0-0.3-0.2-0.3-0.3V9.4h-2.3v1.8c0,0.2-0.1,0.3-0.3,0.3
	c-0.5,0.1-1,0.3-1.4,0.6c-0.1,0.1-0.3,0.1-0.4-0.1l-1.3-1.3l-1.6,1.6l1.3,1.3c0.1,0.1,0.1,0.3,0.1,0.4c-0.3,0.5-0.5,0.9-0.6,1.4
	c0,0.2-0.2,0.3-0.3,0.3H8.4v2.3h1.8c0.2,0,0.3,0.1,0.3,0.3c0.1,0.5,0.3,1,0.6,1.5c0.1,0.1,0.1,0.3-0.1,0.4l-1.3,1.3l1.6,1.6l1.3-1.3
	c0.1-0.1,0.3-0.1,0.4-0.1c0.5,0.3,0.9,0.5,1.4,0.6c0.2,0,0.3,0.2,0.3,0.3L14.9,24.6L14.9,24.6z M16,20.9c-2.1,0-3.9-1.7-3.9-3.9
	s1.7-3.9,3.9-3.9c2.1,0,3.9,1.7,3.9,3.9C19.9,19.1,18.1,20.9,16,20.9z M16,13.9c-1.7,0-3.1,1.4-3.1,3.1s1.4,3.1,3.1,3.1
	s3.1-1.4,3.1-3.1S17.7,13.9,16,13.9z"/>
<polyline id="_Transparent_Rectangle_00000075124801083650356990000006577713250188929447_" class="st0" points="0,0 32,0 32,32 "/>
</svg>
