<?xml version="1.0" encoding="utf-8"?>
<!-- Generator: Adobe Illustrator 26.1.0, SVG Export Plug-In . SVG Version: 6.00 Build 0)  -->
<svg version="1.1" id="Layer_1" xmlns="http://www.w3.org/2000/svg" xmlns:xlink="http://www.w3.org/1999/xlink" x="0px" y="0px"
	 viewBox="0 0 32 32" style="enable-background:new 0 0 32 32;" xml:space="preserve">
<path id="concept--expansion_1_" d="M31,31.4H21c-0.2,0-0.4-0.2-0.4-0.4v-1.6H16c-0.2,0-0.4-0.2-0.4-0.4V16.4h-4.3
	c-0.2,2.8-2.5,5-5.3,5c-3,0-5.4-2.4-5.4-5.4c0-3,2.4-5.4,5.4-5.4c2.8,0,5.2,2.2,5.3,5h4.3V3c0-0.2,0.2-0.4,0.4-0.4l4.6,0V1
	c0-0.2,0.2-0.4,0.4-0.4h10c0.2,0,0.4,0.2,0.4,0.4v4c0,0.2-0.2,0.4-0.4,0.4H21c-0.2,0-0.4-0.2-0.4-0.4V3.4l-4.3,0v12.3h4.3V14
	c0-0.2,0.2-0.4,0.4-0.4h10c0.2,0,0.4,0.2,0.4,0.4v4c0,0.2-0.2,0.4-0.4,0.4H21c-0.2,0-0.4-0.2-0.4-0.4v-1.6h-4.3v12.3h4.3V27
	c0-0.2,0.2-0.4,0.4-0.4h10c0.2,0,0.4,0.2,0.4,0.4v4C31.4,31.2,31.2,31.4,31,31.4z M21.4,30.6h9.3v-3.3h-9.3V30.6z M6,11.4
	c-2.6,0-4.6,2.1-4.6,4.6s2.1,4.6,4.6,4.6s4.6-2.1,4.6-4.6S8.6,11.4,6,11.4z M21.4,17.6h9.3v-3.3h-9.3V17.6z M21.4,4.6h9.3V1.4h-9.3
	V4.6z"/>
</svg>
