<?xml version="1.0" encoding="utf-8"?>
<!-- Generator: Adobe Illustrator 26.1.0, SVG Export Plug-In . SVG Version: 6.00 Build 0)  -->
<svg version="1.1" id="Layer_1" xmlns="http://www.w3.org/2000/svg" xmlns:xlink="http://www.w3.org/1999/xlink" x="0px" y="0px"
	 viewBox="0 0 32 32" style="enable-background:new 0 0 32 32;" xml:space="preserve">
<path id="inspect--data_1_" d="M0.6,12h0.7V1H0.6V12z M13.4,1h-0.7v5h0.7V1z M4.6,16h0.7V5H4.6V16z M0.6,28h0.7v-8H0.6V28z M0.6,16
	h0.7v-3H0.6V16z M4.6,23h0.7v-6H4.6V23z M4.6,31h0.7v-5H4.6V31z M4.6,4h0.7V1H4.6V4z M9.4,4H8.6v8h0.7C9.4,12,9.4,4,9.4,4z M21.4,1
	h-0.7v6h0.7L21.4,1L21.4,1z M8.6,30h0.7v-4H8.6V30z M0.6,19h0.7v-2H0.6V19z M9.4,1H8.6v2h0.7C9.4,3,9.4,1,9.4,1z M17.4,1h-0.7v3h0.7
	V1z M17.4,5h-0.7v2h0.7V5z M4.6,25h0.7v-1H4.6V25z M13.4,7h-0.7v1h0.7V7z M30.3,30.8l-3.8-4.6c1.8-1.9,2.9-4.5,2.9-7.1
	c0-5.7-4.6-10.4-10.4-10.4C13.3,8.6,8.6,13.3,8.6,19c0,5.7,4.6,10.4,10.4,10.4c2.6,0,5.1-1,7-2.7l3.7,4.6L30.3,30.8z M9.4,19
	c0-5.3,4.3-9.6,9.6-9.6s9.6,4.3,9.6,9.6c0,2.6-1,5-2.8,6.8c-1.8,1.8-4.2,2.8-6.8,2.8C13.7,28.6,9.4,24.3,9.4,19z"/>
</svg>
