<?xml version="1.0" encoding="utf-8"?>
<!-- Generator: Adobe Illustrator 24.0.3, SVG Export Plug-In . SVG Version: 6.00 Build 0)  -->
<svg version="1.1" id="Layer_1" xmlns="http://www.w3.org/2000/svg" xmlns:xlink="http://www.w3.org/1999/xlink" x="0px" y="0px"
	 viewBox="0 0 144 144" style="enable-background:new 0 0 144 144;" xml:space="preserve">
<style type="text/css">
	.st0{fill:#D5E1F7;}
	.st1{fill:#FFFFFF;}
	.st2{fill:#4E78B8;}
	.st3{fill:#4E78B8;stroke:#4E78B8;stroke-width:3;stroke-miterlimit:10;}
</style>
<g>
	<circle class="st0" cx="72.7" cy="65.9" r="48.4"/>
	<path class="st1" d="M73.5,38.3c0,10,0.2,32.7,0.2,32.7s24.4,0,32.5,0c18.1,0,32.7-14.6,32.7-32.7S124.2,5.6,106.1,5.6
		S73.5,20.3,73.5,38.3z"/>
	<path class="st1" d="M72.3,104.4c0-10-0.2-32.7-0.2-32.7s-24.4,0-32.5,0c-18.1,0-32.7,14.6-32.7,32.7s14.6,32.7,32.7,32.7
		S72.3,122.5,72.3,104.4z"/>
	<path id="business--continuity_1_" class="st2" d="M130.1,62.2C117.4,74.9,96.4,74.1,94.9,74l-15,0l0-3.8l15,0l0.1,0
		c0.2,0,20.6,0.9,32.3-10.7c11.7-11.7,11.6-30.7,0-42.3C115.7,5.5,96.7,5.5,85,17.2c-7.9,7.9-10.1,19.1-10.7,25.1l-3.8-0.4
		c0.6-6.5,3-18.7,11.8-27.4c13.1-13.2,34.5-13.2,47.7,0S143.2,49,130.1,62.2z M49.9,74c-0.2,0-20.6-0.9-32.3,10.7
		c-11.7,11.7-11.6,30.7,0,42.3s30.7,11.6,42.3,0c7.9-7.9,10.1-19.1,10.7-25.1l3.8,0.4c-0.6,6.5-3,18.6-11.8,27.4
		c-13.1,13.2-34.6,13.2-47.7,0s-13.2-34.5,0-47.7C27.5,69.4,48.5,70.2,50,70.2l15,0l0,3.8l-15,0L49.9,74z M74.4,94.6l-3.8,0l0-40.4
		l-8,8l-2.7-2.7l12.6-12.6l12.6,12.6l-2.7,2.7l-8-8L74.4,94.6z"/>
	<path id="lock--01_2_" class="st3" d="M40.9,111.1c0,1-0.7,1.8-1.6,2v2.8c0,0.3-0.2,0.5-0.5,0.5s-0.5-0.2-0.5-0.5v-2.8
		c-0.9-0.2-1.6-1-1.6-2c0-1.1,0.9-2.1,2.1-2.1S40.9,110,40.9,111.1z M53.1,111.8c0,7.9-6.4,14.3-14.3,14.3
		c-7.9,0-14.3-6.4-14.3-14.3c0-5.2,2.8-9.7,6.9-12.3v-8.5c0-4.1,3.3-7.4,7.4-7.4c4.1,0,7.4,3.3,7.4,7.4v8.5
		C50.3,102.1,53.1,106.6,53.1,111.8z M32.4,99c1.9-1,4.1-1.5,6.4-1.5s4.5,0.5,6.4,1.5v-7.9c0-3.5-2.9-6.4-6.4-6.4s-6.4,2.9-6.4,6.4
		V99z M52.1,111.8c0-7.4-6-13.3-13.3-13.3s-13.3,6-13.3,13.3c0,7.4,6,13.3,13.3,13.3S52.1,119.2,52.1,111.8z"/>
	<path id="lock--01_3_" class="st3" d="M107.3,43.6c0,1-0.7,1.8-1.6,2v2.8c0,0.3-0.2,0.5-0.5,0.5s-0.5-0.2-0.5-0.5v-2.8
		c-0.9-0.2-1.6-1-1.6-2c0-1.1,0.9-2.1,2.1-2.1S107.3,42.5,107.3,43.6z M119.6,44.3c0,7.9-6.4,14.3-14.3,14.3
		c-7.9,0-14.3-6.4-14.3-14.3c0-5.2,2.8-9.7,6.9-12.3v-8.5c0-4.1,3.3-7.4,7.4-7.4c4.1,0,7.4,3.3,7.4,7.4V32
		C116.8,34.5,119.6,39.1,119.6,44.3z M98.8,31.5c1.9-1,4.1-1.5,6.4-1.5c2.3,0,4.5,0.5,6.4,1.5v-7.9c0-3.5-2.9-6.4-6.4-6.4
		s-6.4,2.9-6.4,6.4V31.5z M118.6,44.3c0-7.4-6-13.3-13.3-13.3c-7.4,0-13.3,6-13.3,13.3s6,13.3,13.3,13.3S118.6,51.7,118.6,44.3z"/>
</g>
</svg>
