<?xml version="1.0" encoding="utf-8"?>
<!-- Generator: Adobe Illustrator 24.1.0, SVG Export Plug-In . SVG Version: 6.00 Build 0)  -->
<svg version="1.1" id="Layer_1" xmlns="http://www.w3.org/2000/svg" xmlns:xlink="http://www.w3.org/1999/xlink" x="0px" y="0px"
	 width="32px" height="32px" viewBox="0 0 32 32" style="enable-background:new 0 0 32 32;" xml:space="preserve">
<style type="text/css">
	.st0{fill:#FFFFFF;}
</style>
<path class="st0" d="M19.3,18.2v6.5c0,3,2.5,5.4,5.6,5.4s5.6-2.4,5.6-5.4v-6.5L25,15.5L19.3,18.2z M25,30.8c-3.5,0-6.3-2.7-6.3-6.1
	v-6.9l6.3-3l6.3,3v6.9C31.3,28.1,28.5,30.8,25,30.8 M23,5.1c0-0.6-0.4-1-1-1c-0.6,0-1,0.4-1,1c0,0.6,0.4,1,1,1
	C22.5,6.1,23,5.7,23,5.1 M22,14.7c-0.5,0-0.9-0.5-0.9-1c0-0.5,0.5-0.9,1-0.9c0.5,0,0.9,0.4,0.9,1C23,14.3,22.5,14.7,22,14.7
	 M1.4,8.1h24.2v-6H1.4V8.1z M26,8.8H1c-0.2,0-0.4-0.1-0.4-0.3c0,0,0,0,0,0V1.8c0-0.2,0.2-0.3,0.4-0.3c0,0,0,0,0,0H26
	c0.2,0,0.4,0.1,0.4,0.3c0,0,0,0,0,0v6.7C26.3,8.7,26.2,8.8,26,8.8C26,8.8,26,8.8,26,8.8 M17,17.4H1c-0.2,0-0.4-0.1-0.4-0.3
	c0,0,0,0,0,0v-6.7C0.7,10.2,0.9,10,1,10c0,0,0,0,0,0H26c0.2,0,0.4,0.1,0.4,0.3c0,0,0,0,0,0v2.9h-0.7v-2.5H1.4v6H17V17.4z M17,26H1
	c-0.2,0-0.4-0.1-0.4-0.3c0,0,0,0,0,0V19c0-0.2,0.2-0.3,0.4-0.3c0,0,0,0,0,0H17v0.7H1.4v6H17V26z"/>
</svg>
