<?xml version="1.0" encoding="utf-8"?>
<!-- Generator: Adobe Illustrator 24.1.0, SVG Export Plug-In . SVG Version: 6.00 Build 0)  -->
<svg version="1.1" id="Layer_1" xmlns="http://www.w3.org/2000/svg" xmlns:xlink="http://www.w3.org/1999/xlink" x="0px" y="0px"
	 width="32px" height="32px" viewBox="0 0 32 32" style="enable-background:new 0 0 32 32;" xml:space="preserve">
<style type="text/css">
	.st0{fill:#FFFFFF;}
</style>
<path class="st0" d="M13.4,7.3V4c0-1.5,1.3-2.6,2.7-2.6c1.4,0,2.5,1.2,2.6,2.6v3.3C17,6.4,15,6.4,13.4,7.3 M20.7,12
	c0,2.6-2.1,4.7-4.6,4.7s-4.7-2.1-4.7-4.6c0-2.6,2.1-4.7,4.6-4.7c0,0,0,0,0,0C18.6,7.3,20.7,9.4,20.7,12C20.7,12,20.7,12,20.7,12
	 M21.4,12c0-1.6-0.7-3.2-2-4.2V4c-0.1-1.9-1.6-3.3-3.5-3.3c-1.8,0.1-3.2,1.5-3.3,3.3v3.8c-2.3,1.9-2.7,5.2-0.8,7.5s5.2,2.7,7.5,0.8
	C20.7,15.1,21.4,13.6,21.4,12 M5,28.6H3v0.7h2V28.6z M15,28.6h-2v0.7h2V28.6z M25.1,28.6h-2v0.7h2V28.6z M2.4,27.3h7.3v3.3H2.4V27.3
	z M12.4,27.3h7.3v3.3h-7.3V27.3z M22.4,27.3h7.3v3.3h-7.3V27.3z M30.4,30.9v-4c0-0.2-0.2-0.4-0.4-0.4c0,0,0,0,0,0h-3.7v-3.6
	c0-0.2-0.2-0.4-0.4-0.4c0,0,0,0,0,0h-9.7V19h-0.7v3.6H6c-0.2,0-0.4,0.2-0.4,0.4c0,0,0,0,0,0v3.6H2c-0.2,0-0.4,0.2-0.4,0.4v4
	c0,0.2,0.2,0.4,0.4,0.4h8c0.2,0,0.4-0.2,0.4-0.4v-4c0-0.2-0.2-0.4-0.4-0.4H6.4v-3.3h9.3v3.3H12c-0.2,0-0.4,0.2-0.4,0.4c0,0,0,0,0,0
	v4c0,0.2,0.2,0.4,0.4,0.4c0,0,0,0,0,0h8c0.2,0,0.4-0.2,0.4-0.3c0,0,0,0,0,0v-4c0-0.2-0.2-0.4-0.4-0.4c0,0,0,0,0,0h-3.7v-3.3h9.3v3.3
	h-3.6c-0.2,0-0.4,0.2-0.4,0.4c0,0,0,0,0,0v4c0,0.2,0.2,0.4,0.4,0.4c0,0,0,0,0,0h8C30.3,31.3,30.4,31.1,30.4,30.9
	C30.4,30.9,30.4,30.9,30.4,30.9 M16.4,11.9V13c0,0.2-0.2,0.3-0.4,0.3c-0.2,0-0.3-0.2-0.3-0.3v-1.1c-0.5-0.2-0.8-0.8-0.6-1.3
	c0.2-0.5,0.8-0.8,1.3-0.6c0.5,0.2,0.8,0.8,0.6,1.3C16.9,11.6,16.7,11.8,16.4,11.9"/>
</svg>
