<?xml version="1.0" encoding="utf-8"?>
<!-- Generator: Adobe Illustrator 24.1.0, SVG Export Plug-In . SVG Version: 6.00 Build 0)  -->
<svg version="1.1" id="Layer_1" xmlns="http://www.w3.org/2000/svg" xmlns:xlink="http://www.w3.org/1999/xlink" x="0px" y="0px"
	 width="32px" height="32px" viewBox="0 0 32 32" style="enable-background:new 0 0 32 32;" xml:space="preserve">
<style type="text/css">
	.st0{fill:#FFFFFF;}
</style>
<path class="st0" d="M29.8,16.9c0,7.6-6.2,13.8-13.8,13.8c-7.6,0-13.8-6.2-13.8-13.8c0-7.3,5.6-13.3,12.9-13.8l-1.6-1.6L14.1,1
	l2.5,2.5L14.1,6l-0.6-0.6L15,4c-7.1,0.6-12.4,6.8-11.8,14s6.8,12.4,14,11.8s12.4-6.8,11.8-14c-0.5-5.5-4.3-10.1-9.7-11.5l0.2-0.8
	C25.5,5.1,29.8,10.6,29.8,16.9 M13.5,1.6 M16,25.3c-3.5,0-6.4-2.9-6.4-6.4v-7.2L16,8.6l6.4,3.2V19C22.3,22.5,19.5,25.3,16,25.3z
	 M10.3,12.2V19c0,3.1,2.5,5.6,5.6,5.6c3.1,0,5.6-2.5,5.6-5.6v-6.8L16,9.4L10.3,12.2z"/>
</svg>
