<?xml version="1.0" encoding="utf-8"?>
<!-- Generator: Adobe Illustrator 24.1.0, SVG Export Plug-In . SVG Version: 6.00 Build 0)  -->
<svg version="1.1" id="Layer_1" xmlns="http://www.w3.org/2000/svg" xmlns:xlink="http://www.w3.org/1999/xlink" x="0px" y="0px"
	 viewBox="0 0 89.5 111.2" style="enable-background:new 0 0 89.5 111.2;" xml:space="preserve">
<path d="M64.1,77.3h-2.6v-5.4c0-7.5-5.1-14.1-12.4-16c-0.7-0.2-1.1-0.9-0.9-1.6c0.1-0.4,0.3-0.7,0.7-0.8c3.3-1.6,5.4-5,5.4-8.7
	c0.2-5.3-4-9.7-9.2-9.9s-9.7,4-9.9,9.2c0,0.2,0,0.4,0,0.6c0,3.7,2.1,7.1,5.4,8.7c0.6,0.3,0.9,1.1,0.6,1.7c-0.2,0.3-0.5,0.6-0.8,0.7
	c-7.3,1.9-12.4,8.4-12.4,16v5.4h-2.6v-5.4c0-7.7,4.6-14.7,11.7-17.6c-2.8-2.3-4.5-5.8-4.5-9.5c0-6.7,5.4-12.2,12.2-12.2
	c6.7,0,12.2,5.4,12.2,12.2c0,3.7-1.7,7.2-4.5,9.5c7.1,2.9,11.8,9.9,11.7,17.6V77.3z M2.6,20.7v45.8c0,23.3,18.9,42.1,42.1,42.1
	s42.1-18.9,42.1-42.1V20.7C71.1,20.3,56.1,14,44.7,3.1C33.4,14,18.3,20.3,2.6,20.7 M44.7,111.2C20,111.2,0,91.2,0,66.5V19.4
	c0-0.7,0.6-1.3,1.3-1.3c16-0.1,31.2-6.4,42.5-17.7c0.5-0.5,1.3-0.5,1.8,0c0,0,0,0,0,0C56.9,11.7,72.2,18,88.2,18.1
	c0.7,0,1.3,0.6,1.3,1.3v0v47.1C89.4,91.1,69.4,111.2,44.7,111.2"/>
</svg>
