<?xml version="1.0" encoding="utf-8"?>
<!-- Generator: Adobe Illustrator 25.0.0, SVG Export Plug-In . SVG Version: 6.00 Build 0)  -->
<svg version="1.1" id="Layer_1" xmlns="http://www.w3.org/2000/svg" xmlns:xlink="http://www.w3.org/1999/xlink" x="0px" y="0px"
	 viewBox="0 0 144 138" style="enable-background:new 0 0 144 138;" xml:space="preserve">
<style type="text/css">
	.st0{fill-rule:evenodd;clip-rule:evenodd;fill:#FFFFFF;}
</style>
<desc>Created with Sketch.</desc>
<g id="Page-1">
	<g id="bp-zcx-3" transform="translate(0.660000, 0.200000)">
		<g id="pictograms_x2F_web-application_x2F_web-02" transform="translate(73.340000, 69.800000)">
			<path id="Fill-8" class="st0" d="M-36.3,12.5h-16v53.1h16V12.5z M-34.7,12.5v53.1h46.5V12.5H-34.7z M11.8,10.9v-5h-64v5H11.8z
				 M12.6,67.2H-53c-0.4,0-0.8-0.4-0.8-0.8V5.2c0-0.4,0.4-0.8,0.8-0.8h65.6c0.4,0,0.8,0.4,0.8,0.8v61.2C13.4,66.8,13,67.2,12.6,67.2
				z M8.2,8.4c0,0.6-0.5,1.1-1.1,1.1C6.5,9.5,6,9,6,8.4s0.5-1.1,1.1-1.1C7.7,7.3,8.2,7.8,8.2,8.4z M3.9,8.4c0,0.6-0.5,1.1-1.1,1.1
				C2.2,9.5,1.7,9,1.7,8.4s0.5-1.1,1.1-1.1C3.4,7.3,3.9,7.8,3.9,8.4z M-0.5,8.4C-0.5,9-1,9.5-1.6,9.5c-0.6,0-1.1-0.5-1.1-1.1
				s0.5-1.1,1.1-1.1C-1,7.3-0.5,7.8-0.5,8.4z"/>
		</g>
	</g>
</g>
</svg>
