<?xml version="1.0" encoding="utf-8"?>
<!-- Generator: Adobe Illustrator 25.0.0, SVG Export Plug-In . SVG Version: 6.00 Build 0)  -->
<svg version="1.1" id="Layer_1" xmlns="http://www.w3.org/2000/svg" xmlns:xlink="http://www.w3.org/1999/xlink" x="0px" y="0px"
	 viewBox="0 0 132 140" style="enable-background:new 0 0 132 140;" xml:space="preserve">
<style type="text/css">
	.st0{fill-rule:evenodd;clip-rule:evenodd;fill:#FFFFFF;}
</style>
<desc>Created with Sketch.</desc>
<g id="Page-1">
	<g id="bp-zcx-2" transform="translate(0.520000, 0.200000)">
		<g id="pictograms_x2F_strategy_x2F_strategy-02" transform="translate(66.480000, 69.800000)">
			<path id="Fill-4" class="st0" d="M-18.5,49.4l7.3,4.2l-2.2,8.2c-1.3-0.4-2.4-1.1-3.4-2.1c-1.7-1.7-2.7-4-2.7-6.4
				C-19.4,51.9-19,50.6-18.5,49.4 M-10.3,44.2c2.2,0,4.2,0.8,5.8,2.2l-5.9,5.9l-7.3-4.2c0.3-0.4,0.6-0.8,1-1.2
				C-15,45.2-12.7,44.2-10.3,44.2 M-3.9,59.7c-1.7,1.7-4,2.7-6.4,2.7c-0.5,0-1-0.1-1.5-0.1l2.3-8.5l6.1-6.1c1.4,1.6,2.1,3.6,2.1,5.8
				C-1.3,55.7-2.2,58-3.9,59.7 M-10.3,63.9c-2.8,0-5.5-1.1-7.5-3.1c-2-2-3.1-4.7-3.1-7.5c0-2.8,1.1-5.5,3.1-7.5c2-2,4.7-3.1,7.5-3.1
				s5.5,1.1,7.5,3.1s3.1,4.7,3.1,7.5c0,2.8-1.1,5.5-3.1,7.5S-7.5,63.9-10.3,63.9z M-15.5,29.2c-5,1.2-9.6,4.1-12.8,8H7.8
				c-3.3-3.9-7.9-6.8-12.9-8c-0.3-0.1-0.6-0.4-0.6-0.7c0-0.3,0.2-0.7,0.5-0.8c4.5-2,7.4-6.5,7.4-11.4c0-6.9-5.6-12.5-12.5-12.5
				c-6.9,0-12.5,5.6-12.5,12.5c0,4.9,2.9,9.4,7.4,11.4c0.3,0.1,0.5,0.5,0.5,0.8C-15,28.8-15.2,29.1-15.5,29.2z M13,47.1v-8.3h-46.5
				v8.3c3.1,0.4,5.5,3,5.5,6.2c0,3.2-2.4,5.8-5.5,6.2v8.3H13v-8.3c-3.1-0.4-5.5-3-5.5-6.2C7.5,50.1,9.9,47.5,13,47.1z M18.4,53.3
				c0-2.6-2.1-4.7-4.7-4.7s-4.7,2.1-4.7,4.7c0,2.6,2.1,4.7,4.7,4.7S18.4,55.9,18.4,53.3z M-39.1,53.3c0,2.6,2.1,4.7,4.7,4.7
				s4.7-2.1,4.7-4.7c0-2.6-2.1-4.7-4.7-4.7S-39.1,50.7-39.1,53.3z M-30.4,37.2c3.1-4.2,7.6-7.4,12.6-9c-4.1-2.6-6.6-7-6.6-11.9
				c0-7.8,6.3-14.1,14.1-14.1S3.8,8.5,3.8,16.3c0,4.9-2.5,9.3-6.6,11.9c5,1.6,9.5,4.8,12.6,9h4c0.4,0,0.8,0.4,0.8,0.8v9.1
				c3.1,0.4,5.5,3,5.5,6.2c0,3.2-2.4,5.8-5.5,6.2v9.1c0,0.4-0.4,0.8-0.8,0.8h-48.1c-0.4,0-0.8-0.4-0.8-0.8v-9.1
				c-3.1-0.4-5.5-3-5.5-6.2c0-3.2,2.4-5.8,5.5-6.2V38c0-0.4,0.4-0.8,0.8-0.8H-30.4z"/>
		</g>
	</g>
</g>
</svg>
