<?xml version="1.0" encoding="utf-8"?>
<!-- Generator: Adobe Illustrator 25.0.0, SVG Export Plug-In . SVG Version: 6.00 Build 0)  -->
<svg version="1.1" id="Layer_1" xmlns="http://www.w3.org/2000/svg" xmlns:xlink="http://www.w3.org/1999/xlink" x="0px" y="0px"
	 viewBox="0 0 141 138" style="enable-background:new 0 0 141 138;" xml:space="preserve">
<style type="text/css">
	.st0{fill-rule:evenodd;clip-rule:evenodd;fill:#FFFFFF;}
</style>
<desc>Created with Sketch.</desc>
<g id="Page-1">
	<g id="bp-zcx-1" transform="translate(0.740000, 0.360000)">
		<g id="pictograms_x2F_enforcement_x2F_scale" transform="translate(70.260000, 68.640000)">
			<path id="Fill-4" class="st0" d="M-3.5,66.8h-11.4c0.4-2.8,2.8-4.9,5.7-4.9S-3.9,64.1-3.5,66.8L-3.5,66.8z M-10,28.8h1.6v31.6
				c3.4,0.4,6.1,3,6.5,6.4h14.6v1.6H-2.7h-13.1h-15.3v-1.6h14.6c0.4-3.4,3.1-6,6.5-6.4V28.8z M13.8,31c4.6,0,8.4-3.5,8.9-7.9H4.8
				C5.3,27.5,9.1,31,13.8,31z M22.4,21.6L13.8,6.7L5.2,21.6C5.2,21.6,22.4,21.6,22.4,21.6z M-32.2,18.8l-8.6,14.9h17.3L-32.2,18.8z
				 M-32.2,43.2c4.6,0,8.4-3.5,8.9-7.9h-17.8C-40.6,39.7-36.8,43.2-32.2,43.2z M-5.5,23.7c0-1.8-1.4-3.3-3.2-3.5h-0.9
				c-1.8,0.2-3.2,1.7-3.2,3.5c0,2,1.6,3.5,3.6,3.5C-7.1,27.2-5.5,25.6-5.5,23.7z M-32.2,44.7c-5.8,0-10.6-4.7-10.6-10.4
				c0-0.1,0-0.3,0.1-0.4l9.8-16.9c0.1-0.2,0.3-0.5,0.5-0.5l46-12.2c0.3-0.1,0.7,0.1,0.9,0.3l0,0l9.8,17c0.1,0.1,0.1,0.3,0.1,0.4
				c0,5.8-4.8,10.5-10.6,10.5S3.2,27.8,3.2,22c0-0.1,0-0.3,0.1-0.4l8.9-15.4l-20.6,5.4v6.9c2.5,0.3,4.5,2.4,4.5,5
				c0,2.8-2.3,5.1-5.2,5.1c-2.8,0-5.2-2.3-5.2-5.1c0-2.5,1.9-4.6,4.3-5V12l-21,5.5l9.4,16.2c0.1,0.1,0.1,0.3,0.1,0.4
				C-21.6,40-26.3,44.7-32.2,44.7z"/>
		</g>
	</g>
</g>
</svg>
