<?xml version="1.0" encoding="utf-8"?>
<!-- Generator: Adobe Illustrator 25.0.0, SVG Export Plug-In . SVG Version: 6.00 Build 0)  -->
<svg version="1.1" id="Layer_1" xmlns="http://www.w3.org/2000/svg" xmlns:xlink="http://www.w3.org/1999/xlink" x="0px" y="0px"
	 viewBox="0 0 120 131" style="enable-background:new 0 0 120 131;" xml:space="preserve">
<style type="text/css">
	.st0{fill-rule:evenodd;clip-rule:evenodd;fill:#FFFFFF;}
</style>
<desc>Created with Sketch.</desc>
<g id="Page-1">
	<g id="bp-zcx-5" transform="translate(0.780000, 0.360000)">
		<g id="pictograms_x2F_security_x2F_lock" transform="translate(51.000000, 62.000000)">
			<path id="Fill-1" class="st0" d="M1.1,30.8L0,29.7L20.3,9.3c0.8-0.8,1.3-2,1.3-3.1s-0.5-2.3-1.3-3.1c-1.7-1.7-4.6-1.7-6.3,0
				L-6.3,23.4l-1.1-1.1L12.9,1.9c2.3-2.3,6.2-2.3,8.5,0c1.1,1.1,1.8,2.6,1.8,4.2s-0.6,3.1-1.8,4.2L1.1,30.8z"/>
			<polygon id="Fill-3" class="st0" points="-2.6,27.1 -3.7,26 16.6,5.7 17.7,6.8 			"/>
			<path id="Fill-5" class="st0" d="M-39.4,65.5l-2.7-2.7l5.4-5.9l3.3,3.3L-39.4,65.5z M-33.5,58l16.4-16.4l-1.1-1.1l-16.4,16.4
				l-1.7-1.7c-0.2-0.2-0.4-0.2-0.6-0.2s-0.4,0.1-0.6,0.3l-6.4,7.1c-0.3,0.3-0.3,0.8,0,1.1l3.8,3.8c0.2,0.2,0.4,0.2,0.6,0.2
				s0.4-0.1,0.5-0.2l7.1-6.4c0.2-0.1,0.3-0.3,0.3-0.6c0-0.2-0.1-0.4-0.2-0.6L-33.5,58z"/>
			<path id="Fill-8" class="st0" d="M21.4,58.3l-7.9-7.9c-2-2-5.3-2-7.3,0s-2,5.3,0,7.3l7.9,7.9c-4.5,1.6-9.6,0.6-13-2.8
				c-3.4-3.4-4.5-8.5-2.8-13c0-0.1,0-0.2,0-0.2l0,0c0-0.2-0.1-0.4-0.2-0.5l0,0l0,0l0,0l-23-23l0,0l0,0l0,0c-0.1-0.1-0.3-0.2-0.5-0.2
				l0,0c-0.1,0-0.2,0-0.3,0c-4.5,1.7-9.6,0.6-13-2.8c-3.4-3.4-4.5-8.5-2.8-13l7.9,7.9c1,1,2.3,1.5,3.6,1.5c1.3,0,2.6-0.5,3.7-1.5
				c2-2,2-5.3,0-7.3l-7.9-7.9c4.5-1.6,9.6-0.6,13,2.8s4.5,8.5,2.8,13c0,0.1,0,0.2,0,0.3l0,0c0,0.2,0.1,0.4,0.2,0.5l0,0l0,0l0,0
				l23,23l0,0l0,0l0,0c0.1,0.1,0.3,0.2,0.5,0.2l0,0l0,0c0.1,0,0.2,0,0.3,0c4.5-1.7,9.6-0.6,13,2.8C22,48.7,23,53.8,21.4,58.3
				 M19.7,44.2c-3.7-3.7-9.2-5-14.2-3.4l-22.4-22.4c1.6-5,0.4-10.5-3.4-14.2C-24.4,0.1-30.8-1-36.1,1.5c-0.1,0-0.1,0.1-0.2,0.1l0,0
				l0,0c-0.1,0.1-0.2,0.3-0.2,0.5l0,0c0,0.1,0,0.2,0.1,0.3c0,0.1,0.1,0.1,0.1,0.2l0,0l0,0l0,0l8.7,8.7c0.7,0.7,1,1.6,1,2.5
				c0,1-0.4,1.9-1,2.5c-1.3,1.3-3.7,1.3-5.1,0l-8.8-8.8l0,0c-0.1-0.1-0.1-0.1-0.2-0.1c-0.1-0.1-0.2-0.1-0.3-0.1l0,0
				c-0.2,0-0.4,0.1-0.5,0.2l0,0l0,0C-42.6,8-42.6,8-42.6,8.1c-2.5,5.3-1.4,11.7,2.7,15.8c2.7,2.7,6.2,4.1,9.9,4.1
				c1.4,0,2.9-0.3,4.3-0.7l22.3,22.4C-5,54.6-3.7,60.1,0,63.8c2.7,2.7,6.2,4.1,9.9,4.1c2,0,4.1-0.4,6-1.4c0.1,0,0.1-0.1,0.2-0.1l0,0
				l0,0c0.1-0.1,0.2-0.3,0.2-0.5l0,0c0-0.1,0-0.2-0.1-0.3c0-0.1-0.1-0.1-0.1-0.2l0,0l-8.8-8.8c-0.7-0.7-1-1.6-1-2.5
				c0-1,0.4-1.9,1-2.5c1.3-1.3,3.7-1.3,5.1,0l8.8,8.8l0,0c0.1,0.1,0.1,0.1,0.2,0.1c0.1,0.1,0.2,0.1,0.3,0.1l0,0l0,0
				c0.2,0,0.3-0.1,0.5-0.2c0,0,0,0,0.1,0v-0.1l0.1-0.1C24.9,54.7,23.8,48.3,19.7,44.2"/>
		</g>
	</g>
</g>
</svg>
