<?xml version="1.0" encoding="utf-8"?>
<!-- Generator: Adobe Illustrator 25.0.0, SVG Export Plug-In . SVG Version: 6.00 Build 0)  -->
<svg version="1.1" id="Layer_1" xmlns="http://www.w3.org/2000/svg" xmlns:xlink="http://www.w3.org/1999/xlink" x="0px" y="0px"
	 viewBox="0 0 131 131" style="enable-background:new 0 0 131 131;" xml:space="preserve">
<style type="text/css">
	.st0{fill-rule:evenodd;clip-rule:evenodd;fill:#FFFFFF;}
</style>
<desc>Created with Sketch.</desc>
<g id="Page-1">
	<g id="bp-zcx-4" transform="translate(0.480000, 0.360000)">
		<g id="pictograms_x2F_cloud_x2F_docker" transform="translate(60.520000, 67.640000)">
			<path id="Fill-5" class="st0" d="M-24.9,49.4c0.9,0,1.6,0.7,1.6,1.6c0,0.9-0.7,1.6-1.6,1.6c-0.9,0-1.6-0.7-1.6-1.6
				C-26.5,50.1-25.8,49.4-24.9,49.4z M10.2,39.1c2.2,0,4.3-1.1,5.6-2.9c-1.2-1.8-3.2-2.9-5.4-2.9c-0.4,0-0.8-0.4-0.8-0.8l0,0
				c0-2.2-1.2-4.3-3.1-5.6c-1.9,1.2-3.1,3.3-3.1,5.6c0,1.8,0.8,3.6,2.2,4.9c0.2,0.2,0.3,0.6,0.2,0.9c-0.1,0.3-0.4,0.5-0.7,0.5h-53.2
				V40c0,5.7,2.3,10.9,6.1,14.7c4.8,0,9.4-0.6,12.5-1.5c0.4-0.1,0.9,0.1,1,0.5s-0.1,0.9-0.5,1c-2.9,0.9-6.9,1.4-11.3,1.5
				c3.8,3.1,8.7,5,14,5c18.7,0,33.9-13,34.6-21.4c0-0.4,0.4-0.7,0.8-0.7C9.1,39.1,10.2,39.1,10.2,39.1z M-37.2,37.1h7.2v-7.2h-7.2
				V37.1z M-28.5,28.3h7.2v-7.2h-7.2V28.3z M-19.7,19.6h7.2v-7.2h-7.2V19.6z M-11,37.1h7.2v-7.2H-11V37.1z M-28.5,37.1h7.2v-7.2
				h-7.2V37.1z M-19.7,28.3h7.2v-7.2h-7.2V28.3z M-19.7,37.1h7.2v-7.2h-7.2V37.1z M17.4,35.7c0.1,0.2,0.1,0.6,0,0.8
				c-1.5,2.5-4.2,4.1-7.2,4.1H9.7C8.2,49.8-7.1,62.7-26.4,62.7c-6.4,0-12.3-2.6-16.5-6.7c-0.1-0.1-0.2-0.1-0.2-0.2
				c-4.1-4.1-6.6-9.7-6.6-15.9v-2c0-0.2,0.1-0.4,0.2-0.6c0.1-0.1,0.3-0.2,0.6-0.2h10.2v-8c0-0.4,0.4-0.8,0.8-0.8h8v-8
				c0-0.4,0.4-0.8,0.8-0.8h8v-8c0-0.4,0.4-0.8,0.8-0.8h8.8c0.4,0,0.8,0.4,0.8,0.8v8.8v8h8c0.4,0,0.8,0.4,0.8,0.8v8h5.6
				c-1-1.4-1.5-3-1.5-4.7c0-3,1.6-5.7,4.3-7.2c0.2-0.1,0.5-0.1,0.8,0c2.4,1.3,4,3.8,4.2,6.4C13.7,32,16,33.5,17.4,35.7z"/>
		</g>
	</g>
</g>
</svg>
