<?xml version="1.0" encoding="UTF-8"?>
<svg width="120px" height="131px" viewBox="0 0 120 131" version="1.1" xmlns="http://www.w3.org/2000/svg" xmlns:xlink="http://www.w3.org/1999/xlink">
    <!-- Generator: Sketch 55.2 (78181) - https://sketchapp.com -->
    <title>bp-zcx-5</title>
    <desc>Created with Sketch.</desc>
    <g id="Page-1" stroke="none" stroke-width="1" fill="none" fill-rule="evenodd">
        <g id="bp-zcx-5" transform="translate(0.780000, 0.360000)" fill="#FFFFFF">
            <path d="M77.76,0 L77.76,15.3 L22.14,15.3 L18.72,61.56 L20.16,61.56 C25.92,52.56 32.4,46.62 46.08,46.62 C67.68,46.62 83.7,61.2 83.7,85.68 C83.7,110.34 67.68,127.8 40.32,127.8 C18.72,127.8 7.56,117 1.13686838e-13,105.84 L12.96,95.94 C19.26,105.84 25.56,112.68 40.32,112.68 C56.52,112.68 65.34,103.68 65.34,87.84 L65.34,86.04 C65.34,70.2 56.52,61.2 40.32,61.2 C29.16,61.2 23.4,66.24 18.54,71.46 L3.96,69.48 L8.46,0 L77.76,0 Z" id="5" fill-rule="nonzero" opacity="0.203125"></path>
            <g id="pictograms/security/lock" transform="translate(51.000000, 62.000000)">
                <path d="M45.07475,30.8087813 L43.9613125,29.6953438 L64.329125,9.32971875 C65.1669375,8.49190625 65.6263125,7.37846875 65.6263125,6.19503125 C65.6263125,5.01159375 65.1669375,3.89815625 64.329125,3.06034375 C62.6535,1.38471875 59.735375,1.38471875 58.05975,3.06034375 L37.6919375,23.4259688 L36.5806875,22.3147188 L56.9463125,1.94690625 C59.21475,-0.32371875 63.1719375,-0.32371875 65.4425625,1.94690625 C66.577875,3.08221875 67.2013125,4.58940625 67.2013125,6.19503125 C67.2013125,7.79846875 66.577875,9.30784375 65.4425625,10.4409688 L45.07475,30.8087813 Z" id="Fill-1"></path>
                <polygon id="Fill-3" points="41.3833438 27.117375 40.2699063 26.0039375 60.5742813 5.6995625 61.6877188 6.813"></polygon>
                <path d="M4.626125,65.5128125 L1.8764375,62.763125 L7.2358125,56.865625 L10.5214375,60.15125 L4.626125,65.5128125 Z M10.549875,57.950625 L26.903625,41.596875 L25.7901875,40.485625 L9.4364375,56.839375 L7.767375,55.168125 C7.61425,55.015 7.378,54.9253125 7.1920625,54.9384375 C6.9755,54.9428125 6.7720625,55.036875 6.6276875,55.1965625 L0.2051875,62.2578125 C-0.077,62.5684375 -0.06825,63.0475 0.2314375,63.345 L4.04425,67.1578125 C4.197375,67.3109375 4.398625,67.3875 4.599875,67.3875 C4.7901875,67.3875 4.9805,67.321875 5.12925,67.1840625 L12.1905,60.7615625 C12.3501875,60.6171875 12.44425,60.4115625 12.448625,60.1971875 C12.4551875,59.9828125 12.3720625,59.7728125 12.2189375,59.621875 L10.549875,57.950625 Z" id="Fill-5"></path>
                <path d="M65.3646875,58.25075 L57.4678125,50.3516875 C55.4553125,48.3391875 52.180625,48.337 50.1659375,50.3516875 C48.1534375,52.3641875 48.1534375,55.638875 50.1659375,57.651375 L58.065,65.5504375 C53.59375,67.1910625 48.51,66.1454375 45.093125,62.726375 C41.69375,59.3248125 40.5759375,54.2148125 42.249375,49.7041875 C42.28,49.6210625 42.2865625,49.5379375 42.28875,49.4548125 C42.28875,49.4416875 42.2953125,49.4329375 42.2953125,49.4198125 C42.2909375,49.22075 42.2121875,49.032625 42.074375,48.88825 C42.07,48.883875 42.0721875,48.8773125 42.0678125,48.8729375 L42.0525,48.857625 C42.0503125,48.857625 42.0503125,48.857625 42.0503125,48.857625 L19.0596875,25.8691875 C19.0575,25.867 19.0575,25.867 19.0553125,25.8648125 L19.04,25.8495 C19.035625,25.8473125 19.03125,25.8473125 19.026875,25.845125 C18.8825,25.705125 18.694375,25.6241875 18.493125,25.622 C18.4821875,25.622 18.4734375,25.626375 18.4646875,25.626375 C18.379375,25.6285625 18.2940625,25.6373125 18.2109375,25.6679375 C13.698125,27.3391875 8.5903125,26.221375 5.1909375,22.8241875 C1.7740625,19.405125 0.7240625,14.3235625 2.366875,9.8523125 L10.2659375,17.7491875 C11.27,18.757625 12.5934375,19.26075 13.9146875,19.26075 C15.2359375,19.26075 16.559375,18.757625 17.565625,17.7491875 C19.578125,15.7366875 19.578125,12.462 17.565625,10.4495 L9.6665625,2.5504375 C14.14,0.9098125 19.2215625,1.9598125 22.6384375,5.3745 C26.04,8.7760625 27.155625,13.8904375 25.4821875,18.4010625 C25.449375,18.4841875 25.4428125,18.5673125 25.4428125,18.652625 C25.440625,18.6635625 25.43625,18.6723125 25.43625,18.6854375 C25.4384375,18.8845 25.519375,19.0748125 25.6571875,19.217 C25.6615625,19.221375 25.659375,19.2279375 25.66375,19.2323125 L25.676875,19.2454375 L25.68125,19.2498125 L48.671875,42.2360625 C48.671875,42.2360625 48.671875,42.23825 48.6740625,42.23825 L48.6871875,42.2535625 C48.6915625,42.25575 48.698125,42.25575 48.7003125,42.2579375 C48.846875,42.3979375 49.0371875,42.4810625 49.2384375,42.4810625 C49.240625,42.4810625 49.2428125,42.48325 49.245,42.48325 C49.249375,42.48325 49.25375,42.478875 49.2603125,42.4766875 C49.345625,42.4766875 49.433125,42.4679375 49.5184375,42.435125 C54.0290625,40.7616875 59.14125,41.8795 62.540625,45.278875 C65.9575,48.69575 67.0075,53.7795 65.3646875,58.25075 M63.6540625,44.1654375 C59.94625,40.4554375 54.43375,39.1845 49.4725,40.812 L27.103125,18.447 C28.7328125,13.48575 27.461875,7.97325 23.751875,4.2610625 C19.5890625,0.1004375 13.225625,-0.9955 7.9165625,1.542 C7.8421875,1.577 7.783125,1.6316875 7.72625,1.6841875 C7.7175,1.6929375 7.7065625,1.6885625 7.7,1.695125 C7.695625,1.6995 7.6978125,1.7060625 7.6934375,1.70825 C7.5578125,1.8504375 7.4834375,2.036375 7.476875,2.2310625 C7.476875,2.242 7.4725,2.25075 7.4725,2.263875 C7.4746875,2.3754375 7.494375,2.4848125 7.5446875,2.592 C7.581875,2.6685625 7.634375,2.727625 7.6890625,2.7866875 C7.695625,2.79325 7.6934375,2.802 7.7,2.8085625 L7.7284375,2.8391875 C7.730625,2.8391875 7.7328125,2.841375 7.7328125,2.8435625 L16.4521875,11.5629375 C17.1259375,12.2366875 17.4978125,13.1379375 17.4978125,14.09825 C17.4978125,15.06075 17.1259375,15.962 16.4521875,16.6379375 C15.1025,17.9854375 12.7290625,17.9854375 11.3771875,16.6379375 L2.625,7.8835625 C2.61625,7.877 2.6053125,7.8791875 2.59875,7.872625 C2.5396875,7.8179375 2.4828125,7.7654375 2.4084375,7.7304375 C2.2990625,7.6779375 2.1875,7.65825 2.0759375,7.6560625 C2.0671875,7.6560625 2.060625,7.6604375 2.0496875,7.6604375 C1.8528125,7.6648125 1.666875,7.741375 1.5246875,7.8791875 C1.5203125,7.881375 1.5159375,7.881375 1.5115625,7.8835625 C1.505,7.8923125 1.5071875,7.90325 1.500625,7.9098125 C1.4459375,7.9666875 1.3934375,8.02575 1.3584375,8.100125 C-1.1790625,13.4091875 -0.0853125,19.7748125 4.0775,23.9354375 C6.72875,26.588875 10.303125,28.0085625 13.93875,28.0085625 C15.3846875,28.0085625 16.835,27.7460625 18.248125,27.2845 L40.62625,49.6604375 C38.99875,54.6173125 40.2696875,60.1298125 43.9796875,63.8398125 C46.64625,66.506375 50.21625,67.9129375 53.834375,67.9129375 C55.8621875,67.9129375 57.9075,67.4710625 59.815,66.558875 C59.8915625,66.523875 59.950625,66.4691875 60.0096875,66.4145 C60.01625,66.4079375 60.0271875,66.410125 60.0315625,66.40575 C60.0359375,66.401375 60.03375,66.397 60.0359375,66.392625 C60.17375,66.2504375 60.2503125,66.0645 60.2546875,65.8698125 C60.2546875,65.858875 60.2590625,65.850125 60.2590625,65.8391875 C60.2590625,65.727625 60.2371875,65.6160625 60.186875,65.508875 C60.1496875,65.4345 60.0971875,65.3754375 60.0425,65.3185625 C60.0359375,65.312 60.0403125,65.298875 60.0315625,65.2923125 L51.279375,56.5379375 C50.605625,55.8641875 50.23375,54.9629375 50.23375,54.002625 C50.23375,53.040125 50.605625,52.1410625 51.279375,51.465125 C52.6290625,50.117625 55.0025,50.1154375 56.354375,51.465125 L65.1065625,60.2173125 C65.1153125,60.2260625 65.12625,60.2216875 65.135,60.2304375 C65.191875,60.2829375 65.24875,60.337625 65.323125,60.372625 C65.4346875,60.425125 65.5484375,60.4491875 65.6621875,60.4491875 L65.664375,60.4491875 C65.664375,60.4491875 65.664375,60.447 65.6665625,60.447 C65.8503125,60.447 66.014375,60.363875 66.1565625,60.24575 C66.1740625,60.22825 66.2025,60.237 66.22,60.2173125 C66.2440625,60.1954375 66.2353125,60.1604375 66.255,60.1341875 C66.2921875,60.0860625 66.346875,60.057625 66.373125,60.00075 C68.910625,54.6916875 67.8190625,48.32825 63.6540625,44.1654375" id="Fill-8"></path>
            </g>
        </g>
    </g>
</svg>