<?xml version="1.0" encoding="UTF-8"?>
<svg width="141px" height="138px" viewBox="0 0 141 138" version="1.1" xmlns="http://www.w3.org/2000/svg" xmlns:xlink="http://www.w3.org/1999/xlink">
    <!-- Generator: Sketch 55.2 (78181) - https://sketchapp.com -->
    <title>bp-zcx-1</title>
    <desc>Created with Sketch.</desc>
    <g id="Page-1" stroke="none" stroke-width="1" fill="none" fill-rule="evenodd">
        <g id="bp-zcx-1" transform="translate(0.740000, 0.360000)" fill="#FFFFFF">
            <polygon id="1" fill-rule="nonzero" opacity="0.203125" points="91.08 125.64 7.74 125.64 7.74 110.16 42.12 110.16 42.12 12.78 40.86 12.78 10.44 43.02 -2.27373675e-13 32.76 32.58 0 59.58 0 59.58 110.16 91.08 110.16"></polygon>
            <g id="pictograms/enforcement/scale" transform="translate(70.260000, 68.640000)">
                <path d="M41.509125,66.845475 L30.0663125,66.845475 C30.4513125,64.0725375 32.8706875,61.929225 35.786625,61.929225 C38.70475,61.929225 41.124125,64.0725375 41.509125,66.845475 L41.509125,66.845475 Z M34.999125,28.809225 L36.574125,28.809225 L36.574125,60.45435 C39.991,60.8209125 42.686,63.4774125 43.057875,66.845475 L57.661625,66.845475 L57.661625,68.397975 L42.349125,68.397975 L29.224125,68.397975 L13.911625,68.397975 L13.911625,66.845475 L28.5175625,66.845475 C28.88725,63.4774125 31.58225,60.8209125 34.999125,60.45435 L34.999125,28.809225 Z M58.7560313,30.9988969 C63.3869688,30.9988969 67.1735313,27.5424281 67.7050938,23.1178031 L49.8069688,23.1178031 C50.3385313,27.5424281 54.1250938,30.9988969 58.7560313,30.9988969 Z M67.3988438,21.5653031 L58.7560313,6.65483438 L50.1132188,21.5653031 L67.3988438,21.5653031 Z M12.8185313,18.8354906 L4.17571875,33.7459594 L21.4613438,33.7459594 L12.8185313,18.8354906 Z M12.8185313,43.1795531 C17.4494688,43.1795531 21.2360313,39.7230844 21.7675938,35.2984594 L3.86946875,35.2984594 C4.40103125,39.7230844 8.18759375,43.1795531 12.8185313,43.1795531 Z M39.4622813,23.6762719 C39.4622813,21.8736469 38.0797813,20.3966156 36.3057188,20.1831469 L35.4416563,20.1831469 C33.6675938,20.3966156 32.2850938,21.8736469 32.2850938,23.6762719 C32.2850938,25.6276781 33.8950938,27.2146781 35.8747813,27.2146781 C37.8522813,27.2146781 39.4622813,25.6276781 39.4622813,23.6762719 Z M12.8185313,44.7320531 C6.95603125,44.7320531 2.18728125,40.0292719 2.18728125,34.2526781 C2.18728125,34.1168344 2.22228125,33.9853031 2.29228125,33.8667094 L12.0791563,16.9832719 C12.1557188,16.7374594 12.3438438,16.5304594 12.6150938,16.4593031 L58.5525938,4.34117813 C58.8938438,4.24630313 59.2307188,4.39939688 59.4100938,4.67755313 C59.4166563,4.68833438 59.4319688,4.69264688 59.4385313,4.70558438 L69.2822813,21.6860531 C69.3522813,21.8046469 69.3872813,21.9361781 69.3872813,22.0720219 C69.3872813,27.8507719 64.6185313,32.5513969 58.7560313,32.5513969 C52.8935313,32.5513969 48.1247813,27.8507719 48.1247813,22.0720219 C48.1247813,21.9361781 48.1597813,21.8046469 48.2297813,21.6860531 L57.1372813,6.32061563 L36.5747813,11.7435844 L36.5747813,18.6586781 C39.0882188,18.9993656 41.0350938,21.1081781 41.0350938,23.6762719 C41.0350938,26.4837094 38.7207188,28.7650219 35.8747813,28.7650219 C33.0266563,28.7650219 30.7122813,26.4837094 30.7122813,23.6762719 C30.7122813,21.1663969 32.5694688,19.0877719 34.9997813,18.6759281 L34.9997813,12.1597406 L13.9779063,17.7056156 L23.3469688,33.8667094 C23.4147813,33.9853031 23.4497813,34.1168344 23.4497813,34.2526781 C23.4497813,40.0292719 18.6810313,44.7320531 12.8185313,44.7320531 Z" id="Fill-4"></path>
            </g>
        </g>
    </g>
</svg>