<?xml version="1.0" encoding="UTF-8"?>
<svg width="132px" height="140px" viewBox="0 0 132 140" version="1.1" xmlns="http://www.w3.org/2000/svg" xmlns:xlink="http://www.w3.org/1999/xlink">
    <!-- Generator: Sketch 55.2 (78181) - https://sketchapp.com -->
    <title>bp-zcx-2</title>
    <desc>Created with Sketch.</desc>
    <g id="Page-1" stroke="none" stroke-width="1" fill="none" fill-rule="evenodd">
        <g id="bp-zcx-2" transform="translate(0.520000, 0.200000)" fill="#FFFFFF">
            <path d="M84.96,112.32 L84.96,127.8 L1.44,127.8 L1.44,110.52 L41.94,73.62 C54.18,62.64 62.28,51.12 62.28,39.24 L62.28,37.08 C62.28,24.12 54.36,15.66 40.32,15.66 C25.56,15.66 18.72,24.48 15.48,36 L0,30.06 C5.04,14.76 16.74,2.84217094e-14 41.4,2.84217094e-14 C66.42,2.84217094e-14 81,15.3 81,36.72 C81,56.7 68.58,70.2 52.02,84.6 L20.88,112.32 L84.96,112.32 Z" id="2" fill-rule="nonzero" opacity="0.203125"></path>
            <g id="pictograms/strategy/strategy-02" transform="translate(66.480000, 69.800000)">
                <path d="M26.5405,49.4132187 L33.86425,53.6416562 L31.67675,61.7944687 C30.421125,61.3504062 29.2595625,60.6613437 28.2883125,59.6900937 C26.579875,57.9816562 25.6370625,55.7066562 25.6370625,53.2872812 C25.6370625,51.9200937 25.9695625,50.6119687 26.5405,49.4132187 M34.6933125,44.2332187 C36.8545625,44.2332187 38.878,45.0207188 40.509875,46.4032188 L34.6408125,52.2722812 L27.3301875,48.0504063 C27.621125,47.6435313 27.927375,47.2475938 28.2883125,46.8866563 C30.001125,45.1760313 32.2739375,44.2332187 34.6933125,44.2332187 M41.0983125,59.6900937 C39.3876875,61.4007187 37.1126875,62.3435312 34.6933125,62.3435312 C34.1858125,62.3435312 33.6914375,62.2800937 33.19925,62.1991562 L35.4895625,53.6504062 L41.621125,47.5210312 C42.9751875,49.1441562 43.7495625,51.1479062 43.7495625,53.2872812 C43.7495625,55.7066562 42.8089375,57.9816562 41.0983125,59.6900937 M34.6933125,63.9207187 C31.8539375,63.9207187 29.183,62.8138437 27.1770625,60.8057187 C25.1689375,58.7975937 24.0620625,56.1266562 24.0620625,53.2872812 C24.0620625,50.4500937 25.1689375,47.7791562 27.1770625,45.7710312 C29.183,43.7629062 31.8539375,42.6560312 34.6933125,42.6560312 C37.5326875,42.6560312 40.203625,43.7629062 42.21175,45.7710312 C44.219875,47.7791562 45.3245625,50.4500937 45.3245625,53.2872812 C45.3245625,56.1266562 44.219875,58.7975937 42.21175,60.8057187 C40.203625,62.8138437 37.5326875,63.9207187 34.6933125,63.9207187 Z M29.4608125,29.183 C24.4995625,30.3555 19.9101875,33.2451875 16.62675,37.1870625 L52.759875,37.1870625 C49.4764375,33.2495625 44.8805,30.359875 39.9039375,29.183 C39.5758125,29.10425 39.333,28.8264375 39.302375,28.49175 C39.2695625,28.1526875 39.4555,27.8355 39.76175,27.6976875 C44.27675,25.67425 47.194875,21.1920625 47.194875,16.27675 C47.194875,9.3751875 41.5839375,3.76425 34.682375,3.76425 C27.783,3.76425 22.169875,9.3751875 22.169875,16.27675 C22.169875,21.1920625 25.0858125,25.67425 29.6008125,27.6976875 C29.90925,27.8355 30.0951875,28.1526875 30.062375,28.49175 C30.03175,28.8264375 29.7889375,29.10425 29.4608125,29.183 Z M57.9683125,47.1095625 L57.9683125,38.76425 L11.4183125,38.76425 L11.4183125,47.1095625 C14.4939375,47.5033125 16.8870625,50.1064375 16.8870625,53.28925 C16.8870625,56.469875 14.4939375,59.073 11.4183125,59.46675 L11.4183125,67.8120625 L57.9683125,67.8120625 L57.9683125,59.46675 C54.8926875,59.073 52.4995625,56.469875 52.4995625,53.28925 C52.4995625,50.1064375 54.8926875,47.5033125 57.9683125,47.1095625 Z M63.4370625,53.28925 C63.4370625,50.708 61.3370625,48.608 58.7558125,48.608 C56.1745625,48.608 54.0745625,50.708 54.0745625,53.28925 C54.0745625,55.8683125 56.1745625,57.9683125 58.7558125,57.9683125 C61.3370625,57.9683125 63.4370625,55.8683125 63.4370625,53.28925 Z M5.9495625,53.28925 C5.9495625,55.8683125 8.0495625,57.9683125 10.6308125,57.9683125 C13.2120625,57.9683125 15.3120625,55.8683125 15.3120625,53.28925 C15.3120625,50.708 13.2120625,48.608 10.6308125,48.608 C8.0495625,48.608 5.9495625,50.708 5.9495625,53.28925 Z M14.61425,37.1870625 C17.74675,33.002375 22.2289375,29.7955 27.1858125,28.1855 C23.128,25.6239375 20.594875,21.137375 20.594875,16.27675 C20.594875,8.5089375 26.9145625,2.1870625 34.682375,2.1870625 C42.4501875,2.1870625 48.769875,8.5089375 48.769875,16.27675 C48.769875,21.137375 46.23675,25.6239375 42.17675,28.1855 C47.1489375,29.7976875 51.6420625,33.0045625 54.772375,37.1870625 L58.7558125,37.1870625 C59.191125,37.1870625 59.5433125,37.53925 59.5433125,37.97675 L59.5433125,47.1095625 C62.6189375,47.5033125 65.0120625,50.1064375 65.0120625,53.28925 C65.0120625,56.469875 62.6189375,59.073 59.5433125,59.46675 L59.5433125,68.60175 C59.5433125,69.0370625 59.191125,69.38925 58.7558125,69.38925 L10.6308125,69.38925 C10.1955,69.38925 9.8433125,69.0370625 9.8433125,68.60175 L9.8433125,59.46675 C6.7676875,59.073 4.3745625,56.469875 4.3745625,53.28925 C4.3745625,50.1064375 6.7676875,47.5033125 9.8433125,47.1095625 L9.8433125,37.97675 C9.8433125,37.53925 10.1955,37.1870625 10.6308125,37.1870625 L14.61425,37.1870625 Z" id="Fill-4"></path>
            </g>
        </g>
    </g>
</svg>