<?xml version="1.0" encoding="UTF-8"?>
<svg width="144px" height="138px" viewBox="0 0 144 138" version="1.1" xmlns="http://www.w3.org/2000/svg" xmlns:xlink="http://www.w3.org/1999/xlink">
    <!-- Generator: Sketch 55.2 (78181) - https://sketchapp.com -->
    <title>bp-zcx-3</title>
    <desc>Created with Sketch.</desc>
    <g id="Page-1" stroke="none" stroke-width="1" fill="none" fill-rule="evenodd">
        <g id="bp-zcx-3" transform="translate(0.660000, 0.200000)" fill="#FFFFFF">
            <path d="M27.18,54.72 L40.5,54.72 C56.7,54.72 64.8,46.44 64.8,35.28 L64.8,34.02 C64.8,21.6 56.16,15.12 43.38,15.12 C30.96,15.12 22.86,21.06 17.46,30.6 L5.22,20.7 C12.24,10.08 23.4,-2.84217094e-14 43.74,-2.84217094e-14 C66.24,-2.84217094e-14 83.16,11.7 83.16,32.04 C83.16,48.24 72.36,57.96 59.04,61.2 L59.04,61.92 C72.9,64.62 85.5,74.7 85.5,93.24 C85.5,115.02 68.04,129.96 41.94,129.96 C19.44,129.96 7.92,119.16 0,108 L13.14,98.1 C19.26,108 26.82,114.84 41.76,114.84 C58.32,114.84 67.32,106.92 67.32,93.06 L67.32,91.44 C67.32,77.58 58.32,69.66 41.76,69.66 L27.18,69.66 L27.18,54.72 Z" id="3" fill-rule="nonzero" opacity="0.203125"></path>
            <g id="pictograms/web-application/web-02" transform="translate(73.340000, 69.800000)">
                <path d="M19.737375,12.5118438 L3.7646875,12.5118438 L3.7646875,65.6243438 L19.737375,65.6243438 L19.737375,12.5118438 Z M21.312375,12.5118438 L21.312375,65.6243438 L67.8125,65.6243438 L67.8125,12.5118438 L21.312375,12.5118438 Z M67.8125,10.9368438 L67.8125,5.94934375 L3.7646875,5.94934375 L3.7646875,10.9368438 L67.8125,10.9368438 Z M68.6,67.1993437 L2.975,67.1993437 C2.5396875,67.1993437 2.1875,66.8471562 2.1875,66.4118438 L2.1875,5.16184375 C2.1875,4.72653125 2.5396875,4.37434375 2.975,4.37434375 L68.6,4.37434375 C69.0375,4.37434375 69.3896875,4.72653125 69.3896875,5.16184375 L69.3896875,66.4118438 C69.3896875,66.8471562 69.0375,67.1993437 68.6,67.1993437 Z M64.225875,8.4433125 C64.225875,9.0470625 63.735875,9.5370625 63.132125,9.5370625 C62.5305625,9.5370625 62.038375,9.0470625 62.038375,8.4433125 C62.038375,7.8395625 62.5305625,7.3495625 63.132125,7.3495625 C63.735875,7.3495625 64.225875,7.8395625 64.225875,8.4433125 Z M59.850875,8.4433125 C59.850875,9.0470625 59.360875,9.5370625 58.757125,9.5370625 C58.1555625,9.5370625 57.663375,9.0470625 57.663375,8.4433125 C57.663375,7.8395625 58.1555625,7.3495625 58.757125,7.3495625 C59.360875,7.3495625 59.850875,7.8395625 59.850875,8.4433125 Z M55.475875,8.4433125 C55.475875,9.0470625 54.985875,9.5370625 54.382125,9.5370625 C53.7805625,9.5370625 53.288375,9.0470625 53.288375,8.4433125 C53.288375,7.8395625 53.7805625,7.3495625 54.382125,7.3495625 C54.985875,7.3495625 55.475875,7.8395625 55.475875,8.4433125 Z" id="Fill-8"></path>
            </g>
        </g>
    </g>
</svg>