<?xml version="1.0" encoding="UTF-8"?>
<svg width="131px" height="131px" viewBox="0 0 131 131" version="1.1" xmlns="http://www.w3.org/2000/svg" xmlns:xlink="http://www.w3.org/1999/xlink">
    <!-- Generator: Sketch 55.2 (78181) - https://sketchapp.com -->
    <title>bp-zcx-4</title>
    <desc>Created with Sketch.</desc>
    <g id="Page-1" stroke="none" stroke-width="1" fill="none" fill-rule="evenodd">
        <g id="bp-zcx-4" transform="translate(0.480000, 0.360000)" fill="#FFFFFF">
            <path d="M76.32,125.64 L59.76,125.64 L59.76,101.16 L0,101.16 L0,85.86 L52.02,0 L76.32,0 L76.32,86.94 L93.96,86.94 L93.96,101.16 L76.32,101.16 L76.32,125.64 Z M58.68,14.76 L15.66,86.94 L59.76,86.94 L59.76,14.76 L58.68,14.76 Z" id="4" fill-rule="nonzero" opacity="0.203125"></path>
            <g id="pictograms/cloud/docker" transform="translate(60.520000, 67.640000)">
                <path d="M27.038375,49.4600313 C27.944,49.4600313 28.679,50.1950313 28.679,51.1006563 C28.679,52.0062813 27.944,52.7412813 27.038375,52.7412813 C26.1305625,52.7412813 25.39775,52.0062813 25.39775,51.1006563 C25.39775,50.1950313 26.1305625,49.4600313 27.038375,49.4600313 Z M62.10225,39.1549375 C64.337875,39.1549375 66.4335,38.045875 67.680375,36.2324375 C66.45975,34.4474375 64.46475,33.3668125 62.2575625,33.3186875 C61.8288125,33.30775 61.4875625,32.95775 61.4875625,32.5311875 L61.4875625,32.5224375 C61.4875625,30.275875 60.3238125,28.184625 58.422875,26.9661875 C56.5219375,28.184625 55.3581875,30.275875 55.3581875,32.5224375 C55.3581875,34.3686875 56.15225,36.1493125 57.53475,37.40275 C57.775375,37.6215 57.8585,37.967125 57.740375,38.2711875 C57.62225,38.5730625 57.3313125,38.7743125 57.005375,38.7743125 L3.761625,38.7655625 L3.761625,39.9424375 C3.761625,45.66275 6.0869375,50.8515 9.8450625,54.684 C14.6838125,54.6555625 19.2163125,54.1218125 22.3225625,53.1965 C22.7469375,53.0630625 23.177875,53.3124375 23.3025625,53.725875 C23.42725,54.1436875 23.1888125,54.5811875 22.7731875,54.7036875 C19.89225,55.5611875 15.8738125,56.1015 11.5206875,56.23275 C15.3094375,59.3565 20.18975,61.250875 25.5185,61.250875 C44.212875,61.250875 59.4181875,48.283375 60.155375,39.874625 C60.190375,39.46775 60.531625,39.1549375 60.9406875,39.1549375 L62.10225,39.1549375 Z M14.7035,37.1861875 L21.8719375,37.1861875 L21.8719375,30.013375 L14.7035,30.013375 L14.7035,37.1861875 Z M23.4469375,28.4361875 L30.6219375,28.4361875 L30.6219375,21.263375 L23.4469375,21.263375 L23.4469375,28.4361875 Z M32.2056875,19.6861875 L39.3806875,19.6861875 L39.3806875,12.513375 L32.2056875,12.513375 L32.2056875,19.6861875 Z M40.957875,37.188375 L48.1263125,37.188375 L48.1263125,30.0155625 L40.957875,30.0155625 L40.957875,37.188375 Z M23.4535,37.188375 L30.6219375,37.188375 L30.6219375,30.0155625 L23.4535,30.0155625 L23.4535,37.188375 Z M32.207875,28.438375 L39.382875,28.438375 L39.382875,21.2655625 L32.207875,21.2655625 L32.207875,28.438375 Z M32.207875,37.188375 L39.3763125,37.188375 L39.3763125,30.0155625 L32.207875,30.0155625 L32.207875,37.188375 Z M69.2925625,35.832125 C69.4369375,36.0815 69.4369375,36.383375 69.2925625,36.63275 C67.8094375,39.1593125 65.0531875,40.732125 62.10225,40.732125 L61.634125,40.732125 C60.116,49.8911875 44.8494375,62.825875 25.5185,62.825875 C19.0806875,62.825875 13.246625,60.2555625 9.020375,56.105875 C8.9306875,56.044625 8.8585,55.965875 8.801625,55.8718125 C4.7175625,51.748375 2.186625,46.1330625 2.186625,39.9424375 L2.186625,37.9780625 C2.186625,37.7680625 2.26975,37.5668125 2.4185,37.42025 C2.5650625,37.2736875 2.7663125,37.1905625 2.974125,37.1905625 L13.1285,37.19275 L13.1285,29.225875 C13.1285,28.7905625 13.4806875,28.438375 13.916,28.438375 L21.8719375,28.438375 L21.8719375,20.475875 C21.8719375,20.0405625 22.2263125,19.688375 22.6594375,19.688375 L30.632875,19.688375 L30.632875,11.725875 C30.632875,11.2905625 30.9850625,10.938375 31.420375,10.938375 L40.170375,10.938375 C40.6035,10.938375 40.9556875,11.2905625 40.9556875,11.725875 L40.9556875,20.475875 L40.9556875,28.438375 L48.9138125,28.438375 C49.3469375,28.438375 49.7013125,28.7905625 49.7013125,29.225875 L49.7013125,37.197125 L55.2663125,37.197125 C54.310375,35.8343125 53.785375,34.20025 53.785375,32.5224375 C53.785375,29.5561875 55.4150625,26.8130625 58.04225,25.358375 C58.2785,25.2315 58.56725,25.2315 58.8035,25.358375 C61.214125,26.69275 62.78475,29.112125 63.02975,31.7918125 C65.646,32.0761875 67.951625,33.548375 69.2925625,35.832125 Z" id="Fill-5"></path>
            </g>
        </g>
    </g>
</svg>