<?xml version="1.0" encoding="utf-8"?>
<!-- Generator: Adobe Illustrator 24.1.0, SVG Export Plug-In . SVG Version: 6.00 Build 0)  -->
<svg version="1.1" id="Layer_1" xmlns="http://www.w3.org/2000/svg" xmlns:xlink="http://www.w3.org/1999/xlink" x="0px" y="0px"
	 width="32px" height="32px" viewBox="0 0 32 32" style="enable-background:new 0 0 32 32;" xml:space="preserve">
<style type="text/css">
	.st0{fill:#FFFFFF;}
</style>
<g id="justice">
	<path class="st0" d="M26,31.4H6v-0.7h6.7c0.2-1.6,1.4-2.8,3-3V13.3c-1.1-0.2-2-1.2-2-2.3s0.9-2.2,2-2.3V5.3L6,7.9l4.3,7.5
		c0,0.1,0,0.1,0,0.2c0,2.7-2.2,4.9-4.9,4.9s-4.9-2.2-4.9-4.9c0-0.1,0-0.1,0-0.2l4.5-7.9c0-0.1,0.1-0.1,0.2-0.2l0,0l21-5.6
		c0.2,0,0.3,0,0.4,0.2l4.5,7.9c0,0.1,0,0.1,0,0.2c0,2.7-2.2,4.9-4.9,4.9s-4.9-2.2-4.9-4.9c0-0.1,0-0.1,0-0.2l4.1-7.1l-9.4,2.5v3.6
		c1.1,0.2,2,1.2,2,2.3s-0.9,2.2-2,2.3v14.3c1.6,0.2,2.8,1.4,3,3H26V31.4z M13.4,30.6h5.2c-0.2-1.3-1.3-2.3-2.6-2.3
		C14.7,28.4,13.6,29.4,13.4,30.6z M1.4,16c0.2,2.1,2,3.6,4.1,3.6s3.9-1.6,4.1-3.6H1.4z M1.5,15.3h7.9l-4-6.9L1.5,15.3z M22.4,10.4
		c0.2,2.1,2,3.7,4.1,3.7s3.9-1.6,4.1-3.7H22.4z M16,9.4c-0.9,0-1.6,0.7-1.6,1.6s0.7,1.6,1.6,1.6s1.6-0.7,1.6-1.6S16.9,9.4,16,9.4z
		 M22.6,9.6h7.9l-3.9-6.9L22.6,9.6z"/>
</g>
</svg>
