<?xml version="1.0" encoding="utf-8"?>
<!-- Generator: Adobe Illustrator 24.1.0, SVG Export Plug-In . SVG Version: 6.00 Build 0)  -->
<svg version="1.1" id="Layer_1" xmlns="http://www.w3.org/2000/svg" xmlns:xlink="http://www.w3.org/1999/xlink" x="0px" y="0px"
	 width="32px" height="32px" viewBox="0 0 32 32" style="enable-background:new 0 0 32 32;" xml:space="preserve">
<style type="text/css">
	.st0{fill:#FFFFFF;}
</style>
<g id="tools">
	<path class="st0" d="M25.2,31.3c-0.8,0-1.5-0.1-2.2-0.4c-3.2-1.2-4.9-4.7-3.8-8L9,12.8c-1.6,0.5-3.3,0.4-4.7-0.3
		C1.1,11-0.2,7.2,1.3,4c0.1-0.1,0.1-0.2,0.3-0.2c0.1,0,0.2,0,0.3,0.1l4,4c0.6,0.6,1.7,0.6,2.3,0c0.6-0.6,0.6-1.7,0-2.3l-4-4
		C4.1,1.5,4,1.4,4.1,1.3c0-0.1,0.1-0.2,0.2-0.3c1.6-0.7,3.4-0.8,5-0.2c1.6,0.6,2.9,1.8,3.6,3.3c0.7,1.5,0.8,3.1,0.2,4.6l10.2,10.2
		c1.6-0.5,3.3-0.4,4.8,0.3c3.2,1.5,4.5,5.3,3,8.5c-0.1,0.1-0.1,0.2-0.3,0.2c-0.1,0-0.2,0-0.3-0.1l-4-4c-0.3-0.3-0.7-0.5-1.2-0.5h0
		c-0.4,0-0.8,0.2-1.2,0.5c-0.6,0.6-0.6,1.7,0,2.3l4,4c0.1,0.1,0.1,0.2,0.1,0.3c0,0.1-0.1,0.2-0.2,0.3C27.1,31.1,26.2,31.3,25.2,31.3
		z M9.1,12c0.1,0,0.2,0,0.3,0.1l10.5,10.5C20,22.7,20,22.9,20,23c-1.1,2.9,0.4,6.2,3.3,7.3c1.3,0.5,2.7,0.5,3.9,0l-3.6-3.6
		c-0.9-0.9-0.9-2.4,0-3.3c0.9-0.9,2.4-0.9,3.3,0l3.6,3.6c0.5-1.2,0.5-2.6,0-3.8c-0.5-1.4-1.5-2.6-2.9-3.2c-1.4-0.7-3-0.7-4.4-0.2
		c-0.1,0.1-0.3,0-0.4-0.1L12.4,9.1c-0.1-0.1-0.1-0.2-0.1-0.4c0.5-1.4,0.5-2.9-0.1-4.3C11.5,3,10.4,2,9,1.5C7.7,1,6.3,1,5,1.5
		l3.6,3.6c0.9,0.9,0.9,2.4,0,3.3c-0.9,0.9-2.4,0.9-3.3,0L1.7,4.8c-1,2.7,0.2,5.8,2.9,7c1.4,0.7,3,0.7,4.4,0.2C9,12,9.1,12,9.1,12z
		 M3,31.1c-0.1,0-0.2,0-0.3-0.1L1,29.3c-0.1-0.1-0.1-0.4,0-0.5l3-3.2c0.1-0.1,0.2-0.1,0.3-0.1c0.1,0,0.2,0,0.3,0.1l0.7,0.7l7.5-7.5
		l0.5,0.5l-7.5,7.5l0.8,0.8c0.1,0.1,0.1,0.2,0.1,0.3c0,0.1,0,0.2-0.1,0.3L3.2,31C3.2,31.1,3.1,31.1,3,31.1z M1.7,29L3,30.3l2.7-2.5
		l-1.5-1.5L1.7,29z M21.5,14.4L21,13.9l9.3-9.3c0.4-0.4,0.6-0.9,0.6-1.4c0-0.5-0.2-1-0.6-1.4c-0.8-0.8-2.1-0.8-2.9,0L18.1,11
		l-0.5-0.5l9.3-9.3c1.1-1.1,2.8-1.1,3.9,0c0.5,0.5,0.8,1.2,0.8,1.9s-0.3,1.4-0.8,1.9L21.5,14.4z M19.8,12.7l-0.5-0.5l9.3-9.3
		l0.5,0.5L19.8,12.7z"/>
</g>
</svg>
