<?xml version="1.0" encoding="utf-8"?>
<!-- Generator: Adobe Illustrator 24.1.0, SVG Export Plug-In . SVG Version: 6.00 Build 0)  -->
<svg version="1.1" id="Layer_1" xmlns="http://www.w3.org/2000/svg" xmlns:xlink="http://www.w3.org/1999/xlink" x="0px" y="0px"
	 width="32px" height="32px" viewBox="0 0 32 32" style="enable-background:new 0 0 32 32;" xml:space="preserve">
<style type="text/css">
	.st0{fill:#FFFFFF;}
</style>
<path class="st0" d="M26.9,31.3h-22c-0.2,0-0.4-0.2-0.4-0.4v-4.5h0.7v4.2h21.3v-4.2h0.7v4.5C27.3,31.1,27.1,31.3,26.9,31.3z
	 M15.9,28.8c-1.2,0-2.5-0.5-3.4-1.4c-1.9-1.9-1.9-5,0-6.9c0.9-0.9,2.1-1.4,3.4-1.4c0,0,0,0,0,0c1.3,0,2.5,0.5,3.4,1.4
	c1.9,1.9,1.9,5,0,6.9c0,0,0,0,0,0C18.4,28.3,17.2,28.8,15.9,28.8z M15.2,28c1.3,0.2,2.6-0.2,3.6-1.2l0,0c1.5-1.5,1.6-4,0.2-5.6
	l-2.9,2.8L15.2,28z M12.2,22.1c-0.7,1.5-0.5,3.4,0.8,4.7c0.5,0.4,1,0.8,1.5,1l1-3.7L12.2,22.1z M12.5,21.5l3.3,1.9l2.7-2.7
	c-0.7-0.6-1.7-1-2.7-1c0,0,0,0,0,0c-1.1,0-2.1,0.4-2.9,1.2C12.8,21.2,12.7,21.3,12.5,21.5z M27.3,21.4h-0.7v-4.1H5.3v4.1H4.6v-4.5
	c0-0.2,0.2-0.4,0.4-0.4h1.8c1.5-1.9,3.5-3.4,5.8-4.1c-1.2-0.7-2.1-1.8-2.6-3.1C9.3,7.7,9.3,6,10,4.4c1.4-3.2,5.3-4.7,8.5-3.3
	c1.6,0.7,2.8,2,3.4,3.6c0.6,1.6,0.6,3.4-0.1,4.9c-0.5,1.2-1.4,2.2-2.5,2.8c2.3,0.7,4.3,2.2,5.8,4.1h1.8c0.2,0,0.4,0.2,0.4,0.4V21.4z
	 M7.7,16.6h16.5c-1.5-1.8-3.6-3.1-5.9-3.7c-0.2,0-0.3-0.2-0.3-0.3c0-0.2,0.1-0.3,0.2-0.4c1.3-0.6,2.3-1.6,2.9-2.9
	c0.6-1.4,0.7-3,0.1-4.4c-0.5-1.4-1.6-2.6-3-3.2c-2.9-1.3-6.3,0-7.5,2.9c-0.6,1.4-0.7,3-0.1,4.4c0.5,1.4,1.6,2.6,3,3.2
	c0.1,0.1,0.2,0.2,0.2,0.4c0,0.2-0.1,0.3-0.3,0.3C11.2,13.5,9.2,14.7,7.7,16.6z M26.9,26.8c-1.6,0-2.9-1.3-2.9-2.9s1.3-2.9,2.9-2.9h0
	c0.8,0,1.5,0.3,2,0.8c0.5,0.5,0.8,1.3,0.8,2C29.8,25.5,28.5,26.8,26.9,26.8z M26.9,21.4v0.4c-1.2,0-2.1,1-2.1,2.1s1,2.1,2.1,2.1
	s2.1-1,2.1-2.1c0-0.6-0.2-1.1-0.6-1.5c-0.4-0.4-0.9-0.6-1.5-0.6L26.9,21.4z M4.9,26.8c-1.6,0-2.9-1.3-2.9-2.9s1.3-2.9,2.9-2.9
	s2.9,1.3,2.9,2.9S6.5,26.8,4.9,26.8z M4.9,21.8c-1.2,0-2.1,1-2.1,2.1s1,2.1,2.1,2.1s2.1-1,2.1-2.1S6.1,21.8,4.9,21.8z"/>
</svg>
