<?xml version="1.0" encoding="utf-8"?>
<!-- Generator: Adobe Illustrator 24.1.0, SVG Export Plug-In . SVG Version: 6.00 Build 0)  -->
<svg version="1.1" id="Layer_1" xmlns="http://www.w3.org/2000/svg" xmlns:xlink="http://www.w3.org/1999/xlink" x="0px" y="0px"
	 width="32px" height="32px" viewBox="0 0 32 32" style="enable-background:new 0 0 32 32;" xml:space="preserve">
<style type="text/css">
	.st0{fill:#FFFFFF;}
</style>
<path class="st0" d="M12,21.2c0.4,0,0.8,0.3,0.8,0.8s-0.3,0.8-0.8,0.8s-0.8-0.3-0.8-0.8S11.6,21.2,12,21.2z M11.2,27.4
	c-2.8,0-5.4-1.1-7.3-3c-2-2-3.1-4.6-3.2-7.4l0-1c0-0.2,0.2-0.4,0.4-0.4h4.6V12c0-0.2,0.2-0.4,0.4-0.4h3.6V8c0-0.2,0.2-0.4,0.4-0.4
	h3.6V4c0-0.2,0.2-0.4,0.4-0.4h4c0.2,0,0.4,0.2,0.4,0.4v7.6H22c0.2,0,0.4,0.2,0.4,0.4v3.6h2.5c-0.4-0.6-0.6-1.2-0.7-1.9
	c-0.1-1,0.3-1.9,1-2.7c0.3-0.3,0.6-0.6,1-0.8c0.1-0.1,0.2-0.1,0.3,0c1.1,0.6,1.8,1.7,1.9,2.9c1.2,0.1,2.2,0.8,2.9,1.8
	c0.1,0.1,0.1,0.3,0,0.4c-0.7,1.2-2,1.9-3.3,1.9h-0.2c-0.7,4.2-7.7,10.1-16.5,10.1C11.3,27.4,11.2,27.4,11.2,27.4z M4.9,24.4
	c1.8,1.5,4.1,2.3,6.4,2.3c8.7,0,15.5-5.8,15.8-9.8c0-0.2,0.2-0.3,0.4-0.3H28c1,0,2-0.5,2.6-1.3c-0.5-0.8-1.4-1.3-2.3-1.3
	c0,0-0.1,0-0.2,0c-0.2,0-0.4-0.2-0.4-0.4c0,0,0,0,0,0c0,0,0,0,0,0c0,0,0,0,0,0c0-1-0.5-2-1.4-2.5c-0.2,0.1-0.4,0.3-0.6,0.5
	c-0.5,0.6-0.8,1.4-0.8,2.2c0,0.8,0.4,1.5,1,2.1c0.1,0.1,0.1,0.3,0.1,0.4c-0.1,0.1-0.2,0.2-0.3,0.2H1.4v0.5c0,2.6,1,4.9,2.8,6.7
	c2,0,3.9-0.2,5.8-0.7c0.2,0,0.4,0.1,0.4,0.3c0,0.2-0.1,0.4-0.3,0.4C8.4,24.1,6.6,24.3,4.9,24.4z M18.4,15.6h3.3v-3.3h-3.3V15.6z
	 M14.4,15.6h3.3v-3.3h-3.3V15.6z M10.4,15.6h3.3v-3.3h-3.3V15.6z M6.4,15.6h3.3v-3.3H6.4V15.6z M14.4,11.6h3.3V8.4h-3.3V11.6z
	 M10.4,11.6h3.3V8.4h-3.3V11.6z M14.4,7.6h3.3V4.4h-3.3V7.6z"/>
</svg>
