<?xml version="1.0" encoding="utf-8"?>
<!-- Generator: Adobe Illustrator 24.1.0, SVG Export Plug-In . SVG Version: 6.00 Build 0)  -->
<svg version="1.1" id="Layer_1" xmlns="http://www.w3.org/2000/svg" xmlns:xlink="http://www.w3.org/1999/xlink" x="0px" y="0px"
	 width="32px" height="32px" viewBox="0 0 32 32" style="enable-background:new 0 0 32 32;" xml:space="preserve">
<path d="M19.1,31.4H6c-2.6,0-5.4-1.9-5.4-5.5c0-3.1,1.4-5.1,4.7-7l3.1-1.8c0.5-0.3,0.9-0.4,1.3-0.4c1,0,1.6,0.8,1.6,1.6
	c0,0.7-0.4,1.1-1,1.5l-1.2,0.8H20c0.9,0,1.6,0.7,1.6,1.6c0,0.3-0.1,0.6-0.3,0.9h0.2c0,0,0,0,0,0c0.4,0,0.8,0.2,1.1,0.5
	c0.3,0.3,0.5,0.7,0.5,1.1c0,0.9-0.7,1.6-1.6,1.6h-0.2c0.2,0.3,0.3,0.6,0.3,0.9c0,0.8-0.6,1.4-1.3,1.6c0.2,0.3,0.3,0.6,0.3,0.9
	C20.7,30.7,19.9,31.4,19.1,31.4z M9.8,17.4c-0.3,0-0.6,0.1-1,0.3l-3.1,1.8c-3.1,1.8-4.4,3.6-4.4,6.4c0,3.1,2.4,4.8,4.6,4.8h13.1
	c0.5,0,0.9-0.4,0.9-0.9c0-0.5-0.4-0.9-0.9-0.9h-6.7v-0.7H20c0.5,0,0.9-0.4,0.9-0.9c0-0.5-0.4-0.9-0.9-0.9h-7.7v-0.7h9.2
	c0.5,0,0.9-0.4,0.9-0.9c0-0.2-0.1-0.5-0.3-0.6c-0.2-0.2-0.4-0.3-0.6-0.3c0,0,0,0,0,0h-9.2v-0.7H20c0.5,0,0.9-0.4,0.9-0.9
	c0-0.5-0.4-0.9-0.9-0.9H8c-0.2,0-0.3-0.1-0.3-0.3c0-0.2,0-0.3,0.1-0.4l2.2-1.5c0.5-0.4,0.6-0.6,0.6-0.9
	C10.7,17.8,10.4,17.4,9.8,17.4z M26,15.4H12.8c-0.9,0-1.6-0.7-1.6-1.6c0-0.4,0.1-0.7,0.3-0.9c-0.7-0.2-1.3-0.8-1.3-1.6
	c0-0.3,0.1-0.6,0.3-0.9h-0.2c-0.9,0-1.6-0.7-1.6-1.6c0-0.4,0.2-0.8,0.5-1.2c0.3-0.3,0.7-0.5,1.1-0.5c0,0,0,0,0,0h0.2
	c-0.2-0.3-0.3-0.6-0.3-0.9c0-0.9,0.7-1.6,1.6-1.6h10.9l-1.2-0.8c-0.6-0.4-1-0.8-1-1.5c0-0.8,0.6-1.6,1.6-1.6c0.5,0,0.8,0.1,1.3,0.4
	l3.1,1.8c3.4,1.9,4.8,4,4.8,7.1C31.4,13.4,28.6,15.4,26,15.4z M12.8,12.8c-0.5,0-0.9,0.4-0.9,0.9c0,0.5,0.4,0.9,0.9,0.9H26
	c2.3,0,4.7-1.7,4.7-4.8c0-2.8-1.3-4.6-4.4-6.4l-3.1-1.8c-0.4-0.2-0.7-0.3-1-0.3c-0.6,0-0.8,0.4-0.8,0.9c0,0.3,0.1,0.5,0.7,0.9
	l2.2,1.5c0.1,0.1,0.2,0.3,0.1,0.4s-0.2,0.3-0.3,0.3H11.8c-0.5,0-0.9,0.4-0.9,0.9c0,0.5,0.4,0.9,0.9,0.9h7.7v0.7h-9.3
	C10,7.8,9.8,7.9,9.6,8C9.5,8.2,9.4,8.4,9.4,8.7c0,0.5,0.4,0.9,0.9,0.9h9.3v0.7h-7.7c-0.5,0-0.9,0.4-0.9,0.9s0.4,0.9,0.9,0.9h7.7v0.7
	H12.8z"/>
</svg>
