<?xml version="1.0" encoding="utf-8"?>
<!-- Generator: Adobe Illustrator 24.1.0, SVG Export Plug-In . SVG Version: 6.00 Build 0)  -->
<svg version="1.1" id="Layer_1" xmlns="http://www.w3.org/2000/svg" xmlns:xlink="http://www.w3.org/1999/xlink" x="0px" y="0px"
	 width="32px" height="32px" viewBox="0 0 32 32" style="enable-background:new 0 0 32 32;" xml:space="preserve">
<path d="M4.7,8c-0.2,0-0.4,0-0.6-0.1S3.8,7.6,3.7,7.5L4,7.2c0.1,0.1,0.2,0.2,0.3,0.3c0.1,0.1,0.3,0.1,0.4,0.1c0.2,0,0.3,0,0.4-0.1
	s0.1-0.2,0.1-0.3c0-0.1,0-0.2-0.1-0.3C5.1,6.8,5,6.7,4.9,6.7l-0.2,0C4.3,6.6,4.1,6.5,4,6.4C3.9,6.3,3.8,6.1,3.8,5.9
	c0-0.1,0-0.2,0.1-0.3S4,5.4,4.1,5.3c0.1-0.1,0.2-0.1,0.3-0.2s0.3-0.1,0.4-0.1c0.2,0,0.4,0,0.5,0.1c0.2,0.1,0.3,0.2,0.4,0.3L5.4,5.8
	C5.3,5.7,5.2,5.6,5.1,5.6C5,5.5,4.9,5.5,4.7,5.5c-0.2,0-0.3,0-0.4,0.1C4.3,5.6,4.2,5.7,4.2,5.8c0,0.1,0,0.2,0.1,0.3
	c0.1,0.1,0.2,0.1,0.3,0.1l0.2,0.1c0.3,0.1,0.5,0.1,0.6,0.3s0.2,0.3,0.2,0.5c0,0.1,0,0.2-0.1,0.4S5.6,7.6,5.5,7.7
	C5.4,7.8,5.3,7.9,5.2,7.9C5,7.9,4.9,8,4.7,8z M7.4,8C7.2,8,7,7.9,6.9,7.9S6.6,7.7,6.5,7.6C6.4,7.5,6.3,7.3,6.2,7.1
	C6.2,7,6.2,6.7,6.2,6.5c0-0.2,0-0.4,0.1-0.6c0.1-0.2,0.1-0.3,0.2-0.5c0.1-0.1,0.2-0.2,0.4-0.3s0.3-0.1,0.5-0.1c0.2,0,0.3,0,0.5,0.1
	s0.3,0.2,0.4,0.3c0.1,0.1,0.2,0.3,0.2,0.5c0.1,0.2,0.1,0.4,0.1,0.6c0,0.2,0,0.4-0.1,0.6C8.4,7.3,8.3,7.5,8.2,7.6
	C8.1,7.7,8,7.8,7.9,7.9S7.5,8,7.4,8z M7.4,7.6c0.1,0,0.2,0,0.3-0.1s0.2-0.1,0.2-0.2C7.9,7.3,8,7.2,8,7.1s0.1-0.2,0.1-0.3V6.3
	c0-0.1,0-0.2-0.1-0.3S7.9,5.8,7.9,5.7C7.8,5.6,7.7,5.6,7.7,5.5S7.5,5.5,7.4,5.5c-0.1,0-0.2,0-0.3,0.1S6.9,5.6,6.8,5.7
	C6.8,5.8,6.7,5.8,6.7,5.9S6.6,6.2,6.6,6.3v0.4c0,0.1,0,0.2,0.1,0.3s0.1,0.2,0.1,0.3C6.9,7.4,7,7.5,7.1,7.5S7.3,7.6,7.4,7.6z
	 M9.1,7.9V5.1h0.5v2.4h1.1v0.4H9.1z M11.5,5.1v1.7c0,0.2,0,0.4,0.1,0.5c0.1,0.1,0.2,0.2,0.5,0.2s0.4-0.1,0.5-0.2s0.1-0.3,0.1-0.5
	V5.1h0.4v1.6c0,0.2,0,0.4-0.1,0.5c0,0.1-0.1,0.3-0.2,0.4c-0.1,0.1-0.2,0.2-0.3,0.2c-0.1,0-0.3,0.1-0.5,0.1s-0.4,0-0.5-0.1
	c-0.1,0-0.2-0.1-0.3-0.2c-0.1-0.1-0.1-0.2-0.2-0.4C11.1,7.1,11,7,11,6.8V5.1H11.5z M14.8,5.5v2.4h-0.5V5.5h-0.8V5.1h2.1v0.4H14.8z
	 M16,7.9V7.5h0.4V5.5H16V5.1h1.2v0.4h-0.4v2.1h0.4v0.4H16z M18.8,8c-0.2,0-0.3,0-0.5-0.1c-0.1-0.1-0.3-0.2-0.4-0.3
	c-0.1-0.1-0.2-0.3-0.2-0.5c-0.1-0.2-0.1-0.4-0.1-0.6c0-0.2,0-0.4,0.1-0.6c0.1-0.2,0.1-0.3,0.2-0.5c0.1-0.1,0.2-0.2,0.4-0.3
	c0.1-0.1,0.3-0.1,0.5-0.1s0.3,0,0.5,0.1c0.1,0.1,0.3,0.2,0.4,0.3c0.1,0.1,0.2,0.3,0.2,0.5C20,6.1,20,6.3,20,6.5C20,6.7,20,7,20,7.1
	c-0.1,0.2-0.1,0.3-0.2,0.5c-0.1,0.1-0.2,0.2-0.4,0.3C19.2,7.9,19,8,18.8,8z M18.8,7.6c0.1,0,0.2,0,0.3-0.1c0.1,0,0.2-0.1,0.2-0.2
	c0.1-0.1,0.1-0.2,0.1-0.3c0-0.1,0.1-0.2,0.1-0.3V6.3c0-0.1,0-0.2-0.1-0.3c0-0.1-0.1-0.2-0.1-0.3c-0.1-0.1-0.1-0.1-0.2-0.2
	c-0.1,0-0.2-0.1-0.3-0.1c-0.1,0-0.2,0-0.3,0.1s-0.2,0.1-0.2,0.2c-0.1,0.1-0.1,0.2-0.1,0.3c0,0.1-0.1,0.2-0.1,0.3v0.4
	c0,0.1,0,0.2,0.1,0.3c0,0.1,0.1,0.2,0.1,0.3c0.1,0.1,0.1,0.1,0.2,0.2S18.7,7.6,18.8,7.6z M21.4,6.4L21,5.8h0v2.1h-0.4V5.1h0.5
	L22,6.7l0.3,0.6h0V5.1h0.4v2.8h-0.5L21.4,6.4z M24.3,7.9V7.5h0.4V5.5h-0.4V5.1h1.2v0.4h-0.4v2.1h0.4v0.4H24.3z M26.1,5.1h1
	c0.2,0,0.3,0,0.5,0.1c0.1,0.1,0.3,0.1,0.4,0.3c0.1,0.1,0.2,0.3,0.2,0.4c0.1,0.2,0.1,0.4,0.1,0.6c0,0.2,0,0.4-0.1,0.6
	c-0.1,0.2-0.1,0.3-0.2,0.4c-0.1,0.1-0.2,0.2-0.4,0.3c-0.1,0.1-0.3,0.1-0.5,0.1h-1V5.1z M27.1,7.5c0.2,0,0.4-0.1,0.5-0.2
	s0.2-0.3,0.2-0.6V6.3c0-0.3-0.1-0.4-0.2-0.6c-0.1-0.1-0.3-0.2-0.5-0.2h-0.5v2H27.1z M5.5,21H5.1l-0.6-1h0l-0.6,1H3.4l0.8-1.2
	l-0.8-1.2h0.5l0.6,0.9h0l0.6-0.9h0.4l-0.8,1.2L5.5,21z M6.3,21l-0.6-2.4h0.4l0.2,1.2l0.2,0.8h0l0.2-0.8L7,18.6h0.4l0.3,1.2l0.2,0.8
	h0l0.2-0.8l0.3-1.2h0.4L8.2,21H7.7l-0.3-1.3L7.2,19h0L7,19.8L6.7,21H6.3z M10.8,21H9v-0.4l1.3-1.7H9v-0.4h1.7v0.4l-1.3,1.7h1.4V21z
	 M12.1,21.1c-0.2,0-0.3,0-0.4-0.1c-0.1-0.1-0.2-0.1-0.3-0.2c-0.1-0.1-0.2-0.2-0.2-0.4c0-0.2-0.1-0.3-0.1-0.5s0-0.4,0.1-0.5
	c0.1-0.2,0.1-0.3,0.2-0.4c0.1-0.1,0.2-0.2,0.3-0.2c0.1-0.1,0.3-0.1,0.4-0.1s0.3,0,0.4,0.1c0.1,0.1,0.2,0.1,0.3,0.2s0.2,0.2,0.2,0.4
	s0.1,0.3,0.1,0.5s0,0.4-0.1,0.5c-0.1,0.2-0.1,0.3-0.2,0.4c-0.1,0.1-0.2,0.2-0.3,0.2S12.2,21.1,12.1,21.1z M12.1,20.7
	c0.1,0,0.2,0,0.3,0c0.1,0,0.1-0.1,0.2-0.1c0.1-0.1,0.1-0.1,0.1-0.2c0-0.1,0-0.2,0-0.3v-0.4c0-0.1,0-0.2,0-0.3s-0.1-0.2-0.1-0.2
	c-0.1-0.1-0.1-0.1-0.2-0.1c-0.1,0-0.2,0-0.3,0c-0.1,0-0.2,0-0.3,0c-0.1,0-0.1,0.1-0.2,0.1c-0.1,0.1-0.1,0.1-0.1,0.2s0,0.2,0,0.3V20
	c0,0.1,0,0.2,0,0.3c0,0.1,0.1,0.2,0.1,0.2c0.1,0.1,0.1,0.1,0.2,0.1C11.9,20.7,12,20.7,12.1,20.7z M15.4,21H15l-0.6-1h0l-0.6,1h-0.4
	l0.8-1.2l-0.8-1.2h0.5l0.6,0.9h0l0.6-0.9h0.4l-0.8,1.2L15.4,21z M16.2,21l-0.6-2.4H16l0.2,1.2l0.2,0.8h0l0.2-0.8l0.3-1.2h0.4
	l0.3,1.2l0.2,0.8h0l0.2-0.8l0.3-1.2h0.4L18.1,21h-0.4l-0.3-1.3L17.1,19h0l-0.2,0.7L16.6,21H16.2z M20.7,21h-1.8v-0.4l1.3-1.7h-1.3
	v-0.4h1.7v0.4l-1.3,1.7h1.4V21z M22,21.1c-0.2,0-0.3,0-0.4-0.1c-0.1-0.1-0.2-0.1-0.3-0.2c-0.1-0.1-0.2-0.2-0.2-0.4
	c0-0.2-0.1-0.3-0.1-0.5s0-0.4,0.1-0.5c0.1-0.2,0.1-0.3,0.2-0.4c0.1-0.1,0.2-0.2,0.3-0.2c0.1-0.1,0.3-0.1,0.4-0.1
	c0.2,0,0.3,0,0.4,0.1c0.1,0.1,0.2,0.1,0.3,0.2s0.2,0.2,0.2,0.4c0,0.2,0.1,0.3,0.1,0.5s0,0.4-0.1,0.5c-0.1,0.2-0.1,0.3-0.2,0.4
	c-0.1,0.1-0.2,0.2-0.3,0.2C22.3,21,22.1,21.1,22,21.1z M22,20.7c0.1,0,0.2,0,0.3,0c0.1,0,0.1-0.1,0.2-0.1c0.1-0.1,0.1-0.1,0.1-0.2
	c0-0.1,0-0.2,0-0.3v-0.4c0-0.1,0-0.2,0-0.3s-0.1-0.2-0.1-0.2c-0.1-0.1-0.1-0.1-0.2-0.1c-0.1,0-0.2,0-0.3,0c-0.1,0-0.2,0-0.3,0
	c-0.1,0-0.1,0.1-0.2,0.1c-0.1,0.1-0.1,0.1-0.1,0.2s0,0.2,0,0.3V20c0,0.1,0,0.2,0,0.3c0,0.1,0.1,0.2,0.1,0.2c0.1,0.1,0.1,0.1,0.2,0.1
	C21.8,20.7,21.9,20.7,22,20.7z M25.3,21h-0.5l-0.6-1h0l-0.6,1h-0.4l0.8-1.2l-0.8-1.2h0.5l0.6,0.9h0l0.6-0.9h0.4l-0.8,1.2L25.3,21z
	 M26.1,21l-0.6-2.4h0.4l0.2,1.2l0.2,0.8h0l0.2-0.8l0.3-1.2h0.4l0.3,1.2l0.2,0.8h0l0.2-0.8l0.3-1.2h0.4L28,21h-0.4l-0.3-1.3L27,19h0
	l-0.2,0.7L26.5,21H26.1z M31,10.3H1.2v0.7H31V10.3z M31.4,30.4H0.6V1.6h30.7V30.4z M1.4,29.6h29.3V2.4H1.4V29.6z"/>
</svg>
