<?xml version="1.0" encoding="utf-8"?>
<!-- Generator: Adobe Illustrator 24.1.0, SVG Export Plug-In . SVG Version: 6.00 Build 0)  -->
<svg version="1.1" id="Layer_1" xmlns="http://www.w3.org/2000/svg" xmlns:xlink="http://www.w3.org/1999/xlink" x="0px" y="0px"
	 width="31.4px" height="32.8px" viewBox="0 0 31.4 32.8" style="enable-background:new 0 0 31.4 32.8;" xml:space="preserve">
<style type="text/css">
	.st0{fill:#231F20;}
</style>
<path class="st0" d="M30.7,20.8l-2-0.5l0.2-0.7l2,0.5L30.7,20.8z M0.6,20.8l-0.2-0.7l2-0.5l0.2,0.7L0.6,20.8z M2.1,16.8H0v-0.7h2.1
	V16.8z M31.3,16.8h-2.1v-0.7h2.1V16.8z M28.9,13.3l-0.2-0.7l2-0.5l0.2,0.7L28.9,13.3z M2.5,13.3l-2-0.5L0.6,12l2,0.5L2.5,13.3z
	 M24,32.5H7.3c-0.2,0-0.4-0.2-0.4-0.4V0.8c0-0.2,0.2-0.4,0.4-0.4H24c0.2,0,0.4,0.2,0.4,0.4v31.3C24.4,32.3,24.2,32.5,24,32.5z
	 M7.7,31.7h16V1.1h-16V31.7z M19.8,11.6h-8.4v-0.7h8.4V11.6z M19.8,8.4h-8.4V7.7h8.4V8.4z M19.8,5.3h-8.4V4.6h8.4V5.3z"/>
</svg>
