<?xml version="1.0" encoding="utf-8"?>
<!-- Generator: Adobe Illustrator 24.1.0, SVG Export Plug-In . SVG Version: 6.00 Build 0)  -->
<svg version="1.1" id="Layer_1" xmlns="http://www.w3.org/2000/svg" xmlns:xlink="http://www.w3.org/1999/xlink" x="0px" y="0px"
	 width="39px" height="34.2px" viewBox="0 0 39 34.2" style="enable-background:new 0 0 39 34.2;" xml:space="preserve">
<style type="text/css">
	.st0{fill:#231F20;}
</style>
<path class="st0" d="M30.8,24.5c-0.2,0-0.4-0.2-0.4-0.4s0.2-0.4,0.4-0.4H31c3.6,0,6.6-2.8,6.8-6.4c0.3-3.8-2.6-7.1-6.4-7.4
	c-0.2,0-0.3-0.2-0.3-0.3C31,6.3,29,3.3,25.9,1.9C21.4-0.1,16.1,1.8,14,6.3c-0.1,0.2-0.3,0.3-0.5,0.2c-1.1-0.5-2.2-0.7-3.4-0.7
	c0,0,0,0,0,0c-4.5,0-8.2,3.3-8.9,7.7c-0.7,4.9,2.7,9.5,7.6,10.3c0.2,0,0.3,0.2,0.3,0.4c0,0.2-0.2,0.3-0.4,0.3
	c-5.3-0.8-9-5.8-8.2-11.1c0.7-4.8,4.7-8.3,9.6-8.3c1.1,0,2.3,0.2,3.4,0.6c1.1-2.2,3-3.9,5.3-4.7c2.4-0.9,5.1-0.8,7.4,0.3
	c3.2,1.5,5.3,4.5,5.6,8c4,0.5,7,4.1,6.7,8.2c-0.3,3.9-3.6,7-7.6,7.1H30.8z M24.6,16.8c0,0.3,0.3,0.6,0.6,0.6s0.6-0.3,0.6-0.6
	s-0.3-0.6-0.6-0.6S24.6,16.5,24.6,16.8z M24.6,24c0,0.3,0.3,0.6,0.6,0.6s0.6-0.3,0.6-0.6s-0.3-0.6-0.6-0.6S24.6,23.7,24.6,24z
	 M24.6,31.2c0,0.3,0.3,0.6,0.6,0.6s0.6-0.3,0.6-0.6s-0.3-0.6-0.6-0.6S24.6,30.9,24.6,31.2z M28.3,19v-4.5c0-0.2-0.2-0.4-0.4-0.4H11
	c-0.2,0-0.4,0.2-0.4,0.4V19c0,0.2,0.2,0.4,0.4,0.4H28C28.2,19.4,28.3,19.2,28.3,19z M11.4,14.9h16.2v3.8H11.4V14.9z M28.3,26.2v-4.5
	c0-0.2-0.2-0.4-0.4-0.4H11c-0.2,0-0.4,0.2-0.4,0.4v4.5c0,0.2,0.2,0.4,0.4,0.4H28C28.2,26.6,28.3,26.4,28.3,26.2z M11.4,22.1h16.2
	v3.8H11.4V22.1z M28.3,33.5v-4.5c0-0.2-0.2-0.4-0.4-0.4H11c-0.2,0-0.4,0.2-0.4,0.4v4.5c0,0.2,0.2,0.4,0.4,0.4H28
	C28.2,33.8,28.3,33.6,28.3,33.5z M11.4,29.3h16.2v3.8H11.4V29.3z"/>
</svg>
