<?xml version="1.0" encoding="utf-8"?>
<!-- Generator: Adobe Illustrator 24.1.0, SVG Export Plug-In . SVG Version: 6.00 Build 0)  -->
<svg version="1.1" id="Layer_1" xmlns="http://www.w3.org/2000/svg" xmlns:xlink="http://www.w3.org/1999/xlink" x="0px" y="0px"
	 width="32px" height="32px" viewBox="0 0 32 32" style="enable-background:new 0 0 32 32;" xml:space="preserve">
<path d="M22.1,3.5l-6-3.2l0,0L16,0.2L4.4,6.5V20C4.5,26.3,9.7,31.5,16,31.5c6.4,0,11.6-5.2,11.6-11.6V6.7V6.5L22.1,3.5z M25.6,25.1
	c-0.1,0.2-0.2,0.3-0.3,0.4c-0.1,0.1-0.2,0.3-0.3,0.4c-0.1,0.1-0.2,0.3-0.3,0.4c-0.1,0.1-0.2,0.3-0.3,0.4c-0.1,0.1-0.2,0.3-0.4,0.4
	c-0.1,0.1-0.2,0.2-0.3,0.4c-0.1,0.1-0.3,0.3-0.4,0.4c-0.1,0.1-0.2,0.2-0.4,0.3c-0.1,0.1-0.1,0.1-0.2,0.2l-6.5-3.5v-5.4l9.5,5.2
	C25.8,24.8,25.7,25,25.6,25.1z M21.7,29.2c-0.1,0.1-0.3,0.2-0.4,0.2c-0.2,0.1-0.3,0.2-0.5,0.3c-0.1,0.1-0.3,0.1-0.4,0.2
	c-0.2,0.1-0.3,0.1-0.5,0.2c-0.2,0.1-0.3,0.1-0.5,0.2c-0.2,0.1-0.4,0.1-0.5,0.2c-0.2,0-0.3,0.1-0.5,0.1c-0.2,0-0.4,0.1-0.5,0.1
	c-0.2,0-0.4,0.1-0.5,0.1c-0.2,0-0.4,0-0.5,0c-0.1,0-0.3,0-0.4,0v-5.2l5.9,3.2c0,0,0,0,0,0C22,29,21.9,29.1,21.7,29.2z M27,12.3
	L16.3,6.5V1.1L27,6.9V12.3z M16.3,7.2L27,13v5.3l-10.6-5.8V7.2z M5.1,20V6.9l10.6-5.8v29.8C9.9,30.6,5.1,25.8,5.1,20z M26.9,21.1
	c0,0.1,0,0.3-0.1,0.4c0,0.2-0.1,0.5-0.1,0.7c0,0.1-0.1,0.3-0.1,0.4c-0.1,0.2-0.1,0.4-0.2,0.6c0,0.2-0.1,0.3-0.2,0.5
	c-0.1,0.2-0.1,0.3-0.2,0.5l-9.8-5.3v-5.4L27,19.1V20C27,20.3,26.9,20.7,26.9,21.1z"/>
</svg>
