<svg id="Layer_1" data-name="Layer 1" xmlns="http://www.w3.org/2000/svg" viewBox="0 0 32 32"><defs><style>.cls-1{fill:#fff;}</style></defs><path class="cls-1" d="M31,13.36H1A.36.36,0,0,1,.64,13V9A.36.36,0,0,1,1,8.64H31a.36.36,0,0,1,.36.36v4A.36.36,0,0,1,31,13.36ZM1.36,12.64H30.64V9.36H1.36Z"/><path class="cls-1" d="M26,29.36H6a.35.35,0,0,1-.35-.27l-4-16,.7-.18L6.28,28.64H25.72l3.93-15.73.7.18-4,16A.35.35,0,0,1,26,29.36Z"/><path class="cls-1" d="M7,9.36a.38.38,0,0,1-.26-.11.36.36,0,0,1,0-.51l7-6.88a.36.36,0,0,1,.51.51l-7,6.89A.35.35,0,0,1,7,9.36Z"/><path class="cls-1" d="M25,9.36a.32.32,0,0,1-.25-.11l-7-7a.33.33,0,0,1,0-.5.33.33,0,0,1,.5,0l7,7a.33.33,0,0,1,0,.5A.32.32,0,0,1,25,9.36Z"/><rect class="cls-1" x="13.64" y="17" width="0.72" height="8"/><rect class="cls-1" x="17.64" y="17" width="0.72" height="8"/><rect class="cls-1" x="9.64" y="17" width="0.72" height="8"/><rect class="cls-1" x="21.64" y="17" width="0.72" height="8"/></svg>