<?xml version="1.0" encoding="utf-8"?>
<!-- Generator: Adobe Illustrator 22.0.0, SVG Export Plug-In . SVG Version: 6.00 Build 0)  -->
<svg version="1.1" id="Layer_1" xmlns="http://www.w3.org/2000/svg" xmlns:xlink="http://www.w3.org/1999/xlink" x="0px" y="0px"
	 viewBox="0 0 126 137" style="enable-background:new 0 0 126 137;" xml:space="preserve">
<style type="text/css">
	.st0{opacity:0.2031;fill:#FFFFFF;enable-background:new    ;}
	.st1{fill:#FFFFFF;}
</style>
<g id="bp-izoda-4" transform="translate(0.480000, 0.360000)">
	<path id="_x34_" class="st0" d="M76.3,125.6H59.8v-24.5H0V85.9L52,0h24.3v86.9H94v14.2H76.3V125.6z M58.7,14.8l-43,72.2h44.1V14.8
		H58.7z"/>
</g>
<g>
	<path class="st1" d="M74.1,121.1h26.8c0.4,0,0.8-0.4,0.8-0.8V93.5c0-0.4-0.4-0.8-0.8-0.8H74.1c-0.4,0-0.8,0.4-0.8,0.8v26.8
		C73.3,120.7,73.7,121.1,74.1,121.1z M74.9,119.5v-16.2h25.2v16.2H74.9z M100.1,94.3v7.3H74.9v-7.3H100.1z"/>
	<rect x="78.6" y="110.5" class="st1" width="17.9" height="1.6"/>
	<circle class="st1" cx="96.4" cy="98" r="1.1"/>
	<path class="st1" d="M117.5,74.5l-8.5,8.5l1.1,1.1l6.5-6.5v27.1c0,15.6-12.7,28.2-28.2,28.2s-28.2-12.7-28.2-28.2
		c0-8.2,3.6-16,9.8-21.4l-1-1.2c-6.6,5.7-10.4,13.9-10.4,22.6c0,16.4,13.4,29.8,29.8,29.8s29.8-13.4,29.8-29.8V77.6l6.5,6.5L126,83
		L117.5,74.5z"/>
</g>
</svg>
