<?xml version="1.0" encoding="utf-8"?>
<!-- Generator: Adobe Illustrator 25.0.0, SVG Export Plug-In . SVG Version: 6.00 Build 0)  -->
<svg version="1.1" id="Layer_1" xmlns="http://www.w3.org/2000/svg" xmlns:xlink="http://www.w3.org/1999/xlink" x="0px" y="0px"
	 viewBox="0 0 126 137" style="enable-background:new 0 0 126 137;" xml:space="preserve">
<style type="text/css">
	.st0{fill-rule:evenodd;clip-rule:evenodd;fill:#FFFFFF;}
</style>
<desc>Created with Sketch.</desc>
<g id="Page-1">
	<g id="bp-izoda-4" transform="translate(0.480000, 0.360000)">
		<g id="pictograms_x2F_infrastructure_x2F_integration-04" transform="translate(60.520000, 67.640000)">
			<path id="Fill-2" class="st0" d="M14.3,60.6h-26.5c-16.1,0-29.2-13.1-29.2-29.2S-28.3,2.2-12.2,2.2S17,15.3,17,31.4h-1.6
				C15.4,16.2,3,3.8-12.2,3.8s-27.6,12.4-27.6,27.6S-27.4,59-12.2,59h26.5l-6.4-6.4L9,51.5l7.7,7.7c0.1,0.1,0.2,0.3,0.2,0.6
				s-0.1,0.4-0.2,0.6L9,68.1L7.9,67L14.3,60.6z M-14.7,48.1h4.9v-3.5c0-0.3,0.2-0.6,0.5-0.7l3.1-1.3c0.3-0.1,0.6-0.1,0.9,0.2
				l2.4,2.4l3.5-3.5l-2.4-2.4C-2,39.1-2.1,38.7-2,38.4l1.3-3.1c0.1-0.3,0.4-0.5,0.7-0.5h3.4v-4.9h-3.5c-0.3,0-0.6-0.2-0.7-0.5
				L-2,26.5c-0.1-0.3-0.1-0.6,0.2-0.9l2.4-2.4l-3.5-3.5l-2.4,2.4c-0.2,0.2-0.6,0.3-0.9,0.2L-9.3,21c-0.3-0.1-0.5-0.4-0.5-0.7v-3.4
				h-4.9v3.5c0,0.3-0.2,0.6-0.5,0.7l-3.1,1.3c-0.3,0.1-0.6,0.1-0.9-0.2l-2.4-2.4l-3.5,3.5l2.4,2.4c0.2,0.2,0.3,0.6,0.2,0.9l-1.3,3.1
				c-0.1,0.3-0.4,0.5-0.7,0.5h-3.4V35h3.5c0.3,0,0.6,0.2,0.7,0.5l1.3,3.1c0.1,0.3,0.1,0.6-0.2,0.9l-2.4,2.4l3.5,3.5l2.4-2.4
				c0.2-0.2,0.6-0.3,0.9-0.2l3.1,1.3c0.3,0.1,0.5,0.4,0.5,0.7L-14.7,48.1L-14.7,48.1z M-9,49.7h-6.5c-0.4,0-0.8-0.4-0.8-0.8v-3.7
				l-2.1-0.9L-21,47c-0.3,0.3-0.8,0.3-1.1,0l-4.6-4.6c-0.3-0.3-0.3-0.8,0-1.1l2.6-2.6l-0.9-2.1h-3.7c-0.4,0-0.8-0.4-0.8-0.8v-6.5
				c0-0.4,0.4-0.8,0.8-0.8h3.7l0.9-2.1l-2.6-2.6c-0.3-0.3-0.3-0.8,0-1.1l4.6-4.6c0.3-0.3,0.8-0.3,1.1,0l2.6,2.6l2.1-0.9v-3.7
				c0-0.4,0.4-0.8,0.8-0.8H-9c0.4,0,0.8,0.4,0.8,0.8v3.7l2.1,0.9l2.6-2.6c0.3-0.3,0.8-0.3,1.1,0l4.6,4.6c0.1,0.1,0.2,0.3,0.2,0.6
				c0,0.2-0.1,0.4-0.2,0.6l-2.6,2.6l0.9,2.1h3.7C4.6,28.6,5,29,5,29.4v6.5c0,0.4-0.4,0.8-0.8,0.8H0.5l-0.9,2.1l2.6,2.6
				c0.1,0.1,0.2,0.3,0.2,0.6s-0.1,0.4-0.2,0.6L-2.3,47c-0.3,0.3-0.8,0.3-1.1,0L-6,44.4l-2.1,0.9V49C-8.2,49.3-8.5,49.7-9,49.7z"/>
		</g>
	</g>
</g>
</svg>
