<?xml version="1.0" encoding="UTF-8"?>
<svg width="141px" height="138px" viewBox="0 0 141 138" version="1.1" xmlns="http://www.w3.org/2000/svg" xmlns:xlink="http://www.w3.org/1999/xlink">
    <!-- Generator: Sketch 55.2 (78181) - https://sketchapp.com -->
    <title>bp-izoda-1</title>
    <desc>Created with Sketch.</desc>
    <g id="Page-1" stroke="none" stroke-width="1" fill="none" fill-rule="evenodd">
        <g id="bp-izoda-1" transform="translate(0.740000, 0.360000)" fill="#FFFFFF">
            <polygon id="1" fill-rule="nonzero" opacity="0.203125" points="91.08 125.64 7.74 125.64 7.74 110.16 42.12 110.16 42.12 12.78 40.86 12.78 10.44 43.02 -2.27373675e-13 32.76 32.58 0 59.58 0 59.58 110.16 91.08 110.16"></polygon>
            <g id="pictograms/web-application/web-01" transform="translate(70.260000, 68.640000)">
                <path d="M67.8125,10.1768531 L3.7646875,10.1768531 L3.7646875,47.4368531 L67.8125,47.4368531 L67.8125,10.1768531 Z M67.8125,8.62435313 L67.8125,3.70810313 L3.7646875,3.70810313 L3.7646875,8.62435313 L67.8125,8.62435313 Z M22.663375,31.7393531 L9.538375,31.7393531 C9.1030625,31.7393531 8.750875,31.3921969 8.750875,30.9631031 C8.750875,30.5340094 9.1030625,30.1868531 9.538375,30.1868531 L22.663375,30.1868531 C23.0986875,30.1868531 23.450875,30.5340094 23.450875,30.9631031 C23.450875,31.3921969 23.0986875,31.7393531 22.663375,31.7393531 Z M68.6,48.9893531 L2.975,48.9893531 C2.5396875,48.9893531 2.1875,48.6421969 2.1875,48.2131031 L2.1875,2.93185313 C2.1875,2.50275937 2.5396875,2.15560313 2.975,2.15560313 L68.6,2.15560313 C69.0375,2.15560313 69.3896875,2.50275937 69.3896875,2.93185313 L69.3896875,48.2131031 C69.3896875,48.6421969 69.0375,48.9893531 68.6,48.9893531 Z M68.600875,55.4581031 L2.975875,55.4581031 C2.5405625,55.4581031 2.188375,55.1109469 2.188375,54.6818531 C2.188375,54.2527594 2.5405625,53.9056031 2.975875,53.9056031 L68.600875,53.9056031 C69.0361875,53.9056031 69.388375,54.2527594 69.388375,54.6818531 C69.388375,55.1109469 69.0361875,55.4581031 68.600875,55.4581031 Z M68.600875,61.9268531 L2.975875,61.9268531 C2.5405625,61.9268531 2.188375,61.5796969 2.188375,61.1506031 C2.188375,60.7215094 2.5405625,60.3743531 2.975875,60.3743531 L68.600875,60.3743531 C69.0361875,60.3743531 69.388375,60.7215094 69.388375,61.1506031 C69.388375,61.5796969 69.0361875,61.9268531 68.600875,61.9268531 Z M68.600875,68.3956031 L2.975875,68.3956031 C2.5405625,68.3956031 2.188375,68.0484469 2.188375,67.6193531 C2.188375,67.1902594 2.5405625,66.8431031 2.975875,66.8431031 L68.600875,66.8431031 C69.0361875,66.8431031 69.388375,67.1902594 69.388375,67.6193531 C69.388375,68.0484469 69.0361875,68.3956031 68.600875,68.3956031 Z M64.225875,6.16644375 C64.225875,6.76156875 63.735875,7.24456875 63.132125,7.24456875 C62.528375,7.24456875 62.038375,6.76156875 62.038375,6.16644375 C62.038375,5.57131875 62.528375,5.08831875 63.132125,5.08831875 C63.735875,5.08831875 64.225875,5.57131875 64.225875,6.16644375 Z M59.850875,6.16644375 C59.850875,6.76156875 59.360875,7.24456875 58.757125,7.24456875 C58.153375,7.24456875 57.663375,6.76156875 57.663375,6.16644375 C57.663375,5.57131875 58.153375,5.08831875 58.757125,5.08831875 C59.360875,5.08831875 59.850875,5.57131875 59.850875,6.16644375 Z M55.475875,6.16644375 C55.475875,6.76156875 54.985875,7.24456875 54.382125,7.24456875 C53.778375,7.24456875 53.288375,6.76156875 53.288375,6.16644375 C53.288375,5.57131875 53.778375,5.08831875 54.382125,5.08831875 C54.985875,5.08831875 55.475875,5.57131875 55.475875,6.16644375 Z M22.663375,18.8018531 L9.538375,18.8018531 C9.1030625,18.8018531 8.750875,18.4546969 8.750875,18.0256031 C8.750875,17.5965094 9.1030625,17.2493531 9.538375,17.2493531 L22.663375,17.2493531 C23.0986875,17.2493531 23.450875,17.5965094 23.450875,18.0256031 C23.450875,18.4546969 23.0986875,18.8018531 22.663375,18.8018531 Z M22.663375,25.2706031 L9.538375,25.2706031 C9.1030625,25.2706031 8.750875,24.9234469 8.750875,24.4943531 C8.750875,24.0652594 9.1030625,23.7181031 9.538375,23.7181031 L22.663375,23.7181031 C23.0986875,23.7181031 23.450875,24.0652594 23.450875,24.4943531 C23.450875,24.9234469 23.0986875,25.2706031 22.663375,25.2706031 Z" id="Fill-13"></path>
            </g>
        </g>
    </g>
</svg>