<?xml version="1.0" encoding="utf-8"?>
<!-- Generator: Adobe Illustrator 25.0.0, SVG Export Plug-In . SVG Version: 6.00 Build 0)  -->
<svg version="1.1" id="Layer_1" xmlns="http://www.w3.org/2000/svg" xmlns:xlink="http://www.w3.org/1999/xlink" x="0px" y="0px"
	 viewBox="0 0 144 138" style="enable-background:new 0 0 144 138;" xml:space="preserve">
<style type="text/css">
	.st0{fill-rule:evenodd;clip-rule:evenodd;fill:#FFFFFF;}
</style>
<desc>Created with Sketch.</desc>
<g id="Page-1">
	<g id="bp-izoda-6" transform="translate(0.980000, 0.360000)">
		<g id="pictograms_x2F_settings_x2F_setting-02" transform="translate(72.875491, 67.640000)">
			<path id="Fill-18" class="st0" d="M-6.9,61.2h25.5c0.4,0,0.8,0.4,0.8,0.8c0,0.4-0.4,0.8-0.8,0.8H-6.9c-0.4,3.7-3.5,6.6-7.3,6.6
				s-6.9-2.9-7.3-6.6H-47c-0.4,0-0.8-0.4-0.8-0.8c0-0.4,0.4-0.8,0.8-0.8h25.5c0.4-3.7,3.5-6.6,7.3-6.6C-10.4,54.7-7.3,57.6-6.9,61.2
				z M-1.8,35c0.4-3.7,3.5-6.6,7.3-6.6s6.9,2.9,7.3,6.6h5.8c0.4,0,0.8,0.4,0.8,0.8c0,0.4-0.4,0.8-0.8,0.8h-5.8
				c-0.4,3.7-3.5,6.6-7.3,6.6s-6.9-2.9-7.3-6.6H-47c-0.4,0-0.8-0.4-0.8-0.8c0-0.4,0.4-0.8,0.8-0.8H-1.8z M-26.6,10.3
				c-0.4,3.7-3.5,6.6-7.3,6.6s-6.9-2.9-7.3-6.6H-47c-0.4,0-0.8-0.4-0.8-0.8c0-0.4,0.4-0.8,0.8-0.8h5.8c0.4-3.7,3.5-6.6,7.3-6.6
				S-27,5-26.6,8.7h45.2c0.4,0,0.8,0.4,0.8,0.8c0,0.4-0.4,0.8-0.8,0.8C18.6,10.3-26.6,10.3-26.6,10.3z M-33.9,3.8
				c-3.2,0-5.8,2.6-5.8,5.8s2.6,5.8,5.8,5.8s5.8-2.6,5.8-5.8S-30.7,3.8-33.9,3.8z M5.5,30c-3.2,0-5.8,2.6-5.8,5.8s2.6,5.8,5.8,5.8
				s5.8-2.6,5.8-5.8S8.7,30,5.5,30z M-14.2,56.3c-3.2,0-5.8,2.6-5.8,5.7c0,3.2,2.6,5.8,5.8,5.8s5.8-2.6,5.8-5.8
				C-8.4,58.9-11,56.3-14.2,56.3z"/>
		</g>
	</g>
</g>
</svg>
