<?xml version="1.0" encoding="utf-8"?>
<!-- Generator: Adobe Illustrator 25.0.0, SVG Export Plug-In . SVG Version: 6.00 Build 0)  -->
<svg version="1.1" id="Layer_1" xmlns="http://www.w3.org/2000/svg" xmlns:xlink="http://www.w3.org/1999/xlink" x="0px" y="0px"
	 viewBox="0 0 118 138" style="enable-background:new 0 0 118 138;" xml:space="preserve">
<style type="text/css">
	.st0{fill-rule:evenodd;clip-rule:evenodd;fill:#FFFFFF;}
</style>
<desc>Created with Sketch.</desc>
<g id="Page-1">
	<g id="bp-izoda-5" transform="translate(0.780000, 0.360000)">
		<g id="pictograms_x2F_security_x2F_lock" transform="translate(51.220000, 59.640000)">
			<path id="Fill-1" class="st0" d="M-8.1,28.6c-13,0-23.5,10.5-23.5,23.5s10.5,23.5,23.5,23.5S15.4,65,15.4,52.1
				C15.4,39.1,4.8,28.6-8.1,28.6 M4.9,30.5c7.3,4.4,12.2,12.5,12.2,21.6C17.1,66,5.8,77.4-8.2,77.4S-33.4,66-33.4,52.1
				c0-9.1,4.9-17.2,12.2-21.6v-15h1.8v14c3.4-1.7,7.2-2.7,11.3-2.7s7.9,1,11.3,2.7v-14H5C4.9,15.5,4.9,30.5,4.9,30.5z M-9,54.4
				c-1.6-0.4-2.8-1.8-2.8-3.6c0-2,1.6-3.7,3.7-3.7c2,0,3.7,1.6,3.7,3.7c0,1.7-1.2,3.2-2.8,3.6v5c0,0.5-0.4,0.9-0.9,0.9
				S-9,59.9-9,59.4V54.4z M3.2,15.5C3.2,9.3-1.9,4.2-8.1,4.2s-11.3,5.1-11.3,11.3h-1.8c0-7.2,5.9-13.1,13.1-13.1S5,8.3,5,15.5H3.2z"
				/>
		</g>
	</g>
</g>
</svg>
