<?xml version="1.0" encoding="UTF-8"?>
<svg width="126px" height="137px" viewBox="0 0 126 137" version="1.1" xmlns="http://www.w3.org/2000/svg" xmlns:xlink="http://www.w3.org/1999/xlink">
    <!-- Generator: Sketch 55.2 (78181) - https://sketchapp.com -->
    <title>bp-izoda-4</title>
    <desc>Created with Sketch.</desc>
    <g id="Page-1" stroke="none" stroke-width="1" fill="none" fill-rule="evenodd">
        <g id="bp-izoda-4" transform="translate(0.480000, 0.360000)" fill="#FFFFFF">
            <path d="M76.32,125.64 L59.76,125.64 L59.76,101.16 L0,101.16 L0,85.86 L52.02,0 L76.32,0 L76.32,86.94 L93.96,86.94 L93.96,101.16 L76.32,101.16 L76.32,125.64 Z M58.68,14.76 L15.66,86.94 L59.76,86.94 L59.76,14.76 L58.68,14.76 Z" id="4" fill-rule="nonzero" opacity="0.203125"></path>
            <g id="pictograms/infrastructure/integration-04" transform="translate(60.520000, 67.640000)">
                <path d="M62.322291,60.6390313 L35.7872812,60.6390313 C19.6719687,60.6390313 6.56228125,47.5293438 6.56228125,31.4140313 C6.56228125,15.2965313 19.6719687,2.18684375 35.7872812,2.18684375 C51.9025937,2.18684375 65.0122812,15.2965313 65.0122812,31.4140313 L63.4372812,31.4140313 C63.4372812,16.1671563 51.0341562,3.76403125 35.7872812,3.76403125 C20.5404062,3.76403125 8.13728125,16.1671563 8.13728125,31.4140313 C8.13728125,46.6587188 20.5404062,59.0618438 35.7872812,59.0618438 L62.3214157,59.0618438 L55.9335,52.675875 L57.0469375,51.56025 L64.7819375,59.2930625 C64.9306875,59.439625 65.011625,59.640875 65.011625,59.850875 C65.011625,60.060875 64.9306875,60.2599375 64.7819375,60.4086875 L57.0469375,68.1415 L55.9335,67.025875 L62.322291,60.6390313 Z M33.340125,48.125 L38.2335625,48.125 L38.2335625,44.664375 C38.2335625,44.3428125 38.42825,44.0584375 38.721375,43.9359375 L41.8079375,42.6715625 C42.1010625,42.546875 42.4379375,42.6190625 42.66325,42.8421875 L45.100125,45.28125 L48.56075,41.820625 L46.115125,39.375 C45.887625,39.1475 45.822,38.8084375 45.9445,38.513125 L47.2329375,35.4375 C47.3554375,35.144375 47.642,34.9540625 47.9591875,34.9540625 L51.4066875,34.9540625 L51.4066875,30.060625 L47.9460625,30.060625 C47.6266875,30.060625 47.3379375,29.8659375 47.217625,29.5728125 L45.95325,26.48625 C45.83075,26.193125 45.8985625,25.8540625 46.123875,25.6309375 L48.56075,23.1940625 L45.100125,19.7334375 L42.6545,22.18125 C42.427,22.404375 42.0879375,22.4678125 41.7948125,22.3496875 L38.717,21.0634375 C38.423875,20.9409375 38.2335625,20.654375 38.2335625,20.3371875 L38.2335625,16.8896875 L33.340125,16.8896875 L33.340125,20.348125 C33.340125,20.6675 33.147625,20.9540625 32.8523125,21.0765625 L29.7679375,22.343125 C29.4704375,22.4678125 29.13575,22.3934375 28.912625,22.1725 L26.4735625,19.7334375 L23.0129375,23.1940625 L25.4585625,25.6396875 C25.6860625,25.865 25.753875,26.2040625 25.6291875,26.499375 L24.3429375,29.5771875 C24.2204375,29.868125 23.933875,30.060625 23.6166875,30.060625 L20.1691875,30.060625 L20.1691875,34.9540625 L23.6298125,34.9540625 C23.9491875,34.9540625 24.23575,35.1465625 24.35825,35.441875 L25.622625,38.52625 C25.7429375,38.8215625 25.675125,39.1584375 25.4498125,39.38375 L23.0129375,41.820625 L26.4735625,45.28125 L28.9191875,42.8334375 C29.1466875,42.608125 29.4835625,42.5403125 29.7810625,42.665 L32.8566875,43.95125 C33.1498125,44.0715625 33.340125,44.358125 33.340125,44.6775 L33.340125,48.125 Z M39.0210625,49.7021875 L32.552625,49.7021875 C32.1173125,49.7021875 31.765125,49.35 31.765125,48.9125 L31.765125,45.2003125 L29.66075,44.3209375 L27.0291875,46.9525 C26.7229375,47.25875 26.2241875,47.25875 25.91575,46.9525 L21.343875,42.3784375 C21.0354375,42.07 21.0354375,41.57125 21.343875,41.2628125 L23.9666875,38.64 L23.1004375,36.5290625 L19.3816875,36.5290625 C18.946375,36.5290625 18.5941875,36.176875 18.5941875,35.7415625 L18.5941875,29.273125 C18.5941875,28.8378125 18.946375,28.4834375 19.3816875,28.4834375 L23.0916875,28.4834375 L23.97325,26.38125 L21.343875,23.7496875 C21.0354375,23.4434375 21.0354375,22.9425 21.343875,22.63625 L25.91575,18.0621875 C26.2241875,17.75375 26.7229375,17.75375 27.0291875,18.0621875 L29.6541875,20.6871875 L31.765125,19.8209375 L31.765125,16.1 C31.765125,15.6646875 32.1173125,15.3125 32.552625,15.3125 L39.0210625,15.3125 C39.456375,15.3125 39.8085625,15.6646875 39.8085625,16.1 L39.8085625,19.814375 L41.9129375,20.69375 L44.5445,18.0621875 C44.8529375,17.75375 45.3495,17.75375 45.6579375,18.0621875 L50.232,22.63625 C50.38075,22.7828125 50.463875,22.9840625 50.463875,23.1940625 C50.463875,23.401875 50.38075,23.603125 50.232,23.7496875 L47.607,26.3746875 L48.47325,28.4834375 L52.1941875,28.4834375 C52.6273125,28.4834375 52.9816875,28.8378125 52.9816875,29.273125 L52.9816875,35.7415625 C52.9816875,36.176875 52.6273125,36.5290625 52.1941875,36.5290625 L48.482,36.5290625 L47.602625,38.6334375 L50.232,41.2628125 C50.38075,41.4115625 50.463875,41.610625 50.463875,41.820625 C50.463875,42.030625 50.38075,42.231875 50.232,42.3784375 L45.6579375,46.9525 C45.3495,47.25875 44.8529375,47.25875 44.5445,46.9525 L41.9195,44.3275 L39.8085625,45.1915625 L39.8085625,48.9125 C39.8085625,49.35 39.456375,49.7021875 39.0210625,49.7021875 Z" id="Fill-2"></path>
            </g>
        </g>
    </g>
</svg>