<?xml version="1.0" encoding="UTF-8"?>
<svg width="144px" height="140px" viewBox="0 0 144 140" version="1.1" xmlns="http://www.w3.org/2000/svg" xmlns:xlink="http://www.w3.org/1999/xlink">
    <!-- Generator: Sketch 55.2 (78181) - https://sketchapp.com -->
    <title>bp-izoda-3</title>
    <desc>Created with Sketch.</desc>
    <g id="Page-1" stroke="none" stroke-width="1" fill="none" fill-rule="evenodd">
        <g id="bp-izoda-3" transform="translate(0.660000, 0.200000)" fill="#FFFFFF">
            <path d="M27.18,54.72 L40.5,54.72 C56.7,54.72 64.8,46.44 64.8,35.28 L64.8,34.02 C64.8,21.6 56.16,15.12 43.38,15.12 C30.96,15.12 22.86,21.06 17.46,30.6 L5.22,20.7 C12.24,10.08 23.4,-2.84217094e-14 43.74,-2.84217094e-14 C66.24,-2.84217094e-14 83.16,11.7 83.16,32.04 C83.16,48.24 72.36,57.96 59.04,61.2 L59.04,61.92 C72.9,64.62 85.5,74.7 85.5,93.24 C85.5,115.02 68.04,129.96 41.94,129.96 C19.44,129.96 7.92,119.16 0,108 L13.14,98.1 C19.26,108 26.82,114.84 41.76,114.84 C58.32,114.84 67.32,106.92 67.32,93.06 L67.32,91.44 C67.32,77.58 58.32,69.66 41.76,69.66 L27.18,69.66 L27.18,54.72 Z" id="3" fill-rule="nonzero" opacity="0.203125"></path>
            <g id="pictograms/strategy/puzzle" transform="translate(73.340000, 69.800000)">
                <path d="M64.20225,52.5 C63.0100625,52.5 61.8419375,51.8065625 61.1550625,50.68875 C61.012875,50.4546875 60.7569375,50.3125 60.4835,50.3125 L59.849125,50.3125 C59.416,50.3125 59.061625,50.6646875 59.061625,51.1 L59.061625,59.0625 L44.536625,59.0625 C44.1035,59.0625 43.749125,59.4146875 43.749125,59.85 L43.749125,60.353125 C43.749125,60.641875 43.906625,60.9065625 44.1581875,61.0421875 C45.3088125,61.674375 46.024125,62.86875 46.024125,64.159375 C46.024125,66.136875 44.4163125,67.746875 42.436625,67.746875 C40.459125,67.746875 38.849125,66.136875 38.849125,64.159375 C38.849125,62.934375 39.50975,61.7640625 40.5750625,61.1121875 C40.8069375,60.9678125 40.949125,60.7140625 40.949125,60.440625 L40.949125,59.85 C40.949125,59.4146875 40.5969375,59.0625 40.161625,59.0625 L32.199125,59.0625 L32.199125,52.5634375 C33.1681875,53.5171875 34.45225,54.0771875 35.7713125,54.0771875 C38.626,54.0771875 40.949125,51.760625 40.949125,48.9125 C40.949125,46.0665625 38.626,43.75 35.7713125,43.75 C34.391,43.75 33.1331875,44.24875 32.199125,45.12375 L32.199125,36.5771875 L59.061625,36.5771875 L59.061625,46.725 C59.061625,47.1625 59.416,47.5146875 59.849125,47.5146875 L60.374125,47.5146875 C60.6606875,47.5146875 60.925375,47.355 61.0631875,47.1034375 C61.6756875,45.99 62.8481875,45.3271875 64.20225,45.3271875 C66.192875,45.3271875 67.811625,46.935 67.811625,48.9125 C67.811625,50.8921875 66.192875,52.5 64.20225,52.5 L64.20225,52.5 Z M13.999125,50.3125 C11.1531875,50.3125 8.836625,52.6290625 8.836625,55.475 C8.836625,56.84 9.3681875,58.113125 10.3000625,59.0625 L3.761625,59.0625 L3.761625,36.5771875 L11.724125,36.5771875 C12.1594375,36.5771875 12.511625,36.225 12.511625,35.7875 L12.511625,35.135625 C12.511625,34.8621875 12.3694375,34.60625 12.135375,34.4640625 C11.0569375,33.80125 10.411625,32.6615625 10.411625,31.4125 C10.411625,29.435 12.021625,27.8271875 13.999125,27.8271875 C15.976625,27.8271875 17.586625,29.435 17.586625,31.4125 C17.586625,32.7053125 16.8713125,33.901875 15.7185,34.5384375 C15.469125,34.6784375 15.311625,34.943125 15.311625,35.2275 L15.311625,35.7875 C15.311625,36.225 15.666,36.5771875 16.099125,36.5771875 L30.624125,36.5771875 L30.624125,46.725 C30.624125,47.1625 30.9785,47.5146875 31.411625,47.5146875 L31.941,47.5146875 C32.2275625,47.5146875 32.49225,47.3571875 32.6300625,47.1078125 C33.249125,45.99 34.421625,45.3271875 35.7713125,45.3271875 C37.7575625,45.3271875 39.374125,46.935 39.374125,48.9125 C39.374125,50.8921875 37.7575625,52.5 35.7713125,52.5 C34.5681875,52.5 33.3935,51.8065625 32.706625,50.68875 C32.5644375,50.4546875 32.3085,50.3125 32.0350625,50.3125 L31.411625,50.3125 C30.9785,50.3125 30.624125,50.6646875 30.624125,51.1 L30.624125,59.0625 L17.68725,59.0625 C18.619125,58.113125 19.161625,56.8290625 19.161625,55.475 C19.161625,52.6290625 16.8450625,50.3125 13.999125,50.3125 L13.999125,50.3125 Z M3.761625,12.5146875 L11.724125,12.5146875 C12.1594375,12.5146875 12.511625,12.1625 12.511625,11.725 L12.511625,11.0709375 C12.511625,10.7975 12.3694375,10.5415625 12.1375625,10.399375 C11.07225,9.7453125 10.411625,8.5771875 10.411625,7.35 C10.411625,5.3725 12.021625,3.7646875 13.999125,3.7646875 C15.9788125,3.7646875 17.586625,5.3725 17.586625,7.35 C17.586625,8.640625 16.8713125,9.835 15.7206875,10.4671875 C15.469125,10.6071875 15.311625,10.871875 15.311625,11.1584375 L15.311625,11.725 C15.311625,12.1625 15.666,12.5146875 16.099125,12.5146875 L30.624125,12.5146875 L30.624125,22.6625 C30.624125,23.1 30.9785,23.4521875 31.411625,23.4521875 L31.936625,23.4521875 C32.2231875,23.4521875 32.487875,23.2925 32.6256875,23.0409375 C33.2381875,21.9275 34.4106875,21.2646875 35.76475,21.2646875 C37.755375,21.2646875 39.374125,22.8725 39.374125,24.85 C39.374125,26.8296875 37.755375,28.4375 35.76475,28.4375 C34.5725625,28.4375 33.4044375,27.7440625 32.7175625,26.62625 C32.575375,26.3921875 32.3194375,26.25 32.046,26.25 L31.411625,26.25 C30.9785,26.25 30.624125,26.6021875 30.624125,27.0375 L30.624125,35 L17.68725,35 C18.619125,34.050625 19.161625,32.7665625 19.161625,31.4125 C19.161625,28.5665625 16.8450625,26.25 13.999125,26.25 C11.1531875,26.25 8.836625,28.5665625 8.836625,31.4125 C8.836625,32.7775 9.3681875,34.050625 10.3000625,35 L3.761625,35 L3.761625,12.5146875 Z M40.161625,12.5146875 C40.5969375,12.5146875 40.949125,12.1625 40.949125,11.725 L40.949125,11.0709375 C40.949125,10.7975 40.8069375,10.5415625 40.5750625,10.399375 C39.50975,9.7453125 38.849125,8.5771875 38.849125,7.35 C38.849125,5.3725 40.459125,3.7646875 42.436625,3.7646875 C44.4163125,3.7646875 46.024125,5.3725 46.024125,7.35 C46.024125,8.640625 45.3088125,9.835 44.1581875,10.4671875 C43.906625,10.6071875 43.749125,10.871875 43.749125,11.1584375 L43.749125,11.725 C43.749125,12.1625 44.1035,12.5146875 44.536625,12.5146875 L59.061625,12.5146875 L59.061625,21.0634375 C58.1275625,20.1928125 56.856625,19.6875 55.496,19.6875 C52.6369375,19.6875 50.311625,22.0040625 50.311625,24.85 C50.311625,27.698125 52.6369375,30.0146875 55.496,30.0146875 C56.79975,30.0146875 58.0838125,29.4525 59.061625,28.4965625 L59.061625,35 L32.199125,35 L32.199125,28.49 C33.166,29.4503125 34.4500625,30.0146875 35.76475,30.0146875 C38.6238125,30.0146875 40.949125,27.698125 40.949125,24.85 C40.949125,22.0040625 38.6238125,19.6875 35.76475,19.6875 C34.404125,19.6875 33.135375,20.1928125 32.199125,21.0634375 L32.199125,12.5146875 L40.161625,12.5146875 Z M64.20225,43.75 C62.841625,43.75 61.572875,44.2553125 60.636625,45.1259375 L60.636625,35.7875 L60.636625,27.0375 C60.636625,26.6021875 60.2844375,26.25 59.849125,26.25 L59.236625,26.25 C58.9675625,26.25 58.716,26.3878125 58.571625,26.6175 C57.8606875,27.741875 56.681625,28.4375 55.496,28.4375 C53.505375,28.4375 51.886625,26.8296875 51.886625,24.85 C51.886625,22.8725 53.505375,21.2646875 55.496,21.2646875 C56.8500625,21.2646875 58.0225625,21.9275 58.632875,23.0409375 C58.772875,23.2925 59.0375625,23.4521875 59.324125,23.4521875 L59.849125,23.4521875 C60.2844375,23.4521875 60.636625,23.1 60.636625,22.6625 L60.636625,11.725 C60.636625,11.2896875 60.2844375,10.9375 59.849125,10.9375 L46.120375,10.9375 C47.0544375,9.9903125 47.599125,8.70625 47.599125,7.35 C47.599125,4.5040625 45.28475,2.1875 42.436625,2.1875 C39.5906875,2.1875 37.274125,4.5040625 37.274125,7.35 C37.274125,8.693125 37.8188125,9.9815625 38.7485,10.9375 L31.411625,10.9375 L17.682875,10.9375 C18.6169375,9.9903125 19.161625,8.70625 19.161625,7.35 C19.161625,4.5040625 16.84725,2.1875 13.999125,2.1875 C11.1531875,2.1875 8.836625,4.5040625 8.836625,7.35 C8.836625,8.693125 9.3813125,9.9815625 10.311,10.9375 L2.974125,10.9375 C2.541,10.9375 2.186625,11.2896875 2.186625,11.725 L2.186625,35.7875 L2.186625,59.85 C2.186625,60.2875 2.541,60.6396875 2.974125,60.6396875 L11.724125,60.6396875 C12.1594375,60.6396875 12.511625,60.2875 12.511625,59.85 L12.511625,59.198125 C12.511625,58.9246875 12.3694375,58.66875 12.135375,58.5265625 C11.0569375,57.86375 10.411625,56.7240625 10.411625,55.475 C10.411625,53.4975 12.021625,51.8896875 13.999125,51.8896875 C15.976625,51.8896875 17.586625,53.4975 17.586625,55.475 C17.586625,56.7678125 16.8713125,57.964375 15.7185,58.6009375 C15.469125,58.7409375 15.311625,59.005625 15.311625,59.29 L15.311625,59.85 C15.311625,60.2875 15.666,60.6396875 16.099125,60.6396875 L31.411625,60.6396875 L38.6850625,60.6396875 C37.79475,61.586875 37.274125,62.8490625 37.274125,64.159375 C37.274125,67.0075 39.5906875,69.321875 42.436625,69.321875 C45.28475,69.321875 47.599125,67.0075 47.599125,64.159375 C47.599125,62.83375 47.0806875,61.578125 46.186,60.6396875 L59.849125,60.6396875 C60.2844375,60.6396875 60.636625,60.2875 60.636625,59.85 L60.636625,52.5525 C61.6056875,53.5128125 62.8875625,54.0771875 64.20225,54.0771875 C67.0613125,54.0771875 69.386625,51.760625 69.386625,48.9125 C69.386625,46.0665625 67.0613125,43.75 64.20225,43.75 L64.20225,43.75 Z" id="Fill-1"></path>
            </g>
        </g>
    </g>
</svg>