<?xml version="1.0" encoding="utf-8"?>
<!-- Generator: Adobe Illustrator 25.0.0, SVG Export Plug-In . SVG Version: 6.00 Build 0)  -->
<svg version="1.1" id="Layer_1" xmlns="http://www.w3.org/2000/svg" xmlns:xlink="http://www.w3.org/1999/xlink" x="0px" y="0px"
	 viewBox="0 0 144 140" style="enable-background:new 0 0 144 140;" xml:space="preserve">
<style type="text/css">
	.st0{fill-rule:evenodd;clip-rule:evenodd;fill:#FFFFFF;}
</style>
<desc>Created with Sketch.</desc>
<g id="Page-1">
	<g id="bp-izoda-3" transform="translate(0.660000, 0.200000)">
		<g id="pictograms_x2F_strategy_x2F_puzzle" transform="translate(73.340000, 69.800000)">
			<path id="Fill-1" class="st0" d="M13.2,52.5c-1.2,0-2.4-0.7-3-1.8c-0.1-0.2-0.4-0.4-0.7-0.4H8.9c-0.4,0-0.8,0.4-0.8,0.8v8H-6.5
				c-0.4,0-0.8,0.4-0.8,0.8v0.5c0,0.3,0.2,0.6,0.4,0.7c1.2,0.6,1.9,1.8,1.9,3.1c0,2-1.6,3.6-3.6,3.6s-3.6-1.6-3.6-3.6
				c0-1.2,0.7-2.4,1.7-3c0.2-0.1,0.4-0.4,0.4-0.7v-0.6c0-0.4-0.4-0.8-0.8-0.8h-8v-6.5c1,1,2.3,1.5,3.6,1.5c2.9,0,5.2-2.3,5.2-5.2
				c0-2.8-2.3-5.2-5.2-5.2c-1.4,0-2.6,0.5-3.6,1.4v-8.5H8v10.1c0,0.4,0.4,0.8,0.8,0.8h0.5c0.3,0,0.6-0.2,0.7-0.4
				c0.6-1.1,1.8-1.8,3.1-1.8c2,0,3.6,1.6,3.6,3.6C16.8,50.9,15.2,52.5,13.2,52.5L13.2,52.5z M-37,50.3c-2.8,0-5.2,2.3-5.2,5.2
				c0,1.4,0.5,2.6,1.5,3.6h-6.5V36.6h8c0.4,0,0.8-0.4,0.8-0.8v-0.7c0-0.3-0.1-0.5-0.4-0.7c-1.1-0.7-1.7-1.8-1.7-3.1
				c0-2,1.6-3.6,3.6-3.6s3.6,1.6,3.6,3.6c0,1.3-0.7,2.5-1.9,3.1c-0.2,0.1-0.4,0.4-0.4,0.7v0.6c0,0.4,0.4,0.8,0.8,0.8h14.5v10.1
				c0,0.4,0.4,0.8,0.8,0.8h0.5c0.3,0,0.6-0.2,0.7-0.4c0.6-1.1,1.8-1.8,3.1-1.8c2,0,3.6,1.6,3.6,3.6s-1.6,3.6-3.6,3.6
				c-1.2,0-2.4-0.7-3.1-1.8c-0.1-0.2-0.4-0.4-0.7-0.4h-0.6c-0.4,0-0.8,0.4-0.8,0.8v8h-12.9c0.9-0.9,1.5-2.2,1.5-3.6
				C-31.8,52.6-34.2,50.3-37,50.3L-37,50.3z M-47.2,12.5h8c0.4,0,0.8-0.4,0.8-0.8V11c0-0.3-0.1-0.5-0.4-0.7c-1.1-0.7-1.7-1.8-1.7-3
				c0-2,1.6-3.6,3.6-3.6s3.6,1.6,3.6,3.6c0,1.3-0.7,2.5-1.9,3.1c-0.3,0.1-0.4,0.4-0.4,0.7v0.6c0,0.4,0.4,0.8,0.8,0.8h14.5v10.1
				c0,0.4,0.4,0.8,0.8,0.8h0.5c0.3,0,0.6-0.2,0.7-0.4c0.6-1.1,1.8-1.8,3.1-1.8c2,0,3.6,1.6,3.6,3.6s-1.6,3.6-3.6,3.6
				c-1.2,0-2.4-0.7-3-1.8c-0.1-0.2-0.4-0.4-0.7-0.4h-0.6c-0.4,0-0.8,0.4-0.8,0.8v8h-12.9c0.9-0.9,1.5-2.2,1.5-3.6
				c0-2.8-2.3-5.2-5.2-5.2s-5.2,2.3-5.2,5.2c0,1.4,0.5,2.6,1.5,3.6h-6.5L-47.2,12.5L-47.2,12.5z M-10.8,12.5c0.4,0,0.8-0.4,0.8-0.8
				V11c0-0.3-0.1-0.5-0.4-0.7c-1.1-0.7-1.7-1.8-1.7-3c0-2,1.6-3.6,3.6-3.6s3.6,1.6,3.6,3.6c0,1.3-0.7,2.5-1.9,3.1
				c-0.3,0.1-0.4,0.4-0.4,0.7v0.6c0,0.4,0.4,0.8,0.8,0.8H8.1V21c-0.9-0.9-2.2-1.4-3.6-1.4c-2.9,0-5.2,2.3-5.2,5.2
				c0,2.8,2.3,5.2,5.2,5.2c1.3,0,2.6-0.6,3.6-1.5V35h-26.9v-6.5c1,1,2.3,1.5,3.6,1.5c2.9,0,5.2-2.3,5.2-5.2c0-2.8-2.3-5.2-5.2-5.2
				c-1.4,0-2.6,0.5-3.6,1.4v-8.5C-18.8,12.5-10.8,12.5-10.8,12.5z M13.2,43.8c-1.4,0-2.6,0.5-3.6,1.4v-9.3V27c0-0.4-0.4-0.8-0.8-0.8
				H8.2c-0.3,0-0.5,0.1-0.7,0.4c-0.7,1.1-1.9,1.8-3.1,1.8c-2,0-3.6-1.6-3.6-3.6s1.6-3.6,3.6-3.6c1.4,0,2.5,0.7,3.1,1.8
				c0.1,0.3,0.4,0.4,0.7,0.4h0.5c0.4,0,0.8-0.4,0.8-0.8V11.7c0-0.4-0.4-0.8-0.8-0.8H-4.9C-4,10-3.4,8.7-3.4,7.3
				c0-2.8-2.3-5.2-5.2-5.2c-2.8,0-5.2,2.3-5.2,5.2c0,1.3,0.5,2.6,1.5,3.6h-7.3h-13.7c0.9-0.9,1.5-2.2,1.5-3.6c0-2.8-2.3-5.2-5.2-5.2
				c-2.8,0-5.2,2.3-5.2,5.2c0,1.3,0.5,2.6,1.5,3.6H-48c-0.4,0-0.8,0.4-0.8,0.8v24.1v24.1c0,0.4,0.4,0.8,0.8,0.8h8.8
				c0.4,0,0.8-0.4,0.8-0.8v-0.7c0-0.3-0.1-0.5-0.4-0.7c-1.1-0.7-1.7-1.8-1.7-3.1c0-2,1.6-3.6,3.6-3.6s3.6,1.6,3.6,3.6
				c0,1.3-0.7,2.5-1.9,3.1c-0.2,0.1-0.4,0.4-0.4,0.7v0.6c0,0.4,0.4,0.8,0.8,0.8h15.3h7.3c-0.9,0.9-1.4,2.2-1.4,3.5
				c0,2.8,2.3,5.2,5.2,5.2c2.8,0,5.2-2.3,5.2-5.2c0-1.3-0.5-2.6-1.4-3.5H9.1c0.4,0,0.8-0.4,0.8-0.8v-7.3c1,1,2.3,1.5,3.6,1.5
				c2.9,0,5.2-2.3,5.2-5.2C18.4,46.1,16.1,43.8,13.2,43.8L13.2,43.8z"/>
		</g>
	</g>
</g>
</svg>
