<?xml version="1.0" encoding="UTF-8"?>
<svg width="137px" height="140px" viewBox="0 0 137 140" version="1.1" xmlns="http://www.w3.org/2000/svg" xmlns:xlink="http://www.w3.org/1999/xlink">
    <!-- Generator: Sketch 55.2 (78181) - https://sketchapp.com -->
    <title>bp-izoda-2</title>
    <desc>Created with Sketch.</desc>
    <g id="Page-1" stroke="none" stroke-width="1" fill="none" fill-rule="evenodd">
        <g id="bp-izoda-2" transform="translate(0.520000, 0.200000)" fill="#FFFFFF">
            <path d="M84.96,112.32 L84.96,127.8 L1.44,127.8 L1.44,110.52 L41.94,73.62 C54.18,62.64 62.28,51.12 62.28,39.24 L62.28,37.08 C62.28,24.12 54.36,15.66 40.32,15.66 C25.56,15.66 18.72,24.48 15.48,36 L0,30.06 C5.04,14.76 16.74,2.84217094e-14 41.4,2.84217094e-14 C66.42,2.84217094e-14 81,15.3 81,36.72 C81,56.7 68.58,70.2 52.02,84.6 L20.88,112.32 L84.96,112.32 Z" id="2" fill-rule="nonzero" opacity="0.203125"></path>
            <g id="pictograms/web-application/web-03" transform="translate(66.480000, 69.800000)">
                <path d="M59.0625,34.3868437 L3.7646875,34.3868437 L3.7646875,67.8118437 L59.0625,67.8118437 L59.0625,34.3868437 Z M59.0625,32.8118437 L59.0625,27.8243437 L3.7646875,27.8243437 L3.7646875,32.8118437 L59.0625,32.8118437 Z M60.6396875,43.7493437 L67.813375,43.7493437 L67.813375,10.3243437 L12.513375,10.3243437 L12.513375,26.2493437 L59.85,26.2493437 C60.2875,26.2493437 60.6396875,26.6015312 60.6396875,27.0368437 L60.6396875,43.7493437 Z M60.6396875,45.3243437 L60.6396875,68.5993437 C60.6396875,69.0346562 60.2875,69.3868437 59.85,69.3868437 L2.975,69.3868437 C2.5396875,69.3868437 2.1875,69.0346562 2.1875,68.5993437 L2.1875,27.0368437 C2.1875,26.6015312 2.5396875,26.2493437 2.975,26.2493437 L10.938375,26.2493437 L10.938375,2.97434375 C10.938375,2.53903125 11.2905625,2.18684375 11.725875,2.18684375 L68.600875,2.18684375 C69.0361875,2.18684375 69.388375,2.53903125 69.388375,2.97434375 L69.388375,44.5368437 C69.388375,44.9721562 69.0361875,45.3243437 68.600875,45.3243437 L60.6396875,45.3243437 Z M67.813375,8.74934375 L67.813375,3.76184375 L12.513375,3.76184375 L12.513375,8.74934375 L67.813375,8.74934375 Z M46.725875,30.3183125 C46.725875,30.9220625 46.235875,31.4120625 45.632125,31.4120625 C45.0305625,31.4120625 44.538375,30.9220625 44.538375,30.3183125 C44.538375,29.7145625 45.0305625,29.2245625 45.632125,29.2245625 C46.235875,29.2245625 46.725875,29.7145625 46.725875,30.3183125 Z M64.225875,6.2558125 C64.225875,6.8595625 63.735875,7.3495625 63.132125,7.3495625 C62.5305625,7.3495625 62.038375,6.8595625 62.038375,6.2558125 C62.038375,5.6520625 62.5305625,5.1620625 63.132125,5.1620625 C63.735875,5.1620625 64.225875,5.6520625 64.225875,6.2558125 Z M59.850875,6.2558125 C59.850875,6.8595625 59.360875,7.3495625 58.757125,7.3495625 C58.1555625,7.3495625 57.663375,6.8595625 57.663375,6.2558125 C57.663375,5.6520625 58.1555625,5.1620625 58.757125,5.1620625 C59.360875,5.1620625 59.850875,5.6520625 59.850875,6.2558125 Z M55.475875,6.2558125 C55.475875,6.8595625 54.985875,7.3495625 54.382125,7.3495625 C53.7805625,7.3495625 53.288375,6.8595625 53.288375,6.2558125 C53.288375,5.6520625 53.7805625,5.1620625 54.382125,5.1620625 C54.985875,5.1620625 55.475875,5.6520625 55.475875,6.2558125 Z M55.475875,30.3183125 C55.475875,30.9220625 54.985875,31.4120625 54.382125,31.4120625 C53.7805625,31.4120625 53.288375,30.9220625 53.288375,30.3183125 C53.288375,29.7145625 53.7805625,29.2245625 54.382125,29.2245625 C54.985875,29.2245625 55.475875,29.7145625 55.475875,30.3183125 Z M51.100875,30.3183125 C51.100875,30.9220625 50.610875,31.4120625 50.007125,31.4120625 C49.4055625,31.4120625 48.913375,30.9220625 48.913375,30.3183125 C48.913375,29.7145625 49.4055625,29.2245625 50.007125,29.2245625 C50.610875,29.2245625 51.100875,29.7145625 51.100875,30.3183125 Z" id="Fill-17"></path>
            </g>
        </g>
    </g>
</svg>