<?xml version="1.0" encoding="UTF-8"?>
<svg width="118px" height="138px" viewBox="0 0 118 138" version="1.1" xmlns="http://www.w3.org/2000/svg" xmlns:xlink="http://www.w3.org/1999/xlink">
    <!-- Generator: Sketch 55.2 (78181) - https://sketchapp.com -->
    <title>bp-izoda-5</title>
    <desc>Created with Sketch.</desc>
    <g id="Page-1" stroke="none" stroke-width="1" fill="none" fill-rule="evenodd">
        <g id="bp-izoda-5" transform="translate(0.780000, 0.360000)" fill="#FFFFFF">
            <path d="M77.76,0 L77.76,15.3 L22.14,15.3 L18.72,61.56 L20.16,61.56 C25.92,52.56 32.4,46.62 46.08,46.62 C67.68,46.62 83.7,61.2 83.7,85.68 C83.7,110.34 67.68,127.8 40.32,127.8 C18.72,127.8 7.56,117 1.13686838e-13,105.84 L12.96,95.94 C19.26,105.84 25.56,112.68 40.32,112.68 C56.52,112.68 65.34,103.68 65.34,87.84 L65.34,86.04 C65.34,70.2 56.52,61.2 40.32,61.2 C29.16,61.2 23.4,66.24 18.54,71.46 L3.96,69.48 L8.46,0 L77.76,0 Z" id="5" fill-rule="nonzero" opacity="0.203125"></path>
            <g id="pictograms/security/lock" transform="translate(51.220000, 59.640000)">
                <path d="M39.878475,28.5692062 C26.9231625,28.5692062 16.380975,39.1089562 16.380975,52.0667062 C16.380975,65.0220187 26.9231625,75.5617687 39.878475,75.5617687 C52.8337875,75.5617687 63.375975,65.0220187 63.375975,52.0667062 C63.375975,39.1089562 52.8337875,28.5692062 39.878475,28.5692062 M52.9434803,30.4611176 C60.2439148,34.8929186 65.130975,42.9198039 65.130975,52.0667062 C65.130975,65.9921437 53.8039125,77.3192062 39.878475,77.3192062 C25.9530375,77.3192062 14.625975,65.9921437 14.625975,52.0667062 C14.625975,42.9198039 19.5130352,34.8929186 26.8134697,30.4611176 L26.813475,15.5039625 L28.568475,15.5039625 L28.568475,29.4889418 C31.9726249,27.7764969 35.8149217,26.8117687 39.878475,26.8117687 C43.9420283,26.8117687 47.7843251,27.7764969 51.188475,29.4889418 L51.188475,15.5039625 L52.943475,15.5039625 L52.943475,30.4611144 Z M39.000975,54.3971087 C37.4060762,54.0037579 36.222225,52.5627809 36.222225,50.8469812 C36.222225,48.8287312 37.860225,47.1907312 39.878475,47.1907312 C41.8991625,47.1907312 43.534725,48.8287312 43.534725,50.8469812 C43.534725,52.5630647 42.3522443,54.0042347 40.755975,54.3973039 L40.755975,59.3792062 C40.755975,59.8642687 40.3635375,60.2567062 39.878475,60.2567062 C39.3934125,60.2567062 39.000975,59.8642687 39.000975,59.3792062 L39.000975,54.3971087 Z M51.188475,15.5042062 C51.188475,9.26664375 46.1160375,4.19420625 39.878475,4.19420625 C33.6409125,4.19420625 28.568475,9.26664375 28.568475,15.5042062 L26.813475,15.5042062 C26.813475,8.30139375 32.6756625,2.43676875 39.878475,2.43676875 C47.0812875,2.43676875 52.943475,8.30139375 52.943475,15.5042062 L51.188475,15.5042062 Z" id="Fill-1"></path>
            </g>
        </g>
    </g>
</svg>