<?xml version="1.0" encoding="utf-8"?>
<!-- Generator: Adobe Illustrator 25.0.0, SVG Export Plug-In . SVG Version: 6.00 Build 0)  -->
<svg version="1.1" id="Layer_1" xmlns="http://www.w3.org/2000/svg" xmlns:xlink="http://www.w3.org/1999/xlink" x="0px" y="0px"
	 viewBox="0 0 141 138" style="enable-background:new 0 0 141 138;" xml:space="preserve">
<style type="text/css">
	.st0{fill-rule:evenodd;clip-rule:evenodd;fill:#FFFFFF;}
</style>
<desc>Created with Sketch.</desc>
<g id="Page-1">
	<g id="bp-izoda-1" transform="translate(0.740000, 0.360000)">
		<g id="pictograms_x2F_web-application_x2F_web-01" transform="translate(70.260000, 68.640000)">
			<path id="Fill-13" class="st0" d="M9.7,10.3h-64v37.3h64C9.7,47.6,9.7,10.3,9.7,10.3z M9.7,8.7V3.8h-64v4.9H9.7z M-35.4,31.9
				h-13.1c-0.4,0-0.8-0.3-0.8-0.8c0-0.4,0.4-0.8,0.8-0.8h13.1c0.4,0,0.8,0.3,0.8,0.8C-34.6,31.5-35,31.9-35.4,31.9z M10.5,49.1
				h-65.6c-0.4,0-0.8-0.3-0.8-0.8V3.1c0-0.4,0.4-0.8,0.8-0.8h65.6c0.4,0,0.8,0.3,0.8,0.8v45.3C11.3,48.8,11,49.1,10.5,49.1z
				 M10.5,55.6h-65.6c-0.4,0-0.8-0.3-0.8-0.8c0-0.4,0.4-0.8,0.8-0.8h65.6c0.4,0,0.8,0.3,0.8,0.8C11.3,55.2,11,55.6,10.5,55.6z
				 M10.5,62h-65.6c-0.4,0-0.8-0.3-0.8-0.8c0-0.4,0.4-0.8,0.8-0.8h65.6c0.4,0,0.8,0.3,0.8,0.8S11,62,10.5,62z M10.5,68.5h-65.6
				c-0.4,0-0.8-0.3-0.8-0.8s0.4-0.8,0.8-0.8h65.6c0.4,0,0.8,0.3,0.8,0.8S11,68.5,10.5,68.5z M6.2,6.3c0,0.6-0.5,1.1-1.1,1.1
				S4,6.9,4,6.3s0.5-1.1,1.1-1.1C5.7,5.2,6.2,5.7,6.2,6.3z M1.8,6.3c0,0.6-0.5,1.1-1.1,1.1s-1.1-0.5-1.1-1.1s0.5-1.1,1.1-1.1
				C1.3,5.2,1.8,5.7,1.8,6.3z M-2.6,6.3c0,0.6-0.5,1.1-1.1,1.1s-1.1-0.5-1.1-1.1s0.5-1.1,1.1-1.1C-3.1,5.2-2.6,5.7-2.6,6.3z
				 M-35.4,18.9h-13.1c-0.4,0-0.8-0.3-0.8-0.8c0-0.4,0.4-0.8,0.8-0.8h13.1c0.4,0,0.8,0.3,0.8,0.8S-35,18.9-35.4,18.9z M-35.4,25.4
				h-13.1c-0.4,0-0.8-0.3-0.8-0.8c0-0.4,0.4-0.8,0.8-0.8h13.1c0.4,0,0.8,0.3,0.8,0.8C-34.6,25-35,25.4-35.4,25.4z"/>
		</g>
	</g>
</g>
</svg>
