<?xml version="1.0" encoding="UTF-8"?>
<svg width="144px" height="138px" viewBox="0 0 144 138" version="1.1" xmlns="http://www.w3.org/2000/svg" xmlns:xlink="http://www.w3.org/1999/xlink">
    <!-- Generator: Sketch 55.2 (78181) - https://sketchapp.com -->
    <title>bp-izoda-6</title>
    <desc>Created with Sketch.</desc>
    <g id="Page-1" stroke="none" stroke-width="1" fill="none" fill-rule="evenodd">
        <g id="bp-izoda-6" transform="translate(0.980000, 0.360000)" fill="#FFFFFF">
            <path d="M43.2,127.8 C16.38,127.8 0,109.26 0,79.2 C0,42.3 24.48,13.5 44.82,0 L67.68,0 C40.14,19.98 24.66,36.54 18.18,64.8 L19.08,65.16 C24.84,55.08 33.48,46.98 48.96,46.98 C70.38,46.98 86.04,61.92 86.04,85.68 C86.04,110.52 68.94,127.8 43.2,127.8 Z M43.02,113.22 C58.68,113.22 68.04,104.22 68.04,88.02 L68.04,86.4 C68.04,70.2 58.68,61.2 43.02,61.2 C27.36,61.2 18,70.2 18,86.4 L18,88.02 C18,104.22 27.36,113.22 43.02,113.22 Z" id="6" fill-rule="nonzero" opacity="0.203125"></path>
            <g id="pictograms/settings/setting-02" transform="translate(72.875491, 67.640000)">
                <path d="M43.0962726,61.2493438 L68.600875,61.2493438 C69.0361875,61.2493438 69.388375,61.6015313 69.388375,62.0390313 C69.388375,62.4743438 69.0361875,62.8265313 68.600875,62.8265313 L43.0964638,62.8265313 C42.7022423,66.5092192 39.575685,69.3890312 35.788375,69.3890312 C32.001065,69.3890312 28.8745077,66.5092192 28.4802862,62.8265313 L2.975875,62.8265313 C2.5405625,62.8265313 2.188375,62.4743438 2.188375,62.0390313 C2.188375,61.6015313 2.5405625,61.2493438 2.975875,61.2493438 L28.4804774,61.2493438 C28.8755171,57.5657261 32.0016764,54.6868437 35.788375,54.6868437 C39.5750736,54.6868437 42.7012329,57.5657261 43.0962726,61.2493437 Z M48.1679774,34.9993437 C48.5630171,31.3157261 51.6891764,28.4368437 55.475875,28.4368437 C59.2625736,28.4368437 62.3887329,31.3157261 62.7837726,34.9993437 L68.600875,34.9993438 C69.0361875,34.9993438 69.388375,35.3515313 69.388375,35.7890313 C69.388375,36.2243438 69.0361875,36.5765313 68.600875,36.5765313 L62.7839638,36.5765313 C62.3897423,40.2592192 59.263185,43.1390313 55.475875,43.1390313 C51.688565,43.1390313 48.5620077,40.2592192 48.1677862,36.5765313 L2.975875,36.5765313 C2.5405625,36.5765313 2.188375,36.2243438 2.188375,35.7890313 C2.188375,35.3515313 2.5405625,34.9993438 2.975875,34.9993438 L48.1679774,34.9993438 Z M23.4089638,10.3265313 C23.0147423,14.0092192 19.888185,16.8890312 16.100875,16.8890312 C12.313565,16.8890312 9.18700766,14.0092192 8.79278623,10.3265313 L2.975875,10.3265313 C2.5405625,10.3265313 2.188375,9.97434375 2.188375,9.53903125 C2.188375,9.10153125 2.5405625,8.74934375 2.975875,8.74934375 L8.79297736,8.74934375 C9.18801713,5.06572611 12.3141764,2.18684375 16.100875,2.18684375 C19.8875736,2.18684375 23.0137329,5.06572611 23.4087726,8.74934375 L68.600875,8.74934375 C69.0361875,8.74934375 69.388375,9.10153125 69.388375,9.53903125 C69.388375,9.97434375 69.0361875,10.3265313 68.600875,10.3265313 L23.4089638,10.3265313 Z M16.100875,3.76403125 C12.915875,3.76403125 10.325875,6.35403125 10.325875,9.53903125 C10.325875,12.7240312 12.915875,15.3118437 16.100875,15.3118437 C19.285875,15.3118437 21.875875,12.7240312 21.875875,9.53903125 C21.875875,6.35403125 19.285875,3.76403125 16.100875,3.76403125 Z M55.475875,30.0140312 C52.290875,30.0140312 49.700875,32.6040312 49.700875,35.7890313 C49.700875,38.9740312 52.290875,41.5618437 55.475875,41.5618437 C58.660875,41.5618437 61.250875,38.9740312 61.250875,35.7890313 C61.250875,32.6040312 58.660875,30.0140312 55.475875,30.0140312 Z M35.788375,56.2640312 C32.603375,56.2640312 30.013375,58.8540312 30.013375,62.0390312 C30.013375,65.2240312 32.603375,67.8118437 35.788375,67.8118437 C38.973375,67.8118437 41.563375,65.2240312 41.563375,62.0390312 C41.563375,58.8540312 38.973375,56.2640312 35.788375,56.2640312 Z" id="Fill-18"></path>
            </g>
        </g>
    </g>
</svg>