<?xml version="1.0" encoding="utf-8"?>
<!-- Generator: Adobe Illustrator 25.0.0, SVG Export Plug-In . SVG Version: 6.00 Build 0)  -->
<svg version="1.1" id="Layer_1" xmlns="http://www.w3.org/2000/svg" xmlns:xlink="http://www.w3.org/1999/xlink" x="0px" y="0px"
	 viewBox="0 0 137 140" style="enable-background:new 0 0 137 140;" xml:space="preserve">
<style type="text/css">
	.st0{fill-rule:evenodd;clip-rule:evenodd;fill:#FFFFFF;}
</style>
<desc>Created with Sketch.</desc>
<g id="Page-1">
	<g id="bp-izoda-2" transform="translate(0.520000, 0.200000)">
		<g id="pictograms_x2F_web-application_x2F_web-03" transform="translate(66.480000, 69.800000)">
			<path id="Fill-17" class="st0" d="M10.1,34.4h-55.3v33.4h55.3V34.4z M10.1,32.8v-5h-55.3v5H10.1z M11.6,43.7h7.2V10.3h-55.3v15.9
				h47.3c0.4,0,0.8,0.4,0.8,0.8C11.6,27,11.6,43.7,11.6,43.7z M11.6,45.3v23.3c0,0.4-0.4,0.8-0.8,0.8H-46c-0.4,0-0.8-0.4-0.8-0.8V27
				c0-0.4,0.4-0.8,0.8-0.8h8V3c0-0.4,0.4-0.8,0.8-0.8h56.9c0.4,0,0.8,0.4,0.8,0.8v41.6c0,0.4-0.4,0.8-0.8,0.8L11.6,45.3L11.6,45.3z
				 M18.8,8.7v-5h-55.3v5H18.8z M-2.3,30.3c0,0.6-0.5,1.1-1.1,1.1s-1.1-0.5-1.1-1.1s0.5-1.1,1.1-1.1C-2.8,29.2-2.3,29.7-2.3,30.3z
				 M15.2,6.3c0,0.6-0.5,1.1-1.1,1.1S13,6.9,13,6.3s0.5-1.1,1.1-1.1C14.7,5.2,15.2,5.7,15.2,6.3z M10.9,6.3c0,0.6-0.5,1.1-1.1,1.1
				S8.7,6.9,8.7,6.3s0.5-1.1,1.1-1.1C10.4,5.2,10.9,5.7,10.9,6.3z M6.5,6.3c0,0.6-0.5,1.1-1.1,1.1S4.3,6.9,4.3,6.3s0.5-1.1,1.1-1.1
				C6,5.2,6.5,5.7,6.5,6.3z M6.5,30.3c0,0.6-0.5,1.1-1.1,1.1s-1.1-0.5-1.1-1.1s0.5-1.1,1.1-1.1C6,29.2,6.5,29.7,6.5,30.3z M2.1,30.3
				c0,0.6-0.5,1.1-1.1,1.1s-1.1-0.5-1.1-1.1s0.5-1.1,1.1-1.1C1.6,29.2,2.1,29.7,2.1,30.3z"/>
		</g>
	</g>
</g>
</svg>
