<?xml version="1.0" encoding="UTF-8"?>
<svg width="104px" height="104px" viewBox="0 0 104 104" version="1.1" xmlns="http://www.w3.org/2000/svg" xmlns:xlink="http://www.w3.org/1999/xlink">
    <!-- Generator: Sketch 54.1 (76490) - https://sketchapp.com -->
    <title>Group</title>
    <desc>Created with Sketch.</desc>
    <g id="Tailored-Fit-Pricing-for-IBM-Z" stroke="none" stroke-width="1" fill="none" fill-rule="evenodd">
        <g id="TFP-All-with-Enterprise-Consumption-Solution-tab" transform="translate(-904.000000, -4053.000000)" fill="#FFFFFF" fill-rule="nonzero">
            <g id="Group" transform="translate(904.000000, 4053.000000)">
                <path d="M48,40 L40,40 L44,24 L36,24 L32,40 L32,56 L48,56 L48,40 Z M72,40 L64,40 L68,24 L60,24 L56,40 L56,56 L72,56 L72,40 Z" id="Shape"></path>
                <path d="M0,0 L0,80 L24,104 L104,104 L104,0 L0,0 Z M100,100 L28,100 L28,76 L4,76 L4,4 L100,4 L100,100 Z" id="Shape"></path>
            </g>
        </g>
    </g>
</svg>