<svg id="Layer_1" data-name="Layer 1" xmlns="http://www.w3.org/2000/svg" viewBox="0 0 158.11 69.23"><defs><style>.cls-1{fill:none;stroke:#fff;stroke-width:2px;}.cls-2,.cls-4{fill:#fff;}.cls-2{fill-rule:evenodd;opacity:0.35;}.cls-2,.cls-3{isolation:isolate;}</style></defs><g id="Tailored-Fit-Pricing-for-IBM-Z"><g id="TFP-All-with-Enterprise-Consumption-Solution-tab"><g id="Group-7"><g id="Group-25"><path id="Rectangle-9" class="cls-1" d="M21,41.39v67.22h156.1V41.39Z" transform="translate(-19.95 -40.39)"/><path id="Rectangle-9-2" data-name="Rectangle-9" class="cls-2" d="M21,75.67V96.55h156.1V75.67Z" transform="translate(-19.95 -40.39)"/><g id="SOLUTION-ID" class="cls-3"><g class="cls-3"><path class="cls-4" d="M43.76,67.22a5,5,0,0,1-3.93-1.68L41.31,64a3.34,3.34,0,0,0,2.6,1.18,1.81,1.81,0,0,0,1.22-.34,1.1,1.1,0,0,0,.4-.9,1.06,1.06,0,0,0-.23-.71,1.55,1.55,0,0,0-1-.39l-1-.13a4,4,0,0,1-2.4-1,2.88,2.88,0,0,1-.77-2.09,3,3,0,0,1,.27-1.28,2.83,2.83,0,0,1,.76-1,3.64,3.64,0,0,1,1.22-.65,5.91,5.91,0,0,1,3.69.14A4.17,4.17,0,0,1,47.61,58l-1.5,1.51a2.69,2.69,0,0,0-2.22-1,1.94,1.94,0,0,0-1.13.27.86.86,0,0,0-.37.73.92.92,0,0,0,.29.76,2,2,0,0,0,.94.34l1,.16a4.41,4.41,0,0,1,2.37,1,2.75,2.75,0,0,1,.77,2.08,3.42,3.42,0,0,1-.27,1.37,2.92,2.92,0,0,1-.78,1.06,3.48,3.48,0,0,1-1.26.69A5.41,5.41,0,0,1,43.76,67.22Z" transform="translate(-19.95 -40.39)"/><path class="cls-4" d="M53.8,67.22a5.14,5.14,0,0,1-1.87-.34,3.75,3.75,0,0,1-1.43-1,4.63,4.63,0,0,1-.92-1.67,8.32,8.32,0,0,1,0-4.64,4.72,4.72,0,0,1,.92-1.67,3.75,3.75,0,0,1,1.43-1,5.31,5.31,0,0,1,3.74,0,3.75,3.75,0,0,1,1.43,1A4.57,4.57,0,0,1,58,59.55a8.32,8.32,0,0,1,0,4.64,4.49,4.49,0,0,1-.92,1.67,3.75,3.75,0,0,1-1.43,1A5.14,5.14,0,0,1,53.8,67.22Zm0-2a2,2,0,0,0,1.59-.67A2.85,2.85,0,0,0,56,62.64V61.1a2.85,2.85,0,0,0-.57-1.91,2.22,2.22,0,0,0-3.18,0,2.85,2.85,0,0,0-.57,1.91v1.54a2.85,2.85,0,0,0,.57,1.91A2,2,0,0,0,53.8,65.22Z" transform="translate(-19.95 -40.39)"/><path class="cls-4" d="M60.23,67V56.7h2.25V65h3.94v2Z" transform="translate(-19.95 -40.39)"/><path class="cls-4" d="M69.73,56.7V63a2.59,2.59,0,0,0,.43,1.64,1.71,1.71,0,0,0,1.43.54A1.75,1.75,0,0,0,73,64.68,2.59,2.59,0,0,0,73.46,63V56.7h2.19v6.1a8.23,8.23,0,0,1-.21,2,3.23,3.23,0,0,1-.71,1.38,2.82,2.82,0,0,1-1.26.8,6.93,6.93,0,0,1-3.76,0,2.94,2.94,0,0,1-1.26-.8,3.22,3.22,0,0,1-.7-1.38,8.2,8.2,0,0,1-.22-2V56.7Z" transform="translate(-19.95 -40.39)"/><path class="cls-4" d="M82.19,58.7V67H79.93V58.7h-2.8v-2H85v2Z" transform="translate(-19.95 -40.39)"/><path class="cls-4" d="M86.07,67V65.25H87.4V58.49H86.07V56.7H91v1.79H89.65v6.76H91V67Z" transform="translate(-19.95 -40.39)"/><path class="cls-4" d="M97,67.22a5,5,0,0,1-1.86-.34,3.87,3.87,0,0,1-1.44-1,4.79,4.79,0,0,1-.92-1.67,8.57,8.57,0,0,1,0-4.64,4.88,4.88,0,0,1,.92-1.67,3.87,3.87,0,0,1,1.44-1,5.29,5.29,0,0,1,3.73,0,3.87,3.87,0,0,1,1.44,1,4.88,4.88,0,0,1,.92,1.67,8.57,8.57,0,0,1,0,4.64,4.79,4.79,0,0,1-.92,1.67,3.87,3.87,0,0,1-1.44,1A5.06,5.06,0,0,1,97,67.22Zm0-2a2,2,0,0,0,1.6-.67,2.85,2.85,0,0,0,.57-1.91V61.1a2.85,2.85,0,0,0-.57-1.91,2.23,2.23,0,0,0-3.19,0,2.85,2.85,0,0,0-.57,1.91v1.54a2.85,2.85,0,0,0,.57,1.91A2,2,0,0,0,97,65.22Z" transform="translate(-19.95 -40.39)"/><path class="cls-4" d="M106.6,62.15l-1-2.07h0v7h-2.12V56.7h2.46l2.83,4.89,1,2.07h0v-7h2.12V67h-2.46Z" transform="translate(-19.95 -40.39)"/><path class="cls-4" d="M117.27,67V65.25h1.33V58.49h-1.33V56.7h4.91v1.79h-1.33v6.76h1.33V67Z" transform="translate(-19.95 -40.39)"/><path class="cls-4" d="M124.07,56.7H128a5.1,5.1,0,0,1,1.87.33,3.75,3.75,0,0,1,1.44,1,4.35,4.35,0,0,1,.91,1.61,7.9,7.9,0,0,1,0,4.52,4.35,4.35,0,0,1-.91,1.61,3.75,3.75,0,0,1-1.44,1A5.1,5.1,0,0,1,128,67h-3.89ZM128,65a2.22,2.22,0,0,0,1.59-.56,2.47,2.47,0,0,0,.57-1.81v-1.6a2.47,2.47,0,0,0-.57-1.81A2.22,2.22,0,0,0,128,58.7h-1.64V65Z" transform="translate(-19.95 -40.39)"/></g></g><g id="XWZOXWZOXW" class="cls-3"><g class="cls-3"><path class="cls-4" d="M42.23,91.87H40.42L38.13,88.1h0l-2.27,3.77h-1.7L37.19,87l-3-4.64H36l2.15,3.54h0l2.19-3.54H42.1l-3,4.62Z" transform="translate(-19.95 -40.39)"/><path class="cls-4" d="M45.08,91.87l-2.24-9.48H44.4l1,4.57L46,90.11h0L46.83,87,48,82.39h1.71L50.78,87l.75,3.13h0L52.26,87l1-4.57h1.51l-2.33,9.48H50.7L49.49,87l-.7-2.88h0L48,87l-1.24,4.9Z" transform="translate(-19.95 -40.39)"/><path class="cls-4" d="M62.58,91.87h-7V90.5l5.15-6.75H55.83V82.39h6.6v1.38l-5.14,6.75h5.29Z" transform="translate(-19.95 -40.39)"/><path class="cls-4" d="M67.7,92A4.29,4.29,0,0,1,66,91.72a3.47,3.47,0,0,1-1.29-.94,4.16,4.16,0,0,1-.83-1.53,7.86,7.86,0,0,1,0-4.23,4.16,4.16,0,0,1,.83-1.53A3.37,3.37,0,0,1,66,82.55a4.54,4.54,0,0,1,3.35,0,3.52,3.52,0,0,1,1.29.94A4.32,4.32,0,0,1,71.5,85a7.86,7.86,0,0,1,0,4.23,4.32,4.32,0,0,1-.83,1.53,3.64,3.64,0,0,1-1.29.94A4.3,4.3,0,0,1,67.7,92Zm0-1.36a2.48,2.48,0,0,0,1-.19,2.26,2.26,0,0,0,.78-.55,2.68,2.68,0,0,0,.49-.88,3.61,3.61,0,0,0,.18-1.18v-1.5A3.59,3.59,0,0,0,70,85.21a2.68,2.68,0,0,0-.49-.88,2.26,2.26,0,0,0-.78-.55,2.73,2.73,0,0,0-2,0,2.13,2.13,0,0,0-.77.55,2.51,2.51,0,0,0-.49.88,3.59,3.59,0,0,0-.18,1.17v1.5a3.61,3.61,0,0,0,.18,1.18,2.51,2.51,0,0,0,.49.88,2.13,2.13,0,0,0,.77.55A2.48,2.48,0,0,0,67.7,90.68Z" transform="translate(-19.95 -40.39)"/><path class="cls-4" d="M80.65,91.87H78.84l-2.3-3.77h0l-2.26,3.77h-1.7L75.61,87l-3-4.64h1.8l2.16,3.54h0l2.19-3.54h1.69l-3,4.62Z" transform="translate(-19.95 -40.39)"/><path class="cls-4" d="M83.5,91.87l-2.24-9.48h1.56l1,4.57.67,3.15h0L85.25,87l1.13-4.57h1.71L89.2,87,90,90.09h0L90.68,87l1-4.57h1.51l-2.34,9.48H89.12L87.91,87l-.71-2.88h0L86.46,87l-1.24,4.9Z" transform="translate(-19.95 -40.39)"/><path class="cls-4" d="M101,91.87H94V90.5l5.15-6.75H94.25V82.39h6.6v1.38l-5.14,6.75H101Z" transform="translate(-19.95 -40.39)"/><path class="cls-4" d="M106.12,92a4.37,4.37,0,0,1-1.68-.32,3.64,3.64,0,0,1-1.29-.94,4.3,4.3,0,0,1-.82-1.53,7.61,7.61,0,0,1,0-4.23,4.3,4.3,0,0,1,.82-1.53,3.52,3.52,0,0,1,1.29-.94,4.37,4.37,0,0,1,1.68-.32,4.3,4.3,0,0,1,1.68.32,3.52,3.52,0,0,1,1.29.94,4.32,4.32,0,0,1,.83,1.53,7.86,7.86,0,0,1,0,4.23,4.32,4.32,0,0,1-.83,1.53,3.64,3.64,0,0,1-1.29.94A4.3,4.3,0,0,1,106.12,92Zm0-1.36a2.51,2.51,0,0,0,1-.19,2.13,2.13,0,0,0,.77-.55,2.53,2.53,0,0,0,.5-.88,3.61,3.61,0,0,0,.18-1.18v-1.5a3.59,3.59,0,0,0-.18-1.17,2.53,2.53,0,0,0-.5-.88,2.13,2.13,0,0,0-.77-.55,2.51,2.51,0,0,0-1-.19,2.48,2.48,0,0,0-1,.19,2.13,2.13,0,0,0-.77.55,2.7,2.7,0,0,0-.5.88,3.89,3.89,0,0,0-.17,1.17v1.5a3.91,3.91,0,0,0,.17,1.18,2.7,2.7,0,0,0,.5.88,2.13,2.13,0,0,0,.77.55A2.48,2.48,0,0,0,106.12,90.68Z" transform="translate(-19.95 -40.39)"/><path class="cls-4" d="M119.06,91.87h-1.8L115,88.1h0l-2.27,3.77H111L114,87l-3-4.64h1.81L115,85.93h0l2.18-3.54h1.7L116,87Z" transform="translate(-19.95 -40.39)"/><path class="cls-4" d="M121.91,91.87l-2.24-9.48h1.57l1,4.57.67,3.15h0l.76-3.15,1.12-4.57h1.71L127.62,87l.75,3.13h0L129.1,87l1-4.57h1.51l-2.34,9.48h-1.72L126.33,87l-.71-2.88h0L124.88,87l-1.24,4.9Z" transform="translate(-19.95 -40.39)"/></g></g></g></g></g></g></svg>