<svg id="Layer_1" data-name="Layer 1" xmlns="http://www.w3.org/2000/svg" viewBox="0 0 106.64 125.88"><defs><style>.cls-1{fill:#fff;}</style></defs><g id="Tailored-Fit-Pricing-for-IBM-Z"><g id="TFP-All-with-Enterprise-Consumption-Solution-tab"><g id="Group-35"><g id="Group-45"><polygon id="Shape" class="cls-1" points="71.33 0 65.44 2.68 77.21 18.75 27.18 18.75 27.18 26.79 65.44 26.79 65.44 29.47 18.36 29.47 18.36 37.5 65.44 37.5 65.44 40.18 27.18 40.18 27.18 48.22 65.44 48.22 65.44 50.9 36.01 50.9 36.01 58.93 83.1 58.93 106.64 53.57 106.64 18.75 71.33 0"/><polygon id="Shape-2" data-name="Shape" class="cls-1" points="35.31 66.94 41.2 69.62 29.43 85.69 79.46 85.69 79.46 93.73 41.2 93.73 41.2 96.41 88.29 96.41 88.29 104.45 41.2 104.45 41.2 107.12 79.46 107.12 79.46 115.16 41.2 115.16 41.2 117.84 70.63 117.84 70.63 125.88 23.54 125.88 0 120.52 0 85.69 35.31 66.94"/></g></g></g></g></svg>