<?xml version="1.0" encoding="UTF-8"?>
<svg width="191px" height="142px" viewBox="0 0 191 142" version="1.1" xmlns="http://www.w3.org/2000/svg" xmlns:xlink="http://www.w3.org/1999/xlink">
    <!-- Generator: Sketch 54.1 (76490) - https://sketchapp.com -->
    <title>Group 35</title>
    <desc>Created with Sketch.</desc>
    <g id="Tailored-Fit-Pricing-for-IBM-Z" stroke="none" stroke-width="1" fill="none" fill-rule="evenodd">
        <g id="TFP-All-with-Enterprise-Consumption-Solution-tab" transform="translate(-264.000000, -1076.000000)" fill="#FFFFFF">
            <g id="Group-35" transform="translate(254.000000, 1010.000000)">
                <g id="Group-45" transform="translate(93.641618, 81.612717)" fill-rule="nonzero">
                    <polygon id="Shape" points="71.3276242 0 65.4419021 2.67872031 77.2133462 18.7510421 27.1847088 18.7510421 27.1847088 26.7872031 65.4419021 26.7872031 65.4419021 29.4659234 18.3561258 29.4659234 18.3561258 37.5020843 65.4419021 37.5020843 65.4419021 40.1808046 27.1847088 40.1808046 27.1847088 48.2169655 65.4419021 48.2169655 65.4419021 50.8956858 36.0132919 50.8956858 36.0132919 58.9318467 83.0990683 58.9318467 106.641956 53.5744061 106.641956 18.7510421"></polygon>
                    <polygon id="Shape" points="35.3143323 66.9436416 41.2000543 69.6223619 29.4286102 85.6946838 79.4572476 85.6946838 79.4572476 93.7308447 41.2000543 93.7308447 41.2000543 96.409565 88.2858307 96.409565 88.2858307 104.445726 41.2000543 104.445726 41.2000543 107.124446 79.4572476 107.124446 79.4572476 115.160607 41.2000543 115.160607 41.2000543 117.839327 70.6286646 117.839327 70.6286646 125.875488 23.5428882 125.875488 -1.23215503e-14 120.518048 -1.23215503e-14 85.6946838"></polygon>
                </g>
                <text id="1" opacity="0.203125" font-family="IBMPlexSans-Text, IBM Plex Sans" font-size="200" font-weight="500">
                    <tspan x="0" y="205.182081">1</tspan>
                </text>
            </g>
        </g>
    </g>
</svg>