<?xml version="1.0" encoding="UTF-8"?>
<svg width="192px" height="145px" viewBox="0 0 192 145" version="1.1" xmlns="http://www.w3.org/2000/svg" xmlns:xlink="http://www.w3.org/1999/xlink">
    <!-- Generator: Sketch 54.1 (76490) - https://sketchapp.com -->
    <title>Group 4</title>
    <desc>Created with Sketch.</desc>
    <g id="Tailored-Fit-Pricing-for-IBM-Z" stroke="none" stroke-width="1" fill="none" fill-rule="evenodd">
        <g id="TFP-All-with-Enterprise-Consumption-Solution-tab" transform="translate(-1469.000000, -1076.000000)">
            <g id="Group-4" transform="translate(1462.000000, 1010.000000)">
                <text id="4" opacity="0.203125" font-family="IBMPlexSans-Text, IBM Plex Sans" font-size="200" font-weight="500" fill="#FFFFFF">
                    <tspan x="0" y="205.182081">4</tspan>
                </text>
                <g id="Group-44" transform="translate(98.265896, 98.175248)">
                    <g id="Group-43" transform="translate(19.421965, 0.000000)">
                        <g id="Group-12" transform="translate(2.572254, 0.000000)" stroke="#FFFFFF" stroke-width="2">
                            <path d="M1,1 L1,90.3544461 L77.4939925,90.3544461 L77.4939925,1 L1,1 Z" id="Rectangle-8"></path>
                        </g>
                        <polygon id="Rectangle-14" fill="#3E76C0" points="0 20.6232144 59.1618497 20.6232144 59.1618497 106.982925 0 106.982925"></polygon>
                    </g>
                    <g id="Group-12" transform="translate(0.000000, 20.623214)">
                        <path d="M17.8344127,25.376235 L58.3474411,25.376235 L58.3474411,29.690195 L17.8344127,29.690195 L17.8344127,25.376235 Z M17.8344127,34.0041549 L58.3474411,34.0041549 L58.3474411,38.3181149 L17.8344127,38.3181149 L17.8344127,34.0041549 Z M17.8344127,42.6320748 L58.3474411,42.6320748 L58.3474411,46.9460348 L17.8344127,46.9460348 L17.8344127,42.6320748 Z M17.8344127,51.2599947 L38.0909269,51.2599947 L38.0909269,55.5739547 L17.8344127,55.5739547 L17.8344127,51.2599947 Z" id="Shape" fill="#FFFFFF" fill-rule="nonzero"></path>
                        <rect id="Rectangle-8" stroke="#FFFFFF" stroke-width="2" x="1.10996277" y="1" width="76.4939925" height="89.3544461"></rect>
                    </g>
                </g>
            </g>
        </g>
    </g>
</svg>