<?xml version="1.0" encoding="utf-8"?>
<!-- Generator: Adobe Illustrator 24.1.0, SVG Export Plug-In . SVG Version: 6.00 Build 0)  -->
<svg version="1.1" id="Layer_1" xmlns="http://www.w3.org/2000/svg" xmlns:xlink="http://www.w3.org/1999/xlink" x="0px" y="0px"
	 width="48px" height="48px" viewBox="0 0 48 48" style="enable-background:new 0 0 48 48;" xml:space="preserve">
<style type="text/css">
	.st0{fill:#231F20;}
</style>
<path class="st0" d="M9.7,20.3v2.3c0,0.3,0.2,0.5,0.5,0.5h3.5c0.3,0,0.5-0.2,0.5-0.5v-2.3l1.9-0.8l1.6,1.6c0.2,0.2,0.6,0.2,0.8,0
	c0,0,0,0,0,0l2.5-2.5c0.2-0.2,0.2-0.6,0-0.8c0,0,0,0,0,0l-1.5-1.6l0.8-2h2.2c0.3,0,0.5-0.2,0.5-0.5v-3.5c0-0.3-0.2-0.5-0.5-0.5h-2.3
	l-0.7-1.9l1.6-1.6c0.1-0.1,0.2-0.2,0.2-0.4c0-0.1-0.1-0.3-0.2-0.4L18.6,3c-0.2-0.2-0.6-0.2-0.8,0c0,0,0,0,0,0l-1.6,1.6l-1.9-0.8V1.6
	c0-0.3-0.2-0.6-0.5-0.6c0,0-0.1,0-0.1,0h-3.5C9.9,1,9.7,1.2,9.7,1.5c0,0,0,0.1,0,0.1v2.3l-2,0.8L6.1,3C5.9,2.7,5.5,2.7,5.3,3
	c0,0,0,0,0,0L2.9,5.4C2.6,5.7,2.6,6,2.9,6.2c0,0,0,0,0,0l1.6,1.6L3.7,9.7H1.4c-0.3,0-0.5,0.2-0.5,0.5l0,0v3.5c0,0.3,0.2,0.5,0.5,0.5
	c0,0,0,0,0,0h2.3l0.8,2l-1.6,1.6c-0.2,0.2-0.2,0.6,0,0.8c0,0,0,0,0,0l2.5,2.5c0.2,0.2,0.6,0.2,0.8,0c0,0,0,0,0,0l1.6-1.5L9.7,20.3z
	 M7.2,18.6l-1.5,1.5L4,18.3l1.5-1.5c0.2-0.1,0.2-0.4,0.1-0.6l-1-2.6c-0.1-0.2-0.3-0.4-0.5-0.4H2v-2.4h2.1c0.2,0,0.4-0.1,0.5-0.3
	l1-2.6c0.1-0.2,0-0.4-0.1-0.6L4,5.8l1.7-1.7l1.5,1.5c0.2,0.2,0.4,0.2,0.6,0.1l2.7-1.1c0.2-0.1,0.3-0.3,0.3-0.5v-2h2.4v2.1
	c0,0.2,0.1,0.4,0.3,0.5l2.6,1.1c0.2,0.1,0.4,0,0.6-0.1l1.5-1.5l1.7,1.7l-1.5,1.5c-0.2,0.2-0.2,0.4-0.1,0.6l1.1,2.5
	c0.1,0.2,0.3,0.3,0.5,0.3h2.1v2.5h-2.1c-0.2,0-0.4,0.1-0.5,0.3l-1.1,2.7c-0.1,0.2,0,0.4,0.1,0.6l1.5,1.5l-1.7,1.7l-1.5-1.5
	c-0.2-0.1-0.4-0.2-0.6-0.1l-2.6,1c-0.2,0.1-0.3,0.3-0.3,0.5V22h-2.4v-2.1c0-0.2-0.1-0.4-0.3-0.5l-2.7-1C7.6,18.3,7.3,18.4,7.2,18.6z
	 M12,16.1c2.2,0,4.1-1.8,4.1-4c0-2.2-1.8-4.1-4-4.1c-2.2,0-4.1,1.8-4.1,4c0,0,0,0.1,0,0.1C8,14.3,9.8,16.1,12,16.1z M12,9.1
	c1.7,0,3,1.3,3,3s-1.3,3-3,3s-3-1.3-3-3S10.3,9.1,12,9.1z M46.6,15.8h-2.3l-0.7-1.9l1.6-1.6c0.1-0.1,0.2-0.2,0.2-0.4
	c0-0.1-0.1-0.3-0.2-0.4L42.6,9c-0.2-0.2-0.6-0.2-0.8,0c0,0,0,0,0,0l-1.6,1.6l-1.9-0.8V7.6c0-0.3-0.2-0.5-0.5-0.5l0,0h-3.5
	c-0.3,0-0.5,0.2-0.5,0.5c0,0,0,0,0,0v2.3l-2,0.8L30.2,9c-0.2-0.2-0.6-0.2-0.8,0c0,0,0,0,0,0l-2.5,2.5c-0.2,0.2-0.2,0.6,0,0.8
	c0,0,0,0,0,0l1.6,1.6l-0.8,1.9h-2.3c-0.3,0-0.5,0.2-0.5,0.5l0,0v3.5c0,0.3,0.2,0.5,0.5,0.5l0,0h2.3l0.8,2l-1.6,1.6
	c-0.2,0.2-0.2,0.6,0,0.8c0,0,0,0,0,0l2.5,2.5c0.2,0.2,0.6,0.2,0.8,0c0,0,0,0,0,0l1.6-1.5l2,0.8v2.3c0,0.3,0.2,0.5,0.5,0.5
	c0,0,0,0,0,0h3.5c0.3,0,0.5-0.2,0.5-0.5c0,0,0,0,0,0v-2.3l1.9-0.8l1.6,1.6c0.2,0.2,0.6,0.2,0.8,0c0,0,0,0,0,0l2.5-2.5
	c0.2-0.2,0.2-0.6,0-0.8c0,0,0,0,0,0l-1.5-1.6l0.8-2h2.2c0.3,0,0.5-0.2,0.5-0.5l0,0v-3.5C47.1,16,46.9,15.8,46.6,15.8L46.6,15.8z
	 M46,19.3h-2.1c-0.2,0-0.4,0.1-0.5,0.3l-1.1,2.7c-0.1,0.2,0,0.4,0.1,0.6l1.5,1.5l-1.7,1.7l-1.5-1.5c-0.2-0.1-0.4-0.2-0.6-0.1l-2.6,1
	c-0.2,0.1-0.3,0.3-0.3,0.5V28h-2.4V26c0-0.2-0.1-0.4-0.3-0.5l-2.7-1c-0.2-0.1-0.4,0-0.6,0.1l-1.5,1.5L28,24.4l1.5-1.5
	c0.2-0.1,0.2-0.4,0.1-0.6l-1-2.6c-0.1-0.2-0.3-0.4-0.5-0.4H26v-2.4h2.1c0.2,0,0.4-0.1,0.5-0.3l1-2.6c0.1-0.2,0-0.4-0.1-0.6L28,11.8
	l1.7-1.7l1.5,1.5c0.2,0.2,0.4,0.2,0.6,0.1l2.7-1.1c0.2-0.1,0.3-0.3,0.3-0.5v-2h2.4v2.1c0,0.2,0.1,0.4,0.2,0.5l2.6,1.1
	c0.2,0.1,0.4,0,0.6-0.1l1.5-1.5l1.7,1.7l-1.5,1.5c-0.2,0.2-0.2,0.4-0.1,0.6l1.1,2.5c0.1,0.2,0.3,0.3,0.5,0.3H46L46,19.3z M36,14
	c-2.2,0-4.1,1.8-4.1,4s1.8,4.1,4,4.1c2.2,0,4-1.8,4.1-4C40.1,15.9,38.4,14.1,36,14C36.1,14,36.1,14,36,14z M36,21c-1.7,0-3-1.3-3-3
	s1.3-3,3-3s3,1.3,3,3S37.7,21,36,21z M18,32c-2.2,0-4.1,1.8-4.1,4c0,2.2,1.8,4.1,4,4.1c2.2,0,4-1.8,4.1-4C22.1,33.9,20.3,32.1,18,32
	C18,32,18,32,18,32z M18,39.1c-1.7,0-3-1.3-3-3s1.3-3,3-3c1.7,0,3,1.3,3,3S19.6,39.1,18,39.1z M28.5,33.8h-2.3l-0.7-1.9l1.6-1.6
	c0.1-0.1,0.2-0.2,0.2-0.4c0-0.1-0.1-0.3-0.2-0.4l-2.5-2.5c-0.2-0.2-0.6-0.2-0.8,0c0,0,0,0,0,0l-1.6,1.6l-1.9-0.8v-2.2
	c0-0.3-0.2-0.5-0.5-0.5l0,0h-3.5c-0.3,0-0.5,0.2-0.5,0.5l0,0v2.3l-2,0.8L12.1,27c-0.2-0.2-0.6-0.2-0.8,0c0,0,0,0,0,0l-2.5,2.5
	c-0.2,0.2-0.2,0.6,0,0.8c0,0,0,0,0,0l1.6,1.6l-0.8,1.9H7.5c-0.3,0-0.5,0.2-0.5,0.5l0,0v3.5c0,0.3,0.2,0.5,0.5,0.5c0,0,0,0,0,0h2.3
	l0.8,2L8.8,42c-0.2,0.2-0.2,0.6,0,0.8c0,0,0,0,0,0l2.5,2.5c0.2,0.2,0.6,0.2,0.8,0c0,0,0,0,0,0l1.6-1.5l2,0.8v2.3
	c0,0.3,0.2,0.5,0.5,0.5l0,0h3.5c0.3,0,0.5-0.2,0.5-0.5l0,0v-2.3l1.9-0.8l1.6,1.6c0.2,0.2,0.6,0.2,0.8,0c0,0,0,0,0,0l2.5-2.5
	c0.2-0.2,0.2-0.6,0-0.8c0,0,0,0,0,0l-1.5-1.6l0.8-2h2.2c0.3,0,0.5-0.2,0.5-0.5c0,0,0,0,0,0v-3.5C29.1,34,28.8,33.8,28.5,33.8
	C28.5,33.8,28.5,33.8,28.5,33.8z M28,37.3h-2.1c-0.2,0-0.4,0.1-0.5,0.3l-1.1,2.7c-0.1,0.2,0,0.4,0.1,0.6l1.5,1.5l-1.7,1.7l-1.5-1.5
	c-0.2-0.1-0.4-0.2-0.6-0.1l-2.6,1c-0.2,0.1-0.3,0.3-0.3,0.5v2.1h-2.4V44c0-0.2-0.1-0.4-0.3-0.5l-2.7-1c-0.2-0.1-0.4,0-0.6,0.1
	l-1.5,1.5L10,42.4l1.5-1.5c0.2-0.1,0.2-0.4,0.1-0.6l-1-2.6c-0.1-0.2-0.3-0.4-0.5-0.4H8v-2.4h2.1c0.2,0,0.4-0.1,0.5-0.3l1-2.6
	c0.1-0.2,0-0.4-0.1-0.6L10,29.9l1.7-1.7l1.5,1.5c0.2,0.2,0.4,0.2,0.6,0.1l2.7-1.1c0.2-0.1,0.3-0.3,0.3-0.5v-2h2.4v2.1
	c0,0.2,0.1,0.4,0.2,0.5l2.6,1.1c0.2,0.1,0.4,0,0.6-0.1l1.5-1.5l1.7,1.7l-1.5,1.5c-0.2,0.2-0.2,0.4-0.1,0.6l1.1,2.5
	c0.1,0.2,0.3,0.3,0.5,0.3h2.1L28,37.3z"/>
</svg>
