<?xml version="1.0" encoding="utf-8"?>
<!-- Generator: Adobe Illustrator 24.1.0, SVG Export Plug-In . SVG Version: 6.00 Build 0)  -->
<svg version="1.1" id="Layer_1" xmlns="http://www.w3.org/2000/svg" xmlns:xlink="http://www.w3.org/1999/xlink" x="0px" y="0px"
	 width="32px" height="32px" viewBox="0 0 32 32" style="enable-background:new 0 0 32 32;" xml:space="preserve">
<style type="text/css">
	.st0{fill:none;}
</style>
<path id="strategy--play_1_" d="M27,18.6c-1.3,0-2.4,1.1-2.4,2.4s1.1,2.4,2.4,2.4s2.4-1.1,2.4-2.4S28.3,18.6,27,18.6z M27,22.6
	c-0.9,0-1.6-0.7-1.6-1.6s0.7-1.6,1.6-1.6s1.6,0.7,1.6,1.6S27.9,22.6,27,22.6z M20,18.6c-1.3,0-2.4,1.1-2.4,2.4s1.1,2.4,2.4,2.4
	s2.4-1.1,2.4-2.4S21.3,18.6,20,18.6z M20,22.6c-0.9,0-1.6-0.7-1.6-1.6s0.7-1.6,1.6-1.6s1.6,0.7,1.6,1.6S20.9,22.6,20,22.6z M20,25.6
	c-1.3,0-2.4,1.1-2.4,2.4s1.1,2.4,2.4,2.4s2.4-1.1,2.4-2.4S21.3,25.6,20,25.6z M20,29.6c-0.9,0-1.6-0.7-1.6-1.6s0.7-1.6,1.6-1.6
	s1.6,0.7,1.6,1.6S20.9,29.6,20,29.6z M13,23.4c1.3,0,2.4-1.1,2.4-2.4s-1.1-2.4-2.4-2.4s-2.4,1.1-2.4,2.4S11.7,23.4,13,23.4z
	 M13,19.4c0.9,0,1.6,0.7,1.6,1.6s-0.7,1.6-1.6,1.6s-1.6-0.7-1.6-1.6S12.1,19.4,13,19.4z M10.7,5.7L12.5,4l-1.7-1.7l0.5-0.5L13,3.5
	l1.7-1.7l0.5,0.5L13.5,4l1.7,1.7l-0.5,0.5L13,4.5l-1.7,1.7L10.7,5.7z M17.7,15.7l1.7-1.7l-1.7-1.7l0.5-0.5l1.7,1.7l1.7-1.7l0.5,0.5
	L20.5,14l1.7,1.7l-0.5,0.5L20,14.5l-1.7,1.7L17.7,15.7z M27,10.5l1.7-1.7l0.5,0.5L27.5,11l1.7,1.7l-0.5,0.5L27,11.5l-1.7,1.7
	l-0.5-0.5l1.7-1.7l-1.7-1.7l0.5-0.5L27,10.5z M10,27.6h6v0.7h-6c-0.1,0-5.4-0.1-5.4-5.4V5.9L3.3,7.3L2.7,6.7L5,4.5l2.3,2.3L6.7,7.3
	L5.4,5.9V23C5.4,27.6,9.8,27.6,10,27.6z M24.4,2.9l0,2.1c0,2.7-2.2,3.4-3.4,3.4h-4c-3.6,0-3.6,3.5-3.6,3.6v5h-0.7v-5
	c0,0,0.1-4.4,4.4-4.4h4c0.1,0,2.6,0,2.6-2.6l0-2.1l-1.4,1.4l-0.5-0.5L24,1.5l2.3,2.3l-0.5,0.5L24.4,2.9z"/>
<rect id="_Transparent_Rectangle" class="st0" width="32" height="32"/>
</svg>
