<?xml version="1.0" encoding="utf-8"?>
<!-- Generator: Adobe Illustrator 24.1.0, SVG Export Plug-In . SVG Version: 6.00 Build 0)  -->
<svg version="1.1" id="Layer_1" xmlns="http://www.w3.org/2000/svg" xmlns:xlink="http://www.w3.org/1999/xlink" x="0px" y="0px"
	 width="32px" height="32.1px" viewBox="0 0 32 32.1" style="enable-background:new 0 0 32 32.1;" xml:space="preserve">
<style type="text/css">
	.st0{fill:#FFFFFF;}
</style>
<path class="st0" d="M9,19.8H1.4V4.6h27.3v15.6c0,0.2,0.2,0.4,0.4,0.4s0.4-0.2,0.4-0.4c0,0,0,0,0,0v-19c0-0.2-0.2-0.4-0.4-0.4H1
	C0.8,0.8,0.6,1,0.6,1.2c0,0,0,0,0,0v19c0,0.2,0.2,0.4,0.4,0.4c0,0,0,0,0,0h8c0.2,0,0.4-0.2,0.4-0.4C9.4,20,9.2,19.8,9,19.8z
	 M28.6,1.6v2.3H1.4V1.6H28.6z M3.5,2.2C3.8,2.2,4,2.4,4,2.7S3.8,3.2,3.5,3.2S3,3,3,2.7S3.2,2.2,3.5,2.2z M5.5,2.2
	C5.8,2.2,6,2.4,6,2.7S5.8,3.2,5.5,3.2S5,3,5,2.7S5.2,2.2,5.5,2.2z M7.5,2.2C7.8,2.2,8,2.4,8,2.7S7.8,3.2,7.5,3.2S7,3,7,2.7
	S7.2,2.2,7.5,2.2z M31.2,31l-6.1-6.1c3.1-3.4,3-8.6-0.4-11.8c-0.4-0.3-0.7-0.6-1.1-0.9l0.9-0.9c0.3,0.2,0.6,0.3,1,0.3
	c1,0,1.8-0.9,1.8-1.9s-0.9-1.8-1.9-1.8c-1,0-1.8,0.8-1.8,1.9c0,0.4,0.1,0.8,0.4,1.1l-1,1c-1.2-0.7-2.6-1-4-1c-1.4,0-2.7,0.3-3.9,1
	L12,8.7c0.6-0.8,0.4-2-0.4-2.6S9.6,5.7,9,6.5C8.5,7.2,8.5,8.1,9,8.7l-3.5,3.4c-0.3-0.2-0.6-0.3-1-0.3c-1,0-1.9,0.8-1.9,1.8
	s0.8,1.9,1.8,1.9c1,0,1.9-0.8,1.9-1.8c0,0,0,0,0,0c0-0.4-0.1-0.7-0.3-1l3.4-3.4c0.6,0.4,1.4,0.4,2.1,0l2.9,2.9
	c-3.9,2.5-5,7.7-2.5,11.5s7.7,5,11.5,2.5c0.4-0.3,0.8-0.5,1.1-0.9l6.1,6.1L31.2,31z M25.5,8.6c0.6,0,1.1,0.5,1.1,1.1
	c0,0.6-0.5,1.1-1.1,1.1c-0.6,0-1.1-0.5-1.1-1.1v0C24.4,9.1,24.9,8.6,25.5,8.6z M4.5,14.8c-0.6,0-1.1-0.5-1.1-1.1
	c0-0.6,0.5-1.1,1.1-1.1s1.1,0.5,1.1,1.1S5.1,14.8,4.5,14.8L4.5,14.8z M10.5,8.8c-0.6,0-1.1-0.5-1.1-1.1s0.5-1.1,1.1-1.1
	c0.6,0,1.1,0.5,1.1,1.1S11.1,8.8,10.5,8.8C10.5,8.8,10.5,8.8,10.5,8.8z M11.4,19.2c0-4.2,3.4-7.6,7.6-7.6s7.6,3.4,7.6,7.6
	s-3.4,7.6-7.6,7.6l0,0C14.8,26.8,11.4,23.4,11.4,19.2z"/>
</svg>
