<?xml version="1.0" encoding="utf-8"?>
<!-- Generator: Adobe Illustrator 24.1.0, SVG Export Plug-In . SVG Version: 6.00 Build 0)  -->
<svg version="1.1" id="Layer_1" xmlns="http://www.w3.org/2000/svg" xmlns:xlink="http://www.w3.org/1999/xlink" x="0px" y="0px"
	 width="32px" height="32.1px" viewBox="0 0 32 32.1" style="enable-background:new 0 0 32 32.1;" xml:space="preserve">
<style type="text/css">
	.st0{fill:#FFFFFF;}
</style>
<path class="st0" d="M17,2.6c0.3,0,0.5,0.2,0.5,0.5S17.3,3.6,17,3.6s-0.5-0.2-0.5-0.5S16.8,2.6,17,2.6z M19,2.6
	c0.3,0,0.5,0.2,0.5,0.5S19.3,3.6,19,3.6s-0.5-0.2-0.5-0.5S18.8,2.6,19,2.6z M15.1,2.6c0.3,0,0.5,0.2,0.5,0.5s-0.2,0.5-0.5,0.5
	s-0.5-0.2-0.5-0.5S14.8,2.6,15.1,2.6z M3,13.7h8v0.7H3V13.7z M3,10.7h8v0.7H3V10.7z M3,7.7h8v0.7H3V7.7z M24.5,21.3
	c2.6-1.9,3.2-5.6,1.3-8.2c-1-1.4-2.6-2.3-4.4-2.4V1.1c0-0.2-0.2-0.4-0.4-0.4l0,0h-20c-0.2,0-0.4,0.2-0.4,0.4l0,0v19
	c0,0.2,0.2,0.4,0.4,0.4c0,0,0,0,0,0h15.6c0.3,0.3,0.6,0.6,1,0.9c-4.1,1.5-6.9,5.4-6.9,9.8h0.7c0-4.4,2.9-8.2,7.1-9.3
	c0.2,0,0.3-0.2,0.3-0.4c0-0.1-0.1-0.2-0.2-0.2c-2.5-1.3-3.5-4.5-2.1-7s4.5-3.5,7-2.1s3.5,4.5,2.1,7c-0.5,0.9-1.2,1.6-2.1,2.1
	c-0.1,0.1-0.2,0.2-0.2,0.4c0,0.1,0.1,0.3,0.3,0.3c4.2,1.1,7.1,4.9,7.1,9.3h0.7C31.4,26.7,28.6,22.8,24.5,21.3z M20.7,10.7
	c-3.2,0.2-5.7,3-5.5,6.2c0.1,1,0.4,1.9,0.9,2.8H1.4V5.4h19.3V10.7z M20.7,4.7H1.4V1.4h19.3V4.7z"/>
</svg>
