<svg id="Layer_1" data-name="Layer 1" xmlns="http://www.w3.org/2000/svg" viewBox="0 0 32 32"><defs><style>.cls-1{fill:#fff;}</style></defs><path class="cls-1" d="M27.25,13.25l4-4a.33.33,0,0,0,0-.5l-4-4-.5.5,3.38,3.39h-8l-7.9-5.93a.37.37,0,0,0-.49,0L4.84,12.64H1.36V1H.64V31a.36.36,0,0,0,.36.36H31v-.72H28.36V22a.36.36,0,0,0-.36-.36H24.36V17a.36.36,0,0,0-.36-.36H20.36V13a.36.36,0,0,0-.36-.36H16.36V11a.36.36,0,0,0-.36-.36H12a.36.36,0,0,0-.36.36v4.64H8a.36.36,0,0,0-.36.36v3.64H4a.36.36,0,0,0-.36.36V30.64H1.36V13.36H5a.36.36,0,0,0,.27-.12l8.78-9.75,7.73,5.8a.44.44,0,0,0,.22.07h8.13l-3.38,3.39Zm-2.89,9.11h3.28v8.28H24.36Zm-4-5h3.28V30.64H20.36Zm-4-4h3.28V30.64H16.36Zm-4-2h3.28V30.64H12.36Zm-4,5h3.28V30.64H8.36Zm-4,4H7.64V30.64H4.36Z"/></svg>