<?xml version="1.0" encoding="utf-8"?>
<!-- Generator: Adobe Illustrator 24.1.0, SVG Export Plug-In . SVG Version: 6.00 Build 0)  -->
<svg version="1.1" id="Layer_1" xmlns="http://www.w3.org/2000/svg" xmlns:xlink="http://www.w3.org/1999/xlink" x="0px" y="0px"
	 width="32px" height="32px" viewBox="0 0 32 32" style="enable-background:new 0 0 32 32;" xml:space="preserve">
<style type="text/css">
	.st0{fill:#FFFFFF;}
</style>
<path class="st0" d="M31,11.7h-8v0.7h7.6v18.3H1.4V12.4H9v-0.7H1c-0.2,0-0.4,0.2-0.4,0.4v19c0,0.2,0.2,0.4,0.4,0.4c0,0,0,0,0,0h30
	c0.2,0,0.4-0.2,0.4-0.4c0,0,0,0,0,0v-19C31.4,11.9,31.2,11.7,31,11.7L31,11.7z M15.6,1.9v23.1h0.7V1.9l5.4,5.4l0.5-0.5L16,0.6
	L9.8,6.8l0.5,0.5L15.6,1.9z"/>
</svg>
