<?xml version="1.0" encoding="utf-8"?>
<!-- Generator: Adobe Illustrator 24.1.0, SVG Export Plug-In . SVG Version: 6.00 Build 0)  -->
<svg version="1.1" id="Layer_1" xmlns="http://www.w3.org/2000/svg" xmlns:xlink="http://www.w3.org/1999/xlink" x="0px" y="0px"
	 width="32px" height="32px" viewBox="0 0 32 32" style="enable-background:new 0 0 32 32;" xml:space="preserve">
<style type="text/css">
	.st0{fill:#FFFFFF;}
</style>
<path class="st0" d="M30.4,2c0-0.2-0.1-0.4-0.3-0.4c0,0,0,0,0,0H20c-0.2,0-0.4,0.2-0.4,0.4c0,0,0,0,0,0v10c0,0.2,0.2,0.4,0.4,0.4
	l0,0h10c0.2,0,0.4-0.2,0.4-0.4l0,0V8h-0.7v3.6h-9.3V2.3h9.3V3h0.7L30.4,2z M23.2,7.7l-0.5,0.5l2.2,2.2l5.2-5.3l-0.5-0.5L25,9.5
	L23.2,7.7z M2,12.3h10c0.2,0,0.4-0.2,0.4-0.4V2c0-0.2-0.1-0.4-0.3-0.4c0,0,0,0,0,0H2C1.8,1.6,1.6,1.8,1.6,2c0,0,0,0,0,0v10
	C1.7,12.2,1.8,12.3,2,12.3z M2.4,2.3h9.3v9.3H2.4L2.4,2.3z M12,19.6H2c-0.2,0-0.4,0.2-0.4,0.4l0,0v10c0,0.2,0.2,0.4,0.4,0.4
	c0,0,0,0,0,0h10c0.2,0,0.4-0.2,0.4-0.4l0,0V20C12.4,19.8,12.2,19.6,12,19.6C12,19.6,12,19.6,12,19.6z M11.6,29.6H2.4v-9.3h9.3
	L11.6,29.6z M16.4,1.6h-0.7v14h-14v0.7h14v14h0.7v-14h14v-0.7h-14V1.6z"/>
</svg>
