<?xml version="1.0" encoding="utf-8"?>
<!-- Generator: Adobe Illustrator 24.1.0, SVG Export Plug-In . SVG Version: 6.00 Build 0)  -->
<svg version="1.1" id="Layer_1" xmlns="http://www.w3.org/2000/svg" xmlns:xlink="http://www.w3.org/1999/xlink" x="0px" y="0px"
	 width="32px" height="32px" viewBox="0 0 32 32" style="enable-background:new 0 0 32 32;" xml:space="preserve">
<style type="text/css">
	.st0{fill:#FFFFFF;}
</style>
<path class="st0" d="M31,9.6h-8.1l8.4-8.3l-0.6-0.6l-8.3,8.4V1h-0.8v9.4H31V9.6z M5.6,16c0,5.7,4.7,10.4,10.4,10.4
	S26.4,21.7,26.4,16c0-1.4-0.3-2.8-0.9-4.1l-0.7,0.3c0.5,1.2,0.8,2.6,0.8,3.9c0,5.3-4.3,9.6-9.6,9.6s-9.6-4.3-9.6-9.6
	s4.3-9.6,9.6-9.6c0,0,0,0,0,0c1.3,0,2.7,0.3,3.9,0.8l0.3-0.7c-1.3-0.6-2.7-0.9-4.1-0.9C10.4,5.6,5.7,10.2,5.6,15.9
	C5.6,15.9,5.6,16,5.6,16z M16,10.6c-3,0-5.4,2.4-5.4,5.4s2.4,5.4,5.4,5.4s5.4-2.4,5.4-5.4l0,0C21.4,13,19,10.6,16,10.6
	C16,10.6,16,10.6,16,10.6z M16,20.6c-2.5,0-4.6-2-4.6-4.6c0,0,0,0,0,0c0-2.5,2.1-4.6,4.6-4.6c2.5,0,4.6,2.1,4.6,4.6
	C20.6,18.5,18.6,20.6,16,20.6C16,20.6,16,20.6,16,20.6z M30.8,11.9l-0.7,0.2c0.4,1.3,0.5,2.6,0.5,3.9c0,8.1-6.5,14.6-14.6,14.6
	S1.4,24.1,1.4,16S7.9,1.4,16,1.4c0,0,0,0,0,0c1.3,0,2.6,0.2,3.9,0.5l0.2-0.7c-1.3-0.4-2.7-0.6-4.1-0.6C7.5,0.6,0.6,7.5,0.6,16
	S7.5,31.4,16,31.4S31.4,24.5,31.4,16C31.4,14.6,31.2,13.2,30.8,11.9z M16,15c0.6,0,1,0.4,1,1c0,0.6-0.4,1-1,1c-0.6,0-1-0.4-1-1
	C15,15.4,15.4,15,16,15z"/>
</svg>
