<?xml version="1.0" encoding="utf-8"?>
<!-- Generator: Adobe Illustrator 24.1.0, SVG Export Plug-In . SVG Version: 6.00 Build 0)  -->
<svg version="1.1" id="Layer_1" xmlns="http://www.w3.org/2000/svg" xmlns:xlink="http://www.w3.org/1999/xlink" x="0px" y="0px"
	 width="32px" height="32px" viewBox="0 0 32 32" style="enable-background:new 0 0 32 32;" xml:space="preserve">
<style type="text/css">
	.st0{fill:#FFFFFF;}
</style>
<path class="st0" d="M20,11.3c-1.2-0.4-2.5-0.2-3.4,0.7c-0.2,0.2-0.4,0.5-0.6,0.8c-0.1-0.3-0.3-0.6-0.6-0.8
	c-0.9-0.9-2.2-1.2-3.4-0.7c-0.1,0-0.2,0.1-0.2,0.2c-0.4,1.2-0.2,2.5,0.7,3.4c0.6,0.6,1.4,0.9,2.2,0.9c0.3,0,0.6-0.1,0.8-0.1v13.4
	H6.2v-4.4c0.3,0.1,0.5,0.1,0.8,0.1c1.7,0,3.1-1.4,3.1-3.1c0-0.4-0.1-0.8-0.2-1.2c0-0.1-0.1-0.2-0.2-0.2c-1.2-0.4-2.5-0.2-3.4,0.7
	c-0.2,0.2-0.4,0.5-0.6,0.8c-0.1-0.3-0.3-0.6-0.6-0.8c-0.9-0.9-2.2-1.2-3.4-0.7c0.3,0.1,0.2,0.2,0.1,0.2c-0.4,1.2-0.2,2.5,0.7,3.4
	c0.6,0.6,1.4,0.9,2.2,0.9c0.3,0,0.6-0.1,0.8-0.1v4.4H3v0.7h16v-0.7h-2.6v-6.5l1.9-1.9l-0.5-0.5l-1.4,1.4v-5.9
	c0.3,0.1,0.5,0.1,0.8,0.1c1.7,0,3.1-1.4,3.1-3.1c0-0.4-0.1-0.8-0.2-1.2C20.1,11.4,20,11.4,20,11.3z M7.1,21.6
	C7.8,21,8.7,20.7,9.6,21c0.2,0.9,0,1.8-0.6,2.5c-0.7,0.6-1.6,0.8-2.5,0.6c0-0.2-0.1-0.5-0.1-0.7v-0.1C6.4,22.6,6.7,22,7.1,21.6z
	 M3.1,23.4c-0.6-0.7-0.8-1.6-0.6-2.5c0.9-0.2,1.8,0,2.5,0.6c0.5,0.4,0.7,1.1,0.7,1.7v0.1c0,0.3-0.1,0.5-0.1,0.7
	C4.8,24.3,3.7,24.1,3.1,23.4z M13.1,14.4c-0.6-0.7-0.8-1.6-0.6-2.5c0.9-0.2,1.8,0,2.5,0.6c0.5,0.4,0.7,1.1,0.7,1.7v0.1
	c0,0.3-0.1,0.5-0.1,0.7C14.8,15.3,13.7,15.1,13.1,14.4z M18.9,14.4c-0.7,0.6-1.6,0.8-2.5,0.6c0-0.2-0.1-0.5-0.1-0.7v-0.1
	c0-0.6,0.3-1.2,0.7-1.7c0.7-0.6,1.6-0.8,2.5-0.6C19.9,12.8,19.6,13.8,18.9,14.4z M27.2,6.9c1.7,0,3.1-1.4,3.1-3.1
	c0-0.4-0.1-0.8-0.2-1.2c0-0.1-0.1-0.2-0.2-0.2c-1.2-0.4-2.5-0.2-3.4,0.7c-0.2,0.2-0.4,0.5-0.6,0.8c-0.1-0.3-0.3-0.6-0.6-0.8
	c-0.9-0.9-2.2-1.2-3.4-0.7c-0.1,0-0.2,0.1-0.2,0.2c-0.4,1.2-0.2,2.5,0.7,3.4c0.6,0.6,1.4,0.9,2.2,0.9c0.3,0,0.6-0.1,0.8-0.1v10.9
	L24,16.3l-0.5,0.5l1.9,1.9v10.5H23v0.7h6v-0.7h-2.6V13.6l1.9-1.9l-0.5-0.5l-1.4,1.4V6.7C26.7,6.8,27,6.9,27.2,6.9z M27.1,3.6
	C27.8,3,28.7,2.7,29.6,3c0.2,0.9,0,1.8-0.6,2.5c-0.7,0.6-1.6,0.8-2.5,0.6c0-0.2-0.1-0.5-0.1-0.7V5.3C26.4,4.6,26.7,4,27.1,3.6z
	 M23.1,5.4c-0.6-0.7-0.8-1.6-0.6-2.5c0.9-0.2,1.8,0,2.5,0.6c0.5,0.4,0.7,1.1,0.7,1.7v0.1c0,0.3-0.1,0.5-0.1,0.7
	C24.8,6.3,23.7,6.1,23.1,5.4z"/>
</svg>
