<?xml version="1.0" encoding="utf-8"?>
<!-- Generator: Adobe Illustrator 24.1.0, SVG Export Plug-In . SVG Version: 6.00 Build 0)  -->
<svg version="1.1" id="Layer_1" xmlns="http://www.w3.org/2000/svg" xmlns:xlink="http://www.w3.org/1999/xlink" x="0px" y="0px"
	 width="32px" height="32px" viewBox="0 0 32 32" style="enable-background:new 0 0 32 32;" xml:space="preserve">
<style type="text/css">
	.st0{fill:#FFFFFF;}
</style>
<path class="st0" d="M16,22.7c-0.7,0-1.4-0.1-2.1-0.3l0.2-0.7c0.6,0.2,1.2,0.3,1.8,0.3v0.6L16,22.7z M18.1,22.4l-0.2-0.7
	c0.6-0.2,1.2-0.5,1.7-0.9l0.4,0.6C19.4,21.8,18.8,22.2,18.1,22.4z M12.1,21.5c-0.6-0.4-1.1-0.9-1.5-1.5l0.6-0.4
	c0.4,0.5,0.8,0.9,1.3,1.3L12.1,21.5z M21.5,19.9l-0.6-0.4c0.4-0.5,0.7-1.1,0.8-1.7l0.7,0.2C22.2,18.6,21.9,19.3,21.5,19.9z M9.6,18
	c-0.2-0.7-0.3-1.4-0.3-2.1H10c0,0.6,0.1,1.3,0.3,1.9L9.6,18z M22,15.9c0-0.6-0.1-1.3-0.3-1.9l0.7-0.2c0.2,0.7,0.3,1.4,0.3,2.1H22z
	 M10.3,14.2l-0.7-0.2c0.2-0.7,0.5-1.3,0.9-1.9l0.6,0.4C10.7,12.9,10.4,13.5,10.3,14.2z M20.9,12.4c-0.4-0.5-0.8-0.9-1.3-1.3l0.4-0.6
	c0.6,0.4,1.1,0.9,1.5,1.5L20.9,12.4z M12.4,11.2L12,10.6c0.6-0.4,1.2-0.8,1.9-1l0.2,0.7C13.5,10.4,12.9,10.8,12.4,11.2z M17.9,10.3
	c-0.6-0.2-1.3-0.3-1.9-0.3l-0.1-0.7l0,0c0.7,0,1.4,0.1,2.1,0.3L17.9,10.3z M16,25.4c-10.3,0-14.3-9.1-14.3-9.2v-0.3
	c0-0.1,4-9.2,14.3-9.2s14.3,9.1,14.3,9.2v0.3C30.3,16.2,26.3,25.4,16,25.4z M2.4,15.9C2.9,17,6.9,24.5,16,24.5s13.1-7.5,13.6-8.6
	c-0.5-1.1-4.5-8.6-13.6-8.6S2.9,14.8,2.4,15.9z M16,20.3c-2.4,0-4.4-2-4.4-4.4c0-2.4,2-4.4,4.4-4.4c0.3,0,0.6,0,0.9,0.1l-0.2,0.7
	c-0.3-0.1-0.5-0.1-0.8-0.1c-2,0-3.6,1.6-3.6,3.6c0,2,1.6,3.6,3.6,3.6s3.6-1.6,3.6-3.6c0-0.3,0-0.5-0.1-0.8l0.7-0.2
	c0.1,0.3,0.1,0.7,0.1,1c0.2,2.3-1.5,4.3-3.8,4.5C16.2,20.3,16.1,20.4,16,20.3z"/>
</svg>
