<?xml version="1.0" encoding="utf-8"?>
<!-- Generator: Adobe Illustrator 24.1.0, SVG Export Plug-In . SVG Version: 6.00 Build 0)  -->
<svg version="1.1" id="Layer_1" xmlns="http://www.w3.org/2000/svg" xmlns:xlink="http://www.w3.org/1999/xlink" x="0px" y="0px"
	 width="32px" height="32px" viewBox="0 0 32 32" style="enable-background:new 0 0 32 32;" xml:space="preserve">
<path d="M16,31.4c-1.6,0-2.9-1.3-2.9-2.9s1.3-2.9,2.9-2.9s2.9,1.3,2.9,2.9S17.6,31.4,16,31.4z M16,26.4c-1.2,0-2.1,1-2.1,2.1
	s1,2.1,2.1,2.1s2.1-1,2.1-2.1S17.2,26.4,16,26.4z M20.6,28l-0.3-0.7c3.3-1.2,5.8-3.8,7.1-7.1l0.7,0.3C26.7,24,24,26.7,20.6,28z
	 M11.4,28C8,26.7,5.3,24,4,20.6l0.7-0.3c1.2,3.2,3.8,5.8,7.1,7.1L11.4,28z M28.5,18.9c-1.6,0-2.9-1.3-2.9-2.9s1.3-2.9,2.9-2.9
	s2.9,1.3,2.9,2.9S30.1,18.9,28.5,18.9z M28.5,13.9c-1.2,0-2.1,1-2.1,2.1s1,2.1,2.1,2.1s2.1-1,2.1-2.1C30.6,14.8,29.7,13.9,28.5,13.9
	z M3.5,18.9c-1.6,0-2.9-1.3-2.9-2.9s1.3-2.9,2.9-2.9s2.9,1.3,2.9,2.9S5.1,18.9,3.5,18.9z M3.5,13.9c-1.2,0-2.1,1-2.1,2.1
	s1,2.1,2.1,2.1s2.1-1,2.1-2.1S4.7,13.9,3.5,13.9z M27.4,11.7c-1.2-3.2-3.8-5.8-7.1-7.1L20.6,4c3.4,1.3,6.2,4,7.5,7.5L27.4,11.7z
	 M4.6,11.7L4,11.4C5.3,8,8,5.3,11.4,4l0.3,0.7C8.5,5.9,5.9,8.5,4.6,11.7z M12.8,7.2V0.8h6.3v6.3H12.8z M13.6,6.4h4.9V1.6h-4.9V6.4z"
	/>
</svg>
