<?xml version="1.0" encoding="utf-8"?>
<!-- Generator: Adobe Illustrator 24.1.0, SVG Export Plug-In . SVG Version: 6.00 Build 0)  -->
<svg version="1.1" id="Layer_1" xmlns="http://www.w3.org/2000/svg" xmlns:xlink="http://www.w3.org/1999/xlink" x="0px" y="0px"
	 width="32px" height="32px" viewBox="0 0 32 32" style="enable-background:new 0 0 32 32;" xml:space="preserve">
<path d="M10,15.7H4V15h6V15.7z M10,12H4v0.7h6V12z M24.5,7.4c0.3,0,0.5-0.2,0.5-0.5s-0.2-0.5-0.5-0.5S24,6.6,24,6.9
	S24.2,7.4,24.5,7.4z M26.5,7.4c0.3,0,0.5-0.2,0.5-0.5s-0.2-0.5-0.5-0.5S26,6.6,26,6.9S26.2,7.4,26.5,7.4z M10,18H4v0.7h6V18z
	 M31.4,5.4v21c0,0.2-0.2,0.4-0.4,0.4H1c-0.2,0-0.4-0.2-0.4-0.4v-21C0.6,5.2,0.8,5,1,5h30C31.2,5,31.4,5.2,31.4,5.4z M30.6,8.7H1.4
	V26h29.3V8.7z M30.6,5.7H1.4V8h29.3V5.7z M28.5,7.4c0.3,0,0.5-0.2,0.5-0.5s-0.2-0.5-0.5-0.5S28,6.6,28,6.9S28.2,7.4,28.5,7.4z
	 M15.8,14.1h2v-0.7h-2V14.1z M13.5,23.7v-12c0-0.2,0.2-0.4,0.4-0.4h14c0.2,0,0.4,0.2,0.4,0.4v12c0,0.2-0.2,0.4-0.4,0.4h-14
	C13.6,24.1,13.5,23.9,13.5,23.7z M14.2,15.4h13.3v-3.3H14.2V15.4z M14.2,19.4h13.3v-3.3H14.2V19.4z M14.2,23.4h13.3v-3.3H14.2V23.4z
	 M15.8,22.1h2v-0.7h-2V22.1z M15.8,18.1h2v-0.7h-2V18.1z"/>
</svg>
