<?xml version="1.0" encoding="utf-8"?>
<!-- Generator: Adobe Illustrator 25.0.0, SVG Export Plug-In . SVG Version: 6.00 Build 0)  -->
<svg version="1.1" id="Layer_1" xmlns="http://www.w3.org/2000/svg" xmlns:xlink="http://www.w3.org/1999/xlink" x="0px" y="0px"
	 viewBox="0 0 143 107" style="enable-background:new 0 0 143 107;" xml:space="preserve">
<style type="text/css">
	.st0{fill-rule:evenodd;clip-rule:evenodd;fill:#FFFFFF;}
	.st1{fill-rule:evenodd;clip-rule:evenodd;fill:#85A9D5;}
</style>
<desc>Created with Sketch.</desc>
<g id="Page-1">
	<g id="Group-87" transform="translate(-10.000000, -47.000000)">
		<g id="Group-86" transform="translate(66.000000, 90.000000)">
			<g id="Group-85">
				<rect id="Rectangle-21" x="-14.5" y="41.7" class="st0" width="55.9" height="9.3"/>
				<ellipse id="Oval-8" class="st0" cx="-11.4" cy="33.2" rx="18.6" ry="17.8"/>
				<ellipse id="Oval-8_1_" class="st0" cx="38.4" cy="33.2" rx="18.6" ry="17.8"/>
				<ellipse id="Oval-8_2_" class="st0" cx="15.8" cy="23.2" rx="24.1" ry="23.2"/>
			</g>
			<rect id="Rectangle-50" x="18" y="39" class="st1" width="28" height="25"/>
			<path id="Combined-Shape" class="st0" d="M31,45.5V45h0.2c0.4-0.9,0.7-1.2,0.7-0.9l0,0L32,44l0.6,1H33v0.7
				c0.9,1.2,2.4,3.2,4.5,5.9l0.5,0.6L36.6,53l-0.5-0.6L33,48.2v12.1V61h-2v-0.7V48.2l-3.2,4.2L27.3,53L26,52.2l0.4-0.6L31,45.5z"/>
		</g>
	</g>
</g>
</svg>
