<?xml version="1.0" encoding="utf-8"?>
<!-- Generator: Adobe Illustrator 25.0.0, SVG Export Plug-In . SVG Version: 6.00 Build 0)  -->
<svg version="1.1" id="Layer_1" xmlns="http://www.w3.org/2000/svg" xmlns:xlink="http://www.w3.org/1999/xlink" x="0px" y="0px"
	 viewBox="0 0 148 109" style="enable-background:new 0 0 148 109;" xml:space="preserve">
<style type="text/css">
	.st0{fill:none;stroke:#FFFFFF;stroke-width:2.0328;}
	.st1{fill:none;stroke:#FFFFFF;stroke-width:2.0328;stroke-linecap:square;}
	.st2{fill-rule:evenodd;clip-rule:evenodd;fill:#FFFFFF;}
	.st3{fill:none;stroke:#FFFFFF;}
	.st4{fill-rule:evenodd;clip-rule:evenodd;fill:#EBF3FE;}
</style>
<desc>Created with Sketch.</desc>
<g id="Page-1">
	<g id="Group-82" transform="translate(-5.000000, -45.000000)">
		<g id="Group-80" transform="translate(66.000000, 95.000000)">
			<rect id="Rectangle-43" x="-46" y="1" class="st0" width="85" height="57"/>
			<path id="Line-5" class="st1" d="M-45.5,13.5h83"/>
			<circle id="Oval-2" class="st2" cx="-31" cy="6" r="2"/>
			<circle id="Oval-2_1_" class="st2" cx="-26" cy="6" r="2"/>
			<circle id="Oval-2_2_" class="st2" cx="-36" cy="6" r="2"/>
			<rect id="Rectangle-16" x="21" y="47" class="st2" width="14" height="6"/>
			<g id="Group-19" transform="translate(35.000000, 20.000000)">
				<rect id="Rectangle-48" x="-46.5" y="0.5" class="st3" width="24" height="6.1"/>
				<rect id="Rectangle-48_1_" x="-46.5" y="9" class="st3" width="24" height="6.1"/>
				<rect id="Rectangle-48_2_" x="-46.5" y="17.4" class="st3" width="24" height="6.1"/>
				<polygon id="Triangle-4" class="st2" points="-26,4.5 -24.2,2.4 -27.9,2.4 				"/>
				<polygon id="Triangle-4_1_" class="st2" points="-26,13 -24.2,10.9 -27.9,10.9 				"/>
				<polygon id="Triangle-4_2_" class="st2" points="-26,21.5 -24.2,19.3 -27.9,19.3 				"/>
			</g>
			<rect id="Rectangle-30" x="-44" y="14" class="st4" width="20" height="40"/>
		</g>
	</g>
</g>
</svg>
