<?xml version="1.0" encoding="utf-8"?>
<!-- Generator: Adobe Illustrator 25.0.0, SVG Export Plug-In . SVG Version: 6.00 Build 0)  -->
<svg version="1.1" id="Layer_1" xmlns="http://www.w3.org/2000/svg" xmlns:xlink="http://www.w3.org/1999/xlink" x="0px" y="0px"
	 viewBox="0 0 146 106" style="enable-background:new 0 0 146 106;" xml:space="preserve">
<style type="text/css">
	.st0{fill:none;stroke:#FFFFFF;stroke-linecap:square;}
	.st1{fill:none;stroke:#FFFFFF;stroke-width:2;}
	.st2{opacity:0.3535;fill-rule:evenodd;clip-rule:evenodd;fill:#D8D8D8;enable-background:new    ;}
	.st3{opacity:0.2079;fill-rule:evenodd;clip-rule:evenodd;fill:#D8D8D8;enable-background:new    ;}
	.st4{fill-rule:evenodd;clip-rule:evenodd;fill:#FFFFFF;}
	.st5{fill-rule:evenodd;clip-rule:evenodd;fill:#4178BE;}
	.st6{fill:none;stroke:#FFFFFF;stroke-width:5;}
</style>
<desc>Created with Sketch.</desc>
<g id="Page-1">
	<g id="Group-97" transform="translate(-7.000000, -47.000000)">
		<g id="Group-95" transform="translate(49.000000, 54.000000)">
			<g id="Group-94">
				<path id="Line-17" class="st0" d="M7.5,17.5l-12-17.1"/>
				<path id="Line-17_1_" class="st0" d="M26.5,17.5l12-17.1"/>
				<path id="Line-16" class="st0" d="M-16.5,20.6l-18-7.1"/>
				<path id="Line-16_1_" class="st0" d="M50.5,20.6l18-7.1"/>
				<rect id="Rectangle-20" x="-24" y="30" class="st1" width="82" height="55"/>
				<rect id="Rectangle-22" x="-23" y="31" class="st2" width="25" height="53"/>
				<rect id="Rectangle-22_1_" x="5" y="34" class="st3" width="49" height="47"/>
				<path id="Line-15" class="st0" d="M-18.5,40.5h14"/>
				<path id="Line-15_1_" class="st0" d="M-18.5,46.5h14"/>
				<path id="Line-15_2_" class="st0" d="M-18.5,53.5h14"/>
				<path id="Line-15_3_" class="st0" d="M-18.5,59.5h14"/>
				<path id="Line-15_4_" class="st0" d="M-18.5,65.5h14"/>
				<path id="Line-15_5_" class="st0" d="M-18.5,73.5h14"/>
			</g>
			<g id="Group-8" transform="translate(60.000000, 48.000000)">
				<g id="Group-2" transform="translate(0.000000, 12.000000)">
					<path id="Rectangle-23" class="st4" d="M-21.4,0h12.8C-1.1,0,5,6.1,5,13.6v14.6c0,5.7-4.7,10.4-10.4,10.4h-19.2
						c-5.7,0-10.4-4.7-10.4-10.4V13.6C-35,6.1-28.9,0-21.4,0z"/>
					<path id="Combined-Shape" class="st5" d="M-17.6,21.8c-1.4-1-2.3-2.5-2.3-4.3c0-2.9,2.4-5.3,5.3-5.3s5.3,2.4,5.3,5.3
						c0,1.8-0.9,3.4-2.3,4.3v4.7h-6C-17.6,26.5-17.6,21.8-17.6,21.8z"/>
				</g>
				<path id="Combined-Shape_1_" class="st6" d="M-29,19c0-10.5,6.7-19,15-19S1,8.5,1,19H-29z"/>
			</g>
		</g>
	</g>
</g>
</svg>
