<?xml version="1.0" encoding="utf-8"?>
<!-- Generator: Adobe Illustrator 24.1.0, SVG Export Plug-In . SVG Version: 6.00 Build 0)  -->
<svg version="1.1" id="Layer_1" xmlns="http://www.w3.org/2000/svg" xmlns:xlink="http://www.w3.org/1999/xlink" x="0px" y="0px"
	 width="32px" height="32px" viewBox="0 0 32 32" style="enable-background:new 0 0 32 32;" xml:space="preserve">
<path d="M31.3,6.8l-0.5,0.5l-3.4-3.4V16c0,7.4-6,13.4-13.4,13.4S0.6,23.4,0.6,16S6.6,2.6,14,2.6v0.7C7,3.3,1.4,9,1.4,15.9
	S7.1,28.5,14,28.5S26.7,23,26.7,16.1V3.9l-3.4,3.4l-0.5-0.5l4.3-4.3L31.3,6.8z M14.2,19.4c-1.7,0-3.2-1.4-3.2-3.2
	c0-1.7,1.4-3.2,3.2-3.2c1.7,0,3.2,1.4,3.2,3.2C17.4,17.9,15.9,19.4,14.2,19.4z M14.2,13.8c-1.3,0-2.4,1.1-2.4,2.4s1.1,2.4,2.4,2.4
	c1.3,0,2.4-1.1,2.4-2.4S15.5,13.8,14.2,13.8z"/>
</svg>
